<svg width="287" height="395" viewBox="0 0 287 395" fill="none" xmlns="http://www.w3.org/2000/svg">
<path d="M162.245 73.45L145.995 3.12003C145.605 1.30003 144.175 0 142.485 0C140.795 0 139.365 1.43003 138.975 3.12003L122.725 73.45C122.595 74.75 122.855 75.92 123.375 76.96C124.285 78.52 126.235 79.3 128.055 78.78C132.345 77.61 136.895 76.96 141.445 76.83H143.005C147.815 76.83 152.495 77.61 156.915 78.78C158.475 79.17 160.295 78.78 161.205 77.48C162.115 76.31 162.505 75.01 162.245 73.45Z" fill="#005E78"/>
<path d="M206.965 157.82L277.295 141.57C279.115 141.18 280.415 139.75 280.415 138.06C280.415 136.37 278.985 134.94 277.295 134.55L206.965 118.3C205.665 118.17 204.495 118.43 203.455 118.95C201.895 119.86 201.115 121.81 201.635 123.63C202.805 127.92 203.455 132.47 203.585 137.02V138.58C203.585 143.39 202.805 148.07 201.635 152.49C201.245 154.05 201.635 155.87 202.935 156.78C204.105 157.69 205.405 158.08 206.965 157.82Z" fill="#005E78"/>
<path d="M223.735 28.99L185.515 90.22C184.475 91.78 184.475 93.73 185.775 94.9C186.945 96.07 188.895 96.07 190.455 95.16L251.685 56.94C252.725 56.16 253.375 55.12 253.635 54.08C254.155 52.26 253.245 50.44 251.555 49.53C247.655 47.32 244.015 44.59 240.635 41.47L239.465 40.3C236.085 36.92 233.355 33.02 231.015 29.12C230.235 27.69 228.675 26.78 226.985 27.04C225.945 27.04 224.775 27.69 223.735 28.99Z" fill="#0DA8A6"/>
<path d="M33.2849 56.68L94.5149 94.9C96.0749 95.94 98.0249 95.94 99.1949 94.64C100.365 93.47 100.365 91.52 99.4549 89.96L61.2349 28.73C60.4549 27.69 59.4149 27.04 58.3749 26.78C56.5549 26.26 54.7349 27.17 53.8249 28.86C51.6149 32.76 48.8849 36.4 45.7649 39.78L44.5949 40.95C41.2149 44.33 37.3149 47.19 33.4149 49.4C31.9849 50.18 31.0749 51.74 31.3349 53.43C31.3349 54.6 31.9849 55.77 33.2849 56.68Z" fill="#0DA8A6"/>
<path d="M77.8749 118.3L7.54488 134.55C5.72488 134.94 4.42493 136.37 4.42493 138.06C4.42493 139.75 5.85488 141.18 7.54488 141.57L77.8749 157.82C79.1749 157.95 80.3449 157.69 81.3849 157.17C82.9449 156.26 83.7249 154.31 83.2049 152.49C82.0349 148.2 81.3849 143.65 81.2549 139.1V137.54C81.2549 132.73 82.0349 128.05 83.2049 123.63C83.5949 122.07 83.2049 120.25 81.9049 119.34C80.7349 118.43 79.4349 118.04 77.8749 118.3Z" fill="#005E78"/>
<path d="M61.1048 247.26L99.3249 186.03C100.365 184.47 100.365 182.52 99.0648 181.35C97.8948 180.18 95.9449 180.18 94.3849 181.09L33.1548 219.31C32.1148 220.09 31.4648 221.13 31.2048 222.17C30.6848 223.99 31.5949 225.81 33.2849 226.72C37.1849 228.93 40.8248 231.66 44.2048 234.91L45.3749 236.08C48.7549 239.46 51.4849 243.36 53.8249 247.26C54.6049 248.69 56.1648 249.6 57.8548 249.34C58.8948 249.21 60.0648 248.56 61.1048 247.26Z" fill="#0DA8A6"/>
<path d="M251.685 219.44L190.455 181.22C188.895 180.18 186.945 180.18 185.775 181.48C184.605 182.65 184.605 184.6 185.515 186.16L223.735 247.39C224.515 248.43 225.555 249.08 226.595 249.34C228.415 249.86 230.235 248.95 231.145 247.26C233.355 243.36 236.085 239.72 239.205 236.34L240.375 235.17C243.755 231.79 247.655 228.93 251.555 226.72C252.985 225.94 253.895 224.38 253.635 222.69C253.505 221.65 252.855 220.48 251.685 219.44Z" fill="#0DA8A6"/>
<path d="M284.835 293.15C283.405 292.24 281.455 292.5 280.155 293.8L245.315 315.12C244.405 316.16 244.015 317.2 243.885 318.37C243.755 320.19 244.925 321.88 246.745 322.4C248.305 322.92 249.865 323.57 251.295 324.22C246.875 328.77 220.745 351.13 169.265 359.32C165.105 359.97 161.335 356.85 161.075 352.69L154.315 180.7C154.185 177.97 155.745 175.37 158.215 174.33C172.255 168.22 182.005 154.31 182.005 138.06C182.005 116.35 164.325 98.67 142.615 98.67C120.775 98.67 103.225 116.35 103.225 138.06C103.225 154.57 113.365 168.61 127.665 174.59C130.135 175.63 131.695 178.23 131.565 180.96L124.675 352.69C124.545 356.85 120.645 359.97 116.485 359.32C65.135 351.13 39.135 328.9 34.585 324.35C36.275 323.57 37.835 322.92 39.525 322.4C41.215 321.75 42.515 320.19 42.385 318.37C42.255 317.2 41.8649 316.16 40.9549 315.12L6.11497 293.8C4.81497 292.5 2.865 292.11 1.435 293.15C0.00500017 294.06 -0.385063 296.01 0.394937 297.7L8.32498 337.22C8.97498 338.65 10.145 339.56 11.315 339.95C12.875 340.47 14.565 339.82 15.605 338.65C16.905 337.09 18.205 335.79 19.765 334.36C49.535 368.29 85.0249 394.42 143.005 394.42C200.985 394.42 246.225 360.88 266.505 334.23C268.065 335.66 269.495 337.09 270.795 338.65C271.835 339.95 273.525 340.47 275.085 339.95C276.255 339.56 277.425 338.65 278.075 337.22L286.005 297.7C286.655 296.01 286.265 294.06 284.835 293.15ZM142.615 118.43C153.535 118.43 162.375 127.27 162.375 138.19C162.375 149.11 153.535 157.95 142.615 157.95C131.695 157.95 122.855 149.11 122.855 138.19C122.855 127.27 131.695 118.43 142.615 118.43Z" fill="#005E78"/>
</svg>
