<svg width="36" height="49" viewBox="0 0 36 49" fill="none" xmlns="http://www.w3.org/2000/svg">
<path d="M3.60969 6.06993C4.94969 6.06993 6.02969 4.96993 6.02969 3.61993L6.01969 3.62993C6.01969 2.26993 4.93969 1.17993 3.59969 1.17993C2.25969 1.17993 1.17969 2.26993 1.17969 3.61993C1.17969 4.96993 2.26969 6.06993 3.60969 6.06993ZM3.60969 6.06993V47.3499M17.3297 10.1399V26.4399C17.3297 27.2599 17.3997 27.8699 18.3397 28.3599C22.0697 30.3399 25.5597 24.8999 34.0897 25.8099M17.3297 23.4099C15.6497 21.3699 6.52969 25.3699 3.59969 26.4399M34.0897 25.7799C33.5597 24.3699 31.7497 21.1099 27.1597 18.3599C27.6097 17.0399 31.4697 12.8899 34.0897 9.47993C25.5597 8.55993 22.0697 14.0099 18.3397 12.0299C17.3997 11.5299 17.3297 10.9599 17.3297 10.1499C17.3297 8.92993 18.1297 8.16993 17.2797 7.11993C15.5997 5.07993 6.52969 9.07993 3.59969 10.1499" stroke="white" stroke-width="2.36" stroke-linecap="round" stroke-linejoin="round"/>
</svg>
