<svg width="112" height="141" viewBox="0 0 112 141" fill="none" xmlns="http://www.w3.org/2000/svg">
<path d="M64.2197 96.7499H57.6896C55.4896 96.7499 52.6597 95.5999 49.2397 91.0699C45.0597 85.5299 39.1396 83.6799 34.0696 83.6799H28.2897M28.2897 96.7499H8.68963C-4.38037 96.7499 4.44965 139.22 11.9596 139.22H38.0997C52.7997 139.22 51.1697 132.69 60.9697 132.69H64.2397M77.3097 103.29V113.09M90.3797 135.96H64.2397V93.4899H90.3797V135.96Z" stroke="#CDDC29" stroke-width="3.27" stroke-miterlimit="10"/>
<path d="M21.75 2V96.74M80.75 18.71C91.73 19.41 105.02 17.81 109.96 15.07L93.98 40.28L109.2 60.27C100.2 65.26 63.55 66.47 63.47 56.91M21.75 9.53C35.69 3.78 57.35 0.569993 70.75 6.67999V49.96C64.99 40.9 35.68 46.55 21.75 52.31" stroke="#CDDC29" stroke-width="3.27" stroke-linecap="round" stroke-linejoin="round"/>
</svg>
