<svg width="107" height="109" viewBox="0 0 107 109" fill="none" xmlns="http://www.w3.org/2000/svg">
<path d="M30.6099 48.2701C34.5099 48.2701 37.2999 45.0301 37.2999 40.3401V38.3601C37.2999 33.6701 34.5099 30.4301 30.6099 30.4301C26.7099 30.4301 23.9199 33.6701 23.9199 38.3601V40.3401C23.9199 45.0301 26.7099 48.2701 30.6099 48.2701Z" stroke="#CDDC29" stroke-width="3.27" stroke-miterlimit="10"/>
<path d="M41.7598 83.9701V66.0901L52.9098 54.9201L56.8898 45.8401C58.3098 42.2801 56.2098 37.2801 52.8198 34.8101C52.8198 34.8101 47.6798 43.7501 46.2198 45.9801C44.7598 48.2201 41.5898 54.9201 32.8298 54.9201H28.3698C19.6198 54.9201 13.5198 43.7501 14.9798 45.9801C16.4498 48.2201 6.14983 32.5701 6.14983 32.5701C2.75983 35.0401 0.659832 40.0401 2.07983 43.6001L8.28983 54.9201L19.4498 66.0901V68.3201" stroke="#CDDC29" stroke-width="3.27" stroke-miterlimit="10"/>
<path d="M26.15 92.9C30.05 92.9 32.84 89.66 32.84 84.97V82.99C32.84 78.3 30.05 75.06 26.15 75.06C22.25 75.06 19.46 78.3 19.46 82.99V84.97C19.46 89.66 22.25 92.9 26.15 92.9ZM57.39 86.21C61.29 86.21 64.08 82.97 64.08 78.28V76.3C64.08 71.61 61.29 68.37 57.39 68.37C53.49 68.37 50.7 71.61 50.7 76.3V78.28C50.7 82.97 53.49 86.21 57.39 86.21Z" stroke="#CDDC29" stroke-width="3.27" stroke-miterlimit="10"/>
<path d="M12.8496 108.52C12.8496 101.15 20.7796 99.6 26.1896 99.6C31.5996 99.6 39.5296 101.15 39.5296 108.52" stroke="#CDDC29" stroke-width="3.27" stroke-miterlimit="10"/>
<path d="M47.0803 11.18C53.8803 0.979966 61.1303 13.47 73.1603 6.08997C71.1103 9.11997 69.6703 14.03 69.6703 14.03C69.6703 14.03 73.4003 18.91 76.5703 20.73C66.8303 28.11 57.5103 15.71 50.7103 25.91M46.0703 7.07997L52.9203 34.88" stroke="#CDDC29" stroke-width="3.27" stroke-miterlimit="10"/>
<path d="M68.5396 108.52V104.06L79.6996 92.9001L83.6796 83.8301C85.0996 80.2801 83.0896 75.2801 79.6996 72.8201C79.6996 72.8201 74.4696 81.7401 73.0096 83.9701C71.5496 86.2001 68.3796 92.9001 59.6196 92.9001H56.3196C52.1896 92.9001 46.6896 93.6701 43.8096 96.7201" stroke="#CDDC29" stroke-width="3.27" stroke-miterlimit="10"/>
<path d="M73.8498 49.11C80.6498 38.91 87.8998 51.4 99.9298 44.02C97.8798 47.05 96.4398 51.96 96.4398 51.96C96.4398 51.96 100.17 56.84 103.34 58.66C93.5998 66.04 84.2799 53.64 77.4799 63.84M72.8398 45.01L79.6898 72.81" stroke="#CDDC29" stroke-width="3.27" stroke-miterlimit="10"/>
</svg>
