<svg width="91" height="125" viewBox="0 0 91 125" fill="none" xmlns="http://www.w3.org/2000/svg">
<g clip-path="url(#clip0_118_3836)">
<path d="M51.1705 23.06L46.1305 0.959998C46.0505 0.359998 45.5005 -0.0700016 44.9005 0.0099984C44.4005 0.0699984 44.0105 0.469998 43.9505 0.959998L38.7305 23.06C38.6805 23.44 38.7605 23.83 38.9405 24.16C39.2405 24.66 39.8405 24.89 40.4005 24.73C41.7805 24.34 43.2105 24.13 44.6505 24.11H45.1505C46.6305 24.13 48.1105 24.33 49.5405 24.73C50.0305 24.89 50.5805 24.72 50.8905 24.3C51.1405 23.94 51.2505 23.49 51.1905 23.06" fill="white"/>
<path d="M65.3001 49.71L87.4501 44.58C88.0001 44.49 88.4101 44.03 88.4501 43.48C88.4201 42.93 88.0001 42.47 87.4501 42.4L65.3001 37.28C64.9201 37.23 64.5301 37.29 64.2001 37.48C63.7001 37.79 63.4701 38.39 63.6301 38.95C64.0201 40.33 64.2301 41.75 64.2501 43.18V43.7C64.2301 45.18 64.0301 46.65 63.6301 48.07C63.4801 48.57 63.6301 49.11 64.0401 49.44C64.4101 49.7 64.8601 49.8 65.3001 49.74" fill="white"/>
<path d="M70.5703 9.08L58.5604 28.39C58.2104 28.82 58.2104 29.44 58.5604 29.87C58.9904 30.22 59.6203 30.22 60.0503 29.87L79.3403 17.83C79.6403 17.6 79.8603 17.27 79.9604 16.91C80.1003 16.34 79.8404 15.75 79.3204 15.47C78.0704 14.77 76.9204 13.91 75.8904 12.91L75.5404 12.57C74.5004 11.5 73.6104 10.31 72.8704 9.02C72.6404 8.56 72.1403 8.3 71.6303 8.36C71.1903 8.42 70.7903 8.66 70.5303 9.02" fill="white"/>
<path d="M10.4998 17.86L29.8098 29.9C30.2898 30.27 30.9798 30.19 31.3598 29.71C31.6698 29.31 31.6698 28.76 31.3598 28.36L19.3098 9.04C19.0798 8.74 18.7498 8.52 18.3898 8.42C17.8198 8.28 17.2298 8.54 16.9498 9.06C16.2498 10.31 15.3898 11.46 14.3898 12.49L14.0398 12.85C12.9798 13.89 11.7798 14.79 10.4898 15.51C10.0298 15.74 9.76983 16.24 9.82983 16.75C9.88983 17.19 10.1298 17.59 10.4898 17.85" fill="white"/>
<path d="M24.5602 37.27L2.40016 42.39C1.85016 42.49 1.45016 42.94 1.41016 43.49C1.45016 44.04 1.86016 44.49 2.40016 44.57L24.5702 49.7C24.9402 49.75 25.3202 49.68 25.6502 49.5C26.1602 49.2 26.3902 48.59 26.2202 48.03C25.8402 46.65 25.6302 45.23 25.6002 43.8V43.28C25.6202 41.8 25.8202 40.33 26.2202 38.91C26.3802 38.41 26.2202 37.87 25.8102 37.54C25.4502 37.29 25.0002 37.18 24.5702 37.24" fill="white"/>
<path d="M19.2703 77.93L31.3103 58.59C31.6603 58.16 31.6603 57.55 31.3103 57.12C30.8803 56.77 30.2603 56.77 29.8403 57.12L10.5303 69.15C10.2303 69.38 10.0103 69.71 9.91034 70.07C9.76034 70.64 10.0303 71.24 10.5503 71.51C11.7903 72.22 12.9503 73.08 13.9803 74.07L14.3403 74.42C15.3803 75.48 16.2803 76.68 17.0003 77.97C17.2303 78.44 17.7303 78.71 18.2403 78.65C18.6803 78.57 19.0703 78.33 19.3403 77.97" fill="white"/>
<path d="M79.3499 69.25L60.0599 57.21C59.6299 56.86 59.0099 56.86 58.5799 57.21C58.2299 57.64 58.2299 58.25 58.5799 58.68L70.6199 77.97C70.8499 78.27 71.1599 78.5 71.5299 78.61C72.0999 78.76 72.6999 78.49 72.9699 77.97C73.6499 76.74 74.4899 75.6 75.4599 74.58L75.8099 74.21C76.8799 73.18 78.0699 72.29 79.3599 71.56C79.8299 71.32 80.0999 70.82 80.0399 70.3C79.9599 69.87 79.7199 69.48 79.3599 69.22" fill="white"/>
<path d="M89.8305 92.34C89.3605 92.05 88.7505 92.14 88.3705 92.55L77.3605 99.26C77.1105 99.54 76.9505 99.9 76.9205 100.27C76.9005 100.86 77.2705 101.38 77.8305 101.57C78.3305 101.73 78.8105 101.92 79.2905 102.14C77.8705 103.54 69.6605 110.61 53.4105 113.21C52.2005 113.4 51.0605 112.57 50.8805 111.35C50.8705 111.26 50.8605 111.18 50.8605 111.09L48.6905 56.84C48.6505 55.99 49.1305 55.19 49.9205 54.85C56.2505 52.19 59.2305 44.9 56.5705 38.57C53.9105 32.24 46.6205 29.26 40.2905 31.92C33.9605 34.58 30.9805 41.87 33.6405 48.2C34.9005 51.2 37.2905 53.59 40.2905 54.85C41.0705 55.19 41.5605 55.98 41.5105 56.84L39.3205 111.16C39.2805 112.39 38.2505 113.34 37.0205 113.3C36.9305 113.3 36.8505 113.29 36.7605 113.28C20.5805 110.7 12.3705 103.69 10.9105 102.27C11.4205 102.02 11.9505 101.81 12.4905 101.65C13.0505 101.47 13.4105 100.94 13.3805 100.35C13.3605 99.97 13.2005 99.61 12.9405 99.34L1.93048 92.63C1.55048 92.17 0.860477 92.11 0.400477 92.49C0.000476718 92.83 -0.109523 93.4 0.150477 93.85L2.64048 106.28C2.84048 106.68 3.18048 106.99 3.60048 107.15C4.09048 107.3 4.63048 107.13 4.95048 106.72C5.36048 106.26 5.78048 105.81 6.25048 105.37C15.6305 116.08 26.7905 124.31 45.0805 124.31C60.2505 124.12 74.5405 117.15 84.0405 105.32C84.5205 105.76 84.9705 106.22 85.3905 106.72C85.7105 107.13 86.2605 107.3 86.7605 107.15C87.1705 106.99 87.5105 106.68 87.7005 106.28L90.2105 93.85C90.4505 93.35 90.3105 92.74 89.8505 92.41M44.9805 37.27C48.4105 37.27 51.2005 40.05 51.2005 43.49C51.2005 46.93 48.4205 49.71 44.9805 49.71C41.5405 49.71 38.7605 46.93 38.7605 43.49C38.7605 40.05 41.5405 37.27 44.9805 37.27Z" fill="white"/>
</g>
<defs>
<clipPath id="clip0_118_3836">
<rect width="90.3" height="124.31" fill="white"/>
</clipPath>
</defs>
</svg>
