<svg width="295" height="140" viewBox="0 0 295 140" fill="none" xmlns="http://www.w3.org/2000/svg">
<path d="M250.94 25.9007L245.21 1.10022C245.073 0.458431 244.568 0 243.972 0C243.376 0 242.872 0.504273 242.735 1.10022L237.004 25.9007C236.959 26.3591 237.05 26.7717 237.234 27.1384C237.554 27.6885 238.242 27.9636 238.884 27.7802C240.397 27.3677 242.001 27.1384 243.606 27.0926H244.156C245.852 27.0926 247.502 27.3677 249.061 27.7802C249.611 27.9178 250.253 27.7802 250.574 27.3218C250.894 26.9092 251.032 26.4508 250.94 25.9007Z" fill="white"/>
<path d="M266.71 55.6522L291.511 49.922C292.153 49.7845 292.611 49.2802 292.611 48.6843C292.611 48.0883 292.107 47.584 291.511 47.4465L266.71 41.7163C266.252 41.6704 265.839 41.7621 265.473 41.9455C264.923 42.2664 264.648 42.954 264.831 43.5958C265.244 45.1086 265.473 46.7131 265.519 48.3175V48.8676C265.519 50.5638 265.244 52.2141 264.831 53.7727C264.693 54.3228 264.831 54.9646 265.289 55.2855C265.702 55.6064 266.16 55.7439 266.71 55.6522Z" fill="white"/>
<path d="M272.624 10.2228L259.146 31.8143C258.78 32.3644 258.78 33.0521 259.238 33.4646C259.651 33.8772 260.338 33.8772 260.888 33.5563L282.48 20.0788C282.847 19.8037 283.076 19.437 283.168 19.0703C283.351 18.4285 283.03 17.7867 282.434 17.4658C281.059 16.6865 279.775 15.7238 278.583 14.6236L278.171 14.211C276.979 13.0191 276.016 11.6439 275.191 10.2686C274.916 9.76435 274.366 9.44346 273.77 9.53514C273.403 9.53514 272.991 9.76435 272.624 10.2228Z" fill="white"/>
<path d="M205.465 19.9872L227.057 33.4648C227.607 33.8315 228.295 33.8315 228.707 33.3731C229.12 32.9605 229.12 32.2729 228.799 31.7228L215.321 10.1312C215.046 9.76446 214.68 9.53525 214.313 9.44357C213.671 9.2602 213.029 9.5811 212.708 10.177C211.929 11.5523 210.966 12.8359 209.866 14.0278L209.454 14.4403C208.262 15.6322 206.887 16.6408 205.511 17.4201C205.007 17.6951 204.686 18.2452 204.778 18.8412C204.778 19.2537 205.007 19.6663 205.465 19.9872Z" fill="white"/>
<path d="M221.189 41.7161L196.389 47.4464C195.747 47.5839 195.289 48.0882 195.289 48.6841C195.289 49.28 195.793 49.7843 196.389 49.9218L221.189 55.6521C221.648 55.6979 222.06 55.6062 222.427 55.4229C222.977 55.102 223.252 54.4143 223.069 53.7726C222.656 52.2598 222.427 50.6553 222.381 49.0508V48.5007C222.381 46.8046 222.656 45.1543 223.069 43.5956C223.206 43.0455 223.069 42.4038 222.61 42.0829C222.198 41.762 221.739 41.6244 221.189 41.7161Z" fill="white"/>
<path d="M215.275 87.1915L228.753 65.6C229.12 65.0499 229.12 64.3622 228.661 63.9497C228.249 63.5371 227.561 63.5371 227.011 63.858L205.419 77.3355C205.053 77.6106 204.823 77.9773 204.732 78.344C204.548 78.9858 204.869 79.6276 205.465 79.9485C206.84 80.7278 208.124 81.6905 209.316 82.8365L209.728 83.2491C210.92 84.441 211.883 85.8163 212.708 87.1915C212.983 87.6958 213.533 88.0167 214.129 87.925C214.496 87.8792 214.909 87.65 215.275 87.1915Z" fill="white"/>
<path d="M282.48 77.3812L260.888 63.9037C260.338 63.537 259.651 63.537 259.238 63.9954C258.825 64.408 258.825 65.0956 259.146 65.6457L272.624 87.2373C272.899 87.604 273.266 87.8332 273.632 87.9249C274.274 88.1083 274.916 87.7874 275.237 87.1914C276.016 85.8162 276.979 84.5326 278.079 83.3407L278.492 82.9281C279.684 81.7362 281.059 80.7277 282.434 79.9484C282.938 79.6733 283.259 79.1232 283.167 78.5273C283.122 78.1605 282.892 77.748 282.48 77.3812Z" fill="white"/>
<path d="M294.17 103.374C293.665 103.053 292.978 103.144 292.519 103.603L280.234 111.121C279.913 111.488 279.775 111.854 279.729 112.267C279.683 112.909 280.096 113.505 280.738 113.688C281.288 113.871 281.838 114.101 282.342 114.33C280.784 115.934 271.569 123.819 253.416 126.707C251.949 126.936 250.62 125.836 250.528 124.369L248.144 63.7202C248.098 62.7575 248.648 61.8407 249.519 61.474C254.47 59.3194 257.909 54.4143 257.909 48.6841C257.909 41.0284 251.674 34.7939 244.018 34.7939C236.317 34.7939 230.128 41.0284 230.128 48.6841C230.128 54.506 233.704 59.4569 238.747 61.5656C239.618 61.9324 240.168 62.8492 240.122 63.8119L237.692 124.369C237.646 125.836 236.271 126.936 234.804 126.707C216.697 123.819 207.528 115.98 205.924 114.376C206.52 114.101 207.07 113.871 207.666 113.688C208.262 113.459 208.72 112.909 208.674 112.267C208.628 111.854 208.491 111.488 208.17 111.121L195.884 103.603C195.426 103.144 194.738 103.007 194.234 103.374C193.73 103.694 193.592 104.382 193.867 104.978L196.664 118.914C196.893 119.418 197.305 119.739 197.718 119.877C198.268 120.06 198.864 119.831 199.231 119.418C199.689 118.868 200.148 118.41 200.698 117.905C211.196 129.87 223.71 139.084 244.156 139.084C264.601 139.084 280.554 127.257 287.706 117.86C288.256 118.364 288.76 118.868 289.219 119.418C289.585 119.877 290.181 120.06 290.731 119.877C291.144 119.739 291.557 119.418 291.786 118.914L294.582 104.978C294.811 104.382 294.674 103.694 294.17 103.374ZM244.018 41.7619C247.869 41.7619 250.986 44.8792 250.986 48.7299C250.986 52.5806 247.869 55.6979 244.018 55.6979C240.168 55.6979 237.05 52.5806 237.05 48.7299C237.05 44.8792 240.168 41.7619 244.018 41.7619Z" fill="white"/>
<path d="M3.85078 133.785C3.16315 133.785 2.47552 133.647 1.83373 133.418C1.19194 133.189 0.596002 132.822 0.0458984 132.318L1.00858 131.172C1.467 131.538 1.87958 131.859 2.338 132.043C2.79642 132.226 3.30067 132.363 3.89662 132.363C4.40088 132.363 4.76762 132.272 5.08851 132.043C5.36357 131.813 5.54693 131.538 5.54693 131.217V131.172C5.54693 130.988 5.50109 130.851 5.45525 130.713C5.40941 130.576 5.27188 130.484 5.13436 130.346C4.99683 130.209 4.76762 130.117 4.49257 130.026C4.21752 129.934 3.89662 129.842 3.4382 129.75C2.93394 129.613 2.52137 129.521 2.15463 129.384C1.7879 129.246 1.467 129.063 1.19195 128.879C0.916896 128.696 0.733526 128.421 0.596001 128.146C0.458475 127.871 0.412636 127.504 0.412636 127.092V127.046C0.412636 126.633 0.504319 126.312 0.641845 125.946C0.779371 125.625 1.00858 125.35 1.28363 125.12C1.55868 124.891 1.87958 124.708 2.24631 124.57C2.61305 124.433 3.02563 124.387 3.48405 124.387C4.17168 124.387 4.76762 124.479 5.31772 124.662C5.86783 124.845 6.37209 125.166 6.83051 125.533L5.95951 126.771C5.54693 126.45 5.13435 126.221 4.72178 126.083C4.3092 125.9 3.89662 125.854 3.48405 125.854C3.02563 125.854 2.65889 125.946 2.38384 126.175C2.10879 126.404 1.97126 126.633 1.97126 126.954V127C1.97126 127.183 2.0171 127.321 2.06294 127.458C2.10878 127.596 2.24632 127.733 2.38384 127.825C2.56721 127.917 2.75058 128.054 3.07147 128.146C3.34652 128.238 3.71326 128.329 4.17168 128.467C4.67594 128.604 5.08852 128.742 5.45525 128.879C5.82199 129.017 6.14288 129.2 6.37209 129.43C6.6013 129.659 6.78467 129.888 6.92219 130.163C7.05972 130.438 7.10556 130.759 7.10556 131.172V131.217C7.10556 131.63 7.01387 132.043 6.87635 132.363C6.69298 132.684 6.50961 133.005 6.18872 133.234C5.91367 133.464 5.54693 133.647 5.1802 133.785C4.76762 133.693 4.35504 133.785 3.85078 133.785Z" fill="white"/>
<path d="M12.4692 124.433H13.9361L17.9702 133.647H16.274L15.3572 131.447H11.048L10.0854 133.647H8.43506L12.4692 124.433ZM14.7613 130.026L13.1568 126.358L11.5982 130.026H14.7613Z" fill="white"/>
<path d="M23.4708 133.784C22.8748 133.784 22.3247 133.693 21.8663 133.509C21.4079 133.326 20.9953 133.097 20.6286 132.73C20.3077 132.409 20.0326 131.951 19.8493 131.446C19.6659 130.942 19.5742 130.346 19.5742 129.705V124.479H21.1787V129.705C21.1787 130.576 21.4079 131.217 21.7746 131.676C22.1872 132.134 22.7373 132.363 23.4708 132.363C24.2043 132.363 24.7544 132.134 25.1669 131.722C25.5795 131.309 25.7629 130.667 25.7629 129.796V124.479H27.3674V129.659C27.3674 130.346 27.2757 130.942 27.0923 131.446C26.9089 131.951 26.6339 132.409 26.313 132.73C25.9921 133.097 25.5795 133.326 25.0753 133.509C24.6168 133.693 24.0667 133.784 23.4708 133.784Z" fill="white"/>
<path d="M29.7974 124.479H33.1897C33.9231 124.479 34.5649 124.616 35.1609 124.845C35.7568 125.074 36.2611 125.395 36.7195 125.808C37.1321 126.221 37.4988 126.679 37.728 127.275C37.9572 127.825 38.0948 128.421 38.0948 129.063V129.109C38.0948 129.75 37.9572 130.346 37.728 130.896C37.4988 131.446 37.1779 131.951 36.7195 132.363C36.3069 132.776 35.7568 133.097 35.1609 133.326C34.5649 133.555 33.9231 133.693 33.1897 133.693H29.7974V124.479ZM33.1897 132.18C33.6481 132.18 34.1065 132.088 34.5191 131.951C34.9317 131.813 35.2526 131.584 35.5276 131.309C35.8027 131.034 36.0319 130.713 36.1694 130.346C36.3069 129.98 36.3986 129.567 36.3986 129.109V129.063C36.3986 128.604 36.3069 128.192 36.1694 127.825C36.0319 127.458 35.8027 127.091 35.5276 126.816C35.2526 126.541 34.9317 126.312 34.5191 126.175C34.1065 126.037 33.6939 125.945 33.1897 125.945H31.4018V132.18H33.1897Z" fill="white"/>
<path d="M41.8994 124.479H40.2949V133.647H41.8994V124.479Z" fill="white"/>
<path d="M48.4551 124.479H52.0766C52.6267 124.479 53.0851 124.57 53.5435 124.708C53.9561 124.845 54.3228 125.074 54.6437 125.304C54.9646 125.579 55.1938 125.9 55.3314 126.266C55.4689 126.633 55.5606 127.046 55.5606 127.504V127.55C55.5606 128.054 55.4689 128.513 55.2855 128.925C55.1022 129.292 54.8271 129.659 54.5062 129.888C54.1853 130.163 53.7727 130.346 53.3602 130.484C52.9017 130.621 52.4433 130.667 51.9391 130.667H50.1054V133.601H48.5009V124.479H48.4551ZM51.9391 129.246C52.535 129.246 53.0393 129.109 53.406 128.788C53.7727 128.467 53.9561 128.1 53.9561 127.596V127.55C53.9561 127 53.7727 126.587 53.406 126.312C53.0393 126.037 52.5809 125.9 51.9391 125.9H50.0595V129.2H51.9391V129.246Z" fill="white"/>
<path d="M61.749 133.784C61.0614 133.784 60.3737 133.647 59.8236 133.418C59.2277 133.189 58.7234 132.822 58.3109 132.409C57.8983 131.997 57.5774 131.492 57.3482 130.896C57.119 130.346 56.9814 129.705 56.9814 129.063C56.9814 128.421 57.119 127.825 57.3482 127.229C57.5774 126.679 57.8983 126.175 58.3567 125.716C58.7693 125.304 59.2735 124.937 59.8695 124.708C60.4654 124.433 61.1072 124.341 61.7949 124.341C62.4825 124.341 63.1701 124.479 63.7202 124.708C64.3162 124.937 64.8204 125.304 65.233 125.716C65.6456 126.129 65.9665 126.633 66.1957 127.229C66.4249 127.825 66.5624 128.421 66.5624 129.063V129.109C66.5624 129.75 66.4249 130.346 66.1957 130.942C65.9665 131.492 65.6456 131.997 65.1872 132.455C64.7746 132.868 64.2703 133.234 63.6744 133.464C63.1243 133.693 62.4825 133.784 61.749 133.784ZM61.7949 132.318C62.2533 132.318 62.6658 132.226 63.0326 132.043C63.3993 131.859 63.7202 131.63 63.9953 131.355C64.2703 131.08 64.4995 130.713 64.637 130.346C64.7746 129.934 64.8663 129.521 64.8663 129.109V129.063C64.8663 128.604 64.7746 128.192 64.637 127.779C64.4995 127.367 64.2703 127.046 63.9953 126.725C63.7202 126.45 63.3993 126.221 63.0326 126.037C62.6658 125.854 62.2533 125.762 61.7949 125.762C61.3364 125.762 60.9238 125.854 60.5571 126.037C60.1904 126.221 59.8695 126.45 59.5944 126.725C59.3194 127 59.0902 127.367 58.9526 127.733C58.8151 128.146 58.7234 128.559 58.7234 128.971V129.017C58.7234 129.475 58.8151 129.888 58.9526 130.301C59.0902 130.713 59.3194 131.034 59.5944 131.355C59.8695 131.63 60.1904 131.859 60.5571 132.043C60.9238 132.226 61.3364 132.318 61.7949 132.318Z" fill="white"/>
<path d="M68.7172 124.479H72.7972C73.3931 124.479 73.8974 124.57 74.3099 124.708C74.7684 124.891 75.1351 125.074 75.4101 125.395C75.6394 125.625 75.8227 125.945 75.9603 126.266C76.0978 126.587 76.1436 126.954 76.1436 127.367V127.412C76.1436 127.779 76.0978 128.146 75.9603 128.421C75.8686 128.742 75.6852 128.971 75.5018 129.2C75.3185 129.429 75.0893 129.613 74.8142 129.796C74.5392 129.98 74.2641 130.071 73.9432 130.163L76.4187 133.647H74.5392L72.2929 130.438H72.2471H70.2759V133.647H68.6714V124.479H68.7172ZM72.6596 129.017C73.2556 129.017 73.714 128.879 74.0349 128.604C74.3558 128.329 74.5392 127.962 74.5392 127.504V127.458C74.5392 126.954 74.3558 126.587 74.0349 126.312C73.714 126.037 73.2556 125.945 72.6138 125.945H70.2759V129.017H72.6596Z" fill="white"/>
<path d="M80.5902 125.991H77.7021V124.479H85.1286V125.991H82.1947V133.647H80.5902V125.991Z" fill="white"/>
<path d="M90.217 133.785C89.5294 133.785 88.8417 133.647 88.1999 133.418C87.5582 133.189 86.9622 132.822 86.4121 132.318L87.3748 131.172C87.8332 131.538 88.2458 131.859 88.7042 132.043C89.1626 132.226 89.6669 132.363 90.2628 132.363C90.7671 132.363 91.1338 132.272 91.4547 132.043C91.7298 131.813 91.9131 131.538 91.9131 131.217V131.172C91.9131 130.988 91.8673 130.851 91.8215 130.713C91.7756 130.576 91.6839 130.484 91.5006 130.346C91.363 130.209 91.1338 130.117 90.8588 130.026C90.5837 129.934 90.2628 129.842 89.8044 129.75C89.3002 129.613 88.8876 129.521 88.475 129.384C88.1083 129.246 87.7874 129.063 87.5123 128.879C87.2373 128.696 87.0539 128.421 86.9164 128.146C86.7788 127.871 86.733 127.504 86.733 127.092V127.046C86.733 126.633 86.8247 126.312 86.9622 125.946C87.0997 125.625 87.329 125.35 87.604 125.12C87.8791 124.891 88.2 124.708 88.5667 124.57C88.9334 124.433 89.3918 124.387 89.8044 124.387C90.492 124.387 91.088 124.479 91.6381 124.662C92.1882 124.845 92.6925 125.166 93.1509 125.533L92.2799 126.771C91.8673 126.45 91.4547 126.221 91.0422 126.083C90.6296 125.9 90.217 125.854 89.8044 125.854C89.346 125.854 88.9793 125.946 88.7042 126.175C88.4292 126.404 88.3375 126.633 88.3375 126.954V127C88.3375 127.183 88.3833 127.321 88.4292 127.458C88.475 127.596 88.6125 127.733 88.7501 127.825C88.9334 127.917 89.1168 128.054 89.4377 128.146C89.7127 128.238 90.0795 128.329 90.5379 128.467C91.0421 128.604 91.4547 128.742 91.8215 128.879C92.1882 129.017 92.5091 129.2 92.7383 129.43C92.9675 129.659 93.1509 129.888 93.2884 130.163C93.4259 130.438 93.4718 130.759 93.4718 131.172V131.217C93.4718 131.63 93.3801 132.043 93.2426 132.363C93.105 132.684 92.8758 133.005 92.5549 133.234C92.2799 133.464 91.9132 133.647 91.5464 133.785C91.1338 133.693 90.7213 133.785 90.217 133.785Z" fill="white"/>
<path d="M102.732 124.433H104.199L108.233 133.647H106.537L105.62 131.447H101.311L100.348 133.647H98.6978L102.732 124.433ZM105.024 130.026L103.419 126.358L101.861 130.026H105.024Z" fill="white"/>
<path d="M113.734 133.784C113.138 133.784 112.588 133.693 112.13 133.509C111.671 133.326 111.258 133.097 110.892 132.73C110.571 132.409 110.296 131.951 110.112 131.446C109.929 130.942 109.837 130.346 109.837 129.705V124.479H111.442V129.705C111.442 130.576 111.625 131.217 112.038 131.676C112.45 132.134 113 132.363 113.734 132.363C114.467 132.363 115.018 132.134 115.43 131.722C115.843 131.309 116.026 130.667 116.026 129.796V124.479H117.631V129.659C117.631 130.346 117.539 130.942 117.355 131.446C117.172 131.951 116.897 132.409 116.576 132.73C116.255 133.097 115.843 133.326 115.338 133.509C114.88 133.693 114.376 133.784 113.734 133.784Z" fill="white"/>
<path d="M122.352 125.991H119.418V124.479H126.845V125.991H123.957V133.647H122.352V125.991Z" fill="white"/>
<path d="M128.724 124.479H130.329V128.283H134.729V124.479H136.334V133.647H134.729V129.796H130.329V133.647H128.724V124.479Z" fill="white"/>
<path d="M143.256 133.784C142.569 133.784 141.927 133.647 141.331 133.418C140.735 133.189 140.231 132.822 139.818 132.409C139.406 131.997 139.085 131.492 138.855 130.896C138.626 130.346 138.489 129.705 138.489 129.063C138.489 128.421 138.626 127.825 138.855 127.229C139.085 126.679 139.406 126.175 139.864 125.716C140.277 125.304 140.781 124.937 141.377 124.708C141.973 124.433 142.615 124.341 143.302 124.341C143.99 124.341 144.632 124.479 145.228 124.708C145.823 124.937 146.328 125.304 146.74 125.716C147.153 126.129 147.474 126.633 147.703 127.229C147.932 127.825 148.07 128.421 148.07 129.063V129.109C148.07 129.75 147.932 130.346 147.703 130.942C147.474 131.492 147.153 131.997 146.694 132.455C146.282 132.868 145.778 133.234 145.182 133.464C144.586 133.693 143.944 133.784 143.256 133.784ZM143.256 132.318C143.715 132.318 144.127 132.226 144.494 132.043C144.861 131.859 145.182 131.63 145.457 131.355C145.732 131.08 145.915 130.713 146.099 130.346C146.236 129.934 146.328 129.521 146.328 129.109V129.063C146.328 128.604 146.236 128.192 146.099 127.779C145.961 127.367 145.732 127.046 145.457 126.725C145.182 126.45 144.861 126.221 144.494 126.037C144.127 125.854 143.715 125.762 143.256 125.762C142.798 125.762 142.385 125.854 142.019 126.037C141.652 126.221 141.331 126.45 141.056 126.725C140.781 127 140.552 127.367 140.414 127.733C140.277 128.146 140.185 128.559 140.185 128.971V129.017C140.185 129.475 140.277 129.888 140.414 130.301C140.552 130.713 140.781 131.034 141.056 131.355C141.331 131.63 141.652 131.859 142.019 132.043C142.385 132.226 142.798 132.318 143.256 132.318Z" fill="white"/>
<path d="M150.178 124.479H154.258C154.854 124.479 155.358 124.57 155.771 124.708C156.229 124.891 156.596 125.074 156.871 125.395C157.1 125.625 157.284 125.945 157.421 126.266C157.559 126.587 157.605 126.954 157.605 127.367V127.412C157.605 127.779 157.559 128.146 157.421 128.421C157.33 128.742 157.146 128.971 156.963 129.2C156.779 129.429 156.55 129.613 156.275 129.796C156 129.98 155.725 130.071 155.404 130.163L157.88 133.647H156L153.754 130.438H153.708H151.737V133.647H150.178V124.479ZM154.121 129.017C154.717 129.017 155.175 128.879 155.496 128.604C155.817 128.329 156 127.962 156 127.504V127.458C156 126.954 155.817 126.587 155.496 126.312C155.175 126.037 154.717 125.945 154.075 125.945H151.737V129.017H154.121Z" fill="white"/>
<path d="M161.501 124.479H159.897V133.647H161.501V124.479Z" fill="white"/>
<path d="M166.407 125.991H163.473V124.479H170.945V125.991H168.011V133.647H166.407V125.991Z" fill="white"/>
<path d="M175.483 130.025L171.861 124.479H173.741L176.308 128.558L178.921 124.479H180.755L177.133 129.98V133.647H175.483V130.025Z" fill="white"/>
<path d="M0.0458984 102.566C0.504318 102.566 0.96274 102.612 1.23779 102.658C0.916898 102.52 0.779373 102.153 0.779373 101.833C0.779373 100.962 1.37531 100.091 2.97978 100.091C3.34652 100.091 3.71326 100.136 3.94246 100.182L3.80494 101.145C3.66741 101.145 3.30067 101.053 2.97978 101.053C2.33799 101.053 2.0171 101.328 2.0171 101.787C2.0171 102.245 2.38384 102.566 3.39236 102.566H4.35504V103.575H0.137581V102.566H0.0458984ZM13.6151 109.076C13.6151 107.104 12.8816 106.325 11.1397 106.325C10.4062 106.325 9.67271 106.463 9.67271 106.463V113.431H6.41793C2.0171 113.431 0.275108 111.689 0.275108 108.342C0.275108 107.288 0.550161 106.142 0.871055 105.454L2.56721 105.179C2.15463 106.004 1.92542 107.196 1.92542 108.159C1.92542 110.818 2.97979 112.147 6.6013 112.147H8.06824V105.362C8.06824 105.362 9.58103 105.042 11.2772 105.042C14.2111 105.042 15.1737 106.463 15.1737 108.846V112.147H19.3454V113.431H13.6151V109.076Z" fill="white"/>
<path d="M19.0703 112.193H21.6375V105.271H23.2419V113.476H19.0703V112.193ZM21.4999 102.429C21.4999 101.924 21.9125 101.466 22.4626 101.466C22.9669 101.466 23.4253 101.878 23.4253 102.429C23.4253 102.933 23.0127 103.391 22.4626 103.391C21.9125 103.391 21.4999 102.979 21.4999 102.429Z" fill="white"/>
<path d="M28.0093 101.145H26.4048V113.431H28.0093V101.145Z" fill="white"/>
<path d="M30.5766 117.602L30.6682 116.273C30.6682 116.273 32.1352 116.594 33.4646 116.594C35.3441 116.594 36.8111 115.86 36.8111 113.889V113.476H35.0691C31.7226 113.476 30.4849 111.872 30.4849 109.397C30.4849 107.104 31.906 105.087 34.8857 105.087C36.8111 105.087 38.3697 105.683 38.3697 105.683V112.193H43.6415V113.476H38.3697V113.797C38.3697 115.814 37.0403 117.877 33.2812 117.877C31.9518 117.877 30.5766 117.602 30.5766 117.602ZM36.8111 106.738C36.8111 106.738 35.9401 106.325 34.7023 106.325C33.0979 106.325 32.0893 107.471 32.0893 109.213C32.0893 111.184 33.0062 112.193 35.2524 112.193H36.7652V106.738H36.8111Z" fill="white"/>
<path d="M45.9339 111.964C45.5671 112.926 44.742 113.431 43.5959 113.431H43.3667V112.147H43.6876C44.5586 112.147 45.2004 111.643 45.2004 109.58C45.2004 107.013 46.6673 105.042 49.4637 105.042C52.0767 105.042 53.3144 106.508 53.3144 109.167V112.147H58.4029V113.431H49.6012C47.5842 113.431 46.484 112.926 45.9339 111.964ZM51.7558 109.442C51.7558 107.196 50.9306 106.325 49.372 106.325C47.8134 106.325 46.8507 107.517 46.8507 109.442C46.8507 111.276 47.6758 112.147 49.7846 112.147H51.7558V109.442Z" fill="white"/>
<path d="M54.8271 112.193H60.6032V101.145H62.2077V112.193H64.0872V113.431H54.8271V112.193Z" fill="white"/>
<path d="M63.8579 112.193H66.2875V101.145H67.892V113.431H63.8579V112.193Z" fill="white"/>
<path d="M79.1692 113.431C75.8227 113.431 74.585 111.826 74.585 109.351C74.585 107.059 76.0061 105.042 78.9858 105.042C80.9112 105.042 82.4698 105.638 82.4698 105.638V112.147H86.0455V113.431H79.1692ZM80.9111 106.738C80.9111 106.738 80.0401 106.325 78.8024 106.325C77.1979 106.325 76.1894 107.471 76.1894 109.213C76.1894 111.184 77.1063 112.193 79.3525 112.193H80.8653V106.738H80.9111ZM76.6478 102.704C76.6478 102.199 77.0604 101.787 77.5647 101.787C78.069 101.787 78.4815 102.199 78.4815 102.704C78.4815 103.208 78.069 103.666 77.5647 103.666C77.0146 103.666 76.6478 103.254 76.6478 102.704ZM79.215 102.704C79.215 102.199 79.6276 101.787 80.1318 101.787C80.6361 101.787 81.0487 102.199 81.0487 102.704C81.0487 103.208 80.6361 103.666 80.1318 103.666C79.6276 103.666 79.215 103.254 79.215 102.704Z" fill="white"/>
<path d="M92.0504 113.431C90.0334 113.431 88.979 112.88 88.4289 111.964C88.0622 112.926 87.237 113.431 86.091 113.431H85.8159V112.147H86.1368C87.0078 112.147 87.6496 111.643 87.6496 109.58C87.6496 107.013 89.1165 105.042 91.9129 105.042C94.5259 105.042 95.7636 106.508 95.7636 109.167V113.431H92.0504ZM94.205 109.442C94.205 107.196 93.3798 106.325 91.8212 106.325C90.2626 106.325 89.2999 107.471 89.2999 109.442C89.2999 111.276 90.1251 112.147 92.2338 112.147H94.205V109.442Z" fill="white"/>
<path d="M98.9268 101.145H100.531V112.193H103.282V113.431H98.9268V101.145Z" fill="white"/>
<path d="M103.007 112.193H103.603C105.528 112.193 107.133 111.826 108.37 111.276C107.133 110.084 105.987 108.801 104.199 108.25L104.336 107.15C105.712 106.142 107.637 105.042 109.379 105.042C111.763 105.042 112.725 106.325 112.725 107.746C112.725 108.984 111.992 110.313 110.617 111.368C111.35 111.872 112.129 112.193 113.138 112.193H115.017V113.476H112.909C111.442 113.476 110.342 112.926 109.379 112.193C107.866 112.972 105.895 113.476 103.465 113.476H103.053V112.193H103.007ZM109.608 110.497C110.617 109.763 111.121 108.801 111.121 107.93C111.121 107.013 110.525 106.233 109.196 106.233C108.004 106.233 106.583 107.104 105.849 107.609C107.316 108.205 108.416 109.488 109.608 110.497Z" fill="white"/>
<path d="M114.788 112.193H117.218V101.145H118.822V113.431H114.788V112.193Z" fill="white"/>
<path d="M123.728 101.145H122.123V113.431H123.728V101.145Z" fill="white"/>
<path d="M135.005 113.431C131.658 113.431 130.42 111.826 130.42 109.351C130.42 107.059 131.842 105.042 134.821 105.042C136.747 105.042 138.305 105.638 138.305 105.638V112.147H143.577V113.431H135.005ZM136.792 106.738C136.792 106.738 135.921 106.325 134.684 106.325C133.079 106.325 132.071 107.471 132.071 109.213C132.071 111.184 132.988 112.193 135.234 112.193H136.747V106.738H136.792ZM132.483 102.704C132.483 102.199 132.896 101.787 133.4 101.787C133.904 101.787 134.317 102.199 134.317 102.704C134.317 103.208 133.904 103.666 133.4 103.666C132.896 103.666 132.483 103.254 132.483 102.704ZM135.05 102.704C135.05 102.199 135.463 101.787 136.013 101.787C136.517 101.787 136.93 102.199 136.93 102.704C136.93 103.208 136.517 103.666 136.013 103.666C135.463 103.666 135.05 103.254 135.05 102.704Z" fill="white"/>
<path d="M143.348 112.193H145.915V105.271H147.519V112.193H149.445V113.476H143.348V112.193ZM144.173 102.566C144.631 102.566 145.09 102.612 145.365 102.658C145.044 102.52 144.906 102.153 144.906 101.833C144.906 100.962 145.502 100.091 147.107 100.091C147.473 100.091 147.84 100.136 148.069 100.182L147.932 101.145C147.794 101.145 147.428 101.053 147.107 101.053C146.465 101.053 146.144 101.328 146.144 101.787C146.144 102.245 146.511 102.566 147.519 102.566H148.482V103.575H144.264V102.566H144.173Z" fill="white"/>
<path d="M149.17 112.193H152.654V105.271H154.258V112.193H158.659V113.476H149.124V112.193H149.17ZM150.637 117.006C150.133 117.006 149.72 116.594 149.72 116.044C149.72 115.539 150.133 115.127 150.637 115.127C151.141 115.127 151.554 115.539 151.554 116.044C151.554 116.548 151.141 117.006 150.637 117.006ZM153.25 117.006C152.746 117.006 152.287 116.594 152.287 116.044C152.287 115.539 152.7 115.127 153.25 115.127C153.754 115.127 154.167 115.539 154.167 116.044C154.121 116.548 153.754 117.006 153.25 117.006Z" fill="white"/>
<path d="M158.43 113.431V112.147H160.493C160.859 112.147 161.134 112.193 161.134 112.193C161.089 112.193 160.447 111.643 160.447 110.589C160.447 108.892 161.639 107.701 163.564 107.701C165.627 107.701 166.635 109.167 166.635 111.368V112.147H168.928V111.78C168.928 107.471 167.277 105.638 163.702 105.638C162.555 105.638 161.089 105.867 159.988 106.234L159.805 105.042C160.997 104.675 162.51 104.4 163.885 104.4C168.102 104.4 170.44 106.509 170.44 111.735V112.101H171.999V113.385H158.43V113.431ZM165.26 111.46C165.26 109.947 164.756 108.847 163.518 108.847C162.418 108.847 161.914 109.58 161.914 110.451C161.914 111.597 162.785 112.193 163.885 112.193H165.306V111.46H165.26Z" fill="white"/>
<path d="M171.77 112.193H174.245V101.145H175.849V113.431H171.77V112.193Z" fill="white"/>
<path d="M180.755 101.145H179.15V113.431H180.755V101.145Z" fill="white"/>
<path d="M87.8791 39.7167H92.6466C92.9217 39.7167 93.1509 39.625 93.3343 39.3958C93.5176 39.1666 93.6093 38.9374 93.6093 38.6623V6.20621C93.6093 5.93116 93.5176 5.70195 93.3343 5.47274C93.1509 5.24353 92.9217 5.15186 92.6466 5.15186H87.8791C87.604 5.15186 87.3748 5.24353 87.1456 5.47274C86.9164 5.65611 86.8247 5.93116 86.8247 6.20621V38.6623C86.8247 38.9374 86.9164 39.1666 87.1456 39.3958C87.3748 39.5792 87.604 39.7167 87.8791 39.7167Z" fill="white"/>
<path d="M74.9059 11.7074H78.5733C78.8483 11.7074 79.0775 11.6158 79.3068 11.3865C79.536 11.2032 79.6277 10.9281 79.6277 10.6531V6.16056C79.6277 5.88551 79.536 5.6563 79.3068 5.42709C79.0775 5.19788 78.8483 5.1062 78.5733 5.1062H74.9059C74.6309 5.1062 74.4017 5.19788 74.1725 5.42709C73.9433 5.61045 73.8516 5.88551 73.8516 6.16056V10.6531C73.8516 10.9281 73.9891 11.1573 74.1725 11.3865C74.4017 11.6158 74.6309 11.7074 74.9059 11.7074Z" fill="white"/>
<path d="M1.23785 16.7499H9.94782C10.3146 16.7499 10.5438 16.704 10.773 16.6123C10.9563 16.5206 11.048 16.2914 11.048 15.9705V14.9162C11.048 14.4119 10.6813 14.1369 9.94782 14.1369H5.63867C5.27193 13.9535 4.95104 13.5867 4.67599 12.9908C4.3551 12.3949 4.21757 11.6614 4.21757 10.7446C4.21757 8.81919 5.36362 7.85651 7.65572 7.85651C7.88493 7.85651 8.25166 7.85652 8.75592 7.90236C9.26019 7.90236 9.58108 7.94819 9.67276 7.94819C10.2229 7.94819 10.4979 7.71898 10.4979 7.26056V6.34372C10.4979 5.97698 10.2687 5.74778 9.76445 5.56441C9.35187 5.47273 8.89345 5.42689 8.48087 5.38105C8.06829 5.33521 7.65571 5.33521 7.33482 5.33521C5.40946 5.33521 3.89668 5.74777 2.84231 6.57293C1.78795 7.39808 1.23785 8.72751 1.23785 10.5612C1.23785 11.203 1.32953 11.8448 1.51289 12.5324C1.69626 13.22 1.97131 13.7701 2.33805 14.2285H1.23785C0.458533 14.2285 0.0917969 14.4577 0.0917969 14.8703V15.9705C0.0917969 16.5206 0.458533 16.7499 1.23785 16.7499Z" fill="white"/>
<path d="M179.976 17.7584C179.425 16.1998 178.692 14.8703 177.638 13.7243C176.583 12.5782 175.346 11.7073 173.833 11.0655C172.457 10.4695 170.899 10.1945 169.111 10.1028H168.515C164.664 10.1945 161.776 11.3405 159.851 13.4951C157.834 15.7413 156.78 18.9044 156.78 22.9385V26.8809C156.78 27.9353 156.688 28.898 156.55 29.8148C156.413 30.6858 156.138 31.4651 155.725 32.1069C155.313 32.7487 154.763 33.253 154.029 33.6197C153.296 33.9864 152.425 34.1698 151.324 34.1698H124.278V12.8075C124.278 12.4407 124.186 12.1657 124.003 11.9823C123.819 11.7989 123.452 11.6156 122.856 11.4322C121.252 11.0196 119.556 10.6987 117.722 10.4695C115.934 10.2403 114.192 10.1028 112.542 10.1028C108.416 10.1028 105.345 11.2488 103.328 13.4951C101.311 15.7413 100.302 18.9044 100.302 22.9385V26.8809C100.302 30.915 101.311 34.0323 103.328 36.3244C105.207 38.4331 107.958 39.5333 111.625 39.7167C112.129 39.7167 112.542 39.3041 112.542 38.8457V34.9033C112.542 34.5366 112.267 34.2157 111.9 34.1698C111.075 34.124 110.387 33.9406 109.837 33.6197C109.104 33.253 108.554 32.7487 108.141 32.1069C107.729 31.4651 107.454 30.6858 107.316 29.8148C107.179 28.9438 107.087 27.9353 107.087 26.8809V22.9385C107.087 21.8842 107.179 20.9215 107.316 20.0046C107.454 19.1337 107.774 18.3543 108.141 17.7126C108.554 17.0708 109.104 16.5665 109.837 16.1998C110.571 15.833 111.442 15.6497 112.542 15.6497C113.459 15.6497 114.376 15.6955 115.338 15.7872C116.255 15.8789 116.989 16.0164 117.447 16.1081V34.1698V39.7167C117.447 40.5877 117.401 41.1836 117.31 41.7796C117.218 42.3755 116.989 42.8339 116.622 43.2007C116.301 43.5674 115.797 43.7966 115.155 43.9341C114.513 44.0717 113.688 44.1175 112.68 44.1175C112.084 44.1175 111.396 44.0717 110.525 44.0258C109.654 43.98 108.783 43.9342 107.866 43.8883C106.949 43.8425 106.078 43.7966 105.253 43.7049C104.428 43.6591 103.695 43.5674 103.144 43.5216H103.053C102.411 43.5216 102.09 43.7966 102.09 44.3926V47.0973C102.09 47.464 102.182 47.739 102.319 47.9224C102.457 48.1058 102.732 48.2433 103.099 48.335C104.061 48.6559 105.345 48.9309 106.995 49.1601C108.645 49.4352 110.525 49.5269 112.68 49.5269C116.622 49.5269 119.51 48.7017 121.39 47.0973C123.177 45.5386 124.094 43.0632 124.186 39.7167H151.278C155.175 39.7167 158.155 38.6623 160.126 36.6453C162.922 34.0323 163.472 29.5398 163.518 27.0643C163.518 26.9726 163.518 23.1677 163.518 23.1677C163.518 22.1134 163.564 21.1507 163.748 20.2339C163.885 19.3629 164.206 18.5835 164.573 17.9418C164.985 17.3 165.535 16.7957 166.269 16.429C166.911 16.1081 167.736 15.9247 168.698 15.8789V15.9247C170.486 15.9247 171.862 16.5665 172.778 17.8042C173.695 19.042 174.154 20.7381 174.154 22.8468V26.9726V34.1698H168.973C168.973 34.1698 168.469 34.2157 168.24 34.1698C167.644 34.124 167.094 34.399 166.865 34.9491C166.452 36.0035 165.948 37.012 165.26 38.0205C164.894 38.5706 165.169 39.3041 165.81 39.4416C166.773 39.625 167.827 39.7167 168.973 39.7167H178.875C179.15 39.7167 179.425 39.6708 179.701 39.5792C180.021 39.4416 180.251 39.35 180.388 39.2124C180.572 39.0291 180.663 38.754 180.663 38.3873V27.0185V22.8927C180.755 20.9673 180.48 19.2712 179.976 17.7584Z" fill="white"/>
<path d="M37.6821 17.575C38.0947 18.2168 38.3697 18.9503 38.5072 19.8213C38.6448 20.6923 38.7365 21.655 38.7365 22.6635V38.9374C38.7365 39.35 39.1032 39.7167 39.5158 39.7167H44.6042H68.3962C68.9005 39.7167 69.5422 39.6708 70.3216 39.5792C71.1009 39.4875 71.926 39.2583 72.797 38.9832C73.668 38.7082 74.539 38.2497 75.41 37.7455C76.281 37.1954 77.0603 36.4619 77.748 35.5451C78.4356 34.6282 78.9857 33.4822 79.4441 32.1528C79.9025 30.8234 80.1318 29.2189 80.1318 27.3394V16.9791C80.1318 16.704 80.0401 16.4748 79.8567 16.2456C79.6733 16.0164 79.4441 15.9247 79.1691 15.9247H74.3557C74.0806 15.9247 73.8514 16.0164 73.668 16.2456C73.4847 16.4748 73.393 16.704 73.393 16.9791V27.6602C73.393 28.9897 73.2555 30.0899 73.0262 30.9609C72.797 31.8319 72.4303 32.4737 72.0177 32.9779C71.6051 33.4363 71.055 33.8031 70.4591 33.9864C69.8632 34.1698 69.1755 34.2157 68.4421 34.2157H48.1799H45.3835V23.0761C45.3835 18.7669 44.4209 15.6955 42.4038 13.4492C40.4326 11.2488 37.407 10.1028 33.3729 10.1028H30.1182H25.1672C24.2504 10.1028 23.5169 10.8363 23.5169 11.7531V39.5333C23.5169 40.3585 23.4711 40.9086 23.3794 41.4587C23.2877 42.0088 23.0585 42.4672 22.7376 42.8339C22.4167 43.2007 21.9125 43.4299 21.3165 43.5674C20.7206 43.7049 19.8954 43.7508 18.9327 43.7508H16.4573C14.0735 43.7049 12.194 43.3382 10.8187 42.6964C9.26008 42.0088 8.11403 41.0461 7.33471 39.8542C6.5554 38.6623 6.05114 37.2871 5.86777 35.6826C5.63856 34.124 5.54688 32.4278 5.54688 30.6858C5.54688 30.0899 5.59272 29.3564 5.68441 28.3937C5.77609 27.4769 5.73025 27.9812 5.82193 27.156C5.91362 26.4684 5.6844 26.1016 5.04262 26.1016H1.65031C1.10021 26.1016 0.779318 26.4225 0.641792 27.1102C0.550108 27.6144 0.458421 28.2104 0.366737 28.8063C0.275053 29.4022 0.229214 30.044 0.183372 30.64C0.13753 31.2359 0.0916867 31.8319 0.0458448 32.3361C2.79729e-06 32.8404 0 33.2988 0 33.5739C0 36.0035 0.22921 38.2039 0.687629 40.1751C1.14605 42.1463 1.97121 43.7966 3.1631 45.1719C4.35499 46.5471 5.95946 47.6015 7.97651 48.335C9.99355 49.0684 12.5607 49.4352 15.678 49.4352H18.9327C22.6459 49.3893 25.4423 48.61 27.276 47.0514C29.1096 45.4928 30.0265 42.9256 30.0265 39.4416V15.4205H33.2813C34.3356 15.4205 35.2525 15.6038 35.9401 15.9705C36.7194 16.429 37.2695 16.9332 37.6821 17.575Z" fill="white"/>
<path d="M30.1641 57.5493H25.534C25.0756 57.5493 24.6172 57.8244 24.4338 58.2369L15.7697 76.2528L7.05972 58.2369C6.83051 57.8244 6.41793 57.5493 5.95951 57.5493H1.28363C0.596001 57.5493 0.0458984 58.0994 0.0458984 58.7871V90.9681C0.0458984 91.6557 0.596001 92.2058 1.28363 92.2058H5.59278C6.28041 92.2058 6.83051 91.6557 6.83051 90.9681V72.0354L13.1567 84.5044C13.3859 84.917 13.7985 85.192 14.2569 85.192H17.3283C17.7867 85.192 18.2452 84.917 18.4285 84.5044L24.7089 72.0354V90.9681C24.7089 91.6557 25.259 92.2058 25.9466 92.2058H30.2557C30.9434 92.2058 31.4935 91.6557 31.4935 90.9681V58.7871C31.4018 58.0994 30.8517 57.5493 30.1641 57.5493Z" fill="white"/>
<path d="M53.6809 58.3286C53.4976 57.8243 53.0392 57.5034 52.5349 57.5034H48.8675C48.3633 57.5034 47.9049 57.8243 47.7215 58.3286L36.0318 90.5555C35.7567 91.3806 36.3527 92.2058 37.1778 92.2058H41.5787C42.1288 92.2058 42.5872 91.8849 42.7706 91.3806L44.5584 86.1088H50.9304C51.7556 86.1088 52.3515 85.2836 52.1223 84.5043L51.0679 81.2954C50.8846 80.7911 50.4262 80.4702 49.8761 80.4702H46.4837L50.8846 67.8179L56.9357 86.1547H56.9816L58.7236 91.4265C58.9069 91.9307 59.3653 92.2975 59.9155 92.2975H64.3163C65.1873 92.2975 65.7832 91.4265 65.4623 90.6472L53.6809 58.3286Z" fill="white"/>
<path d="M105.482 57.5493H100.99C100.44 57.5493 99.9355 57.916 99.798 58.5119L94.6179 79.4159L88.5667 58.4661C88.4292 57.9618 87.9249 57.5951 87.3748 57.5951H84.1659C83.6158 57.5951 83.1115 57.9618 82.974 58.4661L76.9229 79.4159L71.7886 58.4661C71.651 57.916 71.1468 57.5034 70.5967 57.5034H66.1042C65.279 57.5034 64.6831 58.2827 64.9123 59.062L73.4847 91.2431C73.6223 91.7932 74.1265 92.1599 74.6766 92.1599H78.4357C78.9858 92.1599 79.4442 91.7932 79.6275 91.2889L85.7245 71.1643L91.8215 91.2889C91.959 91.7932 92.4633 92.1599 93.0134 92.1599H96.7724C97.3225 92.1599 97.8268 91.7932 97.9643 91.2431L106.583 59.062C106.904 58.3286 106.308 57.5493 105.482 57.5493Z" fill="white"/>
<path d="M124.827 58.3286C124.644 57.8243 124.186 57.5034 123.681 57.5034H120.06C119.556 57.5034 119.097 57.8243 118.914 58.3286L107.132 90.5555C106.857 91.3806 107.453 92.2058 108.278 92.2058H112.679C113.229 92.2058 113.688 91.8849 113.871 91.3806L115.659 86.1088H122.031C122.856 86.1088 123.452 85.2836 123.223 84.5043L122.123 81.2954C121.939 80.7911 121.481 80.4702 120.931 80.4702H117.538L121.939 67.8179L127.99 86.1547H128.036L129.778 91.4265C129.962 91.9307 130.42 92.2975 130.97 92.2975H135.371C136.242 92.2975 136.838 91.4265 136.517 90.6472L124.827 58.3286Z" fill="white"/>
<path d="M165.994 57.5493H161.685C160.997 57.5493 160.447 58.0994 160.447 58.7871V78.7741L147.107 58.0994C146.878 57.7327 146.511 57.5493 146.052 57.5493H141.927C141.239 57.5493 140.689 58.0994 140.689 58.7871V90.9681C140.689 91.6557 141.239 92.2058 141.927 92.2058H146.236C146.923 92.2058 147.474 91.6557 147.474 90.9681V70.9352L160.814 91.6557C161.043 92.0225 161.41 92.2058 161.868 92.2058H165.994C166.681 92.2058 167.231 91.6557 167.231 90.9681V58.7871C167.231 58.0994 166.681 57.5493 165.994 57.5493Z" fill="white"/>
<path d="M179.517 57.5493H175.208C174.52 57.5493 173.97 58.0994 173.97 58.7871V90.9681C173.97 91.6557 174.52 92.2058 175.208 92.2058H179.517C180.205 92.2058 180.755 91.6557 180.755 90.9681V58.7871C180.755 58.0994 180.205 57.5493 179.517 57.5493Z" fill="white"/>
</svg>
