<svg width="60" height="60" viewBox="0 0 60 60" fill="none" xmlns="http://www.w3.org/2000/svg">
<path d="M11.261 20.2698H20.601V12.0198H11.261V20.2698ZM31.8309 12.0898H22.491V20.3898H31.8309V12.0898ZM16.541 10.0998H26.5509V1.87979H16.541V10.0998ZM36.991 22.2798H6.11096V31.7798C6.36096 31.6598 6.56099 31.5598 6.76099 31.4598C11.511 28.9798 16.251 26.4898 21.001 23.9998C21.471 23.7498 21.891 23.6998 22.411 23.9698C27.141 26.4498 31.881 28.8898 36.621 31.3498C36.731 31.4098 36.851 31.4298 36.991 31.4798V22.2798ZM35.031 48.6098H8.28101C8.09101 51.7698 9.42091 54.2298 11.5609 56.3698C11.8609 56.2098 12.121 56.0798 12.371 55.9398C13.441 55.3398 14.481 55.3198 15.501 56.0798C15.931 56.3998 16.4009 56.6698 16.8409 56.9898C17.2809 57.3098 17.7109 57.3298 18.1909 57.0498C18.9409 56.6198 19.7109 56.2098 20.4709 55.7898C21.4109 55.2598 22.341 55.2798 23.261 55.8498C23.901 56.2498 24.5609 56.6098 25.1809 57.0298C25.6909 57.3698 26.1409 57.3998 26.6809 57.0798C27.5109 56.5898 28.351 56.1098 29.241 55.7398C29.761 55.5198 30.3909 55.4398 30.9609 55.4998C31.3809 55.5398 31.771 55.8798 32.231 56.1198C34.411 54.1298 35.091 51.5498 35.041 48.6098M22.781 46.6098C22.921 46.6298 22.9909 46.6398 23.0709 46.6398C27.1009 46.6398 31.1409 46.6398 35.1709 46.6398C35.5409 46.6398 35.651 46.4598 35.781 46.1698C36.881 43.5798 38.001 40.9998 39.101 38.4198C39.541 37.3998 39.971 36.3798 40.411 35.3298C34.521 32.2798 28.681 29.2598 22.781 26.1998V46.5898V46.6098ZM2.79102 35.6198C4.47102 39.1698 6.11097 42.6498 7.74097 46.1398C7.92097 46.5298 8.14092 46.6598 8.57092 46.6598C12.4909 46.6398 16.4109 46.6598 20.3309 46.6498C20.5209 46.6498 20.701 46.6298 20.901 46.6098V26.1198C14.841 29.2998 8.8509 32.4398 2.8009 35.6198M27.881 0.00976562C28.301 0.299766 28.4409 0.699768 28.4409 1.19977C28.4309 3.91977 28.4409 6.64978 28.4409 9.36978V10.1498H30.1909C30.9609 10.1498 31.741 10.1398 32.511 10.1498C33.371 10.1598 33.651 10.4598 33.651 11.3198C33.651 14.1198 33.651 16.9198 33.651 19.7198V20.4098C34.981 20.4098 36.251 20.4098 37.521 20.4098C38.521 20.4098 38.771 20.6598 38.771 21.6798C38.771 25.1598 38.771 28.6298 38.761 32.1098C38.761 32.5198 38.891 32.7298 39.251 32.8998C40.051 33.2798 40.831 33.6998 41.621 34.1098C42.381 34.5098 42.5109 34.8398 42.1709 35.6598C40.8409 38.8398 39.491 42.0098 38.151 45.1898C38.081 45.3498 38.0309 45.5098 37.9509 45.6698C37.2309 47.1398 36.831 48.6498 36.791 50.3198C36.731 52.8398 35.731 55.0698 34.041 56.9598C33.991 57.0198 33.9509 57.0798 33.9509 57.3098C34.2709 57.2598 34.621 57.2798 34.901 57.1398C35.731 56.7398 36.541 56.2798 37.361 55.8598C38.341 55.3498 39.311 55.3298 40.271 55.9298C40.881 56.3098 41.501 56.6498 42.101 57.0398C42.501 57.2998 42.871 57.2998 43.291 57.0598C44.061 56.6198 44.851 56.2198 45.641 55.8098C46.711 55.2598 47.7209 55.3598 48.6709 56.0998C48.9709 56.3398 49.2809 56.5698 49.5709 56.8298C49.9809 57.1898 50.3809 57.3498 50.9309 57.1098C51.4009 56.9098 51.7609 57.1998 51.9309 57.6398C52.1109 58.0898 52.0209 58.4898 51.5609 58.7198C50.6809 59.1598 49.811 59.1398 48.981 58.5798C48.551 58.2898 48.151 57.9598 47.751 57.6098C47.301 57.2198 46.8609 57.1598 46.3309 57.4698C45.6009 57.8998 44.8309 58.2598 44.0909 58.6698C43.1809 59.1698 42.281 59.1398 41.401 58.6198C40.771 58.2498 40.131 57.8798 39.521 57.4798C39.061 57.1798 38.6409 57.1898 38.1709 57.4598C37.4009 57.8998 36.6109 58.2998 35.8209 58.7098C34.8209 59.2398 33.831 59.2398 32.861 58.6098C32.251 58.2098 31.611 57.8498 30.991 57.4498C30.591 57.1898 30.2109 57.1898 29.8009 57.4098C28.9209 57.8898 28.031 58.3498 27.151 58.8298C26.321 59.2698 25.4909 59.2698 24.6709 58.7998C23.9509 58.3898 23.221 57.9998 22.511 57.5698C22.041 57.2798 21.621 57.2998 21.161 57.5698C20.441 57.9898 19.711 58.3798 18.981 58.7798C18.011 59.3098 17.071 59.2898 16.151 58.6698C15.611 58.2998 15.041 57.9598 14.521 57.5698C14.161 57.2998 13.8209 57.3098 13.4509 57.5098C12.5609 57.9698 11.671 58.4198 10.761 58.8598C9.81099 59.3198 8.87094 59.2998 7.96094 58.7098C7.26094 58.2598 6.55091 57.8298 5.81091 57.4498C5.60091 57.3398 5.23101 57.3098 5.03101 57.4198C3.94101 58.0398 2.88091 58.7098 1.81091 59.3598H0.541016V58.0798C0.701016 57.9498 0.861006 57.8098 1.03101 57.6998C2.02101 57.0998 3.00098 56.4998 4.00098 55.9098C4.96098 55.3498 5.941 55.3598 6.901 55.9298C7.561 56.3298 8.20098 56.7698 8.88098 57.1298C9.16098 57.2798 9.52094 57.2698 9.84094 57.3298C9.84094 57.0998 9.81099 57.0298 9.76099 56.9698C7.52099 54.4598 6.3209 51.5698 6.5509 48.1498C6.5709 47.8998 6.47096 47.6198 6.36096 47.3798C4.53096 43.4598 2.68094 39.5398 0.840942 35.6198C0.520942 34.9298 0.630903 34.6198 1.3009 34.2698C2.1009 33.8498 2.90095 33.4298 3.72095 33.0398C4.13095 32.8398 4.30102 32.5998 4.29102 32.1198C4.26102 28.6298 4.27101 25.1298 4.28101 21.6398C4.28101 20.5598 4.53096 20.3098 5.61096 20.3098C6.86096 20.3098 8.11091 20.3098 9.43091 20.3098V19.5798C9.43091 16.8398 9.43091 14.0998 9.43091 11.3598C9.43091 10.3998 9.67099 10.1698 10.641 10.1598C11.781 10.1598 12.9209 10.1598 14.0609 10.1598C14.2609 10.1598 14.4709 10.1398 14.7109 10.1298V9.37979C14.7109 6.67979 14.7109 3.97978 14.7109 1.26978C14.7109 0.759775 14.811 0.319775 15.261 0.0197754H27.891L27.881 0.00976562Z" fill="#275A67"/>
<path d="M59.8411 48.92C59.4911 49.29 59.0611 49.39 58.5511 49.39C52.5811 49.37 46.6212 49.38 40.6612 49.39C40.1612 49.39 39.7211 49.33 39.5611 48.7701C39.3611 48.0601 39.7811 47.5601 40.5911 47.5601C43.0811 47.5601 45.5711 47.5601 48.0611 47.5601C51.5511 47.5601 55.0512 47.5701 58.5412 47.5601C59.0812 47.5601 59.5211 47.6901 59.8411 48.1301V48.9401V48.92Z" fill="#275A67"/>
<path d="M46.7704 30.0898H56.2804V21.6998H46.7704V30.0898ZM51.5104 19.8398C53.3204 19.8398 55.1403 19.8398 56.9503 19.8398C57.8403 19.8398 58.1404 20.1198 58.1404 21.0098C58.1404 24.2698 58.1404 27.5298 58.1404 30.7898C58.1404 31.6598 57.8704 31.9398 57.0004 31.9398C53.3504 31.9398 49.7103 31.9398 46.0603 31.9398C45.2603 31.9398 44.9104 31.5698 44.9004 30.7598C44.9004 27.4998 44.9004 24.2398 44.9004 20.9798C44.9004 20.1498 45.2103 19.8498 46.0703 19.8498C47.8803 19.8498 49.7004 19.8498 51.5104 19.8498" fill="#275A67"/>
<path d="M56.2904 36.3099H46.7904V44.6399H56.2904V36.3099ZM51.5004 34.4399C53.3504 34.4399 55.2103 34.4399 57.0603 34.4399C57.8503 34.4399 58.1404 34.7199 58.1404 35.5199C58.1404 38.8199 58.1404 42.1199 58.1404 45.4199C58.1404 46.2299 57.8703 46.4899 57.0603 46.4899C53.3903 46.4899 49.7303 46.4899 46.0603 46.4899C45.2003 46.4899 44.9004 46.1899 44.9004 45.3499C44.9004 42.0899 44.9004 38.8299 44.9004 35.5699C44.9004 34.7199 45.1903 34.4399 46.0503 34.4399C47.8603 34.4399 49.6804 34.4399 51.4904 34.4399" fill="#275A67"/>
<path d="M46.7804 15.51H56.2804V7.15005H46.7804V15.51ZM51.5503 5.31006C53.3403 5.31006 55.1403 5.31006 56.9303 5.31006C57.9103 5.31006 58.1404 5.53005 58.1404 6.49005C58.1404 9.73005 58.1404 12.9701 58.1404 16.2101C58.1404 17.1001 57.8503 17.3801 56.9603 17.3801C53.3503 17.3801 49.7404 17.3801 46.1404 17.3801C45.2604 17.3801 44.9004 17.04 44.9004 16.17C44.9004 12.93 44.9004 9.69004 44.9004 6.45004C44.9004 5.59004 45.1803 5.31006 46.0503 5.31006C47.8803 5.31006 49.7203 5.31006 51.5503 5.31006Z" fill="#275A67"/>
<path d="M15.4216 35.8498C16.1616 35.8498 16.6517 35.3599 16.6617 34.6299C16.6617 33.9099 16.1416 33.3799 15.4316 33.3899C14.7916 33.3899 14.1916 34.0099 14.1916 34.6699C14.1916 35.3299 14.7316 35.8498 15.4216 35.8498ZM18.4916 34.6199C18.4916 36.3399 17.1816 37.6799 15.4816 37.6799C13.7916 37.6799 12.3416 36.2299 12.3516 34.5499C12.3616 32.9399 13.7717 31.5599 15.4117 31.5499C17.1217 31.5399 18.4916 32.8999 18.4916 34.6299" fill="#275A67"/>
<path d="M27.9415 33.3798C27.2315 33.3798 26.7015 33.8998 26.6915 34.6098C26.6915 35.3398 27.1816 35.8398 27.9116 35.8498C28.6516 35.8498 29.1416 35.3698 29.1516 34.6398C29.1516 33.9098 28.6515 33.3898 27.9415 33.3898M27.8916 37.6898C26.2016 37.6898 24.8516 36.3398 24.8516 34.6398C24.8516 32.9298 26.2215 31.5498 27.9315 31.5498C29.6215 31.5498 30.9916 32.9098 30.9916 34.5898C30.9916 36.3798 29.6816 37.6798 27.9016 37.6898" fill="#275A67"/>
</svg>
