<svg width="97" height="62" viewBox="0 0 97 62" fill="none" xmlns="http://www.w3.org/2000/svg">
<path d="M6.22267 22.3402C6.10267 23.5602 6.22267 24.7102 6.59267 25.7102C7.02267 26.8602 7.76274 27.7102 8.79274 28.2602M20.5726 14.5302C20.2626 14.0102 19.9326 13.5002 19.5726 12.9902C13.4026 4.30017 12.0726 1.9502 12.0726 1.9502C12.0726 1.9502 10.7426 4.29017 4.57265 12.9902C-1.62735 21.7302 0.552664 31.5502 8.71266 33.6602M37.1027 52.7602C38.4627 51.8602 39.5427 50.6602 40.3427 49.1602C41.1927 47.5602 41.6527 45.7202 41.7327 43.7402M74.1826 20.9402H43.7827M49.8627 12.9902V21.9402M55.9426 12.9902V21.9402M62.0227 12.9902V21.9402M68.1027 12.9902V21.9402M43.7827 12.9902H74.1826V21.9402M43.7827 12.9902H32.6327M43.7827 12.9902V28.9002M62.0227 29.8902C62.0227 24.9502 57.9427 20.9402 52.9027 20.9402C48.2127 20.9402 44.3427 24.4202 43.8427 28.8902M80.2627 29.8802C80.2627 24.9402 76.1827 20.9302 71.1427 20.9302C66.1027 20.9302 62.0227 24.9402 62.0227 29.8802M50.8727 48.7702H48.8427M83.2927 48.7702H52.8927M83.2927 48.7702V44.7902C89.3727 44.7902 95.4527 39.8202 95.4527 32.8602H45.8026M83.2927 48.7702H84.8126C86.2126 48.7702 87.3427 49.8802 87.3427 51.2602C87.3427 52.6402 86.2126 53.7402 84.8126 53.7402H44.7927M17.4727 26.2402C27.5527 12.0402 29.7327 8.21021 29.7327 8.21021C29.7327 8.21021 31.9127 12.0402 41.9927 26.2402C53.4027 42.3202 47.4527 60.6402 29.7327 60.6902C12.0127 60.6402 6.06267 42.3202 17.4727 26.2402Z" stroke="#275A67" stroke-width="1.75" stroke-miterlimit="10"/>
</svg>
