<svg width="63" height="64" viewBox="0 0 63 64" fill="none" xmlns="http://www.w3.org/2000/svg">
<path d="M13.7396 56.0201C14.9496 56.0201 16.1095 56.0101 17.2795 56.0201C17.6195 56.0201 17.9796 56.0801 18.2996 56.1901C23.5896 58.0401 28.8696 59.9201 34.1696 61.7601C34.9196 62.0201 35.7596 62.0801 36.5096 61.6901C39.4896 60.1601 42.4496 58.6101 45.4196 57.0601C50.2796 54.5301 55.1296 52.0101 59.9896 49.4801C60.7896 49.0701 61.0995 48.2001 60.7695 47.4001C60.4095 46.5201 59.4996 46.0501 58.6696 46.3101C53.9296 47.7901 49.1995 49.2801 44.4695 50.7601C44.2895 50.8201 44.0895 50.8801 43.9595 51.0001C43.0795 51.8001 42.0496 52.0901 40.8796 52.0801C37.4896 52.0601 34.0995 52.0801 30.7195 52.0701C29.9395 52.0701 29.2595 52.2801 28.8295 52.9701C28.6295 53.2801 28.5395 53.6601 28.3995 54.0101H26.5396C26.5396 53.8701 26.5296 53.7701 26.5396 53.6701C26.8296 51.5501 28.3895 50.1501 30.5295 50.1401C34.0195 50.1301 37.5196 50.1401 41.0096 50.1401C41.7496 50.1401 42.3995 49.9401 42.8395 49.3201C43.2995 48.6901 43.3695 47.9901 43.0195 47.2901C42.6495 46.5301 41.9895 46.1801 41.1495 46.1701C38.2995 46.1701 35.4596 46.1701 32.6096 46.1701C32.3496 46.1701 32.0896 46.1301 31.8495 46.0401C28.5295 44.8401 25.2096 43.6201 21.8796 42.4201C21.6096 42.3201 21.2995 42.2701 21.0195 42.2701C18.7795 42.2601 16.5496 42.2701 14.3096 42.2701C14.1296 42.2701 13.9396 42.2901 13.7496 42.3001V56.0101L13.7396 56.0201ZM34.0496 63.8801C33.4696 63.6601 32.8996 63.4201 32.3096 63.2201C27.5196 61.5201 22.7196 59.8301 17.9296 58.1401C17.6896 58.0501 17.4196 58.0101 17.1696 58.0001C16.0496 57.9801 14.9395 58.0001 13.8295 58.0001C13.7895 58.0701 13.7496 58.1101 13.7396 58.1501C13.5196 59.3601 12.8096 59.9501 11.5596 59.9501C8.16957 59.9501 4.77954 59.9501 1.39954 59.9501H0.0195312V58.0201H11.7596V40.3201H0.0195312V38.3701C0.169531 38.3601 0.299565 38.3301 0.429565 38.3301C4.07957 38.3301 7.72958 38.3301 11.3796 38.3301C12.8396 38.3301 13.4696 38.8501 13.7896 40.3101H14.2996C15.7296 40.3101 17.1695 40.3901 18.5995 40.2901C20.7695 40.1501 22.7896 40.5601 24.7996 41.3801C27.1896 42.3501 29.6296 43.1801 32.0596 44.0401C32.4096 44.1701 32.8096 44.2301 33.1796 44.2301C35.7096 44.2501 38.2495 44.3301 40.7795 44.2301C43.3095 44.1201 45.2995 45.9301 45.1995 48.4901C45.9795 48.2501 46.7296 48.0301 47.4796 47.7901C51.0396 46.6901 54.6095 45.6101 58.1495 44.4701C59.6495 43.9901 60.8395 44.4701 61.8295 45.5101C63.2895 47.0601 63.1895 49.2901 61.6595 50.7601C61.4795 50.9401 61.2296 51.0601 60.9996 51.1801C53.0496 55.3201 45.0995 59.4501 37.1495 63.5801C36.9795 63.6701 36.8296 63.7801 36.6696 63.8801H34.0496Z" fill="#275A67"/>
<path d="M36.3497 14.74C37.6197 14.74 38.8997 14.74 40.1697 14.74C40.8097 14.74 41.2397 14.34 41.2497 13.78C41.2597 13.23 40.8297 12.79 40.1897 12.79C37.6197 12.78 35.0597 12.77 32.4897 12.79C31.8097 12.79 31.3897 13.23 31.4197 13.81C31.4397 14.38 31.8597 14.74 32.5197 14.74C33.7897 14.74 35.0697 14.74 36.3397 14.74M29.8097 4.36996C29.8397 4.46996 29.8497 4.53998 29.8797 4.59998C30.8697 6.57998 31.8697 8.54998 32.8397 10.54C32.9797 10.83 33.1797 10.84 33.4297 10.84C35.3497 10.84 37.2697 10.84 39.1897 10.84C39.5097 10.84 39.6797 10.76 39.8297 10.46C40.7797 8.51996 41.7497 6.59997 42.7197 4.65997C42.7597 4.56997 42.7897 4.47996 42.8397 4.36996C42.0797 3.98996 41.3497 3.59999 40.6097 3.26999C40.4097 3.17999 40.0997 3.16999 39.9097 3.26999C38.9097 3.72999 37.9397 4.22998 36.9597 4.72998C36.5197 4.95998 36.1097 4.94998 35.6697 4.72998C34.6997 4.21998 33.7097 3.73998 32.7297 3.25998C32.5897 3.18998 32.3797 3.11996 32.2597 3.17996C31.4397 3.55996 30.6397 3.96997 29.8197 4.37997M40.5397 1.00998C41.8297 1.65998 43.1197 2.31997 44.4097 2.96997C45.1997 3.36997 45.3597 3.81996 44.9597 4.61996C43.9697 6.61996 42.9697 8.60999 41.9697 10.61C41.8797 10.79 41.7897 10.98 41.6997 11.16C43.0397 12.17 43.6197 13.31 42.9097 15.13C44.0397 15.71 45.2197 16.21 46.2897 16.89C50.0297 19.25 52.2997 22.73 53.6497 26.87C54.5297 29.56 54.9197 32.34 54.9897 35.15C55.0597 38.07 55.0097 40.98 55.0097 43.9C55.0097 43.98 55.0097 44.07 54.9897 44.2H53.0297C53.0297 43.99 53.0297 43.8 53.0297 43.6C53.0297 40.77 53.0797 37.94 52.9997 35.11C52.8897 30.89 52.0997 26.82 49.8097 23.18C47.8497 20.07 45.1997 17.83 41.5697 16.91C41.0997 16.79 40.6097 16.74 40.1197 16.74C37.8497 16.72 35.5797 16.76 33.3097 16.72C30.3597 16.68 27.8197 17.72 25.5897 19.59C22.9797 21.78 21.5297 24.69 20.6397 27.91C19.8497 30.78 19.6397 33.71 19.6197 36.67C19.6197 37.21 19.6197 37.74 19.6197 38.31H17.7497C17.7497 38.31 17.6897 38.25 17.6897 38.22C17.5897 34.52 17.7797 30.86 18.7697 27.27C19.6497 24.09 21.0697 21.22 23.4497 18.87C25.1097 17.24 27.0497 16.07 29.2597 15.36C29.4097 15.31 29.5497 15.26 29.6997 15.2C29.7097 15.2 29.7197 15.18 29.7597 15.13C29.0997 13.52 29.4997 12.19 30.9897 11.17C30.1997 9.59998 29.4197 8.02996 28.6297 6.45996C28.3097 5.81996 27.9897 5.17998 27.6697 4.53998C27.3197 3.82998 27.4797 3.34996 28.1897 2.98996C29.5097 2.31996 30.8297 1.65996 32.1597 0.98996H32.6797C33.8097 1.55996 34.9397 2.13998 36.0697 2.69998C36.1897 2.75998 36.3897 2.79996 36.4997 2.73996C37.6397 2.16996 38.7697 1.56998 39.9097 0.97998H40.5397V1.00998Z" fill="#275A67"/>
<path d="M9.77106 54.0698H7.87109V55.9898H9.77106V54.0698Z" fill="#275A67"/>
<path d="M3.92017 55.9897C3.92017 55.4197 3.91018 54.8798 3.93018 54.3498C3.93018 54.2498 4.10019 54.0798 4.19019 54.0698C4.72019 54.0398 5.26019 54.0597 5.82019 54.0597V55.9997H3.91016L3.92017 55.9897Z" fill="#275A67"/>
</svg>
