<svg width="76" height="66" viewBox="0 0 76 66" fill="none" xmlns="http://www.w3.org/2000/svg">
<path d="M24.5001 64.8803C24.1301 64.8803 23.8301 64.5803 23.8301 64.2203V46.4403C23.8301 46.0703 24.1301 45.7803 24.5001 45.7803C24.8701 45.7803 25.1601 46.0803 25.1601 46.4403V64.2203C25.1601 64.5903 24.8601 64.8803 24.5001 64.8803Z" fill="#275A67"/>
<path d="M24.5001 64.8803C24.1301 64.8803 23.8301 64.5803 23.8301 64.2203V46.4403C23.8301 46.0703 24.1301 45.7803 24.5001 45.7803C24.8701 45.7803 25.1601 46.0803 25.1601 46.4403V64.2203C25.1601 64.5903 24.8601 64.8803 24.5001 64.8803Z" stroke="#275A67" stroke-width="0.56" stroke-miterlimit="10"/>
<path d="M38.4305 42.9202C38.3305 42.9202 38.2404 42.9002 38.1404 42.8602C35.9604 41.8202 33.4505 41.0502 30.6905 40.5702C30.3305 40.5102 30.0804 40.1602 30.1504 39.8002C30.2104 39.4402 30.5605 39.2002 30.9205 39.2602C33.8005 39.7602 36.4204 40.5602 38.7104 41.6602C39.0404 41.8202 39.1805 42.2102 39.0305 42.5502C38.9205 42.7902 38.6805 42.9301 38.4305 42.9301" fill="#275A67"/>
<path d="M38.4305 42.9202C38.3305 42.9202 38.2404 42.9002 38.1404 42.8602C35.9604 41.8202 33.4505 41.0502 30.6905 40.5702C30.3305 40.5102 30.0804 40.1602 30.1504 39.8002C30.2104 39.4402 30.5605 39.2002 30.9205 39.2602C33.8005 39.7602 36.4204 40.5602 38.7104 41.6602C39.0404 41.8202 39.1805 42.2102 39.0305 42.5502C38.9205 42.7902 38.6805 42.9301 38.4305 42.9301V42.9202Z" stroke="#275A67" stroke-width="0.56" stroke-miterlimit="10"/>
<path d="M1.88098 65.1903C1.51098 65.1903 1.21094 64.8903 1.21094 64.5303V52.4203C1.21094 46.0203 7.71099 40.8303 17.761 39.2003C18.131 39.1403 18.4609 39.3903 18.5209 39.7503C18.5809 40.1103 18.3309 40.4503 17.9709 40.5103C8.59095 42.0403 2.54095 46.7103 2.54095 52.4203V64.5303C2.54095 64.9003 2.24098 65.1903 1.88098 65.1903Z" fill="#275A67"/>
<path d="M1.88098 65.1903C1.51098 65.1903 1.21094 64.8903 1.21094 64.5303V52.4203C1.21094 46.0203 7.71099 40.8303 17.761 39.2003C18.131 39.1403 18.4609 39.3903 18.5209 39.7503C18.5809 40.1103 18.3309 40.4503 17.9709 40.5103C8.59095 42.0403 2.54095 46.7103 2.54095 52.4203V64.5303C2.54095 64.9003 2.24098 65.1903 1.88098 65.1903Z" stroke="#275A67" stroke-width="0.56" stroke-miterlimit="10"/>
<path d="M30.0402 52.49C29.8602 52.49 29.6902 52.42 29.5702 52.29L24.3102 47C24.0502 46.74 24.0502 46.32 24.3102 46.06C24.5702 45.8 24.9902 45.8 25.2502 46.06L29.8702 50.71C30.7402 48.88 32.5102 44.17 29.5202 40.8C29.2802 40.53 29.3002 40.11 29.5702 39.86C29.8402 39.62 30.2702 39.64 30.5102 39.91C34.9302 44.89 30.7902 51.86 30.6102 52.16C30.5002 52.33 30.3202 52.45 30.1202 52.48C30.0902 52.48 30.0702 52.48 30.0402 52.48" fill="#275A67"/>
<path d="M30.0402 52.49C29.8602 52.49 29.6902 52.42 29.5702 52.29L24.3102 47C24.0502 46.74 24.0502 46.32 24.3102 46.06C24.5702 45.8 24.9902 45.8 25.2502 46.06L29.8702 50.71C30.7402 48.88 32.5102 44.17 29.5202 40.8C29.2802 40.53 29.3002 40.11 29.5702 39.86C29.8402 39.62 30.2702 39.64 30.5102 39.91C34.9302 44.89 30.7902 51.86 30.6102 52.16C30.5002 52.33 30.3202 52.45 30.1202 52.48C30.0902 52.48 30.0702 52.48 30.0402 52.48V52.49Z" stroke="#275A67" stroke-width="0.56" stroke-miterlimit="10"/>
<path d="M18.4012 52.4901C18.4012 52.4901 18.3412 52.4901 18.3112 52.4901C18.1112 52.4601 17.9412 52.3501 17.8312 52.1801C17.6512 51.8801 13.5012 44.9101 17.9312 39.9301C18.1712 39.6601 18.5912 39.6301 18.8712 39.8801C19.1412 40.1201 19.1712 40.5401 18.9312 40.8201C15.9112 44.2101 17.7212 48.9501 18.5912 50.7601L23.7912 45.8801C24.0612 45.6301 24.4812 45.6401 24.7312 45.9101C24.9812 46.1801 24.9712 46.6001 24.7012 46.8501L18.8612 52.3302C18.7412 52.4502 18.5712 52.5101 18.4112 52.5101" fill="#275A67"/>
<path d="M18.4012 52.4901C18.4012 52.4901 18.3412 52.4901 18.3112 52.4901C18.1112 52.4601 17.9412 52.3501 17.8312 52.1801C17.6512 51.8801 13.5012 44.9101 17.9312 39.9301C18.1712 39.6601 18.5912 39.6301 18.8712 39.8801C19.1412 40.1201 19.1712 40.5401 18.9312 40.8201C15.9112 44.2101 17.7212 48.9501 18.5912 50.7601L23.7912 45.8801C24.0612 45.6301 24.4812 45.6401 24.7312 45.9101C24.9812 46.1801 24.9712 46.6001 24.7012 46.8501L18.8612 52.3302C18.7412 52.4502 18.5712 52.5101 18.4112 52.5101L18.4012 52.4901Z" stroke="#275A67" stroke-width="0.56" stroke-miterlimit="10"/>
<path d="M35.3707 12.54L37.2307 16.45C37.6507 12.92 37.8407 11.34 37.9807 10.61C36.5307 4.97002 32.2107 2.35001 24.4107 2.35001H23.9207C21.2707 2.39001 19.0906 4.84001 18.9506 7.95001C18.7006 13.16 24.2007 13.65 24.4307 13.67L24.8207 13.7C25.4607 13.75 26.1807 13.82 27.0107 13.82C29.4507 13.82 31.8107 13.26 34.4307 12.04C34.7407 11.9 35.1007 12.01 35.2807 12.3C35.3307 12.38 35.3607 12.46 35.3707 12.54ZM37.6207 19.49C37.3707 19.49 37.1306 19.35 37.0206 19.11L34.3707 13.53C31.8407 14.62 29.4207 15.15 27.0107 15.15C26.1307 15.15 25.3707 15.08 24.7107 15.03L24.3407 15C24.3407 15 21.2806 14.78 19.2706 12.67C18.0906 11.43 17.5307 9.82001 17.6207 7.89001C17.7907 4.08001 20.5507 1.07002 23.9007 1.02002H24.4107C32.8107 1.02002 37.6806 4.05 39.2706 10.31C39.3006 10.42 39.3006 10.52 39.2706 10.63C39.2006 11.06 38.6407 15.79 38.2807 18.9C38.2507 19.19 38.0207 19.43 37.7307 19.48C37.6907 19.48 37.6607 19.48 37.6207 19.48" fill="#275A67"/>
<path d="M35.3707 12.54L37.2307 16.45C37.6507 12.92 37.8407 11.34 37.9807 10.61C36.5307 4.97002 32.2107 2.35001 24.4107 2.35001H23.9207C21.2707 2.39001 19.0906 4.84001 18.9506 7.95001C18.7006 13.16 24.2007 13.65 24.4307 13.67L24.8207 13.7C25.4607 13.75 26.1807 13.82 27.0107 13.82C29.4507 13.82 31.8107 13.26 34.4307 12.04C34.7407 11.9 35.1007 12.01 35.2807 12.3C35.3307 12.38 35.3607 12.46 35.3707 12.54ZM37.6207 19.49C37.3707 19.49 37.1306 19.35 37.0206 19.11L34.3707 13.53C31.8407 14.62 29.4207 15.15 27.0107 15.15C26.1307 15.15 25.3707 15.08 24.7107 15.03L24.3407 15C24.3407 15 21.2806 14.78 19.2706 12.67C18.0906 11.43 17.5307 9.82001 17.6207 7.89001C17.7907 4.08001 20.5507 1.07002 23.9007 1.02002H24.4107C32.8107 1.02002 37.6806 4.05 39.2706 10.31C39.3006 10.42 39.3006 10.52 39.2706 10.63C39.2006 11.06 38.6407 15.79 38.2807 18.9C38.2507 19.19 38.0207 19.43 37.7307 19.48C37.6907 19.48 37.6607 19.48 37.6207 19.48V19.49Z" stroke="#275A67" stroke-width="0.56" stroke-miterlimit="10"/>
<path d="M17.5916 5.04997C16.8616 5.04997 15.9616 5.28995 14.8416 5.77995C11.6016 7.19995 11.6217 9.33996 11.6317 11.23V11.6199C11.6317 11.8999 11.8016 13.9099 11.9716 15.9599L12.9916 13.7099C13.1316 13.4099 13.4616 13.25 13.7816 13.35C14.1616 13.46 14.5517 13.52 14.9417 13.52C15.9917 13.52 17.3516 12.79 18.5216 11.63C17.9716 10.66 17.6716 9.48995 17.6716 8.27995C17.6716 7.30995 17.7416 6.12997 18.1816 5.10997C17.9916 5.06997 17.7916 5.04997 17.5816 5.04997M11.5316 19.2C11.5316 19.2 11.4616 19.2 11.4216 19.2C11.1216 19.15 10.9016 18.9 10.8716 18.6C10.8116 17.95 10.3016 12.2099 10.3016 11.6199V11.2399C10.2816 9.28994 10.2616 6.33995 14.3016 4.55995C16.5416 3.57995 18.1016 3.45995 19.4516 4.15995C19.6216 4.24995 19.7416 4.40995 19.7916 4.58995C19.8316 4.77995 19.7916 4.97996 19.6816 5.12996C19.2116 5.77996 19.0117 6.74997 19.0117 8.26997C19.0117 9.40997 19.3316 10.4899 19.9116 11.3099C20.0916 11.5599 20.0716 11.91 19.8616 12.14C18.6916 13.44 16.7916 14.83 14.9516 14.83C14.6316 14.83 14.3016 14.7999 13.9816 14.7399L12.1416 18.8C12.0316 19.04 11.7916 19.19 11.5416 19.19" fill="#275A67"/>
<path d="M17.5914 5.04997C16.8614 5.04997 15.9614 5.28995 14.8414 5.77995C11.6014 7.19995 11.6214 9.33996 11.6314 11.23V11.6199C11.6314 11.8999 11.8014 13.9099 11.9714 15.9599L12.9914 13.7099C13.1314 13.4099 13.4614 13.25 13.7814 13.35C14.1614 13.46 14.5514 13.52 14.9414 13.52C15.9914 13.52 17.3514 12.79 18.5214 11.63C17.9714 10.66 17.6714 9.48995 17.6714 8.27995C17.6714 7.30995 17.7414 6.12997 18.1814 5.10997C17.9914 5.06997 17.7914 5.04997 17.5814 5.04997H17.5914ZM11.5414 19.2C11.5414 19.2 11.4714 19.2 11.4314 19.2C11.1314 19.15 10.9114 18.9 10.8814 18.6C10.8214 17.95 10.3114 12.2099 10.3114 11.6199V11.2399C10.2914 9.28994 10.2714 6.33995 14.3114 4.55995C16.5514 3.57995 18.1114 3.45995 19.4614 4.15995C19.6314 4.24995 19.7514 4.40995 19.8014 4.58995C19.8414 4.77995 19.8014 4.97996 19.6914 5.12996C19.2214 5.77996 19.0214 6.74997 19.0214 8.26997C19.0214 9.40997 19.3414 10.4899 19.9214 11.3099C20.1014 11.5599 20.0814 11.91 19.8714 12.14C18.7014 13.44 16.8014 14.83 14.9614 14.83C14.6414 14.83 14.3114 14.7999 13.9914 14.7399L12.1514 18.8C12.0414 19.04 11.8014 19.19 11.5514 19.19L11.5414 19.2Z" stroke="#275A67" stroke-width="0.56" stroke-miterlimit="10"/>
<path d="M24.6315 42.14C18.6115 42.11 11.3715 35.76 11.3715 28.39L11.0315 18.23C11.0215 17.86 11.3115 17.56 11.6715 17.54C12.0215 17.54 12.3415 17.82 12.3615 18.18L12.7015 28.36C12.7015 34.92 19.3315 40.77 24.5515 40.8C29.8515 40.77 36.4715 34.92 36.4715 28.38L36.8015 18.48C36.8115 18.11 37.1215 17.85 37.4915 17.84C37.8615 17.85 38.1415 18.16 38.1315 18.53L37.8015 28.41C37.8015 35.75 30.5615 42.11 24.6315 42.14Z" fill="#275A67"/>
<path d="M24.6315 42.14C18.6115 42.11 11.3715 35.76 11.3715 28.39L11.0315 18.23C11.0215 17.86 11.3115 17.56 11.6715 17.54C12.0215 17.54 12.3415 17.82 12.3615 18.18L12.7015 28.36C12.7015 34.92 19.3315 40.77 24.5515 40.8C29.8515 40.77 36.4715 34.92 36.4715 28.38L36.8015 18.48C36.8115 18.11 37.1215 17.85 37.4915 17.84C37.8615 17.85 38.1415 18.16 38.1315 18.53L37.8015 28.41C37.8015 35.75 30.5615 42.11 24.6315 42.14Z" stroke="#275A67" stroke-width="0.56" stroke-miterlimit="10"/>
<path d="M24.5208 47.0804C24.1208 47.0804 19.3008 44.8003 19.3008 41.9103V40.7704C19.3008 40.4004 19.6008 40.1104 19.9608 40.1104C20.3208 40.1104 20.6308 40.4104 20.6308 40.7704V41.9103C20.6308 43.5303 23.4308 45.1603 24.5208 45.6903C25.6108 45.1703 28.4108 43.5303 28.4108 41.9103V40.7704C28.4108 40.4004 28.7108 40.1104 29.0708 40.1104C29.4308 40.1104 29.7308 40.4104 29.7308 40.7704V41.9103C29.7308 44.8003 24.9108 47.0804 24.5108 47.0804" fill="#275A67"/>
<path d="M24.5208 47.0804C24.1208 47.0804 19.3008 44.8003 19.3008 41.9103V40.7704C19.3008 40.4004 19.6008 40.1104 19.9608 40.1104C20.3208 40.1104 20.6308 40.4104 20.6308 40.7704V41.9103C20.6308 43.5303 23.4308 45.1603 24.5208 45.6903C25.6108 45.1703 28.4108 43.5303 28.4108 41.9103V40.7704C28.4108 40.4004 28.7108 40.1104 29.0708 40.1104C29.4308 40.1104 29.7308 40.4104 29.7308 40.7704V41.9103C29.7308 44.8003 24.9108 47.0804 24.5108 47.0804H24.5208Z" stroke="#275A67" stroke-width="0.56" stroke-miterlimit="10"/>
<path d="M59.5902 52.4403C59.2402 52.4403 58.9502 52.1703 58.9302 51.8203C58.9102 51.4503 59.1802 51.1403 59.5502 51.1103C67.1902 50.6103 72.2103 48.2803 73.5103 47.6203V39.8803H39.0703V47.6103C40.4503 48.2703 45.8102 50.6003 53.5302 51.1103C53.9002 51.1303 54.1702 51.4503 54.1502 51.8203C54.1302 52.1903 53.8202 52.4603 53.4402 52.4403C44.1602 51.8303 38.3302 48.7403 38.0902 48.6103C37.8702 48.4903 37.7402 48.2703 37.7402 48.0303V39.2303C37.7402 38.8603 38.0402 38.5703 38.4002 38.5703H74.1702C74.5402 38.5703 74.8402 38.8703 74.8402 39.2303V48.0303C74.8402 48.2703 74.7203 48.4803 74.5103 48.6003C74.2803 48.7303 68.8702 51.8403 59.6402 52.4403C59.6202 52.4403 59.6102 52.4403 59.6002 52.4403" fill="#275A67"/>
<path d="M59.5902 52.4403C59.2402 52.4403 58.9502 52.1703 58.9302 51.8203C58.9102 51.4503 59.1802 51.1403 59.5502 51.1103C67.1902 50.6103 72.2103 48.2803 73.5103 47.6203V39.8803H39.0703V47.6103C40.4503 48.2703 45.8102 50.6003 53.5302 51.1103C53.9002 51.1303 54.1702 51.4503 54.1502 51.8203C54.1302 52.1903 53.8202 52.4603 53.4402 52.4403C44.1602 51.8303 38.3302 48.7403 38.0902 48.6103C37.8702 48.4903 37.7402 48.2703 37.7402 48.0303V39.2303C37.7402 38.8603 38.0402 38.5703 38.4002 38.5703H74.1702C74.5402 38.5703 74.8402 38.8703 74.8402 39.2303V48.0303C74.8402 48.2703 74.7203 48.4803 74.5103 48.6003C74.2803 48.7303 68.8702 51.8403 59.6402 52.4403C59.6202 52.4403 59.6102 52.4403 59.6002 52.4403H59.5902Z" stroke="#275A67" stroke-width="0.56" stroke-miterlimit="10"/>
<path d="M72.5208 65.19H40.0508C39.6808 65.19 39.3809 64.89 39.3809 64.53V49.12C39.3809 48.75 39.6808 48.46 40.0508 48.46C40.4208 48.46 40.7108 48.76 40.7108 49.12V63.86H71.8508V49.12C71.8508 48.75 72.1508 48.46 72.5208 48.46C72.8908 48.46 73.1808 48.76 73.1808 49.12V64.53C73.1808 64.9 72.8808 65.19 72.5208 65.19Z" fill="#275A67"/>
<path d="M72.5208 65.19H40.0508C39.6808 65.19 39.3809 64.89 39.3809 64.53V49.12C39.3809 48.75 39.6808 48.46 40.0508 48.46C40.4208 48.46 40.7108 48.76 40.7108 49.12V63.86H71.8508V49.12C71.8508 48.75 72.1508 48.46 72.5208 48.46C72.8908 48.46 73.1808 48.76 73.1808 49.12V64.53C73.1808 64.9 72.8808 65.19 72.5208 65.19Z" stroke="#275A67" stroke-width="0.56" stroke-miterlimit="10"/>
<path d="M53.1216 34.3703C52.9516 34.3703 52.7617 34.6203 52.7617 34.9403C52.7617 35.2603 52.9516 35.5103 53.1216 35.5103H59.4516C59.6216 35.5103 59.8116 35.2603 59.8116 34.9403C59.8116 34.6203 59.6216 34.3703 59.4516 34.3703H53.1216ZM59.4516 36.8503H53.1216C52.1916 36.8503 51.4316 36.0003 51.4316 34.9503C51.4316 33.9003 52.1916 33.0503 53.1216 33.0503H59.4516C60.3816 33.0503 61.1416 33.9003 61.1416 34.9503C61.1416 36.0003 60.3816 36.8503 59.4516 36.8503Z" fill="#275A67"/>
<path d="M53.1216 34.3703C52.9516 34.3703 52.7617 34.6203 52.7617 34.9403C52.7617 35.2603 52.9516 35.5103 53.1216 35.5103H59.4516C59.6216 35.5103 59.8116 35.2603 59.8116 34.9403C59.8116 34.6203 59.6216 34.3703 59.4516 34.3703H53.1216ZM59.4516 36.8503H53.1216C52.1916 36.8503 51.4316 36.0003 51.4316 34.9503C51.4316 33.9003 52.1916 33.0503 53.1216 33.0503H59.4516C60.3816 33.0503 61.1416 33.9003 61.1416 34.9503C61.1416 36.0003 60.3816 36.8503 59.4516 36.8503Z" stroke="#275A67" stroke-width="0.56" stroke-miterlimit="10"/>
<path d="M49.9512 39.3299C49.5812 39.3299 49.2812 39.0299 49.2812 38.6699V34.8199C49.2812 34.6399 49.3513 34.4699 49.4813 34.3499C49.6013 34.2299 49.7712 34.1499 49.9512 34.1499H52.0212C52.3912 34.1499 52.6913 34.4499 52.6913 34.8199C52.6913 35.1899 52.3912 35.4799 52.0212 35.4799H50.6113V38.6599C50.6113 39.0299 50.3112 39.3199 49.9512 39.3199" fill="#275A67"/>
<path d="M49.9512 39.3299C49.5812 39.3299 49.2812 39.0299 49.2812 38.6699V34.8199C49.2812 34.6399 49.3513 34.4699 49.4813 34.3499C49.6013 34.2299 49.7712 34.1499 49.9512 34.1499H52.0212C52.3912 34.1499 52.6913 34.4499 52.6913 34.8199C52.6913 35.1899 52.3912 35.4799 52.0212 35.4799H50.6113V38.6599C50.6113 39.0299 50.3112 39.3199 49.9512 39.3199V39.3299Z" stroke="#275A67" stroke-width="0.56" stroke-miterlimit="10"/>
<path d="M62.6108 39.8799C62.2408 39.8799 61.9408 39.5799 61.9408 39.2199V35.4799H60.9608C60.5908 35.4799 60.3008 35.1799 60.3008 34.8099C60.3008 34.4399 60.6008 34.1499 60.9608 34.1499H62.6108C62.9808 34.1499 63.2708 34.4499 63.2708 34.8099V39.2099C63.2708 39.5799 62.9708 39.8699 62.6108 39.8699" fill="#275A67"/>
<path d="M62.6108 39.8799C62.2408 39.8799 61.9408 39.5799 61.9408 39.2199V35.4799H60.9608C60.5908 35.4799 60.3008 35.1799 60.3008 34.8099C60.3008 34.4399 60.6008 34.1499 60.9608 34.1499H62.6108C62.9808 34.1499 63.2708 34.4499 63.2708 34.8099V39.2099C63.2708 39.5799 62.9708 39.8699 62.6108 39.8699V39.8799Z" stroke="#275A67" stroke-width="0.56" stroke-miterlimit="10"/>
<path d="M54.2714 56.2102L56.5414 58.0202L58.8114 56.2102V48.2702H54.2614V56.2102H54.2714ZM56.5414 59.5302C56.3914 59.5302 56.2514 59.4802 56.1314 59.3902L53.1914 57.0602C53.0314 56.9302 52.9414 56.7402 52.9414 56.5402V47.6102C52.9414 47.2402 53.2414 46.9502 53.6114 46.9502H59.4914C59.8614 46.9502 60.1514 47.2502 60.1514 47.6102V56.5402C60.1514 56.7402 60.0614 56.9302 59.9014 57.0602L56.9614 59.3902C56.8414 59.4902 56.6914 59.5302 56.5514 59.5302" fill="#275A67"/>
<path d="M56.5405 53.6503C56.1805 53.6503 55.8905 53.9403 55.8905 54.3003C55.8905 54.6603 56.1805 54.9503 56.5405 54.9503C56.9005 54.9503 57.1906 54.6603 57.1906 54.3003C57.1906 53.9403 56.9005 53.6503 56.5405 53.6503ZM56.5405 56.2803C55.4505 56.2803 54.5605 55.3903 54.5605 54.3003C54.5605 53.2103 55.4505 52.3203 56.5405 52.3203C57.6305 52.3203 58.5205 53.2103 58.5205 54.3003C58.5205 55.3903 57.6305 56.2803 56.5405 56.2803Z" fill="#275A67"/>
</svg>
