<svg width="70" height="69" viewBox="0 0 70 69" fill="none" xmlns="http://www.w3.org/2000/svg">
<path d="M32.2609 21.3999V26.5599C32.2609 27.8399 31.7909 30.4499 31.1209 31.4699C30.4509 32.4799 27.1209 35.6099 27.1209 35.6099M9.96094 21.3999V26.5599C9.96094 27.8399 10.7709 30.8199 11.4509 31.8299C11.9209 32.5399 14.6609 35.1899 16.2609 36.7099C16.9909 37.4099 17.9609 37.7899 18.9609 37.7899H21.8609" stroke="#275A67" stroke-width="2.38" stroke-linejoin="round"/>
<path d="M41.2917 52.78H45.7717M3.97167 61.74L17.4117 67.71H55.7517C56.9517 67.71 58.0417 66.99 58.5017 65.88L67.9317 43.48C68.7617 41.51 67.3117 39.33 65.1817 39.33H28.3917C27.1717 39.33 26.0717 40.07 25.6217 41.21L17.4117 61.73L3.68169 55.49C2.19169 54.81 1.52167 53.06 2.19167 51.56L6.17168 42.6C6.65168 41.52 7.72169 40.83 8.90169 40.83H11.4417L12.9317 37.84M26.3717 3.76001C29.3617 5.79001 32.3417 8.44001 32.3417 12.82V14.79L33.8317 15.77V19.92H6.96169V15.77L8.45168 14.79V12.82C8.45168 8.44001 11.4417 5.79001 14.4217 3.76001M17.4117 10.96V2H23.3817V10.96" stroke="#275A67" stroke-width="2.38" stroke-miterlimit="10"/>
</svg>
