<svg width="57" height="65" viewBox="0 0 57 65" fill="none" xmlns="http://www.w3.org/2000/svg">
<path d="M34.62 52.23L27.3 64.05M12.89 46.9L4.25 64.05M20.1 46.91C20.1 49.28 22.03 51.2 24.42 51.2C26.81 51.2 28.74 49.28 28.74 46.91C28.74 44.54 26.81 42.62 24.42 42.62C22.03 42.62 20.1 44.54 20.1 46.91ZM12.9 46.91C12.9 53.22 18.06 58.34 24.42 58.34C30.78 58.34 35.94 53.22 35.94 46.91C35.94 40.6 30.78 35.48 24.42 35.48C18.06 35.48 12.9 40.6 12.9 46.91Z" stroke="#275A67" stroke-width="1.98" stroke-linejoin="round"/>
<path d="M41.5117 11.3599C41.5117 15.3299 44.7617 18.5499 48.7617 18.5499C52.7617 18.5499 56.0117 15.3299 56.0117 11.3599C56.0117 7.38992 52.7617 4.16992 48.7617 4.16992C44.7617 4.16992 41.5117 7.38992 41.5117 11.3599Z" stroke="#275A67" stroke-width="1.98" stroke-miterlimit="10"/>
<path d="M1.38086 11.3603C1.38086 16.9003 5.91087 21.4003 11.5009 21.4003C17.0909 21.4003 21.6209 16.9103 21.6209 11.3603C21.6209 5.82032 17.0909 1.32031 11.5009 1.32031C5.91087 1.32031 1.38086 5.81032 1.38086 11.3603Z" stroke="#275A67" stroke-width="1.98" stroke-linejoin="round"/>
<path d="M43.0296 14.2599H35.8596L34.4296 15.6999H21.5296M43.0296 7.02985H35.8596L34.4296 5.58984H20.0996" stroke="#275A67" stroke-width="1.98" stroke-miterlimit="10"/>
<path d="M20.1001 17.03L33.9901 40.61M2.08008 15L13.3401 43.82" stroke="#275A67" stroke-width="1.98" stroke-linejoin="round"/>
<path d="M44.4012 17.0498V21.3398L42.9512 22.7698V31.3298L44.4012 32.7598V35.6198L47.3112 38.4698H50.2212L53.1212 35.6198V32.7598L54.5812 31.3298V22.7698L53.1212 21.3398V17.0498" stroke="#275A67" stroke-width="1.98" stroke-miterlimit="10"/>
<path d="M48.8203 38.3999V48.3599" stroke="#275A67" stroke-width="1.98" stroke-linejoin="round"/>
</svg>
