<svg width="63" height="63" viewBox="0 0 63 63" fill="none" xmlns="http://www.w3.org/2000/svg">
<path d="M6.0515 45.9402L6.09148 46.2602M25.6215 48.6902C25.6215 48.6902 30.9715 50.6702 33.4415 51.0702C37.0515 51.6502 45.5015 51.9202 45.5415 49.6602C45.5815 47.3402 41.7015 46.8202 34.4815 44.2502C29.9415 42.6302 26.3315 39.3301 22.4215 39.2901C19.2115 39.2601 16.4315 40.3702 14.2415 41.4102C12.5315 42.2202 11.0115 42.8502 9.60149 43.3602M11.2815 57.1102C15.1215 56.9502 18.6415 57.0602 21.4115 58.1102C21.5315 58.1602 21.6515 58.2002 21.7615 58.2502C21.8215 58.2802 21.8915 58.3002 21.9515 58.3302C23.1515 58.8002 24.4015 59.2602 25.7115 59.7002C29.4115 60.9702 32.3615 61.4902 35.8115 61.1602C40.0515 60.7602 46.9715 56.2901 52.2415 52.4801C62.3715 45.1501 62.6515 42.1002 61.1915 40.5302C59.5615 38.7702 54.7615 42.1202 48.0215 46.6502M9.37151 60.1802L6.25152 60.5602C5.01152 60.7102 3.8815 59.8302 3.7315 58.5802L1.9815 44.2202C1.8315 42.9802 2.71147 41.8402 3.95147 41.6902L7.07152 41.3102C8.31152 41.1602 9.44148 42.0401 9.59148 43.2901L11.3415 57.6502C11.4915 58.8902 10.6115 60.0302 9.37151 60.1802Z" stroke="#275A67" stroke-width="2.22" stroke-linecap="round" stroke-linejoin="round"/>
<path d="M33.4407 1.49023C33.4407 1.49023 25.6907 7.50024 19.2207 7.50024V22.7302C19.2207 25.9002 20.5207 28.7402 22.6907 30.3502C24.9607 32.0202 31.7307 36.4902 32.0207 36.6802L33.4407 37.6102L34.8607 36.6802C35.1507 36.4902 41.9207 32.0302 44.1907 30.3502C46.3607 28.7502 47.6607 25.9002 47.6607 22.7302V7.50024C41.1907 7.50024 33.4407 1.49023 33.4407 1.49023Z" stroke="#275A67" stroke-width="2.22" stroke-linecap="round" stroke-linejoin="round"/>
<path d="M27.5996 18.8601L32.3196 24.5201L41.9596 13.1401" stroke="#275A67" stroke-width="2.22" stroke-linecap="round" stroke-linejoin="round"/>
</svg>
