<svg width="69" height="67" viewBox="0 0 69 67" fill="none" xmlns="http://www.w3.org/2000/svg">
<path d="M41.381 27.7701L38.751 23.1401M28.261 23.1401L25.7109 27.7701" stroke="#275A67" stroke-width="1.72" stroke-linecap="round" stroke-linejoin="round"/>
<path d="M35.6911 3.88019L37.4411 0.970215H29.2811L31.0311 3.88019M41.5211 7.99017L43.8511 9.71021V13.2102M25.201 7.97021L22.8711 9.72021V13.2202M25.201 6.81018H41.5211M36.8611 18.4602H39.7711M26.951 18.4602H29.8611M25.201 15.5502H41.5211M26.951 26.0402H40.3511M41.5211 21.3802C41.5211 22.3402 40.7411 23.1302 39.7711 23.1302H26.951C25.981 23.1302 25.201 22.3502 25.201 21.3802V5.65021C25.201 4.68021 25.981 3.90021 26.951 3.90021H39.7711C40.7311 3.90021 41.5211 4.68021 41.5211 5.65021V21.3802Z" stroke="#275A67" stroke-width="1.72" stroke-linejoin="round"/>
<path d="M7.49097 33.3701H6.11096M10.261 33.3701H8.88098M13.0309 33.3701H11.6509M15.801 33.3701H14.421M15.511 29.9102L13.731 27.1401H8.58093L7.50098 29.9102H5.43097L2.66095 36.8301H26.871L23.761 33.3701H17.191M21.3409 33.3701L17.541 29.9102H12.351M33.131 48.9301L31.491 47.5801C30.851 47.0501 30.001 47.0902 29.381 47.6602L28.131 48.8401C27.511 49.4301 26.631 49.4501 25.991 48.9001L24.501 47.6001C23.871 47.0501 23.0209 47.0601 22.4009 47.6201L21.001 48.8801C20.361 49.4501 19.491 49.4501 18.861 48.8701L17.5209 47.6401C16.9009 47.0701 16.0509 47.0601 15.4109 47.6001L13.861 48.9201C13.211 49.4701 12.3409 49.4401 11.7209 48.8401L10.5309 47.6901C9.92094 47.1001 9.07096 47.0601 8.42096 47.5801L5.60095 49.8601M28.741 45.0201L25.821 42.7301C25.161 42.2201 24.3109 42.2801 23.7109 42.8801L22.621 43.9801C22.011 44.6001 21.1309 44.6501 20.4709 44.1001L18.8309 42.7501C18.1909 42.2201 17.3409 42.2601 16.7209 42.8401L15.4709 44.0201C14.8509 44.6101 13.9709 44.6301 13.3309 44.0701L11.8409 42.7802C11.2109 42.2302 10.361 42.2401 9.74097 42.8001L8.34094 44.0601C7.70094 44.6301 6.83093 44.6301 6.20093 44.0501L4.86096 42.8201C4.24096 42.2501 3.39099 42.2401 2.76099 42.7701L1.21094 44.0901M26.931 43.7601C28.661 40.8201 31.6009 40.6001 33.1609 36.8401H1.34094V40.9901L2.72095 43.0701" stroke="#275A67" stroke-width="1.72" stroke-linejoin="round"/>
<path d="M51.1615 32.9399L58.1515 26.6499L59.5515 27.3499L56.0515 32.9399M46.9615 37.8299L51.1615 42.7299L58.1515 49.0199L59.5515 48.3199L56.0515 42.7299L53.9515 37.8299M48.3615 39.2299H38.5715C37.0715 39.2299 35.7715 37.9599 35.7715 37.1299C35.7715 35.5799 39.4115 34.3299 42.0615 34.3299H61.6415L65.8415 30.8299L67.9415 31.5299C67.9415 31.5299 65.8015 35.3299 64.4415 37.1299C66.0115 37.1299 66.1015 39.2299 64.4415 39.2299H54.6515" stroke="#275A67" stroke-width="1.72" stroke-linejoin="round"/>
<path d="M5.42188 23.5101C8.15188 15.7701 13.8319 9.42013 21.1119 5.82013M45.4919 4.41016C54.8919 7.76016 62.2219 15.4901 65.0419 25.1301M64.0619 45.5401C59.4419 57.0801 48.1619 65.2401 34.9719 65.2401C24.4919 65.2401 15.2219 60.1001 9.53186 52.2001" stroke="#275A67" stroke-width="1.72" stroke-linejoin="round"/>
</svg>
