<svg width="50" height="86" viewBox="0 0 50 86" fill="none" xmlns="http://www.w3.org/2000/svg">
<path d="M28.0806 61.8197H34.5106C34.3306 59.8197 34.1506 57.8597 33.9806 55.8997C32.0006 57.8897 30.0406 59.8497 28.0806 61.8197ZM18.4306 32.8197C20.8606 30.3897 23.2506 28.0097 25.6406 25.6197H19.0806C18.8606 28.0397 18.6506 30.4197 18.4306 32.8197ZM18.9306 61.8497H19.4806C21.3906 61.8497 23.3006 61.8297 25.2106 61.8597C25.7006 61.8597 26.0406 61.7197 26.3806 61.3797C28.7506 58.9897 31.1506 56.6097 33.5206 54.2197C33.6606 54.0697 33.7706 53.7997 33.7606 53.5997C33.7006 52.5397 33.6006 51.4797 33.5006 50.4097C33.4206 49.4597 33.3206 48.5097 33.2306 47.5797C28.4706 52.3297 23.7306 57.0597 18.9306 61.8497ZM17.5306 42.8897C17.7206 42.7397 17.8406 42.6497 17.9406 42.5497C22.2206 38.2697 26.5006 33.9897 30.7906 29.7197C31.3106 29.2097 31.6406 28.7297 31.4806 27.9497C31.3306 27.1897 31.3206 26.3897 31.2506 25.5797C30.3006 25.5797 29.4206 25.6097 28.5506 25.5697C28.0306 25.5497 27.6606 25.7097 27.2906 26.0797C24.4206 28.9797 21.5306 31.8497 18.6406 34.7197C18.3206 35.0397 18.1606 35.3897 18.1306 35.8497C18.0606 36.9097 17.9506 37.9697 17.8606 39.0397C17.7506 40.2797 17.6406 41.5297 17.5306 42.8797M31.7406 30.7897C31.5806 30.9197 31.5106 30.9697 31.4506 31.0297C26.8106 35.6697 22.1706 40.2997 17.5406 44.9497C17.4106 45.0797 17.3306 45.2997 17.3106 45.4897C17.1306 47.2297 16.9706 48.9797 16.8106 50.7197C16.7506 51.4097 16.7006 52.0897 16.6406 52.7797L16.8006 52.8597C17.4306 52.1997 18.0506 51.5397 18.6906 50.8897C23.1106 46.4697 27.5206 42.0497 31.9506 37.6497C32.2406 37.3597 32.3206 37.0897 32.2806 36.6997C32.1606 35.6897 32.0806 34.6797 31.9906 33.6797C31.9106 32.7597 31.8306 31.8397 31.7406 30.8097M32.4906 39.2697C32.4306 39.2297 32.3806 39.1997 32.3206 39.1597C32.1806 39.3297 32.0606 39.5197 31.9006 39.6797C26.8506 44.7297 21.8006 49.7797 16.7606 54.8397C16.5606 55.0397 16.4306 55.3597 16.4006 55.6397C16.2506 57.0397 16.1306 58.4497 16.0106 59.8497C15.9506 60.5097 15.9106 61.1697 15.8406 62.0197C16.3706 61.8297 16.8506 61.7997 17.1106 61.5397C22.3506 56.3397 27.5706 51.1097 32.7906 45.8797C32.9306 45.7297 33.0406 45.4597 33.0306 45.2597C32.9906 44.4497 32.9006 43.6497 32.8306 42.8397C32.7206 41.6497 32.6106 40.4497 32.5106 39.2597M25.1806 63.2697H15.4606C14.5606 63.2697 14.3506 63.0497 14.4206 62.1797C14.7306 58.6697 15.0406 55.1497 15.3506 51.6397C15.7006 47.6297 16.0506 43.6197 16.4106 39.6097C16.8006 35.2397 17.2106 30.8697 17.6106 26.5097C17.6506 26.0297 17.6906 25.5497 17.7306 25.0697C17.7906 24.3797 17.9706 24.2197 18.6806 24.2197C20.3206 24.2197 21.9506 24.2197 23.5906 24.2197C26.2806 24.2197 28.9606 24.2197 31.6506 24.2197C32.4106 24.2197 32.5706 24.3697 32.6406 25.1397C32.8806 27.8697 33.1006 30.5897 33.3506 33.3197C33.7506 37.6897 34.1706 42.0597 34.5606 46.4197C34.8906 50.0897 35.2006 53.7597 35.5206 57.4297C35.6606 59.0197 35.8106 60.6197 35.9406 62.2097C36.0106 63.0597 35.8106 63.2797 34.9306 63.2797C31.6706 63.2797 28.4206 63.2797 25.1606 63.2797L25.1806 63.2697Z" fill="#275A67"/>
<path d="M32.91 15.69H31.31V21.05H32.91V15.69ZM17.45 21.04H19.06V15.68H17.45V21.04ZM20.54 21.04H24.44V15.69H20.54V21.04ZM25.94 21.04H29.83V15.67H25.94V21.04ZM25.19 22.48H17.08C16.19 22.48 16.01 22.3 16 21.39C16 19.32 16 17.26 16 15.19C16 14.48 16.22 14.25 16.92 14.25C22.43 14.25 27.94 14.25 33.45 14.25C34.14 14.25 34.37 14.49 34.37 15.19C34.37 17.29 34.37 19.39 34.37 21.49C34.37 22.25 34.14 22.48 33.4 22.48C30.66 22.48 27.92 22.48 25.19 22.48Z" fill="#275A67"/>
<path d="M36.4502 66.3997H13.8702C13.8702 67.1697 13.8702 67.9197 13.8702 68.6697C13.8702 68.9997 13.8701 69.3297 13.8401 69.6497C13.7901 70.0497 13.5302 70.2597 13.1302 70.2397C12.7202 70.2297 12.4802 69.9897 12.4802 69.5897C12.4702 68.2797 12.4702 66.9697 12.4802 65.6597C12.4802 65.2297 12.7401 65.0097 13.1601 64.9697C13.2601 64.9697 13.3701 64.9697 13.4701 64.9697C21.2701 64.9697 29.0802 64.9697 36.8801 64.9697C37.6602 64.9697 37.8702 65.1697 37.8702 65.9297C37.8702 67.0797 37.8702 68.2397 37.8702 69.3897C37.8702 69.9597 37.6401 70.2297 37.1901 70.2397C36.7301 70.2497 36.4602 69.9497 36.4602 69.3797C36.4602 68.3997 36.4602 67.4197 36.4602 66.3997" fill="#275A67"/>
<path d="M20.9192 11.0797H29.4392C29.2292 9.09965 27.3092 7.47961 25.1992 7.47961C23.0592 7.47961 21.1392 9.08965 20.9192 11.0797ZM25.8292 4.90967C25.8692 5.29967 25.8992 5.67964 25.9292 6.00964C26.5292 6.23964 27.0892 6.45962 27.6592 6.66962C28.5492 7.55962 29.4492 8.44966 30.3392 9.33966C30.5492 10.1297 30.8092 10.9097 30.9492 11.7097C31.0392 12.2297 30.6792 12.5396 30.1492 12.5396C26.8392 12.5396 23.5292 12.5396 20.2292 12.5396C19.6692 12.5396 19.3892 12.2397 19.4092 11.6497C19.4892 9.51966 20.8592 7.26966 23.0192 6.52966C23.4692 6.37966 23.9192 6.20965 24.4792 6.01965C24.4792 5.53965 24.4792 4.95965 24.4792 4.38965C24.4792 4.13965 24.5292 3.88965 24.5592 3.63965C24.8092 3.85965 25.0592 4.06961 25.2992 4.28961L25.8392 4.90967H25.8292Z" fill="#275A67"/>
<path d="M19.6895 74.1398C20.6495 74.0798 21.3895 74.5598 22.0795 75.1298C22.4395 75.4198 22.7695 75.7498 23.1195 76.0598C24.2995 77.1498 25.9295 77.1898 27.1595 76.1498C27.6095 75.7698 28.0295 75.3698 28.4695 74.9898C29.9995 73.6898 32.6495 73.7298 34.1495 75.1798C34.4995 75.5098 34.8595 75.8298 35.2195 76.1498C36.3695 77.1498 37.9695 77.1598 39.1395 76.1898C39.6695 75.7498 40.1595 75.2698 40.6995 74.8398C41.3995 74.2798 42.2295 74.0698 43.1095 74.0598C43.5995 74.0598 43.8995 74.3298 43.8995 74.7498C43.8995 75.2198 43.5995 75.4698 43.1795 75.4598C42.1595 75.4398 41.4195 75.9598 40.7495 76.6398C39.7395 77.6498 38.6095 78.3498 37.1095 78.2998C36.0695 78.2598 35.1495 77.9398 34.3695 77.2698C33.9795 76.9398 33.6095 76.5698 33.2195 76.2298C32.0195 75.1698 30.2395 75.1998 29.0395 76.2698C28.4495 76.7898 27.8995 77.3998 27.2195 77.7798C26.0095 78.4498 24.7095 78.5398 23.4295 77.8698C22.1895 76.6298 20.9395 75.3798 19.6995 74.1398" fill="#275A67"/>
<path d="M17.6202 72.0598C17.0702 72.5498 16.5302 73.0599 15.9602 73.5199C14.2002 74.9399 11.9002 74.8799 10.2002 73.3899C9.89018 73.1199 9.59016 72.8298 9.28016 72.5598C7.96016 71.3698 6.28016 71.3798 4.97016 72.5998C4.25016 73.2698 3.58017 73.9999 2.60017 74.2799C2.14017 74.4099 1.66019 74.4799 1.18019 74.5099C0.780187 74.5299 0.490186 74.3298 0.460186 73.8698C0.440186 73.4298 0.670169 73.1198 1.13017 73.1298C2.19017 73.1398 2.96019 72.6099 3.65019 71.8999C4.79019 70.7199 6.14017 70.0899 7.82017 70.3199C8.63017 70.4299 9.34018 70.7499 9.95018 71.2699C10.3702 71.6299 10.7602 72.0098 11.1802 72.3698C12.3702 73.3798 13.8902 73.3899 15.0902 72.3999C15.4902 72.0699 15.8602 71.7098 16.2502 71.3798C16.3802 71.2698 16.5402 71.2098 16.6802 71.1298C16.9902 71.4398 17.3002 71.7498 17.6102 72.0598" fill="#275A67"/>
<path d="M33.981 71.3497C34.261 71.5697 34.551 71.7797 34.811 72.0197C36.421 73.5097 37.991 73.5197 39.581 71.9997C40.521 71.1097 41.501 70.3497 42.881 70.2797C44.091 70.2297 45.161 70.5297 46.081 71.3297C46.441 71.6497 46.801 71.9697 47.151 72.2997C47.701 72.8097 48.341 73.0897 49.101 73.1197C49.651 73.1397 49.911 73.3797 49.891 73.8497C49.891 74.2997 49.581 74.5397 49.041 74.5197C47.981 74.4897 47.061 74.1197 46.271 73.4097C45.941 73.1097 45.611 72.7997 45.281 72.4997C44.071 71.4097 42.441 71.3797 41.201 72.4297C40.711 72.8397 40.271 73.3097 39.761 73.6797C38.091 74.8897 35.961 74.8097 34.361 73.4997C33.901 73.1197 33.481 72.6897 33.041 72.2797C33.351 71.9697 33.661 71.6597 33.971 71.3497" fill="#275A67"/>
<path d="M33.9795 71.3498C33.6695 71.6598 33.3595 71.9699 33.0495 72.2799C32.2895 71.7799 31.4594 71.4998 30.5594 71.7598C30.0694 71.9098 29.5895 72.1798 29.1695 72.4798C28.6395 72.8598 28.1995 73.3598 27.6795 73.7398C26.2395 74.7898 24.1595 74.7898 22.6995 73.7598C22.2795 73.4598 21.8994 73.1098 21.5294 72.7498C20.3794 71.6198 19.0895 71.3698 17.6195 72.0598C17.3095 71.7498 16.9995 71.4398 16.6895 71.1298C17.1595 70.5898 17.7995 70.4299 18.4595 70.3399C19.9895 70.1099 21.3095 70.5699 22.4095 71.6599C22.7095 71.9499 23.0095 72.2298 23.3295 72.4898C24.3995 73.3598 25.9095 73.3698 26.9995 72.5098C27.6995 71.9598 28.3195 71.2799 29.0795 70.8399C30.6095 69.9599 32.1695 70.0999 33.6595 71.0299C33.7795 71.1099 33.8695 71.2498 33.9695 71.3598" fill="#275A67"/>
<path d="M19.6894 74.1399C20.9294 75.3799 22.1794 76.6299 23.4194 77.8699C22.9594 77.5899 22.4894 77.3199 22.0494 77.0099C21.7294 76.7799 21.4694 76.47 21.1694 76.21C19.9994 75.19 18.4594 75.1599 17.2494 76.1299C16.5894 76.6599 15.9894 77.27 15.2894 77.71C13.8194 78.63 11.7494 78.4299 10.4094 77.3199C10.0794 77.0499 9.75943 76.76 9.44943 76.46C8.83943 75.87 8.14943 75.4699 7.25943 75.4299C6.65943 75.4099 6.40943 75.12 6.44943 74.66C6.48943 74.23 6.76942 74.0299 7.34942 74.0399C8.40942 74.0599 9.31943 74.47 10.1094 75.16C10.4194 75.43 10.7294 75.7099 11.0194 75.9999C12.1594 77.1399 14.0694 77.1699 15.2594 76.0199C15.7094 75.5899 16.1594 75.1599 16.6594 74.8099C17.5594 74.1699 18.5594 73.8799 19.6694 74.1399" fill="#275A67"/>
<path d="M27.1295 81.5898C25.5595 82.4798 23.5395 82.1498 22.0095 80.7498C21.7595 80.5198 21.5095 80.2698 21.2495 80.0498C19.9795 78.9298 18.3595 78.9298 17.0895 80.0498C16.6595 80.4298 16.2495 80.8198 15.8195 81.1798C15.1095 81.7798 14.2495 82.0198 13.3395 82.0798C12.8395 82.1198 12.4895 81.8298 12.4795 81.3998C12.4595 80.9598 12.7395 80.6898 13.2795 80.6698C13.9895 80.6398 14.6095 80.3898 15.1595 79.9198C15.7695 79.3998 16.3595 78.8198 17.0295 78.3898C18.5195 77.4598 20.5995 77.6598 21.9495 78.7998C22.3595 79.1398 22.7495 79.5098 23.1395 79.8698C23.9095 80.5598 24.7895 80.8198 25.8095 80.6098C25.9295 80.5898 26.0695 80.6298 26.1995 80.6398C26.5095 80.9598 26.8195 81.2798 27.1295 81.5898Z" fill="#275A67"/>
<path d="M27.1292 81.5897C26.8192 81.2697 26.5092 80.9597 26.1992 80.6397C26.1992 80.6097 26.1992 80.5596 26.1992 80.5396C26.9492 79.9396 27.6992 79.3597 28.4492 78.7597C30.0492 77.4697 32.4592 77.4997 34.0192 78.8397C34.4392 79.1997 34.8392 79.5797 35.2492 79.9397C35.7592 80.3897 36.3592 80.6197 37.0292 80.6597C37.6192 80.6897 37.9092 80.9397 37.8792 81.3997C37.8592 81.8597 37.4692 82.1197 36.9092 82.0797C35.7592 81.9897 34.7992 81.5097 33.9792 80.7197C33.6592 80.4097 33.3392 80.0897 32.9792 79.8297C31.7692 78.9497 30.3392 79.0196 29.1792 79.9896C28.5592 80.5096 27.9392 81.0197 27.3092 81.5297C27.2592 81.5697 27.1792 81.5697 27.1192 81.5897" fill="#275A67"/>
<path d="M22.3097 83.0298C22.5197 83.1798 22.7597 83.2998 22.9497 83.4798C23.5597 84.0398 24.2397 84.4098 25.1097 84.4298C26.0197 84.4398 26.7297 84.0898 27.3797 83.5098C27.9497 83.0098 28.4997 82.4598 29.1497 82.1198C29.7197 81.8198 30.4097 81.7198 31.0597 81.6298C31.5597 81.5598 31.8697 81.8598 31.8697 82.2798C31.8697 82.7398 31.5997 83.0098 31.1697 83.0098C30.0897 82.9998 29.3197 83.5598 28.6197 84.2798C27.3797 85.5498 25.9097 86.1298 24.1397 85.7398C23.0097 85.4898 22.1297 84.8198 21.4297 83.9098C21.7197 83.6198 22.0097 83.3398 22.2997 83.0498" fill="#275A67"/>
<path d="M37.4507 15.7098C37.2807 15.5498 37.0107 15.3897 36.9007 15.1697C36.7407 14.8397 36.9006 14.5198 37.2206 14.3398C37.8406 13.9998 38.4606 13.6797 39.0906 13.3497C39.9106 12.9197 40.7307 12.4797 41.5507 12.0597C42.0307 11.8097 42.4207 11.8897 42.6207 12.2697C42.8207 12.6497 42.6906 13.0398 42.2306 13.2798C40.8106 14.0398 39.3807 14.7898 37.9507 15.5298C37.8307 15.5898 37.7007 15.6198 37.4507 15.7098Z" fill="#275A67"/>
<path d="M8.23074 24.89C8.06074 24.71 7.78075 24.54 7.68075 24.29C7.53075 23.92 7.75073 23.63 8.09073 23.45C8.97073 22.98 9.85075 22.53 10.7408 22.06C11.2908 21.77 11.8307 21.48 12.3907 21.21C12.8507 20.98 13.2707 21.1 13.4507 21.48C13.6207 21.85 13.4807 22.22 13.0407 22.46C11.6307 23.21 10.2108 23.94 8.80075 24.68C8.66075 24.75 8.51075 24.79 8.24075 24.89" fill="#275A67"/>
<path d="M8.20113 11.8398C8.47113 11.9298 8.62113 11.9598 8.76113 12.0298C10.1811 12.7698 11.5911 13.5098 13.0011 14.2498C13.4011 14.4598 13.6211 14.7498 13.4511 15.2098C13.3111 15.5998 12.8611 15.7498 12.4611 15.5498C10.9811 14.7898 9.51113 14.0098 8.04113 13.2298C7.71113 13.0498 7.55113 12.7498 7.70113 12.4198C7.80113 12.1898 8.05114 12.0198 8.21114 11.8398" fill="#275A67"/>
<path d="M37.4809 21.0098C37.7709 21.1298 37.9509 21.1798 38.1209 21.2698C39.4909 21.9898 40.8609 22.6997 42.2209 23.4197C42.6909 23.6697 42.8309 24.0297 42.6409 24.4297C42.4609 24.8097 42.0609 24.9197 41.5809 24.6797C40.1509 23.9397 38.7209 23.1897 37.3009 22.4297C36.9609 22.2497 36.7409 21.9498 36.9009 21.5898C37.0109 21.3498 37.3009 21.1898 37.4809 21.0098Z" fill="#275A67"/>
<path d="M8.81067 17.6699C10.0407 17.6699 11.2707 17.6699 12.5007 17.6699C12.7507 17.6699 13.0607 17.69 13.2207 17.84C13.3807 18 13.4907 18.3299 13.4507 18.5599C13.3907 18.9099 13.0907 19.0599 12.7107 19.0599C11.3507 19.0399 10.0007 19.04 8.64069 19.03C8.49069 19.03 8.3307 19.03 8.1807 19.03C7.7507 19.04 7.54069 18.79 7.51069 18.41C7.47069 18.01 7.68067 17.7499 8.09067 17.6899C8.33067 17.6599 8.57067 17.6899 8.81067 17.6899V17.6699Z" fill="#275A67"/>
<path d="M39.8796 17.67C40.5996 17.67 41.3196 17.67 42.0496 17.67C42.5596 17.67 42.8596 17.93 42.8596 18.33C42.8596 18.73 42.4996 19.05 42.0196 19.05C40.5696 19.05 39.1296 19.05 37.6796 19.05C37.1496 19.05 36.8496 18.79 36.8496 18.35C36.8496 17.93 37.1396 17.68 37.6496 17.67C38.3896 17.66 39.1296 17.67 39.8696 17.67" fill="#275A67"/>
<path d="M22.3109 83.0297C22.0209 83.3197 21.7309 83.6097 21.4409 83.8897C21.3309 83.8197 21.2009 83.7597 21.1009 83.6797C20.5809 83.2797 20.0309 83.0197 19.3609 82.9997C18.7309 82.9797 18.4409 82.6997 18.4709 82.2397C18.5009 81.7797 18.8109 81.5797 19.4509 81.5897C20.5109 81.6197 21.4109 82.0597 22.1809 82.7597C22.2509 82.8197 22.2709 82.9297 22.3109 83.0197" fill="#275A67"/>
<path d="M3.7793 19.06C3.4193 19.06 3.05931 19.07 2.69931 19.06C2.27931 19.04 2.0293 18.8 2.0293 18.38C2.0293 17.94 2.27931 17.71 2.69931 17.7C3.44931 17.68 4.20932 17.69 4.95932 17.7C5.39932 17.7 5.62931 17.99 5.60931 18.4C5.58931 18.81 5.3493 19.07 4.9093 19.07C4.5293 19.07 4.1593 19.07 3.7793 19.07" fill="#275A67"/>
<path d="M46.4996 19.0601C46.1396 19.0601 45.7796 19.0701 45.4196 19.0601C45.0096 19.0501 44.7696 18.8101 44.7796 18.4101C44.7796 18.0201 44.9296 17.6901 45.3996 17.6901C46.1596 17.6901 46.9096 17.6601 47.6696 17.6901C48.0896 17.7001 48.3396 17.9601 48.3296 18.3901C48.3196 18.8301 48.0696 19.0401 47.6296 19.0401C47.2496 19.0401 46.8696 19.0401 46.4996 19.0401V19.0701" fill="#275A67"/>
<path d="M25.2904 4.27978C25.0404 4.05978 24.7905 3.84976 24.5505 3.62976C24.5305 2.84976 24.4704 2.05978 24.5004 1.27978C24.5104 0.92978 24.8305 0.649783 25.1805 0.719783C25.4305 0.769783 25.8204 1.03974 25.8404 1.23974C25.9004 2.06974 25.8404 2.89974 25.8204 3.73974L25.3005 4.27978H25.2904Z" fill="#275A67"/>
<path d="M30.3401 9.33972C29.4501 8.44972 28.5502 7.55969 27.6602 6.67969C28.9202 7.19969 29.7901 8.10972 30.3401 9.33972Z" fill="#275A67"/>
<path d="M25.291 4.27979L25.831 4.90979L25.811 3.73975L25.291 4.27979Z" fill="#275A67"/>
</svg>
