<svg width="84" height="67" viewBox="0 0 84 67" fill="none" xmlns="http://www.w3.org/2000/svg">
<path d="M58.9218 41.3402H60.9918M52.7218 41.3402H54.7918M46.5218 41.3402H48.5918M40.3218 41.3402H42.3918M34.1218 41.3402H36.1918M27.9218 41.3402H29.9918M21.7218 41.3402H23.7918M15.5218 41.3402H17.5918M19.6618 16.4602V8.17017M15.5318 1.9502V16.4602M30.0018 20.6102V22.6802M25.8718 20.6102V22.6802M21.7418 20.6102V22.6802M17.6118 20.6102V22.6802M64.7918 49.6702L73.4218 28.9002H56.8818L50.6818 35.1202H9.3418V39.2702L12.9918 52.0702M13.4818 16.4602V35.1202H27.9518V26.8302H34.1518V16.4602H13.4818ZM63.0818 35.1202C63.0818 36.2602 62.1518 37.1902 61.0118 37.1902C59.8718 37.1902 58.9418 36.2602 58.9418 35.1202C58.9418 33.9802 59.8718 33.0502 61.0118 33.0502C62.1518 33.0502 63.0818 33.9802 63.0818 35.1202Z" stroke="#275A67" stroke-width="2.15" stroke-linecap="round" stroke-linejoin="round"/>
<path d="M74.2809 51.9199H82.2809C80.7409 48.3899 77.2309 45.9199 73.1309 45.9199C69.0309 45.9199 65.5209 48.3899 63.9809 51.9199H5.71094C3.50094 51.9199 1.71094 53.7099 1.71094 55.9199C1.71094 58.1299 3.50094 59.9199 5.71094 59.9199H63.9809C65.5209 63.4499 69.0409 65.9199 73.1309 65.9199C77.2209 65.9199 80.7409 63.4499 82.2809 59.9199H74.2809V51.9199Z" stroke="#275A67" stroke-width="2.08" stroke-linecap="round" stroke-linejoin="round"/>
</svg>
