<svg width="65" height="65" viewBox="0 0 65 65" fill="none" xmlns="http://www.w3.org/2000/svg">
<path d="M14.9403 32.3699H9.5304M14.9403 48.5099L19.0004 44.4799M14.9403 16.2399L19.0004 20.2699M50.1204 32.3699H55.5304M50.1204 48.5099L46.0603 44.4799M50.1204 16.2399L46.0603 20.2699M32.5304 49.8499V55.2299M32.5304 55.2299C30.2904 55.2299 28.4703 57.0399 28.4703 59.2599C28.4703 61.4799 30.2904 63.2899 32.5304 63.2899C34.7704 63.2899 36.5903 61.4899 36.5903 59.2599C36.5903 57.0399 34.7704 55.2299 32.5304 55.2299ZM32.5304 9.50992V14.8899M50.1304 32.3699C50.1304 42.0299 42.2504 49.8499 32.5404 49.8499C22.8304 49.8499 14.9503 42.0199 14.9503 32.3699C14.9503 22.7199 22.8304 14.8899 32.5404 14.8899C42.2504 14.8899 50.1304 22.7199 50.1304 32.3699ZM8.17029 51.1999C8.17029 53.4299 9.99035 55.2399 12.2303 55.2399C14.4703 55.2399 16.2904 53.4299 16.2904 51.1999C16.2904 48.9699 14.4703 47.1699 12.2303 47.1699C9.99035 47.1699 8.17029 48.9799 8.17029 51.1999ZM1.40039 32.3699C1.40039 34.5999 3.22033 36.3999 5.46033 36.3999C7.70033 36.3999 9.52039 34.5899 9.52039 32.3699C9.52039 30.1499 7.70033 28.3399 5.46033 28.3399C3.22033 28.3399 1.40039 30.1499 1.40039 32.3699ZM8.17029 13.5399C8.17029 15.7699 9.99035 17.5699 12.2303 17.5699C14.4703 17.5699 16.2904 15.7599 16.2904 13.5399C16.2904 11.3199 14.4703 9.50992 12.2303 9.50992C9.99035 9.50992 8.17029 11.3199 8.17029 13.5399ZM56.8904 51.1999C56.8904 53.4299 55.0703 55.2399 52.8303 55.2399C50.5903 55.2399 48.7704 53.4299 48.7704 51.1999C48.7704 48.9699 50.5903 47.1699 52.8303 47.1699C55.0703 47.1699 56.8904 48.9799 56.8904 51.1999ZM63.6604 32.3699C63.6604 34.5999 61.8403 36.3999 59.6003 36.3999C57.3603 36.3999 55.5404 34.5899 55.5404 32.3699C55.5404 30.1499 57.3603 28.3399 59.6003 28.3399C61.8403 28.3399 63.6604 30.1499 63.6604 32.3699ZM56.8904 13.5399C56.8904 15.7699 55.0703 17.5699 52.8303 17.5699C50.5903 17.5699 48.7704 15.7599 48.7704 13.5399C48.7704 11.3199 50.5903 9.50992 52.8303 9.50992C55.0703 9.50992 56.8904 11.3199 56.8904 13.5399ZM36.5903 5.46994C36.5903 7.69994 34.7704 9.49994 32.5304 9.49994C30.2904 9.49994 28.4703 7.68994 28.4703 5.46994C28.4703 3.24994 30.2904 1.43994 32.5304 1.43994C34.7704 1.43994 36.5903 3.24994 36.5903 5.46994Z" stroke="#275A67" stroke-width="2.38" stroke-miterlimit="10"/>
<path d="M41.0201 26.9498H42.17M38.7101 26.9498H39.8601M36.4001 26.9498H37.55M34.0901 26.9498H35.2401M34.3301 24.0698L35.8101 21.7598H40.1001L41.0001 24.0698H42.7301L45.0402 29.8398H24.8601L27.4501 26.9598H32.9301M29.4701 26.9598L32.6401 24.0798H36.9701M19.6602 39.9298L21.0302 38.7998C21.5702 38.3598 22.2802 38.3898 22.7902 38.8698L23.8301 39.8598C24.3501 40.3498 25.0801 40.3698 25.6201 39.9098L26.8701 38.8298C27.4001 38.3698 28.1001 38.3798 28.6201 38.8498L29.7902 39.8998C30.3202 40.3798 31.0501 40.3698 31.5801 39.8898L32.7001 38.8598C33.2201 38.3898 33.9201 38.3698 34.4501 38.8198L35.7401 39.9198C36.2801 40.3798 37.0102 40.3498 37.5302 39.8498L38.5201 38.8898C39.0301 38.3998 39.7402 38.3598 40.2802 38.7998L42.6301 40.6998M23.3501 36.6698L25.7902 34.7598C26.3402 34.3298 27.05 34.3798 27.55 34.8898L28.4601 35.7998C28.9701 36.3098 29.7001 36.3598 30.2501 35.8998L31.6201 34.7698C32.1601 34.3298 32.8701 34.3598 33.3801 34.8398L34.42 35.8298C34.94 36.3198 35.6701 36.3398 36.2101 35.8798L37.4601 34.7998C37.9801 34.3398 38.6901 34.3498 39.2101 34.8198L40.3801 35.8698C40.9101 36.3498 41.6402 36.3398 42.1602 35.8598L43.2802 34.8398C43.8002 34.3698 44.5002 34.3498 45.0302 34.7998L46.3201 35.8998M24.8901 35.6298C23.4501 33.1798 21.0001 32.9998 19.7001 29.8698H46.2201V33.3298L45.0701 35.0598" stroke="#275A67" stroke-width="1.43" stroke-linejoin="round"/>
</svg>
