<svg width="67" height="67" viewBox="0 0 67 67" fill="none" xmlns="http://www.w3.org/2000/svg">
<path d="M43.11 6.34987H55.72V3.91988L43.11 6.34987ZM57.08 7.69988H36.15L35.91 6.36989L36.5599 6.22988L57.08 2.2799V7.6899V7.69988ZM16.85 33.3699H28.39V26.1599L26.29 26.0499V21.8499L24.24 21.7399V10.8499H47.62L47.22 11.7899C47.1 12.0799 46.97 12.4799 47.08 12.7199C47.21 13.0299 47.8 13.2599 48.37 13.4799L48.54 13.5499C50.06 14.1399 51.5799 14.7799 53.0499 15.3899C53.7599 15.6899 54.4699 15.9899 55.1899 16.2799C55.5599 16.4299 55.94 16.5799 56.34 16.7399L55.59 10.7399H65.35V7.78988H58.0499V5.63988C58.0499 4.57988 58.0499 3.56988 58.0499 2.54988C58.0499 1.60988 57.92 1.42989 57.88 1.39989C57.84 1.36989 57.63 1.2799 56.62 1.4699C48.12 3.1099 39.61 4.73988 31.04 6.38988L23.26 7.8799V21.7299L21.1 21.8499V26.2099H16.85V33.3799V33.3699ZM29.75 34.7199H15.5V24.8599H19.75V20.5799L21.91 20.4599V6.76989L30.79 5.05989C39.36 3.40989 47.87 1.77988 56.37 0.139881C57.43 -0.0701188 58.2 -0.100127 58.75 0.349873C59.3 0.799873 59.41 1.54988 59.41 2.53988C59.41 3.54988 59.41 4.5699 59.41 5.6299V6.42989H66.7V12.0799H57.12L57.96 18.8299L56.89 18.4099C56.61 18.2999 56.34 18.1899 56.09 18.0899C55.57 17.8899 55.11 17.7099 54.65 17.5199C53.93 17.2199 53.22 16.9299 52.51 16.6299C51.05 16.0199 49.53 15.3799 48.03 14.7999L47.86 14.7399C47.06 14.4299 46.1599 14.0899 45.7999 13.2499C45.6699 12.9299 45.6199 12.5899 45.6699 12.1999H25.5699V20.4699L27.62 20.5799V24.7799L29.72 24.8899V34.7299L29.75 34.7199Z" fill="#275A67"/>
<path d="M60.2904 61.3896H62.0503V59.7296H60.2904V61.3896ZM63.4104 62.7396H58.9303V58.3896H63.4104V62.7396ZM40.7904 61.4196H42.4603V59.6696H40.7904V61.4196ZM43.8203 62.7696H39.4303V58.3196H43.8203V62.7696ZM53.8303 61.4296H55.5104V59.6796H53.8303V61.4296ZM56.8704 62.7796H52.4703V58.3296H56.8704V62.7796ZM47.2704 61.4296H48.9904V59.7096H47.2704V61.4296ZM50.3403 62.7796H45.9104V58.3696H50.3403V62.7796ZM37.5104 64.6896H65.3303V56.4696H37.5104V64.6896ZM66.6903 66.0396H36.1504V55.1196H66.6903V66.0396Z" fill="#275A67"/>
<path d="M10.9904 59.3701C12.3904 59.3701 13.7704 60.0101 15.5404 61.2801C15.9404 61.5701 16.1903 61.5901 16.8203 61.1501C17.6003 60.6001 18.5403 59.9901 19.5703 59.6501C21.8603 58.9001 23.7503 59.78 25.2203 60.85L29.4703 52.1501H3.0304L7.05029 60.8101C8.55029 59.8601 9.78035 59.3801 10.9803 59.3801M25.6903 62.9601L25.0204 62.42C23.1004 60.85 21.5904 60.4101 19.9904 60.9401C19.1304 61.2201 18.3003 61.77 17.6003 62.26C16.8903 62.77 15.9103 63.24 14.7303 62.39C11.6703 60.19 10.3204 60.1801 7.14038 62.3701L6.48035 62.83L0.900391 50.8101H31.6304L25.6903 62.9701V62.9601Z" fill="#275A67"/>
<path d="M45.0812 42.3397L61.6012 50.9697L59.3112 36.1497L45.0912 42.3297L45.0812 42.3397ZM63.3512 53.4097L41.9512 42.2297L60.3812 34.2197L63.3512 53.4197V53.4097Z" fill="#275A67"/>
<path d="M40.791 53.8097H59.5709L42.1909 44.7197L40.791 53.8097ZM61.8409 55.1597H39.2109L41.141 42.6396L62.621 53.8697L62.4409 55.1497H61.851L61.8409 55.1597Z" fill="#275A67"/>
<path d="M44.6912 28.56L43.0012 39.49L55.6312 33.99L44.6912 28.56ZM41.2812 41.71L43.6312 26.52L58.8212 34.07L41.2812 41.71Z" fill="#275A67"/>
<path d="M8.20117 46.3598H9.87122V44.6098H8.20117V46.3598ZM11.2312 47.7098H6.84119V43.2598H11.2312V47.7098ZM4.89124 49.5998H13.1613V41.3798H4.89124V49.5998ZM14.5212 50.9498H3.53125V40.0298H14.5212V50.9498Z" fill="#275A67"/>
<path d="M47.2994 25.9997L58.5995 31.6197L56.9895 21.1797L47.2994 25.9997ZM60.3395 33.9897L44.2695 25.9897L58.0594 19.1396L60.3395 33.9897Z" fill="#275A67"/>
<path d="M1.61951 62.6599C1.73951 62.7299 1.85948 62.7999 1.96948 62.8699C2.43948 63.1499 2.87955 63.4099 3.28955 63.7399C4.97955 65.1299 6.91949 65.1299 8.59949 63.7499C10.4595 62.2199 11.5495 62.2299 13.4695 63.7899C15.0995 65.1199 17.0595 65.1199 18.6895 63.7899C20.6695 62.1899 21.6495 62.1899 23.6595 63.8099C25.1895 65.0399 27.1695 65.0799 28.6895 63.9199C29.1695 63.5599 29.6495 63.2399 30.1595 62.9099C30.2895 62.8299 30.4194 62.7399 30.5494 62.6599V61.8199C30.5494 61.8199 30.4594 61.8599 30.4194 61.8799C29.7194 62.1899 29.1195 62.4599 28.6195 62.8299C26.6995 64.2499 25.5795 64.2499 23.8495 62.8299C22.0695 61.3699 20.1995 61.3699 18.4495 62.8299C16.6995 64.2999 15.4495 64.2799 13.6595 62.7799C12.0395 61.4199 10.0895 61.3899 8.45947 62.7099C6.48947 64.2999 5.55951 64.3099 3.49951 62.7899C3.01951 62.4399 2.4295 62.1899 1.7395 61.8999C1.6995 61.8799 1.6595 61.8699 1.6095 61.8499V62.6699L1.61951 62.6599ZM5.95947 66.1499C4.74947 66.1499 3.52944 65.6999 2.42944 64.7899C2.09944 64.5199 1.71954 64.2999 1.27954 64.0299C1.05954 63.8999 0.819468 63.7599 0.579468 63.6099L0.269531 63.4099V59.7499L1.2395 60.2099C1.5895 60.3799 1.93954 60.5199 2.27954 60.6699C3.00954 60.9799 3.70946 61.2699 4.31946 61.7199C5.88946 62.8799 6.13951 62.8699 7.61951 61.6799C9.76951 59.9499 12.4294 59.9799 14.5494 61.7699C15.8394 62.8499 16.3495 62.8599 17.5895 61.8199C19.8395 59.9299 22.4495 59.9299 24.7295 61.8099C25.9795 62.8399 26.3795 62.8299 27.8195 61.7699C28.4395 61.3099 29.1295 60.9999 29.8695 60.6699C30.2095 60.5199 30.5694 60.3599 30.9294 60.1799L31.9095 59.6899V63.3999L31.6095 63.5999C31.3695 63.7599 31.1395 63.9099 30.9095 64.0599C30.4195 64.3799 29.9495 64.6799 29.5195 65.0099C27.4795 66.5699 24.8394 66.5199 22.8094 64.8799C21.2994 63.6599 21.0194 63.6599 19.5494 64.8599C17.4094 66.5899 14.7495 66.5899 12.6095 64.8599C11.1795 63.6999 10.8295 63.6999 9.45947 64.8199C8.35947 65.7199 7.15946 66.1699 5.94946 66.1699" fill="#275A67"/>
<path d="M46.5706 16.4598L45.5505 23.0298L53.2206 19.1998L46.5706 16.4498V16.4598ZM43.8105 25.4098L45.4906 14.5498L56.4806 19.0898L43.8105 25.4098Z" fill="#275A67"/>
</svg>
