<svg width="45" height="67" viewBox="0 0 45 67" fill="none" xmlns="http://www.w3.org/2000/svg">
<path d="M22.2706 14.9998C18.4306 14.9998 15.3005 18.2198 15.3005 22.1798C15.3005 26.1398 18.4206 29.3698 22.2706 29.3698C26.1206 29.3698 29.2406 26.1498 29.2406 22.1798C29.2406 18.2098 26.1206 14.9998 22.2706 14.9998ZM22.2706 30.8298C17.6506 30.8298 13.8906 26.9498 13.8906 22.1898C13.8906 17.4298 17.6506 13.5498 22.2706 13.5498C26.8906 13.5498 30.6506 17.4298 30.6506 22.1898C30.6506 26.9498 26.8906 30.8298 22.2706 30.8298Z" fill="#275A67"/>
<path d="M22.2705 26.8698C19.7605 26.8698 17.7305 24.7697 17.7305 22.1797C17.7305 21.7797 18.0504 21.4497 18.4404 21.4497C18.8304 21.4497 19.1505 21.7797 19.1505 22.1797C19.1505 23.9597 20.5505 25.4098 22.2805 25.4098C24.0105 25.4098 25.4105 23.9597 25.4105 22.1797C25.4105 20.3997 24.0105 18.9497 22.2805 18.9497C21.8905 18.9497 21.5704 18.6198 21.5704 18.2198C21.5704 17.8198 21.8905 17.4897 22.2805 17.4897C24.7805 17.4897 26.8204 19.5897 26.8204 22.1697C26.8204 24.7497 24.7805 26.8597 22.2805 26.8597" fill="#275A67"/>
<path d="M20.3905 5.63H24.1405V3.38998C24.1405 2.31998 23.3005 1.45999 22.2605 1.45999C21.2205 1.45999 20.3805 2.32998 20.3805 3.38998V5.63H20.3905ZM24.8505 7.09H19.6904C19.3004 7.09 18.9805 6.75999 18.9805 6.35999V3.38998C18.9805 1.51998 20.4505 0 22.2705 0C24.0905 0 25.5604 1.51998 25.5604 3.38998V6.35999C25.5604 6.75999 25.2405 7.09 24.8505 7.09Z" fill="#275A67"/>
<path d="M20.3907 11.2398V13.7698C21.6307 13.4698 22.9007 13.4698 24.1407 13.7698V11.2398H20.3907ZM24.8507 15.4798C24.7707 15.4798 24.6907 15.4698 24.6107 15.4398C23.0707 14.8698 21.4607 14.8698 19.9207 15.4398C19.7007 15.5198 19.4608 15.4898 19.2708 15.3498C19.0808 15.2098 18.9707 14.9898 18.9707 14.7498V10.5098C18.9707 10.1098 19.2907 9.77979 19.6807 9.77979H24.8407C25.2307 9.77979 25.5507 10.1098 25.5507 10.5098V14.7498C25.5507 14.9898 25.4407 15.2098 25.2507 15.3498C25.1307 15.4398 24.9907 15.4798 24.8407 15.4798" fill="#275A67"/>
<path d="M19.1698 7.08987C19.0798 7.08987 18.9999 7.16986 18.9999 7.25986V9.60986C18.9999 9.69986 19.0798 9.77988 19.1698 9.77988H25.3499C25.4399 9.77988 25.5199 9.69986 25.5199 9.60986V7.25986C25.5199 7.16986 25.4399 7.08987 25.3499 7.08987H19.1698ZM25.3499 11.2399H19.1698C18.2998 11.2399 17.5898 10.5099 17.5898 9.60986V7.25986C17.5898 6.35986 18.2998 5.62988 19.1698 5.62988H25.3499C26.2199 5.62988 26.9298 6.35986 26.9298 7.25986V9.60986C26.9298 10.5099 26.2199 11.2399 25.3499 11.2399Z" fill="#275A67"/>
<path d="M14.4514 44.2097C14.3514 44.2097 14.2515 44.1897 14.1615 44.1497C12.8115 43.5297 11.5214 42.7597 10.3214 41.8497C10.1014 41.6797 9.99138 41.3897 10.0514 41.1197L13.8915 22.0497C13.9715 21.6497 14.3414 21.3997 14.7314 21.4797C15.1114 21.5597 15.3615 21.9497 15.2815 22.3397L11.5315 40.9497C12.3115 41.5197 13.1314 42.0197 13.9814 42.4497L17.4914 28.6997C17.5914 28.3097 17.9714 28.0797 18.3514 28.1797C18.7314 28.2797 18.9514 28.6797 18.8514 29.0697L15.1315 43.6597C15.0815 43.8697 14.9415 44.0398 14.7515 44.1298C14.6515 44.1798 14.5514 44.1997 14.4414 44.1997" fill="#275A67"/>
<path d="M7.61091 60.4199L8.59089 63.5699L12.6109 47.8299C11.8509 47.4899 11.1009 47.0999 10.3809 46.6699L7.61091 60.4199ZM8.66096 66.8899C8.35096 66.8899 8.08091 66.6899 7.99091 66.3899L6.21088 60.6799C6.17088 60.5599 6.17086 60.4299 6.19086 60.3099L9.20087 45.3699C9.25087 45.1399 9.40092 44.9399 9.62092 44.8499C9.84092 44.7599 10.0809 44.7799 10.2709 44.8999C11.3609 45.6099 12.5309 46.2299 13.7209 46.7299C14.0509 46.8699 14.2309 47.2399 14.1409 47.5899L9.3509 66.3499C9.2709 66.6599 9.00086 66.8799 8.69086 66.8899H8.67084H8.66096Z" fill="#275A67"/>
<path d="M31.9297 47.8396L35.9497 63.5796L36.9297 60.4296L34.1598 46.6796C33.4398 47.1096 32.6897 47.4996 31.9297 47.8396ZM35.8798 66.8996C35.5498 66.8996 35.2797 66.6696 35.1997 66.3596L30.4098 47.5996C30.3198 47.2496 30.4997 46.8796 30.8297 46.7396C32.0197 46.2296 33.1798 45.6196 34.2798 44.9096C34.4798 44.7796 34.7197 44.7596 34.9297 44.8596C35.1397 44.9496 35.2998 45.1496 35.3498 45.3796L38.3598 60.3196C38.3898 60.4396 38.3797 60.5696 38.3397 60.6896L36.5597 66.3996C36.4597 66.6996 36.1898 66.8996 35.8898 66.8996" fill="#275A67"/>
<path d="M30.08 44.21C29.97 44.21 29.87 44.19 29.77 44.14C29.58 44.05 29.44 43.87 29.39 43.67L25.6699 29.08C25.5699 28.69 25.7999 28.29 26.1699 28.19C26.5499 28.09 26.93 28.32 27.03 28.71L30.54 42.46C31.39 42.02 32.21 41.52 32.99 40.96L29.24 22.35C29.16 21.96 29.41 21.57 29.79 21.49C30.17 21.41 30.55 21.66 30.63 22.06L34.47 41.13C34.53 41.41 34.4199 41.7 34.1999 41.86C33.0099 42.77 31.72 43.54 30.36 44.16C30.27 44.2 30.1699 44.22 30.0699 44.22" fill="#275A67"/>
<path d="M22.2713 49.93C15.5213 49.93 9.05133 46.97 4.52133 41.82C4.29133 41.56 4.27128 41.18 4.47128 40.9L6.84128 37.58C6.97128 37.4 7.17132 37.29 7.39132 37.28C7.61132 37.28 7.81126 37.37 7.95126 37.54C11.5113 41.93 16.7313 44.45 22.2713 44.45C27.8113 44.45 33.0313 41.93 36.5913 37.54C36.7313 37.37 36.9213 37.27 37.1513 37.28C37.3713 37.28 37.5713 37.4 37.7013 37.58L40.0713 40.9C40.2713 41.18 40.2513 41.57 40.0213 41.82C37.1913 45.03 33.5913 47.43 29.6113 48.75C29.2413 48.87 28.8413 48.66 28.7213 48.28C28.6013 47.9 28.8112 47.49 29.1812 47.36C32.7512 46.18 35.9913 44.08 38.5913 41.27L37.0913 39.17C33.2813 43.46 27.9413 45.9 22.2813 45.9C16.6213 45.9 11.2713 43.46 7.46127 39.17L5.96127 41.27C10.2113 45.85 16.1213 48.47 22.2813 48.47C22.6713 48.47 22.9913 48.8 22.9913 49.2C22.9913 49.6 22.6713 49.93 22.2813 49.93" fill="#275A67"/>
<path d="M22.2706 49.9297C21.8806 49.9297 21.5605 49.5996 21.5605 49.1996C21.5605 48.7996 21.8806 48.4697 22.2706 48.4697C22.7306 48.4697 23.1906 48.4597 23.6406 48.4297C24.0206 48.4097 24.3606 48.7097 24.3906 49.1197C24.4106 49.5197 24.1206 49.8696 23.7306 49.8896C23.2506 49.9196 22.7606 49.9297 22.2806 49.9297" fill="#275A67"/>
<path d="M28.0413 49.1899C27.7213 49.1899 27.4413 48.9699 27.3613 48.6399C27.2613 48.2499 27.4913 47.8499 27.8713 47.7499C28.3113 47.6299 28.7512 47.4999 29.1912 47.3599C29.5612 47.2399 29.9613 47.4499 30.0813 47.8299C30.2013 48.2099 30.0013 48.6199 29.6213 48.7499C29.1613 48.8999 28.6913 49.0399 28.2213 49.1699C28.1613 49.1899 28.1012 49.1899 28.0512 49.1899" fill="#275A67"/>
<path d="M43.4806 66.8999H32.0206C31.6306 66.8999 31.3105 66.5699 31.3105 66.1699C31.3105 65.7699 31.6306 65.4399 32.0206 65.4399H43.4806C43.8706 65.4399 44.1906 65.7699 44.1906 66.1699C44.1906 66.5699 43.8706 66.8999 43.4806 66.8999Z" fill="#275A67"/>
<path d="M17.1005 66.8999H15.6904C15.3004 66.8999 14.9805 66.5699 14.9805 66.1699C14.9805 65.7699 15.3004 65.4399 15.6904 65.4399H17.1005C17.4905 65.4399 17.8104 65.7699 17.8104 66.1699C17.8104 66.5699 17.4905 66.8999 17.1005 66.8999Z" fill="#275A67"/>
<path d="M25.2108 66.8999H22.5109C22.1209 66.8999 21.8008 66.5699 21.8008 66.1699C21.8008 65.7699 22.1209 65.4399 22.5109 65.4399H25.2108C25.6008 65.4399 25.9208 65.7699 25.9208 66.1699C25.9208 66.5699 25.6008 66.8999 25.2108 66.8999Z" fill="#275A67"/>
<path d="M32.0302 66.8999H30.6201C30.2301 66.8999 29.9102 66.5699 29.9102 66.1699C29.9102 65.7699 30.2301 65.4399 30.6201 65.4399H32.0302C32.4202 65.4399 32.7401 65.7699 32.7401 66.1699C32.7401 66.5699 32.4202 66.8999 32.0302 66.8999Z" fill="#275A67"/>
<path d="M15.6898 66.8999H1.0498C0.659805 66.8999 0.339844 66.5699 0.339844 66.1699C0.339844 65.7699 0.659805 65.4399 1.0498 65.4399H15.6898" fill="#275A67"/>
</svg>
