<svg width="73" height="63" viewBox="0 0 73 63" fill="none" xmlns="http://www.w3.org/2000/svg">
<path d="M30.6198 55.66C28.3998 55.66 26.5997 53.85 26.5997 51.61C26.5997 49.37 28.3998 47.56 30.6198 47.56C32.8398 47.56 34.6398 49.38 34.6398 51.61C34.6398 53.84 32.8398 55.66 30.6198 55.66ZM30.6198 45.71C27.3898 45.71 24.7598 48.36 24.7598 51.61C24.7598 54.86 27.3898 57.5099 30.6198 57.5099C33.8498 57.5099 36.4797 54.86 36.4797 51.61C36.4797 48.36 33.8498 45.71 30.6198 45.71Z" fill="#275A67"/>
<path d="M64.4005 60.6297C60.8205 60.6297 57.9105 57.6997 57.9105 54.0997C57.9105 50.4997 60.8205 47.5697 64.4005 47.5697C67.9805 47.5697 70.8905 50.4997 70.8905 54.0997C70.8905 57.6997 67.9805 60.6297 64.4005 60.6297ZM40.6305 55.6597C41.1305 54.4097 41.4204 53.0497 41.4204 51.6197C41.4204 50.1897 41.1305 48.8297 40.6305 47.5697H48.9005C49.2505 47.5697 49.5705 47.3697 49.7205 47.0597L59.8004 26.6897H68.9805V47.1197C67.6605 46.2397 66.0805 45.7197 64.3905 45.7197C59.7905 45.7197 56.0604 49.4797 56.0604 54.1097C56.0604 54.6397 56.1205 55.1597 56.2205 55.6697H40.6305V55.6597ZM30.6205 60.6297C25.6805 60.6297 21.6605 56.5897 21.6605 51.6097C21.6605 46.6297 25.6805 42.5897 30.6205 42.5897C35.5605 42.5897 39.5804 46.6297 39.5804 51.6097C39.5804 56.5897 35.5605 60.6297 30.6205 60.6297ZM17.7104 55.6597V2.5697H21.5305V45.7797C20.4505 47.4697 19.8104 49.4697 19.8104 51.6197C19.8104 53.0497 20.1005 54.4097 20.6005 55.6597H17.7004H17.7104ZM51.4304 21.8297C49.4304 21.8297 47.7004 23.2597 47.3204 25.2397L44.8004 38.2697H40.1005C38.1805 38.2697 36.5605 39.6597 36.2505 41.5597L36.1305 42.3097C34.8805 41.5597 33.4805 41.0697 31.9705 40.8697L46.4404 8.02972H58.2405V25.6597L54.1205 33.9897V24.5397C54.1205 23.0397 52.9104 21.8197 51.4204 21.8197M37.7905 43.5497L38.0604 41.8597C38.2204 40.8497 39.0705 40.1297 40.0905 40.1297H45.5504C45.9904 40.1297 46.3704 39.8197 46.4604 39.3797L49.1305 25.5897C49.3405 24.4897 50.3104 23.6897 51.4304 23.6897C51.9004 23.6897 52.2805 24.0797 52.2805 24.5497V37.4497C52.2805 37.5197 52.3004 37.5797 52.3204 37.6397L48.3304 45.7097H39.6704C39.1504 44.8997 38.5104 44.1897 37.8004 43.5497M42.5905 2.55972H63.1804V24.7497C63.1804 24.7497 63.1904 24.7897 63.1904 24.8197H60.0804V7.0997C60.0804 6.5897 59.6705 6.16971 59.1605 6.16971H45.8405C45.4705 6.16971 45.1405 6.38973 45.0005 6.71973L29.9805 40.7897C28.7005 40.8697 27.4605 41.1297 26.3405 41.6197L42.5905 2.54971V2.55972ZM70.8304 48.8297V25.7497C70.8304 25.2397 70.4205 24.8197 69.9105 24.8197H65.0205C65.0205 24.8197 65.0305 24.7797 65.0305 24.7497V1.62973C65.0305 1.11973 64.6205 0.699707 64.1105 0.699707H41.9805C41.6105 0.699707 41.2705 0.919714 41.1305 1.26971L23.6105 43.3897C23.5305 43.4597 23.4505 43.5197 23.3705 43.5897V1.62973C23.3705 1.11973 22.9604 0.699707 22.4504 0.699707H16.7805C16.2705 0.699707 15.8605 1.10973 15.8605 1.62973V55.6497H1.90051C1.39051 55.6497 0.980469 56.0697 0.980469 56.5797C0.980469 57.0897 1.39051 57.5097 1.90051 57.5097H20.7305C21.0005 57.5097 21.2305 57.3897 21.4005 57.2097C23.3005 60.3597 26.7005 62.4797 30.6105 62.4797C34.5205 62.4797 37.7305 60.4897 39.6605 57.5097H56.7905C58.0905 60.4297 61.0005 62.4797 64.3905 62.4797C68.9805 62.4797 72.7205 58.7197 72.7205 54.0897C72.7205 52.0897 71.9904 50.2697 70.8204 48.8297" fill="#275A67"/>
<path d="M64.3898 56.8999C62.8498 56.8999 61.6097 55.6399 61.6097 54.0999C61.6097 52.5599 62.8598 51.2999 64.3898 51.2999C65.9198 51.2999 67.1697 52.5599 67.1697 54.0999C67.1697 55.6399 65.9198 56.8999 64.3898 56.8999ZM64.3898 49.4399C61.8398 49.4399 59.7598 51.5299 59.7598 54.0999C59.7598 56.6699 61.8398 58.7599 64.3898 58.7599C66.9398 58.7599 69.0198 56.6699 69.0198 54.0999C69.0198 51.5299 66.9398 49.4399 64.3898 49.4399Z" fill="#275A67"/>
<path d="M61.8203 32.6998H64.9203C65.4303 32.6998 65.8403 32.2798 65.8403 31.7698C65.8403 31.2598 65.4303 30.8398 64.9203 30.8398H61.8203C61.3103 30.8398 60.9004 31.2598 60.9004 31.7698C60.9004 32.2798 61.3103 32.6998 61.8203 32.6998Z" fill="#275A67"/>
</svg>
