<svg width="69" height="57" viewBox="0 0 69 57" fill="none" xmlns="http://www.w3.org/2000/svg">
<path d="M57.3313 54.8297V23.5697C57.3313 23.1097 56.9513 22.7297 56.4913 22.7297H11.8813C11.4213 22.7297 11.0414 23.1097 11.0414 23.5697V54.8297H6.22131V16.5097L34.1813 1.77969L62.1514 16.5097V54.8297H57.3313ZM35.0214 54.8297V44.8897H39.1514V46.3797C39.1514 46.8397 39.5313 47.2197 39.9913 47.2197C40.4513 47.2197 40.8313 46.8397 40.8313 46.3797V44.8897H44.9613V54.8297H35.0214ZM23.4014 44.8897H27.5314V46.3797C27.5314 46.8397 27.9113 47.2197 28.3713 47.2197C28.8313 47.2197 29.2113 46.8397 29.2113 46.3797V44.8897H33.3413V54.8297H23.4014V44.8897ZM34.1813 43.2097H29.2113V33.2697H33.3413V34.7597C33.3413 35.2197 33.7213 35.5997 34.1813 35.5997C34.6413 35.5997 35.0214 35.2197 35.0214 34.7597V33.2697H39.1514V43.2097H34.1813ZM55.6514 54.8297H46.6514V44.0497C46.6514 43.5897 46.2713 43.2097 45.8113 43.2097H40.8413V32.4297C40.8413 31.9697 40.4613 31.5897 40.0013 31.5897H28.3813C27.9213 31.5897 27.5414 31.9697 27.5414 32.4297V43.2097H22.5713C22.1113 43.2097 21.7313 43.5897 21.7313 44.0497V54.8297H12.7313V24.4097H55.6614V54.8297H55.6514ZM67.4114 54.8297H63.8313V15.9997C63.8313 15.6897 63.6613 15.3997 63.3813 15.2597L34.5713 0.0896875C34.3313 -0.0403125 34.0314 -0.0403125 33.7914 0.0896875L4.98132 15.2597C4.70132 15.4097 4.53137 15.6897 4.53137 15.9997V54.8297H0.951294C0.491294 54.8297 0.111328 55.2097 0.111328 55.6697C0.111328 56.1297 0.491294 56.5097 0.951294 56.5097H67.4014C67.8614 56.5097 68.2413 56.1297 68.2413 55.6697C68.2413 55.2097 67.8614 54.8297 67.4014 54.8297" fill="#275A67"/>
</svg>
