<svg width="52" height="69" viewBox="0 0 52 69" fill="none" xmlns="http://www.w3.org/2000/svg">
<path d="M45.242 44.2003V33.8903C45.242 33.4603 44.902 33.1203 44.472 33.1203H40.432V28.0903C40.432 27.6603 40.0921 27.3103 39.6621 27.3103H28.2821C27.8621 27.3103 27.5121 27.6603 27.5121 28.0903V33.1203H23.472C23.052 33.1203 22.702 33.4703 22.702 33.8903V43.6203L17.932 47.1803C17.672 47.3703 17.5621 47.7103 17.6521 48.0203L21.612 61.8603C21.672 62.0703 21.8121 62.2403 22.0021 62.3403L33.0121 68.0303C33.1221 68.0903 33.242 68.1203 33.362 68.1203C33.432 68.1203 33.512 68.1103 33.582 68.0903C33.652 68.1103 33.7221 68.1203 33.7921 68.1203C33.9121 68.1203 34.0321 68.0903 34.1421 68.0303L45.1521 62.3403C45.3421 62.2403 45.4821 62.0703 45.5421 61.8603L49.5021 48.0203C49.5921 47.7103 49.482 47.3803 49.222 47.1803L45.232 44.2003H45.242ZM23.0121 61.1103L20.352 51.8203L33.372 42.0303V66.4703L23.0021 61.1203L23.0121 61.1103ZM19.2921 48.1103L33.372 37.5803V40.1003C33.372 40.1003 33.3121 40.1303 33.2821 40.1503L19.8921 50.2203L19.2821 48.1003L19.2921 48.1103ZM38.9021 33.1203H29.062V28.8603H38.9021V33.1203ZM43.712 34.6703V43.0603L34.2721 36.0003C34.0821 35.8603 33.832 35.8203 33.602 35.8803C33.382 35.8103 33.122 35.8503 32.922 36.0003L24.2521 42.4803V34.6703H43.712ZM34.582 66.0703V42.3303L46.8921 51.6103L44.172 61.1203L34.572 66.0803L34.582 66.0703ZM47.352 50.0203L34.582 40.4003V38.1703L47.8921 48.1203L47.352 50.0303V50.0203Z" fill="#275A67"/>
<path d="M17.6221 12.9402C19.1921 12.8802 20.6321 11.5003 21.3821 9.59027C21.5121 9.70027 21.6821 9.76025 21.8621 9.76025H31.092C31.222 9.76025 31.332 9.87024 31.332 10.0002V13.6702V13.6902C29.622 14.6802 28.472 16.5402 28.472 18.6702C28.472 19.7202 28.7521 20.7002 29.2421 21.5502L16.702 32.1802C16.542 32.3202 16.442 32.5103 16.432 32.7203C16.422 32.9303 16.4921 33.1402 16.6321 33.2902L20.8721 37.9802C20.8721 37.9802 20.922 38.0202 20.942 38.0402V39.5103C20.942 39.9403 21.282 40.2803 21.712 40.2803C22.142 40.2803 22.4821 39.9303 22.4821 39.5103V35.5303C22.4821 35.1003 22.142 34.7502 21.712 34.7502C21.282 34.7502 20.942 35.1003 20.942 35.5303V35.7603L18.302 32.8403L30.182 22.7703C31.212 23.7903 32.622 24.4202 34.172 24.4202C35.722 24.4202 37.1021 23.8002 38.1321 22.8002L49.972 32.8403L47.332 35.7603V35.5303C47.332 35.1003 46.992 34.7502 46.562 34.7502C46.132 34.7502 45.7921 35.1003 45.7921 35.5303V39.5103C45.7921 39.9403 46.132 40.2803 46.562 40.2803C46.992 40.2803 47.332 39.9303 47.332 39.5103V38.0402C47.332 38.0402 47.3821 38.0003 47.4021 37.9703L51.6421 33.2803C51.7821 33.1203 51.852 32.9203 51.842 32.7103C51.832 32.5003 51.732 32.3102 51.572 32.1702L39.082 21.5803C39.582 20.7203 39.8821 19.7302 39.8821 18.6602C39.8821 16.5502 38.742 14.7003 37.052 13.7003V8.69025C37.052 6.03025 34.9121 3.87024 32.2721 3.87024H21.8521C21.7021 3.87024 21.562 3.92023 21.442 3.99023C20.672 1.92023 19.0321 0.490234 17.1421 0.490234L5.58203 0.570251C5.52203 0.570251 5.46211 0.570251 5.41211 0.570251C5.33211 0.570251 5.25211 0.570261 5.16211 0.580261H4.39209C4.18209 0.580261 3.98204 0.680251 3.84204 0.820251C3.11204 1.06025 2.43207 1.47022 1.87207 2.04022C0.93207 2.99022 0.412109 4.25022 0.412109 5.60022V65.2003C0.412109 65.6303 0.752007 65.9703 1.18201 65.9703C1.61201 65.9703 1.95203 65.6203 1.95203 65.2003V5.60022C1.95203 4.67022 2.31204 3.79026 2.96204 3.14026C3.61204 2.48026 4.4821 2.12024 5.4021 2.12024C7.3021 2.12024 8.85205 3.69022 8.85205 5.60022V65.1802C8.85205 65.6102 9.19207 65.9503 9.62207 65.9503C10.0521 65.9503 10.3921 65.6002 10.3921 65.1802V13.0703H10.682L17.6021 12.9302L17.6221 12.9402ZM34.182 22.8802C31.882 22.8802 30.0121 20.9902 30.0121 18.6802C30.0121 16.3702 31.882 14.4703 34.182 14.4703C36.482 14.4703 38.3521 16.3602 38.3521 18.6802C38.3521 21.0002 36.482 22.8802 34.182 22.8802ZM21.8721 5.44025H32.2921C34.0821 5.44025 35.5321 6.91027 35.5321 8.71027V12.9902L34.8921 12.9703C34.6621 12.9403 34.432 12.9202 34.192 12.9202C34.062 12.9202 33.932 12.9302 33.812 12.9402L32.8921 12.9202V10.0103C32.8921 9.02025 32.0921 8.22028 31.1221 8.22028H21.8921C21.8921 8.22028 21.832 8.22028 21.802 8.22028C21.832 8.05028 21.8621 7.87025 21.8921 7.69025C21.9321 7.36025 21.962 7.03025 21.962 6.69025C21.962 6.35025 21.9321 6.02025 21.8921 5.69025C21.8821 5.60025 21.8721 5.52024 21.8621 5.43024C21.8721 5.43024 21.8821 5.43024 21.8921 5.43024M10.432 11.5303V5.61023C10.432 4.25023 9.89209 3.02023 9.02209 2.11023L17.182 2.05023C18.972 2.05023 20.422 4.13024 20.422 6.68024C20.422 9.23024 18.9021 11.3302 17.6021 11.3802L10.702 11.5203H10.422L10.432 11.5303Z" fill="#275A67"/>
<path d="M5.58322 8.67031C6.10322 8.67031 6.62328 8.47034 7.01328 8.07034C7.80328 7.27034 7.80328 5.97032 7.01328 5.18032C6.22328 4.38032 4.93328 4.38032 4.14328 5.18032C3.35328 5.98032 3.35328 7.28034 4.14328 8.07034C4.54328 8.47034 5.06322 8.67031 5.58322 8.67031ZM5.23325 6.27035C5.33325 6.17035 5.45322 6.12032 5.58322 6.12032C5.71322 6.12032 5.8332 6.17035 5.9332 6.27035C6.1232 6.46035 6.1232 6.78036 5.9332 6.97036C5.7432 7.16036 5.42325 7.16036 5.23325 6.97036C5.04325 6.78036 5.04325 6.46035 5.23325 6.27035Z" fill="#275A67"/>
<path d="M18.7224 6.62018C18.7224 5.90018 18.4424 5.23021 17.9424 4.72021C17.4424 4.21021 16.7723 3.93018 16.0623 3.93018C15.3523 3.93018 14.6823 4.21021 14.1823 4.72021C13.1423 5.77021 13.1423 7.47019 14.1823 8.51019C14.6823 9.02019 15.3523 9.30017 16.0623 9.30017C16.7723 9.30017 17.4424 9.02019 17.9424 8.51019C18.4424 8.00019 18.7224 7.33017 18.7224 6.61017M16.8624 7.41016C16.4324 7.84016 15.6924 7.84016 15.2724 7.41016C14.8324 6.97016 14.8324 6.25018 15.2724 5.81018C15.6924 5.38018 16.4324 5.38018 16.8624 5.81018C17.0724 6.02018 17.1924 6.31017 17.1924 6.61017C17.1924 6.91017 17.0724 7.20016 16.8624 7.41016Z" fill="#275A67"/>
<path d="M34.1737 15.5701C32.4737 15.5701 31.0938 16.9601 31.0938 18.6801C31.0938 20.4001 32.4737 21.79 34.1737 21.79C35.8737 21.79 37.2538 20.4001 37.2538 18.6801C37.2538 16.9601 35.8737 15.5701 34.1737 15.5701ZM34.1737 20.23C33.3237 20.23 32.6238 19.53 32.6238 18.67C32.6238 17.81 33.3137 17.11 34.1737 17.11C35.0337 17.11 35.7238 17.81 35.7238 18.67C35.7238 19.53 35.0337 20.23 34.1737 20.23Z" fill="#275A67"/>
</svg>
