<svg width="51" height="51" viewBox="0 0 51 51" fill="none" xmlns="http://www.w3.org/2000/svg">
<path d="M43.6532 0.840088H7.20312C3.79312 0.840088 1.0332 3.61008 1.0332 7.02008V43.5601C1.0332 46.9801 3.79312 49.7401 7.20312 49.7401H43.6532C47.0632 49.7401 49.8231 46.9701 49.8231 43.5601V7.02008C49.8231 3.60008 47.0632 0.840088 43.6532 0.840088Z" stroke="#275A67" stroke-width="1.59" stroke-miterlimit="10"/>
<path d="M33.2521 9.3302H40.3621L28.9121 20.8102L29.9121 21.8102L41.3621 10.3302V17.4502L42.7721 18.8702V7.91016H31.842L33.2521 9.3302Z" fill="#275A67"/>
<path d="M17.6021 9.32019L19.0121 7.91016H8.08203V18.8702L9.49207 17.4502V10.3202L20.942 21.8102L21.942 20.8102L10.4921 9.32019H17.6021Z" fill="#275A67"/>
<path d="M41.3621 40.2703L29.9121 28.7903L28.9121 29.7903L40.3621 41.2703H33.2521L31.842 42.6903H42.7721V31.7303L41.3621 33.1403V40.2703Z" fill="#275A67"/>
<path d="M20.942 28.7903L9.49207 40.2703V33.1503L8.08203 31.7303V42.6903H19.0121L17.6021 41.2703H10.4921L21.942 29.7903L20.942 28.7903Z" fill="#275A67"/>
</svg>
