<svg width="66" height="64" viewBox="0 0 66 64" fill="none" xmlns="http://www.w3.org/2000/svg">
<path d="M63.3712 44.8299C63.0912 45.5899 62.2412 45.9799 61.4912 45.6999L22.1012 31.1099L19.7312 28.3199H23.0612L62.5012 42.9299C62.8712 43.0699 63.1612 43.3399 63.3212 43.6999C63.4812 44.0599 63.5012 44.4599 63.3712 44.8299ZM39.9012 39.4499L44.2312 41.0599L43.7212 43.4099L39.8912 39.4598L39.9012 39.4499ZM57.4312 56.9799H44.8412C43.3012 55.4899 39.8612 52.0799 39.2112 51.0799L29.8112 36.7399C30.1912 36.4199 30.6512 36.2698 31.1512 36.2198L36.2913 38.1299C36.3413 38.1799 36.4012 38.2199 36.4612 38.2699L43.6212 45.6599C43.8312 45.8799 44.1412 45.9599 44.4312 45.8799C44.7212 45.7999 44.9412 45.5599 45.0012 45.2599L45.7812 41.6498L58.7913 46.4698C58.3113 50.6598 57.7112 55.1499 57.4312 56.9999M29.4812 41.2999C28.6012 41.5999 27.6412 41.3698 26.9812 40.7098L25.9712 39.6899L26.0112 39.3998L28.6012 37.8799L30.5912 40.9199L29.4812 41.2899V41.2999ZM32.2712 44.6799C31.6812 44.8899 31.0412 44.7298 30.6012 44.2798L29.8312 43.6199L31.6613 42.5499L32.9113 44.4598L32.2812 44.6699L32.2712 44.6799ZM34.0012 46.1498L35.0812 47.7999L34.6613 47.9399C34.1213 48.1199 33.5613 47.9799 33.1613 47.5799L32.4312 47.0599L34.0012 46.1399V46.1498ZM2.18115 53.5199V1.72986H42.8512V23.8099L25.6711 24.3199C25.2611 24.3299 24.9112 24.6599 24.8812 25.0699C24.8812 25.0899 24.8112 26.1899 25.3612 27.4299L23.4912 26.7399C23.4012 26.7099 23.3012 26.6899 23.2112 26.6899H17.9612C17.6412 26.6899 17.3512 26.8799 17.2212 27.1699C17.0912 27.4599 17.1312 27.8099 17.3412 28.0499L21.0112 32.3599C21.1012 32.4699 21.2212 32.5499 21.3512 32.5999L28.9012 35.3998C28.6112 35.6198 28.3512 35.8898 28.1212 36.2098C28.1012 36.2298 28.1112 36.2598 28.1012 36.2798L25.1912 37.9899C24.7012 38.2799 24.3811 38.7698 24.3011 39.3398C24.2311 39.9098 24.4212 40.4599 24.8212 40.8599L25.8312 41.8799C26.5312 42.5799 27.4312 42.9699 28.3712 43.0499C28.3312 43.1599 28.2712 43.2499 28.2512 43.3699C28.1912 43.8599 28.3512 44.3399 28.6912 44.6899L29.4512 45.4598C29.9012 45.9098 30.4611 46.2098 31.0511 46.3398C30.9811 46.4798 30.9112 46.6198 30.8912 46.7798C30.8312 47.2498 30.9912 47.7199 31.3212 48.0599L32.0212 48.7699C32.6112 49.3699 33.3912 49.6899 34.2012 49.6899C34.5312 49.6899 34.8712 49.6298 35.1912 49.5298L36.0212 49.2499L37.8412 52.0399C38.0712 52.3899 38.5312 52.9299 39.1112 53.5599H2.19116L2.18115 53.5199ZM43.8312 34.2798L36.0112 31.3799C38.9012 31.5499 41.4713 31.5699 42.5413 31.5699L43.8312 34.2699V34.2798ZM56.8112 37.4799C57.3112 38.1199 57.6912 38.8199 58.0212 39.5399L46.0312 35.0999L43.7913 30.3998C43.6513 30.1098 43.2811 29.9099 43.0511 29.9299C42.9911 29.9299 36.2212 29.9899 30.9012 29.2699C27.5612 28.8199 26.7512 26.9899 26.5712 25.9399L44.0112 25.4199C46.0212 25.3499 47.9612 26.2699 49.2112 27.8499L56.8312 37.4799H56.8112ZM64.8011 43.0298C64.4511 42.2698 63.8312 41.6999 63.0612 41.4099L60.0612 40.2999C59.6412 38.9199 59.0012 37.6199 58.0812 36.4499L50.4612 26.8199C49.0112 24.9799 46.7912 23.8999 44.4812 23.8199V0.909851C44.4812 0.459851 44.1113 0.0898438 43.6613 0.0898438H1.3512C0.901196 0.0898438 0.53125 0.459851 0.53125 0.909851V54.3398C0.53125 54.7898 0.901196 55.1599 1.3512 55.1599H40.6613C41.3013 55.8099 41.9312 56.4399 42.4812 56.9899H41.1112C40.6612 56.9899 40.2913 57.3599 40.2913 57.8099V62.3899C40.2913 62.8399 40.6512 63.2098 41.1112 63.2098C41.5712 63.2098 41.9312 62.8399 41.9312 62.3899V58.6299H59.0212V62.3899C59.0212 62.8399 59.3912 63.2098 59.8412 63.2098C60.2912 63.2098 60.6613 62.8399 60.6613 62.3899V57.8099C60.6613 57.3599 60.2912 56.9899 59.8412 56.9899H59.0712C59.3812 54.9799 59.9212 50.8199 60.3612 47.0499L60.9211 47.2599C61.2711 47.3899 61.6312 47.4499 61.9812 47.4499C63.2412 47.4499 64.4312 46.6698 64.8912 45.4099C65.1812 44.6299 65.1411 43.7799 64.8011 43.0199" fill="#275A67"/>
<path d="M8.66956 14.6097H36.9496C37.3996 14.6097 37.7697 14.2397 37.7697 13.7897C37.7697 13.3397 37.3996 12.9697 36.9496 12.9697H8.66956C8.21956 12.9697 7.84961 13.3397 7.84961 13.7897C7.84961 14.2397 8.21956 14.6097 8.66956 14.6097Z" fill="#275A67"/>
<path d="M30.6796 19.5798C30.6796 19.1298 30.3096 18.7598 29.8596 18.7598H8.66956C8.21956 18.7598 7.84961 19.1298 7.84961 19.5798C7.84961 20.0298 8.21956 20.3997 8.66956 20.3997H29.8596C30.3096 20.3997 30.6796 20.0298 30.6796 19.5798Z" fill="#275A67"/>
</svg>
