<svg width="39" height="36" viewBox="0 0 39 36" fill="none" xmlns="http://www.w3.org/2000/svg">
<path d="M19.5495 10.77L0.849497 15.93C0.699497 15.97 0.579531 16.08 0.509531 16.22C0.439531 16.36 0.439531 16.53 0.509531 16.67L8.49952 34.07C8.61952 34.34 8.92952 34.45 9.18952 34.33C9.44952 34.21 9.55952 33.89 9.43952 33.62L1.70948 16.8L19.8095 11.81C20.0895 11.73 20.2495 11.44 20.1795 11.16C20.1095 10.88 19.8195 10.71 19.5395 10.79" fill="white"/>
<path d="M9.5285 7.19996V3.92997L19.8185 1.08998C20.0985 1.00998 20.2585 0.719982 20.1885 0.439982C20.1085 0.159982 19.8285 -0.0100129 19.5485 0.0699871L8.86853 3.00999C8.63853 3.06999 8.47852 3.27997 8.47852 3.51997V7.19996C8.47852 7.48996 8.70854 7.72996 8.99854 7.72996C9.28854 7.72996 9.51855 7.48996 9.51855 7.19996" fill="white"/>
<path d="M30.8585 34.06L38.8484 16.67C38.9184 16.53 38.9184 16.36 38.8484 16.22C38.7785 16.08 38.6585 15.97 38.5085 15.93L19.8085 10.77C19.6485 10.73 19.4885 10.77 19.3585 10.86C19.2285 10.96 19.1484 11.12 19.1484 11.28V28.51C19.1484 28.8 19.3785 29.04 19.6685 29.04C19.9585 29.04 20.1885 28.8 20.1885 28.51V11.97L37.6285 16.78L29.8984 33.6C29.7784 33.86 29.8984 34.18 30.1484 34.31C30.4084 34.43 30.7184 34.32 30.8384 34.05" fill="white"/>
<path d="M30.89 7.19996V3.51997C30.89 3.27997 30.73 3.06999 30.5 3.00999L19.82 0.0699871C19.54 -0.0100129 19.26 0.159982 19.18 0.439982C19.1 0.719982 19.27 1.00998 19.55 1.08998L29.8399 3.92997V7.19996C29.8399 7.48996 30.07 7.72996 30.36 7.72996C30.65 7.72996 30.88 7.48996 30.88 7.19996" fill="white"/>
<path d="M33.0197 14.65V7.20001C33.0197 7.06001 32.9596 6.92004 32.8696 6.82004C32.7796 6.72004 32.6396 6.66003 32.4996 6.66003H6.86963C6.72963 6.66003 6.59963 6.72004 6.49963 6.82004C6.39963 6.92004 6.34961 7.06001 6.34961 7.20001V14.65C6.34961 14.94 6.57963 15.18 6.86963 15.18C7.15963 15.18 7.38965 14.94 7.38965 14.65V7.73001H31.9796V14.65C31.9796 14.94 32.2096 15.18 32.4996 15.18C32.7896 15.18 33.0197 14.94 33.0197 14.65Z" fill="white"/>
<path d="M3.18014 21.22L16.1801 17.52C16.4601 17.44 16.6201 17.15 16.5401 16.86C16.4601 16.58 16.1801 16.41 15.9001 16.49L2.90011 20.19C2.62011 20.27 2.46013 20.56 2.54013 20.84C2.62013 21.12 2.90014 21.29 3.18014 21.21" fill="white"/>
<path d="M36.2693 20.2L23.2693 16.5C22.9893 16.42 22.6992 16.59 22.6292 16.87C22.5492 17.15 22.7192 17.45 22.9892 17.53L35.9892 21.23C36.2692 21.31 36.5492 21.14 36.6292 20.86C36.7092 20.58 36.5393 20.28 36.2693 20.21" fill="white"/>
<path d="M10.3089 21.62L10.3489 25.12C10.3489 25.41 10.5889 25.65 10.8789 25.65C11.1689 25.65 11.3989 25.41 11.3889 25.11L11.3489 21.61C11.3489 21.32 11.1089 21.08 10.8189 21.09C10.5289 21.09 10.2989 21.33 10.3089 21.63" fill="white"/>
<path d="M8.60947 24.4C8.67947 24.56 8.76948 24.7 8.86948 24.81C9.04948 25.01 9.26946 25.15 9.47946 25.25C9.79946 25.41 10.1195 25.5 10.3695 25.55C10.6195 25.61 10.7895 25.63 10.8095 25.63C11.0995 25.66 11.3495 25.45 11.3795 25.16C11.4095 24.87 11.2095 24.61 10.9195 24.57C10.9195 24.57 10.8295 24.56 10.6995 24.53C10.5095 24.49 10.2095 24.42 9.96945 24.31C9.84945 24.26 9.74947 24.19 9.66947 24.13C9.62947 24.1 9.60945 24.07 9.58945 24.04C9.56945 24.01 9.55947 23.99 9.54947 23.97C9.43947 23.7 9.12948 23.57 8.86948 23.69C8.59948 23.8 8.47945 24.11 8.58945 24.38" fill="white"/>
<path d="M12.1487 23.96C12.1487 23.96 12.1187 24.02 12.0887 24.06C12.0287 24.13 11.9187 24.21 11.7887 24.28C11.5887 24.39 11.3287 24.47 11.1287 24.52C11.0287 24.54 10.9487 24.56 10.8887 24.57C10.8587 24.57 10.8387 24.57 10.8187 24.58H10.7987C10.5187 24.62 10.3187 24.89 10.3487 25.18C10.3887 25.47 10.6487 25.67 10.9387 25.64C10.9487 25.64 11.0487 25.62 11.2087 25.59C11.4487 25.54 11.8087 25.44 12.1687 25.27C12.3487 25.18 12.5287 25.07 12.6987 24.93C12.7787 24.86 12.8587 24.77 12.9287 24.68C12.9987 24.58 13.0687 24.48 13.1087 24.35C13.2087 24.08 13.0787 23.77 12.8187 23.66C12.5587 23.55 12.2487 23.69 12.1487 23.96Z" fill="white"/>
<path d="M0.849676 34.53C1.15968 34.67 1.49971 34.84 1.88971 34.97C2.26971 35.1 2.69967 35.2 3.15967 35.2C3.61967 35.2 4.04969 35.1 4.42969 34.97C4.80969 34.84 5.15967 34.68 5.46967 34.53C5.77967 34.39 6.06968 34.25 6.34968 34.16C6.62968 34.07 6.90967 34.01 7.21967 34.01C7.52967 34.01 7.80967 34.07 8.08967 34.16C8.36967 34.25 8.65967 34.38 8.96967 34.53C9.29967 34.68 9.6597 34.8499 10.0597 34.9799C10.4597 35.11 10.9097 35.2 11.4197 35.2C11.9297 35.2 12.3797 35.11 12.7797 34.9799C13.1797 34.8499 13.5397 34.69 13.8697 34.53C14.1797 34.39 14.4697 34.25 14.7497 34.16C15.0297 34.07 15.3097 34.01 15.6197 34.01C15.9297 34.01 16.2097 34.06 16.4897 34.16C16.7697 34.25 17.0597 34.38 17.3697 34.53C17.6797 34.67 18.0197 34.84 18.4097 34.97C18.7897 35.1 19.2197 35.2 19.6797 35.2C20.1397 35.2 20.5697 35.1 20.9497 34.97C21.3297 34.84 21.6797 34.68 21.9897 34.53C22.2997 34.39 22.5897 34.25 22.8697 34.16C23.1497 34.07 23.4297 34.01 23.7397 34.01C24.0497 34.01 24.3297 34.07 24.6097 34.16C24.8897 34.25 25.1797 34.38 25.4897 34.53C25.8197 34.68 26.1697 34.8499 26.5797 34.9799C26.9797 35.11 27.4297 35.2 27.9397 35.2C28.4497 35.2 28.8997 35.11 29.2997 34.9799C29.6997 34.8499 30.0597 34.69 30.3897 34.53C30.6997 34.39 30.9897 34.25 31.2697 34.16C31.5497 34.07 31.8297 34.01 32.1397 34.01C32.4497 34.01 32.7297 34.06 33.0097 34.16C33.2897 34.25 33.5797 34.38 33.8897 34.53C34.1997 34.67 34.5397 34.84 34.9297 34.97C35.3097 35.1 35.7397 35.2 36.1997 35.2C36.6597 35.2 37.0897 35.1 37.4697 34.97C37.8497 34.84 38.1997 34.68 38.5097 34.53C38.7697 34.41 38.8897 34.09 38.7697 33.83C38.6497 33.56 38.3397 33.44 38.0797 33.57C37.7697 33.72 37.4597 33.86 37.1397 33.97C36.8297 34.08 36.5197 34.14 36.1997 34.14C35.8797 34.14 35.5697 34.07 35.2597 33.97C34.9497 33.86 34.6397 33.72 34.3197 33.57C34.0097 33.42 33.6797 33.28 33.3297 33.16C32.9697 33.04 32.5797 32.96 32.1397 32.96C31.6997 32.96 31.3097 33.04 30.9497 33.16C30.5897 33.28 30.2697 33.43 29.9597 33.57C29.6297 33.72 29.3197 33.87 28.9897 33.97C28.6597 34.07 28.3297 34.14 27.9397 34.14C27.5497 34.14 27.2197 34.07 26.8897 33.97C26.5597 33.87 26.2497 33.72 25.9197 33.57C25.6097 33.42 25.2797 33.28 24.9297 33.16C24.5697 33.04 24.1797 32.96 23.7397 32.96C23.2997 32.96 22.9097 33.04 22.5497 33.16C22.1897 33.28 21.8697 33.43 21.5597 33.57C21.2497 33.72 20.9397 33.86 20.6197 33.97C20.3097 34.08 19.9997 34.14 19.6797 34.14C19.3597 34.14 19.0497 34.07 18.7397 33.97C18.4297 33.86 18.1197 33.72 17.7997 33.57C17.4897 33.42 17.1597 33.28 16.8097 33.16C16.4497 33.04 16.0597 32.96 15.6197 32.96C15.1797 32.96 14.7897 33.04 14.4297 33.16C14.0697 33.28 13.7497 33.43 13.4397 33.57C13.1097 33.72 12.7897 33.87 12.4697 33.97C12.1497 34.07 11.8097 34.14 11.4197 34.14C11.0297 34.14 10.6997 34.07 10.3697 33.97C10.0497 33.87 9.72966 33.72 9.39966 33.57C9.08966 33.42 8.75967 33.28 8.40967 33.16C8.04967 33.04 7.65967 32.96 7.21967 32.96C6.77967 32.96 6.38967 33.04 6.02967 33.16C5.66967 33.28 5.34968 33.43 5.03968 33.57C4.72968 33.72 4.41968 33.86 4.09968 33.97C3.78968 34.08 3.47967 34.14 3.15967 34.14C2.83967 34.14 2.52967 34.07 2.21967 33.97C1.90967 33.86 1.59967 33.72 1.27967 33.57C1.01967 33.45 0.709666 33.57 0.589666 33.83C0.469666 34.1 0.589676 34.41 0.849676 34.53Z" fill="white"/>
</svg>
