<svg width="63" height="63" viewBox="0 0 63 63" fill="none" xmlns="http://www.w3.org/2000/svg">
<path d="M5.51883 35.0316L5.53886 35.1316H58.4231C58.0728 34.9816 57.9127 34.9116 57.7526 34.8416C49.4556 31.4516 41.1587 28.0716 32.8717 24.6516C32.2612 24.4016 31.7708 24.4216 31.1903 24.6516C25.5456 26.9516 19.8809 29.2316 14.2261 31.5216C11.3337 32.6916 8.43128 33.8616 5.52885 35.0216L5.51883 35.0316ZM61.0353 60.4016H62.3364V62.4216H1.29532V60.4316C1.69566 60.4116 2.10597 60.3916 2.57636 60.3716V37.3016H1.25525C1.25525 36.6716 1.21523 36.1016 1.27528 35.5416C1.2953 35.3616 1.57554 35.1416 1.7757 35.0616C5.50883 33.5416 9.25198 32.0316 12.9851 30.5216C18.89 28.1416 24.795 25.7516 30.6899 23.3616C30.83 23.3016 30.9702 23.2416 31.1803 23.1516C29.8192 22.4216 29.0185 21.3716 29.2086 19.8416C29.3888 18.3416 30.3396 17.4516 31.7808 17.0616C31.8008 16.8316 31.8309 16.6116 31.8509 16.3716H33.162C33.162 16.8716 33.182 17.3316 33.162 17.7816C33.1319 18.2416 32.8217 18.3916 32.3914 18.4116C31.4306 18.4716 30.76 19.0216 30.6299 19.8116C30.4597 20.7916 31.0502 21.7016 31.951 21.8716C32.9719 22.0716 33.8626 21.4716 34.0728 20.4516C34.0928 20.3616 34.0727 20.2716 34.0927 20.1916C34.1828 19.7516 34.4831 19.4716 34.8935 19.6316C35.1437 19.7316 35.4539 20.1216 35.4439 20.3716C35.4039 21.4816 34.8334 22.3316 33.8726 22.9016C33.6624 23.0216 33.4422 23.1216 33.152 23.2616C35.3838 24.1816 37.5556 25.0716 39.7275 25.9616C47.0336 28.9416 54.3297 31.9316 61.6358 34.8916C62.2163 35.1316 62.4765 35.4116 62.3965 36.0416C62.3464 36.4316 62.3965 36.8216 62.3965 37.2816H61.0453V60.3916L61.0353 60.4016Z" stroke="white" stroke-width="0.7" stroke-miterlimit="10"/>
<path d="M27.3477 6.0116H37.5862C37.5862 7.8016 37.6463 9.5516 37.5562 11.2916C37.5162 12.0916 36.9056 12.5816 36.155 12.7916C35.8848 12.8616 35.5946 12.8916 35.3143 12.8916C33.3927 12.8916 31.4711 12.9116 29.5495 12.8916C28.0783 12.8816 27.3477 12.0716 27.3477 10.5316C27.3477 9.05162 27.3477 7.5716 27.3477 6.0116Z" stroke="white" stroke-width="0.41" stroke-miterlimit="10"/>
<path d="M29.4688 13.4716H35.3137C35.2136 14.6216 34.6331 15.4815 33.7323 15.6015C32.9016 15.7115 32.0409 15.7215 31.2102 15.6015C30.2794 15.4715 29.749 14.6815 29.4688 13.4615V13.4716Z" stroke="white" stroke-width="0.3" stroke-miterlimit="10"/>
<path d="M29.569 3.69158C29.569 4.26158 29.5791 4.82155 29.569 5.38155C29.559 5.94155 29.2187 6.36155 28.4281 6.35155C27.6975 6.34155 27.3672 5.94157 27.3672 5.40157C27.3672 4.22157 27.3672 3.04156 27.3672 1.86156C27.3672 1.37156 27.6774 1.01156 28.398 0.98156C29.1787 0.95156 29.529 1.32157 29.569 1.83157C29.6191 2.44157 29.579 3.06157 29.579 3.68157L29.569 3.69158Z" stroke="white" stroke-width="0.41" stroke-miterlimit="10"/>
<path d="M37.5973 3.69155C37.5973 4.28155 37.5973 4.87154 37.5973 5.46154C37.5973 5.99154 37.237 6.32153 36.5664 6.35153C35.8058 6.38153 35.4355 6.01154 35.4255 5.46154C35.4155 4.25154 35.4155 3.04155 35.4255 1.84155C35.4255 1.34155 35.7658 0.991552 36.4964 1.00155C37.277 1.01155 37.5873 1.37152 37.5873 1.91152C37.5873 2.50152 37.5873 3.09154 37.5873 3.68154L37.5973 3.69155Z" stroke="white" stroke-width="0.41" stroke-miterlimit="10"/>
<path d="M35.5243 5.45157H29.5293C29.7895 4.23157 30.39 3.46156 31.2508 3.38156C32.0815 3.31156 32.9222 3.28156 33.7529 3.38156C34.6536 3.50156 35.2341 4.23159 35.5243 5.44159V5.45157Z" stroke="white" stroke-width="0.41" stroke-miterlimit="10"/>
<path d="M44.7719 48.7416C44.7719 45.5616 44.7719 42.3716 44.7719 39.1916C44.7719 38.7016 44.6518 38.2716 44.1313 38.2716C43.5709 38.2716 43.4107 38.7016 43.4307 39.2216C43.4307 39.2916 43.4307 39.3616 43.4307 39.4316C43.4307 45.6116 43.4307 51.8016 43.4307 57.9816C43.4307 58.2116 43.4107 58.4415 43.4708 58.6615C43.5909 59.1515 44.2014 59.3716 44.5117 59.0216C44.6818 58.8316 44.7519 58.5016 44.7619 58.2316C44.7819 55.0716 44.7719 51.9116 44.7719 48.7516M18.8502 48.6716V56.3116C18.8502 57.0216 18.8502 57.7216 18.8502 58.4216C18.8502 58.8516 19.0303 59.1315 19.4607 59.1615C19.921 59.1915 20.1413 58.9016 20.1913 58.4616C20.2013 58.3216 20.1913 58.1916 20.1913 58.0516C20.1913 51.8016 20.1913 45.5516 20.1913 39.3016C20.1913 38.7716 20.1012 38.2716 19.4907 38.2816C18.8702 38.2816 18.8401 38.8116 18.8401 39.3316C18.8401 42.4416 18.8401 45.5616 18.8401 48.6716M57.0521 48.6916C57.0521 45.5116 57.0521 42.3316 57.0521 39.1416C57.0521 38.6716 56.912 38.2816 56.4316 38.2716C55.9112 38.2516 55.7211 38.6516 55.7211 39.1516C55.7211 39.2416 55.7211 39.3316 55.7211 39.4216C55.7211 45.6516 55.7211 51.8815 55.7211 58.1015C55.7211 58.3215 55.701 58.6116 55.8211 58.7616C55.9813 58.9516 56.2715 59.1516 56.4917 59.1416C56.6818 59.1416 56.892 58.8516 57.0121 58.6416C57.0922 58.5116 57.0421 58.2915 57.0421 58.1015C57.0421 54.9615 57.0421 51.8316 57.0421 48.6916M50.897 48.6716C50.897 45.4916 50.897 42.3116 50.897 39.1216C50.897 38.6416 50.7269 38.2816 50.2464 38.2716C49.766 38.2616 49.5659 38.6216 49.5559 39.0916C49.5559 39.1816 49.5559 39.2716 49.5559 39.3616C49.5559 45.5716 49.5559 51.7716 49.5559 57.9816C49.5559 58.2316 49.5559 58.4916 49.6259 58.7216C49.7661 59.1716 50.3465 59.3516 50.6368 59.0116C50.8069 58.8216 50.877 58.4816 50.877 58.2116C50.897 55.0316 50.887 51.8415 50.887 48.6615M38.5967 48.6816C38.5967 45.5416 38.5967 42.4016 38.5967 39.2716C38.5967 38.7616 38.5167 38.2916 37.9562 38.2716C37.3557 38.2516 37.2456 38.7416 37.2456 39.2716C37.2456 45.5716 37.2456 51.8615 37.2456 58.1615C37.2456 58.6515 37.2856 59.1316 37.8861 59.1516C38.5367 59.1716 38.5967 58.6815 38.5867 58.1615C38.5867 55.0015 38.5867 51.8416 38.5867 48.6816M24.9553 48.7416V51.2616C24.9553 53.6216 24.9553 55.9915 24.9553 58.3515C24.9553 58.8415 25.1454 59.1616 25.6458 59.1516C26.1162 59.1416 26.2864 58.8116 26.2964 58.3716C26.2964 58.3016 26.2964 58.2316 26.2964 58.1716C26.2964 51.9016 26.2964 45.6215 26.2964 39.3515C26.2964 39.1515 26.3364 38.8916 26.2364 38.7516C26.0762 38.5416 25.786 38.2616 25.5958 38.2816C25.3656 38.3216 25.1354 38.6216 24.9753 38.8616C24.8952 38.9816 24.9553 39.2116 24.9553 39.3916C24.9553 42.5016 24.9553 45.6216 24.9553 48.7316M12.665 48.7316V50.1615C12.665 52.8915 12.665 55.6216 12.665 58.3416C12.665 58.7916 12.8151 59.1216 13.2755 59.1416C13.7859 59.1716 13.9761 58.8316 13.9961 58.3616C13.9961 58.2516 13.9961 58.1316 13.9961 58.0216C13.9961 51.8116 13.9961 45.6116 13.9961 39.4016C13.9961 39.1716 14.0361 38.9016 13.9261 38.7416C13.7859 38.5216 13.4857 38.2416 13.3055 38.2716C13.0754 38.3116 12.8351 38.6015 12.695 38.8515C12.5949 39.0215 12.665 39.2916 12.665 39.5216C12.665 42.5916 12.665 45.6616 12.665 48.7316ZM6.51983 48.6716C6.51983 51.7616 6.51983 54.8516 6.51983 57.9416C6.51983 58.1716 6.45976 58.4316 6.55984 58.6116C6.65993 58.8216 6.90015 59.1015 7.0803 59.1015C7.30048 59.1115 7.61073 58.9216 7.75084 58.7216C7.87094 58.5516 7.85096 58.2416 7.85096 58.0016C7.85096 54.8616 7.85096 51.7316 7.85096 48.5916V39.5216C7.85096 39.3816 7.85096 39.2516 7.85096 39.1116C7.85096 38.6216 7.66078 38.2216 7.14035 38.2416C6.64994 38.2616 6.51983 38.6416 6.51983 39.1216C6.52984 42.3016 6.51983 45.4816 6.51983 48.6716ZM32.4516 48.7316C32.4516 45.6216 32.4516 42.5016 32.4516 39.3916C32.4516 39.1916 32.5216 38.9216 32.4215 38.7916C32.2514 38.5616 31.9912 38.2916 31.751 38.2716C31.5608 38.2616 31.2906 38.5616 31.1504 38.7916C31.0604 38.9416 31.1204 39.1916 31.1204 39.3916C31.1204 42.8016 31.1204 46.2116 31.1204 49.6216C31.1204 52.4816 31.1204 55.3516 31.1204 58.2116C31.1204 58.9116 31.4407 59.2516 31.9512 59.1216C32.4216 59.0016 32.4615 58.6216 32.4615 58.2116C32.4615 55.0516 32.4615 51.8916 32.4615 48.7316" fill="white"/>
</svg>
