<svg width="62" height="45" viewBox="0 0 62 45" fill="none" xmlns="http://www.w3.org/2000/svg">
<path d="M25.2687 15.5916H32.1444V9.52158H25.2687V15.5916ZM40.4114 9.58157H33.5356V15.6816H40.4114V9.58157ZM29.1619 8.12158H36.5281V2.07156H29.1619V8.12158ZM44.2146 17.0716H21.4855V24.0616C21.6657 23.9716 21.8158 23.9016 21.9659 23.8216C25.4588 21.9916 28.9518 20.1716 32.4447 18.3416C32.795 18.1616 33.1053 18.1216 33.4856 18.3216C36.9685 20.1416 40.4614 21.9416 43.9443 23.7416C44.0244 23.7816 44.1145 23.8016 44.2146 23.8316V17.0616V17.0716ZM42.7634 36.4316H23.0768C22.9367 38.7516 23.9076 40.5616 25.4889 42.1316C25.7091 42.0116 25.8992 41.9216 26.0793 41.8216C26.87 41.3816 27.6307 41.3616 28.3813 41.9216C28.7016 42.1616 29.0519 42.3516 29.3721 42.5816C29.7024 42.8116 30.0127 42.8316 30.363 42.6316C30.9134 42.3116 31.4839 42.0116 32.0343 41.7016C32.7249 41.3116 33.4155 41.3216 34.0861 41.7416C34.5564 42.0316 35.0369 42.3016 35.4973 42.6116C35.8676 42.8616 36.2078 42.8816 36.5982 42.6516C37.2087 42.2916 37.8292 41.9316 38.4797 41.6716C38.8701 41.5116 39.3305 41.4516 39.7408 41.4916C40.0511 41.5216 40.3413 41.7716 40.6716 41.9416C42.2729 40.4816 42.7733 38.5816 42.7333 36.4216M33.7058 34.9516C33.8059 34.9616 33.8659 34.9716 33.9159 34.9716C36.8884 34.9716 39.8509 34.9716 42.8234 34.9716C43.0936 34.9716 43.1837 34.8416 43.2738 34.6216C44.0845 32.7216 44.9052 30.8216 45.7158 28.9216C46.0361 28.1716 46.3564 27.4216 46.6866 26.6516C42.353 24.4116 38.0494 22.1916 33.7058 19.9416V34.9316V34.9516ZM18.9935 26.8716C20.2245 29.4816 21.4355 32.0416 22.6365 34.6116C22.7666 34.9016 22.9268 34.9916 23.247 34.9916C26.1294 34.9816 29.0118 34.9916 31.9042 34.9916C32.0443 34.9916 32.1745 34.9716 32.3246 34.9616V19.8916C27.8709 22.2316 23.4572 24.5416 19.0035 26.8716M37.4589 0.691589C37.7692 0.901589 37.8692 1.20158 37.8692 1.56158C37.8692 3.56158 37.8692 5.57156 37.8692 7.57156V8.14157H39.1603C39.7308 8.14157 40.3013 8.14157 40.8617 8.14157C41.4923 8.15157 41.7025 8.36159 41.7025 9.00159C41.7025 11.0616 41.7025 13.1216 41.7025 15.1816V15.6916H44.5448C45.2854 15.6916 45.4656 15.8716 45.4656 16.6216C45.4656 19.1816 45.4656 21.7316 45.4656 24.2916C45.4656 24.5916 45.5657 24.7416 45.8259 24.8716C46.4164 25.1516 46.9869 25.4616 47.5674 25.7616C48.1278 26.0516 48.2279 26.3016 47.9677 26.9016C46.9869 29.2416 45.9961 31.5716 45.0152 33.9116C44.9652 34.0316 44.9251 34.1516 44.8651 34.2616C44.3347 35.3416 44.0444 36.4516 44.0144 37.6816C43.9644 39.5416 43.2337 41.1716 41.9927 42.5716C41.9527 42.6116 41.9226 42.6616 41.9226 42.8316C42.1528 42.7916 42.4131 42.8116 42.6232 42.7116C43.2337 42.4216 43.8242 42.0816 44.4347 41.7616C45.1553 41.3916 45.866 41.3716 46.5766 41.8116C47.0269 42.0916 47.4873 42.3416 47.9277 42.6216C48.2279 42.8116 48.4981 42.8116 48.7984 42.6416C49.3689 42.3216 49.9494 42.0216 50.5199 41.7216C51.3105 41.3116 52.0511 41.3916 52.7517 41.9316C52.9719 42.1016 53.2021 42.2816 53.4122 42.4716C53.7125 42.7416 54.0027 42.8516 54.4131 42.6716C54.7634 42.5216 55.0236 42.7416 55.1537 43.0616C55.2838 43.3916 55.2238 43.6816 54.8835 43.8516C54.2329 44.1716 53.5924 44.1616 52.9919 43.7516C52.6716 43.5316 52.3814 43.2916 52.0912 43.0416C51.7609 42.7516 51.4406 42.7116 51.0503 42.9416C50.5098 43.2616 49.9494 43.5216 49.3989 43.8216C48.7284 44.1916 48.0678 44.1716 47.4172 43.7816C46.9468 43.5116 46.4864 43.2416 46.0361 42.9416C45.6958 42.7216 45.3955 42.7316 45.0452 42.9216C44.4748 43.2416 43.8943 43.5416 43.3138 43.8416C42.5732 44.2316 41.8526 44.2316 41.142 43.7716C40.6916 43.4816 40.2212 43.2116 39.7608 42.9216C39.4606 42.7316 39.1904 42.7316 38.8801 42.8916C38.2296 43.2416 37.579 43.5816 36.9285 43.9316C36.3179 44.2616 35.7074 44.2516 35.1069 43.9116C34.5765 43.6116 34.0361 43.3216 33.5156 43.0016C33.1753 42.7916 32.865 42.8016 32.5247 43.0016C31.9943 43.3116 31.4539 43.5916 30.9234 43.8916C30.2128 44.2816 29.5122 44.2716 28.8317 43.8116C28.4313 43.5416 28.021 43.2916 27.6307 43.0016C27.3605 42.8016 27.1202 42.8116 26.84 42.9516C26.1794 43.2916 25.5289 43.6216 24.8584 43.9416C24.1578 44.2816 23.4672 44.2716 22.7966 43.8316C22.2862 43.5016 21.7557 43.1916 21.2153 42.9116C21.0552 42.8316 20.7849 42.8116 20.6448 42.8916C19.8441 43.3416 19.0635 43.8416 18.2728 44.3216H17.332V43.3816C17.4521 43.2916 17.5623 43.1816 17.6924 43.1016C18.423 42.6616 19.1435 42.2216 19.8842 41.7916C20.5948 41.3716 21.3154 41.3816 22.026 41.8116C22.5164 42.1016 22.9768 42.4216 23.4772 42.6916C23.6874 42.8016 23.9476 42.7916 24.1878 42.8416C24.1878 42.6716 24.1678 42.6216 24.1278 42.5816C22.4764 40.7316 21.5956 38.6116 21.7657 36.1016C21.7757 35.9216 21.7057 35.7116 21.6257 35.5416C20.2745 32.6616 18.9134 29.7716 17.5623 26.8916C17.3221 26.3816 17.4021 26.1616 17.9025 25.9016C18.493 25.5916 19.0835 25.2816 19.684 24.9916C19.9843 24.8516 20.1044 24.6716 20.1044 24.3216C20.0844 21.7516 20.0944 19.1816 20.0944 16.6116C20.0944 15.8216 20.2845 15.6316 21.0752 15.6316C21.9959 15.6316 22.9167 15.6316 23.8875 15.6316V15.0916C23.8875 13.0716 23.8875 11.0616 23.8875 9.04156C23.8875 8.34157 24.0577 8.16156 24.7783 8.16156C25.619 8.16156 26.4597 8.16156 27.2904 8.16156C27.4405 8.16156 27.5906 8.15157 27.7708 8.14157V7.59158C27.7708 5.60158 27.7708 3.62156 27.7708 1.63156C27.7708 1.25156 27.8509 0.931578 28.1711 0.711578H37.4689L37.4589 0.691589Z" fill="white"/>
<path d="M61.0267 36.6516C60.7665 36.9216 60.4562 37.0016 60.0759 37.0016C55.6822 36.9916 51.2985 37.0016 46.9048 37.0016C46.5345 37.0016 46.2142 36.9516 46.0941 36.5416C45.944 36.0216 46.2543 35.6516 46.8548 35.6516C48.6863 35.6516 50.5178 35.6516 52.3494 35.6516C54.9215 35.6516 57.4937 35.6516 60.0658 35.6516C60.4662 35.6516 60.7865 35.7416 61.0167 36.0716V36.6716L61.0267 36.6516Z" fill="white"/>
<path d="M51.4004 22.8116H58.3963V16.6416H51.4004V22.8116ZM54.8934 15.2816C56.2245 15.2816 57.5656 15.2816 58.8967 15.2816C59.5573 15.2816 59.7774 15.4916 59.7774 16.1416C59.7774 18.5416 59.7774 20.9416 59.7774 23.3316C59.7774 23.9716 59.5773 24.1716 58.9367 24.1716C56.2545 24.1716 53.5722 24.1716 50.88 24.1716C50.2895 24.1716 50.0293 23.9016 50.0293 23.3016C50.0293 20.9016 50.0293 18.5016 50.0293 16.1116C50.0293 15.5016 50.2595 15.2816 50.89 15.2816C52.2211 15.2816 53.5622 15.2816 54.8934 15.2816Z" fill="white"/>
<path d="M58.4061 27.3816H51.4102V33.5016H58.4061V27.3816ZM54.8831 26.0016C56.2443 26.0016 57.6055 26.0016 58.9766 26.0016C59.5571 26.0016 59.7773 26.2116 59.7773 26.7916C59.7773 29.2216 59.7773 31.6416 59.7773 34.0716C59.7773 34.6716 59.5771 34.8616 58.9866 34.8616C56.2843 34.8616 53.5921 34.8616 50.8898 34.8616C50.2593 34.8616 50.0391 34.6416 50.0391 34.0316C50.0391 31.6316 50.0391 29.2316 50.0391 26.8316C50.0391 26.2016 50.2493 26.0016 50.8898 26.0016C52.2209 26.0016 53.562 26.0016 54.8932 26.0016" fill="white"/>
<path d="M51.4104 12.0916H58.4063V5.95154H51.4104V12.0916ZM54.9233 4.59155C56.2445 4.59155 57.5656 4.59155 58.8867 4.59155C59.6073 4.59155 59.7774 4.75155 59.7774 5.46155C59.7774 7.84155 59.7774 10.2315 59.7774 12.6115C59.7774 13.2615 59.5573 13.4716 58.9067 13.4716C56.2545 13.4716 53.5923 13.4716 50.94 13.4716C50.2895 13.4716 50.0293 13.2215 50.0293 12.5815C50.0293 10.2015 50.0293 7.81155 50.0293 5.43155C50.0293 4.80155 50.2294 4.60155 50.87 4.59155C52.2211 4.59155 53.5722 4.59155 54.9133 4.59155H54.9233Z" fill="white"/>
<path d="M28.3301 27.0416C28.8705 27.0416 29.2409 26.6816 29.2409 26.1416C29.2409 25.6116 28.8605 25.2216 28.3401 25.2316C27.8697 25.2316 27.4294 25.6916 27.4294 26.1716C27.4294 26.6616 27.8297 27.0416 28.3401 27.0416M30.602 26.1416C30.602 27.4116 29.6412 28.3916 28.3802 28.3916C27.1391 28.3916 26.0682 27.3316 26.0782 26.0916C26.0782 24.9016 27.1191 23.8916 28.3301 23.8816C29.5911 23.8816 30.592 24.8716 30.592 26.1416" fill="white"/>
<path d="M37.5493 25.2316C37.0288 25.2316 36.6385 25.6116 36.6285 26.1316C36.6285 26.6616 36.9888 27.0416 37.5292 27.0416C38.0697 27.0416 38.44 26.6916 38.44 26.1516C38.44 25.6116 38.0797 25.2316 37.5493 25.2316ZM37.5193 28.3916C36.2782 28.3916 35.2874 27.4016 35.2773 26.1516C35.2773 24.8916 36.2882 23.8816 37.5392 23.8816C38.7803 23.8816 39.7911 24.8816 39.7911 26.1116C39.7911 27.4316 38.8304 28.3916 37.5093 28.3916" fill="white"/>
<path d="M4.04914 5.41156C4.39944 5.41156 4.74971 5.41156 5.08999 5.41156C5.82061 5.41156 6.38108 5.01158 6.60127 4.31158C6.81145 3.69158 7.00159 3.06159 7.21177 2.44159C7.52203 1.50159 8.28268 0.941589 9.23348 0.941589C10.1042 0.941589 10.8648 1.46158 11.1651 2.27158C11.4053 2.93158 11.5954 3.60157 11.8356 4.26157C11.9157 4.49157 12.0658 4.71157 12.1959 4.92157C12.306 5.09157 12.316 5.24156 12.1959 5.35156C12.0658 5.46156 11.9057 5.44157 11.7656 5.30157C11.5354 5.06157 11.3853 4.76157 11.2852 4.45157C11.075 3.80157 10.8748 3.15157 10.6446 2.51157C10.4545 1.95157 10.0441 1.61159 9.46365 1.53159C8.86315 1.45159 8.34273 1.64158 7.98243 2.15158C7.89235 2.29158 7.82227 2.45156 7.77223 2.60156C7.56206 3.21156 7.36191 3.82159 7.17175 4.44159C6.88151 5.39159 6.04077 5.99159 5.06996 5.97159C4.33935 5.96159 3.59871 5.96158 2.8681 5.99158C2.2676 6.02158 1.77719 6.45157 1.61705 7.05157C1.44691 7.67157 1.57705 8.22156 2.08748 8.63156C2.61792 9.05156 3.17841 9.44157 3.72887 9.83157C4.63963 10.4816 4.91984 11.3516 4.57956 12.4116C4.37939 13.0216 4.17926 13.6216 3.9891 14.2316C3.77892 14.9016 3.98907 15.5316 4.52953 15.9316C5.07999 16.3316 5.74052 16.3316 6.32101 15.9316C6.86146 15.5516 7.40196 15.1516 7.9324 14.7616C8.75309 14.1616 9.68381 14.1616 10.5045 14.7616C11.065 15.1616 11.6155 15.5816 12.186 15.9716C13.0567 16.5616 14.2277 16.1216 14.4979 15.0916C14.568 14.8116 14.5479 14.5216 14.4578 14.2516C14.2476 13.6116 14.0375 12.9716 13.8373 12.3216C13.5371 11.3816 13.8173 10.5016 14.618 9.91156C15.1484 9.52156 15.6889 9.12158 16.2293 8.74158C17.1901 8.06158 17.02 6.77158 16.2293 6.24158C16.0592 6.13158 15.859 6.07159 15.6689 6.00159C15.4687 5.94159 15.3786 5.83156 15.4086 5.66156C15.4387 5.49156 15.5688 5.41159 15.7789 5.44159C16.5596 5.54159 17.2902 6.28157 17.4303 7.11157C17.5705 7.97157 17.2902 8.66158 16.5996 9.18158C16.0692 9.58158 15.5287 9.96156 14.9883 10.3516C14.3678 10.8016 14.1576 11.4316 14.3978 12.1516C14.608 12.8016 14.8382 13.4516 15.0283 14.1116C15.4387 15.4916 14.3878 16.8416 12.9566 16.8016C12.5062 16.7916 12.1159 16.6216 11.7456 16.3616C11.2352 15.9916 10.7347 15.6216 10.2243 15.2516C9.54373 14.7516 8.90318 14.7616 8.2126 15.2516C7.67215 15.6416 7.14172 16.0416 6.60127 16.4216C5.39025 17.2516 3.74886 16.6316 3.38856 15.2016C3.29848 14.8216 3.30853 14.4516 3.42863 14.0816C3.63881 13.4416 3.84898 12.7916 4.04914 12.1516C4.28935 11.4116 4.08915 10.7916 3.45862 10.3316C2.91817 9.93157 2.3677 9.55158 1.82725 9.15158C0.836423 8.41158 0.676303 7.07158 1.46697 6.12158C1.85729 5.65158 2.36773 5.41157 2.97824 5.39157C3.32853 5.38157 3.68883 5.39157 4.03913 5.39157L4.04914 5.41156Z" fill="white"/>
<path d="M4.04914 5.41156C4.39944 5.41156 4.74971 5.41156 5.08999 5.41156C5.82061 5.41156 6.38108 5.01158 6.60127 4.31158C6.81145 3.69158 7.00159 3.06159 7.21177 2.44159C7.52203 1.50159 8.28268 0.941589 9.23348 0.941589C10.1042 0.941589 10.8648 1.46158 11.1651 2.27158C11.4053 2.93158 11.5954 3.60157 11.8356 4.26157C11.9157 4.49157 12.0658 4.71157 12.1959 4.92157C12.306 5.09157 12.316 5.24156 12.1959 5.35156C12.0658 5.46156 11.9057 5.44157 11.7656 5.30157C11.5354 5.06157 11.3853 4.76157 11.2852 4.45157C11.075 3.80157 10.8748 3.15157 10.6446 2.51157C10.4545 1.95157 10.0441 1.61159 9.46365 1.53159C8.86315 1.45159 8.34273 1.64158 7.98243 2.15158C7.89236 2.29158 7.82227 2.45156 7.77223 2.60156C7.56206 3.21156 7.36191 3.82159 7.17175 4.44159C6.88151 5.39159 6.04077 5.99159 5.06996 5.97159C4.33935 5.96159 3.59871 5.96158 2.8681 5.99158C2.2676 6.02158 1.77719 6.45157 1.61705 7.05157C1.44691 7.67157 1.57705 8.22156 2.08748 8.63156C2.61792 9.05156 3.17841 9.44157 3.72887 9.83157C4.63963 10.4816 4.91984 11.3516 4.57956 12.4116C4.37939 13.0216 4.17926 13.6216 3.9891 14.2316C3.77892 14.9016 3.98907 15.5316 4.52953 15.9316C5.07999 16.3316 5.74052 16.3316 6.32101 15.9316C6.86146 15.5516 7.40196 15.1516 7.9324 14.7616C8.75309 14.1616 9.68381 14.1616 10.5045 14.7616C11.065 15.1616 11.6155 15.5816 12.186 15.9716C13.0567 16.5616 14.2277 16.1216 14.4979 15.0916C14.568 14.8116 14.5479 14.5216 14.4578 14.2516C14.2476 13.6116 14.0375 12.9716 13.8373 12.3216C13.5371 11.3816 13.8173 10.5016 14.618 9.91156C15.1484 9.52156 15.6889 9.12158 16.2293 8.74158C17.1901 8.06158 17.02 6.77158 16.2293 6.24158C16.0592 6.13158 15.859 6.07159 15.6689 6.00159C15.4687 5.94159 15.3786 5.83156 15.4086 5.66156C15.4387 5.49156 15.5688 5.41159 15.7789 5.44159C16.5596 5.54159 17.2902 6.28157 17.4303 7.11157C17.5705 7.97157 17.2902 8.66158 16.5996 9.18158C16.0692 9.58158 15.5287 9.96156 14.9883 10.3516C14.3678 10.8016 14.1576 11.4316 14.3978 12.1516C14.608 12.8016 14.8381 13.4516 15.0283 14.1116C15.4387 15.4916 14.3878 16.8416 12.9566 16.8016C12.5062 16.7916 12.1159 16.6216 11.7456 16.3616C11.2352 15.9916 10.7347 15.6216 10.2243 15.2516C9.54373 14.7516 8.90318 14.7616 8.2126 15.2516C7.67215 15.6416 7.14172 16.0416 6.60127 16.4216C5.39026 17.2516 3.74886 16.6316 3.38856 15.2016C3.29848 14.8216 3.30853 14.4516 3.42863 14.0816C3.63881 13.4416 3.84898 12.7916 4.04914 12.1516C4.28935 11.4116 4.08915 10.7916 3.45862 10.3316C2.91817 9.93157 2.3677 9.55158 1.82725 9.15158C0.836422 8.41158 0.676303 7.07158 1.46697 6.12158C1.85729 5.65158 2.36773 5.41157 2.97824 5.39157C3.32853 5.38157 3.68883 5.39157 4.03913 5.39157L4.04914 5.41156Z" stroke="white" stroke-width="0.7" stroke-miterlimit="10"/>
<path d="M6.36371 7.63156C6.36371 7.63156 6.36371 7.63158 6.36371 7.62158C6.16354 7.62158 5.95332 7.62158 5.75315 7.62158C5.42287 7.62158 5.17267 7.81158 5.07259 8.12158C4.9725 8.42158 5.05256 8.73158 5.31278 8.93158C5.62304 9.17158 5.95333 9.39156 6.26359 9.63156C6.73398 9.98156 6.91417 10.5216 6.74403 11.0916C6.63394 11.4516 6.51381 11.8016 6.40372 12.1616C6.29363 12.5216 6.37368 12.8216 6.64391 13.0216C6.91414 13.2216 7.24445 13.2116 7.55471 12.9916C7.85496 12.7816 8.14521 12.5616 8.43545 12.3516C8.94588 11.9916 9.49633 11.9916 9.99675 12.3516C10.307 12.5716 10.6072 12.7916 10.9075 13.0116C11.1877 13.2116 11.518 13.2116 11.7882 13.0216C12.0484 12.8316 12.1485 12.5216 12.0384 12.1816C11.9283 11.8216 11.8082 11.4716 11.6981 11.1116C11.518 10.5216 11.6981 9.98157 12.1985 9.61157C12.5088 9.38157 12.8191 9.16158 13.1194 8.93158C13.3896 8.73158 13.4697 8.43156 13.3696 8.13156C13.2595 7.81156 13.0093 7.63156 12.669 7.63156C12.2987 7.63156 11.9284 7.63156 11.5581 7.63156C10.9175 7.63156 10.4571 7.29158 10.2569 6.68158C10.1468 6.34158 10.0368 6.00156 9.92669 5.66156C9.80659 5.29156 9.55634 5.11157 9.20605 5.11157C8.86577 5.11157 8.62555 5.30156 8.50545 5.66156C8.38535 6.02156 8.27527 6.39159 8.14517 6.75159C7.97502 7.22159 7.65477 7.52156 7.16436 7.60156C6.89414 7.64156 6.62391 7.63158 6.35369 7.65158M6.35369 7.06158C6.54385 7.06158 6.73401 7.06158 6.92417 7.06158C7.27447 7.06158 7.51462 6.88156 7.62471 6.54156C7.74481 6.20156 7.84492 5.85157 7.96502 5.51157C8.16519 4.91157 8.63559 4.55157 9.22609 4.55157C9.80657 4.55157 10.277 4.91159 10.4771 5.50159C10.5872 5.84159 10.6973 6.19159 10.8174 6.53159C10.9375 6.88159 11.1777 7.05158 11.548 7.06158C11.9784 7.06158 12.4087 7.05158 12.8391 7.09158C13.4096 7.14158 13.7799 7.48158 13.9401 8.02158C14.1002 8.56158 13.94 9.02158 13.5096 9.37158C13.2094 9.61158 12.8991 9.82157 12.5889 10.0516C12.2286 10.3116 12.1385 10.5916 12.2686 11.0116C12.3787 11.3516 12.4888 11.6916 12.5989 12.0316C12.7791 12.6016 12.5989 13.1516 12.1285 13.4916C11.6581 13.8316 11.0876 13.8316 10.5972 13.4916C10.307 13.2816 10.0167 13.0716 9.72651 12.8616C9.36621 12.6016 9.07595 12.6016 8.71565 12.8616C8.42541 13.0716 8.13517 13.2816 7.84493 13.4916C7.04426 14.0416 6.00336 13.6416 5.8132 12.7016C5.77316 12.4916 5.80323 12.2616 5.85327 12.0516C5.94334 11.7016 6.07347 11.3616 6.18356 11.0216C6.31367 10.6116 6.22354 10.3216 5.87324 10.0716C5.59301 9.86156 5.30279 9.66157 5.02256 9.45157C4.55216 9.10157 4.36198 8.59158 4.5021 8.06158C4.64222 7.52158 5.0726 7.15156 5.65309 7.10156C5.88328 7.08156 6.1235 7.10156 6.35369 7.10156" fill="white"/>
<path d="M6.36345 7.63159C6.36345 7.63159 6.36345 7.63161 6.36345 7.62161C6.16329 7.62161 5.95306 7.62161 5.7529 7.62161C5.42262 7.62161 5.17242 7.81161 5.07233 8.12161C4.97225 8.42161 5.05231 8.73161 5.31252 8.93161C5.62278 9.17161 5.95307 9.39159 6.26333 9.63159C6.73373 9.98159 6.91392 10.5216 6.74378 11.0916C6.63368 11.4516 6.51356 11.8016 6.40347 12.1616C6.29337 12.5216 6.37343 12.8216 6.64366 13.0216C6.91388 13.2216 7.24419 13.2116 7.55445 12.9916C7.8547 12.7816 8.14495 12.5616 8.4352 12.3516C8.94562 11.9916 9.49608 11.9916 9.9965 12.3516C10.3068 12.5716 10.607 12.7916 10.9072 13.0116C11.1875 13.2116 11.5178 13.2116 11.788 13.0216C12.0482 12.8316 12.1483 12.5216 12.0382 12.1816C11.9281 11.8216 11.808 11.4716 11.6979 11.1116C11.5177 10.5216 11.6979 9.9816 12.1983 9.6116C12.5086 9.3816 12.8189 9.16161 13.1191 8.93161C13.3893 8.73161 13.4694 8.43159 13.3693 8.13159C13.2592 7.81159 13.009 7.63159 12.6687 7.63159C12.2984 7.63159 11.9281 7.63159 11.5578 7.63159C10.9173 7.63159 10.4568 7.29161 10.2567 6.68161C10.1466 6.34161 10.0365 6.00159 9.92643 5.66159C9.80633 5.29159 9.55609 5.1116 9.2058 5.1116C8.86551 5.1116 8.6253 5.30159 8.5052 5.66159C8.3851 6.02159 8.27502 6.39162 8.14491 6.75162C7.97477 7.22162 7.65452 7.52159 7.16411 7.60159C6.89389 7.64159 6.62366 7.63161 6.35344 7.65161L6.36345 7.63159ZM6.36345 7.0416C6.55361 7.0416 6.74378 7.0416 6.93394 7.0416C7.28423 7.0416 7.52438 6.86161 7.63448 6.52161C7.75458 6.18161 7.85469 5.83161 7.97479 5.49161C8.17496 4.89161 8.64536 4.53162 9.23585 4.53162C9.81634 4.53162 10.2867 4.8916 10.4869 5.4816C10.597 5.8216 10.7071 6.1716 10.8272 6.5116C10.9473 6.8616 11.1875 7.0316 11.5578 7.0416C11.9882 7.0416 12.4185 7.03159 12.8489 7.07159C13.4193 7.12159 13.7896 7.46162 13.9498 8.00162C14.1099 8.54162 13.9498 9.00159 13.5194 9.35159C13.2192 9.59159 12.9089 9.80162 12.5987 10.0316C12.2384 10.2916 12.1483 10.5716 12.2784 10.9916C12.3885 11.3316 12.4986 11.6716 12.6087 12.0116C12.7888 12.5816 12.6086 13.1316 12.1382 13.4716C11.6679 13.8116 11.0974 13.8116 10.607 13.4716C10.3168 13.2616 10.0265 13.0516 9.73627 12.8416C9.37597 12.5816 9.08572 12.5816 8.72542 12.8416C8.43517 13.0516 8.14494 13.2616 7.85469 13.4716C7.05402 14.0216 6.01312 13.6216 5.82296 12.6816C5.78293 12.4716 5.81299 12.2416 5.86303 12.0316C5.95311 11.6816 6.08318 11.3416 6.19327 11.0016C6.32338 10.5916 6.2333 10.3016 5.88301 10.0516C5.60278 9.84161 5.31256 9.64161 5.03232 9.43161C4.56193 9.08161 4.37175 8.5716 4.51187 8.0416C4.65198 7.5016 5.08237 7.1316 5.66285 7.0816C5.89305 7.0616 6.13326 7.0816 6.36345 7.0816V7.0416Z" stroke="white" stroke-width="0.7" stroke-miterlimit="10"/>
<path d="M4.85143 3.76157C4.79138 3.83157 4.74135 3.94159 4.67129 3.97159C4.60123 4.00159 4.48112 3.9816 4.41106 3.9416C4.32098 3.9016 4.2609 3.80157 4.19084 3.73157C3.82053 3.36157 3.44023 2.99158 3.07993 2.61158C3.01988 2.54158 2.95984 2.43157 2.96985 2.35157C2.96985 2.28157 3.04988 2.17159 3.11994 2.15159C3.20001 2.13159 3.34014 2.15157 3.39018 2.20157C3.85057 2.64157 4.30093 3.10159 4.75131 3.56159C4.79134 3.60159 4.81141 3.68157 4.86145 3.76157" fill="white"/>
<path d="M4.85143 3.76157C4.79138 3.83157 4.74135 3.94159 4.67129 3.97159C4.60123 4.00159 4.48112 3.9816 4.41106 3.9416C4.32098 3.9016 4.2609 3.80157 4.19084 3.73157C3.82053 3.36157 3.44023 2.99158 3.07993 2.61158C3.01988 2.54158 2.95984 2.43157 2.96985 2.35157C2.96985 2.28157 3.04988 2.17159 3.11994 2.15159C3.20001 2.13159 3.34014 2.15157 3.39018 2.20157C3.85057 2.64157 4.30093 3.10159 4.75131 3.56159C4.79134 3.60159 4.81141 3.68157 4.86145 3.76157H4.85143Z" stroke="white" stroke-width="0.7" stroke-miterlimit="10"/>
<path d="M15.1904 2.12158C15.4106 2.12158 15.5507 2.31158 15.4706 2.49158C15.4506 2.54158 15.4106 2.58158 15.3706 2.62158C14.9502 3.04158 14.5399 3.46158 14.1095 3.87158C14.0495 3.93158 13.9394 4.00158 13.8593 3.99158C13.7792 3.99158 13.6691 3.91158 13.6391 3.84158C13.6091 3.76158 13.6291 3.62158 13.6792 3.56158C14.1295 3.09158 14.5899 2.64158 15.0503 2.18158C15.0903 2.14158 15.1604 2.12157 15.1904 2.11157" fill="white"/>
<path d="M15.1904 2.12158C15.4106 2.12158 15.5507 2.31158 15.4706 2.49158C15.4506 2.54158 15.4106 2.58158 15.3706 2.62158C14.9502 3.04158 14.5399 3.46158 14.1095 3.87158C14.0495 3.93158 13.9394 4.00158 13.8593 3.99158C13.7792 3.99158 13.6691 3.91158 13.6391 3.84158C13.6091 3.76158 13.6291 3.62158 13.6792 3.56158C14.1295 3.09158 14.5899 2.64158 15.0503 2.18158C15.0903 2.14158 15.1604 2.12157 15.1904 2.11157V2.12158Z" stroke="white" stroke-width="0.7" stroke-miterlimit="10"/>
<path d="M2.69874 11.5615C2.69874 11.5615 2.58863 11.7015 2.49856 11.7315C1.99814 11.9015 1.48776 12.0515 0.987345 12.2015C0.827211 12.2515 0.687057 12.1815 0.637015 12.0515C0.586973 11.9115 0.657025 11.8015 0.817159 11.7415C1.31758 11.5815 1.818 11.4315 2.31842 11.2815C2.51858 11.2215 2.69874 11.3315 2.69874 11.5615Z" fill="white"/>
<path d="M2.69874 11.5615C2.69874 11.5615 2.58863 11.7015 2.49856 11.7315C1.99814 11.9015 1.48776 12.0515 0.987345 12.2015C0.827211 12.2515 0.687057 12.1815 0.637015 12.0515C0.586973 11.9115 0.657025 11.8015 0.817159 11.7415C1.31758 11.5815 1.818 11.4315 2.31842 11.2815C2.51858 11.2215 2.69874 11.3315 2.69874 11.5615Z" stroke="white" stroke-width="0.7" stroke-miterlimit="10"/>
<path d="M16.0291 11.2616C16.0291 11.2616 16.1092 11.2716 16.1492 11.2916C16.6296 11.4416 17.11 11.5916 17.6004 11.7416C17.7505 11.7916 17.8406 11.8716 17.8206 12.0216C17.8006 12.1716 17.6505 12.2616 17.4703 12.2116C16.9499 12.0616 16.4395 11.8916 15.929 11.7316C15.7989 11.6916 15.7288 11.5916 15.7588 11.4616C15.7889 11.3416 15.879 11.2816 16.0291 11.2716" fill="white"/>
<path d="M16.0291 11.2616C16.0291 11.2616 16.1092 11.2716 16.1492 11.2916C16.6296 11.4416 17.11 11.5916 17.6004 11.7416C17.7505 11.7916 17.8406 11.8716 17.8206 12.0216C17.8006 12.1716 17.6505 12.2616 17.4703 12.2116C16.9499 12.0616 16.4395 11.8916 15.929 11.7316C15.7989 11.6916 15.7288 11.5916 15.7588 11.4616C15.7889 11.3416 15.879 11.2816 16.0291 11.2716V11.2616Z" stroke="white" stroke-width="0.7" stroke-miterlimit="10"/>
<path d="M13.828 5.46155C13.938 5.46155 14.048 5.46155 14.168 5.46155C14.308 5.46155 14.408 5.55155 14.408 5.65155C14.408 5.75155 14.308 5.83154 14.168 5.83154C13.938 5.83154 13.708 5.83154 13.478 5.83154C13.338 5.83154 13.248 5.75155 13.248 5.65155C13.248 5.54155 13.338 5.47155 13.488 5.46155C13.548 5.46155 13.608 5.46155 13.668 5.46155H13.828Z" fill="white"/>
<path d="M13.828 5.46155C13.938 5.46155 14.048 5.46155 14.168 5.46155C14.308 5.46155 14.408 5.55155 14.408 5.65155C14.408 5.75155 14.308 5.83154 14.168 5.83154C13.938 5.83154 13.708 5.83154 13.478 5.83154C13.338 5.83154 13.248 5.75155 13.248 5.65155C13.248 5.54155 13.338 5.47155 13.488 5.46155C13.548 5.46155 13.608 5.46155 13.668 5.46155H13.828Z" stroke="white" stroke-width="0.7" stroke-miterlimit="10"/>
</svg>
