<svg width="51" height="51" viewBox="0 0 51 51" fill="none" xmlns="http://www.w3.org/2000/svg">
<path d="M25.4211 9.58157C23.7811 9.58157 22.4511 8.25157 22.4511 6.61157C22.4511 4.97157 23.7811 3.63156 25.4211 3.63156C27.0611 3.63156 28.3911 4.96157 28.3911 6.61157C28.3911 8.26157 27.0611 9.58157 25.4211 9.58157ZM41.3911 36.7416C42.1211 37.5616 42.6711 38.1616 43.2411 38.7716C43.0311 38.8716 42.7911 38.9916 42.5111 39.1216C42.2611 39.2416 41.9911 39.3916 41.6911 39.5316C41.3811 39.6616 41.0511 39.8016 40.6911 39.9416C39.9911 40.2416 39.2011 40.5816 38.3111 40.8716C37.8711 41.0216 37.4211 41.2016 36.9411 41.3516C36.4611 41.4916 35.9611 41.6316 35.4511 41.7816C35.2011 41.8516 34.9411 41.9316 34.6811 42.0116C34.4111 42.0616 34.1411 42.1216 33.8711 42.1716C33.3311 42.2916 32.7811 42.4116 32.2211 42.5416C31.9611 42.5716 31.7111 42.6116 31.4511 42.6516C31.0211 42.7116 30.6211 41.9816 30.5611 41.0116L28.5011 18.0416C28.4411 17.0716 29.1711 16.2316 30.1311 16.0916C31.4011 15.9116 32.4511 15.6716 33.2111 15.3816C33.6011 16.1816 34.4211 16.7416 35.3711 16.7416C36.7011 16.7416 37.7911 15.6616 37.7911 14.3316C37.7911 13.0016 36.7111 11.9116 35.3711 11.9116C34.4211 11.9116 33.6011 12.4716 33.2111 13.2716C32.4611 12.9816 31.4111 12.7416 30.1611 12.5616C29.2011 12.4216 29.1411 12.0116 29.8411 11.3516C31.1111 10.1716 31.9111 8.48157 31.9111 6.61157C31.9111 3.03157 29.0011 0.121582 25.4211 0.121582C21.8411 0.121582 18.9311 3.03157 18.9311 6.61157C18.9311 8.43157 19.6911 10.0816 20.9011 11.2616C21.6011 11.9416 21.5211 12.3516 20.5611 12.4616C19.3711 12.6016 18.3311 12.7916 17.5011 13.0216C17.0711 12.3516 16.3211 11.9016 15.4711 11.9016C14.1411 11.9016 13.0511 12.9816 13.0511 14.3216C13.0511 15.6616 14.1311 16.7316 15.4711 16.7316C16.3311 16.7316 17.0711 16.2816 17.5011 15.6116C18.3611 15.8516 19.4511 16.0516 20.7011 16.1916C21.6611 16.3016 22.4011 17.1216 22.3411 18.0916L20.2811 40.9916C20.2211 41.9616 19.6611 42.6716 19.0411 42.5616C18.6611 42.4916 18.2811 42.4316 17.9111 42.3716C17.3511 42.2416 16.8111 42.0816 16.2611 41.9716C15.9911 41.9116 15.7211 41.8516 15.4611 41.7816C15.2011 41.7016 14.9511 41.6216 14.7011 41.5416C14.1911 41.3816 13.7011 41.2116 13.2211 41.0816C12.7511 40.9216 12.3011 40.7316 11.8611 40.5616C11.4311 40.3916 10.9911 40.2416 10.6211 40.0816C10.2511 39.9116 9.8911 39.7516 9.5611 39.6016C9.2211 39.4516 8.91108 39.3116 8.61108 39.1916C8.30108 39.0416 8.00109 38.8616 7.74109 38.7316C7.72109 38.7216 7.70108 38.7016 7.67108 38.6916C8.22108 38.1116 8.74108 37.5316 9.45108 36.7416C5.93108 36.8216 4.00109 36.5916 0.121094 35.2516C0.951094 39.2716 1.6811 41.3216 3.7811 45.1816C4.2211 44.1716 4.54108 43.4316 4.89108 42.6816C4.91108 42.7016 4.9211 42.7016 4.9411 42.7216C5.1711 42.9216 5.4011 43.1416 5.6911 43.3816C6.0111 43.6116 6.37109 43.8716 6.74109 44.1416C7.12109 44.4116 7.53109 44.6916 7.96109 44.9916C8.39109 45.2916 8.8511 45.5216 9.34109 45.8016C9.82109 46.0716 10.3211 46.3716 10.8511 46.6416C11.3911 46.9016 11.9611 47.1416 12.5511 47.4016C12.8411 47.5316 13.1411 47.6616 13.4411 47.7916C13.7511 47.9016 14.0611 48.0116 14.3811 48.1216C15.0211 48.3516 15.6711 48.5616 16.3311 48.7716C17.6911 49.0816 19.0811 49.5016 20.5511 49.6616C22.0011 49.9116 23.5011 49.9516 24.9911 50.0416C26.4811 50.0016 27.9811 49.9816 29.4411 49.7716C30.9111 49.6616 32.3111 49.2716 33.6811 48.9916C34.3511 48.8016 35.0111 48.6016 35.6511 48.4016C35.9711 48.3016 36.2811 48.1916 36.6011 48.0916C36.9011 47.9716 37.2011 47.8416 37.5011 47.7216C38.0911 47.4716 38.6611 47.2416 39.2211 47.0116C39.7611 46.7416 40.2611 46.4616 40.7511 46.2016C41.2311 45.9316 41.7111 45.7016 42.1411 45.4316C42.5611 45.1516 42.9611 44.8816 43.3311 44.6316C43.7011 44.3816 44.0411 44.1416 44.3611 43.9216C44.6611 43.6816 44.9311 43.4416 45.1811 43.2416C45.4711 43.0016 45.7111 42.7916 45.9311 42.6116C46.2911 43.3916 46.6211 44.1516 47.0811 45.2016C49.1811 41.3416 49.9111 39.2916 50.7411 35.2716C46.8511 36.6016 44.9311 36.8416 41.4111 36.7616" fill="white"/>
</svg>
