<svg width="60" height="66" viewBox="0 0 60 66" fill="none" xmlns="http://www.w3.org/2000/svg">
<path d="M24.8289 1.09314H19.0488V17.1531H24.8289V1.09314Z" stroke="white" stroke-width="2.1"/>
<path d="M33.3979 17.3631H10.918V32.5631H33.3979V17.3631Z" stroke="white" stroke-width="2.1"/>
<path d="M2.24805 32.7731L11.9481 64.6731H47.1381L57.678 32.7731H2.24805Z" stroke="white" stroke-width="2.1"/>
<path d="M48.2791 46.2331H27.2891" stroke="white" stroke-width="2.1"/>
<path d="M47.629 50.4731H36.2891" stroke="white" stroke-width="2.1"/>
<path d="M11.6992 63.3031C11.6992 63.3031 15.9693 64.0831 17.6693 61.1131C17.6693 61.1131 22.7892 66.5831 27.0592 60.8031C27.0592 60.8031 32.8192 67.0631 36.8792 60.9631C36.8792 60.9631 41.7892 66.9031 46.2692 61.1231C46.2692 61.1231 46.2692 62.0631 47.7592 62.6831" stroke="white" stroke-width="1.4"/>
</svg>
