<svg width="56" height="41" viewBox="0 0 56 41" fill="none" xmlns="http://www.w3.org/2000/svg">
<path d="M54.3181 1.33313H1.49805V36.3231H54.3181V1.33313Z" stroke="white" stroke-width="1.68"/>
<path d="M51.4188 4.90314L43.3987 19.6132L39.3887 18.0532L32.0287 21.8431L27.1287 16.7131L21.9987 27.8632H1.71875" stroke="white" stroke-width="1.68"/>
<path d="M16.4903 20.9035C20.3228 19.999 22.6964 16.1588 21.7918 12.3263C20.8873 8.49386 17.0472 6.12029 13.2147 7.02484C9.38218 7.92939 7.00867 11.7695 7.91322 15.602C8.81777 19.4345 12.6579 21.8081 16.4903 20.9035Z" stroke="white" stroke-width="1.68"/>
<path d="M13.3084 4.34314C13.3084 4.34314 4.72844 6.04315 5.06844 14.7332L14.4185 14.0331L13.3084 4.33313V4.34314Z" stroke="white" stroke-width="1.68"/>
<path d="M2.2793 31.2031H53.8793" stroke="white" stroke-width="1.68"/>
<path d="M13.7188 39.9031H41.8787" stroke="white" stroke-width="1.68"/>
<path d="M23.7793 40.1132V36.4431" stroke="white" stroke-width="1.68"/>
<path d="M31.9297 40.1132V36.4431" stroke="white" stroke-width="1.68"/>
</svg>
