<svg width="60" height="56" viewBox="0 0 60 56" fill="none" xmlns="http://www.w3.org/2000/svg">
<path d="M8.46077 42.6232C8.44077 42.7432 8.42076 42.8231 8.42076 42.9031C8.42076 45.9431 8.42078 48.9831 8.41078 52.0131C8.41078 52.4631 8.62077 52.5231 8.99077 52.5231C11.3508 52.5231 13.7108 52.5031 16.0808 52.5231C16.5808 52.5231 16.6808 52.3131 16.6708 51.8831C16.6608 48.9931 16.6508 46.1031 16.6708 43.2131C16.6708 42.6731 16.4908 42.5432 15.9808 42.5432C13.6408 42.5632 11.3008 42.5532 8.96077 42.5632C8.80077 42.5632 8.63078 42.5932 8.47078 42.6132M26.0908 52.4731C26.3508 52.4931 26.5408 52.5131 26.7208 52.5131C28.9808 52.5131 31.2408 52.4931 33.5008 52.5231C34.0708 52.5231 34.2108 52.3532 34.2108 51.7932C34.1908 45.1832 34.1908 38.5631 34.2108 31.9531C34.2108 31.3931 34.0508 31.2232 33.5008 31.2332C31.2608 31.2632 29.0208 31.2332 26.7808 31.2432C26.5608 31.2432 26.3308 31.2732 26.0908 31.2932V52.4631V52.4731ZM51.7108 17.8431C51.5508 17.8031 51.4908 17.7731 51.4308 17.7731C48.9608 17.7731 46.4908 17.7731 44.0208 17.7631C43.5108 17.7631 43.5708 18.0831 43.5708 18.3931C43.5708 29.5431 43.5708 40.6931 43.5708 51.8431C43.5708 52.3631 43.7208 52.5431 44.2508 52.5331C46.5108 52.5031 48.7708 52.5031 51.0308 52.5331C51.5908 52.5331 51.7408 52.3732 51.7308 51.8132C51.7108 40.7432 51.7208 29.6832 51.7208 18.6132V17.8331L51.7108 17.8431ZM19.1908 52.5131C20.5808 52.5131 21.9108 52.5332 23.2308 52.4832C23.3408 52.4832 23.5308 52.0832 23.5308 51.8732C23.5508 48.4932 23.5408 45.1132 23.5408 41.7332C23.5408 37.9332 23.5408 34.1231 23.5408 30.3231C23.5408 29.1131 23.9308 28.7332 25.1408 28.7332C28.4608 28.7332 31.7708 28.7332 35.0908 28.7332C36.2608 28.7332 36.6908 29.1731 36.6908 30.3431C36.6908 37.4031 36.6908 44.4531 36.6908 51.5131C36.6908 52.6131 36.5308 52.5131 37.7208 52.5131C38.7908 52.5131 39.8708 52.5131 41.0108 52.5131C41.0308 52.1831 41.0508 51.9231 41.0508 51.6531C41.0508 40.0731 41.0508 28.4931 41.0508 16.9131C41.0508 15.6231 41.4208 15.2432 42.7008 15.2432C46.0008 15.2432 49.2908 15.2432 52.5908 15.2432C53.8608 15.2432 54.2108 15.5931 54.2108 16.8531C54.2108 28.4331 54.2108 40.0131 54.2108 51.5931C54.2108 52.2065 54.5208 52.5131 55.1408 52.5131C56.1308 52.5131 57.1308 52.5131 58.1208 52.5131C59.1408 52.5131 59.6708 52.9631 59.6508 53.7831C59.6408 54.5831 59.0808 55.0331 58.0808 55.0331C46.9508 55.0331 35.8108 55.0331 24.6808 55.0331C17.2208 55.0331 9.76078 55.0331 2.31078 55.0331C2.04078 55.0331 1.76077 55.0531 1.49077 55.0031C0.830769 54.8831 0.42076 54.3531 0.45076 53.6931C0.48076 53.0331 0.940784 52.5531 1.63078 52.5331C2.81078 52.5031 4.00077 52.4931 5.18077 52.5331C5.74077 52.5531 5.90076 52.3732 5.89076 51.8132C5.87076 48.4532 5.88078 45.0932 5.88078 41.7332C5.88078 40.4332 6.28077 40.0231 7.58077 40.0231C10.8808 40.0231 14.1708 40.0231 17.4708 40.0231C18.7608 40.0231 19.1908 40.4531 19.1908 41.7231C19.1908 45.0431 19.1908 48.3532 19.1908 51.6732V52.5031V52.5131Z" fill="white"/>
<path d="M38.4805 3.08313C37.6205 3.08313 36.7605 3.08313 35.9105 3.08313C34.9905 3.07313 34.4705 2.62315 34.4605 1.85315C34.4605 1.05315 34.9905 0.57312 35.9305 0.57312C37.8105 0.57312 39.6905 0.57312 41.5705 0.57312C42.5905 0.57312 43.0505 1.03314 43.0505 2.03314C43.0505 3.97314 43.0505 5.92316 43.0505 7.86316C43.0505 8.77316 42.5905 9.29316 41.8205 9.30316C41.0205 9.30316 40.5605 8.78313 40.5505 7.83313C40.5505 6.91313 40.5505 5.99313 40.5505 4.89313C40.2405 5.18313 40.0405 5.35314 39.8505 5.53314C31.1705 14.2131 22.4905 22.8932 13.8205 31.5632C13.6005 31.7832 13.3805 32.0231 13.1205 32.2031C12.6005 32.5731 11.9405 32.4932 11.5105 32.0432C11.0705 31.5832 11.0305 30.9432 11.4205 30.4232C11.5705 30.2232 11.7605 30.0532 11.9405 29.8732C20.6205 21.1932 29.2905 12.5131 37.9805 3.84314C38.1705 3.65314 38.4305 3.52317 38.6505 3.37317C38.5905 3.28317 38.5405 3.18314 38.4805 3.09314" fill="white"/>
</svg>
