<svg width="42" height="35" viewBox="0 0 42 35" fill="none" xmlns="http://www.w3.org/2000/svg">
<path d="M3.21014 33.5899V7.57993L9.51019 1.10992H32.6102L38.9102 7.57993V33.5899C38.9102 33.8799 39.1502 34.1199 39.4402 34.1199C39.7302 34.1199 39.9702 33.8899 39.9702 33.5899V7.36993C39.9702 7.22993 39.9202 7.09994 39.8202 6.99994L33.2202 0.21994C33.1202 0.11994 32.9901 0.0599365 32.8401 0.0599365H9.29016C9.15016 0.0599365 9.01016 0.11994 8.91016 0.21994L2.31018 6.99994C2.22018 7.09994 2.16016 7.22993 2.16016 7.36993V33.5899C2.16016 33.8799 2.40019 34.1199 2.69019 34.1199C2.98019 34.1199 3.22015 33.8899 3.22015 33.5899" fill="white"/>
<path d="M1.33856 34.1199H21.0586C21.3486 34.1199 21.5886 33.8799 21.5886 33.5899C21.5886 33.2999 21.3486 33.0599 21.0586 33.0599H1.33856C1.04856 33.0599 0.808594 33.2999 0.808594 33.5899C0.808594 33.8799 1.03856 34.1199 1.33856 34.1199Z" fill="white"/>
<path d="M21.0593 34.1199H40.7793C41.0693 34.1199 41.3093 33.8799 41.3093 33.5899C41.3093 33.2999 41.0693 33.0599 40.7793 33.0599H21.0593C20.7693 33.0599 20.5293 33.2999 20.5293 33.5899C20.5293 33.8799 20.7593 34.1199 21.0593 34.1199Z" fill="white"/>
<path d="M8.8894 11.51H8.35938V33.59C8.35938 33.73 8.4194 33.87 8.5094 33.96C8.5994 34.05 8.73939 34.11 8.87939 34.11H33.2194C33.3594 34.11 33.4894 34.05 33.5894 33.96C33.6894 33.87 33.7494 33.73 33.7494 33.59V11.51C33.7494 11.37 33.6894 11.24 33.5894 11.14C33.4894 11.04 33.3594 10.99 33.2194 10.99H8.87939C8.73939 10.99 8.6094 11.05 8.5094 11.14C8.4094 11.24 8.35938 11.37 8.35938 11.51H8.8894V12.04H32.6994V33.07H9.40936V11.51H8.87939H8.8894Z" fill="white"/>
<path d="M25.5186 25.57V25.04H15.0186V18.07H24.9985V25.56H25.5285H26.0585V17.54C26.0585 17.4 25.9985 17.27 25.9085 17.17C25.8085 17.07 25.6785 17.02 25.5385 17.02H14.5085C14.3685 17.02 14.2385 17.08 14.1385 17.17C14.0385 17.26 13.9785 17.4 13.9785 17.54V25.56C13.9785 25.7 14.0385 25.83 14.1385 25.93C14.2385 26.03 14.3685 26.08 14.5085 26.08H25.5385C25.6785 26.08 25.8085 26.02 25.9085 25.93C26.0085 25.83 26.0585 25.7 26.0585 25.56H25.5285L25.5186 25.57Z" fill="white"/>
<path d="M25.5183 18.0799H27.8283V25.0499H25.5183C25.2283 25.0499 24.9883 25.2799 24.9883 25.5799C24.9883 25.8799 25.2183 26.1099 25.5183 26.1099H28.3483C28.4883 26.1099 28.6183 26.0499 28.7183 25.9599C28.8183 25.8599 28.8683 25.7299 28.8683 25.5899V17.5699C28.8683 17.4299 28.8083 17.2899 28.7183 17.1999C28.6183 17.0999 28.4883 17.0499 28.3483 17.0499H25.5183C25.2283 17.0499 24.9883 17.2899 24.9883 17.5799C24.9883 17.8699 25.2183 18.1099 25.5183 18.1099" fill="white"/>
<path d="M8.88916 26.0999H18.1292V33.5899C18.1292 33.8799 18.3691 34.1199 18.6591 34.1199C18.9491 34.1199 19.1891 33.8899 19.1891 33.5899V25.5699C19.1891 25.4299 19.1291 25.2899 19.0391 25.1999C18.9391 25.0999 18.8091 25.0499 18.6691 25.0499H8.89911C8.60911 25.0499 8.36914 25.2899 8.36914 25.5799C8.36914 25.8699 8.59911 26.1099 8.89911 26.1099" fill="white"/>
<path d="M24.4286 33.59V26.1H33.2286C33.5186 26.1 33.7587 25.86 33.7587 25.57C33.7587 25.28 33.5186 25.04 33.2286 25.04H23.9086C23.7686 25.04 23.6286 25.1 23.5386 25.19C23.4386 25.29 23.3887 25.42 23.3887 25.56V33.58C23.3887 33.87 23.6286 34.11 23.9186 34.11C24.2086 34.11 24.4487 33.88 24.4487 33.58" fill="white"/>
<path d="M16.709 20.61V22.97C16.709 23.26 16.949 23.5 17.239 23.5C17.529 23.5 17.769 23.26 17.769 22.97V20.61C17.769 20.32 17.529 20.08 17.239 20.08C16.949 20.08 16.709 20.31 16.709 20.61Z" fill="white"/>
<path d="M19.2891 20.61V22.97C19.2891 23.26 19.5291 23.5 19.8191 23.5C20.1091 23.5 20.3491 23.26 20.3491 22.97V20.61C20.3491 20.32 20.1091 20.08 19.8191 20.08C19.5291 20.08 19.2891 20.31 19.2891 20.61Z" fill="white"/>
<path d="M21.8789 20.61V22.97C21.8789 23.26 22.1189 23.5 22.4089 23.5C22.6989 23.5 22.9389 23.26 22.9389 22.97V20.61C22.9389 20.32 22.6989 20.08 22.4089 20.08C22.1189 20.08 21.8789 20.31 21.8789 20.61Z" fill="white"/>
<path d="M14.4199 28.76V30.9C14.4199 31.19 14.66 31.43 14.95 31.43C15.24 31.43 15.4799 31.19 15.4799 30.9V28.76C15.4799 28.47 15.24 28.23 14.95 28.23C14.66 28.23 14.4199 28.46 14.4199 28.76Z" fill="white"/>
<path d="M11.8398 28.76V30.9C11.8398 31.19 12.0799 31.43 12.3699 31.43C12.6599 31.43 12.8998 31.19 12.8998 30.9V28.76C12.8998 28.47 12.6599 28.23 12.3699 28.23C12.0799 28.23 11.8398 28.46 11.8398 28.76Z" fill="white"/>
<path d="M29.3184 28.76V30.9C29.3184 31.19 29.5583 31.43 29.8483 31.43C30.1383 31.43 30.3784 31.19 30.3784 30.9V28.76C30.3784 28.47 30.1383 28.23 29.8483 28.23C29.5583 28.23 29.3184 28.46 29.3184 28.76Z" fill="white"/>
<path d="M26.7285 28.76V30.9C26.7285 31.19 26.9685 31.43 27.2585 31.43C27.5485 31.43 27.7885 31.19 27.7885 30.9V28.76C27.7885 28.47 27.5485 28.23 27.2585 28.23C26.9685 28.23 26.7285 28.46 26.7285 28.76Z" fill="white"/>
</svg>
