<svg width="36" height="41" viewBox="0 0 36 41" fill="none" xmlns="http://www.w3.org/2000/svg">
<path d="M24.5992 40.9H3.50922C2.09922 40.9 0.949219 39.75 0.949219 38.34V2.56C0.949219 1.15 2.09922 0 3.50922 0H24.5992C26.0092 0 27.1592 1.15 27.1592 2.56V10.48H25.8792V2.56C25.8792 1.86 25.3092 1.28 24.5992 1.28H3.50922C2.80922 1.28 2.22922 1.85 2.22922 2.56V38.34C2.22922 39.05 2.79922 39.62 3.50922 39.62H24.5992C25.2992 39.62 25.8792 39.05 25.8792 38.34V28.88H27.1592V38.34C27.1592 39.75 26.0092 40.9 24.5992 40.9Z" fill="white"/>
<path d="M26.8373 34.51H1.27734V35.79H26.8373V34.51Z" fill="white"/>
<path d="M26.8373 3.83997H1.27734V5.11996H26.8373V3.83997Z" fill="white"/>
<path d="M16.6074 38.3499H11.4974C11.1474 38.3499 10.8574 38.0599 10.8574 37.7099C10.8574 37.3599 11.1474 37.0699 11.4974 37.0699H16.6074C16.9574 37.0699 17.2474 37.3599 17.2474 37.7099C17.2474 38.0599 16.9574 38.3499 16.6074 38.3499Z" fill="white"/>
<path d="M21.498 31.96C21.408 31.96 21.318 31.94 21.238 31.91L11.1281 27.42C10.8981 27.32 10.748 27.09 10.748 26.84V15.6C10.748 15.25 11.038 14.96 11.388 14.96C11.738 14.96 12.028 15.25 12.028 15.6V26.42L21.758 30.75C22.078 30.89 22.228 31.27 22.078 31.59C21.968 31.83 21.738 31.97 21.498 31.97" fill="white"/>
<path d="M22.1374 20.4899V30.2999L33.9674 24.5499V15.0799L22.1374 20.4899ZM21.4974 31.9599C21.3774 31.9599 21.2574 31.9299 21.1574 31.8599C20.9674 31.7399 20.8574 31.5399 20.8574 31.3199V20.0799C20.8574 19.8299 21.0074 19.5999 21.2274 19.4999L34.3374 13.5099C34.5374 13.4199 34.7674 13.4399 34.9474 13.5499C35.1274 13.6699 35.2374 13.8699 35.2374 14.0899V24.9499C35.2374 25.1899 35.0974 25.4199 34.8774 25.5299L21.7674 31.8999C21.6774 31.9399 21.5874 31.9599 21.4874 31.9599" fill="white"/>
<path d="M34.6078 14.73C34.5178 14.73 34.4278 14.71 34.3478 14.68L24.2378 10.19C23.9178 10.05 23.7678 9.67003 23.9178 9.35003C24.0578 9.03003 24.4378 8.88002 24.7578 9.03002L34.8679 13.52C35.1879 13.66 35.3379 14.04 35.1879 14.36C35.0779 14.6 34.8478 14.74 34.6078 14.74" fill="white"/>
<path d="M11.3885 16.23C11.1485 16.23 10.9185 16.09 10.8085 15.86C10.6585 15.54 10.8085 15.16 11.1285 15.01L24.2385 9.02001C24.5585 8.87001 24.9385 9.02002 25.0885 9.34002C25.2385 9.66002 25.0885 10.04 24.7685 10.19L11.6585 16.18C11.5685 16.22 11.4785 16.24 11.3985 16.24" fill="white"/>
<path d="M14.7576 17.72C14.5176 17.72 14.2876 17.58 14.1776 17.35C14.0276 17.03 14.1776 16.65 14.4976 16.5L27.6076 10.51C27.9276 10.36 28.3076 10.51 28.4576 10.83C28.6076 11.15 28.4576 11.53 28.1376 11.68L15.0276 17.67C14.9376 17.71 14.8476 17.73 14.7676 17.73" fill="white"/>
<path d="M21.4985 20.72C21.4085 20.72 21.3185 20.7 21.2385 20.67L11.1285 16.18C10.8085 16.04 10.6585 15.66 10.8085 15.34C10.9485 15.02 11.3285 14.87 11.6485 15.02L21.7584 19.51C22.0784 19.65 22.2285 20.03 22.0785 20.35C21.9685 20.59 21.7385 20.73 21.4985 20.73" fill="white"/>
<path d="M18.1278 23.72C18.0378 23.72 17.9478 23.7 17.8678 23.67L14.4978 22.17C14.1778 22.03 14.0277 21.65 14.1677 21.33C14.3077 21.01 14.6877 20.86 15.0077 21.01L18.3778 22.51C18.6978 22.65 18.8477 23.03 18.6977 23.35C18.5877 23.59 18.3578 23.73 18.1178 23.73" fill="white"/>
<path d="M18.1287 19.22C17.8887 19.22 17.6587 19.08 17.5487 18.85C17.3987 18.53 17.5487 18.15 17.8687 18L30.9787 12.01C31.2987 11.86 31.6787 12.01 31.8287 12.33C31.9787 12.65 31.8287 13.03 31.5087 13.18L18.3987 19.17C18.3087 19.21 18.2187 19.23 18.1387 19.23" fill="white"/>
<path d="M18.1283 23.72C17.7783 23.72 17.4883 23.43 17.4883 23.08V18.59C17.4883 18.24 17.7783 17.95 18.1283 17.95C18.4783 17.95 18.7683 18.24 18.7683 18.59V23.08C18.7683 23.43 18.4783 23.72 18.1283 23.72Z" fill="white"/>
<path d="M14.7572 22.22C14.4072 22.22 14.1172 21.93 14.1172 21.58V17.09C14.1172 16.74 14.4072 16.45 14.7572 16.45C15.1072 16.45 15.3972 16.74 15.3972 17.09V21.58C15.3972 21.93 15.1072 22.22 14.7572 22.22Z" fill="white"/>
</svg>
