<svg width="45" height="39" viewBox="0 0 45 39" fill="none" xmlns="http://www.w3.org/2000/svg">
<path d="M12.1484 27.5C13.9684 26.01 15.1684 24.2101 15.8884 22.2901C16.6184 20.3701 16.8784 18.33 16.8784 16.33C16.8784 13.66 16.3984 11.04 15.8784 8.82003C15.6184 7.71003 15.3384 6.69003 15.1084 5.82003C14.8684 4.95003 14.6784 4.22004 14.5784 3.70004C14.4984 3.30004 14.1084 3.04005 13.7084 3.12005C13.3084 3.20005 13.0484 3.59005 13.1284 3.99005C13.2484 4.59005 13.4484 5.33004 13.6784 6.20004C14.0284 7.51004 14.4584 9.10005 14.8084 10.8401C15.1484 12.5801 15.3984 14.46 15.3984 16.33C15.3984 18.2 15.1484 20.06 14.4984 21.76C13.8484 23.47 12.8084 25.0301 11.1984 26.3501C10.8784 26.6101 10.8384 27.07 11.0984 27.39C11.3584 27.71 11.8184 27.75 12.1384 27.49" fill="white"/>
<path d="M14.5874 3.98004V3.95004L13.9974 3.84006L14.5774 3.96005V3.94003L13.9874 3.83005L14.5674 3.95004L13.8574 3.80005L14.5574 3.98004V3.95004L13.8574 3.80005L14.5574 3.98004L13.8474 3.80005L14.5474 4.02005C14.5474 4.02005 14.5574 3.99004 14.5574 3.98004L13.8474 3.80005L14.5274 4.09006C14.5274 4.09006 14.5474 4.04005 14.5574 4.02005L13.8574 3.80005L14.4874 4.18005C14.4874 4.18005 14.5274 4.11006 14.5374 4.09006L13.8574 3.80005L14.4174 4.28006C14.4174 4.28006 14.4774 4.21005 14.4874 4.18005L13.8574 3.80005L14.1774 4.47006C14.2874 4.42006 14.3674 4.35004 14.4174 4.29004L13.8574 3.81006V4.55005C13.9374 4.55005 14.0674 4.53004 14.1774 4.48004L13.8574 3.81006V4.55005C14.0474 4.55005 14.2374 4.47005 14.3774 4.33005C14.5174 4.19005 14.5974 4.00006 14.5974 3.81006C14.5974 3.75006 14.5974 3.67005 14.5574 3.58005C14.5374 3.51005 14.4974 3.43005 14.4374 3.36005C14.3574 3.25005 14.2274 3.17004 14.1274 3.13004C14.0174 3.09004 13.9274 3.08005 13.8574 3.08005C13.6674 3.08005 13.4774 3.16005 13.3374 3.30005C13.1974 3.44005 13.1174 3.63004 13.1174 3.82004C13.1174 4.01004 13.1974 4.20006 13.3374 4.34006C13.4774 4.48006 13.6674 4.56006 13.8574 4.56006C13.9274 4.56006 14.0274 4.55004 14.1174 4.51004C14.2074 4.48004 14.2774 4.43004 14.3374 4.38004C14.4474 4.29004 14.4774 4.22005 14.5074 4.18005C14.5274 4.14005 14.5374 4.11006 14.5474 4.09006C14.5674 4.05006 14.5674 4.04005 14.5674 4.02005C14.5674 4.00005 14.5674 3.99004 14.5774 3.98004C14.5774 3.96004 14.5774 3.95004 14.5874 3.92004C14.6574 3.59004 14.4974 3.26006 14.1974 3.12006C13.8974 2.97006 13.5374 3.04006 13.3174 3.28006C13.0074 3.63006 12.5674 3.99005 12.0474 4.36005C11.1374 5.02005 9.96743 5.70006 8.73743 6.50006C6.87743 7.70006 4.8574 9.16005 3.2774 11.2401C2.4874 12.2801 1.81741 13.47 1.34741 14.85C0.877412 16.23 0.607422 17.7901 0.607422 19.5601C0.607422 21.7301 1.00741 23.4401 1.65741 24.7701C2.14741 25.7701 2.77741 26.5601 3.46741 27.1701C4.50741 28.0801 5.65742 28.5801 6.66742 28.8401C7.67742 29.1101 8.54743 29.1601 9.05743 29.1601C9.33743 29.1601 9.49739 29.14 9.5174 29.14C9.92739 29.1 10.2174 28.7401 10.1874 28.3401C10.1474 27.9301 9.79739 27.6301 9.38739 27.6701C9.38739 27.6701 9.35743 27.6701 9.30743 27.6701C9.24743 27.6701 9.16744 27.6701 9.06744 27.6701C8.70744 27.6701 8.0674 27.6401 7.3374 27.4701C6.7874 27.3501 6.18741 27.14 5.59741 26.83C4.70741 26.36 3.85745 25.64 3.19745 24.5C2.54745 23.36 2.0874 21.77 2.0874 19.54C2.0874 17.07 2.65741 15.1401 3.53741 13.5301C4.19741 12.3301 5.04744 11.31 5.99744 10.42C7.41744 9.08004 9.05744 8.03005 10.5674 7.08005C11.3274 6.60005 12.0474 6.15004 12.7074 5.70004C13.3574 5.24004 13.9474 4.78004 14.4174 4.26004L13.8674 3.77005L13.1474 3.62006V3.64005L13.6574 3.75006L13.1574 3.62006V3.64005L13.6674 3.75006L13.1674 3.62006L13.8574 3.80005L13.1774 3.59006V3.62006L13.8574 3.80005L13.1774 3.59006L13.8774 3.80005L13.1974 3.54004C13.1974 3.54004 13.1874 3.57005 13.1874 3.58005L13.8874 3.79004L13.2074 3.53006L13.8974 3.79004L13.2374 3.47006C13.2374 3.47006 13.2174 3.52006 13.2074 3.53006L13.8974 3.79004L13.2774 3.39005C13.2774 3.39005 13.2474 3.45006 13.2374 3.47006L13.8974 3.79004L13.4774 3.18005C13.3674 3.26005 13.3074 3.34004 13.2774 3.38004L13.8974 3.78006L13.6874 3.07004C13.6074 3.09004 13.5374 3.13004 13.4774 3.17004L13.8974 3.78006V3.04004C13.8374 3.04004 13.7574 3.04004 13.6874 3.07004L13.8974 3.78006V3.04004C13.7074 3.04004 13.5174 3.12004 13.3774 3.26004C13.2374 3.40004 13.1574 3.59006 13.1574 3.78006C13.1574 3.97006 13.2374 4.16005 13.3774 4.30005C13.5174 4.44005 13.7074 4.52005 13.8974 4.52005V3.78006L13.6674 4.48004C13.7574 4.51004 13.8374 4.52005 13.8974 4.52005V3.78006L13.4474 4.36005C13.5174 4.42005 13.5974 4.46004 13.6674 4.48004L13.8974 3.78006L13.2074 4.05005C13.2474 4.16005 13.3274 4.28005 13.4374 4.36005L13.8874 3.78006H13.1474C13.1474 3.85006 13.1474 3.94005 13.1974 4.05005L13.8874 3.78006V3.04004C13.7974 3.04004 13.6674 3.06006 13.5574 3.12006C13.4474 3.17006 13.3674 3.25006 13.3274 3.31006C13.2774 3.37006 13.2574 3.41004 13.2374 3.45004C13.2074 3.52004 13.1974 3.55004 13.1874 3.57004C13.1774 3.61004 13.1774 3.62004 13.1674 3.63004V3.65005C13.1674 3.65005 13.1674 3.67003 13.1574 3.69003C13.0874 4.09003 13.3574 4.47005 13.7574 4.55005C14.1574 4.62005 14.5374 4.35004 14.6174 3.95004" fill="white"/>
<path d="M42.7776 25.1301C43.0076 25.4701 43.4576 25.5601 43.7976 25.3401C44.1376 25.1101 44.2276 24.6601 44.0076 24.3201C43.7776 23.9801 43.3276 23.8901 42.9876 24.1201C42.6476 24.3501 42.5576 24.8001 42.7876 25.1401" fill="white"/>
<path d="M40.4481 7.75009H30.118C29.998 7.75009 29.888 7.78008 29.788 7.83008L28.028 8.71008C27.648 8.90008 27.3381 9.19007 27.1281 9.54007C26.9181 9.88007 26.808 10.2801 26.808 10.6901C26.808 10.9501 26.8581 11.2101 26.9481 11.4701L28.248 14.9301L26.9481 14.7101C26.7881 14.6801 26.618 14.6701 26.458 14.6701C25.828 14.6701 25.238 14.8701 24.748 15.2201C24.258 15.5701 23.868 16.0801 23.668 16.6901L23.438 17.3701C23.308 17.7501 23.248 18.1501 23.248 18.5401C23.248 19.6401 23.7381 20.7101 24.6281 21.4201L26.468 22.8901L27.028 27.9101C27.048 28.1101 27.1181 28.2901 27.1981 28.4501C27.3481 28.7301 27.558 28.9301 27.768 29.1001C28.098 29.3601 28.468 29.5401 28.848 29.6701C29.038 29.7401 29.228 29.7901 29.408 29.8201C29.598 29.8501 29.778 29.8801 29.958 29.8801H31.578C31.988 29.8801 32.368 29.8101 32.708 29.6601C32.958 29.5501 33.1881 29.3901 33.3781 29.2101C33.6581 28.9301 33.8581 28.6101 34.0081 28.2701C34.1581 27.9301 34.278 27.5701 34.388 27.2001L35.248 24.1801V24.1201L35.998 20.4301C36.048 20.1901 35.968 19.9401 35.798 19.7601L33.958 17.9201L34.1281 17.5801L37.838 19.4301L40.738 21.6001C41.068 21.8401 41.528 21.7801 41.768 21.4501C42.008 21.1201 41.948 20.6601 41.618 20.4201L38.668 18.2101C38.668 18.2101 38.598 18.1601 38.558 18.1401L34.138 15.9301C33.778 15.7501 33.328 15.9001 33.148 16.2601L32.408 17.7401C32.268 18.0201 32.318 18.3701 32.548 18.5901L34.478 20.5201L33.828 23.7901L32.968 26.7801C32.878 27.0801 32.7981 27.3501 32.6981 27.5601C32.6281 27.7201 32.558 27.8501 32.488 27.9601C32.378 28.1201 32.278 28.2001 32.148 28.2701C32.018 28.3401 31.8481 28.3801 31.5681 28.3801H29.9481C29.8481 28.3801 29.678 28.3601 29.498 28.3101C29.218 28.2301 28.908 28.1001 28.708 27.9501C28.608 27.8801 28.5381 27.8101 28.5081 27.7601C28.4881 27.7401 28.478 27.7201 28.478 27.7101L28.408 27.7201H28.478V27.7001L28.408 27.7201H28.478L27.888 22.3901C27.868 22.1901 27.768 22.0201 27.618 21.9001L25.538 20.2401C25.008 19.8101 24.708 19.1701 24.708 18.5101C24.708 18.2801 24.7481 18.0401 24.8181 17.8101L25.048 17.1301C25.148 16.8201 25.338 16.5701 25.588 16.4001C25.838 16.2201 26.1281 16.1201 26.4481 16.1201C26.5281 16.1201 26.608 16.1201 26.688 16.1401L29.248 16.5701C29.508 16.6101 29.768 16.5201 29.938 16.3101C30.108 16.1101 30.148 15.8301 30.058 15.5801L28.308 10.9201C28.278 10.8301 28.2581 10.7501 28.2581 10.6601C28.2581 10.5201 28.298 10.3901 28.368 10.2801C28.438 10.1601 28.538 10.0701 28.668 10.0001L30.278 9.20007H40.428C40.838 9.20007 41.168 8.87008 41.168 8.46008C41.168 8.05008 40.838 7.72009 40.428 7.72009" fill="white"/>
<path d="M18.1971 24.7101L20.1571 25.0401C21.2271 25.2201 22.0071 26.1401 22.0071 27.2201V32.5701C22.0071 32.6501 21.9771 32.7101 21.9271 32.7601C21.8771 32.8101 21.8171 32.8401 21.7371 32.8401C21.6571 32.8401 21.5771 32.8 21.5271 32.74L18.8271 29.5C18.4971 29.1 18.3171 28.6001 18.3171 28.0801V26.9401C18.3171 26.7401 18.2371 26.5501 18.0971 26.4201L17.3571 25.68C17.0671 25.39 16.5971 25.39 16.3171 25.68C16.0271 25.97 16.0271 26.4401 16.3171 26.7201L16.8371 27.24V28.0801C16.8371 28.9401 17.1371 29.7801 17.6871 30.4401L20.3871 33.68C20.7171 34.08 21.2071 34.31 21.7271 34.31C22.2071 34.31 22.6471 34.11 22.9571 33.8C23.2771 33.49 23.4671 33.0501 23.4671 32.5701V27.2201C23.4671 25.4201 22.1671 23.8801 20.3871 23.5801L18.4271 23.25C18.0271 23.18 17.6471 23.4501 17.5771 23.8601C17.5071 24.2601 17.7771 24.6401 18.1871 24.7101" fill="white"/>
<path d="M18.3186 10.7001H18.7086C20.1086 10.7001 21.3786 9.91009 22.0086 8.66009L23.2786 6.12011L26.6086 4.79009L33.8786 4.06011C34.2786 4.02011 34.5786 3.66011 34.5386 3.25011C34.4986 2.84011 34.1386 2.55011 33.7286 2.59011L26.3486 3.3301C26.2786 3.3301 26.2086 3.35009 26.1486 3.38009L22.4586 4.85009C22.2886 4.92009 22.1586 5.04011 22.0686 5.21011L20.6686 8.00011C20.2886 8.75011 19.5286 9.22012 18.6886 9.22012H18.2986C17.8886 9.22012 17.5586 9.55011 17.5586 9.96011C17.5586 10.3701 17.8886 10.7001 18.2986 10.7001" fill="white"/>
<path d="M8.49762 11.0801C7.23762 13.6401 6.51758 16.5101 6.51758 19.5601C6.51758 24.8501 8.66757 29.6501 12.1376 33.1201C15.6076 36.5901 20.4076 38.7401 25.6976 38.7401C30.0576 38.7401 34.0876 37.2801 37.3076 34.8301C40.5276 32.3801 42.9476 28.9301 44.1076 24.9401C44.2176 24.5501 43.9976 24.1401 43.6076 24.0301C43.2176 23.9201 42.8076 24.1401 42.6976 24.5301C41.6276 28.2101 39.3876 31.4001 36.4176 33.6601C33.4476 35.9201 29.7376 37.2701 25.7076 37.2701C20.8176 37.2701 16.3976 35.2901 13.1876 32.0901C9.98762 28.8901 8.00763 24.4701 8.00763 19.5801C8.00763 16.7701 8.66759 14.1201 9.83759 11.7601C10.0176 11.3901 9.86763 10.9501 9.50763 10.7701C9.14763 10.5901 8.69758 10.7401 8.51758 11.1001" fill="white"/>
<path d="M44.1081 24.9201C44.6081 23.2201 44.8781 21.4201 44.8781 19.5501C44.8781 14.2601 42.7281 9.46011 39.2581 5.99011C35.7881 2.52011 30.9881 0.370117 25.6981 0.370117C22.9681 0.370117 20.3781 0.950103 18.0281 1.9801C17.6581 2.1401 17.4881 2.5801 17.6481 2.9501C17.8081 3.3201 18.2481 3.49011 18.6181 3.33011C20.7881 2.38011 23.1781 1.84012 25.6981 1.84012C30.5881 1.84012 35.0081 3.82011 38.2181 7.02011C41.4181 10.2301 43.3981 14.6501 43.3981 19.5401C43.3981 21.2601 43.1481 22.9201 42.6881 24.5001C42.5781 24.8901 42.7981 25.3001 43.1881 25.4101C43.5781 25.5201 43.9881 25.3001 44.0981 24.9101" fill="white"/>
</svg>
