<svg width="39" height="42" viewBox="0 0 39 42" fill="none" xmlns="http://www.w3.org/2000/svg">
<path d="M22.5976 31.7201L23.1676 31.9801L23.5576 31.1301L23.0776 31.9301C23.6276 32.2601 24.1576 32.6901 24.5376 33.2501C24.9176 33.8101 25.1776 34.4801 25.1876 35.4201V41.7001H27.0576V35.4201C27.0576 34.1101 26.6576 33.0201 26.0776 32.1801C25.4976 31.3401 24.7476 30.7501 24.0476 30.3301L23.9976 30.3001L23.3776 30.0201L22.6076 31.7201H22.5976ZM32.6476 41.6901V35.4101C32.6476 33.4001 32.5476 31.8101 32.0276 30.3801C31.5076 28.9501 30.5276 27.7701 29.0376 26.7201L27.9576 28.2401C29.2476 29.1601 29.8776 29.9701 30.2676 31.0201C30.6576 32.0701 30.7776 33.4601 30.7776 35.4101V41.6901H32.6476ZM15.8576 18.3801C15.0576 17.7001 14.3176 17.0201 13.7976 16.3701C13.5376 16.0501 13.3476 15.7401 13.2176 15.4501C13.0876 15.1601 13.0276 14.9001 13.0276 14.6401V11.7901H18.5576L9.70758 0.160095L0.267578 11.7901H5.55762V14.6401C5.55762 16.6501 5.91758 18.2801 6.57758 19.6501C7.22758 21.0201 8.14762 22.1101 9.18762 23.1101L10.4876 21.7701C9.53761 20.8501 8.78758 19.9401 8.26758 18.8401C7.74758 17.7401 7.43761 16.4301 7.42761 14.6301V9.9201H4.18762L9.65759 3.18011L14.7876 9.9201H11.1576V14.6301C11.1576 15.1801 11.2876 15.7101 11.4976 16.1901C11.8176 16.9101 12.2976 17.5401 12.8476 18.1201C13.3976 18.7101 14.0176 19.2501 14.6276 19.7801L15.8476 18.3601L15.8576 18.3801ZM13.9676 41.6901V35.4101C13.9676 34.4501 14.1276 33.7801 14.4076 33.2601C14.6876 32.7501 15.1076 32.3301 15.7876 31.9301L27.1576 24.8701H27.1676C29.2476 23.5001 30.6476 21.8901 31.4976 20.1301C32.3476 18.3801 32.6476 16.5101 32.6476 14.6401V11.7901H38.2676L29.2976 0.00012207L20.0176 11.7901H25.1776V14.6401C25.1776 15.2901 25.0976 15.8401 24.8376 16.3901C24.5676 16.9301 24.0976 17.5201 23.1576 18.1601L23.6876 18.9301L23.2076 18.1301L11.4676 25.1701C9.34759 26.4701 7.84757 27.8401 6.88757 29.5201C5.92757 31.2001 5.56758 33.1201 5.57758 35.4101V41.6901H7.44763V35.4101C7.44763 33.3101 7.76758 31.7601 8.51758 30.4501C9.26758 29.1301 10.4776 27.9801 12.4476 26.7701L24.2076 19.7201H24.2276C25.3676 18.9401 26.1076 18.1001 26.5376 17.2201C26.9676 16.3401 27.0776 15.4501 27.0776 14.6501V9.94009H23.8976L29.3076 3.0701L34.5376 9.94009H30.8176V14.6501C30.8176 16.3201 30.5576 17.8901 29.8576 19.3201C29.1576 20.7501 28.0276 22.0901 26.1876 23.3001L26.6976 24.0801L26.2076 23.2901L14.8576 30.3301L15.3476 31.1201L14.8676 30.3201C13.9876 30.8401 13.2676 31.5001 12.8076 32.3701C12.3376 33.2301 12.1376 34.2401 12.1376 35.4101V41.6901H14.0076H13.9676Z" fill="white"/>
</svg>
