<svg width="46" height="62" viewBox="0 0 46 62" fill="none" xmlns="http://www.w3.org/2000/svg">
<path d="M22.6682 6.80004C22.4482 6.63004 22.1282 6.68004 21.9582 6.89004L19.2882 10.2801C19.1182 10.5001 19.1582 10.8101 19.3882 10.9701C19.4782 11.0401 19.5882 11.07 19.6982 11.07C19.8482 11.07 19.9982 11.0001 20.1082 10.8701L22.7682 7.48004C22.9382 7.26004 22.8982 6.95004 22.6782 6.79004" fill="white"/>
<path d="M26.7875 8.17016C26.5675 8.00016 26.2475 8.05016 26.0675 8.26016L20.5975 15.1802C20.4275 15.4002 20.4675 15.7102 20.6875 15.8702C20.7775 15.9402 20.8875 15.9702 20.9975 15.9702C21.1475 15.9702 21.3075 15.9002 21.3975 15.7802L26.8675 8.87017C27.0375 8.65017 26.9975 8.34017 26.7775 8.18017" fill="white"/>
<path d="M43.0873 57.7001H3.01727V41.8301H43.0873V57.7001ZM44.1573 60.1601H1.92728V58.6901H44.1573V60.1601ZM1.92728 39.3801H44.1573V40.8501H1.92728V39.3801ZM20.2273 28.6701C21.4473 29.7801 23.0673 30.1401 24.5273 29.5801C24.8573 29.4101 25.1673 29.2301 25.4373 29.0301L41.4373 38.3901H3.94727L20.2273 28.6701ZM20.1473 23.7801C20.5973 23.0801 20.9873 22.6701 21.3273 22.3001C21.9173 21.6701 22.3673 21.1901 22.4673 19.9501H23.6773C23.7273 20.7701 23.7173 21.1801 23.0373 21.8401C22.9173 21.9601 22.7773 22.0801 22.6373 22.2001C21.8973 22.8601 20.9773 23.6901 20.7673 24.9501C20.6573 25.6301 20.8773 26.3201 21.3173 26.8701L20.4273 27.4001C19.7173 26.4701 19.3073 25.0901 20.1573 23.7801M20.0673 18.5301C19.7373 16.9201 19.4073 15.3001 19.0873 13.6901C18.6973 11.7601 18.3073 9.83006 17.9073 7.91006C17.7573 7.19006 17.8673 6.49009 18.1773 6.12009C18.2973 5.98009 18.4273 5.91006 18.5773 5.91006H27.4473C27.5973 5.91006 27.7273 5.98008 27.8373 6.11008C28.1473 6.47008 28.2473 7.18006 28.0973 7.91006C27.7773 9.48006 27.4673 11.0501 27.1473 12.6301C26.7473 14.6001 26.3473 16.5601 25.9573 18.5301C25.9073 18.7701 25.6373 18.9701 25.3673 18.9701H20.6373C20.3773 18.9701 20.1173 18.7701 20.0673 18.5401M22.1173 27.5701C22.3673 27.7201 22.6473 27.8301 22.9473 27.9001C24.0273 28.1401 25.4073 27.7001 26.1573 25.8301L26.2573 25.8601C26.1873 26.7101 25.8273 27.4301 25.1773 28.0101C25.1073 28.0501 25.0373 28.1001 24.9873 28.1701C24.7373 28.3701 24.4473 28.5501 24.1273 28.7101C23.0073 29.1401 21.9273 28.7501 21.1573 28.1601L22.1173 27.5901V27.5701ZM44.3473 41.8601C44.8173 41.8601 45.1973 41.4901 45.1973 41.0301V39.2501C45.1973 38.7901 44.8173 38.4201 44.3473 38.4201H43.4373L26.2373 28.3601C26.9573 27.5601 27.3173 26.5801 27.2873 25.4701C27.2873 25.2501 27.1273 25.0601 26.9073 25.0001L25.9573 24.7601C25.6873 24.6901 25.4173 24.8401 25.3373 25.1001C24.9073 26.4801 24.1273 27.1401 23.1773 26.9401L23.5273 26.7301C23.7673 26.5901 23.8373 26.2801 23.6973 26.0501C23.5473 25.8201 23.2373 25.7401 22.9973 25.8901L22.2073 26.3601C21.8973 26.0201 21.7173 25.5801 21.7873 25.1201C21.9473 24.2001 22.6573 23.5601 23.3473 22.9401C23.4973 22.8101 23.6373 22.6801 23.7673 22.5501C24.7473 21.6101 24.7673 20.8301 24.7173 19.9601H25.3673C26.1273 19.9601 26.8073 19.4301 26.9573 18.7301C27.3473 16.7601 27.7473 14.8001 28.1473 12.8301C28.4673 11.2501 28.7873 9.68008 29.0973 8.11008C29.3073 7.09008 29.1273 6.08008 28.6273 5.49008C28.3173 5.13008 27.8973 4.93008 27.4473 4.93008H26.5473V1.46008C26.5473 1.19008 26.3173 0.970093 26.0373 0.970093C25.7573 0.970093 25.5273 1.19008 25.5273 1.46008V4.93008H20.4873V1.46008C20.4873 1.19008 20.2573 0.970093 19.9773 0.970093C19.6973 0.970093 19.4673 1.19008 19.4673 1.46008V4.93008H18.5873C18.1273 4.93008 17.7073 5.13009 17.3973 5.50009C16.8873 6.10009 16.7073 7.10009 16.9173 8.12009C17.3173 10.0401 17.7073 11.9701 18.0973 13.9001C18.4273 15.5101 18.7473 17.1301 19.0873 18.7501C19.2373 19.4501 19.9073 19.9801 20.6573 19.9801H21.4773C21.3973 20.8101 21.1173 21.1101 20.6073 21.6601C20.2573 22.0401 19.8173 22.5101 19.3173 23.2801C18.3973 24.7001 18.5173 26.4901 19.5873 27.9401L2.03726 38.4201H1.79727C1.32727 38.4201 0.947266 38.7901 0.947266 39.2501V41.0301C0.947266 41.4901 1.32727 41.8601 1.79727 41.8601H2.03726V57.7301H1.79727C1.32727 57.7301 0.947266 58.1001 0.947266 58.5601V60.3201C0.947266 60.8001 1.32727 61.1701 1.79727 61.1701H44.3673C44.8473 61.1701 45.2173 60.7901 45.2173 60.3201V58.5601C45.2173 58.1001 44.8373 57.7301 44.3673 57.7301H44.1473V41.8601H44.3673H44.3473Z" fill="white"/>
<path d="M9.49655 43.3301H10.4966V56.1901H9.49655V43.3301ZM9.28656 57.1801H10.6766C11.1466 57.1801 11.5066 56.8201 11.5066 56.3701V43.1301C11.5066 42.6901 11.1366 42.3401 10.6766 42.3401H9.28656C8.84656 42.3401 8.47656 42.7001 8.47656 43.1301V56.3701C8.47656 56.8201 8.83656 57.1801 9.28656 57.1801Z" fill="white"/>
<path d="M13.8677 43.3301H14.8877V56.1901H13.8677V43.3301ZM13.6777 57.1801H15.0677C15.5277 57.1801 15.8977 56.8201 15.8977 56.3701V43.1301C15.8977 42.6901 15.5277 42.3401 15.0677 42.3401H13.6777C13.2177 42.3401 12.8477 42.7001 12.8477 43.1301V56.3701C12.8477 56.8201 13.2177 57.1801 13.6777 57.1801Z" fill="white"/>
<path d="M18.2466 43.3301H19.2666V56.1901H18.2466V43.3301ZM18.0566 57.1801H19.4466C19.8966 57.1801 20.2766 56.8101 20.2766 56.3701V43.1301C20.2766 42.7001 19.8966 42.3401 19.4466 42.3401H18.0566C17.5966 42.3401 17.2266 42.7001 17.2266 43.1301V56.3701C17.2266 56.8201 17.5966 57.1801 18.0566 57.1801Z" fill="white"/>
<path d="M5.11768 43.3301H6.11768V56.1901H5.11768V43.3301ZM4.92767 57.1801H6.29767C6.76767 57.1801 7.12766 56.8201 7.12766 56.3701V43.1301C7.12766 42.6901 6.75767 42.3401 6.29767 42.3401H4.92767C4.46767 42.3401 4.09766 42.7001 4.09766 43.1301V56.3701C4.09766 56.8201 4.46767 57.1801 4.92767 57.1801Z" fill="white"/>
<path d="M27.0063 43.3301H28.0063V56.1901H27.0063V43.3301ZM26.8163 57.1801H28.1863C28.6563 57.1801 29.0163 56.8201 29.0163 56.3701V43.1301C29.0163 42.6901 28.6463 42.3401 28.1863 42.3401H26.8163C26.3563 42.3401 25.9863 42.7001 25.9863 43.1301V56.3701C25.9863 56.8201 26.3463 57.1801 26.8163 57.1801Z" fill="white"/>
<path d="M31.3872 43.3301H32.3872V56.1901H31.3872V43.3301ZM31.1772 57.1801H32.5672C33.0372 57.1801 33.3972 56.8201 33.3972 56.3701V43.1301C33.3972 42.6901 33.0272 42.3401 32.5672 42.3401H31.1772C30.7372 42.3401 30.3672 42.7001 30.3672 43.1301V56.3701C30.3672 56.8201 30.7272 57.1801 31.1772 57.1801Z" fill="white"/>
<path d="M22.6274 43.3301H23.6274V56.1901H22.6274V43.3301ZM22.4374 57.1801H23.8274C24.2774 57.1801 24.6374 56.8201 24.6374 56.3701V43.1301C24.6374 42.7001 24.2674 42.3401 23.8274 42.3401H22.4374C21.9774 42.3401 21.6074 42.7001 21.6074 43.1301V56.3701C21.6074 56.8201 21.9774 57.1801 22.4374 57.1801Z" fill="white"/>
<path d="M35.7466 43.3301H36.7666V56.1901H35.7466V43.3301ZM35.5566 57.1801H36.9466C37.4066 57.1801 37.7766 56.8201 37.7766 56.3701V43.1301C37.7766 42.6901 37.4066 42.3401 36.9466 42.3401H35.5566C35.1066 42.3401 34.7266 42.7001 34.7266 43.1301V56.3701C34.7266 56.8101 35.1066 57.1801 35.5566 57.1801Z" fill="white"/>
<path d="M40.1372 43.3301H41.1572V56.1901H40.1372V43.3301ZM39.9472 57.1801H41.3372C41.8072 57.1801 42.1672 56.8201 42.1672 56.3701V43.1301C42.1672 42.6901 41.7972 42.3401 41.3372 42.3401H39.9472C39.4872 42.3401 39.1172 42.7001 39.1172 43.1301V56.3701C39.1172 56.8201 39.4872 57.1801 39.9472 57.1801Z" fill="white"/>
</svg>
