<svg width="54" height="52" viewBox="0 0 54 52" fill="none" xmlns="http://www.w3.org/2000/svg">
<path d="M36.6005 24.4201C36.5605 24.3601 36.5105 24.3001 36.4705 24.2501C36.3905 24.2201 36.3205 24.1702 36.2405 24.1602C34.4405 23.9002 32.6405 23.6301 30.8405 23.3901C30.3205 23.3201 29.9905 23.1101 29.7605 22.6301C29.1805 21.4101 28.5805 20.2001 27.9805 18.9901C27.7305 18.4801 27.4705 17.9701 27.1805 17.3801C27.0405 17.6401 26.9505 17.8101 26.8605 17.9801C26.0805 19.5401 25.3005 21.1101 24.5405 22.6801C24.3505 23.0801 24.0805 23.3001 23.6505 23.3601C22.3105 23.5401 20.9805 23.7401 19.6405 23.9301C19.0405 24.0201 18.4505 24.1101 17.8605 24.2101C17.8305 24.2701 17.7905 24.3401 17.7605 24.4001C17.9105 24.5001 18.0805 24.5701 18.2105 24.7001C19.4505 25.9001 20.6805 27.1301 21.9405 28.3201C22.3105 28.6701 22.4305 29.0402 22.3505 29.5302C22.1805 30.4302 22.0305 31.3401 21.8705 32.2401C21.7005 33.2301 21.5405 34.2101 21.3505 35.3201C21.6205 35.1901 21.7705 35.1201 21.9305 35.0401C23.4305 34.2501 24.9405 33.4901 26.4205 32.6701C26.9805 32.3601 27.4405 32.3801 27.9805 32.6701C29.4605 33.4801 30.9705 34.2501 32.4705 35.0401C32.6205 35.1201 32.7705 35.1901 33.0005 35.3001C32.9805 35.1001 32.9705 34.9901 32.9505 34.8901C32.6505 33.1501 32.3605 31.4101 32.0405 29.6801C31.9305 29.0701 32.0705 28.6301 32.5405 28.2001C33.7205 27.1101 34.8405 25.9602 36.0005 24.8502C36.1805 24.6802 36.4105 24.5601 36.6205 24.4301M39.1205 23.8201C39.0105 23.9701 38.8705 24.2301 38.6805 24.4201C37.1305 25.9501 35.5705 27.4801 33.9905 28.9901C33.7005 29.2701 33.6005 29.5201 33.6805 29.9301C34.0805 32.0701 34.4305 34.2201 34.8005 36.3701C34.8605 36.7501 34.9005 37.1301 34.5205 37.4001C34.1505 37.6701 33.8105 37.5201 33.4605 37.3401C31.5205 36.3101 29.5705 35.3001 27.6305 34.2601C27.3005 34.0801 27.0605 34.0901 26.7405 34.2601C24.8305 35.2801 22.9105 36.2702 21.0005 37.2802C20.6305 37.4802 20.2605 37.7001 19.8505 37.3901C19.4305 37.0901 19.5305 36.6701 19.5905 36.2601C19.9505 34.1101 20.3105 31.9601 20.7005 29.8201C20.7705 29.4601 20.6605 29.2502 20.4205 29.0302C18.8505 27.5102 17.2905 25.9901 15.7305 24.4601C15.4405 24.1801 15.1405 23.9001 15.3005 23.4401C15.4605 23.0001 15.8305 22.9201 16.2505 22.8601C18.4405 22.5501 20.6405 22.2401 22.8205 21.8901C23.0505 21.8501 23.3105 21.6101 23.4205 21.4001C24.4105 19.4601 25.3605 17.5001 26.3205 15.5401C26.5005 15.1701 26.7005 14.8201 27.1705 14.8201C27.6405 14.8201 27.8405 15.1602 28.0205 15.5302C28.9805 17.4902 29.9505 19.4401 30.9005 21.4001C31.0705 21.7501 31.2905 21.8801 31.6805 21.9301C33.8905 22.2301 36.1005 22.5701 38.3105 22.8901C38.7905 22.9601 39.0505 23.2201 39.1105 23.8201" fill="white"/>
<path d="M16.1303 19.4001C15.9303 19.8001 15.7602 20.1101 15.6102 20.4301C15.1902 21.2701 14.7603 22.1001 14.3703 22.9501C14.1503 23.4301 13.8302 23.6502 13.3002 23.7202C12.0402 23.8802 10.7802 24.0802 9.42024 24.2802C9.60024 24.4802 9.71027 24.6101 9.83027 24.7301C10.6503 25.5401 11.4803 26.3501 12.3103 27.1501C12.6203 27.4501 12.7303 27.7702 12.6403 28.2202C12.3903 29.5102 12.2003 30.8001 11.9603 32.2301C12.4503 31.9701 12.8402 31.7701 13.2302 31.5601C14.0302 31.1401 14.8303 30.7301 15.6203 30.3001C15.9703 30.1101 16.2903 30.1001 16.6403 30.3001C17.0803 30.5501 17.5402 30.7601 17.9702 31.0101C18.4102 31.2601 18.5403 31.6601 18.3303 32.0601C18.1203 32.4701 17.6502 32.6701 17.2302 32.3601C16.4002 31.7401 15.7003 31.9401 14.8903 32.4301C13.8003 33.0901 12.6303 33.6301 11.5003 34.2301C11.1503 34.4201 10.8003 34.5402 10.4403 34.2802C10.0703 34.0202 10.1002 33.6301 10.1702 33.2501C10.4402 31.7101 10.7002 30.1601 10.9902 28.6201C11.0602 28.2601 10.9603 28.0101 10.7003 27.7601C9.58027 26.6901 8.48024 25.6001 7.36024 24.5201C7.07024 24.2401 6.79026 23.9501 6.94026 23.4901C7.09026 23.0301 7.49027 22.9601 7.89027 22.9001C9.44027 22.6701 10.9902 22.4401 12.5402 22.2401C12.9002 22.1901 13.0703 22.0301 13.2103 21.7301C13.8803 20.3301 14.5803 18.9501 15.2603 17.5601C15.4403 17.2001 15.6202 16.8301 16.1002 16.8201C16.5702 16.8201 16.7803 17.1502 16.9603 17.5302C17.3503 18.3402 17.7603 19.1401 18.1503 19.9601C18.4103 20.5001 18.2802 20.9501 17.8402 21.1501C17.4202 21.3501 17.0303 21.1701 16.7503 20.6501C16.5503 20.2701 16.3603 19.8802 16.1203 19.4102" fill="white"/>
<path d="M44.5299 24.2702C43.2899 24.0902 42.0499 23.8702 40.7999 23.7302C40.2299 23.6602 39.8999 23.4102 39.6599 22.9002C39.2099 21.9202 38.7099 20.9602 38.2299 19.9902C38.1499 19.8302 38.0699 19.6802 37.9299 19.4202C37.6999 19.8802 37.5099 20.2502 37.3099 20.6202C37.0199 21.1802 36.6299 21.3602 36.1899 21.1302C35.7599 20.9102 35.6499 20.4802 35.9199 19.9202C36.3299 19.0802 36.7199 18.2202 37.1799 17.4102C37.3299 17.1502 37.6799 16.8602 37.9399 16.8702C38.1999 16.8702 38.5599 17.1602 38.6899 17.4202C39.4399 18.8402 40.14 20.2802 40.83 21.7302C40.99 22.0502 41.1699 22.2102 41.5499 22.2502C43.0899 22.4402 44.62 22.6802 46.15 22.9102C46.55 22.9702 46.9499 23.0302 47.0999 23.4902C47.2399 23.9402 46.9799 24.2402 46.6899 24.5202C45.5599 25.6102 44.43 26.7002 43.33 27.8102C43.16 27.9802 43.05 28.3202 43.08 28.5502C43.32 30.1002 43.6099 31.6402 43.8699 33.1802C43.9399 33.5702 44.0099 33.9802 43.6099 34.2702C43.2199 34.5502 42.8599 34.3802 42.4999 34.1902C41.1299 33.4602 39.75 32.7602 38.39 32.0202C38.07 31.8502 37.8099 31.8002 37.4999 32.0202C37.2799 32.1702 37.0299 32.2902 36.7799 32.3902C36.3299 32.5802 35.8999 32.4502 35.7199 32.0502C35.5199 31.6202 35.6499 31.2602 36.0399 31.0302C36.5499 30.7302 37.0799 30.4302 37.6299 30.2202C37.8699 30.1302 38.2399 30.2102 38.4799 30.3302C39.4999 30.8302 40.4999 31.3702 41.4999 31.9002C41.6599 31.9802 41.82 32.0602 42.08 32.1802C41.95 31.3802 41.8399 30.6702 41.7199 29.9502C41.6199 29.3602 41.5499 28.7702 41.4099 28.1902C41.2999 27.7302 41.4499 27.4002 41.7799 27.0902C42.5699 26.3502 43.3299 25.5802 44.1099 24.8302C44.2599 24.6802 44.4499 24.5702 44.6199 24.4402C44.5899 24.3802 44.56 24.3202 44.52 24.2602" fill="white"/>
<path d="M7.32944 20.3001C6.92944 21.1001 6.54945 21.8401 6.20945 22.5801C6.00945 23.0101 5.7094 23.2401 5.2194 23.2901C4.4194 23.3701 3.61942 23.5201 2.73942 23.6501C2.85942 23.8101 2.91944 23.9201 3.00944 24.0101C3.49944 24.4901 3.96942 24.9901 4.48942 25.4401C4.89942 25.8001 4.97943 26.2001 4.87943 26.7001C4.72943 27.4901 4.59944 28.2801 4.44944 29.2001C5.28944 28.7601 6.02943 28.3901 6.74943 27.9801C7.16943 27.7401 7.5494 27.7301 7.9694 27.9801C8.3694 28.2201 8.79945 28.4101 9.20945 28.6501C9.60945 28.8901 9.74939 29.3601 9.52939 29.7201C9.28939 30.1201 8.91943 30.1901 8.49943 30.0301C8.47943 30.0301 8.45944 30.0201 8.44944 30.0101C7.64944 29.3201 6.90942 29.6001 6.11942 30.0901C5.41942 30.5301 4.66941 30.9101 3.91941 31.2401C3.64941 31.3601 3.20941 31.3801 2.97941 31.2401C2.77941 31.1101 2.65943 30.6801 2.68943 30.4001C2.83943 29.2401 3.02944 28.0801 3.25944 26.9401C3.32944 26.6001 3.21943 26.4101 2.99943 26.1901C2.17943 25.4101 1.34943 24.6301 0.569433 23.8001C0.369433 23.5801 0.189445 23.1601 0.269445 22.9201C0.339445 22.6801 0.729445 22.4201 1.01945 22.3701C2.14945 22.1501 3.28943 21.9901 4.43943 21.8501C4.76943 21.8101 4.94944 21.6701 5.07944 21.3801C5.55944 20.3701 6.06942 19.3801 6.55942 18.3701C6.72942 18.0101 6.95944 17.6301 7.38944 17.7401C7.68944 17.8101 7.98941 18.0901 8.16941 18.3601C8.46941 18.8101 8.66945 19.3201 8.89945 19.8001C9.17945 20.3801 9.09943 20.8001 8.68943 21.0301C8.24943 21.2801 7.85944 21.1201 7.50944 20.5301C7.47944 20.4901 7.4494 20.4401 7.3494 20.3001" fill="white"/>
<path d="M49.5999 29.1901C49.4399 28.2601 49.3299 27.46 49.1699 26.67C49.0599 26.17 49.1899 25.8101 49.5499 25.4601C50.1299 24.9001 50.6699 24.3001 51.2799 23.6601C50.7099 23.5701 50.1599 23.4001 49.6099 23.4001C48.4999 23.4001 47.8399 22.9101 47.4899 21.8701C47.3099 21.3401 47 20.8501 46.71 20.2701C46.59 20.4801 46.53 20.5901 46.46 20.7001C46.19 21.1101 45.78 21.2401 45.39 21.0301C45.01 20.8201 44.8799 20.4201 45.0899 19.9601C45.3599 19.3701 45.6199 18.77 45.9699 18.23C46.1199 17.99 46.46 17.7401 46.71 17.7401C46.96 17.7401 47.2999 18.0101 47.4299 18.2501C47.9899 19.2801 48.47 20.3501 49.01 21.3801C49.11 21.5701 49.3799 21.76 49.5999 21.8C50.7499 22.01 51.92 22.14 53.07 22.36C53.34 22.41 53.7199 22.6501 53.7799 22.8801C53.8499 23.1401 53.71 23.5601 53.51 23.7801C52.75 24.6001 51.9499 25.3801 51.1199 26.1301C50.7799 26.4301 50.75 26.7401 50.82 27.1301C51.02 28.2101 51.2199 29.2901 51.3599 30.3801C51.3999 30.6701 51.27 31.0901 51.06 31.2601C50.87 31.4101 50.4199 31.3901 50.1699 31.2601C49.1299 30.7701 48.1199 30.2201 47.0999 29.6601C46.7999 29.4901 46.55 29.4701 46.26 29.6601C46.04 29.8101 45.7899 29.9301 45.5399 30.0301C45.1199 30.2001 44.75 30.1201 44.51 29.7101C44.29 29.3401 44.4199 28.8801 44.8399 28.6401C45.3199 28.3601 45.81 28.0701 46.33 27.8801C46.58 27.7901 46.94 27.8401 47.19 27.9501C47.96 28.3001 48.6899 28.7201 49.5899 29.1801" fill="white"/>
<path d="M27.8591 48.6801C27.8591 49.4201 27.8591 50.1601 27.8591 50.9001C27.8591 51.4701 27.5591 51.8201 27.0991 51.8401C26.6291 51.8601 26.2991 51.4801 26.2891 50.8901C26.2891 49.4101 26.2891 47.9301 26.2891 46.4501C26.2891 45.9001 26.6191 45.5401 27.0791 45.5401C27.5391 45.5401 27.8491 45.9001 27.8591 46.4601C27.8591 47.2001 27.8591 47.9401 27.8591 48.6801Z" fill="white"/>
<path d="M27.8591 3.9201C27.8591 4.6601 27.8591 5.40014 27.8591 6.14014C27.8591 6.73014 27.5791 7.05012 27.0991 7.06012C26.5891 7.07012 26.2991 6.74013 26.2891 6.13013C26.2891 4.67013 26.2891 3.21012 26.2891 1.75012C26.2891 1.14012 26.5891 0.80011 27.0791 0.80011C27.5691 0.80011 27.8491 1.15013 27.8491 1.76013C27.8491 2.48013 27.8491 3.2001 27.8491 3.9201" fill="white"/>
<path d="M42.1692 40.48C42.4692 40.66 42.7093 40.7501 42.8793 40.9101C43.6193 41.6501 44.3392 42.4001 45.0492 43.1601C45.4292 43.5601 45.4392 44.04 45.1092 44.36C44.7592 44.69 44.3292 44.6601 43.9292 44.2501C43.1892 43.4901 42.4392 42.7401 41.7392 41.9501C41.5592 41.7501 41.4792 41.3501 41.5392 41.0901C41.5992 40.8601 41.9292 40.7001 42.1692 40.4901" fill="white"/>
<path d="M37.4994 49.2402C37.2894 49.4502 37.1093 49.7402 36.8593 49.8602C36.5193 50.0202 36.1394 49.8802 35.9894 49.5302C35.5094 48.4502 35.0394 47.3602 34.6194 46.2502C34.4694 45.8502 34.6594 45.4802 35.0694 45.3302C35.4394 45.1902 35.8294 45.2802 35.9994 45.6602C36.4894 46.7402 36.9294 47.8402 37.3894 48.9302C37.4194 48.9902 37.4093 49.0702 37.4093 49.1402C37.4393 49.1702 37.4694 49.2002 37.4994 49.2302" fill="white"/>
<path d="M35.9398 7.27021C35.2298 7.27021 34.8298 6.8002 35.0198 6.3202C35.4298 5.2902 35.8898 4.2702 36.3798 3.2602C36.5598 2.8902 36.9397 2.7502 37.3497 2.9502C37.7597 3.1502 37.9298 3.49018 37.7498 3.93018C37.3398 4.89018 36.9297 5.85022 36.4697 6.78022C36.3497 7.02022 36.0598 7.16019 35.9498 7.25019" fill="white"/>
<path d="M19.1395 46.1101C19.0895 46.2601 19.0594 46.4201 18.9994 46.5701C18.6394 47.4101 18.2794 48.2601 17.9094 49.0901C17.6594 49.6501 17.2594 49.8501 16.8094 49.6601C16.3794 49.4801 16.2494 49.0201 16.4794 48.4701C16.8494 47.5901 17.2394 46.7201 17.6194 45.8501C17.7894 45.4601 18.1194 45.2201 18.5294 45.3801C18.7994 45.4901 18.9994 45.7701 19.2294 45.9801C19.1994 46.0201 19.1695 46.0601 19.1495 46.1101" fill="white"/>
<path d="M45.4394 8.77019C45.2794 9.05019 45.1994 9.27016 45.0494 9.43016C44.3894 10.1102 43.7095 10.7902 43.0195 11.4502C42.6595 11.8002 42.1694 11.8202 41.8594 11.5102C41.5494 11.2002 41.5494 10.7202 41.9094 10.3602C42.5894 9.67016 43.2594 8.96018 43.9894 8.32018C44.1994 8.14018 44.6194 8.09019 44.9094 8.15019C45.1194 8.20019 45.2594 8.54019 45.4394 8.77019Z" fill="white"/>
<path d="M11.85 40.8802C12.04 41.0302 12.34 41.1702 12.43 41.3902C12.52 41.6202 12.5 42.0202 12.36 42.1802C11.62 42.9602 10.83 43.7002 10.03 44.4202C9.70002 44.7102 9.31007 44.6402 9.02007 44.3202C8.74007 44.0202 8.71003 43.6202 8.98003 43.3402C9.73003 42.5702 10.5201 41.8302 11.3101 41.1002C11.4201 41.0002 11.6 40.9802 11.86 40.8802" fill="white"/>
<path d="M17.6993 2.73018C17.7993 2.81018 18.0893 2.94023 18.1993 3.16023C18.5993 3.97023 18.9493 4.80021 19.2793 5.63021C19.4693 6.09021 19.2793 6.52019 18.8893 6.68019C18.4693 6.85019 18.0493 6.68021 17.8293 6.20021C17.4793 5.43021 17.1393 4.6502 16.8293 3.8702C16.5793 3.2502 16.8993 2.72018 17.6993 2.73018Z" fill="white"/>
<path d="M9.50976 7.93011C9.78976 8.09011 10.0197 8.17013 10.1797 8.32013C10.7797 8.87013 11.3597 9.43012 11.9397 10.0001C12.3397 10.4001 12.3798 10.8601 12.0698 11.1901C11.7398 11.5401 11.3098 11.5401 10.8798 11.1401C10.2598 10.5601 9.62974 10.0001 9.05974 9.36011C8.88974 9.16011 8.82977 8.7501 8.89977 8.4801C8.94977 8.2701 9.27976 8.12011 9.50976 7.93011Z" fill="white"/>
</svg>
