<svg width="42" height="55" viewBox="0 0 42 55" fill="none" xmlns="http://www.w3.org/2000/svg">
<path d="M2.44086 53.2001H36.2109V5.65009H2.44086V53.2001ZM36.9908 54.8301H1.66083C1.23083 54.8301 0.880859 54.4701 0.880859 54.0101V4.83008C0.880859 4.38008 1.23083 4.01007 1.66083 4.01007H36.9908C37.4208 4.01007 37.7709 4.37008 37.7709 4.83008V54.0101C37.7709 54.4601 37.4208 54.8301 36.9908 54.8301Z" fill="white"/>
<path d="M40.5299 51.4201C40.0999 51.4201 39.7499 51.0602 39.7499 50.6002V2.24011H5.19995C4.76995 2.24011 4.41992 1.88011 4.41992 1.4201C4.41992 0.960105 4.76995 0.600159 5.19995 0.600159H40.5299C40.9599 0.600159 41.3099 0.960105 41.3099 1.4201V50.6002C41.3099 51.0502 40.9599 51.4201 40.5299 51.4201Z" fill="white"/>
<path d="M19.3203 19.3701C19.2603 19.3701 19.2103 19.3702 19.1503 19.3502C18.9803 19.3102 14.9902 18.3401 14.9902 14.8601C14.9902 14.4101 15.3403 14.0401 15.7703 14.0401C16.2003 14.0401 16.5502 14.4001 16.5502 14.8601C16.5502 16.7201 18.6702 17.5101 19.3102 17.7101C19.9502 17.5001 22.0803 16.6601 22.0803 14.8601C22.0803 14.4101 22.4302 14.0401 22.8602 14.0401C23.2902 14.0401 23.6403 14.4001 23.6403 14.8601C23.6403 16.3001 22.9002 17.5401 21.5002 18.4501C20.5202 19.0901 19.5402 19.3402 19.5002 19.3502C19.4402 19.3602 19.3802 19.3701 19.3102 19.3701" fill="white"/>
<path d="M19.3191 19.3701C18.8891 19.3701 18.5391 19.0101 18.5391 18.5501V10.5401C18.5391 10.0901 18.8891 9.72015 19.3191 9.72015C19.7491 9.72015 20.0991 10.0901 20.0991 10.5401V18.5501C20.0991 19.0001 19.7491 19.3701 19.3191 19.3701Z" fill="white"/>
<path d="M19.3201 8.85016C19.0901 8.85016 18.9001 9.0501 18.9001 9.2901C18.9001 9.5301 19.0901 9.7301 19.3201 9.7301C19.5501 9.7301 19.7401 9.5301 19.7401 9.2901C19.7401 9.0501 19.5501 8.85016 19.3201 8.85016ZM19.3201 11.3601C18.2201 11.3601 17.3301 10.4301 17.3301 9.2901C17.3301 8.1501 18.2201 7.22015 19.3201 7.22015C20.4201 7.22015 21.3101 8.1501 21.3101 9.2901C21.3101 10.4301 20.4201 11.3601 19.3201 11.3601Z" fill="white"/>
<path d="M20.7699 14.0102H17.8699C17.4399 14.0102 17.0898 13.6502 17.0898 13.1902C17.0898 12.7302 17.4399 12.3702 17.8699 12.3702H20.7699C21.1999 12.3702 21.5499 12.7402 21.5499 13.1902C21.5499 13.6402 21.1999 14.0102 20.7699 14.0102Z" fill="white"/>
<path d="M10.9995 23.3002H6.7995C6.3695 23.3002 6.01953 22.9402 6.01953 22.4802C6.01953 22.0202 6.3695 21.6602 6.7995 21.6602H10.9995C11.4295 21.6602 11.7795 22.0302 11.7795 22.4802C11.7795 22.9302 11.4295 23.3002 10.9995 23.3002Z" fill="white"/>
<path d="M31.5895 27.92H6.7995C6.3695 27.92 6.01953 27.5601 6.01953 27.1001C6.01953 26.6401 6.3695 26.2801 6.7995 26.2801H31.5895C32.0195 26.2801 32.3695 26.6501 32.3695 27.1001C32.3695 27.5501 32.0195 27.92 31.5895 27.92Z" fill="white"/>
<path d="M31.5895 32.5302H6.7995C6.3695 32.5302 6.01953 32.1702 6.01953 31.7102C6.01953 31.2502 6.3695 30.8902 6.7995 30.8902H31.5895C32.0195 30.8902 32.3695 31.2602 32.3695 31.7102C32.3695 32.1602 32.0195 32.5302 31.5895 32.5302Z" fill="white"/>
<path d="M22.2395 37.1501H6.7995C6.3695 37.1501 6.01953 36.7901 6.01953 36.3301C6.01953 35.8701 6.3695 35.5101 6.7995 35.5101H22.2395C22.6695 35.5101 23.0195 35.8801 23.0195 36.3301C23.0195 36.7801 22.6695 37.1501 22.2395 37.1501Z" fill="white"/>
<path d="M12.8995 41.7602H6.7995C6.3695 41.7602 6.01953 41.4002 6.01953 40.9402C6.01953 40.4802 6.3695 40.1202 6.7995 40.1202H12.8995C13.3295 40.1202 13.6795 40.4802 13.6795 40.9402C13.6795 41.4002 13.3295 41.7602 12.8995 41.7602Z" fill="white"/>
<path d="M16.0295 46.3801H6.7995C6.3695 46.3801 6.01953 46.0201 6.01953 45.5601C6.01953 45.1001 6.3695 44.7401 6.7995 44.7401H16.0295C16.4595 44.7401 16.8095 45.1001 16.8095 45.5601C16.8095 46.0201 16.4595 46.3801 16.0295 46.3801Z" fill="white"/>
<path d="M27.6895 51.4901C24.8395 51.4901 22.5195 49.08 22.5195 46.11C22.5195 43.14 24.8395 40.73 27.6895 40.73C28.0395 40.73 28.3895 40.7701 28.7295 40.8401C29.1495 40.9301 29.4295 41.36 29.3395 41.8C29.2495 42.24 28.8395 42.5301 28.4195 42.4401C28.1795 42.3901 27.9395 42.36 27.6895 42.36C25.6995 42.36 24.0895 44.04 24.0895 46.11C24.0895 48.18 25.6995 49.86 27.6895 49.86C29.6795 49.86 31.2895 48.18 31.2895 46.11C31.2895 45.89 31.2695 45.6601 31.2295 45.4401C31.1495 45.0001 31.4395 44.5701 31.8595 44.4901C32.2895 44.4101 32.6895 44.7101 32.7695 45.1501C32.8195 45.4601 32.8495 45.7801 32.8495 46.1001C32.8495 49.0701 30.5295 51.48 27.6795 51.48" fill="white"/>
<path d="M27.3992 47.6101C27.1892 47.6101 26.9892 47.5201 26.8492 47.3701L25.8692 46.3502C25.5592 46.0302 25.5592 45.5202 25.8692 45.2002C26.1692 44.8802 26.6692 44.8802 26.9792 45.2002L27.3892 45.6301L31.8492 40.6901C32.1492 40.3601 32.6392 40.3502 32.9592 40.6502C33.2792 40.9602 33.2892 41.4801 32.9892 41.8001L27.9792 47.3502C27.8392 47.5102 27.6292 47.6001 27.4192 47.6101H27.4092H27.3992Z" fill="white"/>
</svg>
