<svg width="63" height="60" viewBox="0 0 63 60" fill="none" xmlns="http://www.w3.org/2000/svg">
<path d="M12.9595 53.2102C12.4395 53.2102 12.0195 52.8002 12.0195 52.3002V37.2702C12.0195 36.7702 12.4395 36.3602 12.9595 36.3602C13.4795 36.3602 13.8895 36.7702 13.8895 37.2702V52.3002C13.8895 52.8002 13.4695 53.2102 12.9595 53.2102Z" fill="white"/>
<path d="M5.2397 51.8601C4.85969 51.8601 4.5097 51.6401 4.3697 51.2701C4.2897 51.0701 2.4097 46.2201 0.929698 39.1501C0.849698 38.7701 1.01969 38.3901 1.35969 38.1901L12.4697 31.5601C12.7697 31.3801 13.1497 31.3801 13.4497 31.5601L24.5597 38.1901C24.8897 38.3901 25.0697 38.7701 24.9897 39.1501C23.5197 46.2201 21.6897 50.9701 21.6097 51.1701C21.4297 51.6401 20.8897 51.8801 20.3997 51.7001C19.9197 51.5201 19.6697 51.0001 19.8597 50.5301C19.8797 50.4801 21.6097 45.9901 23.0297 39.4201L12.9597 33.4201L2.88969 39.4201C4.30969 46.0101 6.08969 50.5901 6.10969 50.6301C6.28969 51.1001 6.04971 51.6301 5.56971 51.8001C5.45971 51.8401 5.3497 51.8601 5.2397 51.8601Z" fill="white"/>
<path d="M2.76959 43.8701C2.44959 43.8701 2.1496 43.7201 1.9696 43.4401C1.6996 43.0101 1.8396 42.4501 2.2796 42.1901L9.20959 38.0601C9.64959 37.8001 10.2296 37.9301 10.4996 38.3601C10.7696 38.7901 10.6296 39.3501 10.1896 39.6101L3.25961 43.7401C3.10961 43.8301 2.93959 43.8701 2.76959 43.8701Z" fill="white"/>
<path d="M23.0599 43.81C22.8899 43.81 22.7199 43.77 22.5699 43.68L15.5999 39.5301C15.1599 39.2701 15.0199 38.7101 15.2899 38.2801C15.5599 37.8501 16.1399 37.72 16.5799 37.98L23.5499 42.13C23.9899 42.39 24.1299 42.95 23.8599 43.38C23.6799 43.66 23.3799 43.81 23.0599 43.81Z" fill="white"/>
<path d="M24.97 53.2102C23.24 53.2102 22.34 52.7602 21.54 52.3602C20.84 52.0102 20.24 51.7102 18.96 51.7102C17.68 51.7102 17.08 52.0102 16.38 52.3602C15.58 52.7602 14.68 53.2102 12.95 53.2102C11.22 53.2102 10.32 52.7602 9.51999 52.3602C8.81999 52.0102 8.22 51.7102 6.94 51.7102C5.66 51.7102 5.05999 52.0102 4.35999 52.3602C3.55999 52.7602 2.65999 53.2102 0.929993 53.2102C0.409993 53.2102 0 52.8002 0 52.3002C0 51.8002 0.419993 51.3902 0.929993 51.3902C2.20999 51.3902 2.81001 51.0902 3.51001 50.7402C4.31001 50.3402 5.21 49.8902 6.94 49.8902C8.67 49.8902 9.56999 50.3402 10.37 50.7402C11.07 51.0902 11.67 51.3902 12.95 51.3902C14.23 51.3902 14.83 51.0902 15.53 50.7402C16.33 50.3402 17.23 49.8902 18.96 49.8902C20.69 49.8902 21.59 50.3402 22.39 50.7402C23.09 51.0902 23.69 51.3902 24.97 51.3902C26.25 51.3902 26.85 51.0902 27.55 50.7402C28.35 50.3402 29.25 49.8902 30.98 49.8902C31.5 49.8902 31.91 50.3002 31.91 50.8002C31.91 51.3002 31.49 51.7102 30.98 51.7102C29.71 51.7102 29.1 52.0102 28.4 52.3602C27.6 52.7602 26.7 53.2102 24.97 53.2102Z" fill="white"/>
<path d="M24.97 57.8101C23.24 57.8101 22.34 57.3601 21.54 56.9601C20.84 56.6101 20.24 56.3101 18.96 56.3101C17.68 56.3101 17.08 56.6101 16.38 56.9601C15.58 57.3601 14.68 57.8101 12.95 57.8101C11.22 57.8101 10.32 57.3601 9.51999 56.9601C8.81999 56.6101 8.22 56.3101 6.94 56.3101C5.66 56.3101 5.05999 56.6101 4.35999 56.9601C3.55999 57.3601 2.65999 57.8101 0.929993 57.8101C0.409993 57.8101 0 57.4001 0 56.9001C0 56.4001 0.419993 55.9901 0.929993 55.9901C2.19999 55.9901 2.81001 55.6901 3.51001 55.3401C4.31001 54.9401 5.21 54.4901 6.94 54.4901C8.67 54.4901 9.56999 54.9401 10.37 55.3401C11.07 55.6901 11.67 55.9901 12.95 55.9901C14.23 55.9901 14.83 55.6901 15.53 55.3401C16.33 54.9401 17.23 54.4901 18.96 54.4901C20.69 54.4901 21.59 54.9401 22.39 55.3401C23.09 55.6901 23.69 55.9901 24.97 55.9901C25.49 55.9901 25.9 56.4001 25.9 56.9001C25.9 57.4001 25.48 57.8101 24.97 57.8101Z" fill="white"/>
<path d="M21.0107 37.7901C20.4907 37.7901 20.0707 37.3801 20.0707 36.8801V33.1101H5.8407V36.8801C5.8407 37.3801 5.42071 37.7901 4.91071 37.7901C4.40071 37.7901 3.9707 37.3801 3.9707 36.8801V32.2001C3.9707 31.7001 4.39071 31.2901 4.91071 31.2901H21.0107C21.5307 31.2901 21.9407 31.7001 21.9407 32.2001V36.8801C21.9407 37.3801 21.5207 37.7901 21.0107 37.7901Z" fill="white"/>
<path d="M17.22 33.1201C16.82 33.1201 16.45 32.8701 16.33 32.4801L15.11 28.6501H10.82L9.60004 32.4801C9.45004 32.9601 8.92002 33.2301 8.43002 33.0801C7.94002 32.9301 7.66003 32.4201 7.81003 31.9401L9.23001 27.4702C9.35001 27.0902 9.71003 26.8301 10.12 26.8301H15.79C16.2 26.8301 16.56 27.0902 16.68 27.4702L18.1 31.9401C18.25 32.4201 17.98 32.9301 17.48 33.0801C17.39 33.1101 17.3 33.1201 17.2 33.1201" fill="white"/>
<path d="M34.0494 59.9402C33.5294 59.9402 33.1094 59.5302 33.1094 59.0302V49.2702C33.1094 48.7702 33.5294 48.3602 34.0494 48.3602H60.4994C61.0194 48.3602 61.4294 48.7702 61.4294 49.2702C61.4294 49.7702 61.0094 50.1802 60.4994 50.1802H34.9794V59.0302C34.9794 59.5302 34.5594 59.9402 34.0494 59.9402Z" fill="white"/>
<path d="M48.8807 50.17C48.3707 50.17 47.9606 49.7801 47.9506 49.2801L46.9806 11.5101C46.9706 11.0101 47.3807 10.5901 47.8907 10.5801C48.4107 10.5701 48.8407 10.9701 48.8507 11.4701L49.8207 49.2401C49.8307 49.7401 49.4207 50.16 48.9107 50.17H48.8907" fill="white"/>
<path d="M47.5799 8.51013C47.0799 8.51013 46.6599 8.12013 46.6499 7.63013L46.4599 2.13013H43.0899L42.9899 5.07013C42.9699 5.57013 42.5399 5.96013 42.0199 5.95013C41.4999 5.93013 41.0999 5.51013 41.1199 5.01013L41.2499 1.19012C41.2699 0.700125 41.6799 0.31012 42.1799 0.31012H47.3598C47.8598 0.31012 48.2799 0.700125 48.2899 1.19012L48.5099 7.57013C48.5299 8.07013 48.1198 8.49013 47.6098 8.51013C47.5998 8.51013 47.5899 8.51013 47.5799 8.51013Z" fill="white"/>
<path d="M40.6609 50.1702H40.6309C40.1109 50.1502 39.7109 49.7401 39.7209 49.2301L40.9309 10.2702C40.9509 9.77019 41.3809 9.37018 41.8909 9.39018C42.4109 9.41018 42.8109 9.82019 42.8009 10.3302L41.5909 49.2901C41.5709 49.7801 41.1609 50.1702 40.6609 50.1702Z" fill="white"/>
<path d="M60.4994 50.1701C59.9894 50.1701 59.5694 49.7702 59.5694 49.2802L58.9094 12.4001H56.2294L55.5694 49.2802C55.5694 49.7802 55.1394 50.1801 54.6194 50.1701C54.0994 50.1701 53.6894 49.7501 53.6994 49.2401L54.3694 11.4702C54.3694 10.9702 54.7994 10.5801 55.2994 10.5801H59.8194C60.3294 10.5801 60.7494 10.9802 60.7494 11.4702L61.4194 49.2401C61.4194 49.7401 61.0194 50.1601 60.4994 50.1701H60.4794H60.4994Z" fill="white"/>
<path d="M61.9991 12.4001H50.619C50.099 12.4001 49.679 11.9901 49.679 11.4901C49.679 10.9901 50.099 10.5801 50.619 10.5801H61.0591V4.62012H51.989V7.72015C51.989 8.22015 51.569 8.63013 51.0591 8.63013H8.15906V10.5801H41.799C42.319 10.5801 42.729 10.9901 42.729 11.4901C42.729 11.9901 42.309 12.4001 41.799 12.4001H7.21906C6.69906 12.4001 6.28906 11.9901 6.28906 11.4901V7.72015C6.28906 7.22015 6.70906 6.81012 7.21906 6.81012H50.119V3.71014C50.119 3.21014 50.539 2.80011 51.049 2.80011H61.989C62.509 2.80011 62.919 3.21014 62.919 3.71014V11.4901C62.919 11.9901 62.499 12.4001 61.989 12.4001" fill="white"/>
<path d="M45.4002 22.8801H44.1802C43.9302 22.8801 43.6903 22.7801 43.5103 22.6101C43.3403 22.4301 43.2402 22.2001 43.2402 21.9601L43.3203 17.7202C43.3203 17.2202 43.7503 16.8301 44.2603 16.8301H45.4002C45.9202 16.8301 46.3302 17.2401 46.3302 17.7401C46.3302 18.2401 45.9102 18.6501 45.4002 18.6501H45.1802L45.1402 21.0801H45.4002C45.9202 21.0801 46.3302 21.4901 46.3302 21.9901C46.3302 22.4901 45.9102 22.9001 45.4002 22.9001" fill="white"/>
<path d="M45.5202 33.0201H43.9302C43.6802 33.0201 43.4403 32.9201 43.2603 32.7501C43.0803 32.5701 42.9902 32.3402 42.9902 32.1002L43.0703 27.8601C43.0703 27.3601 43.5002 26.9702 44.0002 26.9702H45.3902C45.9102 26.9702 46.3203 27.3801 46.3203 27.8801C46.3203 28.3801 45.9002 28.7901 45.3902 28.7901H44.9202L44.8802 31.2202H45.5202C46.0402 31.2202 46.4502 31.6301 46.4502 32.1301C46.4502 32.6301 46.0302 33.0401 45.5202 33.0401" fill="white"/>
<path d="M45.65 43.1702H43.69C43.44 43.1702 43.2 43.0702 43.02 42.9002C42.84 42.7202 42.75 42.4902 42.75 42.2502L42.83 38.0102C42.83 37.5102 43.25 37.1202 43.76 37.1202H45.65C46.17 37.1202 46.58 37.5302 46.58 38.0302C46.58 38.5302 46.16 38.9402 45.65 38.9402H44.68L44.64 41.3702H45.65C46.17 41.3702 46.58 41.7802 46.58 42.2802C46.58 42.7802 46.16 43.1902 45.65 43.1902" fill="white"/>
<path d="M57.5709 22.8801C57.0509 22.8801 56.6309 22.4702 56.6309 21.9702V17.7202C56.6309 17.2202 57.0509 16.8101 57.5709 16.8101C58.0909 16.8101 58.5009 17.2202 58.5009 17.7202V21.9702C58.5009 22.4702 58.0809 22.8801 57.5709 22.8801Z" fill="white"/>
<path d="M57.5709 33.0201C57.0509 33.0201 56.6309 32.6101 56.6309 32.1101V27.8601C56.6309 27.3601 57.0509 26.9501 57.5709 26.9501C58.0909 26.9501 58.5009 27.3601 58.5009 27.8601V32.1101C58.5009 32.6101 58.0809 33.0201 57.5709 33.0201Z" fill="white"/>
<path d="M57.5709 43.1701C57.0509 43.1701 56.6309 42.7601 56.6309 42.2601V38.0101C56.6309 37.5101 57.0509 37.1002 57.5709 37.1002C58.0909 37.1002 58.5009 37.5101 58.5009 38.0101V42.2601C58.5009 42.7601 58.0809 43.1701 57.5709 43.1701Z" fill="white"/>
<path d="M41.2293 29.4702C41.0393 29.4702 40.8393 29.4101 40.6693 29.2901L17.1193 12.2202C16.7093 11.9202 16.6193 11.3501 16.9293 10.9501C17.2393 10.5501 17.8193 10.4601 18.2393 10.7601L41.7893 27.8301C42.1993 28.1301 42.2893 28.7002 41.9793 29.1002C41.7993 29.3402 41.5093 29.4702 41.2293 29.4702Z" fill="white"/>
<path d="M41.2309 23.6502C41.0609 23.6502 40.8809 23.6001 40.7209 23.5001L22.8109 12.2501C22.3809 11.9801 22.2509 11.4101 22.5309 10.9901C22.8109 10.5701 23.3909 10.4502 23.8209 10.7202L41.7309 21.9702C42.1609 22.2402 42.291 22.8101 42.011 23.2301C41.8309 23.5001 41.5309 23.6502 41.2209 23.6502" fill="white"/>
<path d="M37.6102 26.8401C37.1102 26.8401 36.7002 26.4601 36.6802 25.9801L36.4402 21.3101L31.0302 21.9801C30.5702 22.0401 30.1402 21.7601 30.0202 21.3301L28.4402 16.0701L22.9802 16.2201C22.4702 16.2401 22.0302 15.8401 22.0202 15.3401C22.0002 14.8401 22.4102 14.4201 22.9302 14.4001L29.1102 14.2301C29.5402 14.2201 29.9102 14.4901 30.0302 14.8801L31.5902 20.0701L37.2102 19.3801C37.4702 19.3501 37.7302 19.4201 37.9302 19.5901C38.1302 19.7501 38.2503 19.9901 38.2603 20.2401L38.5502 25.8901C38.5802 26.3901 38.1802 26.8201 37.6602 26.8501C37.6402 26.8501 37.6302 26.8501 37.6102 26.8501" fill="white"/>
<path d="M7.2207 8.63014C6.7807 8.63014 6.39068 8.33015 6.30068 7.89015C6.20068 7.40015 6.5407 6.92015 7.0407 6.83015L41.9907 0.330154C42.5007 0.240154 42.9907 0.560125 43.0807 1.05012C43.1807 1.54012 42.8407 2.02012 42.3407 2.11012L7.39068 8.61012C7.33068 8.62012 7.27069 8.63014 7.21069 8.63014" fill="white"/>
<path d="M13.05 25.3001C11.51 25.3001 10.25 24.0801 10.25 22.5801C10.25 21.4001 11.03 20.3901 12.11 20.0101V11.4901C12.11 10.9901 12.53 10.5801 13.05 10.5801C13.57 10.5801 13.98 10.9901 13.98 11.4901V20.7701C13.98 21.2701 13.56 21.6801 13.05 21.6801C12.54 21.6801 12.12 22.0801 12.12 22.5801C12.12 23.0801 12.54 23.4801 13.05 23.4801C13.36 23.4801 13.66 23.3301 13.83 23.0701C14.11 22.6501 14.69 22.5301 15.12 22.8001C15.55 23.0701 15.68 23.6401 15.4 24.0601C14.88 24.8401 14 25.3001 13.05 25.3001Z" fill="white"/>
</svg>
