<svg width="352" height="201" viewBox="0 0 352 201" fill="none" xmlns="http://www.w3.org/2000/svg">
<path d="M25.529 46.5841C8.92144 46.5841 2.5293 39.9265 2.5293 27.4077C2.5293 23.3853 3.45189 19.0375 4.64005 16.4024L11.165 15.347C9.5852 18.4468 8.59618 22.9936 8.59618 26.6842C8.59618 36.7005 12.5522 41.7717 26.3189 41.7717H31.9875V16.1369C31.9875 16.1369 37.7225 14.8823 43.9818 14.8823C54.9872 14.8823 58.6777 20.2191 58.6777 29.2464V41.7651H65.3354V46.5774H52.7502V30.0362C52.7502 22.5887 50.0487 19.688 43.3911 19.688C40.6895 19.688 37.8552 20.2124 37.8552 20.2124V46.5708H25.5356L25.529 46.5841ZM19.2696 52.5779C21.1813 52.5779 22.6947 54.0913 22.6947 56.0694C22.6947 57.9147 21.1813 59.4944 19.2696 59.4944C17.3579 59.4944 15.8445 57.9147 15.8445 56.0694C15.8445 54.2241 17.3579 52.5779 19.2696 52.5779ZM28.8213 52.5779C30.6666 52.5779 32.2464 54.0913 32.2464 56.0694C32.2464 57.9147 30.733 59.4944 28.8213 59.4944C26.9096 59.4944 25.3962 57.9147 25.3962 56.0694C25.3962 54.2241 26.9096 52.5779 28.8213 52.5779ZM64.3331 46.5841C63.0122 46.5841 60.377 45.7278 60.377 44.148C60.377 42.701 63.0122 41.7784 64.3331 41.7784H71.316C73.6193 41.7784 75.1393 42.1103 75.1393 42.1103C71.9134 40.0658 70.2605 36.5744 70.2605 30.9722C70.2605 22.4692 75.8628 14.8956 86.7354 14.8956C96.161 14.8956 100.834 20.2323 100.834 29.6579V46.5907H64.3264L64.3331 46.5841ZM94.9064 30.6403C94.9064 22.8011 91.6805 19.7013 86.211 19.7013C80.0844 19.7013 76.3939 24.049 76.3939 30.6403C76.3939 38.1542 79.9516 41.7784 88.3882 41.7784H94.913V30.6403H94.9064ZM86.0119 2.90125C87.9899 2.90125 89.6361 4.48103 89.6361 6.45907C89.6361 8.43711 87.9899 10.0833 86.0119 10.0833C84.0339 10.0833 82.454 8.43711 82.454 6.45907C82.454 4.48103 84.1002 2.90125 86.0119 2.90125Z" fill="white"/>
<path d="M119.754 6.65158C118.24 6.38607 116.72 6.12721 115.074 5.99445V0.591341C119.488 0.133338 123.245 -0.132156 128.449 0.0669756V39.734H135.24V46.5841H119.754V6.65158ZM134.251 39.734H142.223V46.5841H134.251V39.734ZM137.284 43.159C137.284 41.1146 139.919 39.734 141.24 39.734H149.013V15.6191H157.708V39.734H164.499V46.5841H141.24C139.919 46.5841 137.284 45.2632 137.284 43.159ZM153.361 2.50301C155.797 2.50301 157.907 4.54743 157.907 7.04985C157.907 9.55227 155.797 11.5967 153.361 11.5967C150.925 11.5967 148.814 9.48589 148.814 7.04985C148.814 4.61381 150.925 2.50301 153.361 2.50301ZM163.51 39.734H171.482V46.5841H163.51V39.734ZM170.493 46.5841C169.172 46.5841 166.536 45.2632 166.536 43.159C166.536 41.0549 169.172 39.734 170.493 39.734H193.492C193.691 38.1542 193.824 36.3753 193.824 34.7291C193.824 26.359 190.399 22.0777 180.974 22.0777C178.405 22.0777 175.969 22.3432 173.592 22.7348V15.9444C176.095 15.4864 178.929 15.2209 181.763 15.2209C196.592 15.2209 202.453 21.7458 202.453 34.3973C202.453 37.6896 202.121 41.8448 201.331 46.5907H170.493V46.5841ZM209.569 62.3354L210.093 55.2198C210.093 55.2198 215.231 56.3416 220.375 56.3416C227.225 56.3416 231.772 53.7728 231.772 47.5798V46.5907H226.568C213.784 46.5907 208.971 40.6633 208.971 31.3041C208.971 22.675 214.308 14.7629 226.369 14.7629C234.208 14.7629 240.209 17.0662 240.209 17.0662V39.734H246.999V46.5841H240.209V46.7169C240.209 55.8105 234.281 63.1917 219.585 63.1917C214.64 63.1917 209.569 62.3354 209.569 62.3354ZM231.779 22.8012C231.779 22.8012 229.276 21.613 225.519 21.613C220.574 21.613 217.68 25.37 217.68 30.5075C217.68 36.5014 220.647 39.734 227.564 39.734H231.779V22.8012ZM246.01 39.734H253.982V46.5841H246.01V39.734ZM278.495 46.5841C269.003 46.5841 266.043 44.5397 263.733 41.5129C262.544 44.5463 259.909 46.5841 254.373 46.5841H252.993C251.672 46.5841 249.037 45.2632 249.037 43.159C249.037 41.0549 251.672 39.734 252.993 39.734H253.451C257.407 39.734 259.976 37.5568 259.976 30.7731C259.976 22.4029 265.711 14.7629 277.108 14.7629C287.389 14.7629 292.003 20.6904 292.003 29.9168V39.734H297.273V46.5841H278.495ZM283.5 30.9656C283.5 24.3743 280.865 21.6064 276.45 21.6064C271.505 21.6064 268.611 25.3633 268.611 30.5009C268.611 36.6939 271.645 39.7273 278.495 39.7273H283.5V30.9656ZM296.284 39.7273H304.256V46.5775H296.284V39.7273ZM303.267 46.5775C301.946 46.5775 299.311 45.2566 299.311 43.1524C299.311 41.0483 301.946 39.7273 303.267 39.7273H311.04V0.126713H319.735V17.2587C319.735 20.1593 319.536 23.8499 318.945 27.0095H319.078C321.979 19.0376 328.829 14.7563 335.752 14.7563C344.912 14.7563 349.658 20.4249 349.658 29.7177C349.658 39.0105 344.188 46.5841 329.492 46.5841H303.267V46.5775ZM330.282 39.7273C338.52 39.7273 340.757 35.5788 340.757 30.2354C340.757 24.892 338.58 21.6661 333.966 21.6661C326.851 21.6661 320.983 30.4279 319.669 39.7207H330.276L330.282 39.7273Z" fill="white"/>
<path d="M2 71.9866H340.769" stroke="#275A67" stroke-width="2.7812" stroke-linecap="round" stroke-linejoin="round"/>
<path d="M123.921 89.2646L128.441 93.5924L124.1 98.1061L119.58 93.7783L123.921 89.2646Z" fill="white"/>
<path d="M134.275 93.7783L138.796 98.1061L143.137 93.5924L138.61 89.2646L134.275 93.7783Z" fill="white"/>
<path d="M127.904 99.4668L131.429 102.839L134.808 99.3208L131.283 95.9488L127.904 99.4668Z" fill="white"/>
<path d="M140.814 101.398L144.339 104.77L147.718 101.252L144.193 97.8804L140.814 101.398Z" fill="white"/>
<path d="M122.143 104.837L125.667 108.215L129.046 104.697L125.528 101.325L122.143 104.837Z" fill="white"/>
<path d="M133.963 105.248L137.481 108.627L140.859 105.109L137.341 101.737L133.963 105.248Z" fill="white"/>
<path d="M129.338 109.291L131.814 111.667L134.197 109.191L131.714 106.821L129.338 109.291Z" fill="white"/>
<path d="M138.684 111.156L141.159 113.525L143.542 111.056L141.067 108.68L138.684 111.156Z" fill="white"/>
<path d="M166.792 90.9078L159.107 92.3154L160.513 99.9871L168.197 98.5795L166.792 90.9078Z" fill="white"/>
<path d="M155.241 94.3947L149.078 95.5247L150.207 101.681L156.37 100.551L155.241 94.3947Z" fill="white"/>
<path d="M167.148 102.998L160.984 104.128L162.113 110.284L168.276 109.154L167.148 102.998Z" fill="white"/>
<path d="M152.482 105.036L153.359 109.828L158.164 108.952L157.282 104.16L152.482 105.036Z" fill="white"/>
<path d="M161.822 114.136L162.698 118.929L167.504 118.052L166.621 113.26L161.822 114.136Z" fill="white"/>
<path d="M145.287 106.981L146.163 111.773L150.969 110.904L150.086 106.111L145.287 106.981Z" fill="white"/>
<path d="M158.816 112.3L154.018 113.18L154.897 117.972L159.696 117.092L158.816 112.3Z" fill="white"/>
<path d="M151.274 113.17L147.898 113.789L148.518 117.164L151.893 116.545L151.274 113.17Z" fill="white"/>
<path d="M157.743 120.231L154.367 120.847L154.982 124.216L158.358 123.6L157.743 120.231Z" fill="white"/>
<path d="M181.972 117.496L178.615 124.536L185.667 127.898L189.024 120.858L181.972 117.496Z" fill="white"/>
<path d="M171.939 114.222L169.244 119.871L174.906 122.559L177.594 116.911L171.939 114.222Z" fill="white"/>
<path d="M176.565 128.142L173.877 133.79L179.539 136.479L182.234 130.83L176.565 128.142Z" fill="white"/>
<path d="M169.15 123.9L167.053 128.301L171.46 130.392L173.558 125.998L169.15 123.9Z" fill="white"/>
<path d="M171.387 136.738L169.289 141.138L173.697 143.236L175.794 138.835L171.387 136.738Z" fill="white"/>
<path d="M162.174 121.285L160.07 125.686L164.484 127.777L166.582 123.376L162.174 121.285Z" fill="white"/>
<path d="M165.567 131.461L163.463 135.861L167.87 137.952L169.968 133.551L165.567 131.461Z" fill="white"/>
<path d="M160.263 128.361L158.783 131.454L161.883 132.928L163.363 129.834L160.263 128.361Z" fill="white"/>
<path d="M161.386 137.747L159.914 140.839L163.012 142.315L164.485 139.222L161.386 137.747Z" fill="white"/>
<path d="M185.753 151.201L178.902 154.951L182.666 161.788L189.509 158.038L185.753 151.201Z" fill="white"/>
<path d="M179.539 142.712L174.043 145.725L177.056 151.208L182.559 148.201L179.539 142.712Z" fill="white"/>
<path d="M175.137 156.704L169.641 159.711L172.654 165.2L178.15 162.193L175.137 156.704Z" fill="white"/>
<path d="M171.607 148.938L167.326 151.281L169.676 155.549L173.957 153.206L171.607 148.938Z" fill="white"/>
<path d="M165.892 160.653L161.617 162.996L163.96 167.271L168.242 164.928L165.892 160.653Z" fill="white"/>
<path d="M167.485 142.738L163.203 145.081L165.553 149.356L169.834 147.006L167.485 142.738Z" fill="white"/>
<path d="M164.266 152.973L159.984 155.317L162.334 159.585L166.609 157.242L164.266 152.973Z" fill="white"/>
<path d="M161.783 147.358L158.77 149.011L160.429 152.018L163.436 150.365L161.783 147.358Z" fill="white"/>
<path d="M157.203 155.702L154.189 157.348L155.842 160.355L158.856 158.708L157.203 155.702Z" fill="white"/>
<path d="M161.29 179.804L160.334 187.545L168.088 188.502L169.044 180.762L161.29 179.804Z" fill="white"/>
<path d="M162.764 169.478L161.996 175.69L168.215 176.459L168.983 170.247L162.764 169.478Z" fill="white"/>
<path d="M150.991 178.258L150.223 184.47L156.441 185.239L157.21 179.027L150.991 178.258Z" fill="white"/>
<path d="M154.003 170.026L153.406 174.861L158.248 175.459L158.845 170.624L154.003 170.026Z" fill="white"/>
<path d="M142.503 176.197L141.906 181.033L146.755 181.631L147.352 176.796L142.503 176.197Z" fill="white"/>
<path d="M154.321 162.61L153.721 167.445L158.562 168.046L159.163 163.211L154.321 162.61Z" fill="white"/>
<path d="M145.724 169.037L145.123 173.872L149.965 174.474L150.565 169.639L145.724 169.037Z" fill="white"/>
<path d="M148.416 163.211L147.996 166.61L151.402 167.031L151.822 163.632L148.416 163.211Z" fill="white"/>
<path d="M139.91 167.357L139.49 170.756L142.903 171.178L143.322 167.779L139.91 167.357Z" fill="white"/>
<path d="M138.199 195.003L132.471 189.7L127.154 195.415L132.883 200.719L138.199 195.003Z" fill="white"/>
<path d="M137.143 85.7599L131.414 80.4564L126.098 86.1714L131.826 91.475L137.143 85.7599Z" fill="white"/>
<path d="M144.313 186.441L139.719 182.186L135.451 186.773L140.051 191.028L144.313 186.441Z" fill="white"/>
<path d="M129.623 186.686L125.023 182.432L120.762 187.018L125.355 191.273L129.623 186.686Z" fill="white"/>
<path d="M135.889 180.892L132.318 177.579L128.992 181.144L132.57 184.463L135.889 180.892Z" fill="white"/>
<path d="M122.953 179.179L119.376 175.867L116.057 179.431L119.634 182.75L122.953 179.179Z" fill="white"/>
<path d="M140.483 175.037L136.911 171.718L133.586 175.289L137.164 178.602L140.483 175.037Z" fill="white"/>
<path d="M129.742 175.21L126.165 171.898L122.846 175.462L126.417 178.781L129.742 175.21Z" fill="white"/>
<path d="M134.29 171.094L131.774 168.758L129.438 171.274L131.96 173.604L134.29 171.094Z" fill="white"/>
<path d="M124.917 169.382L122.401 167.052L120.064 169.561L122.58 171.891L124.917 169.382Z" fill="white"/>
<path d="M103.315 180.807L95.6543 182.341L97.1865 189.989L104.847 188.454L103.315 180.807Z" fill="white"/>
<path d="M113.58 178.985L107.436 180.214L108.663 186.352L114.807 185.123L113.58 178.985Z" fill="white"/>
<path d="M101.533 170.55L95.3828 171.784L96.6147 177.921L102.765 176.687L101.533 170.55Z" fill="white"/>
<path d="M111.224 175.734L110.268 170.955L105.482 171.911L106.445 176.683L111.224 175.734Z" fill="white"/>
<path d="M117.434 168.855L112.65 169.814L113.608 174.591L118.392 173.632L117.434 168.855Z" fill="white"/>
<path d="M108.61 162.757L103.826 163.716L104.784 168.493L109.568 167.534L108.61 162.757Z" fill="white"/>
<path d="M114.982 163.559L111.617 164.233L112.29 167.591L115.655 166.917L114.982 163.559Z" fill="white"/>
<path d="M108.378 156.693L105.014 157.367L105.687 160.726L109.051 160.051L108.378 156.693Z" fill="white"/>
<path d="M81.5523 163.78L84.7915 156.684L77.6826 153.451L74.4434 160.54L81.5523 163.78Z" fill="white"/>
<path d="M91.6225 166.866L94.2245 161.171L88.516 158.576L85.9141 164.278L91.6225 166.866Z" fill="white"/>
<path d="M86.7565 153.027L89.3585 147.338L83.6501 144.743L81.0547 150.438L86.7565 153.027Z" fill="white"/>
<path d="M91.7775 150.629L89.7578 155.063L94.1976 157.085L96.2173 152.652L91.7775 150.629Z" fill="white"/>
<path d="M100.193 168.227L102.217 163.793L97.7765 161.775L95.752 166.209L100.193 168.227Z" fill="white"/>
<path d="M91.8008 144.344L93.8187 139.91L89.3781 137.893L87.3535 142.327L91.8008 144.344Z" fill="white"/>
<path d="M101.267 159.644L103.285 155.217L98.8507 153.193L96.8262 157.627L101.267 159.644Z" fill="white"/>
<path d="M97.7102 149.522L99.7347 145.094L95.2941 143.07L93.2695 147.504L97.7102 149.522Z" fill="white"/>
<path d="M101.371 147.997L99.9473 151.12L103.069 152.544L104.494 149.422L101.371 147.997Z" fill="white"/>
<path d="M100.034 138.578L98.6094 141.701L101.732 143.125L103.156 140.003L100.034 138.578Z" fill="white"/>
<path d="M77.192 130.12L83.9824 126.257L80.106 119.48L73.3223 123.349L77.192 130.12Z" fill="white"/>
<path d="M83.5451 138.503L88.9947 135.41L85.8882 129.967L80.4453 133.074L83.5451 138.503Z" fill="white"/>
<path d="M87.7198 124.445L93.1627 121.345L90.0563 115.908L84.6133 119.008L87.7198 124.445Z" fill="white"/>
<path d="M91.3779 132.151L95.6127 129.735L93.1966 125.507L88.9551 127.916L91.3779 132.151Z" fill="white"/>
<path d="M96.8915 120.342L101.126 117.926L98.7103 113.698L94.4688 116.108L96.8915 120.342Z" fill="white"/>
<path d="M95.5978 138.278L99.8393 135.868L97.4232 131.64L93.1816 134.049L95.5978 138.278Z" fill="white"/>
<path d="M98.6513 127.996L102.886 125.586L100.47 121.351L96.2285 123.767L98.6513 127.996Z" fill="white"/>
<path d="M101.221 133.565L104.208 131.872L102.508 128.892L99.5215 130.584L101.221 133.565Z" fill="white"/>
<path d="M105.667 125.148L108.647 123.449L106.948 120.475L103.961 122.174L105.667 125.148Z" fill="white"/>
<path d="M94.2735 92.552L93.4434 100.307L101.212 101.139L102.042 93.3835L94.2735 92.552Z" fill="white"/>
<path d="M94.2504 104.55L93.5859 110.768L99.8165 111.433L100.481 105.216L94.2504 104.55Z" fill="white"/>
<path d="M105.942 95.6111L105.275 101.835L111.506 102.502L112.172 96.2781L105.942 95.6111Z" fill="white"/>
<path d="M104.218 105.361L103.699 110.206L108.557 110.726L109.075 105.881L104.218 105.361Z" fill="white"/>
<path d="M115.682 99.0472L115.166 103.892L120.017 104.409L120.533 99.5639L115.682 99.0472Z" fill="white"/>
<path d="M103.993 112.77L103.475 117.615L108.326 118.134L108.844 113.29L103.993 112.77Z" fill="white"/>
<path d="M112.487 106.212L111.969 111.057L116.82 111.576L117.338 106.732L112.487 106.212Z" fill="white"/>
<path d="M111.254 113.717L110.889 117.122L114.301 117.488L114.666 114.082L111.254 113.717Z" fill="white"/>
<path d="M119.805 109.498L119.443 112.904L122.856 113.267L123.217 109.861L119.805 109.498Z" fill="white"/>
<path d="M156.267 145.38C155.689 145.048 154.627 144.504 153.167 144.039C151.056 143.369 148.122 142.864 144.644 143.415C143.469 143.601 142.241 143.906 140.954 144.364C140.827 144.411 140.708 144.451 140.582 144.497C139.931 144.743 139.281 145.035 138.63 145.367C138.073 145.652 137.522 145.957 136.964 146.289C135.703 147.046 134.455 147.916 133.247 148.838C131.88 140.528 132.544 132.808 132.862 129.018C132.862 128.991 132.889 128.985 132.909 128.998C135.856 130.85 135.026 136.027 134.409 137.508C134.396 137.541 134.442 137.561 134.462 137.534C138.133 133.2 136.34 128.421 135.59 127.206C135.57 127.173 135.61 127.153 135.637 127.166C136.168 127.597 136.599 128.056 136.964 128.52C138.099 129.967 138.511 131.534 138.63 132.914C138.69 133.644 138.67 134.322 138.63 134.899C138.617 135.052 138.604 135.204 138.597 135.344C138.597 135.37 138.617 135.37 138.63 135.37C138.637 135.37 138.644 135.37 138.65 135.357C139.639 133.412 140.117 130.472 138.63 127.617C138.225 126.847 137.681 126.077 136.964 125.334C136.759 125.122 136.54 124.909 136.294 124.703C136.274 124.684 136.294 124.644 136.32 124.65C136.539 124.703 136.752 124.763 136.958 124.836C137.582 125.055 138.139 125.354 138.624 125.712C139.739 126.535 140.496 127.664 140.947 128.839C141.319 129.808 141.491 130.81 141.485 131.7C141.485 131.733 141.531 131.739 141.538 131.706C142.228 129.171 141.817 127.259 140.94 125.858C140.323 124.863 139.467 124.126 138.617 123.615C138.033 123.27 137.456 123.024 136.951 122.871C136.652 122.785 136.387 122.719 136.155 122.692C136.121 122.692 136.128 122.639 136.161 122.632C136.44 122.606 136.699 122.593 136.951 122.593C137.568 122.579 138.119 122.632 138.617 122.725C139.6 122.911 140.363 123.256 140.94 123.648C141.876 124.279 142.341 125.009 142.5 125.314C142.513 125.341 142.56 125.327 142.553 125.294C142.421 123.953 141.803 122.911 140.94 122.161C140.277 121.577 139.46 121.172 138.617 120.933C138.066 120.781 137.502 120.701 136.951 120.694C136.201 120.694 135.484 120.814 134.867 121.066C134.84 121.079 134.82 121.046 134.834 121.019C135.371 120.25 136.141 119.772 136.951 119.526C137.509 119.36 138.086 119.294 138.617 119.327C139.128 119.36 139.599 119.473 139.984 119.645C140.011 119.659 140.038 119.626 140.018 119.599C139.6 119.121 139.122 118.749 138.617 118.471C138.086 118.179 137.522 117.993 136.951 117.926C135.464 117.754 133.951 118.391 132.942 119.911C132.929 119.931 132.902 119.931 132.889 119.911C132.696 119.566 132.51 119.181 132.338 118.783C131.94 117.847 131.608 116.798 131.435 115.756C131.428 115.723 131.389 115.723 131.382 115.756C131.203 116.805 130.871 117.86 130.466 118.796C130.293 119.194 130.108 119.572 129.922 119.911C129.908 119.931 129.882 119.931 129.875 119.911C128.116 117.249 124.811 117.296 122.799 119.599C122.78 119.626 122.799 119.659 122.833 119.645C124.18 119.008 126.709 119.194 127.977 121.019C127.99 121.046 127.97 121.079 127.937 121.066C125.979 120.243 122.952 120.781 121.339 122.699C120.755 123.383 120.363 124.245 120.257 125.288C120.257 125.321 120.297 125.334 120.31 125.307C120.436 125.069 120.748 124.564 121.339 124.053C122.282 123.223 123.928 122.374 126.656 122.626C126.689 122.626 126.696 122.679 126.663 122.686C125.262 122.858 122.401 124.099 121.339 126.94C120.868 128.195 120.748 129.768 121.279 131.7C121.286 131.733 121.333 131.726 121.333 131.693C121.333 131.653 121.333 131.607 121.339 131.56C121.366 128.978 122.846 125.52 126.497 124.637C126.53 124.63 126.55 124.67 126.523 124.69C122.434 128.281 122.839 132.722 124.173 135.337C124.187 135.364 124.233 135.35 124.227 135.324C124.054 133.346 123.908 129.814 127.187 127.146C127.213 127.126 127.253 127.146 127.233 127.186C126.477 128.394 124.685 133.18 128.355 137.514C128.375 137.541 128.422 137.521 128.408 137.488C127.791 136.007 126.968 130.83 129.908 128.978C129.928 128.965 129.948 128.978 129.955 128.998C130.274 132.788 130.944 140.501 129.57 148.818C127.2 147.006 124.704 145.406 122.235 144.477C121.93 144.364 121.631 144.265 121.333 144.165C118.777 143.329 116.44 143.09 114.403 143.183C111.13 143.329 108.621 144.305 107.247 144.995C106.969 145.134 106.736 145.26 106.55 145.367C106.477 145.406 106.53 145.519 106.61 145.493C106.822 145.426 107.035 145.367 107.241 145.307C109.763 144.597 112.139 144.404 114.396 144.603C116.859 144.816 119.169 145.499 121.326 146.469C124.353 147.829 127.101 149.781 129.577 151.838C126.079 154.885 123.125 157.852 121.326 158.888C121.233 158.941 121.147 158.987 121.06 159.034C120.629 158.443 119.885 158.104 119.069 158.284C118.359 158.436 117.781 159.007 117.622 159.711C117.476 160.341 117.642 161.025 118 161.377C118.956 162.333 120.058 162.399 121.326 161.861C123.742 160.846 126.756 157.64 130.453 154.261C130.758 153.976 131.077 153.69 131.395 153.412C131.714 153.69 132.026 153.976 132.331 154.255C134.011 155.788 135.544 157.288 136.944 158.556C137.522 159.08 138.079 159.565 138.611 160.003C139.434 160.68 140.21 161.231 140.934 161.616C142.348 162.359 143.575 162.452 144.624 161.536C144.684 161.49 144.737 161.443 144.797 161.383C145.042 161.145 145.315 160.355 145.175 159.717C145.089 159.352 144.896 159.027 144.631 158.775C144.385 158.536 144.073 158.37 143.735 158.29C142.918 158.111 142.175 158.45 141.743 159.04C141.505 158.914 141.232 158.755 140.947 158.556C140.29 158.098 139.507 157.454 138.624 156.684C138.099 156.226 137.542 155.722 136.958 155.19C135.816 154.155 134.561 153.007 133.234 151.845C134.415 150.863 135.657 149.913 136.958 149.031C137.502 148.659 138.053 148.307 138.624 147.969C139.374 147.524 140.15 147.106 140.947 146.727C142.135 146.163 143.363 145.679 144.638 145.314C147.279 144.564 150.114 144.298 153.16 144.783C154.149 144.942 155.158 145.174 156.194 145.499C156.273 145.526 156.333 145.42 156.254 145.373" fill="white"/>
<path d="M251.998 158.164V157.905C251.998 141.351 240.129 134.985 228.009 132.941L250.597 111.421V96.6524H190.24V113.459H221.192L232.675 106.085L204.02 134.853L207.087 147.331H215.251C226.223 147.331 232.735 151.407 232.735 158.669V158.921C232.735 165.545 227.505 169.747 220.103 169.747C211.043 169.747 204.664 165.93 198.537 159.047L185.01 171.911C192.663 180.951 203.768 187.324 219.845 187.324C239.751 187.324 251.998 174.971 251.998 158.158" fill="white"/>
<path d="M70.5281 168.858H36.47L22.8427 175.608L26.6328 172.688L46.1544 157.646C61.9787 145.42 69.632 138.039 69.632 123.137V122.885C69.632 106.204 57.3854 95.378 38.8795 95.378C22.929 95.378 14.3796 101.876 5.578 113.844L19.3579 124.922C25.989 116.771 30.715 112.955 37.605 112.955C44.4949 112.955 49.5993 117.03 49.5993 124.544C49.5993 132.058 45.265 136.771 34.1601 145.937L4.42969 170.258V185.797H70.5281V168.858Z" fill="white"/>
<path d="M331.455 141.484C331.455 156.764 320.483 169.243 304.659 169.243C288.834 169.243 277.61 156.511 277.61 141.225V140.966C277.61 125.686 288.589 113.207 304.407 113.207C320.224 113.207 331.455 125.938 331.455 141.218V141.477V141.484ZM304.659 95.1257C277.099 95.1257 257.066 115.882 257.066 141.225V141.484C257.066 166.826 276.84 187.33 304.407 187.33C331.973 187.33 351.999 166.574 351.999 141.225V140.966C351.999 115.623 332.219 95.1257 304.665 95.1257" fill="white"/>
</svg>
