<svg width="137" height="122" viewBox="0 0 137 122" fill="none" xmlns="http://www.w3.org/2000/svg">
<path d="M93.8238 13.9325H40.4729V24.3277H93.8238V13.9325ZM60.8741 10.0031H74.0674V4.43744H60.8741V10.0031ZM87.4856 66.0182C86.853 65.3856 85.9772 64.9963 85.0039 64.9963C84.0307 64.9963 83.1548 65.3917 82.5162 66.0182C81.8836 66.6508 81.4942 67.5328 81.4942 68.4999C81.4942 69.467 81.8836 70.349 82.5162 70.9877C83.1488 71.6203 84.0246 72.0096 84.9979 72.0096C85.9711 72.0096 86.8409 71.6203 87.4795 70.9877C88.1121 70.3551 88.5076 69.4792 88.5076 68.506C88.5076 67.5328 88.1121 66.6629 87.4795 66.0303L87.4856 66.0182ZM85.0039 61.0669C87.0477 61.0669 88.909 61.9002 90.2533 63.2445H90.2594C91.6036 64.5888 92.4369 66.45 92.4369 68.4938C92.4369 70.5376 91.6036 72.405 90.2594 73.7492C88.9151 75.0935 87.0538 75.9268 85.0039 75.9268C82.9541 75.9268 81.0928 75.0935 79.7485 73.7492C78.4043 72.3989 77.571 70.5437 77.571 68.4938C77.571 66.444 78.4043 64.5948 79.7485 63.2506H79.7546C81.0989 61.9002 82.9602 61.0669 85.0039 61.0669ZM73.9517 115.397C74.1586 114.983 74.3837 114.491 74.6148 113.974C75.4907 112.009 76.47 109.813 78.5016 108.42C80.1987 107.259 82.9845 106.675 85.7035 106.675C88.4224 106.675 90.9588 107.204 92.6681 108.262C95.6121 104.71 98.7872 101.395 101.962 98.0798C112.157 87.4352 122.351 76.7905 124.097 58.4879L70.363 45.1486V115.403H73.9517V115.397ZM44.3354 108.518L44.4753 108.42C46.1723 107.259 48.9581 106.675 51.6771 106.675C54.396 106.675 57.188 107.259 58.879 108.42C60.9167 109.819 61.8899 112.009 62.7658 113.974C62.997 114.491 63.2159 114.99 63.4288 115.397H66.4275V45.1425L12.6873 58.4818C14.4391 76.7845 24.6337 87.4291 34.8282 98.0737C38.0763 101.468 41.3305 104.862 44.3354 108.512M68.6903 121.474C67.2487 121.486 66.0017 121.316 64.9129 121.011H64.9008C63.7511 120.689 62.784 120.227 61.9629 119.679C60.6247 118.779 59.9435 117.252 59.1892 115.561C58.5262 114.077 57.7841 112.417 56.6649 111.65C55.6369 110.945 53.6904 110.592 51.671 110.592C49.6516 110.592 47.7051 110.945 46.6772 111.65C45.558 112.417 44.8159 114.077 44.1529 115.561C43.3986 117.252 42.7113 118.791 41.3731 119.679C39.5666 120.884 37.0909 121.486 34.6578 121.486C32.2248 121.486 29.7492 120.878 27.9305 119.673C26.5984 118.785 25.9171 117.252 25.1628 115.561C24.4998 114.077 23.7577 112.417 22.6385 111.65C21.6166 110.945 19.6641 110.592 17.6447 110.592C15.6253 110.592 13.6788 110.945 12.6509 111.65C11.5317 112.417 10.7896 114.077 10.1266 115.561C9.3723 117.252 8.68492 118.791 7.34674 119.679C6.5195 120.227 5.55239 120.695 4.41494 121.011H4.40276C3.31397 121.316 2.06095 121.486 0.613281 121.474L0.643724 117.563C1.69602 117.575 2.59015 117.453 3.35656 117.24C4.0804 117.033 4.6765 116.747 5.18744 116.413C5.57673 116.151 6.04509 115.111 6.54995 113.968C7.42585 112.003 8.40517 109.807 10.4368 108.414C12.1338 107.252 14.9197 106.669 17.6386 106.669C20.3576 106.669 23.1495 107.252 24.8404 108.414C26.8781 109.813 27.8514 112.003 28.7334 113.974C29.2443 115.123 29.7066 116.157 30.1019 116.425C31.2394 117.185 32.9243 117.569 34.6457 117.569C36.3671 117.569 38.0519 117.179 39.2016 116.419C39.5909 116.157 40.0593 115.117 40.5642 113.974C40.9169 113.183 41.2879 112.356 41.732 111.559C38.6846 107.8 35.333 104.296 31.9815 100.799C20.9962 89.3269 10.0049 77.8489 8.63025 57.1071L8.52072 55.4769L10.1144 55.0816L26.2334 51.0792V24.3155H36.5253V9.99699H56.9264V0.501968H77.9724V9.99699H97.7289V24.3155H109.56V50.842L126.64 55.0816L128.233 55.4769L128.124 57.1071C126.743 77.8489 115.758 89.3208 104.766 100.799C101.537 104.169 98.3128 107.538 95.3566 111.139C95.9223 112.064 96.3541 113.049 96.7738 113.98C97.2848 115.13 97.7471 116.164 98.1424 116.431C99.2799 117.191 100.965 117.575 102.686 117.575C104.408 117.575 106.093 117.185 107.242 116.425C107.631 116.164 108.1 115.123 108.605 113.98C109.481 112.015 110.46 109.819 112.491 108.426C114.189 107.265 116.974 106.681 119.693 106.681C122.412 106.681 125.204 107.265 126.895 108.426C128.927 109.825 129.906 112.015 130.782 113.98C131.287 115.117 131.749 116.157 132.144 116.431C132.655 116.766 133.258 117.052 133.975 117.252C134.742 117.465 135.636 117.587 136.688 117.575L136.719 121.486C135.271 121.498 134.012 121.334 132.923 121.024H132.917C131.78 120.707 130.812 120.239 129.985 119.691H129.979C128.647 118.797 127.966 117.265 127.211 115.574C126.548 114.089 125.806 112.429 124.687 111.662C123.659 110.957 121.707 110.604 119.693 110.604C117.68 110.604 115.721 110.957 114.699 111.662C113.58 112.429 112.844 114.089 112.175 115.574C111.421 117.265 110.734 118.803 109.395 119.691C107.589 120.896 105.113 121.498 102.68 121.498C100.247 121.498 97.7714 120.89 95.9588 119.685C94.6267 118.797 93.9454 117.265 93.1912 115.574C92.5282 114.089 91.7861 112.429 90.6669 111.662C89.645 110.957 87.6925 110.604 85.673 110.604C83.6536 110.604 81.7072 110.957 80.6792 111.662C79.56 112.429 78.8179 114.089 78.1549 115.574C77.4006 117.265 76.7194 118.797 75.3873 119.685H75.3812C74.554 120.239 73.5868 120.707 72.4493 121.024H72.4433C71.3545 121.328 70.1075 121.498 68.6599 121.486M58.7756 37.0587H50.9228V33.1293H58.7756V37.0587ZM70.5577 37.0587H62.7049V33.1293H70.5577V37.0587ZM82.3336 37.0587H74.4809V33.1293H82.3336V37.0587ZM94.1157 37.0587H86.263V33.1293H94.1157V37.0587ZM46.9996 37.0587H39.1468V33.1293H46.9996V37.0587ZM70.3326 41.1158L105.624 49.8748V28.251H30.1567V50.1121L66.4093 41.1158L68.374 40.6292L70.3387 41.1158H70.3326Z" fill="#CDDC29"/>
</svg>
