<svg width="116" height="116" viewBox="0 0 116 116" fill="none" xmlns="http://www.w3.org/2000/svg">
<path d="M56.8713 59.2543C57.1815 59.5645 57.589 59.7165 57.9965 59.7165C58.4041 59.7165 58.8178 59.5584 59.128 59.2482L79.8515 38.3969C80.1435 38.0988 80.3138 37.7034 80.3138 37.2837L80.4112 26.3654L94.1944 12.5821V19.4798C94.1944 20.3618 94.9061 21.0735 95.788 21.0735H103.86L88.6106 36.3227C87.9841 36.9492 87.9841 37.9589 88.6106 38.5793C89.231 39.1998 90.2468 39.1998 90.8672 38.5793L108.841 20.6051C109.298 20.1489 109.438 19.4616 109.188 18.8655C108.939 18.2694 108.361 17.8801 107.71 17.8801H97.3817V8.72569C97.3817 8.08093 96.9924 7.49701 96.3963 7.2537C95.8002 7.00432 95.1129 7.1442 94.6567 7.6004L77.6922 24.5649C77.3941 24.863 77.2299 25.2583 77.2239 25.678L77.1265 36.6025L56.8591 56.9915C56.2387 57.618 56.2387 58.6277 56.8652 59.2482" fill="#CDDC29"/>
<path d="M57.9974 38.7193C58.8794 38.7193 59.591 38.0076 59.591 37.1256C59.591 36.2436 58.8794 35.532 57.9974 35.532C45.5401 35.532 35.4004 45.6657 35.4004 58.1229C35.4004 70.5802 45.534 80.7138 57.9974 80.7138C70.4607 80.7138 80.5883 70.5802 80.5883 58.1229C80.5883 57.2409 79.8767 56.5293 78.9947 56.5293C78.1127 56.5293 77.401 57.2409 77.401 58.1229C77.401 68.8223 68.6968 77.5265 57.9974 77.5265C47.298 77.5265 38.5938 68.8223 38.5938 58.1229C38.5938 47.4235 47.298 38.7193 57.9974 38.7193Z" fill="#CDDC29"/>
<path d="M61.7813 19.8022C61.8299 18.9202 61.1547 18.1721 60.2788 18.1173C59.5246 18.0747 58.7582 18.0565 58.0039 18.0565C35.9117 18.0565 17.9375 36.0307 17.9375 58.1229C17.9375 80.2151 35.9117 98.1893 58.0039 98.1893C80.0961 98.1893 98.0703 80.2151 98.0703 58.1229C98.0703 57.174 98.0339 56.213 97.9669 55.2641C97.9061 54.3821 97.1397 53.7252 96.2638 53.786C95.3879 53.8468 94.7249 54.6132 94.7857 55.4891C94.8466 56.3589 94.8769 57.247 94.8769 58.1229C94.8769 78.4572 78.3382 94.9959 58.0039 94.9959C37.6696 94.9959 21.1309 78.4572 21.1309 58.1229C21.1309 37.7886 37.6696 21.2499 58.0039 21.2499C58.7034 21.2499 59.409 21.2681 60.1025 21.3107C60.9844 21.3594 61.7387 20.6842 61.7874 19.8083" fill="#CDDC29"/>
<path d="M113.106 41.2496C112.851 40.4102 111.957 39.9358 111.111 40.1912C110.266 40.4467 109.791 41.3409 110.053 42.1864C111.628 47.3323 112.425 52.6911 112.425 58.1229C112.425 88.1347 88.0094 112.55 57.9976 112.55C27.9859 112.55 3.57011 88.1347 3.57011 58.1229C3.57011 28.1111 27.9859 3.69536 57.9976 3.69536C63.2895 3.69536 68.5146 4.4496 73.5388 5.94593C74.3843 6.19532 75.2724 5.71479 75.5218 4.86931C75.7712 4.02382 75.2906 3.13574 74.4451 2.88636C69.1289 1.30487 63.5937 0.501968 57.9976 0.501968C42.6085 0.501968 28.1379 6.49337 17.2561 17.3752C6.37422 28.2571 0.382812 42.7277 0.382812 58.1168C0.382812 73.5059 6.37422 87.9765 17.2561 98.8584C28.1379 109.74 42.6085 115.732 57.9976 115.732C73.3867 115.732 87.8574 109.74 98.7393 98.8584C109.621 87.9765 115.613 73.5059 115.613 58.1168C115.613 52.3687 114.767 46.6936 113.1 41.2436" fill="#CDDC29"/>
</svg>
