<svg width="85" height="85" viewBox="0 0 85 85" fill="none" xmlns="http://www.w3.org/2000/svg">
<path d="M13.3883 13.29C16.3583 13.29 18.7383 10.9 18.7383 7.92999C18.7383 4.99999 16.3582 2.63 13.4282 2.62C10.4982 2.61 8.09827 4.98001 8.07827 7.89001C8.05827 10.87 10.4383 13.28 13.3983 13.28M14.4082 0C14.7982 0.12 15.1883 0.230006 15.5783 0.350006C19.2583 1.41001 21.7582 5.07 21.2982 8.72C20.7882 12.8 17.5583 15.8 13.5783 15.87C9.62827 15.94 6.25831 13.12 5.61831 9.20999C4.93831 5.02999 7.63825 1.10999 11.8083 0.209991C12.0183 0.169991 12.2182 0.0800098 12.4182 0.0100098H14.4082V0Z" fill="#06B2E1"/>
<path d="M77.038 7.95999C77.038 5.02999 74.6681 2.64 71.7481 2.63C68.7781 2.61 66.3681 4.99999 66.3681 7.95999C66.3681 10.89 68.738 13.28 71.658 13.3C74.628 13.31 77.038 10.93 77.038 7.97M72.6981 0.0200195C73.1181 0.14002 73.5281 0.260015 73.9481 0.390015C77.9081 1.57001 80.268 5.54001 79.438 9.64001C78.668 13.48 74.8081 16.31 70.9581 15.86C66.7481 15.38 63.678 11.91 63.788 7.75C63.878 4.12 66.5081 0.990011 70.0981 0.230011C70.3081 0.190011 70.5081 0.0999988 70.7081 0.0299988H72.6981V0.0200195Z" fill="#06B2E1"/>
<path d="M42.5187 10.6199C48.8587 10.6599 54.6887 12.3899 59.9887 15.8699C60.2587 16.0499 60.5587 16.2399 60.7487 16.4999C61.1287 17.0299 61.1086 17.5999 60.6686 18.0899C60.2286 18.5799 59.6787 18.6799 59.0987 18.3399C58.1987 17.8099 57.3386 17.1999 56.4086 16.7299C46.2286 11.5699 36.2587 11.9999 26.5287 17.9599C26.4087 18.0299 26.2986 18.1099 26.1786 18.1899C25.3586 18.6899 24.6586 18.5999 24.2186 17.9499C23.7886 17.2999 23.9887 16.5799 24.7587 16.0499C27.7487 14.0199 31.0087 12.5599 34.4987 11.6499C37.1187 10.9699 39.7987 10.6099 42.5187 10.6299" fill="#06B2E1"/>
<path d="M8.06836 34.44H18.7384C18.7384 33.15 18.7384 31.92 18.7384 30.68C18.7384 29.96 19.0384 29.45 19.7384 29.24C20.5584 29 21.3084 29.66 21.3284 30.65C21.3484 31.91 21.3284 33.17 21.3284 34.45C21.6484 34.47 21.8684 34.48 22.0884 34.49C23.6384 34.51 24.0483 34.1 24.0483 32.55C24.0483 30.59 24.0583 28.63 24.0483 26.67C24.0383 24.78 22.9884 23.3 21.2184 22.74C19.7984 22.29 18.3784 21.88 16.9384 21.5C16.6884 21.43 16.2984 21.54 16.0984 21.71C15.5184 22.21 14.9984 22.8 14.4384 23.33C13.7284 23.99 13.1083 23.99 12.4083 23.33C11.8483 22.8 11.3284 22.22 10.7484 21.71C10.5584 21.55 10.2084 21.42 9.97839 21.48C8.43839 21.9 6.88843 22.31 5.38843 22.84C3.81843 23.4 2.87835 24.6 2.80835 26.26C2.70835 28.54 2.76833 30.84 2.78833 33.13C2.78833 33.86 3.20833 34.34 3.90833 34.46C4.40833 34.54 4.9284 34.48 5.4884 34.48C5.4884 33.19 5.4884 32.01 5.4884 30.83C5.4884 29.83 5.96841 29.23 6.74841 29.21C7.55841 29.19 8.06836 29.81 8.06836 30.85C8.06836 32.03 8.06836 33.21 8.06836 34.45M0.148438 25.69C0.148438 25.69 0.238413 25.61 0.248413 25.56C0.888413 22.45 2.86842 20.72 5.87842 19.98C7.31842 19.63 8.73833 19.18 10.1583 18.72C10.8283 18.51 11.3483 18.64 11.8083 19.13C12.2983 19.65 12.7684 20.19 13.4584 20.95C14.0384 20.26 14.4884 19.71 14.9584 19.18C15.4284 18.65 15.9683 18.51 16.6683 18.73C18.3983 19.28 20.1584 19.75 21.8984 20.28C24.7284 21.15 26.5884 23.63 26.6184 26.59C26.6384 28.74 26.6384 30.9 26.6184 33.05C26.5984 35.38 24.9084 37.08 22.5884 37.09C16.4584 37.11 10.3284 37.1 4.19836 37.09C2.36836 37.09 0.918389 35.99 0.348389 34.26C0.298389 34.11 0.218438 33.97 0.148438 33.82V25.7V25.69Z" fill="#06B2E1"/>
<path d="M66.3794 34.44H77.0493C77.0493 33.12 77.0493 31.8499 77.0493 30.5899C77.0493 29.9399 77.3494 29.38 77.9794 29.3C78.4194 29.25 78.9794 29.48 79.3394 29.76C79.5694 29.94 79.6094 30.46 79.6194 30.83C79.6494 32.03 79.6294 33.24 79.6294 34.49C79.9994 34.49 80.2394 34.49 80.4894 34.49C81.9294 34.49 82.3494 34.07 82.3494 32.61C82.3494 30.59 82.3594 28.58 82.3494 26.56C82.3294 24.79 81.3094 23.37 79.6394 22.79C78.8094 22.5 77.8994 22.38 77.1194 21.99C75.3894 21.14 74.0494 21.47 72.9994 23.06C72.9194 23.17 72.8094 23.26 72.7094 23.35C72.0194 23.96 71.4094 23.97 70.7394 23.35C70.1694 22.82 69.6594 22.24 69.0794 21.73C68.8894 21.56 68.5393 21.41 68.3193 21.47C66.7493 21.89 65.1694 22.31 63.6494 22.86C62.1094 23.41 61.1994 24.61 61.1194 26.24C61.0194 28.53 61.0794 30.82 61.0894 33.11C61.0894 33.88 61.5294 34.36 62.2794 34.47C62.7494 34.54 63.2493 34.48 63.7993 34.48C63.7993 33.19 63.7993 32.01 63.7993 30.83C63.7993 29.82 64.2693 29.22 65.0493 29.2C65.8593 29.17 66.3794 29.7999 66.3794 30.8399C66.3794 32.0199 66.3794 33.2 66.3794 34.44ZM84.9694 33.8C84.8994 33.97 84.8094 34.14 84.7494 34.32C84.1794 35.97 82.7494 37.06 80.9994 37.07C74.8194 37.09 68.6294 37.09 62.4494 37.07C60.2294 37.07 58.5294 35.3299 58.4994 33.1199C58.4794 30.9099 58.4694 28.7 58.4994 26.5C58.5394 23.64 60.3994 21.15 63.1294 20.3C64.8894 19.75 66.6793 19.28 68.4393 18.73C69.1393 18.51 69.6793 18.66 70.1593 19.17C70.6293 19.68 71.0794 20.19 71.6294 20.79C72.2094 20.22 72.6894 19.78 73.1294 19.3C73.6894 18.68 74.2994 18.48 75.1194 18.76C76.6894 19.28 78.2794 19.7199 79.8694 20.1799C82.5494 20.9499 84.2193 22.66 84.8093 25.41C84.8293 25.51 84.9094 25.6 84.9594 25.69V33.8099L84.9694 33.8Z" fill="#06B2E1"/>
<path d="M74.3276 42.7599C73.9076 53.4699 69.5176 62.0799 60.8076 68.4099C59.9576 69.0299 59.1777 68.9599 58.7177 68.2699C58.2677 67.5999 58.4776 66.9299 59.3176 66.3199C66.1976 61.3499 70.2777 54.6499 71.4977 46.2599C71.7277 44.6799 71.6877 43.0699 71.7377 41.4699C71.7677 40.3999 72.1877 39.7999 73.0177 39.7899C73.8477 39.7899 74.3076 40.3599 74.3276 41.4399C74.3276 41.8799 74.3276 42.3199 74.3276 42.7599Z" fill="#06B2E1"/>
<path d="M13.3691 42.77C13.7491 52.46 17.6991 60.29 25.5091 66.12C25.6691 66.23 25.8291 66.34 25.9791 66.46C26.6691 67 26.8191 67.72 26.3891 68.33C25.9391 68.95 25.2191 69.06 24.4891 68.55C21.1391 66.23 18.319 63.38 16.079 59.97C12.409 54.39 10.669 48.25 10.789 41.58C10.789 41.2 10.7891 40.7 11.0091 40.48C11.3391 40.15 11.869 39.86 12.319 39.85C12.899 39.85 13.3091 40.32 13.3591 40.94C13.3991 41.54 13.3591 42.15 13.3591 42.76" fill="#06B2E1"/>
<path d="M42.5587 60.99C45.4787 60.99 47.8788 58.61 47.8888 55.7C47.8988 52.72 45.5187 50.33 42.5587 50.33C39.6287 50.33 37.2387 52.6999 37.2287 55.6199C37.2187 58.5899 39.5987 60.99 42.5587 60.99ZM50.4787 55.7C50.4487 60.04 46.8787 63.5799 42.5387 63.5699C38.1787 63.5599 34.6088 59.9499 34.6488 55.5699C34.6888 51.2499 38.2988 47.7 42.6288 47.74C46.9688 47.78 50.5087 51.36 50.4787 55.7Z" fill="#06B2E1"/>
<path d="M50.4677 82.2H51.3877C52.7277 82.2 53.1877 81.76 53.1877 80.43C53.1877 78.39 53.1977 76.34 53.1877 74.3C53.1677 72.5 52.1277 71.06 50.4177 70.48C49.7177 70.24 48.9878 70.05 48.2778 69.84C47.4078 69.58 46.4477 68.99 45.6777 69.17C44.9077 69.35 44.3377 70.31 43.6677 70.93C43.6277 70.97 43.5877 71.01 43.5477 71.05C42.8377 71.69 42.2178 71.69 41.5178 71.02C40.9578 70.49 40.4377 69.91 39.8577 69.4C39.6777 69.24 39.3177 69.13 39.0877 69.19C37.5677 69.6 36.0577 70.02 34.5677 70.52C32.9877 71.06 32.0277 72.25 31.9477 73.91C31.8377 76.22 31.8977 78.55 31.9177 80.87C31.9177 81.64 32.4677 82.14 33.2377 82.19C33.6677 82.22 34.1077 82.19 34.6177 82.19C34.6177 80.97 34.6177 79.85 34.6177 78.72C34.6177 78.44 34.5877 78.16 34.6677 77.9C34.8577 77.25 35.3077 76.87 36.0077 76.9C36.6877 76.93 37.1777 77.49 37.1977 78.25C37.2177 79.54 37.1977 80.82 37.1977 82.14H47.8677C47.8677 80.91 47.8677 79.73 47.8677 78.55C47.8677 77.5 48.3677 76.88 49.1777 76.89C49.9877 76.9 50.4477 77.52 50.4577 78.58C50.4577 79.74 50.4577 80.89 50.4577 82.18M32.5977 84.8C32.1777 84.61 31.7377 84.45 31.3277 84.23C30.2277 83.61 29.4277 82.66 29.3877 81.41C29.3077 78.66 29.2077 75.88 29.4877 73.15C29.7477 70.51 31.4977 68.8 34.0077 67.97C35.7377 67.4 37.4977 66.96 39.2377 66.41C39.9677 66.18 40.5278 66.34 41.0178 66.88C41.4778 67.39 41.9378 67.9 42.5278 68.55C43.1278 67.89 43.5877 67.39 44.0477 66.88C44.5377 66.34 45.0977 66.17 45.8277 66.41C47.5577 66.96 49.3177 67.43 51.0577 67.96C53.8677 68.82 55.7177 71.32 55.7477 74.29C55.7677 76.33 55.7477 78.38 55.7477 80.42C55.7477 82.67 54.8277 83.92 52.6677 84.66C52.5977 84.68 52.5377 84.75 52.4677 84.8H32.5877H32.5977Z" fill="#06B2E1"/>
</svg>
