<svg width="101" height="78" viewBox="0 0 101 78" fill="none" xmlns="http://www.w3.org/2000/svg">
<path d="M3.60443 33.3101H19.6945V29.2601C18.0745 28.7501 16.4745 28.5001 15.1345 27.7601C13.7645 27.0101 12.6645 25.7801 11.3745 24.7101C7.68445 26.3501 4.48443 29.8201 3.60443 33.3101ZM90.4645 24.6901C89.1045 25.8101 87.9844 27.0401 86.6144 27.7801C85.2444 28.5201 83.6145 28.7601 82.0845 29.2301V33.3101H98.2945C96.8245 29.1601 94.0545 26.3901 90.4645 24.7001M87.7444 11.3501C87.8044 8.47006 85.9445 6.07006 83.3145 5.63006C80.4545 5.15006 77.7045 6.76007 77.0145 9.52007C76.3945 12.0001 76.9245 14.3301 78.5645 16.3301C80.5445 18.7401 83.7545 18.8001 85.8445 16.4901C87.1545 15.0401 87.7044 13.2901 87.7444 11.3501ZM14.0645 11.2701C14.0845 13.1601 14.5945 14.8801 15.8345 16.3501C17.9345 18.8401 21.2945 18.8001 23.3345 16.2601C24.4245 14.9001 24.9045 13.3201 25.0145 11.5901C25.2145 8.35008 22.9145 5.68008 19.8145 5.59008C16.4645 5.50008 14.0345 7.91007 14.0745 11.2701M21.8644 31.2301C22.1144 33.2201 22.2145 35.2501 22.6445 37.2101C26.9645 57.0201 49.5644 66.3901 66.6144 55.4801C68.3144 54.3901 69.1145 54.4801 70.5345 56.0001C74.0945 59.8001 77.6445 63.6201 81.2045 67.4201C83.2345 69.5901 85.2345 71.7901 87.2945 73.9301C88.8045 75.5001 91.1145 74.9901 91.7845 72.9701C92.1745 71.8001 91.6145 70.9301 90.8445 70.1101C85.3545 64.2401 79.8745 58.3701 74.3845 52.5001C72.9345 50.9501 72.8744 50.1401 74.1144 48.4701C79.4144 41.2501 81.1144 33.2901 79.1044 24.5401C75.7644 10.0001 61.2445 0.190068 46.5945 2.58007C32.2845 4.91007 22.0445 16.8501 21.8745 31.2401M19.9944 35.6801H18.7145C13.3545 35.6801 8.00447 35.6801 2.64447 35.6801C0.904473 35.6801 0.594517 35.2901 1.06452 33.6401C2.64452 28.0601 6.28452 24.3601 11.5645 22.1401C12.5545 21.7201 12.9745 22.2201 13.3945 22.9501C14.7745 25.3301 16.7945 26.6301 19.5845 26.6101C19.7245 26.6101 19.8644 26.5701 19.9744 26.5601C20.5144 24.4401 21.0545 22.3701 21.5845 20.3001C15.0645 21.0201 10.4245 15.6201 12.0045 9.15007C12.8345 5.77007 16.0944 3.25006 19.6044 3.26006C23.1344 3.28006 26.3345 5.82006 27.1345 9.23006C27.2345 9.65006 27.3145 10.0801 27.4345 10.6301C33.7845 3.69006 41.6045 0.0200811 50.9145 8.10893e-05C60.2345 -0.0199189 68.0445 3.66007 74.4145 10.6401C74.5845 9.95007 74.6944 9.36006 74.8644 8.79006C76.0744 4.84006 80.0344 2.56008 84.1144 3.47008C87.9744 4.33008 90.6545 8.26006 90.0345 12.2901C89.8645 13.4001 89.6145 14.5401 89.1745 15.5701C87.6145 19.2701 84.7445 20.7501 80.2745 20.2801C80.8145 22.3501 81.3445 24.4201 81.9145 26.5901C84.6345 26.7501 86.7444 25.6301 88.2444 23.3201C89.3144 21.6801 89.3244 21.6401 91.1044 22.4701C95.9844 24.7501 99.3445 28.3701 100.805 33.6201C101.265 35.2801 100.974 35.6601 99.2444 35.6601C93.8844 35.6601 88.5245 35.6601 83.1745 35.6601H81.8445C80.9645 41.1401 78.9545 46.0401 75.5745 50.3901C77.7945 52.7701 79.9645 55.1001 82.1345 57.4301C85.6645 61.2101 89.2144 64.9801 92.7244 68.7801C94.6444 70.8601 94.6644 73.7201 92.8544 75.6401C90.9044 77.7201 87.7645 77.7301 85.7145 75.5801C82.6545 72.3701 79.6444 69.1001 76.6144 65.8501C73.9144 62.9601 71.2045 60.0601 68.4545 57.1301C58.8445 63.1701 48.7344 64.2701 38.3544 59.6901C27.9944 55.1201 22.0145 46.9301 20.0045 35.6901" fill="#06B2E1"/>
<path d="M27.9156 30.9701C27.7856 43.8201 37.9556 54.2201 50.7856 54.3401C63.6256 54.4601 73.9357 44.2601 74.0857 31.2701C74.2257 18.8301 63.9456 8.35012 51.4756 8.22012C38.4256 8.08012 28.0456 18.1101 27.9156 30.9801M25.5957 30.9901C25.5957 17.2801 37.1057 5.87012 50.9357 5.87012C64.8957 5.87012 76.4557 17.3001 76.4257 31.0901C76.3957 45.2501 65.0057 56.7001 50.9457 56.6801C36.8657 56.6701 25.5956 45.2401 25.6056 30.9801" fill="#06B2E1"/>
<path d="M56.464 19.0601C56.514 16.1201 54.5739 13.7701 51.7539 13.3401C49.1439 12.9401 46.4339 14.6201 45.7539 17.2401C45.1039 19.7601 45.644 22.1301 47.324 24.1401C49.404 26.6101 52.834 26.5101 54.824 23.9601C55.944 22.5301 56.454 20.8701 56.464 19.0501M58.7939 19.3201C58.6839 21.4701 58.034 23.7201 56.424 25.6201C53.894 28.5901 49.8639 29.0701 46.7639 26.7601C43.5739 24.3901 42.2339 19.1101 43.9139 15.5201C45.4539 12.2201 49.144 10.3901 52.684 11.1801C56.304 11.9801 58.854 15.2501 58.804 19.3201" fill="#06B2E1"/>
<path d="M43.0442 32.3601C39.1942 34.2001 36.4441 36.9501 34.9941 41.0401H66.9242C65.8942 37.3901 62.3942 33.6501 58.9242 32.4501C54.7142 38.4201 46.6742 37.8101 43.0342 32.3601M50.8941 43.4601C45.2441 43.4601 39.5942 43.4601 33.9442 43.4601C32.4242 43.4601 32.0442 43.0401 32.4242 41.6301C33.9642 35.8501 37.7042 32.0501 43.1642 29.8301C44.0842 29.4501 44.4242 30.0501 44.7842 30.6701C45.9441 32.7001 47.6241 34.0001 49.9841 34.3001C53.0141 34.6801 55.3541 33.5501 56.9941 30.9901C57.9741 29.4601 57.9842 29.4201 59.5842 30.1501C64.5242 32.3901 67.9542 35.9801 69.4542 41.2801C69.9642 43.0901 69.6842 43.4701 67.8442 43.4701H50.8941" fill="#06B2E1"/>
</svg>
