<svg width="95" height="90" viewBox="0 0 95 90" fill="none" xmlns="http://www.w3.org/2000/svg">
<path d="M49.3202 5.5C49.3202 6.8 49.3202 8.09999 49.3202 9.39999C49.3102 10.44 48.8402 11 47.9802 11.01C47.0902 11.03 46.5602 10.45 46.5602 9.38C46.5502 6.81001 46.5502 4.23998 46.5602 1.66998C46.5602 0.599983 47.0901 0 47.9601 0C48.8201 0 49.3202 0.610002 49.3202 1.69C49.3202 2.96 49.3202 4.23 49.3202 5.5Z" fill="#06B2E1"/>
<path d="M31.4395 3.39998C31.6095 3.53998 32.1195 3.76999 32.3095 4.15999C33.0095 5.57999 33.6294 7.03997 34.2194 8.50997C34.5494 9.31997 34.2195 10.08 33.5395 10.36C32.7895 10.66 32.0595 10.36 31.6795 9.50997C31.0695 8.14997 30.4695 6.78999 29.9095 5.40999C29.4595 4.30999 30.0395 3.38998 31.4395 3.39998Z" fill="#06B2E1"/>
<path d="M63.5499 11.4C62.3099 11.4 61.5899 10.57 61.9299 9.73002C62.6599 7.91002 63.4599 6.11005 64.3199 4.35005C64.6399 3.69005 65.3098 3.45004 66.0298 3.81004C66.7498 4.17004 67.0598 4.77005 66.7298 5.54005C66.0098 7.23005 65.2798 8.92005 64.4798 10.5701C64.2798 10.9801 63.7499 11.24 63.5599 11.4" fill="#06B2E1"/>
<path d="M17.0199 12.5701C17.5199 12.8501 17.9199 12.9901 18.1999 13.2501C19.2499 14.2101 20.2799 15.2001 21.2999 16.2101C22.0099 16.9101 22.0799 17.7201 21.5299 18.3101C20.9399 18.9301 20.1899 18.9201 19.4299 18.2201C18.3399 17.2001 17.2199 16.2001 16.2299 15.0901C15.9199 14.7501 15.8199 14.02 15.9399 13.55C16.0399 13.18 16.6099 12.92 17.0099 12.58" fill="#06B2E1"/>
<path d="M80.2795 14.04C79.9995 14.53 79.8494 14.93 79.5894 15.2C78.4194 16.41 77.2195 17.59 76.0195 18.75C75.3795 19.37 74.5294 19.4 73.9794 18.86C73.4294 18.32 73.4395 17.47 74.0595 16.83C75.2595 15.61 76.4394 14.36 77.7294 13.24C78.0994 12.92 78.8394 12.83 79.3394 12.94C79.6994 13.02 79.9495 13.63 80.2795 14.03" fill="#06B2E1"/>
<path d="M64.7208 41.6099C64.6408 41.5099 64.5708 41.3999 64.4908 41.2999C64.3508 41.2499 64.2208 41.1599 64.0808 41.1399C60.9108 40.6799 57.7409 40.1999 54.5709 39.7899C53.6609 39.6699 53.0708 39.2899 52.6708 38.4499C51.6608 36.2999 50.5908 34.1699 49.5308 32.0399C49.0908 31.1399 48.6308 30.2499 48.1108 29.2099C47.8708 29.6699 47.7008 29.9599 47.5508 30.2699C46.1808 33.0299 44.8108 35.7699 43.4708 38.5399C43.1308 39.2399 42.6608 39.6399 41.9008 39.7399C39.5408 40.0599 37.1908 40.3999 34.8408 40.7399C33.7908 40.8899 32.7509 41.0699 31.7009 41.2299C31.6409 41.3399 31.5808 41.4499 31.5208 41.5599C31.7908 41.7299 32.0909 41.8699 32.3109 42.0799C34.5009 44.1999 36.6608 46.3499 38.8708 48.4499C39.5208 49.0699 39.7408 49.7199 39.5808 50.5699C39.2908 52.1599 39.0208 53.7499 38.7408 55.3499C38.4408 57.0899 38.1509 58.8299 37.8209 60.7799C38.2909 60.5499 38.5708 60.4199 38.8408 60.2799C41.4808 58.8999 44.1408 57.5499 46.7508 56.0999C47.7408 55.5499 48.5408 55.5899 49.5008 56.1099C52.1108 57.5399 54.7708 58.8999 57.4108 60.2799C57.6808 60.4199 57.9508 60.5499 58.3508 60.7399C58.3108 60.3799 58.3008 60.1999 58.2708 60.0199C57.7408 56.9599 57.2408 53.8899 56.6708 50.8399C56.4708 49.7599 56.7308 48.9899 57.5508 48.2299C59.6208 46.3099 61.6108 44.2999 63.6408 42.3399C63.9508 42.0399 64.3608 41.8399 64.7308 41.5899M69.1308 40.5199C68.9408 40.7899 68.7008 41.2299 68.3508 41.5699C65.6108 44.2699 62.8708 46.9499 60.0908 49.6199C59.5808 50.1099 59.4109 50.5499 59.5508 51.2799C60.2509 55.0499 60.8808 58.8399 61.5208 62.6199C61.6308 63.2799 61.6908 63.9599 61.0408 64.4399C60.3808 64.9099 59.7909 64.6599 59.1809 64.3299C55.7609 62.5199 52.3308 60.7399 48.9208 58.9099C48.3408 58.5999 47.9108 58.6199 47.3508 58.9299C44.0008 60.7199 40.6208 62.4799 37.2508 64.2499C36.5908 64.5899 35.9508 64.9799 35.2208 64.4499C34.4808 63.9199 34.6508 63.1799 34.7708 62.4499C35.4108 58.6699 36.0408 54.8799 36.7308 51.1099C36.8508 50.4699 36.6508 50.1099 36.2408 49.7099C33.4808 47.0399 30.7308 44.3499 27.9808 41.6699C27.4708 41.1699 26.9408 40.6799 27.2308 39.8699C27.5108 39.0899 28.1608 38.9499 28.9008 38.8499C32.7608 38.3099 36.6208 37.7499 40.4708 37.1399C40.8708 37.0799 41.3408 36.6499 41.5308 36.2699C43.2708 32.8499 44.9508 29.3999 46.6408 25.9599C46.9608 25.3099 47.3008 24.6899 48.1308 24.6799C48.9608 24.6799 49.3108 25.2799 49.6308 25.9399C51.3208 29.3899 53.0308 32.8199 54.7108 36.2699C55.0108 36.8899 55.4008 37.1199 56.0808 37.2099C59.9808 37.7399 63.8608 38.3299 67.7508 38.8899C68.5908 39.0099 69.0608 39.4699 69.1608 40.5399" fill="#06B2E1"/>
<path d="M28.6705 32.77C28.3105 33.47 28.0205 34.02 27.7505 34.58C27.0205 36.06 26.2506 37.52 25.5706 39.02C25.1806 39.87 24.6105 40.25 23.6905 40.37C21.4705 40.65 19.2505 41.01 16.8605 41.36C17.1705 41.71 17.3704 41.94 17.5804 42.15C19.0304 43.57 20.4805 45 21.9405 46.41C22.4905 46.94 22.6705 47.5 22.5205 48.29C22.0905 50.56 21.7406 52.84 21.3206 55.35C22.1906 54.9 22.8705 54.54 23.5605 54.18C24.9605 53.44 26.3805 52.73 27.7705 51.97C28.3905 51.63 28.9606 51.62 29.5706 51.97C30.3406 52.4 31.1505 52.78 31.9205 53.23C32.6905 53.68 32.9205 54.38 32.5605 55.08C32.1905 55.81 31.3505 56.15 30.6305 55.61C29.1605 54.52 27.9305 54.87 26.5105 55.73C24.5905 56.89 22.5405 57.84 20.5505 58.9C19.9305 59.23 19.3205 59.45 18.6805 58.99C18.0305 58.52 18.0806 57.85 18.2006 57.17C18.6706 54.45 19.1405 51.74 19.6405 49.02C19.7505 48.4 19.6005 47.96 19.1305 47.51C17.1505 45.63 15.2105 43.7 13.2605 41.8C12.7505 41.3 12.2505 40.8 12.5105 39.99C12.7805 39.18 13.4805 39.06 14.1805 38.96C16.9105 38.56 19.6405 38.14 22.3705 37.8C23.0105 37.72 23.3005 37.43 23.5505 36.9C24.7305 34.44 25.9605 32 27.1605 29.55C27.4805 28.91 27.8005 28.27 28.6405 28.25C29.4805 28.24 29.8305 28.83 30.1505 29.49C30.8405 30.92 31.5605 32.33 32.2405 33.76C32.6905 34.71 32.4706 35.5 31.7006 35.86C30.9506 36.21 30.2705 35.9 29.7805 34.97C29.4305 34.3 29.1005 33.62 28.6705 32.78" fill="#06B2E1"/>
<path d="M78.6706 41.33C76.4806 41.01 74.3006 40.6301 72.1006 40.3801C71.0906 40.2601 70.5106 39.82 70.0906 38.92C69.3006 37.19 68.4207 35.5 67.5707 33.8C67.4307 33.52 67.2806 33.2501 67.0406 32.8101C66.6306 33.6201 66.2907 34.2801 65.9507 34.9301C65.4407 35.9101 64.7406 36.22 63.9706 35.83C63.2106 35.45 63.0306 34.68 63.5006 33.7C64.2106 32.21 64.9006 30.7101 65.7106 29.2801C65.9706 28.8301 66.5906 28.3201 67.0506 28.3201C67.5006 28.3201 68.1306 28.84 68.3706 29.3C69.6806 31.8 70.9206 34.3401 72.1406 36.8801C72.4206 37.4501 72.7406 37.72 73.4106 37.8C76.1206 38.14 78.8106 38.56 81.5106 38.95C82.2106 39.05 82.9307 39.17 83.1907 39.98C83.4407 40.77 82.9906 41.29 82.4606 41.8C80.4706 43.72 78.4806 45.6301 76.5406 47.6001C76.2506 47.9001 76.0406 48.4901 76.1006 48.9001C76.5206 51.6301 77.0306 54.3401 77.4806 57.0601C77.6006 57.7501 77.7206 58.47 77.0306 58.98C76.3506 59.47 75.7206 59.1801 75.0806 58.8401C72.6706 57.5601 70.2406 56.31 67.8406 55.01C67.2806 54.71 66.8206 54.6301 66.2706 55.0001C65.8806 55.2601 65.4406 55.4701 65.0006 55.6601C64.2106 56.0001 63.4506 55.7601 63.1306 55.0601C62.7806 54.3001 63.0107 53.67 63.7007 53.26C64.6007 52.73 65.5206 52.2001 66.5006 51.8401C66.9306 51.6801 67.5706 51.8201 68.0106 52.0301C69.8006 52.9101 71.5606 53.87 73.3306 54.8C73.6106 54.94 73.8906 55.07 74.3506 55.3C74.1206 53.89 73.9206 52.6301 73.7106 51.3801C73.5406 50.3501 73.4006 49.3101 73.1706 48.2901C72.9806 47.4701 73.2506 46.9001 73.8306 46.3401C75.2106 45.0301 76.5606 43.68 77.9306 42.36C78.2006 42.1 78.5207 41.89 78.8207 41.67C78.7607 41.56 78.7106 41.4501 78.6506 41.3401" fill="#06B2E1"/>
<path d="M13.1703 34.3399C12.4703 35.7499 11.8004 37.0399 11.1904 38.3599C10.8304 39.1299 10.3104 39.5199 9.45038 39.6099C8.04038 39.7599 6.64026 40.0099 5.08026 40.2499C5.28026 40.5299 5.40036 40.7299 5.56036 40.8899C6.42036 41.7399 7.26034 42.61 8.16034 43.41C8.87034 44.03 9.02028 44.74 8.85028 45.63C8.58028 47.02 8.37027 48.4199 8.09027 50.0299C9.58027 49.2499 10.8803 48.5999 12.1403 47.8899C12.8803 47.4699 13.5503 47.4599 14.2803 47.8899C14.9903 48.3099 15.7503 48.65 16.4603 49.07C17.1603 49.49 17.4103 50.3199 17.0203 50.9499C16.5903 51.6599 15.9504 51.7799 15.2004 51.4899C15.1704 51.4799 15.1403 51.4699 15.1103 51.4499C13.7003 50.2399 12.3903 50.7199 11.0103 51.5899C9.78031 52.3599 8.47031 53.0299 7.13031 53.6199C6.65031 53.8299 5.88028 53.8699 5.48028 53.6199C5.13028 53.3999 4.91027 52.6299 4.97027 52.1499C5.23027 50.1099 5.58027 48.0699 5.97027 46.0499C6.09027 45.4499 5.91031 45.1099 5.51031 44.7299C4.06031 43.3499 2.60028 41.9799 1.23028 40.5199C0.870284 40.1399 0.560377 39.3999 0.700377 38.9599C0.830377 38.5299 1.51032 38.0799 2.02032 37.9899C4.01032 37.6099 6.03034 37.33 8.04034 37.07C8.62034 37 8.93035 36.7599 9.17035 36.2399C10.0203 34.4599 10.9103 32.7099 11.7703 30.9399C12.0803 30.3099 12.4803 29.6399 13.2203 29.8299C13.7403 29.9599 14.2803 30.4499 14.5903 30.9299C15.1103 31.7199 15.4703 32.6199 15.8803 33.4699C16.3703 34.4899 16.2403 35.2299 15.5103 35.6399C14.7303 36.0799 14.0504 35.7899 13.4404 34.7699C13.3904 34.6899 13.3303 34.6199 13.1503 34.3699" fill="#06B2E1"/>
<path d="M87.6092 50.01C87.3292 48.37 87.1392 46.96 86.8492 45.57C86.6592 44.69 86.8793 44.06 87.5193 43.44C88.5393 42.45 89.4893 41.39 90.5693 40.26C89.5693 40.1 88.5993 39.81 87.6193 39.81C85.6693 39.81 84.5093 38.94 83.8893 37.12C83.5693 36.18 83.0293 35.32 82.5193 34.3C82.2993 34.67 82.1992 34.87 82.0792 35.05C81.5992 35.78 80.8793 36 80.1993 35.63C79.5193 35.26 79.2993 34.55 79.6693 33.74C80.1493 32.7 80.6092 31.65 81.2092 30.69C81.4692 30.27 82.0693 29.82 82.5093 29.83C82.9493 29.83 83.5593 30.3 83.7893 30.73C84.7693 32.54 85.6192 34.43 86.5792 36.25C86.7592 36.59 87.2293 36.92 87.6193 36.99C89.6493 37.35 91.6992 37.59 93.7192 37.97C94.1992 38.06 94.8692 38.48 94.9692 38.88C95.0892 39.34 94.8493 40.09 94.4993 40.46C93.1593 41.9 91.7393 43.27 90.2793 44.59C89.6893 45.13 89.6393 45.67 89.7593 46.36C90.0993 48.26 90.4692 50.16 90.7092 52.08C90.7692 52.59 90.5493 53.33 90.1793 53.62C89.8493 53.88 89.0593 53.85 88.6193 53.64C86.7893 52.77 84.9992 51.8 83.2192 50.83C82.6792 50.53 82.2493 50.49 81.7393 50.83C81.3493 51.09 80.9192 51.31 80.4792 51.49C79.7492 51.78 79.0893 51.65 78.6693 50.93C78.2893 50.27 78.5193 49.47 79.2493 49.05C80.0993 48.56 80.9593 48.05 81.8693 47.71C82.2993 47.55 82.9393 47.64 83.3793 47.84C84.7293 48.46 86.0192 49.19 87.5992 50.01" fill="#06B2E1"/>
<path d="M74.5202 69.89C75.0402 70.2 75.4702 70.36 75.7602 70.65C77.0602 71.95 78.3201 73.28 79.5801 74.61C80.2401 75.31 80.2702 76.16 79.6902 76.72C79.0802 77.31 78.3201 77.25 77.6101 76.52C76.3001 75.19 74.9802 73.87 73.7602 72.46C73.4502 72.1 73.3002 71.4 73.4202 70.95C73.5302 70.55 74.1102 70.27 74.5302 69.89" fill="#06B2E1"/>
<path d="M21.1406 70.59C21.4706 70.86 22.0006 71.0899 22.1506 71.4799C22.3106 71.8799 22.2806 72.6 22.0206 72.88C20.7106 74.26 19.3306 75.56 17.9206 76.83C17.3506 77.35 16.6506 77.22 16.1406 76.66C15.6506 76.13 15.5906 75.43 16.0706 74.93C17.3906 73.57 18.7906 72.2799 20.1806 70.9799C20.3706 70.7999 20.6906 70.77 21.1406 70.59Z" fill="#06B2E1"/>
<path d="M66.2896 85.3C65.9196 85.67 65.6095 86.18 65.1596 86.39C64.5596 86.67 63.8995 86.41 63.6295 85.81C62.7795 83.91 61.9595 81.98 61.2095 80.04C60.9395 79.34 61.2795 78.69 61.9995 78.42C62.6495 78.18 63.3295 78.33 63.6395 79C64.4995 80.9 65.2795 82.83 66.0895 84.76C66.1395 84.87 66.1195 85.01 66.1295 85.14C66.1795 85.2 66.2396 85.25 66.2896 85.31" fill="#06B2E1"/>
<path d="M33.9703 79.7999C33.8903 80.0699 33.8403 80.3499 33.7303 80.6099C33.1003 82.0999 32.4604 83.5799 31.8104 85.0599C31.3804 86.0399 30.6604 86.39 29.8704 86.07C29.1204 85.76 28.8804 84.9399 29.2904 83.9699C29.9504 82.4299 30.6204 80.8899 31.3004 79.3599C31.6104 78.6699 32.1704 78.2499 32.8904 78.5299C33.3604 78.7099 33.7104 79.2199 34.1204 79.5799C34.0704 79.6599 34.0203 79.7299 33.9703 79.7999Z" fill="#06B2E1"/>
<path d="M49.3202 84.3201C49.3202 85.6201 49.3202 86.92 49.3202 88.23C49.3102 89.22 48.7802 89.8501 47.9802 89.8801C47.1502 89.9101 46.5602 89.2501 46.5602 88.2101C46.5502 85.6101 46.5502 83.0001 46.5602 80.4001C46.5602 79.4201 47.1402 78.8 47.9502 78.8C48.7602 78.8 49.3102 79.43 49.3202 80.42C49.3402 81.72 49.3202 83.0201 49.3202 84.3201Z" fill="#06B2E1"/>
</svg>
