<svg width="84" height="83" viewBox="0 0 84 83" fill="none" xmlns="http://www.w3.org/2000/svg">
<path d="M49.9796 49.7176C52.0196 51.7776 54.0196 53.8077 56.0495 55.8577C56.2195 55.6777 56.4296 55.4576 56.5495 55.3376C54.4995 53.2876 52.4896 51.2677 50.4596 49.2276C50.3096 49.3876 50.0996 49.6076 49.9896 49.7176M80.8196 77.2176C80.5896 76.8276 80.3296 76.1176 79.8496 75.5976C78.4396 74.0876 76.9396 72.6576 75.4796 71.1876C70.5996 66.3076 65.7096 61.4376 60.8596 56.5376C60.2696 55.9376 59.8696 55.9176 59.3196 56.5576C58.7396 57.2276 58.0696 57.8276 57.4396 58.4576C56.8462 59.051 56.8363 59.6376 57.4097 60.2176C62.7497 65.5676 68.0996 70.9076 73.4496 76.2576C74.4696 77.2776 75.4696 78.3077 76.5096 79.2977C77.3096 80.0577 78.2597 80.2676 79.2897 79.8076C80.2497 79.3776 80.6896 78.5777 80.8296 77.2277M29.6996 55.2076C44.1596 55.2076 55.9696 43.3976 55.9396 28.9376C55.9196 14.5076 44.1296 2.75762 29.6896 2.75762C15.2796 2.75762 3.45961 14.5876 3.48961 28.9876C3.50961 43.4376 15.2796 55.2076 29.6896 55.2176M47.7496 51.7576C34.4796 62.0476 16.6296 58.9076 7.19957 47.2876C-2.07043 35.8576 -1.33038 19.3176 8.99962 8.69762C19.2696 -1.86238 35.8296 -2.9324 47.6096 6.1776C59.3596 15.2676 63.0396 33.4977 52.4696 47.0477C54.5196 49.0877 56.5696 51.1377 58.6396 53.1677C58.7796 53.3077 59.0996 53.3576 59.3196 53.3176C60.6396 53.1176 61.7296 53.4976 62.6796 54.4576C69.0696 60.8776 75.4896 67.2676 81.8796 73.6776C84.0596 75.8576 84.0896 79.1476 82.0096 81.2576C79.9096 83.3876 76.5896 83.3576 74.3696 81.1476C67.9596 74.7576 61.5596 68.3376 55.1496 61.9376C54.2296 61.0176 53.8296 59.9576 54.0196 58.6576C54.0496 58.4276 54.0497 58.0976 53.9097 57.9576C51.8597 55.8676 49.7896 53.8076 47.7296 51.7376" fill="#06B2E1"/>
<path d="M76.6194 62.0776H73.8694V14.4177C73.8694 11.2777 72.2293 9.64763 69.0793 9.64763C64.2793 9.64763 59.4794 9.64763 54.6094 9.64763V6.93761C54.8394 6.91761 55.0894 6.88762 55.3394 6.88762C60.1394 6.88762 64.9394 6.87762 69.7394 6.88762C73.5894 6.89762 76.6094 9.92766 76.6194 13.7977C76.6194 29.6377 76.6194 45.4776 76.6194 61.3176V62.0676V62.0776Z" fill="#06B2E1"/>
<path d="M7.61914 55.2476H10.3691V56.2177C10.3691 60.3277 10.3691 64.4377 10.3691 68.5477C10.3691 71.4477 12.0791 73.1476 14.9891 73.1476C30.5691 73.1476 46.1491 73.1476 61.7291 73.1476H62.7792V75.8976H61.8591C46.1891 75.8976 30.5291 75.8976 14.8691 75.8976C10.5391 75.8976 7.62914 72.9877 7.61914 68.6577C7.61914 64.5177 7.61914 60.3776 7.61914 56.2376V55.2376V55.2476Z" fill="#06B2E1"/>
<path d="M55.8497 66.2877H13.1797V68.9476H55.8497V66.2877Z" fill="#06B2E1"/>
<path d="M71.0593 41.4476H57.3594V44.0977H71.0593V41.4476Z" fill="#06B2E1"/>
<path d="M71.0488 13.8477H60.1289V16.5076H71.0488V13.8477Z" fill="#06B2E1"/>
<path d="M71.0189 27.6577H60.1289V30.3376H71.0189V27.6577Z" fill="#06B2E1"/>
<path d="M71.0398 55.2476H67.0098V57.9077H71.0398V55.2476Z" fill="#06B2E1"/>
<path d="M45.4595 28.8776C42.3495 26.6776 39.4895 24.3476 36.3395 22.5076C33.1895 20.6676 29.6395 20.4776 26.0695 21.3476C24.1195 21.8176 22.3295 22.6376 20.7395 23.8476C18.5295 25.5176 16.3295 27.2176 14.0795 28.9476C14.2595 29.1076 14.3495 29.2077 14.4595 29.2977C16.4595 30.8377 18.4395 32.4076 20.4695 33.9176C26.1295 38.1276 33.2795 38.1276 38.9395 33.9176C40.4095 32.8176 41.8594 31.6776 43.3094 30.5576C43.9594 30.0576 44.6095 29.5476 45.4595 28.8876M9.43945 28.9676C13.0295 26.2476 16.3895 23.4476 20.0095 21.0076C26.2095 16.8376 34.3595 17.1776 40.3595 21.6476C43.3995 23.9076 46.3795 26.2576 49.3895 28.5676C49.5395 28.6876 49.6895 28.8176 49.8995 28.9976C49.0395 29.6676 48.2295 30.2976 47.4095 30.9176C45.0395 32.7376 42.6994 34.5976 40.2994 36.3676C33.9294 41.0576 25.2595 41.0076 18.9395 36.2476C15.7995 33.8776 12.6995 31.4576 9.44946 28.9676" fill="#06B2E1"/>
<path d="M42.0698 13.8376H17.3398V16.5076H42.0698V13.8376Z" fill="#06B2E1"/>
<path d="M42.0696 41.4576H17.3496V44.1176H42.0696V41.4576Z" fill="#06B2E1"/>
<path d="M29.6696 31.7277C31.1196 31.7477 32.4195 30.4776 32.4495 29.0076C32.4795 27.5476 31.2295 26.2476 29.7595 26.2076C28.2695 26.1576 26.9395 27.4577 26.9395 28.9677C26.9395 30.4377 28.1994 31.7077 29.6794 31.7277M29.7095 34.4876C26.6295 34.4876 24.1895 32.0477 24.1895 28.9777C24.1895 25.8977 26.6195 23.4576 29.6995 23.4576C32.7795 23.4576 35.2295 25.8977 35.2195 28.9677C35.2195 32.0477 32.7895 34.4876 29.7095 34.4976" fill="#06B2E1"/>
</svg>
