<svg width="79" height="75" viewBox="0 0 79 75" fill="none" xmlns="http://www.w3.org/2000/svg">
<path d="M68.0497 15.83C65.6697 13.46 63.3398 11.15 61.0298 8.82001C60.6598 8.45001 60.4197 8.62001 60.1097 8.82001C58.3097 10 56.5097 11.17 54.7197 12.36C54.3097 12.64 54.0097 12.62 53.5497 12.41C51.3697 11.43 49.1897 10.45 46.9497 9.64001C46.1497 9.35001 45.8397 9.00003 45.6897 8.22003C45.2797 6.07003 44.7997 3.93004 44.3297 1.73004C40.9597 1.73004 37.6497 1.73001 34.3497 1.76001C34.1497 1.76001 33.8298 2.12004 33.7798 2.35004C33.3098 4.44004 32.8597 6.54002 32.4497 8.65002C32.3497 9.16002 32.1198 9.39001 31.6398 9.51001C29.1698 10.13 26.8498 11.12 24.6498 12.41C24.2398 12.65 23.9597 12.65 23.5497 12.38C21.7397 11.16 19.8997 10 18.0997 8.79004C17.6897 8.52004 17.4598 8.56002 17.1298 8.90002C14.9198 11.14 12.6897 13.36 10.4697 15.58C10.3797 15.67 10.3197 15.79 10.2397 15.91C11.5397 17.9 12.8097 19.87 14.0997 21.82C14.3597 22.22 14.3798 22.5 14.1298 22.92C12.8298 25.11 11.8497 27.44 11.2297 29.91C11.1097 30.4 10.8698 30.63 10.3698 30.73C8.28975 31.14 6.22978 31.63 4.14978 32.01C3.49978 32.13 3.4397 32.41 3.4397 32.94C3.4597 35.92 3.43971 38.9 3.44971 41.88C3.44971 42.12 3.47975 42.37 3.48975 42.62C5.76975 43.1 7.99974 43.57 10.2297 44.02C10.7997 44.13 11.1098 44.36 11.2598 44.97C11.8698 47.41 12.8498 49.71 14.1398 51.88C14.3698 52.27 14.3798 52.54 14.1198 52.91C13.4598 53.86 12.8497 54.84 12.2197 55.81C11.5497 56.84 10.8798 57.87 10.2698 58.8C12.7898 61.31 15.2197 63.75 17.6897 66.22C19.5897 64.98 21.5598 63.72 23.4998 62.41C23.9298 62.12 24.2297 62.1 24.6697 62.36C26.8597 63.66 29.1898 64.63 31.6598 65.26C32.1898 65.39 32.3497 65.66 32.4497 66.14C32.8697 68.22 33.3397 70.28 33.7297 72.36C33.8397 72.93 34.0597 73.07 34.5997 73.07C36.6097 73.05 38.6298 73.07 40.6398 73.07H44.2997C44.3897 72.69 44.4697 72.38 44.5397 72.06C44.9697 70.04 45.3797 68.02 45.8497 66.01C45.9097 65.75 46.2197 65.41 46.4797 65.34C48.9997 64.61 51.4197 63.64 53.6997 62.33C53.9297 62.2 54.3898 62.24 54.6298 62.39C55.9898 63.23 57.3098 64.12 58.6498 65C59.3098 65.43 59.9797 65.86 60.5397 66.22C63.0497 63.72 65.4897 61.29 67.9697 58.82C66.7297 56.92 65.4598 54.95 64.1598 53C63.8698 52.57 63.9097 52.27 64.1097 51.81C65.0797 49.6 66.0498 47.38 66.8798 45.12C67.1498 44.38 67.4997 44.11 68.2197 43.97C70.3997 43.56 72.5697 43.07 74.7097 42.62C74.7597 42.5 74.7897 42.45 74.7897 42.4C74.7897 39.14 74.8197 35.89 74.7897 32.64C74.7897 32.44 74.4397 32.12 74.2097 32.07C72.1197 31.59 70.0198 31.16 67.9098 30.73C67.4198 30.63 67.1297 30.45 66.9797 29.88C66.3597 27.44 65.3997 25.13 64.1198 22.97C63.8598 22.54 63.8598 22.23 64.1498 21.79C65.4598 19.85 66.7097 17.88 68.0497 15.83ZM17.4597 68.5C14.2897 65.33 11.1798 62.22 8.01978 59.06C9.30978 57.07 10.6298 55.01 11.9998 52.98C12.2998 52.53 12.2797 52.2 12.0597 51.72C11.2697 49.96 10.5197 48.19 9.84973 46.39C9.64973 45.88 9.41979 45.66 8.90979 45.55C6.69979 45.1101 4.48967 44.64 2.28967 44.14C2.05967 44.09 1.70972 43.77 1.70972 43.58C1.67972 39.33 1.67969 35.09 1.67969 30.75C3.49969 30.36 5.27972 29.87 7.08972 29.64C8.85972 29.42 9.97977 28.81 10.3898 26.88C10.6798 25.54 11.4597 24.3 12.0697 23.04C12.2897 22.59 12.2998 22.27 12.0198 21.84C10.6598 19.8 9.32979 17.74 8.02979 15.75C11.1798 12.61 14.2997 9.5 17.4897 6.31C19.1697 7.41 21.0197 8.54005 22.7897 9.80005C23.7197 10.46 24.4298 10.5901 25.5098 9.99005C26.9398 9.19005 28.5297 8.67 30.0897 8.13C30.6497 7.94 30.8697 7.67 30.9797 7.13C31.4497 4.76 31.9597 2.39 32.4597 0H45.7698C46.2898 2.44 46.8197 4.85002 47.2997 7.27002C47.3997 7.76002 47.6097 7.93004 48.0497 8.10004C49.8897 8.82004 51.7198 9.58 53.5298 10.38C53.9698 10.57 54.2598 10.57 54.6498 10.31C56.6898 8.95 58.7497 7.62 60.8497 6.25C61.0097 6.39 61.1897 6.51003 61.3397 6.66003C64.1497 9.47003 66.9498 12.29 69.7798 15.08C70.1898 15.48 70.2498 15.75 69.9098 16.25C68.6398 18.12 67.4397 20.04 66.1897 21.92C65.9497 22.29 65.9398 22.55 66.1198 22.96C66.9198 24.77 67.6798 26.6 68.3898 28.44C68.5698 28.91 68.7898 29.1401 69.2698 29.2401C71.4598 29.6801 73.6297 30.18 75.8197 30.59C76.4297 30.7 76.5697 30.94 76.5697 31.51C76.5497 35.46 76.5497 39.4 76.5697 43.35C76.5697 43.87 76.4498 44.11 75.8698 44.22C73.6797 44.64 71.5097 45.15 69.3297 45.58C68.8097 45.68 68.5698 45.91 68.3798 46.41C67.6798 48.23 66.9298 50.03 66.1498 51.82C65.9598 52.25 65.9297 52.5301 66.1997 52.9301C67.4297 54.7601 68.6197 56.62 69.8197 58.46C69.9697 58.69 70.0997 58.92 70.2097 59.09C67.0697 62.23 63.9698 65.32 60.7798 68.5C60.6298 68.41 60.3497 68.24 60.0897 68.07C58.2697 66.88 56.4497 65.68 54.6097 64.52C54.3497 64.36 53.8897 64.33 53.5997 64.44C51.7297 65.17 49.8998 65.98 48.0298 66.72C47.5898 66.89 47.3997 67.09 47.3097 67.57C46.8697 69.81 46.3498 72.04 45.9098 74.28C45.8198 74.73 45.6597 74.87 45.2197 74.87C41.1697 74.86 37.1097 74.85 33.0497 74.87C32.5197 74.87 32.4097 74.61 32.3297 74.2C31.8897 72.02 31.4297 69.83 30.9897 67.65C30.8897 67.16 30.6798 66.89 30.1598 66.69C28.3398 66 26.5398 65.25 24.7598 64.45C24.3198 64.25 24.0398 64.24 23.6398 64.5C21.5798 65.87 19.4997 67.22 17.4797 68.53" fill="#06B2E1"/>
<path d="M19.8087 73.04H11.7188V74.72H19.8087V73.04Z" fill="#06B2E1"/>
<path d="M72.5898 24.1V22.38H78.0099C78.0499 22.46 78.0898 22.5 78.0898 22.55C78.1498 23.5834 77.6666 24.1 76.6399 24.1H72.5898Z" fill="#06B2E1"/>
<path d="M5.1095 53.32H3.43945V55.01H5.1095V53.32Z" fill="#06B2E1"/>
<path d="M1.64001 53.34H0V55.02H1.64001V53.34Z" fill="#06B2E1"/>
<path d="M63.0494 0.200012H61.4395V1.91003H63.0494V0.200012Z" fill="#06B2E1"/>
<path d="M59.5905 0.190002H57.9805V1.90002H59.5905V0.190002Z" fill="#06B2E1"/>
<path d="M8.10034 53.34H6.90039V55.02H8.10034V53.34Z" fill="#06B2E1"/>
<path d="M66.0396 0.200012H64.8496V1.88H66.0396V0.200012Z" fill="#06B2E1"/>
<path d="M34.6798 61.4C35.1198 63.39 36.7998 64.72 38.7998 64.7C40.7598 64.68 42.4398 63.31 42.7998 61.4H34.6798ZM38.7198 59.58C41.0298 59.58 43.3499 59.58 45.6599 59.58C46.2699 59.58 46.7599 59.44 46.8899 58.76C47.0799 57.77 46.6398 57.24 45.6098 57.24C41.0598 57.24 36.5198 57.24 31.9798 57.24C30.9598 57.24 30.5998 57.57 30.6098 58.45C30.6198 59.29 30.9598 59.58 31.9598 59.58C34.2198 59.58 36.4798 59.58 38.7398 59.58M38.8598 49.06C36.5498 49.06 34.2398 49.06 31.9198 49.06C30.9098 49.06 30.6098 49.36 30.6098 50.23C30.6098 51.08 30.9498 51.39 31.9498 51.39C36.4898 51.39 41.0298 51.39 45.5798 51.39C46.5798 51.39 46.9198 51.08 46.9298 50.24C46.9398 49.34 46.6198 49.06 45.5498 49.06C43.3198 49.06 41.0898 49.06 38.8598 49.06ZM38.7398 55.48C41.0498 55.48 43.3698 55.48 45.6798 55.48C46.3698 55.48 46.8798 55.3 46.9298 54.5C46.9998 53.53 46.6198 53.14 45.5398 53.14C41.0198 53.14 36.5098 53.14 31.9898 53.14C30.9498 53.14 30.5998 53.46 30.6098 54.34C30.6098 55.19 30.9298 55.47 31.9598 55.47C34.2198 55.47 36.4798 55.47 38.7298 55.47M39.8899 47.27C39.9499 47.04 40.0098 46.89 40.0398 46.72C40.6698 42.73 41.2998 38.74 41.9198 34.74C42.2198 32.79 42.2098 30.71 44.0798 29.32C43.7898 29.02 43.4998 28.73 43.0898 28.32C42.3698 29.11 41.6899 29.85 40.8899 30.72C40.1599 29.92 39.4999 29.2 38.6299 28.26C37.9299 29.12 37.2898 29.9 36.5598 30.79C35.7398 29.89 35.0799 29.17 34.3899 28.42C34.0399 28.76 33.7499 29.04 33.2799 29.48C33.7799 29.89 34.2399 30.24 34.6499 30.64C34.8499 30.84 35.0298 31.13 35.0798 31.4C35.7098 35.34 36.3198 39.28 36.9398 43.22C37.1498 44.57 37.3798 45.91 37.5998 47.26H39.8899V47.27ZM43.8799 47.25C43.9199 47.08 43.9598 46.97 43.9698 46.86C44.2998 43.35 45.8499 40.44 48.1499 37.8C50.5799 35 51.3998 31.63 50.7998 27.99C49.9998 23.16 46.2198 19.19 41.5598 18.15C36.6098 17.04 31.6199 18.95 28.7599 23.03C25.4599 27.75 25.8299 33.77 29.7499 38.27C31.4299 40.2 32.6298 42.36 33.2098 44.85C33.3898 45.62 33.4798 46.42 33.6198 47.21H35.7699C34.9799 42.17 34.2198 37.2 33.4198 32.23C33.3698 31.93 33.1498 31.63 32.9298 31.4C32.2798 30.73 31.5898 30.1 30.9698 29.49C32.1798 28.28 33.2998 27.16 34.5898 25.88C35.1998 26.57 35.8698 27.32 36.6798 28.23C37.3998 27.42 38.0499 26.68 38.8999 25.72C39.6199 26.6 40.2499 27.37 40.9999 28.28C41.8099 27.4 42.4699 26.68 43.0299 26.07C44.1999 27.22 45.3199 28.33 46.5299 29.52C45.9799 30.04 45.3298 30.56 44.7998 31.19C44.4498 31.6 44.1598 32.14 44.0598 32.67C43.6498 34.92 43.3098 37.18 42.9498 39.43C42.5398 42.01 42.1498 44.59 41.7398 47.21H43.8899L43.8799 47.25ZM45.7198 47.2C48.4398 47.71 49.3698 49.56 48.1898 51.97C48.1098 52.13 48.1098 52.38 48.1898 52.54C48.9198 54.07 48.8899 54.83 48.1399 56.15C48.3499 57.05 48.6399 57.78 48.6599 58.51C48.6999 60.17 47.5198 61.35 45.8698 61.32C45.0498 61.31 44.6499 61.47 44.3899 62.35C43.6499 64.83 41.2398 66.5 38.6998 66.46C36.1098 66.42 33.7398 64.65 33.0598 62.15C32.8898 61.52 32.6699 61.33 32.0199 61.33C29.3699 61.35 28.0398 59.07 29.2898 56.72C29.3898 56.53 29.3998 56.2 29.2998 56.01C28.6698 54.87 28.6799 53.77 29.2799 52.62C29.3799 52.43 29.3998 52.1 29.3098 51.91C28.1298 49.62 29.1498 47.61 31.7898 47.2C31.5798 44.4 30.5998 41.91 28.7398 39.81C26.8098 37.64 25.4998 35.2 24.9898 32.31C23.6898 25.05 28.7898 17.65 36.0498 16.34C44.0698 14.89 51.3998 20.03 52.5998 28.08C53.2098 32.17 52.1299 35.92 49.3899 39.08C47.7099 41.02 46.4398 43.12 45.9598 45.65C45.8598 46.16 45.8098 46.67 45.7398 47.18" fill="#06B2E1"/>
<path d="M23.2992 28.35H18.7793V30H23.2992V28.35Z" fill="#06B2E1"/>
<path d="M58.7092 28.34H54.1992V30.02H58.7092V28.34Z" fill="#06B2E1"/>
<path d="M39.5494 9.20001H37.9395V13.72H39.5494V9.20001Z" fill="#06B2E1"/>
</svg>
