<svg width="73" height="81" viewBox="0 0 73 81" fill="none" xmlns="http://www.w3.org/2000/svg">
<path d="M12.2087 63.2502C12.2087 59.6702 12.2087 56.0902 12.2087 52.5002C12.2087 50.9602 11.5586 50.3102 10.0386 50.3002C8.07864 50.3002 6.11863 50.3002 4.15863 50.3002C2.66863 50.3002 2.03864 50.9302 2.03864 52.4402C2.03864 59.6602 2.03864 66.8802 2.03864 74.1102C2.03864 75.6202 2.72859 76.2902 4.23859 76.3002C6.14859 76.3002 8.04867 76.3002 9.94867 76.3002C11.5287 76.3002 12.2087 75.5902 12.2087 74.0002C12.2087 70.4202 12.2087 66.8302 12.2087 63.2502ZM14.1086 71.6402C15.8186 72.0002 17.4487 72.1702 18.9487 72.7102C23.6787 74.4002 28.3287 76.3102 33.0587 77.9802C37.4987 79.5502 41.9886 79.7002 46.1286 77.1402C53.8186 72.3902 61.4286 67.5002 69.0386 62.6302C69.6586 62.2302 70.2187 61.6202 70.5787 60.9702C71.1187 60.0102 70.9886 58.9702 70.2886 58.0902C69.6386 57.2702 68.7486 57.0102 67.7686 57.3202C67.0786 57.5402 66.3586 57.7902 65.7586 58.1802C61.2786 61.1002 56.8286 64.0402 52.3686 67.0002C51.1886 67.7902 49.9186 68.3602 48.4986 68.4302C43.2986 68.6802 38.0986 68.8902 32.8986 69.1102C32.2686 69.1402 31.7187 68.9802 31.6786 68.2402C31.6287 67.4402 32.1786 67.2802 32.8586 67.2502C36.8986 67.0902 40.9387 66.9702 44.9687 66.7302C49.9787 66.4302 48.9686 67.0902 53.4986 64.0202C53.7786 63.8302 54.0486 63.6102 54.3586 63.4702C54.9486 63.1902 54.9887 62.7502 54.8487 62.2002C54.4987 60.8602 53.4387 60.0602 51.9387 60.0602C46.6187 60.0602 41.2986 60.0202 35.9786 60.0702C33.6386 60.0902 31.5687 59.5102 29.7087 58.0602C25.0987 54.4602 19.7886 53.6902 14.1086 54.3802V71.6302V71.6402ZM14.2187 73.7802C14.0287 74.5902 13.9787 75.3602 13.6786 76.0102C13.0086 77.4702 11.7687 78.1402 10.1786 78.1502C8.18865 78.1602 6.19867 78.1602 4.19867 78.1502C1.71867 78.1402 0.20866 76.6402 0.18866 74.1702C0.16866 71.4402 0.18866 68.7002 0.18866 65.9702C0.18866 61.5302 0.248641 57.0902 0.168641 52.6502C0.128641 50.0002 1.8786 48.2802 4.3786 48.4302C6.1086 48.5302 7.85868 48.5302 9.58868 48.4302C12.2687 48.2702 13.8786 49.6702 14.1486 52.3902C14.8586 52.3902 15.5887 52.3902 16.3087 52.3902C18.6087 52.4202 20.9186 52.2402 23.1786 52.8402C25.9886 53.5902 28.5286 54.9002 30.8586 56.6202C32.3686 57.7402 33.9886 58.2402 35.8586 58.2202C41.0986 58.1802 46.3287 58.2002 51.5687 58.2102C54.3287 58.2102 55.7686 59.2102 56.7386 61.8802C57.0086 61.7102 57.2686 61.5602 57.5186 61.4002C60.0086 59.7602 62.4986 58.1102 64.9986 56.4702C66.1986 55.6902 67.5187 55.2102 68.9487 55.3902C72.0487 55.7802 73.7687 59.1502 72.2087 61.9002C71.6987 62.8002 70.8786 63.6402 70.0086 64.2102C62.4486 69.0702 54.8886 73.9102 47.2486 78.6402C42.6286 81.5002 37.6286 81.5102 32.6286 79.7602C27.8886 78.1002 23.2186 76.2502 18.5186 74.4602C17.1186 73.9302 15.6886 73.6502 14.2286 73.7602" fill="white"/>
<path d="M7.14951 69.8302C8.07951 69.8502 8.81952 70.6102 8.78952 71.5302C8.75952 72.4202 8.01949 73.1202 7.12949 73.1302C6.20949 73.1302 5.42955 72.3702 5.43955 71.4602C5.43955 70.5602 6.22952 69.8102 7.15952 69.8302" fill="white"/>
<path d="M48.1399 41.9102C47.9499 41.9202 47.7799 41.9402 47.6099 41.9402C43.8899 41.9402 40.17 41.9402 36.46 41.9402C36.32 41.9402 36.14 41.9902 36.06 41.9202C35.82 41.7102 35.46 41.4602 35.43 41.2002C35.4 40.9402 35.6599 40.5802 35.8899 40.3702C36.0399 40.2302 36.3699 40.2502 36.6199 40.2502C39.7899 40.2502 42.9699 40.2402 46.1399 40.2502C46.5799 40.2502 46.7699 40.1402 46.8799 39.6702C47.3699 37.5502 48.4699 35.7502 49.9899 34.2202C50.6899 33.5202 51.3899 32.8102 52.1299 32.1502C54.5199 30.0502 55.58 27.3702 55.7 24.2502C55.99 16.9402 51.19 10.9702 43.96 9.8402C36.47 8.6602 29.4299 13.6102 28.1399 21.0302C27.7199 23.4602 27.91 25.8802 28.8 28.2102C29.31 29.5302 30.04 30.7202 31.07 31.7002C32.03 32.6102 33.0099 33.5102 33.8899 34.4902C34.5999 35.2802 35.1799 36.1902 35.7799 37.0802C36.0899 37.5402 35.9199 38.0502 35.4899 38.2902C35.0699 38.5202 34.6 38.4002 34.35 37.9302C33.49 36.3402 32.2999 35.0102 30.9099 33.9202C24.5099 28.8702 24.58 17.3602 31.95 11.4702C39.95 5.0702 51.9 7.8102 56.07 17.1602C58.08 21.6802 58.06 26.2802 55.56 30.6802C55.03 31.6102 54.2299 32.3902 53.4899 33.1902C52.7799 33.9602 51.9699 34.6502 51.2299 35.3902C49.6099 37.0102 48.59 38.9302 48.3 41.2202C48.27 41.4502 48.2099 41.6702 48.1499 41.9202" fill="white"/>
<path d="M41.7787 46.3702C39.6587 46.3702 37.5387 46.3702 35.4187 46.3702C35.1787 46.3702 34.8488 46.3502 34.7088 46.2002C34.5088 45.9802 34.3387 45.6202 34.3687 45.3502C34.4187 44.9002 34.7987 44.6802 35.2587 44.6802C36.1487 44.6802 37.0488 44.6802 37.9388 44.6802C41.2788 44.6802 44.6288 44.6802 47.9688 44.6802C48.1288 44.6802 48.2788 44.6802 48.4388 44.6802C48.9588 44.7302 49.2987 45.0802 49.2887 45.5402C49.2887 46.0102 48.9387 46.3502 48.4187 46.3702C47.6987 46.3902 46.9787 46.3702 46.2587 46.3702H41.7687" fill="white"/>
<path d="M37.9393 48.7603C38.6493 48.6203 39.2692 48.8903 39.8892 49.5603C41.0792 50.8603 42.7292 50.7703 43.9092 49.4203C44.3492 48.9103 44.8093 48.6803 45.4693 48.7403C45.9093 48.7803 46.3693 48.7403 46.8093 48.7503C47.3293 48.7703 47.6892 49.1303 47.6692 49.5903C47.6392 50.0903 47.3492 50.3703 46.8592 50.4303C45.9292 50.5603 44.9192 50.9203 44.1692 51.4103C42.4592 52.5203 40.4092 52.3603 38.8592 50.9103C38.4692 50.5503 38.0893 50.3703 37.5693 50.4303C37.2993 50.4603 37.0192 50.4603 36.7592 50.4303C36.2792 50.3603 35.9692 50.0703 35.9892 49.5703C36.0092 49.0803 36.3193 48.7903 36.8093 48.7603C37.1393 48.7403 37.4693 48.7603 37.9493 48.7603" fill="white"/>
<path d="M27.3002 11.4902C27.1402 11.7002 27.0002 12.0202 26.7702 12.1302C26.5402 12.2402 26.0902 12.2302 25.9202 12.0802C24.9302 11.1602 23.9702 10.1902 23.0402 9.2002C22.7302 8.8702 22.7801 8.4302 23.1201 8.1002C23.4401 7.7902 23.8602 7.73019 24.1702 8.03019C25.1502 8.97019 26.1002 9.9402 27.0502 10.9102C27.1602 11.0302 27.1902 11.2202 27.3002 11.4802" fill="white"/>
<path d="M57.1286 12.3503C56.8986 12.1703 56.5487 12.0303 56.4687 11.8003C56.3687 11.5403 56.3887 11.0803 56.5587 10.9003C57.4487 9.93027 58.3887 9.00026 59.3387 8.08026C59.6987 7.74026 60.1386 7.76027 60.4786 8.12027C60.8186 8.48027 60.8186 8.92026 60.4786 9.27026C59.5886 10.1903 58.6886 11.1003 57.7686 11.9903C57.6286 12.1303 57.4086 12.1903 57.1286 12.3403" fill="white"/>
<path d="M40.9595 2.47023C40.9595 1.95023 40.9495 1.42022 40.9595 0.900221C40.9795 0.310221 41.2795 -0.00977251 41.7995 0.000227486C42.2895 0.000227486 42.5994 0.310223 42.6094 0.870223C42.6294 1.96022 42.6294 3.04023 42.6094 4.13023C42.6094 4.66023 42.2695 5.00024 41.8095 5.01024C41.3295 5.02024 40.9895 4.66023 40.9695 4.10023C40.9495 3.56023 40.9695 3.01023 40.9695 2.47023" fill="white"/>
<path d="M41.5289 18.9002C42.2089 18.9302 42.799 18.3902 42.839 17.7102C42.879 17.0302 42.3289 16.4202 41.6389 16.3902C40.9489 16.3602 40.349 16.9102 40.329 17.6002C40.309 18.2802 40.8489 18.8702 41.5289 18.9002ZM33.829 26.4002C33.569 26.7902 33.329 27.1502 33.089 27.5102C32.999 27.6402 32.8989 27.7202 32.7289 27.7002C32.4989 27.6602 32.3989 27.4102 32.5389 27.2002C32.7189 26.9202 32.909 26.6402 33.089 26.3702C33.309 26.0402 33.5189 25.7202 33.7389 25.3902C33.8889 25.1702 34.0489 25.1402 34.2689 25.2902C34.8589 25.6802 35.4589 26.0802 36.0489 26.4702C36.2389 26.6002 36.2889 26.7802 36.1889 26.9402C36.0789 27.1102 35.8989 27.1302 35.6889 27.0002C35.3089 26.7502 34.9289 26.4902 34.5389 26.2402C34.6189 27.0502 35.7489 28.5402 36.7689 29.1802C37.8789 29.8802 39.2489 30.1302 40.3789 30.1902C40.5189 27.4902 40.6589 24.7902 40.8089 22.0702H38.199C37.939 22.0702 37.8089 21.9602 37.8089 21.7602C37.8089 21.5502 37.939 21.4402 38.209 21.4402H40.839C40.859 21.0602 40.8889 20.7002 40.9089 20.3402C40.9189 20.1102 40.929 19.8702 40.949 19.6402C40.959 19.5002 40.9289 19.4402 40.7889 19.3802C40.0289 19.0402 39.579 18.2202 39.699 17.4302C39.829 16.5702 40.499 15.9102 41.349 15.8002C42.239 15.6902 43.1189 16.2602 43.3789 17.1202C43.6489 18.0102 43.2389 18.9502 42.4089 19.3502C42.2289 19.4402 42.189 19.5302 42.209 19.7202C42.249 20.2902 42.2789 20.8602 42.3089 21.4502H42.5289C43.3489 21.4502 44.1789 21.4502 44.9989 21.4502C45.2089 21.4502 45.339 21.5802 45.339 21.7702C45.339 21.9502 45.2089 22.0702 44.9989 22.0702C44.9589 22.0702 44.9189 22.0702 44.8789 22.0702H42.329C42.469 24.7802 42.6089 27.4602 42.7589 30.1602C44.0989 29.9902 45.3589 29.6202 46.4789 28.8502C47.4289 28.2002 48.309 27.1202 48.579 26.2602C48.279 26.4602 48.0089 26.6402 47.7289 26.8202C47.6189 26.8902 47.5189 26.9702 47.3989 27.0402C47.2289 27.1402 47.049 27.1002 46.949 26.9602C46.849 26.8102 46.8889 26.6302 47.0489 26.5102C47.4789 26.2202 47.919 25.9302 48.349 25.6402C48.519 25.5202 48.6989 25.4102 48.8689 25.2902C49.0789 25.1602 49.2389 25.1802 49.3689 25.3802C49.7789 25.9802 50.179 26.5902 50.579 27.1902C50.709 27.3802 50.6689 27.5702 50.5089 27.6702C50.3489 27.7702 50.1789 27.7302 50.0589 27.5402C49.8089 27.1802 49.5689 26.8102 49.2989 26.4102C48.8689 28.3602 47.909 29.9502 46.329 31.1302C44.749 32.3102 42.9689 32.8702 40.9989 32.7202C37.6589 32.4702 34.5989 30.1702 33.7889 26.4202" fill="white"/>
</svg>
