<svg width="78" height="77" viewBox="0 0 78 77" fill="none" xmlns="http://www.w3.org/2000/svg">
<path d="M19.178 76.97C19.018 76.97 18.8479 76.94 18.6879 76.87L0.87793 68.96C0.44793 68.77 0.167969 68.34 0.167969 67.86V48.08C0.167969 47.42 0.70792 46.88 1.36792 46.88C2.02792 46.88 2.56787 47.42 2.56787 48.08V67.08L19.658 74.68C20.268 74.95 20.5379 75.66 20.2679 76.27C20.0679 76.72 19.628 76.98 19.168 76.98" fill="white"/>
<path d="M20.3766 56.75V73.84L41.0565 63.8V47.3L20.3766 56.75ZM19.1766 76.96C18.9566 76.96 18.7366 76.9 18.5366 76.78C18.1866 76.56 17.9766 76.18 17.9766 75.76V55.98C17.9766 55.51 18.2466 55.08 18.6766 54.89L41.7566 44.34C42.1266 44.17 42.5666 44.2 42.9066 44.42C43.2466 44.64 43.4565 45.02 43.4565 45.43V64.55C43.4565 65.01 43.1966 65.43 42.7766 65.63L19.6965 76.84C19.5265 76.92 19.3466 76.96 19.1766 76.96Z" fill="white"/>
<path d="M42.2568 46.6301C42.0968 46.6301 41.9268 46.6001 41.7668 46.5301L35.8268 43.9001L31.5568 42.0001L29.8969 41.27L23.9568 38.6201C23.3468 38.3501 23.0768 37.6401 23.3468 37.0301C23.6168 36.4201 24.3268 36.15 24.9368 36.42L30.8768 39.0701L32.5369 39.8L36.8068 41.7L42.7468 44.33C43.3568 44.6 43.6268 45.31 43.3568 45.92C43.1568 46.37 42.7168 46.6301 42.2568 46.6301Z" fill="white"/>
<path d="M1.3766 49.27C0.9166 49.27 0.486634 49.01 0.286634 48.57C0.00663403 47.97 0.2766 47.25 0.8766 46.98L22.5266 37.07L23.9666 36.42C24.5666 36.15 25.2865 36.42 25.5565 37.02C25.8265 37.62 25.5566 38.34 24.9566 38.61L23.5266 39.26L1.88661 49.17C1.72661 49.24 1.55661 49.28 1.38661 49.28" fill="white"/>
<path d="M7.31801 51.9101C6.85801 51.9101 6.42804 51.6501 6.22804 51.2101C5.94804 50.6101 6.21801 49.8901 6.81801 49.6201L22.5281 42.4401L29.8981 39.0701C30.4981 38.7901 31.2181 39.0601 31.4881 39.6601C31.7581 40.2601 31.4981 40.9801 30.8981 41.2501L23.5281 44.6201L7.81801 51.8001C7.65801 51.8701 7.48801 51.9101 7.31801 51.9101Z" fill="white"/>
<path d="M19.1864 57.19C19.0264 57.19 18.8564 57.16 18.6964 57.09L12.7565 54.46C12.7065 54.44 12.6564 54.41 12.6064 54.38L6.82642 51.81L0.886477 49.18C0.276477 48.91 0.00649208 48.2 0.276492 47.59C0.546492 46.98 1.25646 46.71 1.86646 46.98L7.8064 49.61L13.7365 52.24C13.7365 52.24 13.8365 52.29 13.8765 52.32L19.6765 54.89C20.2865 55.16 20.5565 55.87 20.2865 56.48C20.0865 56.93 19.6464 57.19 19.1864 57.19Z" fill="white"/>
<path d="M13.2482 62.46C13.0882 62.46 12.9182 62.43 12.7582 62.36L6.81812 59.72C6.20812 59.45 5.93813 58.74 6.20813 58.13C6.47813 57.52 7.18822 57.25 7.79822 57.52L13.7282 60.16C14.3382 60.43 14.6081 61.14 14.3381 61.75C14.1381 62.2 13.6982 62.46 13.2382 62.46" fill="white"/>
<path d="M13.2477 54.5401C12.7877 54.5401 12.3577 54.2801 12.1577 53.8401C11.8777 53.2401 12.1477 52.5201 12.7477 52.2501L22.5277 47.7801L35.8277 41.7101C36.4277 41.4301 37.1477 41.7001 37.4177 42.3001C37.6877 42.9001 37.4177 43.6201 36.8277 43.8901L23.5277 49.9601L13.7477 54.4301C13.5877 54.5001 13.4177 54.5401 13.2477 54.5401Z" fill="white"/>
<path d="M13.2468 62.46C12.5868 62.46 12.0469 61.92 12.0469 61.26V53.35C12.0469 52.69 12.5868 52.15 13.2468 52.15C13.9068 52.15 14.4468 52.69 14.4468 53.35V61.26C14.4468 61.92 13.9068 62.46 13.2468 62.46Z" fill="white"/>
<path d="M7.30737 59.82C6.64737 59.82 6.10742 59.28 6.10742 58.62V50.71C6.10742 50.05 6.64737 49.51 7.30737 49.51C7.96737 49.51 8.50745 50.05 8.50745 50.71V58.62C8.50745 59.28 7.96737 59.82 7.30737 59.82Z" fill="white"/>
<path d="M23.0177 50.07C22.5577 50.07 22.1277 49.81 21.9177 49.37C21.6377 48.77 21.9177 48.05 22.5177 47.78L33.3877 42.82L30.3977 41.49L23.5177 44.63C22.9177 44.91 22.1977 44.64 21.9277 44.04C21.6477 43.44 21.9277 42.72 22.5277 42.45L29.8977 39.08C30.2077 38.94 30.5676 38.94 30.8776 39.08L32.5377 39.81L36.8076 41.71C37.2376 41.9 37.5177 42.33 37.5177 42.8C37.5177 43.27 37.2476 43.7 36.8176 43.9L23.5177 49.97C23.3577 50.04 23.1877 50.08 23.0177 50.08" fill="white"/>
<path d="M75.9381 72.16H29.0981C28.4381 72.16 27.8982 71.62 27.8982 70.96C27.8982 70.3 28.4381 69.76 29.0981 69.76H74.7382V2.41H24.2281V38.16C24.2281 38.82 23.6882 39.36 23.0282 39.36C22.3682 39.36 21.8281 38.82 21.8281 38.16V1.19998C21.8281 0.539982 22.3682 0 23.0282 0H75.9381C76.5981 0 77.1382 0.539982 77.1382 1.19998V70.95C77.1382 71.61 76.5981 72.15 75.9381 72.15" fill="white"/>
<path d="M53.0879 14.43H29.038C28.378 14.43 27.8379 13.89 27.8379 13.23C27.8379 12.57 28.378 12.03 29.038 12.03H53.0879C53.7479 12.03 54.288 12.57 54.288 13.23C54.288 13.89 53.7479 14.43 53.0879 14.43Z" fill="white"/>
<path d="M63.9083 15.6401C63.5983 15.6401 63.2882 15.5201 63.0582 15.2901L59.4482 11.6801C58.9782 11.2101 58.9782 10.4501 59.4482 9.98006C59.9182 9.51006 60.6783 9.51006 61.1483 9.98006L64.7583 13.5901C65.2283 14.0601 65.2283 14.8201 64.7583 15.2901C64.5283 15.5301 64.2183 15.6401 63.9083 15.6401Z" fill="white"/>
<path d="M63.9074 15.64C63.6374 15.64 63.3674 15.55 63.1374 15.36C62.6274 14.94 62.5574 14.18 62.9874 13.67L68.9974 6.45001C69.4174 5.94001 70.1773 5.87002 70.6873 6.30002C71.1973 6.72002 71.2674 7.48002 70.8374 7.99002L64.8273 15.2C64.5873 15.49 64.2474 15.63 63.9074 15.63" fill="white"/>
<path d="M53.0879 27.66H29.038C28.378 27.66 27.8379 27.12 27.8379 26.46C27.8379 25.8 28.378 25.26 29.038 25.26H53.0879C53.7479 25.26 54.288 25.8 54.288 26.46C54.288 27.12 53.7479 27.66 53.0879 27.66Z" fill="white"/>
<path d="M63.9083 28.86C63.5983 28.86 63.2882 28.74 63.0582 28.51L59.4482 24.9C58.9782 24.43 58.9782 23.67 59.4482 23.2C59.9182 22.73 60.6783 22.73 61.1483 23.2L64.7583 26.8101C65.2283 27.28 65.2283 28.04 64.7583 28.51C64.5283 28.75 64.2183 28.86 63.9083 28.86Z" fill="white"/>
<path d="M63.9074 28.86C63.6374 28.86 63.3674 28.77 63.1374 28.58C62.6274 28.16 62.5574 27.4 62.9874 26.89L68.9974 19.67C69.4174 19.16 70.1773 19.09 70.6873 19.52C71.1973 19.94 71.2674 20.7 70.8374 21.21L64.8273 28.42C64.5873 28.71 64.2474 28.85 63.9074 28.85" fill="white"/>
<path d="M53.0874 42.0901H32.0574C31.3974 42.0901 30.8574 41.55 30.8574 40.89C30.8574 40.23 31.3974 39.6901 32.0574 39.6901H53.0874C53.7474 39.6901 54.2875 40.23 54.2875 40.89C54.2875 41.55 53.7474 42.0901 53.0874 42.0901Z" fill="white"/>
<path d="M63.9083 43.3C63.5983 43.3 63.2882 43.18 63.0582 42.95L59.4482 39.34C58.9782 38.87 58.9782 38.11 59.4482 37.64C59.9182 37.17 60.6783 37.17 61.1483 37.64L64.7583 41.25C65.2283 41.72 65.2283 42.48 64.7583 42.95C64.5283 43.19 64.2183 43.3 63.9083 43.3Z" fill="white"/>
<path d="M63.9074 43.3C63.6374 43.3 63.3674 43.21 63.1374 43.0201C62.6274 42.6 62.5574 41.84 62.9874 41.33L68.9974 34.11C69.4174 33.6 70.1773 33.5301 70.6873 33.9601C71.1973 34.3801 71.2674 35.1401 70.8374 35.6501L64.8273 42.86C64.5873 43.15 64.2474 43.29 63.9074 43.29" fill="white"/>
<path d="M53.0864 56.52H42.2665C41.6065 56.52 41.0664 55.98 41.0664 55.32C41.0664 54.66 41.6065 54.12 42.2665 54.12H53.0864C53.7464 54.12 54.2865 54.66 54.2865 55.32C54.2865 55.98 53.7464 56.52 53.0864 56.52Z" fill="white"/>
<path d="M63.9083 57.73C63.5983 57.73 63.2882 57.61 63.0582 57.38L59.4482 53.77C58.9782 53.3 58.9782 52.54 59.4482 52.07C59.9182 51.6 60.6783 51.6 61.1483 52.07L64.7583 55.68C65.2283 56.15 65.2283 56.91 64.7583 57.38C64.5283 57.62 64.2183 57.73 63.9083 57.73Z" fill="white"/>
<path d="M63.9074 57.73C63.6374 57.73 63.3674 57.64 63.1374 57.45C62.6274 57.03 62.5574 56.27 62.9874 55.76L68.9974 48.54C69.4174 48.03 70.1773 47.96 70.6873 48.39C71.1973 48.81 71.2674 49.57 70.8374 50.08L64.8273 57.29C64.5873 57.58 64.2474 57.72 63.9074 57.72" fill="white"/>
</svg>
