<svg width="69" height="79" viewBox="0 0 69 79" fill="none" xmlns="http://www.w3.org/2000/svg">
<path d="M66.4469 18.4975C66.4469 17.8375 66.4069 17.1675 66.4569 16.5075C66.4969 15.8975 66.2969 15.6575 65.6769 15.4875C62.8369 14.7175 59.9769 13.9975 57.1969 13.0275C49.5869 10.3675 42.3569 6.83754 35.3469 2.86754C34.7769 2.54754 34.3668 2.54752 33.7568 2.84752C29.0468 5.24752 24.3669 7.70754 19.5769 9.92754C14.3169 12.3675 8.87687 14.3375 3.18687 15.5175C2.60687 15.6375 2.5068 15.9375 2.4968 16.4575C2.3268 24.5575 3.52685 32.4575 6.04685 40.1475C10.9769 55.1775 20.2068 66.8675 33.5268 75.3675C34.2568 75.8275 34.7569 75.8575 35.4869 75.3675C39.1569 72.8975 42.6468 70.1975 45.7868 67.0875C59.3068 53.7175 65.4969 37.2275 66.4369 18.4975M0.176858 18.4375C0.176858 17.3975 0.156858 16.3675 0.176858 15.3275C0.216858 13.9475 0.426853 13.6975 1.79685 13.4275C8.08685 12.1675 14.0569 9.94754 19.8269 7.23754C24.4169 5.07754 28.8868 2.68754 33.3768 0.337542C34.2168 -0.102458 34.8468 -0.122458 35.6568 0.337542C43.1168 4.59754 50.8069 8.38753 58.9669 11.1375C61.7269 12.0675 64.5868 12.7075 67.4068 13.4475C68.4768 13.7275 68.7168 13.9375 68.7568 15.0575C68.9868 21.7975 68.1368 28.4175 66.5168 34.9475C63.2968 47.8775 57.1668 59.1675 47.6568 68.5675C43.9568 72.2275 39.8469 75.3775 35.4569 78.1675C34.8169 78.5775 34.2769 78.5875 33.6169 78.1875C16.8369 67.9475 6.31687 53.2175 1.93687 34.0775C0.756867 28.9375 0.136867 23.7175 0.186867 18.4275" fill="white"/>
<path d="M52.577 20.8675C52.347 21.1975 52.2169 21.4675 52.0069 21.6675C44.0969 29.6975 36.1869 37.7275 28.2769 45.7575C28.1069 45.9275 27.9469 46.1075 27.7669 46.2675C27.2569 46.7175 26.727 46.7475 26.177 46.3375C25.927 46.1375 25.687 45.9275 25.447 45.7175C24.027 44.4875 22.6069 43.2475 21.1369 41.9675C20.1969 43.1075 19.3169 44.1875 18.3969 45.3175C21.3269 47.8375 24.197 50.2975 27.107 52.7875C36.637 43.0975 46.097 33.4775 55.467 23.9475C54.497 22.9275 53.627 21.9975 52.567 20.8775M26.737 43.6975C28.477 42.0275 30.177 40.4575 31.807 38.8075C38.397 32.1575 44.9569 25.4775 51.5269 18.8075C52.4469 17.8775 52.927 17.8675 53.867 18.7975C55.187 20.1075 56.517 21.4175 57.837 22.7275C58.627 23.5175 58.637 24.0975 57.837 24.9075C47.997 34.9175 38.147 44.9275 28.297 54.9375C27.467 55.7775 26.997 55.7975 26.117 55.0375C22.827 52.2175 19.5369 49.3875 16.2569 46.5675C15.4469 45.8675 15.387 45.2775 16.057 44.4475C17.317 42.8975 18.587 41.3575 19.847 39.8175C20.627 38.8775 21.167 38.8375 22.117 39.6575C23.687 41.0075 25.2469 42.3775 26.7469 43.6775" fill="white"/>
<path d="M35.7164 12.3175V13.3875C35.7164 18.4875 35.7164 23.5976 35.7164 28.7076C35.7164 28.9176 35.7364 29.1375 35.6964 29.3475C35.5864 29.9775 35.2164 30.3475 34.5564 30.3575C33.9064 30.3675 33.5164 29.9975 33.3864 29.3775C33.3364 29.1175 33.3665 28.8476 33.3665 28.5876C33.3665 23.3776 33.3665 18.1675 33.3665 12.9475V11.9475C33.0565 12.1275 32.8464 12.2175 32.6664 12.3475C26.2664 16.7375 19.3664 20.0775 11.8364 22.0575C11.3064 22.1975 11.1764 22.4275 11.2064 22.9375C11.5064 28.3275 12.3164 33.5976 14.3364 38.6476C14.6364 39.4076 14.3664 40.0275 13.7064 40.2875C13.0364 40.5475 12.4664 40.2575 12.1464 39.4675C10.6064 35.7375 9.75639 31.8276 9.28639 27.8276C9.05639 25.8276 8.93642 23.8075 8.81642 21.7875C8.74642 20.6175 9.03643 20.3275 10.1964 20.0375C18.7964 17.8975 26.5765 14.0775 33.6065 8.69755C34.3365 8.13755 34.9064 8.07755 35.4264 8.69755C37.3264 10.8875 39.7964 12.2075 42.3764 13.3775C43.5564 13.9175 44.7864 14.3575 45.9964 14.8175C47.0364 15.2175 47.4164 15.7275 47.1664 16.4775C46.9264 17.2075 46.2264 17.4075 45.1564 17.0275C41.9564 15.9075 38.8964 14.5275 36.1364 12.5375C36.0564 12.4775 35.9564 12.4476 35.7164 12.3276" fill="white"/>
<path d="M33.3667 66.2775V65.2375C33.3667 61.6975 33.3667 58.1675 33.3667 54.6275C33.3667 53.9475 33.5566 53.4075 34.2766 53.2375C35.1066 53.0475 35.7067 53.5975 35.7067 54.5675C35.7067 58.1575 35.7067 61.7475 35.7067 65.3375V66.3775C36.0867 66.0975 36.3366 65.9275 36.5666 65.7375C41.8766 61.2575 46.0467 55.8575 49.4767 49.8575C52.9967 43.6975 55.6867 37.1875 57.4867 30.3175C57.7267 29.4075 58.2766 28.9875 58.9966 29.1475C59.7366 29.3175 60.0366 29.9975 59.7666 31.0275C58.0966 37.2575 55.7367 43.2175 52.7067 48.9075C49.4767 54.9775 45.5766 60.5575 40.5566 65.2975C38.9166 66.8475 37.1266 68.2275 35.3866 69.6775C34.8466 70.1275 34.2467 70.1675 33.7167 69.6975C30.5867 66.9375 27.4667 64.1775 24.3567 61.3975C23.9067 60.9975 23.5166 60.5075 23.1366 60.0275C22.6366 59.3975 22.6767 58.6775 23.1967 58.2575C23.7167 57.8275 24.3767 57.9775 24.9567 58.5275C27.5167 60.9575 30.0966 63.3675 32.6766 65.7775C32.8266 65.9175 33.0167 66.0175 33.3667 66.2675" fill="white"/>
</svg>
