<svg width="78" height="78" viewBox="0 0 78 78" fill="none" xmlns="http://www.w3.org/2000/svg">
<path d="M69.6781 57.35H62.288V62.25H64.738V59.85H67.238V62.24H69.688V57.35H69.6781ZM12.3781 62.25H14.8281V57.34H7.43805V62.23H9.90802V59.84H12.3781V62.25ZM62.288 2.48001V7.38H64.7581V5H67.2581V7.39999H69.6681V2.48001H62.288ZM14.8181 7.41V2.51001H7.44806V7.39999H9.89807V5.01001H12.3981V7.41H14.8181ZM72.218 64.73H59.728V57.35H57.298V74.71H74.6481V57.35H72.228V64.73H72.218ZM2.43805 74.71H19.808V57.34H17.358V64.73H4.86804V57.35H2.44806V74.71H2.43805ZM72.198 9.89001H59.728V2.51001H57.308V19.87H74.6581V2.5H72.198V9.89001ZM19.808 19.88V2.51999H17.3381V9.88H4.86804V2.5H2.45807V19.88H19.808ZM54.7781 38.32C54.7181 37.78 54.638 36.75 54.468 35.72C52.998 26.87 43.988 20.79 35.218 22.76C23.158 25.47 18.6781 39.31 25.6281 48.64C29.4581 53.78 33.398 58.83 37.298 63.92C38.128 65 38.988 65.01 39.808 63.94C43.708 58.85 47.608 53.77 51.478 48.66C53.688 45.75 54.7081 42.43 54.7781 38.3M52.798 51.08C54.018 52.29 55.158 53.45 56.358 54.57C56.558 54.76 56.968 54.79 57.288 54.79C63.628 54.8 69.9581 54.79 76.2981 54.79H77.1681V77.17H54.7781V76.32C54.7781 69.98 54.778 63.65 54.788 57.31C54.788 56.77 54.628 56.4 54.248 56.02C53.268 55.06 52.3281 54.06 51.3181 53.03C49.1881 55.81 47.148 58.48 45.098 61.16C44.028 62.56 42.988 63.99 41.868 65.35C41.388 65.94 40.7181 66.37 40.1481 66.89C40.0081 67.01 39.8281 67.18 39.8281 67.33C39.7981 68.57 39.808 69.8 39.808 71.26C41.238 69.55 42.5181 68.02 43.8381 66.44C44.4981 66.99 45.1081 67.5 45.7681 68.05C43.3681 70.93 40.9981 73.78 38.5681 76.7C36.1481 73.8 33.778 70.95 31.368 68.06C32.008 67.52 32.618 67.01 33.288 66.44C34.598 68.01 35.8881 69.55 37.3181 71.26C37.3181 69.79 37.318 68.53 37.308 67.28C37.308 67.15 37.118 67.01 36.998 66.9C36.388 66.35 35.668 65.89 35.178 65.25C32.218 61.44 29.298 57.59 26.368 53.75C26.208 53.54 26.0381 53.35 25.8281 53.08C24.7181 54.2 23.608 55.29 22.538 56.42C22.368 56.6 22.368 56.99 22.368 57.29C22.368 63.63 22.368 69.96 22.368 76.3V77.18H-0.00195312V54.79H0.828064C7.16806 54.79 13.4981 54.79 19.8381 54.8C20.3781 54.8 20.7581 54.65 21.1281 54.27C22.1581 53.21 23.228 52.19 24.348 51.09C21.648 47.8 20.1781 44.08 19.8881 39.87H8.44806C10.0881 41.24 11.6181 42.52 13.2081 43.85C12.6781 44.49 12.158 45.12 11.608 45.79C8.71803 43.38 5.87807 41.01 2.95807 38.58C5.86807 36.15 8.70802 33.79 11.598 31.38C12.138 32.03 12.6481 32.64 13.2081 33.3C11.6381 34.62 10.0981 35.9 8.44806 37.29H19.908C20.248 33.16 21.738 29.49 24.498 26.28C23.218 25.01 21.988 23.75 20.718 22.54C20.538 22.37 20.138 22.38 19.848 22.38C13.568 22.38 7.27805 22.38 0.998047 22.38H-0.00195312V0H22.368V0.860016C22.368 6.91002 22.3981 12.96 22.3381 19.01C22.3281 20.17 22.608 21.01 23.498 21.77C24.458 22.59 25.2981 23.56 26.2581 24.53C29.4681 21.8 33.138 20.27 37.308 19.93V8.44C35.928 10.09 34.648 11.62 33.308 13.22C32.678 12.7 32.0681 12.19 31.3781 11.62C33.7581 8.76 36.1281 5.91 38.5781 2.97C40.9881 5.86 43.368 8.72002 45.788 11.61C45.128 12.16 44.518 12.67 43.858 13.22C42.538 11.64 41.258 10.11 39.868 8.45001V19.93C44.008 20.27 47.668 21.76 50.868 24.51C52.148 23.23 53.408 22 54.618 20.73C54.788 20.55 54.7781 20.15 54.7781 19.86C54.7781 13.55 54.7781 7.23999 54.7781 0.929993V0.0100098H77.1581V22.38H76.2981C70.3281 22.38 64.3581 22.42 58.3781 22.35C57.0881 22.34 56.1181 22.6 55.2781 23.62C54.5081 24.55 53.5681 25.35 52.6381 26.26C55.3581 29.47 56.898 33.14 57.228 37.31H68.728C67.078 35.93 65.5481 34.65 63.9481 33.31C64.4781 32.67 64.9981 32.04 65.5481 31.37C68.4481 33.78 71.288 36.15 74.198 38.58C71.288 41 68.4481 43.37 65.5581 45.78C65.0181 45.13 64.498 44.52 63.938 43.86C65.508 42.55 67.048 41.26 68.698 39.88H57.2581C56.9581 44.05 55.528 47.76 52.808 51.08" fill="white"/>
<path d="M38.5579 27.38C32.4079 27.38 27.3479 32.4201 27.3279 38.5701C27.3079 44.73 32.3979 49.83 38.5679 49.82C44.6979 49.82 49.7779 44.71 49.7579 38.59C49.7379 32.44 44.6879 27.38 38.5479 27.38M52.2479 38.5701C52.2479 46.2001 46.1379 52.31 38.5179 52.32C30.9279 52.32 24.8279 46.18 24.8379 38.52C24.8379 31.01 30.9979 24.89 38.5279 24.9C46.1179 24.9 52.2479 31.0101 52.2479 38.5701Z" fill="white"/>
<path d="M32.0592 37.77H29.6992V40.19H32.0592V37.77Z" fill="white"/>
<path d="M37.0978 37.78H34.6777V40.14H37.0978V37.78Z" fill="white"/>
<path d="M42.058 37.75H39.668V40.14H42.058V37.75Z" fill="white"/>
<path d="M47.0584 37.75H44.6484V40.15H47.0584V37.75Z" fill="white"/>
</svg>
