<svg width="99" height="74" viewBox="0 0 99 74" fill="none" xmlns="http://www.w3.org/2000/svg">
<path d="M78.5769 11.9523V7.65229C78.5769 7.65229 78.7169 2.00233 72.8169 2.00233H9.59692C9.59692 2.00233 1.36694 1.6023 1.36694 11.2823V53.6623C1.36694 53.6623 0.676925 62.5423 12.4769 62.5423H65.6169" stroke="white" stroke-width="2.26"/>
<path d="M9.24609 25.3523L12.5562 17.2023C12.5562 17.2023 14.4861 11.8823 24.0061 11.8823H82.9061C82.9061 11.8823 93.666 11.6523 88.696 20.5923" stroke="white" stroke-width="2.26"/>
<path d="M90.4678 42.2123L93.5378 33.0523C93.5378 33.0523 97.9878 23.1023 86.5878 23.1023H65.4578C65.4578 23.1023 62.2578 22.9723 58.7878 25.3623C55.3078 27.7523 51.4178 29.8723 51.4178 29.8723C51.4178 29.8723 48.0778 31.8623 42.1078 31.8623H19.5878C19.5878 31.8623 12.2178 31.2023 8.60779 38.8923C4.98779 46.5923 1.75781 55.0423 1.75781 55.0423" stroke="white" stroke-width="2.26"/>
<path d="M66.8767 52.8923L64.6167 53.2223C64.4967 53.2423 64.4067 53.3323 64.3967 53.4523L64.1767 55.9923C64.1667 56.1123 64.2367 56.2223 64.3567 56.2623L66.5167 56.9723C66.5767 58.1623 66.7867 59.3223 67.1167 60.4223L65.3767 61.8023C65.2867 61.8823 65.2567 62.0023 65.3067 62.1123L66.3867 64.4223C66.4367 64.5323 66.5567 64.5923 66.6767 64.5623L68.8366 64.1023C69.4866 65.1023 70.2567 66.0223 71.1267 66.8323L70.3266 68.8423C70.2766 68.9523 70.3267 69.0823 70.4167 69.1523L72.5067 70.6123C72.6067 70.6823 72.7366 70.6723 72.8266 70.5923L74.4267 69.1523C75.4867 69.6923 76.6266 70.1124 77.8266 70.3824L78.1267 72.4823C78.1467 72.6023 78.2367 72.6923 78.3567 72.7023L80.8967 72.9223C81.0167 72.9323 81.1267 72.8623 81.1667 72.7423L81.8266 70.7223C83.0566 70.6523 84.2567 70.4323 85.3967 70.0723L86.6966 71.7223C86.7666 71.8123 86.8967 71.8423 87.0067 71.7923L89.3166 70.7123C89.4266 70.6623 89.4866 70.5423 89.4566 70.4223L89.0167 68.3323C90.0267 67.6623 90.9467 66.8723 91.7667 65.9823L93.7467 66.7723C93.8567 66.8123 93.9867 66.7723 94.0567 66.6823L95.5167 64.5923C95.5867 64.4923 95.5767 64.3623 95.4967 64.2723L94.0467 62.6623C94.5767 61.6023 94.9767 60.4723 95.2267 59.2823L97.3767 58.9723C97.4967 58.9523 97.5866 58.8623 97.5966 58.7423L97.8166 56.2023C97.8166 56.0823 97.7567 55.9723 97.6367 55.9323L95.5267 55.2423C95.4467 54.0423 95.2267 52.8823 94.8667 51.7823L96.6267 50.4023C96.7167 50.3223 96.7466 50.2023 96.6966 50.0923L95.6167 47.7823C95.5667 47.6723 95.4466 47.6123 95.3266 47.6423L93.0866 48.1123C92.4366 47.1523 91.6866 46.2723 90.8266 45.4923L91.6767 43.3623C91.7267 43.2523 91.6766 43.1223 91.5866 43.0523L89.4967 41.5923C89.3967 41.5223 89.2667 41.5323 89.1767 41.6123L87.4366 43.1723C86.4266 42.6723 85.3466 42.2923 84.2066 42.0323L83.8767 39.7223C83.8567 39.6023 83.7667 39.5123 83.6467 39.5023L81.1067 39.2823C80.9867 39.2723 80.8766 39.3423 80.8366 39.4623L80.1067 41.7123C78.9567 41.7823 77.8267 41.9923 76.7567 42.3223L75.3067 40.4823C75.2267 40.3823 75.1067 40.3623 74.9967 40.4123L72.6866 41.4923C72.5766 41.5423 72.5167 41.6623 72.5467 41.7823L73.0367 44.0923C72.0867 44.7223 71.2066 45.4623 70.4366 46.2923L68.2667 45.4223C68.1567 45.3823 68.0266 45.4223 67.9566 45.5123L66.4967 47.6023C66.4267 47.7023 66.4367 47.8323 66.5167 47.9223L68.0666 49.6523C67.5466 50.6623 67.1567 51.7523 66.8867 52.8923H66.8767Z" stroke="white" stroke-width="1.89"/>
<path d="M80.9961 59.5823C83.2061 59.5823 84.9961 57.7923 84.9961 55.5823C84.9961 53.3723 83.2061 51.5823 80.9961 51.5823C78.7861 51.5823 76.9961 53.3723 76.9961 55.5823C76.9961 57.7923 78.7861 59.5823 80.9961 59.5823Z" stroke="white" stroke-width="1.89"/>
</svg>
