<svg width="90" height="79" viewBox="0 0 90 79" fill="none" xmlns="http://www.w3.org/2000/svg">
<path d="M53.5293 13.6134L78.2693 43.1434L88.3594 34.6635L63.6194 5.13342L53.5293 13.6134Z" stroke="white" stroke-width="2.26"/>
<path d="M10.48 36.5535L40.01 11.8135L31.5299 1.72351L2 26.4635L10.48 36.5535Z" stroke="white" stroke-width="2.26"/>
<path d="M56.3385 17.9535C56.3385 17.9535 49.6585 19.0135 43.8485 21.8235C38.0485 24.6335 32.4185 30.2635 29.9585 33.4335C27.4985 36.5935 31.0185 39.5835 36.2885 37.6535C41.5585 35.7235 45.2586 34.4935 48.2486 34.8435C51.2386 35.1935 55.1085 33.6135 56.6885 32.9135L71.8085 51.5535C71.8085 51.5535 75.1485 57.3535 70.5785 61.0535C66.0085 64.7435 52.6385 76.0035 52.6385 76.0035C52.6385 76.0035 48.2385 78.9935 44.0185 74.0735C39.7985 69.1535 16.5885 43.3035 16.5885 43.3035C16.5885 43.3035 13.4286 39.9635 14.1286 34.1635" stroke="white" stroke-width="2.26"/>
<path d="M54.2285 45.7434L68.4985 62.2234" stroke="white" stroke-width="2.26"/>
<path d="M47.4102 51.6735L61.6802 68.1435" stroke="white" stroke-width="2.26"/>
<path d="M40.4785 57.5334L54.7485 74.0134" stroke="white" stroke-width="2.26"/>
<path d="M35.5195 16.3534C35.5195 16.3534 41.8096 16.9634 45.8296 19.8434" stroke="white" stroke-width="2.26"/>
<path d="M18.8402 46.6635L14.4802 50.6834C14.4802 50.6834 12.7402 53.6534 15.1802 56.2734C17.6202 58.8934 32.2801 75.8234 32.2801 75.8234C32.2801 75.8234 35.5901 78.2634 38.0401 75.9934C40.4801 73.7234 41.7002 72.6734 41.7002 72.6734" stroke="white" stroke-width="2.26"/>
<path d="M24.3394 53.5334L18.3594 58.9234" stroke="white" stroke-width="2.26"/>
<path d="M30.2496 60.1034L24.2695 65.4934" stroke="white" stroke-width="2.26"/>
<path d="M35.9001 66.8634L29.9102 72.2534" stroke="white" stroke-width="2.26"/>
<path d="M70.7598 48.8934L74.4397 45.0834C74.4397 45.0834 75.8798 43.6934 75.8798 41.1034" stroke="white" stroke-width="2.26"/>
</svg>
