<svg width="1121" height="1080" viewBox="0 0 1121 1080" fill="none" xmlns="http://www.w3.org/2000/svg">
<path d="M1048.36 923.383L783.054 904.406L518.334 601.93L493.028 476.781L429.563 440.213L336.452 293.909L137.961 237.96L-32.2617 224.718L-443.278 -90.217L-557.94 -116.314L-772.841 -59.1773L-681.702 58.653L-884.145 192.292L-1002.97 217.21L-973.7 313.687L-781.141 723.712L-657.387 855.775L-616.067 955.413L-621.603 1093.41L-474.515 1248.4L-227.386 1643.01L-179.548 1531.51L258.358 1574.21L335.066 1455.2L437.079 1401.42L739.555 1348.84L1053.9 1220.53L1109.25 991.989L1048.36 923.383Z" fill="#EEEEEE" fill-opacity="0.09"/>
<path d="M722.93 839.196L709.728 821.953L710.583 825.889L722.93 839.196ZM524.947 471.19L529.84 471.233L519.184 468.043L514.701 465.141L511.168 465.966L509.268 468.16L507.686 472.165L508.196 474.214L509.245 474.578L508.428 473.041L514.203 467.12L517.231 468.672L517.458 469.966L516.27 470.566L517.371 472.169L523.648 470.436L524.986 471.157L524.947 471.19ZM580.742 649.266L582.188 652.755L581.456 647.309L578.312 645.817L578.127 647.575L580.746 649.23L580.742 649.266ZM681.346 750.44L683.038 748.841L681.114 746.788L678.353 748.202L677.431 743.861L676.011 744.945L673.736 743.472L673.874 745.953L669.578 749.201L668.471 752.821L664.583 754.95L664.451 748.625L666.285 745.335L664.273 746.175L662.733 744.961L663.052 743.653L660.395 744.425L657.393 743.311L652.957 747.886L646.476 750.178L634.553 747.653L625.31 735.869L622.68 730.187L623.39 728.956L619.223 729.606L617.381 734.345L614.079 717.129L612.714 715.281L610.231 715.092L607.778 706.345L601.521 696.871L600.609 698.988L601.838 700.75L599.54 699.492L600.324 697.216L598.388 690.447L599.637 685.826L596.546 680.386L597.641 674.117L594.524 663.413L586.318 656.6L584.854 652.238L583.081 653.575L584.784 656.003L584.809 658.872L583.768 658.762L578.685 651.915L578.589 649.039L575.347 647.791L573.723 643.92L570.498 640.787L570.017 636.056L569.479 635.311L568.087 637.159L568.023 635.701L565.23 633.63L563.61 629.034L564.786 630.608L566.242 630.218L568.731 634.144L572.398 635.146L573.296 639.014L574.394 638.585L575.07 636.298L573.155 635.19L571.507 629.829L568.724 628.012L564.22 620.827L561.152 613.104L562.232 610.424L564.047 610.071L562.468 608.526L562.938 606.472L561.7 604.455L558.112 604.077L556.076 602.049L553.907 604.396L552.326 603.903L552.504 596.014L553.917 594.313L551.705 590.851L554.967 583.649L556.357 582.853L558.305 584.327L564.619 600.156L566.613 599.132L566.247 595.72L568.602 590.236L567.554 588.82L568.17 582.972L570.328 586.246L569.754 588.254L572.487 585.385L572.895 581.511L573.843 581.465L572.728 579.643L574.504 568.984L573.288 564.684L569.117 560.544L570.773 560.32L570.665 557.552L573.283 556.122L573.245 553.035L572.21 554.595L571.995 551.815L571.38 550.771L570.231 555.474L571.153 556.37L567.887 560.85L565.877 559.623L566.243 553.386L565.082 553.046L563.731 557.257L562.812 554.621L561.968 555.402L561.579 558.409L558.072 553.469L555.858 547.286L555.288 540.297L556.311 537.467L554.196 536.881L553.879 534.381L555.328 528.548L555.409 530.878L558.451 536.096L561.094 534.416L565.46 535.673L568.706 540.332L570.247 540.168L569.201 539.078L567.951 537.858L556.682 523.612L551.468 517.658L543.709 516.587L541.708 514.925L538.773 513.855L535.686 511.825L534.74 511.507L528.875 506.573L528.569 506.033L528.007 503.797L526.141 503.601L526.175 500.521L527.625 500.528L528.116 498.621L524.185 499.441L521.775 496.14L527.843 493.296L528.507 494.563L529.249 493.372L529.476 493.287L530.739 493.347L530.838 493.104L528.094 491.944L521.704 495.443L518.733 492.301L517.465 487.125L519.212 484.661L520.507 480.625L523.376 473.019L520.702 476.365L518.913 483.359L516.481 485.098L514.036 482.483L516 481.747L515.543 477.817L512.637 477.511L511.619 472.362L509.646 473.532L510.152 474.928L508.35 477.568L510.142 477.43L514.514 481.735L511.082 485.038L513.259 489.511L509.498 488.027L506.28 489.647L506.79 486.871L505.514 485.903L503.591 490.38L502.285 487.63L500.285 488.363L500.87 486.937L499.535 486.869L500.732 485.834L502.406 486.482L503.828 481.59L500.91 480.013L499.511 480.555L498.412 480.656L497.013 480.509L495.366 477.543L495.733 467.859L491.545 466.294L486.943 469.001L488.797 465.859L488.038 463.421L489.974 463.299L491.628 461.369L488.153 459.226L488.153 461.983L485.487 462.5L484.09 460.611L480.155 458.021L479.05 458.521L479.975 456.623L482.085 457.607L483.964 455.266L484.743 456.472L486.717 455.302L488.616 457.243L490.546 455.451L491.898 457.081L493.877 454.133L494.778 455.57L494.047 457.343L495.488 457.785L495.122 452.994L492.259 451.242L490.781 447.713L486.42 445.367L476.826 445.191L470.17 441.915L467.492 437.715L465.064 436.661L460.908 438.581L461.055 441.318L458.881 442.322L458.731 438.933L460.317 436.27L458.672 435.698L456.576 439.068L453.687 437.567L454.597 435.813L454.824 433.66L456.193 433.405L457.077 431.902L454.244 432.62L455.254 429.57L454.212 427.755L452.433 430.18L451.752 423.905L450.468 427.143L448.789 426.894L452.6 415.506L453.227 419.199L455.204 416.614L454.258 421.811L455.693 421.962L455.595 424.273L458 422.786L458.236 421.577L457.09 420.404L458.21 414.936L453.027 411.452L453.035 407.934L450.423 407.586L446.439 402.705L446.331 399.936L448.512 400.239L450.61 397.884L440.525 394.791L435.397 388.374L434.477 385.738L435.21 378.777L437.055 377.448L432.825 371.453L429.06 368.626L426.711 363.372L429.635 355.591L427.437 355.105L427.93 354.214L425.796 352.429L426.089 346.547L422.786 345.184L419.808 342.113L354.456 340.927L354.971 339.131L346.178 326.524L346.033 314.465L344.676 307.72L336.394 293.354L334.192 291.526L252.593 277.891L241.606 285.767L234.572 288.835L221.237 288.011L188.261 298.36L165.842 320.412L130.57 381.16L105.544 412.116L101.769 424.198L102.613 428.241L106.306 433.128L114.777 439.497L120.134 445.466L123.355 458.974L126.442 463.071L153.108 479.918L168.032 483.231L176.703 494.591L187.014 503.803L193.093 505.676L207.846 506.468L215.648 508.85L240.813 527.896L247.247 531.222L253.38 531.541L265.005 529.319L269.029 530.033L285.322 546.513L288.895 553.237L311.843 562.329L321.753 568.124L324.373 574.93L325.034 587.95L323.951 647.147L320.93 686.514L321.137 705.907L322.58 715.636L325.34 720.425L331.169 725.355L355.281 742.695L378.463 767.482L382.63 773.035L387.696 783.835L387.981 783.538L391.356 778.706L390.78 773.495L379.53 755.623L384.881 755.098L397.025 763.451L417.133 767.817L431.503 778.109L434.564 778.323L436.335 776.659L440.794 761.53L446.393 756.932L452.166 756.198L454.385 757.52L460.045 768.527L464.77 773.958L467.311 773.246L478.279 757.968L492.027 751.435L494.496 752.094L496.904 756.447L505.63 761.429L516.144 753.902L536.115 753.031L580.313 757.032L615.199 768.505L632.797 761.579L644.2 761.111L664.979 767.036L666.048 762.396L674.308 756.301L675.545 752.477L676.694 752.925L678.183 750.506L681.346 750.44ZM556.405 545.53L559.045 545.953L562.015 549.095L562.31 544.918L560.08 543.015L557.017 543.853L556.405 545.53Z" fill="#275A67"/>
<g opacity="0.55">
<mask id="mask0_476_1448" style="mask-type:luminance" maskUnits="userSpaceOnUse" x="14" y="193" width="803" height="701">
<path d="M816.1 270.664L79.6348 193.112L14.075 815.701L750.541 893.253L816.1 270.664Z" fill="white"/>
</mask>
<g mask="url(#mask0_476_1448)">
<mask id="mask1_476_1448" style="mask-type:luminance" maskUnits="userSpaceOnUse" x="101" y="277" width="622" height="563">
<path d="M710.333 825.863L722.68 839.17L709.442 821.924L710.297 825.859L710.333 825.863ZM577.912 647.553L580.496 649.204L581.942 652.693L581.209 647.248L578.065 645.756L577.88 647.514L577.912 647.553ZM556.767 543.827L556.155 545.504L558.795 545.927L561.765 549.069L562.06 544.892L559.83 542.989L556.767 543.827ZM510.922 465.904L509.022 468.098L507.439 472.103L507.949 474.152L508.999 474.516L508.178 473.015L513.953 467.094L516.945 468.642L517.172 469.936L515.984 470.536L517.085 472.139L523.362 470.406L524.701 471.128L529.593 471.171L518.938 467.981L514.455 465.079L510.922 465.904ZM241.352 285.776L234.318 288.845L220.983 288.021L188.007 298.369L165.588 320.422L130.316 381.17L105.255 412.122L101.479 424.204L102.323 428.247L106.017 433.134L114.488 439.503L119.844 445.473L123.065 458.98L126.153 463.078L152.819 479.924L167.742 483.237L176.413 494.597L186.724 503.809L192.803 505.682L207.556 506.474L215.359 508.856L240.524 527.902L246.957 531.228L253.09 531.547L264.715 529.325L268.739 530.039L285.068 546.523L288.641 553.247L311.589 562.338L321.499 568.134L324.12 574.94L324.78 587.96L323.697 647.156L320.677 686.524L320.884 705.917L322.326 715.646L325.086 720.435L330.915 725.365L355.027 742.705L378.209 767.492L382.376 773.045L387.442 783.845L387.727 783.548L391.102 778.716L390.526 773.504L379.276 755.633L384.628 755.108L396.807 763.465L416.915 767.831L431.285 778.123L434.346 778.336L436.117 776.673L440.54 761.54L446.139 756.942L451.876 756.204L454.131 757.53L459.792 768.537L464.516 773.968L467.058 773.256L478.026 757.978L491.773 751.445L494.243 752.104L496.65 756.457L505.376 761.439L515.89 753.912L535.861 753.041L580.059 757.042L614.945 768.515L632.543 761.589L643.946 761.121L664.725 767.046L665.794 762.406L674.054 756.311L675.291 752.487L676.441 752.935L677.929 750.516L681.092 750.45L682.748 748.847L680.824 746.794L678.063 748.208L677.138 743.903L675.718 744.987L673.442 743.514L673.58 745.995L669.284 749.243L668.178 752.863L664.325 754.996L664.193 748.67L666.027 745.381L664.016 746.221L662.475 745.007L662.762 743.659L660.105 744.431L657.103 743.317L652.671 747.856L646.154 750.144L634.267 747.623L625.024 735.84L622.394 730.158L623.104 728.926L618.937 729.576L617.095 734.315L613.793 717.099L612.464 715.255L609.981 715.066L607.528 706.319L601.271 696.845L600.359 698.962L601.592 700.688L599.294 699.43L600.077 697.155L598.142 690.385L599.39 685.764L596.3 680.324L597.395 674.055L594.278 663.352L586.071 656.538L584.608 652.176L582.835 653.513L584.538 655.941L584.563 658.81L583.522 658.7L578.439 651.853L578.343 648.977L575.104 647.693L573.481 643.822L570.256 640.689L569.774 635.959L569.236 635.213L567.844 637.061L567.744 635.6L564.952 633.528L563.332 628.932L564.508 630.507L565.964 630.116L568.452 634.042L572.119 635.045L573.018 638.912L574.115 638.484L574.791 636.197L572.877 635.088L571.228 629.727L568.445 627.911L563.942 620.725L560.873 613.002L561.918 610.319L563.733 609.966L562.118 608.417L562.588 606.363L561.35 604.346L557.762 603.968L555.726 601.94L553.557 604.287L551.976 603.794L552.154 595.905L553.566 594.204L551.355 590.742L554.617 583.54L556.007 582.743L557.955 584.218L564.269 600.046L566.263 599.023L565.897 595.611L568.252 590.127L567.2 588.747L567.816 582.899L569.974 586.173L569.4 588.18L572.133 585.312L572.541 581.437L573.489 581.392L572.375 579.57L574.15 568.91L572.934 564.611L568.763 560.471L570.419 560.247L570.311 557.478L572.929 556.049L572.891 552.962L571.856 554.521L571.641 551.742L571.026 550.697L569.877 555.401L570.799 556.296L567.534 560.777L565.523 559.55L565.889 553.313L564.728 552.973L563.378 557.183L562.458 554.547L561.614 555.329L561.225 558.335L557.719 553.395L555.504 547.213L554.934 540.224L555.957 537.394L553.843 536.808L553.525 534.308L554.974 528.475L555.059 530.769L558.101 535.987L560.744 534.306L565.11 535.564L568.356 540.223L569.901 540.023L568.854 538.933L567.604 537.713L556.336 523.467L551.122 517.513L543.363 516.442L541.362 514.78L538.427 513.71L535.34 511.68L534.394 511.362L528.529 506.428L528.223 505.888L527.66 503.652L525.795 503.456L525.865 500.38L527.315 500.387L527.806 498.48L523.874 499.299L521.465 495.998L527.532 493.155L528.197 494.422L528.939 493.231L529.166 493.146L530.429 493.206L530.527 492.962L527.783 491.803L521.39 495.338L518.419 492.195L517.151 487.019L518.897 484.555L520.193 480.52L523.062 472.914L520.387 476.26L518.599 483.254L516.167 484.993L513.722 482.378L515.685 481.641L515.229 477.712L512.322 477.406L511.305 472.256L509.331 473.427L509.837 474.822L508.036 477.462L509.828 477.324L514.203 481.594L510.772 484.897L512.949 489.37L509.184 487.922L505.966 489.542L506.436 486.798L505.16 485.829L503.237 490.306L501.967 487.561L499.931 488.29L500.52 486.828L499.185 486.76L500.382 485.725L502.055 486.373L503.477 481.48L500.56 479.904L499.161 480.445L498.062 480.547L496.663 480.4L495.016 477.433L495.383 467.75L491.195 466.185L486.593 468.892L488.447 465.75L487.688 463.312L489.624 463.19L491.278 461.26L487.803 459.116L487.767 461.87L485.097 462.423L483.704 460.499L479.769 457.908L478.664 458.408L479.585 456.546L481.695 457.53L483.574 455.189L484.353 456.395L486.327 455.225L488.226 457.166L490.156 455.374L491.508 457.004L493.487 454.056L494.388 455.493L493.657 457.266L495.098 457.708L494.732 452.917L491.869 451.165L490.391 447.636L486.027 445.326L476.468 445.154L469.812 441.877L467.135 437.678L464.706 436.624L460.55 438.544L460.697 441.28L458.524 442.285L458.373 438.895L459.959 436.233L458.314 435.661L456.218 439.031L453.329 437.53L454.243 435.74L454.47 433.587L455.839 433.332L456.723 431.829L453.89 432.547L454.901 429.497L453.858 427.682L452.079 430.107L451.394 423.868L450.11 427.106L448.431 426.857L452.242 415.469L452.869 419.162L454.846 416.577L453.9 421.774L455.335 421.925L455.237 424.236L457.643 422.748L457.879 421.54L456.736 420.331L457.856 414.863L452.673 411.378L452.681 407.861L450.069 407.513L446.085 402.632L445.978 399.863L448.158 400.165L450.253 397.847L440.167 394.753L435.039 388.337L434.119 385.7L434.852 378.74L436.697 377.411L432.468 371.415L428.703 368.588L426.354 363.335L429.277 355.553L427.075 355.104L427.568 354.212L425.435 352.428L425.763 346.55L422.461 345.186L419.487 342.08L354.13 340.929L354.649 339.097L345.856 326.491L345.715 314.396L344.357 307.651L336.04 293.28L333.838 291.453L252.239 277.818L241.252 285.693L241.352 285.776Z" fill="white"/>
</mask>
<g mask="url(#mask1_476_1448)">
<path d="M-116.674 658.716L274.97 1078.89L278.078 1079L-116.568 655.644L-116.674 658.716Z" fill="#DBDADA"/>
<path d="M-115.842 635.66L298.03 1079.69L301.138 1079.8L-115.732 632.552L-115.842 635.66Z" fill="#DBDADA"/>
<path d="M-115.046 612.6L321.122 1080.52L324.231 1080.63L-114.936 609.492L-115.046 612.6Z" fill="#DBDADA"/>
<path d="M-114.214 589.544L344.182 1081.32L347.291 1081.43L-114.105 586.435L-114.214 589.544Z" fill="#DBDADA"/>
<path d="M-113.418 566.483L367.243 1082.12L370.351 1082.23L-113.308 563.375L-113.418 566.483Z" fill="#DBDADA"/>
<path d="M-112.623 543.423L390.298 1082.95L393.406 1083.06L-112.513 540.315L-112.623 543.423Z" fill="#DBDADA"/>
<path d="M-111.79 520.367L413.359 1083.74L416.468 1083.85L-111.681 517.258L-111.79 520.367Z" fill="#DBDADA"/>
<path d="M-110.995 497.307L436.419 1084.54L439.527 1084.65L-110.885 494.199L-110.995 497.307Z" fill="#DBDADA"/>
<path d="M-110.159 474.214L459.476 1085.37L462.584 1085.48L-110.053 471.142L-110.159 474.214Z" fill="#DBDADA"/>
<path d="M-109.363 451.154L482.572 1086.17L485.645 1086.28L-109.253 448.046L-109.363 451.154Z" fill="#DBDADA"/>
<path d="M-108.568 428.094L505.628 1087L508.736 1087.11L-108.458 424.986L-108.568 428.094Z" fill="#DBDADA"/>
<path d="M-107.736 405.038L528.688 1087.8L531.796 1087.91L-107.626 401.93L-107.736 405.038Z" fill="#DBDADA"/>
<path d="M-106.94 381.978L551.748 1088.59L554.857 1088.7L-106.83 378.87L-106.94 381.978Z" fill="#DBDADA"/>
<path d="M-106.144 358.918L574.804 1089.43L577.912 1089.54L-106.035 355.81L-106.144 358.918Z" fill="#DBDADA"/>
<path d="M-105.312 335.861L597.865 1090.22L600.973 1090.33L-105.202 332.753L-105.312 335.861Z" fill="#DBDADA"/>
<path d="M-104.517 312.801L620.924 1091.02L624.033 1091.13L-104.407 309.693L-104.517 312.801Z" fill="#DBDADA"/>
<path d="M-103.681 289.709L643.981 1091.85L647.09 1091.96L-103.575 286.637L-103.681 289.709Z" fill="#DBDADA"/>
<path d="M-102.885 266.649L667.077 1092.65L670.149 1092.76L-102.776 263.541L-102.885 266.649Z" fill="#DBDADA"/>
</g>
<path d="M320.75 697.197L387.599 768.916L381.351 759.008L320.695 693.926L320.75 697.197Z" fill="#DBDADA"/>
<path d="M321.578 674.177L406.908 765.726L410.665 766.557L321.816 671.227L321.574 674.213L321.578 674.177ZM123.098 459.02L126.181 463.154L130.296 465.763L122.799 457.719L123.13 459.06L123.098 459.02Z" fill="#DBDADA"/>
<path d="M323.291 652.047L436.878 773.923L437.609 771.461L323.497 649.058L323.255 652.043L323.291 652.047ZM103.906 416.66L165.508 482.748L167.778 483.241L175.871 493.887L177.141 495.254L186.724 503.809L188.692 504.415L104.629 414.269L103.866 416.692L103.906 416.66Z" fill="#DBDADA"/>
<path d="M323.991 628.868L444.554 758.226L446.1 756.974L446.359 756.929L324.033 625.716L323.991 628.868ZM113.045 402.568L210.858 507.511L215.076 508.79L114.425 400.827L113.045 402.568Z" fill="#DBDADA"/>
<path d="M324.43 605.408L473.089 764.896L474.405 763.075L324.507 602.26L324.466 605.412L324.43 605.408ZM123.425 389.768L255.267 531.197L257.822 530.704L124.841 388.031L123.461 389.772L123.425 389.768Z" fill="#DBDADA"/>
<path d="M324.412 581.464L485.587 754.385L487.685 753.409L324.225 578.071L324.408 581.5L324.412 581.464ZM133.184 376.321L303.779 559.34L308.551 561.221L134.336 374.338L133.184 376.321Z" fill="#DBDADA"/>
<path d="M141.737 361.587L510.832 757.515L512.633 756.254L142.889 359.604L141.737 361.587Z" fill="#DBDADA"/>
<path d="M150.293 346.817L529.225 753.358L532.141 753.229L151.445 344.834L150.293 346.817Z" fill="#DBDADA"/>
<path d="M158.882 332.087L552.71 754.598L555.979 754.906L160.034 330.104L158.882 332.087Z" fill="#DBDADA"/>
<path d="M168.088 318.038L577.073 756.8L580.023 757.038L580.442 757.191L169.665 316.499L168.088 318.038Z" fill="#DBDADA"/>
<path d="M179.703 306.601L608.283 766.326L612.594 767.759L181.28 305.062L179.703 306.601Z" fill="#DBDADA"/>
<path d="M192.955 296.859L627.888 763.42L630.082 762.563L195.281 296.124L192.955 296.859Z" fill="#DBDADA"/>
<path d="M710.333 825.863L722.68 839.17L717.514 832.423L710.017 824.378L710.333 825.863ZM649.512 762.687L653.599 763.842L639.42 748.637L635.694 747.846L649.548 762.69L649.512 762.687ZM619.051 729.515L618.906 729.863L628.847 740.523L625.139 735.779L622.864 730.86L621.3 729.172L619.051 729.515ZM210.249 291.425L615.683 726.367L614.914 722.296L212.579 290.655L210.253 291.389L210.249 291.425Z" fill="#DBDADA"/>
<path d="M664.487 754.832L669.181 759.861L670.951 758.56L666.453 753.733L664.487 754.832ZM655.392 745.096L664.319 754.706L664.265 751.435L656.897 743.549L655.352 745.128L655.392 745.096ZM229.882 288.596L598.516 684.076L596.407 680.335L596.673 678.84L233.09 288.788L229.918 288.599L229.882 288.596Z" fill="#DBDADA"/>
<path d="M679.755 747.298L681.904 749.629L682.752 748.811L680.828 746.758L679.752 747.334L679.755 747.298ZM676.789 744.12L677.378 744.726L677.182 743.835L676.789 744.12ZM246.293 282.27L571.937 631.616L571.34 629.703L568.557 627.886L564.054 620.701L563.54 619.377L248.098 280.973L246.293 282.27Z" fill="#DBDADA"/>
<path d="M564.061 599.263L564.647 599.905L566.37 599.035L566.323 598.449L561.826 593.623L564.061 599.263ZM552.977 587.395L553.969 585.214L270.304 280.917L266.739 280.324L552.977 587.395Z" fill="#DBDADA"/>
<path d="M572.358 584.212L572.649 581.449L572.792 581.464L296.756 285.335L293.191 284.742L572.358 584.212Z" fill="#DBDADA"/>
<path d="M569.981 555.448L570.902 556.343L569.926 557.692L570.447 558.254L570.415 557.525L571.992 556.676L570.168 554.706L569.981 555.448ZM565.985 553.431L565.993 553.36L565.885 553.348L565.985 553.431ZM556.99 543.778L561.78 548.926L561.99 545.901L559.38 543.123L556.99 543.778ZM506.404 489.515L555.198 541.848L555.07 540.311L555.536 538.982L508.438 488.46L506.408 489.479L506.404 489.515ZM504.644 487.625L506.208 489.313L506.64 486.928L505.364 485.959L504.644 487.625ZM499.365 480.576L498.266 480.678L498.194 480.67L502.595 485.378L503.326 482.915L500.656 480.022L499.408 480.508L499.365 480.576ZM487.11 468.801L495.192 477.488L495.301 474.38L489.043 467.663L487.11 468.801ZM460.758 438.638L460.873 440.646L486.945 468.639L488.133 466.66L480.144 458.128L479.94 457.998L478.836 458.499L479.395 457.324L461.6 438.219L460.722 438.635L460.758 438.638ZM457.678 437.226L458.884 438.514L460.036 436.531L459.68 436.131L458.558 435.759L457.682 437.19L457.678 437.226ZM368.239 341.29L454.676 434.044L454.706 433.757L456.075 433.502L456.513 432.786L456.024 432.263L454.122 432.752L454.717 430.892L453.118 429.2L452.312 430.312L452.043 428.035L450.608 426.506L450.31 427.272L448.631 427.023L449.27 425.095L371.244 341.353L368.204 341.286L368.239 341.29ZM345.911 317.355L345.883 314.522L345.76 313.965L323.239 289.792L319.674 289.199L345.911 317.355Z" fill="#DBDADA"/>
<path d="M519.619 479.771L520.337 480.535L521.196 478.232L520.286 477.229L519.655 479.774L519.619 479.771ZM508.986 468.095L508.968 468.274L510.788 470.279L512.333 468.701L510.344 466.569L509.022 468.098L508.986 468.095ZM494.917 453.227L494.944 452.976L494.396 452.665L494.917 453.227ZM491.201 449.245L490.567 447.691L488.952 446.831L491.201 449.245ZM452.87 408.135L452.893 407.919L452.641 407.893L452.87 408.135ZM446.187 400.974L446.153 399.918L448.334 400.221L448.418 400.12L444.669 396.098L440.455 394.784L446.191 400.938L446.187 400.974ZM390.843 341.603L439.994 394.336L435.215 388.392L434.295 385.755L434.363 385.11L393.88 341.705L390.839 341.639L390.843 341.603Z" fill="#DBDADA"/>
<path d="M413.543 342.034L428.503 358.084L429.359 355.816L429.134 355.538L427.216 355.155L427.745 354.267L425.615 352.447L425.647 351.797L416.583 342.1L413.543 342.034Z" fill="#DBDADA"/>
<mask id="mask2_476_1448" style="mask-type:luminance" maskUnits="userSpaceOnUse" x="101" y="277" width="622" height="563">
<path d="M710.333 825.863L722.68 839.17L709.442 821.924L710.297 825.859L710.333 825.863ZM577.912 647.553L580.496 649.204L581.942 652.693L581.209 647.248L578.065 645.756L577.88 647.514L577.912 647.553ZM556.767 543.827L556.155 545.504L558.795 545.927L561.765 549.069L562.06 544.892L559.83 542.989L556.767 543.827ZM510.922 465.904L509.022 468.098L507.439 472.103L507.949 474.152L508.999 474.516L508.178 473.015L513.953 467.094L516.945 468.642L517.172 469.936L515.984 470.536L517.085 472.139L523.362 470.406L524.701 471.128L529.593 471.171L518.938 467.981L514.455 465.079L510.922 465.904ZM241.352 285.776L234.318 288.845L220.983 288.021L188.007 298.369L165.588 320.422L130.316 381.17L105.255 412.122L101.479 424.204L102.323 428.247L106.017 433.134L114.488 439.503L119.844 445.473L123.065 458.98L126.153 463.078L152.819 479.924L167.742 483.237L176.413 494.597L186.724 503.809L192.803 505.682L207.556 506.474L215.359 508.856L240.524 527.902L246.957 531.228L253.09 531.547L264.715 529.325L268.739 530.039L285.068 546.523L288.641 553.247L311.589 562.338L321.499 568.134L324.12 574.94L324.78 587.96L323.697 647.156L320.677 686.524L320.884 705.917L322.326 715.646L325.086 720.435L330.915 725.365L355.027 742.705L378.209 767.492L382.376 773.045L387.442 783.845L387.727 783.548L391.102 778.716L390.526 773.504L379.276 755.633L384.628 755.108L396.807 763.465L416.915 767.831L431.285 778.123L434.346 778.336L436.117 776.673L440.54 761.54L446.139 756.942L451.876 756.204L454.131 757.53L459.792 768.537L464.516 773.968L467.058 773.256L478.026 757.978L491.773 751.445L494.243 752.104L496.65 756.457L505.376 761.439L515.89 753.912L535.861 753.041L580.059 757.042L614.945 768.515L632.543 761.589L643.946 761.121L664.725 767.046L665.794 762.406L674.054 756.311L675.291 752.487L676.441 752.935L677.929 750.516L681.092 750.45L682.748 748.847L680.824 746.794L678.063 748.208L677.138 743.903L675.718 744.987L673.442 743.514L673.58 745.995L669.284 749.243L668.178 752.863L664.325 754.996L664.193 748.67L666.027 745.381L664.016 746.221L662.475 745.007L662.762 743.659L660.105 744.431L657.103 743.317L652.671 747.856L646.154 750.144L634.267 747.623L625.024 735.84L622.394 730.158L623.104 728.926L618.937 729.576L617.095 734.315L613.793 717.099L612.464 715.255L609.981 715.066L607.528 706.319L601.271 696.845L600.359 698.962L601.592 700.688L599.294 699.43L600.077 697.155L598.142 690.385L599.39 685.764L596.3 680.324L597.395 674.055L594.278 663.352L586.071 656.538L584.608 652.176L582.835 653.513L584.538 655.941L584.563 658.81L583.522 658.7L578.439 651.853L578.343 648.977L575.104 647.693L573.481 643.822L570.256 640.689L569.774 635.959L569.236 635.213L567.844 637.061L567.744 635.6L564.952 633.528L563.332 628.932L564.508 630.507L565.964 630.116L568.452 634.042L572.119 635.045L573.018 638.912L574.115 638.484L574.791 636.197L572.877 635.088L571.228 629.727L568.445 627.911L563.942 620.725L560.873 613.002L561.918 610.319L563.733 609.966L562.118 608.417L562.588 606.363L561.35 604.346L557.762 603.968L555.726 601.94L553.557 604.287L551.976 603.794L552.154 595.905L553.566 594.204L551.355 590.742L554.617 583.54L556.007 582.743L557.955 584.218L564.269 600.046L566.263 599.023L565.897 595.611L568.252 590.127L567.2 588.747L567.816 582.899L569.974 586.173L569.4 588.18L572.133 585.312L572.541 581.437L573.489 581.392L572.375 579.57L574.15 568.91L572.934 564.611L568.763 560.471L570.419 560.247L570.311 557.478L572.929 556.049L572.891 552.962L571.856 554.521L571.641 551.742L571.026 550.697L569.877 555.401L570.799 556.296L567.534 560.777L565.523 559.55L565.889 553.313L564.728 552.973L563.378 557.183L562.458 554.547L561.614 555.329L561.225 558.335L557.719 553.395L555.504 547.213L554.934 540.224L555.957 537.394L553.843 536.808L553.525 534.308L554.974 528.475L555.059 530.769L558.101 535.987L560.744 534.306L565.11 535.564L568.356 540.223L569.901 540.023L568.854 538.933L567.604 537.713L556.336 523.467L551.122 517.513L543.363 516.442L541.362 514.78L538.427 513.71L535.34 511.68L534.394 511.362L528.529 506.428L528.223 505.888L527.66 503.652L525.795 503.456L525.865 500.38L527.315 500.387L527.806 498.48L523.874 499.299L521.465 495.998L527.532 493.155L528.197 494.422L528.939 493.231L529.166 493.146L530.429 493.206L530.527 492.962L527.783 491.803L521.39 495.338L518.419 492.195L517.151 487.019L518.897 484.555L520.193 480.52L523.062 472.914L520.387 476.26L518.599 483.254L516.167 484.993L513.722 482.378L515.685 481.641L515.229 477.712L512.322 477.406L511.305 472.256L509.331 473.427L509.837 474.822L508.036 477.462L509.828 477.324L514.203 481.594L510.772 484.897L512.949 489.37L509.184 487.922L505.966 489.542L506.436 486.798L505.16 485.829L503.237 490.306L501.967 487.561L499.931 488.29L500.52 486.828L499.185 486.76L500.382 485.725L502.055 486.373L503.477 481.48L500.56 479.904L499.161 480.445L498.062 480.547L496.663 480.4L495.016 477.433L495.383 467.75L491.195 466.185L486.593 468.892L488.447 465.75L487.688 463.312L489.624 463.19L491.278 461.26L487.803 459.116L487.767 461.87L485.097 462.423L483.704 460.499L479.769 457.908L478.664 458.408L479.585 456.546L481.695 457.53L483.574 455.189L484.353 456.395L486.327 455.225L488.226 457.166L490.156 455.374L491.508 457.004L493.487 454.056L494.388 455.493L493.657 457.266L495.098 457.708L494.732 452.917L491.869 451.165L490.391 447.636L486.027 445.326L476.468 445.154L469.812 441.877L467.135 437.678L464.706 436.624L460.55 438.544L460.697 441.28L458.524 442.285L458.373 438.895L459.959 436.233L458.314 435.661L456.218 439.031L453.329 437.53L454.243 435.74L454.47 433.587L455.839 433.332L456.723 431.829L453.89 432.547L454.901 429.497L453.858 427.682L452.079 430.107L451.394 423.868L450.11 427.106L448.431 426.857L452.242 415.469L452.869 419.162L454.846 416.577L453.9 421.774L455.335 421.925L455.237 424.236L457.643 422.748L457.879 421.54L456.736 420.331L457.856 414.863L452.673 411.378L452.681 407.861L450.069 407.513L446.085 402.632L445.978 399.863L448.158 400.165L450.253 397.847L440.167 394.753L435.039 388.337L434.119 385.7L434.852 378.74L436.697 377.411L432.468 371.415L428.703 368.588L426.354 363.335L429.277 355.553L427.075 355.104L427.568 354.212L425.435 352.428L425.763 346.55L422.461 345.186L419.487 342.08L354.13 340.929L354.649 339.097L345.856 326.491L345.715 314.396L344.357 307.651L336.04 293.28L333.838 291.453L252.239 277.818L241.252 285.693L241.352 285.776Z" fill="white"/>
</mask>
<g mask="url(#mask2_476_1448)">
<path d="M134.096 18.3394L931.406 873.664L931.515 870.556L137.205 18.449L134.096 18.3394Z" fill="#DBDADA"/>
<path d="M157.156 19.1352L932.237 850.608L932.346 847.5L160.264 19.2448L157.156 19.1352Z" fill="#DBDADA"/>
<path d="M180.217 19.9316L933.034 827.549L933.143 824.441L183.325 20.0413L180.217 19.9316Z" fill="#DBDADA"/>
<path d="M203.272 20.7635L933.829 804.489L933.938 801.381L206.381 20.8732L203.272 20.7635Z" fill="#DBDADA"/>
<path d="M226.333 21.5594L934.662 781.432L934.771 778.324L229.442 21.669L226.333 21.5594Z" fill="#DBDADA"/>
<path d="M249.393 22.3546L935.457 758.372L935.567 755.264L252.501 22.4643L249.393 22.3546Z" fill="#DBDADA"/>
<path d="M272.486 23.1906L936.253 735.312L936.363 732.204L275.558 23.2964L272.486 23.1906Z" fill="#DBDADA"/>
<path d="M295.545 23.9864L937.087 712.22L937.197 709.112L298.653 24.0961L295.545 23.9864Z" fill="#DBDADA"/>
<path d="M318.602 24.8183L937.884 689.16L937.994 686.052L321.71 24.928L318.602 24.8183Z" fill="#DBDADA"/>
<path d="M341.662 25.6142L938.716 666.103L938.825 662.995L344.77 25.7238L341.662 25.6142Z" fill="#DBDADA"/>
<path d="M364.722 26.4094L939.512 643.043L939.622 639.935L367.83 26.5191L364.722 26.4094Z" fill="#DBDADA"/>
<path d="M387.778 27.2413L940.307 619.983L940.417 616.875L390.886 27.351L387.778 27.2413Z" fill="#DBDADA"/>
<path d="M410.839 28.0377L941.139 596.927L941.249 593.819L413.947 28.1474L410.839 28.0377Z" fill="#DBDADA"/>
<path d="M433.898 28.8336L941.935 573.867L942.044 570.759L437.006 28.9432L433.898 28.8336Z" fill="#DBDADA"/>
<path d="M456.99 29.6684L942.73 550.806L942.84 547.698L460.062 29.7743L456.99 29.6684Z" fill="#DBDADA"/>
<path d="M480.051 30.4642L943.567 527.714L943.673 524.641L483.159 30.5739L480.051 30.4642Z" fill="#DBDADA"/>
<path d="M503.107 31.2967L944.363 504.654L944.472 501.546L506.215 31.4064L503.107 31.2967Z" fill="#DBDADA"/>
</g>
<path d="M722.68 839.17L709.478 821.927L710.333 825.863L722.68 839.17ZM524.697 471.163L529.59 471.207L518.934 468.017L514.451 465.115L510.918 465.94L509.018 468.134L507.436 472.139L507.946 474.188L508.995 474.552L508.178 473.015L513.953 467.094L516.981 468.646L517.208 469.94L516.02 470.54L517.121 472.143L523.398 470.41L524.736 471.131L524.697 471.163ZM580.492 649.24L581.938 652.729L581.206 647.283L578.062 645.791L577.877 647.549L580.496 649.204L580.492 649.24ZM681.096 750.414L682.788 748.815L680.864 746.762L678.103 748.176L677.181 743.835L675.761 744.919L673.486 743.446L673.624 745.927L669.328 749.175L668.221 752.795L664.333 754.924L664.201 748.599L666.035 745.309L664.023 746.149L662.483 744.935L662.802 743.627L660.145 744.399L657.143 743.285L652.707 747.86L646.226 750.152L634.303 747.627L625.06 735.843L622.43 730.161L623.14 728.93L618.973 729.58L617.131 734.319L613.829 717.103L612.464 715.255L609.981 715.066L607.528 706.319L601.271 696.845L600.359 698.962L601.588 700.724L599.29 699.466L600.074 697.19L598.138 690.421L599.387 685.8L596.296 680.36L597.391 674.091L594.274 663.387L586.068 656.574L584.604 652.212L582.831 653.549L584.534 655.977L584.559 658.846L583.518 658.736L578.435 651.889L578.339 649.013L575.097 647.765L573.473 643.894L570.248 640.761L569.767 636.03L569.229 635.285L567.837 637.133L567.773 635.675L564.98 633.604L563.36 629.008L564.536 630.582L565.992 630.192L568.481 634.118L572.148 635.12L573.046 638.988L574.144 638.559L574.82 636.272L572.905 635.164L571.257 629.803L568.474 627.986L563.97 620.801L560.902 613.078L561.982 610.398L563.797 610.045L562.218 608.5L562.688 606.446L561.45 604.429L557.862 604.051L555.827 602.023L553.657 604.37L552.076 603.877L552.254 595.988L553.667 594.287L551.455 590.825L554.717 583.623L556.107 582.827L558.055 584.301L564.369 600.13L566.363 599.106L565.997 595.694L568.352 590.21L567.304 588.794L567.92 582.946L570.078 586.22L569.504 588.228L572.237 585.359L572.645 581.485L573.593 581.439L572.478 579.617L574.254 568.958L573.038 564.658L568.867 560.518L570.523 560.294L570.415 557.526L573.033 556.096L572.995 553.009L571.96 554.568L571.745 551.789L571.13 550.745L569.981 555.448L570.903 556.343L567.638 560.824L565.627 559.597L565.993 553.36L564.832 553.02L563.482 557.231L562.562 554.595L561.718 555.376L561.329 558.383L557.822 553.443L555.608 547.26L555.038 540.271L556.061 537.441L553.946 536.855L553.629 534.355L555.078 528.522L555.159 530.852L558.201 536.07L560.844 534.389L565.21 535.647L568.456 540.306L569.997 540.142L568.951 539.052L567.701 537.832L556.432 523.586L551.218 517.632L543.459 516.561L541.458 514.899L538.523 513.829L535.436 511.799L534.49 511.481L528.625 506.547L528.319 506.007L527.757 503.771L525.891 503.575L525.925 500.495L527.375 500.502L527.866 498.595L523.935 499.415L521.525 496.114L527.593 493.27L528.257 494.537L528.999 493.346L529.226 493.261L530.489 493.321L530.588 493.078L527.844 491.918L521.454 495.417L518.483 492.275L517.215 487.099L518.962 484.634L520.257 480.599L523.126 472.993L520.452 476.339L518.663 483.333L516.231 485.072L513.786 482.457L515.75 481.721L515.293 477.791L512.387 477.485L511.369 472.336L509.396 473.506L509.902 474.902L508.1 477.542L509.892 477.404L514.264 481.709L510.832 485.012L513.009 489.485L509.248 488.001L506.03 489.621L506.54 486.845L505.264 485.876L503.341 490.354L502.035 487.604L500.035 488.337L500.62 486.911L499.285 486.843L500.483 485.808L502.156 486.456L503.578 481.564L500.66 479.987L499.261 480.529L498.162 480.63L496.763 480.483L495.116 477.517L495.483 467.833L491.295 466.268L486.693 468.975L488.547 465.833L487.788 463.395L489.724 463.273L491.378 461.343L487.903 459.2L487.903 461.957L485.237 462.474L483.84 460.585L479.905 457.995L478.8 458.495L479.725 456.597L481.835 457.581L483.714 455.24L484.493 456.446L486.467 455.276L488.366 457.217L490.296 455.425L491.648 457.055L493.627 454.107L494.528 455.544L493.797 457.317L495.238 457.759L494.872 452.968L492.009 451.216L490.531 447.687L486.171 445.341L476.576 445.165L469.92 441.889L467.242 437.689L464.814 436.635L460.658 438.555L460.805 441.292L458.631 442.296L458.481 438.907L460.067 436.244L458.422 435.672L456.326 439.042L453.437 437.541L454.347 435.787L454.574 433.634L455.943 433.379L456.827 431.876L453.994 432.594L455.004 429.544L453.962 427.729L452.183 430.154L451.502 423.879L450.218 427.117L448.539 426.868L452.35 415.48L452.977 419.173L454.954 416.588L454.008 421.785L455.443 421.936L455.345 424.247L457.75 422.76L457.986 421.551L456.84 420.378L457.96 414.91L452.777 411.426L452.785 407.908L450.173 407.56L446.189 402.679L446.081 399.91L448.262 400.213L450.361 397.858L440.275 394.765L435.147 388.348L434.227 385.712L434.96 378.751L436.805 377.422L432.575 371.427L428.81 368.6L426.461 363.346L429.385 355.565L427.187 355.079L427.68 354.188L425.546 352.403L425.839 346.521L422.536 345.158L419.558 342.087L354.206 340.901L354.721 339.105L345.928 326.498L345.783 314.439L344.426 307.694L336.144 293.328L333.942 291.5L252.343 277.865L241.356 285.741L234.322 288.809L220.987 287.985L188.011 298.334L165.592 320.386L130.32 381.134L105.294 412.09L101.519 424.172L102.363 428.215L106.056 433.102L114.527 439.471L119.884 445.44L123.105 458.948L126.192 463.045L152.859 479.892L167.782 483.205L176.453 494.565L186.764 503.777L192.843 505.65L207.596 506.442L215.398 508.824L240.563 527.87L246.997 531.196L253.13 531.515L264.755 529.293L268.779 530.007L285.072 546.487L288.645 553.211L311.593 562.303L321.503 568.098L324.123 574.904L324.784 587.924L323.701 647.121L320.68 686.488L320.888 705.881L322.33 715.61L325.09 720.399L330.919 725.329L355.031 742.669L378.213 767.456L382.38 773.009L387.446 783.809L387.731 783.512L391.106 778.68L390.53 773.468L379.28 755.597L384.632 755.072L396.775 763.425L416.883 767.791L431.253 778.083L434.314 778.297L436.085 776.633L440.544 761.504L446.143 756.906L451.916 756.172L454.135 757.494L459.795 768.501L464.52 773.932L467.062 773.22L478.029 757.942L491.777 751.409L494.246 752.068L496.654 756.421L505.38 761.403L515.894 753.876L535.865 753.005L580.063 757.006L614.949 768.479L632.547 761.553L643.95 761.085L664.729 767.01L665.798 762.37L674.058 756.275L675.295 752.451L676.444 752.899L677.933 750.48L681.096 750.414ZM556.155 545.504L558.795 545.927L561.765 549.069L562.06 544.892L559.83 542.989L556.767 543.827L556.155 545.504Z" stroke="#62929F" stroke-width="1.83989" stroke-miterlimit="10"/>
</g>
</g>
<circle cx="309.583" cy="289.449" r="34.4759" fill="#CDDC29" fill-opacity="0.2"/>
<circle cx="309.583" cy="289.449" r="34.7657" fill="#CDDC29"/>
<path d="M405.738 264.513H401.357L390.898 250.417L387.88 253.062V264.513H384.159V234.997H387.88V249.549C388.707 248.612 389.547 247.675 390.402 246.738C391.256 245.8 392.11 244.863 392.965 243.926L400.943 234.997H405.284L393.585 247.854L405.738 264.513ZM412.896 242.314C412.896 242.838 412.868 243.375 412.813 243.926C412.786 244.478 412.744 244.974 412.689 245.415H412.937C413.406 244.643 413.998 244.009 414.715 243.513C415.431 243.017 416.231 242.645 417.113 242.397C417.994 242.121 418.904 241.984 419.841 241.984C421.632 241.984 423.121 242.273 424.306 242.852C425.518 243.403 426.428 244.271 427.034 245.456C427.64 246.641 427.943 248.184 427.943 250.086V264.513H424.347V250.334C424.347 248.543 423.947 247.206 423.148 246.324C422.349 245.442 421.095 245.001 419.386 245.001C417.733 245.001 416.437 245.318 415.5 245.952C414.563 246.558 413.888 247.468 413.475 248.68C413.089 249.866 412.896 251.326 412.896 253.062V264.513H409.258V233.096H412.896V242.314ZM443.204 241.984C445.905 241.984 447.903 242.576 449.199 243.761C450.494 244.946 451.142 246.834 451.142 249.425V264.513H448.496L447.793 261.372H447.628C446.994 262.171 446.332 262.846 445.643 263.397C444.982 263.921 444.21 264.307 443.328 264.555C442.474 264.803 441.427 264.927 440.187 264.927C438.864 264.927 437.665 264.693 436.59 264.224C435.543 263.755 434.716 263.039 434.11 262.074C433.503 261.082 433.2 259.842 433.2 258.354C433.2 256.149 434.068 254.454 435.805 253.269C437.541 252.056 440.214 251.395 443.824 251.285L447.586 251.161V249.838C447.586 247.991 447.187 246.71 446.388 245.993C445.588 245.277 444.458 244.919 442.998 244.919C441.84 244.919 440.738 245.098 439.691 245.456C438.643 245.787 437.665 246.173 436.755 246.614L435.639 243.885C436.604 243.361 437.748 242.921 439.07 242.562C440.393 242.176 441.771 241.984 443.204 241.984ZM444.279 253.807C441.523 253.917 439.608 254.358 438.533 255.129C437.486 255.901 436.962 256.99 436.962 258.395C436.962 259.635 437.334 260.545 438.078 261.124C438.85 261.702 439.828 261.992 441.013 261.992C442.887 261.992 444.445 261.482 445.685 260.462C446.925 259.415 447.545 257.816 447.545 255.667V253.683L444.279 253.807ZM468.196 245.167H462.615V264.513H458.977V245.167H455.091V243.472L458.977 242.232V240.95C458.977 239.048 459.253 237.505 459.804 236.32C460.383 235.135 461.21 234.267 462.284 233.716C463.359 233.164 464.654 232.889 466.17 232.889C467.052 232.889 467.851 232.972 468.568 233.137C469.312 233.275 469.946 233.44 470.47 233.633L469.519 236.485C469.078 236.348 468.568 236.21 467.989 236.072C467.41 235.934 466.818 235.865 466.212 235.865C464.999 235.865 464.09 236.279 463.483 237.105C462.904 237.905 462.615 239.172 462.615 240.909V242.356H468.196V245.167ZM469.591 274.435C468.902 274.435 468.296 274.38 467.772 274.269C467.249 274.187 466.794 274.076 466.408 273.939V271.004C466.821 271.114 467.249 271.21 467.689 271.293C468.13 271.376 468.613 271.417 469.136 271.417C470.018 271.417 470.749 271.169 471.327 270.673C471.906 270.204 472.195 269.295 472.195 267.945V242.356H475.833V267.821C475.833 269.198 475.613 270.384 475.172 271.376C474.731 272.368 474.056 273.126 473.146 273.649C472.237 274.173 471.052 274.435 469.591 274.435ZM471.906 236.361C471.906 235.562 472.113 234.983 472.526 234.625C472.94 234.239 473.449 234.046 474.056 234.046C474.607 234.046 475.089 234.239 475.503 234.625C475.944 234.983 476.164 235.562 476.164 236.361C476.164 237.133 475.944 237.712 475.503 238.098C475.089 238.483 474.607 238.676 474.056 238.676C473.449 238.676 472.94 238.483 472.526 238.098C472.113 237.712 471.906 237.133 471.906 236.361ZM486.491 242.356V264.513H482.853V242.356H486.491ZM484.713 234.046C485.265 234.046 485.747 234.239 486.16 234.625C486.601 234.983 486.822 235.562 486.822 236.361C486.822 237.133 486.601 237.712 486.16 238.098C485.747 238.483 485.265 238.676 484.713 238.676C484.107 238.676 483.597 238.483 483.184 238.098C482.77 237.712 482.564 237.133 482.564 236.361C482.564 235.562 482.77 234.983 483.184 234.625C483.597 234.239 484.107 234.046 484.713 234.046ZM510.823 234.997C514.681 234.997 517.492 235.755 519.256 237.271C521.02 238.787 521.902 240.922 521.902 243.678C521.902 244.891 521.695 246.062 521.281 247.192C520.896 248.295 520.248 249.287 519.339 250.169C518.429 251.051 517.216 251.753 515.701 252.277C514.185 252.773 512.325 253.021 510.12 253.021H506.73V264.513H503.01V234.997H510.823ZM510.492 238.18H506.73V249.838H509.707C511.581 249.838 513.138 249.645 514.378 249.259C515.618 248.846 516.541 248.198 517.148 247.316C517.754 246.434 518.057 245.277 518.057 243.844C518.057 241.942 517.451 240.523 516.238 239.586C515.026 238.649 513.11 238.18 510.492 238.18ZM546.807 253.393C546.807 255.24 546.559 256.879 546.063 258.312C545.595 259.718 544.906 260.917 543.996 261.909C543.114 262.901 542.026 263.659 540.73 264.183C539.463 264.679 538.043 264.927 536.472 264.927C535.012 264.927 533.661 264.679 532.421 264.183C531.181 263.659 530.106 262.901 529.197 261.909C528.287 260.917 527.571 259.718 527.047 258.312C526.551 256.879 526.303 255.24 526.303 253.393C526.303 250.94 526.716 248.873 527.543 247.192C528.37 245.484 529.555 244.188 531.098 243.306C532.642 242.397 534.474 241.942 536.596 241.942C538.608 241.942 540.372 242.397 541.888 243.306C543.431 244.188 544.63 245.484 545.484 247.192C546.366 248.873 546.807 250.94 546.807 253.393ZM530.065 253.393C530.065 255.129 530.285 256.645 530.726 257.94C531.195 259.208 531.911 260.187 532.876 260.876C533.84 261.565 535.067 261.909 536.555 261.909C538.043 261.909 539.27 261.565 540.234 260.876C541.199 260.187 541.902 259.208 542.343 257.94C542.811 256.645 543.045 255.129 543.045 253.393C543.045 251.629 542.811 250.127 542.343 248.887C541.874 247.647 541.157 246.696 540.193 246.035C539.256 245.346 538.029 245.001 536.514 245.001C534.254 245.001 532.614 245.745 531.594 247.234C530.575 248.722 530.065 250.775 530.065 253.393ZM562.907 241.942C563.321 241.942 563.762 241.97 564.23 242.025C564.726 242.052 565.154 242.108 565.512 242.19L565.057 245.539C564.699 245.456 564.299 245.387 563.858 245.332C563.445 245.277 563.045 245.249 562.659 245.249C561.805 245.249 560.992 245.428 560.22 245.787C559.449 246.145 558.76 246.655 558.153 247.316C557.547 247.95 557.065 248.722 556.707 249.631C556.376 250.541 556.211 251.56 556.211 252.69V264.513H552.573V242.356H555.549L555.962 246.407H556.128C556.596 245.58 557.161 244.836 557.823 244.174C558.484 243.486 559.242 242.948 560.096 242.562C560.951 242.149 561.888 241.942 562.907 241.942ZM577.049 261.95C577.6 261.95 578.165 261.909 578.744 261.826C579.323 261.716 579.791 261.606 580.149 261.496V264.265C579.764 264.458 579.212 264.61 578.496 264.72C577.779 264.858 577.09 264.927 576.429 264.927C575.271 264.927 574.197 264.734 573.204 264.348C572.24 263.935 571.454 263.232 570.848 262.24C570.242 261.248 569.939 259.856 569.939 258.064V245.167H566.797V243.43L569.98 241.984L571.427 237.271H573.577V242.356H579.984V245.167H573.577V257.982C573.577 259.332 573.893 260.338 574.527 261C575.189 261.633 576.029 261.95 577.049 261.95Z" fill="white"/>
</svg>
