<svg width="1033" height="1080" viewBox="0 0 1033 1080" fill="none" xmlns="http://www.w3.org/2000/svg">
<path d="M2086.93 437.443L1819.58 418.32L1552.82 113.509L1527.32 -12.6057L1463.36 -49.4556L1369.53 -196.889L1169.51 -253.27L997.971 -266.615L583.783 -583.98L468.236 -610.279L251.676 -552.701L343.518 -433.961L139.512 -299.291L19.7749 -274.181L49.2666 -176.959L243.311 236.232L368.021 369.314L409.66 469.721L404.081 608.781L552.304 764.97L801.341 1162.63L849.549 1050.27L1290.83 1093.29L1368.13 973.365L1470.94 919.171L1775.75 866.182L2092.51 736.883L2148.3 506.579L2086.93 437.443Z" fill="#EEEEEE" fill-opacity="0.09"/>
<g opacity="0.5">
<g opacity="0.33">
<mask id="mask0_346_5410" style="mask-type:luminance" maskUnits="userSpaceOnUse" x="265" y="232" width="687" height="760">
<path d="M951.029 292.008L332.616 232.594L265.452 931.661L883.865 991.075L951.029 292.008Z" fill="white"/>
</mask>
<g mask="url(#mask0_346_5410)">
<path d="M698.633 316.927L697.056 327.505L697.861 336.631L709.682 346.536L712.601 360.749L718.393 374.639L720.614 391.108L734.766 424.258L743.419 429.213L784.42 432.112L793.369 434.813L798.594 440.44L795.899 448.91L794.65 464.405L798.159 471.228L808.826 475.216L825.372 471.36L844.029 475.955L844.828 480.557L841.547 498.459L845.757 536.74L843.586 543.498L836.557 553.313L837.655 573.558L831.893 598.108L833.48 602.425L846.882 621.289L858.972 642.15L847.177 646.141L830.269 656.689L815.175 652.516L808.594 653.085L799.263 657.273L786.003 657.761L773.319 668.514L754.411 676.947L724.274 703.08L717.485 706.231L710.843 705.353L706.853 702.287L693.928 675.54L688.318 669.756L684.024 669.024L668.036 676.656L655.949 675.775L642.396 680.559L636.934 676.151L633.513 665.092L630.081 660.798L625.977 658.922L619.377 659.69L615.308 663.703L613.119 669.819L616.006 683.109L615.466 689.983L607.304 703.253L603.037 713.493L580.392 718.324L568.425 729.947L568.826 734.109L570.706 736.212L581.264 739.668L583.951 744.211L582.638 759.539L584.986 770.936L583.867 783.841L587.549 788.439L598.139 794.901L603.916 803.945L608.458 807.103L616.005 807.308L622.537 804.332L630.717 778.372L638.031 765.582L642.511 763.97L655.939 764.22L658.278 762.803L662.719 760.747L669.392 761.308L674.617 766.935L675.11 771.387L670.782 791.43L676.813 804.502L672.772 817.807L670.46 821.869L665.979 823.921L652.2 822.317L645.668 823.211L634.178 831.115L632.005 831.227L626.415 825.645L624.224 854.703L625.793 863.382L628.653 867.78L632.791 869.299L652.303 870.413L658.357 874.078L666.349 900.911L661.484 919.461L658.385 925.049L647.91 930.729L641.957 939.767L640.92 934.302L640.174 933.309L637.483 929.648L637.621 928.219L636.702 926.53L635.647 925.427L634.117 927.602L633.097 926.544L634.218 923.208L632.887 922.479L631.551 920.549L632.072 918.037L630 915.436L628.573 909.453L628.798 907.112L628.393 902.989L626.06 900.603L626.598 897.091L622.58 893.903L620.824 890.09L614.259 889.66L611.255 887.169L610.829 882.444L605.922 876.006L609.924 861.857L605.402 860.582L602.143 857.826L598.872 849.785L602.864 841.159L602.416 836.232L593.632 832.225L590.612 824.487L591.832 820.12L590.638 815.882L588.283 814.134L586.745 810.142L582.218 807.666L583.138 806.433L581.905 800.509L583.556 792.499L580.086 788.602L573.532 786.812L565.575 780.442L564.822 777.447L567.799 780.215L568.945 774.119L565.908 764.899L561.852 760.025L555.821 761.527L552.915 760.527L553.376 762.814L556.586 764.404L555.709 765.2L551.828 762.665L550.689 758.272L546.616 756.079L545.895 750.244L542.144 748.442L543.455 744.804L542.328 741.533L526.046 729.719L517.444 726.73L513.979 720.712L512.075 720.529L512.584 716.894L505.933 716.936L501.803 712.415L500.418 708.078L495.672 706.221L490.166 706.853L490.303 708.347L488.111 708.657L482.116 703.958L478.787 704.438L483.166 706.781L483.92 708.935L476.247 705.035L461.556 693.334L456.588 687.531L458.335 686.018L455.269 683.761L455.887 680.658L453.083 681.509L451.076 679.475L448.249 675.56L448.951 674.506L451.799 676.541L450.726 673.115L447.824 673.316L443.665 667.432L439.117 658.507L440.691 656.295L440.258 654.132L436.115 651.412L435.619 653.246L437.304 656.13L435.647 655.451L433.497 649.078L436.052 650.404L437.065 649.861L435.549 648.554L436.419 647.837L434.494 647.452L432.882 647.978L427.052 642.813L427.898 639.011L425.517 636.7L421.78 636.421L418.328 630.684L418.861 627.212L415.206 620.255L410.451 617.235L408.198 604.847L405.838 602.739L402.343 595.356L402.719 593.11L405.265 592.033L409.07 589.516L411.27 584.122L407.8 581.066L408.227 578.705L407.517 576.514L410.141 576.286L407.56 572.315L408.309 571.185L406.592 571.14L405.873 571.952L403.664 569.938L401.406 552.184L397.484 542.999L388.361 530.431L387.404 524.974L388.573 523.645L387.177 519.427L388.952 517.195L392.947 516.458L389.827 521.844L391.286 523.746L392.688 521.238L394.998 521.78L395.764 513.806L399.331 514.189L398.691 511.685L400.466 505.289L399.542 503.238L397.707 511.51L396.022 510.708L398.483 505.099L397.657 500.775L404.538 488.744L404.614 483.786L405.935 481.711L408.38 481.266L409.403 477.28L406.012 477.154L405.515 479.829L404.569 479.258L402.532 477.541L404.086 471.364L404.053 460.871L398.822 451.559L397.834 446.42L394.518 442.177L397.165 439.629L394.468 439.37L393.186 440.208L381.278 419.124L385.016 420.644L388.825 427.257L388.255 428.603L391.712 429.296L393.231 427.239L388.787 420.566L388.762 416.24L382.091 416.079L383.077 414.573L380.492 414.805L379.715 415.811L375.692 409.339L377.99 404.595L376.174 393.49L375.507 391.264L373.48 393.191L368.772 385.932L368.626 382.034L367.697 380.864L367.061 380.402L364.371 373.818L364.377 366.251L379.305 365.483L388.349 363.029L390.689 364.095L396.645 374.196L403.559 379.745L413.204 391.882L417.994 395.786L422.482 396.578L436.771 393.706L441.341 394.906L442.3 406.169L444.294 407.922L474.916 399.253L488.782 398.703L491.788 402.836L492.36 412.3L484.114 432.288L484.235 434.782L485.905 436.984L497.396 440.73L503.335 446.426L504.448 453.179L501.731 464.369L503.487 469.022L517.307 471.031L524.168 467.966L537.971 456.4L557.562 463.367L562.281 463.42L575.802 444.38L603.548 424.383L618.852 409.278L626.134 404.332L642.793 398.045L644.482 395.885L643.441 391.301L628.087 382.338L625.914 380.368L625.453 375.999L636.117 367.935L670.735 351.843L673.958 347.468L676.134 341.07L675.915 331.68L672.864 324.26L674.71 317.551L684.225 314.782L698.82 317.065L698.633 316.927Z" fill="#DEDCD9"/>
<mask id="mask1_346_5410" style="mask-type:luminance" maskUnits="userSpaceOnUse" x="364" y="314" width="495" height="626">
<path d="M674.524 317.414L672.678 324.123L675.729 331.543L675.948 340.933L673.776 347.291L670.552 351.666L635.895 367.754L625.231 375.819L625.692 380.187L627.865 382.158L643.219 391.12L644.26 395.704L642.571 397.864L625.912 404.151L618.63 409.097L603.325 424.203L575.619 444.203L562.098 463.243L557.379 463.19L537.785 456.263L523.981 467.829L517.121 470.893L503.3 468.885L501.545 464.232L504.262 453.042L503.109 446.285L497.174 440.55L485.683 436.803L484.012 434.601L483.892 432.107L492.134 412.159L491.562 402.695L488.556 398.562L474.69 399.112L444.068 407.781L442.074 406.028L441.115 394.765L436.545 393.565L422.256 396.436L417.768 395.645L412.978 391.741L403.333 379.604L396.419 374.055L390.463 363.954L388.084 362.884L379.039 365.338L364.111 366.106L364.105 373.673L366.795 380.257L367.471 380.723L368.4 381.893L368.546 385.791L373.254 393.05L375.281 391.122L375.948 393.349L377.803 404.457L375.506 409.201L379.528 415.674L380.306 414.667L382.891 414.435L381.905 415.942L388.576 416.103L388.601 420.429L393.044 427.102L391.486 429.154L388.029 428.462L388.599 427.115L384.79 420.503L381.052 418.983L392.92 440.063L394.206 439.185L396.904 439.444L394.253 442.032L397.569 446.275L398.556 451.415L403.787 460.726L403.82 471.219L402.266 477.396L404.303 479.113L405.249 479.684L405.746 477.009L409.138 477.135L408.114 481.121L405.669 481.566L404.348 483.642L404.273 488.599L397.391 500.63L398.221 504.914L395.76 510.523L397.405 511.322L399.241 503.05L400.165 505.101L398.35 511.493L398.99 513.996L395.459 513.657L394.693 521.631L392.383 521.089L390.981 523.597L389.522 521.695L392.642 516.309L388.647 517.047L386.871 519.278L388.228 523.493L387.059 524.822L388.016 530.279L397.139 542.847L401.061 552.032L403.319 569.786L405.528 571.8L406.247 570.988L407.964 571.033L407.215 572.162L409.796 576.134L407.172 576.362L407.882 578.552L407.455 580.913L410.925 583.969L408.765 589.367L404.92 591.881L402.374 592.957L401.998 595.203L405.493 602.586L407.853 604.695L410.106 617.083L414.861 620.102L418.517 627.06L417.943 630.528L421.396 636.265L425.132 636.544L427.513 638.854L426.667 642.657L432.497 647.821L434.109 647.296L436.034 647.681L435.164 648.398L436.68 649.705L435.667 650.248L433.112 648.922L435.263 655.294L436.919 655.974L435.234 653.089L435.731 651.255L439.874 653.975L440.306 656.139L438.733 658.35L443.28 667.275L447.439 673.16L450.342 672.959L451.414 676.385L448.566 674.35L447.865 675.403L450.692 679.318L452.658 681.349L455.463 680.497L454.845 683.601L457.911 685.858L456.164 687.371L461.132 693.174L475.823 704.875L483.496 708.775L482.746 706.581L478.366 704.239L481.699 703.718L487.694 708.418L489.886 708.108L489.749 706.613L495.255 705.981L500.002 707.839L501.387 712.176L505.517 716.697L512.167 716.655L511.658 720.289L513.562 720.472L517.028 726.491L525.629 729.479L541.911 741.293L543.038 744.565L541.728 748.203L545.478 750.004L546.199 755.839L550.272 758.032L551.412 762.426L555.292 764.961L556.169 764.164L552.959 762.574L552.498 760.288L555.405 761.288L561.435 759.785L565.491 764.659L568.529 773.88L567.383 779.976L564.445 777.211L565.198 780.206L573.154 786.576L579.709 788.367L583.178 792.264L581.528 800.273L582.76 806.197L581.841 807.43L586.368 809.907L587.906 813.898L590.261 815.646L591.455 819.885L590.235 824.252L593.255 831.989L602.039 835.996L602.486 840.924L598.495 849.549L601.766 857.591L605.064 860.35L609.586 861.625L605.584 875.775L610.491 882.212L610.918 886.937L613.961 889.432L620.526 889.862L622.282 893.675L626.3 896.863L625.762 900.375L628.096 902.761L628.5 906.884L628.275 909.225L629.703 915.208L631.775 917.809L631.253 920.321L632.589 922.251L633.921 922.98L632.799 926.315L633.819 927.374L635.349 925.199L636.404 926.301L637.283 927.987L637.146 929.416L639.837 933.078L640.622 934.074L641.659 939.539L647.612 930.501L658.087 924.821L661.187 919.233L666.052 900.682L658.06 873.849L652.009 870.145L632.497 869.031L628.359 867.513L625.499 863.114L623.93 854.435L626.121 825.377L631.711 830.959L633.884 830.848L645.374 822.943L651.906 822.049L665.685 823.653L670.166 821.601L672.478 817.539L676.519 804.234L670.488 791.163L674.816 771.119L674.323 766.667L669.058 761.037L662.386 760.475L657.944 762.531L655.61 763.908L642.181 763.659L637.702 765.271L630.387 778.061L622.207 804.021L615.676 806.997L608.128 806.792L603.587 803.633L597.809 794.59L587.219 788.127L583.533 783.569L584.653 770.664L582.304 759.268L583.617 743.939L580.891 739.393L570.332 735.936L568.452 733.834L568.052 729.671L580.019 718.049L602.664 713.218L606.935 702.938L615.096 689.668L615.637 682.794L612.75 669.504L614.939 663.388L619.008 659.375L625.608 658.607L629.712 660.483L633.143 664.777L636.565 675.836L642.027 680.244L655.579 675.46L667.666 676.341L683.654 668.709L687.948 669.441L693.558 675.225L706.484 701.972L710.473 705.038L717.115 705.916L723.904 702.765L754.042 676.632L772.949 668.199L785.634 657.446L798.893 656.958L808.185 652.766L814.805 652.201L829.899 656.374L846.808 645.826L858.642 641.838L846.552 620.978L833.15 602.113L831.563 597.797L837.325 573.246L836.267 553.005L843.296 543.191L845.466 536.432L841.257 498.151L844.499 480.245L843.7 475.644L825.043 471.049L808.497 474.905L797.829 470.917L794.36 464.097L795.609 448.602L798.304 440.133L793.079 434.506L784.13 431.804L743.129 428.906L734.48 423.911L720.328 390.761L718.106 374.292L712.314 360.402L709.396 346.189L697.575 336.284L696.77 327.158L698.347 316.58L683.752 314.296L674.241 317.026L674.524 317.414Z" fill="white"/>
</mask>
<g mask="url(#mask1_346_5410)">
<path d="M889.5 298.046L327.335 283.444L310.172 944.218L872.337 958.82L889.5 298.046Z" fill="url(#paint0_radial_346_5410)"/>
<path d="M-877.725 -70.7238L-879.488 -69.0498L387.221 1265.22L388.985 1263.54L-877.725 -70.7238Z" fill="#D4D4D4"/>
<path d="M-852.045 -70.09L-853.808 -68.416L412.901 1265.85L414.665 1264.18L-852.045 -70.09Z" fill="#D4D4D4"/>
<path d="M-826.398 -69.3897L-828.161 -67.7158L438.548 1266.55L440.311 1264.88L-826.398 -69.3897Z" fill="#D4D4D4"/>
<path d="M-800.723 -68.7178L-802.487 -67.0439L464.223 1267.22L465.986 1265.55L-800.723 -68.7178Z" fill="#D4D4D4"/>
<path d="M-775.044 -68.083L-776.807 -66.4092L489.902 1267.86L491.665 1266.19L-775.044 -68.083Z" fill="#D4D4D4"/>
<path d="M-749.397 -67.383L-751.161 -65.709L515.549 1268.56L517.312 1266.89L-749.397 -67.383Z" fill="#D4D4D4"/>
<path d="M-723.718 -66.7502L-725.481 -65.0762L541.228 1269.19L542.992 1267.52L-723.718 -66.7502Z" fill="#D4D4D4"/>
<path d="M-698.043 -66.0762L-699.806 -64.4023L566.904 1269.87L568.667 1268.19L-698.043 -66.0762Z" fill="#D4D4D4"/>
<path d="M-672.392 -65.417L-674.155 -63.7432L592.554 1270.52L594.317 1268.85L-672.392 -65.417Z" fill="#D4D4D4"/>
<path d="M-646.717 -64.7432L-648.48 -63.0693L618.229 1271.2L619.992 1269.52L-646.717 -64.7432Z" fill="#D4D4D4"/>
<path d="M-621.041 -64.0703L-622.804 -62.3965L643.906 1271.87L645.669 1270.2L-621.041 -64.0703Z" fill="#D4D4D4"/>
<path d="M-595.39 -63.4094L-597.153 -61.7354L669.556 1272.53L671.32 1270.86L-595.39 -63.4094Z" fill="#D4D4D4"/>
<path d="M-569.687 -62.7072L-571.45 -61.0332L695.259 1273.23L697.022 1271.56L-569.687 -62.7072Z" fill="#D4D4D4"/>
<path d="M-544.008 -62.0742L-545.771 -60.4004L720.938 1273.87L722.701 1272.19L-544.008 -62.0742Z" fill="#D4D4D4"/>
<path d="M-518.362 -61.374L-520.125 -59.7002L746.584 1274.57L748.347 1272.89L-518.362 -61.374Z" fill="#D4D4D4"/>
<path d="M-492.682 -60.7402L-494.445 -59.0664L772.264 1275.2L774.028 1273.53L-492.682 -60.7402Z" fill="#D4D4D4"/>
<path d="M-467.007 -60.0674L-468.771 -58.3936L797.939 1275.87L799.702 1274.2L-467.007 -60.0674Z" fill="#D4D4D4"/>
<path d="M-441.36 -59.3664L-443.124 -57.6924L823.586 1276.58L825.349 1274.9L-441.36 -59.3664Z" fill="#D4D4D4"/>
<path d="M-415.681 -58.7336L-417.444 -57.0596L849.265 1277.21L851.028 1275.53L-415.681 -58.7336Z" fill="#D4D4D4"/>
<path d="M-390.005 -58.0596L-391.769 -56.3857L874.941 1277.88L876.704 1276.21L-390.005 -58.0596Z" fill="#D4D4D4"/>
<path d="M-364.395 -57.4033L-366.158 -55.7295L900.552 1278.54L902.315 1276.86L-364.395 -57.4033Z" fill="#D4D4D4"/>
<path d="M-338.72 -56.7305L-340.483 -55.0566L926.226 1279.21L927.989 1277.54L-338.72 -56.7305Z" fill="#D4D4D4"/>
<path d="M-313.039 -56.0967L-314.802 -54.4229L951.907 1279.85L953.67 1278.17L-313.039 -56.0967Z" fill="#D4D4D4"/>
</g>
<path d="M628.491 909.485L629.579 913.994L646.849 932.189L647.831 930.722L648.508 930.346L628.506 909.326L628.491 909.485Z" fill="#D4D4D4"/>
<path d="M608.758 865.669L660.824 920.519L661.406 919.454L661.789 917.97L609.541 862.942L608.758 865.669ZM602.025 857.815L605.284 860.571L608.011 861.353L600.012 852.938L602.025 857.815Z" fill="#D4D4D4"/>
<path d="M637.452 869.548L665.776 899.376L664.233 894.183L640.998 869.729L637.416 869.505L637.452 869.548ZM591.673 820.107L591.423 821.044L624.331 855.676L624.148 854.657L624.392 852.118L590.756 816.736L591.681 820.027L591.673 820.107ZM588.125 814.12L588.387 814.306L588.096 813.998L588.164 814.124L588.125 814.12ZM483.107 706.977L483.011 706.728L482.705 706.578L483.107 706.977ZM438.966 658.414L441.224 662.835L480.419 704.117L482.005 703.868L487.999 708.568L488.039 708.572L439.609 657.555L439.006 658.418L438.966 658.414ZM435.456 655.354L437.113 656.033L435.496 653.276L434.293 652.039L435.417 655.35L435.456 655.354Z" fill="#D4D4D4"/>
<path d="M402.454 592.965L402.077 595.211L538.133 738.528L542.173 741.478L542.856 743.546L559.11 760.642L561.697 759.97L565.749 764.884L567.146 769.102L625.901 831.001L626.178 827.704L590.471 790.121L587.521 788.316L583.875 783.762L583.889 783.203L403.079 592.704L402.454 592.965Z" fill="#D4D4D4"/>
<path d="M623.257 801.839L644.346 824.045L645.632 823.167L646.769 822.996L624.119 799.119L623.261 801.799L623.257 801.839ZM407.329 572.212L409.911 576.184L409.062 576.263L582.64 759.099L582.953 755.846L407.846 571.421L407.329 572.212ZM403.43 569.876L405.639 571.89L406.357 571.078L407.515 571.109L402.932 566.305L403.386 569.912L403.43 569.876Z" fill="#D4D4D4"/>
<path d="M629.487 782.018L668.208 822.814L670.386 821.822L670.48 821.671L630.341 779.378L629.483 782.058L629.487 782.018ZM387.171 524.913L387.589 527.235L574.439 724.039L576.205 722.327L387.973 524.069L387.207 524.956L387.171 524.913Z" fill="#D4D4D4"/>
<path d="M638.621 765.278L676.507 805.193L676.742 804.414L674.454 799.47L641.112 764.356L638.582 765.274L638.621 765.278ZM398.5 511.586L398.762 512.612L591.681 715.845L594.502 715.235L399.107 509.442L398.496 511.625L398.5 511.586ZM396.182 509.882L397.563 511.336L398.199 508.474L397.251 507.502L396.178 509.921L396.182 509.882Z" fill="#D4D4D4"/>
<path d="M662.644 760.7L660.301 761.756L673.971 776.162L674.61 773.26L662.684 760.704L662.644 760.7ZM404.344 488.685L403.095 490.847L606.416 705.009L607.193 703.162L607.525 702.633L404.352 488.606L404.344 488.685Z" fill="#D4D4D4"/>
<path d="M403.909 465.301L615.515 688.227L615.792 684.93L403.891 461.736L403.909 465.301Z" fill="#D4D4D4"/>
<path d="M388.672 420.516L393.116 427.189L392.978 427.376L616.296 662.597L618.022 660.881L388.707 419.318L388.712 420.52L388.672 420.516ZM375.597 409.09L380.869 414.641L382.93 414.439L382.031 415.874L382.139 416.005L385.614 416.098L376.741 406.758L375.593 409.13L375.597 409.09Z" fill="#D4D4D4"/>
<path d="M364.149 370.715L654.258 676.295L655.914 675.733L657.187 675.815L364.131 367.149L364.149 370.715Z" fill="#D4D4D4"/>
<path d="M706.775 702.28L708.827 703.838L706.207 701.104L706.775 702.28ZM383.101 364.327L675.973 672.815L678.281 671.715L385.775 363.583L383.101 364.327Z" fill="#D4D4D4"/>
<path d="M727.291 700.447L729.129 698.822L512.103 470.211L508.195 469.635L727.256 700.404L727.291 700.447ZM448.384 406.634L501.903 463.025L502.574 460.207L451.015 405.925L448.34 406.669L448.384 406.634ZM436.131 393.725L441.551 399.411L441.206 395.494L440.37 394.613L436.583 393.608L436.135 393.685L436.131 393.725Z" fill="#D4D4D4"/>
<path d="M528.199 464.35L741.008 688.512L742.846 686.887L530.073 462.769L528.199 464.35ZM468.098 401.041L488.096 422.1L489.133 419.638L470.772 400.297L468.098 401.041Z" fill="#D4D4D4"/>
<path d="M754.832 676.748L757.215 675.696L554.588 462.242L549.513 460.473L754.832 676.748Z" fill="#D4D4D4"/>
<path d="M568.574 454.175L772.4 668.906L773.279 668.51L774.457 667.502L570.01 452.151L568.574 454.175Z" fill="#D4D4D4"/>
<path d="M580.694 440.566L786.849 657.723L790.104 657.595L582.711 439.159L580.694 440.566Z" fill="#D4D4D4"/>
<path d="M595.574 429.865L807.802 653.41L808.515 653.079L810.691 652.927L597.555 428.414L595.574 429.865Z" fill="#D4D4D4"/>
<path d="M609.512 418.151L833.845 654.471L835.934 653.15L611.238 416.435L609.512 418.151Z" fill="#D4D4D4"/>
<path d="M623.079 406.121L850.072 645.179L852.595 644.34L625.136 404.717L623.079 406.121Z" fill="#D4D4D4"/>
<path d="M642.568 397.904L640.905 398.545L832.773 600.635L831.851 598.144L832.249 596.501L643.073 397.231L642.572 397.864L642.568 397.904ZM625.692 380.187L627.865 382.157L629.837 383.307L625.548 378.771L625.696 380.147L625.692 380.187Z" fill="#D4D4D4"/>
<path d="M636.481 367.491L836.527 578.215L837.202 575.357L638.828 366.395L636.481 367.491Z" fill="#D4D4D4"/>
<path d="M653.87 359.431L837.156 552.49L838.592 550.465L656.178 358.332L653.87 359.431Z" fill="#D4D4D4"/>
<path d="M745.36 429.44L845.529 534.956L845.073 530.949L748.938 429.704L745.32 429.436L745.36 429.44ZM670.967 351.104L730.124 413.402L727.383 406.933L672.482 349.088L671.007 351.108L670.967 351.104Z" fill="#D4D4D4"/>
<path d="M812.999 474.296L842.271 505.095L841.815 501.087L815.785 473.643L812.999 474.296ZM772.207 431.299L795.331 455.662L795.647 452.369L775.829 431.527L772.211 431.259L772.207 431.299ZM672.682 324.083L674.404 328.252L718.433 374.643L715.799 368.304L672.932 323.146L672.686 324.043L672.682 324.083Z" fill="#D4D4D4"/>
<path d="M844.678 481.303L844.743 480.629L844.226 477.256L842.772 475.715L838.354 474.61L844.682 481.264L844.678 481.303ZM697.318 326.05L697.773 322.97L690.865 315.7L686.92 315.081L697.318 326.05Z" fill="#D4D4D4"/>
<mask id="mask2_346_5410" style="mask-type:luminance" maskUnits="userSpaceOnUse" x="364" y="314" width="495" height="626">
<path d="M674.524 317.414L672.678 324.123L675.729 331.543L675.948 340.933L673.776 347.291L670.552 351.666L635.895 367.754L625.231 375.819L625.692 380.187L627.865 382.158L643.219 391.12L644.26 395.704L642.571 397.864L625.912 404.151L618.63 409.097L603.325 424.203L575.619 444.203L562.098 463.243L557.379 463.19L537.785 456.263L523.981 467.829L517.121 470.893L503.3 468.885L501.545 464.232L504.262 453.042L503.109 446.285L497.174 440.55L485.683 436.803L484.012 434.601L483.892 432.107L492.134 412.159L491.562 402.695L488.556 398.562L474.69 399.112L444.068 407.781L442.074 406.028L441.115 394.765L436.545 393.565L422.256 396.436L417.768 395.645L412.978 391.741L403.333 379.604L396.419 374.055L390.463 363.954L388.084 362.884L379.039 365.338L364.111 366.106L364.105 373.673L366.795 380.257L367.471 380.723L368.4 381.893L368.546 385.791L373.254 393.05L375.281 391.122L375.948 393.349L377.803 404.457L375.506 409.201L379.528 415.674L380.306 414.667L382.891 414.435L381.905 415.942L388.576 416.103L388.601 420.429L393.044 427.102L391.486 429.154L388.029 428.462L388.599 427.115L384.79 420.503L381.052 418.983L392.92 440.063L394.206 439.185L396.904 439.444L394.253 442.032L397.569 446.275L398.556 451.415L403.787 460.726L403.82 471.219L402.266 477.396L404.303 479.113L405.249 479.684L405.746 477.009L409.138 477.135L408.114 481.121L405.669 481.566L404.348 483.642L404.273 488.599L397.391 500.63L398.221 504.914L395.76 510.523L397.405 511.322L399.241 503.05L400.165 505.101L398.35 511.493L398.99 513.996L395.459 513.657L394.693 521.631L392.383 521.089L390.981 523.597L389.522 521.695L392.642 516.309L388.647 517.047L386.871 519.278L388.228 523.493L387.059 524.822L388.016 530.279L397.139 542.847L401.061 552.032L403.319 569.786L405.528 571.8L406.247 570.988L407.964 571.033L407.215 572.162L409.796 576.134L407.172 576.362L407.882 578.552L407.455 580.913L410.925 583.969L408.765 589.367L404.92 591.881L402.374 592.957L401.998 595.203L405.493 602.586L407.853 604.695L410.106 617.083L414.861 620.102L418.517 627.06L417.943 630.528L421.396 636.265L425.132 636.544L427.513 638.854L426.667 642.657L432.497 647.821L434.109 647.296L436.034 647.681L435.164 648.398L436.68 649.705L435.667 650.248L433.112 648.922L435.263 655.294L436.919 655.974L435.234 653.089L435.731 651.255L439.874 653.975L440.306 656.139L438.733 658.35L443.28 667.275L447.439 673.16L450.342 672.959L451.414 676.385L448.566 674.35L447.865 675.403L450.692 679.318L452.658 681.349L455.463 680.497L454.845 683.601L457.911 685.858L456.164 687.371L461.132 693.174L475.823 704.875L483.496 708.775L482.746 706.581L478.366 704.239L481.699 703.718L487.694 708.418L489.886 708.108L489.749 706.613L495.255 705.981L500.002 707.839L501.387 712.176L505.517 716.697L512.167 716.655L511.658 720.289L513.562 720.472L517.028 726.491L525.629 729.479L541.911 741.293L543.038 744.565L541.728 748.203L545.478 750.004L546.199 755.839L550.272 758.032L551.412 762.426L555.292 764.961L556.169 764.164L552.959 762.574L552.498 760.288L555.405 761.288L561.435 759.785L565.491 764.659L568.529 773.88L567.383 779.976L564.445 777.211L565.198 780.206L573.154 786.576L579.709 788.367L583.178 792.264L581.528 800.273L582.76 806.197L581.841 807.43L586.368 809.907L587.906 813.898L590.261 815.646L591.455 819.885L590.235 824.252L593.255 831.989L602.039 835.996L602.486 840.924L598.495 849.549L601.766 857.591L605.064 860.35L609.586 861.625L605.584 875.775L610.491 882.212L610.918 886.937L613.961 889.432L620.526 889.862L622.282 893.675L626.3 896.863L625.762 900.375L628.096 902.761L628.5 906.884L628.275 909.225L629.703 915.208L631.775 917.809L631.253 920.321L632.589 922.251L633.921 922.98L632.799 926.315L633.819 927.374L635.349 925.199L636.404 926.301L637.283 927.987L637.146 929.416L639.837 933.078L640.622 934.074L641.659 939.539L647.612 930.501L658.087 924.821L661.187 919.233L666.052 900.682L658.06 873.849L652.009 870.145L632.497 869.031L628.359 867.513L625.499 863.114L623.93 854.435L626.121 825.377L631.711 830.959L633.884 830.848L645.374 822.943L651.906 822.049L665.685 823.653L670.166 821.601L672.478 817.539L676.519 804.234L670.488 791.163L674.816 771.119L674.323 766.667L669.058 761.037L662.386 760.475L657.944 762.531L655.61 763.908L642.181 763.659L637.702 765.271L630.387 778.061L622.207 804.021L615.676 806.997L608.128 806.792L603.587 803.633L597.809 794.59L587.219 788.127L583.533 783.569L584.653 770.664L582.304 759.268L583.617 743.939L580.891 739.393L570.332 735.936L568.452 733.834L568.052 729.671L580.019 718.049L602.664 713.218L606.935 702.938L615.096 689.668L615.637 682.794L612.75 669.504L614.939 663.388L619.008 659.375L625.608 658.607L629.712 660.483L633.143 664.777L636.565 675.836L642.027 680.244L655.579 675.46L667.666 676.341L683.654 668.709L687.948 669.441L693.558 675.225L706.484 701.972L710.473 705.038L717.115 705.916L723.904 702.765L754.042 676.632L772.949 668.199L785.634 657.446L798.893 656.958L808.185 652.766L814.805 652.201L829.899 656.374L846.808 645.826L858.642 641.838L846.552 620.978L833.15 602.113L831.563 597.797L837.325 573.246L836.267 553.005L843.296 543.191L845.466 536.432L841.257 498.151L844.499 480.245L843.7 475.644L825.043 471.049L808.497 474.905L797.829 470.917L794.36 464.097L795.609 448.602L798.304 440.133L793.079 434.506L784.13 431.804L743.129 428.906L734.48 423.911L720.328 390.761L718.106 374.292L712.314 360.402L709.396 346.189L697.575 336.284L696.77 327.158L698.347 316.58L683.752 314.296L674.241 317.026L674.524 317.414Z" fill="white"/>
</mask>
<g mask="url(#mask2_346_5410)">
<path d="M379.996 -38.0606L378.233 -36.3867L1644.94 1297.88L1646.71 1296.21L379.996 -38.0606Z" fill="#D4D4D4"/>
<path d="M405.675 -37.4277L403.912 -35.7539L1670.62 1298.51L1672.38 1296.84L405.675 -37.4277Z" fill="#D4D4D4"/>
<path d="M431.322 -36.7266L429.559 -35.0527L1696.27 1299.22L1698.03 1297.54L431.322 -36.7266Z" fill="#D4D4D4"/>
<path d="M456.998 -36.0539L455.234 -34.3799L1721.94 1299.89L1723.71 1298.21L456.998 -36.0539Z" fill="#D4D4D4"/>
<path d="M482.677 -35.4211L480.914 -33.7471L1747.62 1300.52L1749.39 1298.85L482.677 -35.4211Z" fill="#D4D4D4"/>
<path d="M508.324 -34.7197L506.561 -33.0459L1773.27 1301.22L1775.03 1299.55L508.324 -34.7197Z" fill="#D4D4D4"/>
<path d="M534.002 -34.0869L532.239 -32.4131L1798.95 1301.86L1800.71 1300.18L534.002 -34.0869Z" fill="#D4D4D4"/>
<path d="M559.679 -33.4131L557.916 -31.7393L1824.62 1302.53L1826.39 1300.86L559.679 -33.4131Z" fill="#D4D4D4"/>
<path d="M585.33 -32.752L583.566 -31.0781L1850.28 1303.19L1852.04 1301.52L585.33 -32.752Z" fill="#D4D4D4"/>
<path d="M611.004 -32.0802L609.241 -30.4062L1875.95 1303.86L1877.71 1302.19L611.004 -32.0802Z" fill="#D4D4D4"/>
<path d="M636.68 -31.4064L634.917 -29.7324L1901.63 1304.54L1903.39 1302.86L636.68 -31.4064Z" fill="#D4D4D4"/>
<path d="M662.33 -30.7461L660.566 -29.0723L1927.28 1305.2L1929.04 1303.52L662.33 -30.7461Z" fill="#D4D4D4"/>
<path d="M688.006 -30.0742L686.243 -28.4004L1952.95 1305.87L1954.72 1304.19L688.006 -30.0742Z" fill="#D4D4D4"/>
<path d="M713.711 -29.4111L711.948 -27.7373L1978.66 1306.53L1980.42 1304.86L713.711 -29.4111Z" fill="#D4D4D4"/>
<path d="M739.359 -28.7111L737.596 -27.0371L2004.31 1307.23L2006.07 1305.56L739.359 -28.7111Z" fill="#D4D4D4"/>
<path d="M765.038 -28.0773L763.274 -26.4033L2029.98 1307.86L2031.75 1306.19L765.038 -28.0773Z" fill="#D4D4D4"/>
<path d="M790.713 -27.4043L788.95 -25.7305L2055.66 1308.54L2057.42 1306.86L790.713 -27.4043Z" fill="#D4D4D4"/>
<path d="M816.322 -26.708L814.559 -25.0342L2081.27 1309.23L2083.03 1307.56L816.322 -26.708Z" fill="#D4D4D4"/>
<path d="M841.999 -26.0742L840.236 -24.4004L2106.95 1309.87L2108.71 1308.19L841.999 -26.0742Z" fill="#D4D4D4"/>
<path d="M-877.706 -71.208L-879.469 -69.5342L387.24 1264.73L389.003 1263.06L-877.706 -71.208Z" fill="black"/>
<path d="M-852.03 -70.5342L-853.793 -68.8604L412.916 1265.41L414.679 1263.73L-852.03 -70.5342Z" fill="black"/>
<path d="M-826.38 -69.874L-828.143 -68.2002L438.566 1266.07L440.329 1264.39L-826.38 -69.874Z" fill="black"/>
<path d="M-800.705 -69.2002L-802.468 -67.5264L464.241 1266.74L466.005 1265.07L-800.705 -69.2002Z" fill="black"/>
<path d="M-775.026 -68.5674L-776.789 -66.8936L489.92 1267.37L491.684 1265.7L-775.026 -68.5674Z" fill="black"/>
<path d="M-749.379 -67.8664L-751.142 -66.1924L515.567 1268.08L517.33 1266.4L-749.379 -67.8664Z" fill="black"/>
<path d="M-723.699 -67.2334L-725.462 -65.5596L541.247 1268.71L543.01 1267.03L-723.699 -67.2334Z" fill="black"/>
<path d="M-698.024 -66.5615L-699.787 -64.8877L566.923 1269.38L568.686 1267.71L-698.024 -66.5615Z" fill="black"/>
<path d="M-672.377 -65.8604L-674.14 -64.1865L592.569 1270.08L594.332 1268.41L-672.377 -65.8604Z" fill="black"/>
<path d="M-646.698 -65.2275L-648.461 -63.5537L618.248 1270.71L620.011 1269.04L-646.698 -65.2275Z" fill="black"/>
<path d="M-621.023 -64.5537L-622.786 -62.8799L643.924 1271.39L645.687 1269.71L-621.023 -64.5537Z" fill="black"/>
<path d="M-595.372 -63.8937L-597.136 -62.2197L669.573 1272.05L671.337 1270.37L-595.372 -63.8937Z" fill="black"/>
<path d="M-569.696 -63.2207L-571.459 -61.5469L695.25 1272.72L697.013 1271.05L-569.696 -63.2207Z" fill="black"/>
<path d="M-544.016 -62.5859L-545.779 -60.9121L720.93 1273.36L722.693 1271.68L-544.016 -62.5859Z" fill="black"/>
<path d="M-518.371 -61.8867L-520.134 -60.2129L746.575 1274.06L748.339 1272.38L-518.371 -61.8867Z" fill="black"/>
<path d="M-492.695 -61.2139L-494.458 -59.54L772.251 1274.73L774.014 1273.05L-492.695 -61.2139Z" fill="black"/>
<path d="M-466.989 -60.5508L-468.752 -58.877L797.957 1275.39L799.72 1273.72L-466.989 -60.5508Z" fill="black"/>
<path d="M-441.341 -59.8506L-443.104 -58.1768L823.605 1276.09L825.368 1274.42L-441.341 -59.8506Z" fill="black"/>
<path d="M-415.662 -59.2168L-417.425 -57.543L849.284 1276.73L851.047 1275.05L-415.662 -59.2168Z" fill="black"/>
<path d="M-390.026 -58.5479L-391.79 -56.874L874.92 1277.39L876.683 1275.72L-390.026 -58.5479Z" fill="black"/>
<path d="M-364.347 -57.9141L-366.11 -56.2402L900.599 1278.03L902.362 1276.35L-364.347 -57.9141Z" fill="black"/>
<path d="M-338.701 -57.2139L-340.464 -55.54L926.245 1278.73L928.008 1277.05L-338.701 -57.2139Z" fill="black"/>
<path d="M-313.025 -56.5412L-314.788 -54.8672L951.921 1279.4L953.684 1277.73L-313.025 -56.5412Z" fill="black"/>
</g>
<path d="M628.491 909.485L629.406 913.297L647.039 931.887L647.832 930.722L648.805 930.175L628.552 908.851L628.491 909.485Z" fill="black"/>
<path d="M608.874 865.281L661.016 920.179L661.409 919.416L661.909 917.542L609.661 862.514L608.878 865.242L608.874 865.281ZM602.064 857.82L605.323 860.576L608.674 861.538L599.654 852.063L602.025 857.817L602.064 857.82Z" fill="black"/>
<path d="M637.973 869.557L665.569 898.634L664.026 893.441L641.519 869.738L637.938 869.514L637.973 869.557ZM591.679 820.066L591.507 820.61L624.195 855.021L624.111 854.652L624.321 851.63L590.509 815.99L591.643 820.023L591.679 820.066ZM588.13 814.08L590.035 815.504L587.782 813.125L588.17 814.084L588.13 814.08ZM582.065 807.611L583.055 808.147L582.29 807.353L582.105 807.615L582.065 807.611ZM438.968 658.413L440.651 661.737L480.829 704.035L481.967 703.864L487.962 708.564L488.409 708.487L439.761 657.248L438.928 658.409L438.968 658.413ZM435.458 655.353L437.115 656.033L435.426 653.188L435.54 652.838L434.05 651.254L435.458 655.353Z" fill="black"/>
<path d="M402.453 592.965L402.119 594.775L539.667 739.637L542.173 741.479L542.61 742.762L559.482 760.519L561.697 759.971L565.749 764.884L566.9 768.318L625.947 830.526L626.18 827.265L604.218 804.135L603.884 803.862L603.641 803.479L591.603 790.831L587.521 788.317L583.874 783.762L583.934 782.727L403.411 592.577L402.453 592.965Z" fill="black"/>
<path d="M623.375 801.45L644.647 823.833L645.632 823.167L647.174 822.955L624.233 798.77L623.375 801.45ZM407.334 572.173L409.915 576.144L409.511 576.185L582.687 758.623L582.999 755.37L408.036 571.119L407.29 572.209L407.334 572.173ZM403.442 569.757L403.916 570.243L405.683 571.854L406.401 571.042L408.079 571.083L402.954 565.666L403.482 569.761L403.442 569.757Z" fill="black"/>
<path d="M629.6 781.669L668.541 822.686L670.385 821.822L670.63 821.365L630.415 779.024L629.557 781.705L629.6 781.669ZM387.171 524.912L387.491 526.584L574.667 723.74L576.434 722.028L388.166 523.726L387.175 524.872L387.171 524.912Z" fill="black"/>
<path d="M638.994 765.154L676.661 804.848L676.778 804.458L674.023 798.548L641.482 764.272L638.951 765.19L638.994 765.154ZM398.501 511.586L398.589 511.915L592.094 715.725L594.915 715.115L399.229 509.014L398.501 511.586ZM396.336 509.536L397.646 510.904L398.281 508.042L397.409 507.117L396.336 509.536Z" fill="black"/>
<path d="M662.644 760.701L660.633 761.629L674.049 775.77L674.688 772.868L663.16 760.75L662.605 760.697L662.644 760.701ZM404.344 488.686L403.285 490.546L606.569 704.664L607.193 703.163L607.714 702.332L404.358 488.127L404.301 488.722L404.344 488.686Z" fill="black"/>
<path d="M403.879 464.779L615.561 687.751L615.798 684.451L403.897 461.257L403.879 464.779Z" fill="black"/>
<path d="M388.672 420.516L392.797 426.758L616.477 662.374L618.204 660.658L388.634 418.83L388.633 420.512L388.672 420.516ZM375.746 408.784L381.309 414.643L382.962 414.522L382.253 415.655L382.651 416.094L386.125 416.187L376.927 406.495L375.778 408.867L375.746 408.784Z" fill="black"/>
<path d="M364.158 370.195L654.63 676.17L655.913 675.733L657.698 675.905L364.141 366.63L364.158 370.195Z" fill="black"/>
<path d="M706.775 702.279L710.577 705.207L705.703 700.094L706.775 702.279ZM383.473 364.202L676.31 672.647L678.617 671.547L413.448 392.266L412.927 391.856L412.321 391.077L386.143 363.498L383.469 364.242L383.473 364.202Z" fill="black"/>
<path d="M727.551 700.232L729.389 698.606L512.653 470.304L508.745 469.728L727.515 700.188L727.551 700.232ZM448.751 406.549L501.979 462.632L502.651 459.813L451.385 405.801L448.712 406.545L448.751 406.549ZM436.534 393.684L441.476 398.923L441.132 395.006L440.988 394.832L436.574 393.687L436.534 393.684Z" fill="black"/>
<path d="M528.46 464.136L741.269 688.298L743.107 686.673L530.334 462.554L528.46 464.136ZM468.471 400.917L488.249 421.756L489.287 419.293L471.141 400.213L468.467 400.957L468.471 400.917Z" fill="black"/>
<path d="M755.168 676.581L757.551 675.528L555.322 462.513L550.211 460.7L755.168 676.581Z" fill="black"/>
<path d="M568.764 453.875L772.737 668.74L773.28 668.512L774.722 667.249L570.24 451.854L568.764 453.875Z" fill="black"/>
<path d="M580.989 440.394L787.292 657.685L790.583 657.601L583.01 438.947L580.989 440.394Z" fill="black"/>
<path d="M595.836 429.649L808.136 653.282L808.515 653.078L811.136 652.889L597.857 428.202L595.836 429.649Z" fill="black"/>
<path d="M609.734 417.932L834.143 654.299L836.236 652.939L611.5 416.22L609.734 417.932Z" fill="black"/>
<path d="M623.379 405.91L850.404 645.051L852.967 644.216L625.436 404.506L623.379 405.91Z" fill="black"/>
<path d="M642.568 397.903L641.237 398.416L832.452 599.803L831.85 598.144L832.326 596.108L643.298 396.972L642.568 397.903ZM625.692 380.186L627.865 382.157L630.898 383.93L625.482 378.204L625.696 380.147L625.692 380.186Z" fill="black"/>
<path d="M636.817 367.323L836.609 577.782L837.28 574.964L639.165 366.227L636.817 367.323Z" fill="black"/>
<path d="M654.168 359.259L837.346 552.187L838.821 550.167L656.515 358.164L654.168 359.259Z" fill="black"/>
<path d="M745.879 429.451L845.502 534.394L845.046 530.387L749.493 429.758L745.875 429.491L745.879 429.451ZM671.199 350.767L729.736 412.445L726.994 405.976L672.675 348.747L671.199 350.767Z" fill="black"/>
<path d="M813.368 474.211L842.162 504.564L841.706 500.557L816.11 473.594L813.364 474.251L813.368 474.211ZM772.683 431.345L795.333 455.222L795.65 451.929L776.301 431.612L772.683 431.345ZM672.642 324.079L674.008 327.374L718.037 373.764L715.403 367.425L673.01 322.753L672.646 324.04L672.642 324.079Z" fill="black"/>
<path d="M844.719 480.866L844.742 480.628L844.084 476.641L843.355 475.891L838.937 474.786L844.719 480.866ZM697.319 325.609L697.775 322.53L691.376 315.789L687.392 315.166L697.319 325.609Z" fill="black"/>
<mask id="mask3_346_5410" style="mask-type:luminance" maskUnits="userSpaceOnUse" x="364" y="314" width="495" height="626">
<path d="M674.524 317.414L672.678 324.123L675.729 331.543L675.948 340.933L673.776 347.291L670.552 351.666L635.895 367.754L625.231 375.819L625.692 380.187L627.865 382.158L643.219 391.12L644.26 395.704L642.571 397.864L625.912 404.151L618.63 409.097L603.325 424.203L575.619 444.203L562.098 463.243L557.379 463.19L537.785 456.263L523.981 467.829L517.121 470.893L503.3 468.885L501.545 464.232L504.262 453.042L503.109 446.285L497.174 440.55L485.683 436.803L484.012 434.601L483.892 432.107L492.134 412.159L491.562 402.695L488.556 398.562L474.69 399.112L444.068 407.781L442.074 406.028L441.115 394.765L436.545 393.565L422.256 396.436L417.768 395.645L412.978 391.741L403.333 379.604L396.419 374.055L390.463 363.954L388.084 362.884L379.039 365.338L364.111 366.106L364.105 373.673L366.795 380.257L367.471 380.723L368.4 381.893L368.546 385.791L373.254 393.05L375.281 391.122L375.948 393.349L377.803 404.457L375.506 409.201L379.528 415.674L380.306 414.667L382.891 414.435L381.905 415.942L388.576 416.103L388.601 420.429L393.044 427.102L391.486 429.154L388.029 428.462L388.599 427.115L384.79 420.503L381.052 418.983L392.92 440.063L394.206 439.185L396.904 439.444L394.253 442.032L397.569 446.275L398.556 451.415L403.787 460.726L403.82 471.219L402.266 477.396L404.303 479.113L405.249 479.684L405.746 477.009L409.138 477.135L408.114 481.121L405.669 481.566L404.348 483.642L404.273 488.599L397.391 500.63L398.221 504.914L395.76 510.523L397.405 511.322L399.241 503.05L400.165 505.101L398.35 511.493L398.99 513.996L395.459 513.657L394.693 521.631L392.383 521.089L390.981 523.597L389.522 521.695L392.642 516.309L388.647 517.047L386.871 519.278L388.228 523.493L387.059 524.822L388.016 530.279L397.139 542.847L401.061 552.032L403.319 569.786L405.528 571.8L406.247 570.988L407.964 571.033L407.215 572.162L409.796 576.134L407.172 576.362L407.882 578.552L407.455 580.913L410.925 583.969L408.765 589.367L404.92 591.881L402.374 592.957L401.998 595.203L405.493 602.586L407.853 604.695L410.106 617.083L414.861 620.102L418.517 627.06L417.943 630.528L421.396 636.265L425.132 636.544L427.513 638.854L426.667 642.657L432.497 647.821L434.109 647.296L436.034 647.681L435.164 648.398L436.68 649.705L435.667 650.248L433.112 648.922L435.263 655.294L436.919 655.974L435.234 653.089L435.731 651.255L439.874 653.975L440.306 656.139L438.733 658.35L443.28 667.275L447.439 673.16L450.342 672.959L451.414 676.385L448.566 674.35L447.865 675.403L450.692 679.318L452.658 681.349L455.463 680.497L454.845 683.601L457.911 685.858L456.164 687.371L461.132 693.174L475.823 704.875L483.496 708.775L482.746 706.581L478.366 704.239L481.699 703.718L487.694 708.418L489.886 708.108L489.749 706.613L495.255 705.981L500.002 707.839L501.387 712.176L505.517 716.697L512.167 716.655L511.658 720.289L513.562 720.472L517.028 726.491L525.629 729.479L541.911 741.293L543.038 744.565L541.728 748.203L545.478 750.004L546.199 755.839L550.272 758.032L551.412 762.426L555.292 764.961L556.169 764.164L552.959 762.574L552.498 760.288L555.405 761.288L561.435 759.785L565.491 764.659L568.529 773.88L567.383 779.976L564.445 777.211L565.198 780.206L573.154 786.576L579.709 788.367L583.178 792.264L581.528 800.273L582.76 806.197L581.841 807.43L586.368 809.907L587.906 813.898L590.261 815.646L591.455 819.885L590.235 824.252L593.255 831.989L602.039 835.996L602.486 840.924L598.495 849.549L601.766 857.591L605.064 860.35L609.586 861.625L605.584 875.775L610.491 882.212L610.918 886.937L613.961 889.432L620.526 889.862L622.282 893.675L626.3 896.863L625.762 900.375L628.096 902.761L628.5 906.884L628.275 909.225L629.703 915.208L631.775 917.809L631.253 920.321L632.589 922.251L633.921 922.98L632.799 926.315L633.819 927.374L635.349 925.199L636.404 926.301L637.283 927.987L637.146 929.416L639.837 933.078L640.622 934.074L641.659 939.539L647.612 930.501L658.087 924.821L661.187 919.233L666.052 900.682L658.06 873.849L652.009 870.145L632.497 869.031L628.359 867.513L625.499 863.114L623.93 854.435L626.121 825.377L631.711 830.959L633.884 830.848L645.374 822.943L651.906 822.049L665.685 823.653L670.166 821.601L672.478 817.539L676.519 804.234L670.488 791.163L674.816 771.119L674.323 766.667L669.058 761.037L662.386 760.475L657.944 762.531L655.61 763.908L642.181 763.659L637.702 765.271L630.387 778.061L622.207 804.021L615.676 806.997L608.128 806.792L603.587 803.633L597.809 794.59L587.219 788.127L583.533 783.569L584.653 770.664L582.304 759.268L583.617 743.939L580.891 739.393L570.332 735.936L568.452 733.834L568.052 729.671L580.019 718.049L602.664 713.218L606.935 702.938L615.096 689.668L615.637 682.794L612.75 669.504L614.939 663.388L619.008 659.375L625.608 658.607L629.712 660.483L633.143 664.777L636.565 675.836L642.027 680.244L655.579 675.46L667.666 676.341L683.654 668.709L687.948 669.441L693.558 675.225L706.484 701.972L710.473 705.038L717.115 705.916L723.904 702.765L754.042 676.632L772.949 668.199L785.634 657.446L798.893 656.958L808.185 652.766L814.805 652.201L829.899 656.374L846.808 645.826L858.642 641.838L846.552 620.978L833.15 602.113L831.563 597.797L837.325 573.246L836.267 553.005L843.296 543.191L845.466 536.432L841.257 498.151L844.499 480.245L843.7 475.644L825.043 471.049L808.497 474.905L797.829 470.917L794.36 464.097L795.609 448.602L798.304 440.133L793.079 434.506L784.13 431.804L743.129 428.906L734.48 423.911L720.328 390.761L718.106 374.292L712.314 360.402L709.396 346.189L697.575 336.284L696.77 327.158L698.347 316.58L683.752 314.296L674.241 317.026L674.524 317.414Z" fill="white"/>
</mask>
<g mask="url(#mask3_346_5410)">
<path d="M380.014 -38.543L378.251 -36.8691L1644.96 1297.4L1646.72 1295.73L380.014 -38.543Z" fill="black"/>
<path d="M405.69 -37.8701L403.927 -36.1963L1670.64 1298.07L1672.4 1296.4L405.69 -37.8701Z" fill="black"/>
<path d="M431.341 -37.2092L429.578 -35.5352L1696.29 1298.73L1698.05 1297.06L431.341 -37.2092Z" fill="black"/>
<path d="M457.016 -36.5363L455.252 -34.8623L1721.96 1299.41L1723.72 1297.73L457.016 -36.5363Z" fill="black"/>
<path d="M482.694 -35.9033L480.931 -34.2295L1747.64 1300.04L1749.4 1298.36L482.694 -35.9033Z" fill="black"/>
<path d="M508.341 -35.2022L506.578 -33.5283L1773.29 1300.74L1775.05 1299.07L508.341 -35.2022Z" fill="black"/>
<path d="M534.019 -34.5693L532.256 -32.8955L1798.97 1301.37L1800.73 1299.7L534.019 -34.5693Z" fill="black"/>
<path d="M559.697 -33.8965L557.934 -32.2227L1824.64 1302.05L1826.41 1300.37L559.697 -33.8965Z" fill="black"/>
<path d="M585.341 -33.1955L583.578 -31.5215L1850.29 1302.75L1852.05 1301.07L585.341 -33.1955Z" fill="black"/>
<path d="M611.021 -32.5625L609.258 -30.8887L1875.97 1303.38L1877.73 1301.71L611.021 -32.5625Z" fill="black"/>
<path d="M636.697 -31.8897L634.934 -30.2158L1901.64 1304.05L1903.41 1302.38L636.697 -31.8897Z" fill="black"/>
<path d="M662.348 -31.2295L660.584 -29.5557L1927.29 1304.71L1929.06 1303.04L662.348 -31.2295Z" fill="black"/>
<path d="M688.024 -30.5557L686.261 -28.8818L1952.97 1305.39L1954.73 1303.71L688.024 -30.5557Z" fill="black"/>
<path d="M713.699 -29.8828L711.936 -28.209L1978.64 1306.06L1980.41 1304.39L713.699 -29.8828Z" fill="black"/>
<path d="M739.349 -29.2228L737.586 -27.5488L2004.3 1306.72L2006.06 1305.05L739.349 -29.2228Z" fill="black"/>
<path d="M765.025 -28.5488L763.262 -26.875L2029.97 1307.39L2031.73 1305.72L765.025 -28.5488Z" fill="black"/>
<path d="M790.663 -27.9199L788.9 -26.2461L2055.61 1308.02L2057.37 1306.35L790.663 -27.9199Z" fill="black"/>
<path d="M816.339 -27.1895L814.576 -25.5156L2081.28 1308.75L2083.05 1307.08L816.339 -27.1895Z" fill="black"/>
<path d="M842.017 -26.5566L840.254 -24.8828L2106.96 1309.39L2108.73 1307.71L842.017 -26.5566Z" fill="black"/>
</g>
<path d="M363.174 365.855L363.539 365.81M698.633 316.927L697.056 327.505L697.861 336.631L709.682 346.536L712.601 360.749L718.393 374.639L720.614 391.108L734.766 424.258L743.419 429.213L784.42 432.112L793.369 434.813L798.594 440.44L795.899 448.91L794.65 464.405L798.159 471.228L808.826 475.216L825.372 471.36L844.029 475.955L844.828 480.557L841.547 498.459L845.757 536.74L843.586 543.498L836.557 553.313L837.655 573.558L831.893 598.108L833.48 602.425L846.882 621.289L858.972 642.15L847.177 646.141L830.269 656.689L815.175 652.516L808.594 653.085L799.263 657.273L786.003 657.761L773.319 668.514L754.411 676.947L724.274 703.08L717.485 706.231L710.843 705.353L706.853 702.287L693.928 675.54L688.318 669.756L684.024 669.024L668.036 676.656L655.949 675.775L642.396 680.559L636.934 676.151L633.513 665.092L630.081 660.798L625.977 658.922L619.377 659.69L615.308 663.703L613.119 669.819L616.006 683.109L615.466 689.983L607.304 703.253L603.037 713.493L580.392 718.324L568.425 729.947L568.826 734.109L570.706 736.212L581.264 739.668L583.951 744.211L582.638 759.539L584.986 770.936L583.867 783.841L587.549 788.439L598.139 794.901L603.917 803.945L608.458 807.103L616.005 807.308L622.537 804.332L630.717 778.372L638.031 765.582L642.511 763.97L655.939 764.22L658.278 762.803L662.719 760.747L669.392 761.308L674.617 766.935L675.11 771.387L670.782 791.43L676.813 804.502L672.772 817.807L670.46 821.869L665.979 823.921L652.2 822.317L645.668 823.211L634.178 831.115L632.005 831.227L626.415 825.645L624.224 854.703L625.793 863.382L628.653 867.78L632.791 869.299L652.303 870.413L658.357 874.078L666.349 900.911L661.484 919.461L658.385 925.049L647.91 930.729L641.957 939.767L640.92 934.302L640.174 933.309L637.483 929.648L637.621 928.219L636.702 926.53L635.647 925.427L634.117 927.602L633.097 926.544L634.218 923.208L632.887 922.479L631.551 920.549L632.073 918.037L630 915.436L628.573 909.453L628.798 907.112L628.393 902.989L626.06 900.603L626.598 897.091L622.58 893.903L620.824 890.09L614.259 889.66L611.255 887.169L610.829 882.444L605.922 876.007L609.924 861.857L605.402 860.582L602.143 857.826L598.872 849.785L602.864 841.159L602.416 836.232L593.632 832.225L590.612 824.487L591.832 820.12L590.638 815.882L588.283 814.134L586.745 810.142L582.218 807.666L583.138 806.433L581.905 800.509L583.556 792.499L580.086 788.602L573.532 786.812L565.575 780.442L564.822 777.447L567.799 780.215L568.945 774.119L565.908 764.899L561.852 760.025L555.821 761.527L552.915 760.527L553.376 762.814L556.586 764.404L555.709 765.2L551.828 762.665L550.689 758.272L546.616 756.079L545.895 750.244L542.144 748.442L543.455 744.804L542.328 741.533L526.046 729.719L517.444 726.73L513.979 720.712L512.075 720.529L512.584 716.894L505.933 716.936L501.803 712.415L500.418 708.078L495.672 706.221L490.166 706.853L490.303 708.347L488.111 708.657L482.116 703.958L478.787 704.438L483.166 706.781L483.92 708.935L476.247 705.035L461.556 693.334L456.588 687.531L458.335 686.018L455.269 683.761L455.887 680.658L453.083 681.509L451.076 679.475L448.249 675.56L448.951 674.506L451.799 676.541L450.726 673.115L447.824 673.316L443.665 667.432L439.117 658.507L440.691 656.295L440.258 654.132L436.115 651.412L435.619 653.246L437.304 656.13L435.647 655.451L433.497 649.078L436.052 650.404L437.065 649.861L435.549 648.554L436.419 647.837L434.494 647.452L432.882 647.978L427.052 642.813L427.898 639.011L425.517 636.7L421.78 636.421L418.328 630.684L418.861 627.212L415.206 620.255L410.451 617.235L408.198 604.847L405.838 602.739L402.343 595.356L402.719 593.11L405.265 592.033L409.07 589.516L411.27 584.122L407.8 581.066L408.227 578.705L407.517 576.514L410.141 576.286L407.56 572.315L408.309 571.185L406.592 571.14L405.873 571.952L403.664 569.938L401.406 552.184L397.484 542.999L388.361 530.431L387.404 524.974L388.573 523.645L387.176 519.427L388.952 517.195L392.947 516.458L389.827 521.844L391.286 523.746L392.688 521.238L394.998 521.78L395.764 513.806L399.331 514.189L398.691 511.685L400.466 505.289L399.542 503.238L397.707 511.51L396.022 510.708L398.483 505.098L397.657 500.775L404.538 488.744L404.614 483.786L405.935 481.711L408.38 481.265L409.403 477.28L406.012 477.154L405.515 479.829L404.569 479.258L402.532 477.541L404.086 471.364L404.053 460.871L398.822 451.559L397.834 446.42L394.518 442.177L397.165 439.629L394.468 439.37L393.186 440.208L381.278 419.124L385.016 420.644L388.825 427.257L388.255 428.603L391.712 429.296L393.231 427.239L388.787 420.566L388.762 416.24L382.091 416.079L383.077 414.573L380.492 414.805L379.715 415.811L375.692 409.339L377.99 404.595L376.174 393.49L375.507 391.264L373.48 393.191L368.772 385.932L368.626 382.034L367.697 380.864L367.061 380.402L364.371 373.818L364.377 366.251L379.305 365.483L388.349 363.029L390.689 364.095L396.645 374.196L403.559 379.745L413.204 391.882L417.994 395.786L422.482 396.578L436.771 393.706L441.341 394.906L442.3 406.169L444.294 407.922L474.916 399.253L488.782 398.703L491.788 402.836L492.36 412.3L484.114 432.288L484.235 434.782L485.905 436.984L497.396 440.73L503.335 446.426L504.448 453.179L501.731 464.369L503.487 469.022L517.307 471.031L524.168 467.966L537.971 456.4L557.562 463.367L562.281 463.42L575.802 444.38L603.548 424.383L618.852 409.278L626.134 404.332L642.793 398.045L644.482 395.885L643.441 391.301L628.087 382.338L625.914 380.368L625.453 375.999L636.117 367.935L670.735 351.843L673.958 347.468L676.134 341.07L675.915 331.68L672.864 324.26L674.71 317.551L684.225 314.782L698.82 317.065L698.633 316.927Z" stroke="#00AFA9" stroke-width="1.29971" stroke-linecap="round" stroke-linejoin="round"/>
</g>
</g>
</g>
<circle cx="404.419" cy="508.048" r="34.7421" fill="#CDDC29" fill-opacity="0.2"/>
<circle cx="404.419" cy="508.05" r="35.034" fill="#CDDC29"/>
<path d="M298.786 594H294.371L283.831 579.795L280.79 582.461V594H277.041V564.256H280.79V578.92C281.623 577.975 282.47 577.031 283.331 576.087C284.192 575.143 285.053 574.198 285.914 573.254L293.954 564.256H298.328L286.539 577.212L298.786 594ZM305.999 571.671V594H302.333V571.671H305.999ZM304.208 563.298C304.763 563.298 305.249 563.492 305.666 563.881C306.11 564.242 306.332 564.825 306.332 565.631C306.332 566.408 306.11 566.992 305.666 567.38C305.249 567.769 304.763 567.964 304.208 567.964C303.597 567.964 303.083 567.769 302.667 567.38C302.25 566.992 302.042 566.408 302.042 565.631C302.042 564.825 302.25 564.242 302.667 563.881C303.083 563.492 303.597 563.298 304.208 563.298ZM323.821 571.255C326.487 571.255 328.501 571.907 329.862 573.213C331.222 574.49 331.903 576.573 331.903 579.461V594H328.279V579.711C328.279 577.906 327.876 576.559 327.071 575.67C326.265 574.782 325.001 574.337 323.28 574.337C320.808 574.337 319.1 575.032 318.156 576.42C317.211 577.809 316.739 579.808 316.739 582.419V594H313.073V571.671H316.031L316.573 574.712H316.781C317.281 573.935 317.892 573.296 318.614 572.796C319.364 572.268 320.183 571.879 321.072 571.63C321.96 571.38 322.877 571.255 323.821 571.255ZM346.74 571.255C348.212 571.255 349.531 571.532 350.698 572.088C351.892 572.643 352.905 573.49 353.739 574.629H353.947L354.447 571.671H357.363V594.375C357.363 596.486 357.002 598.249 356.28 599.666C355.558 601.11 354.461 602.193 352.989 602.915C351.517 603.637 349.642 603.998 347.365 603.998C345.754 603.998 344.268 603.873 342.907 603.623C341.574 603.401 340.38 603.054 339.325 602.582V599.207C340.047 599.568 340.838 599.874 341.699 600.124C342.56 600.401 343.491 600.61 344.49 600.749C345.49 600.888 346.518 600.957 347.573 600.957C349.489 600.957 350.989 600.388 352.072 599.249C353.183 598.138 353.739 596.611 353.739 594.667V593.792C353.739 593.458 353.753 592.986 353.78 592.375C353.808 591.737 353.836 591.292 353.864 591.042H353.697C352.919 592.181 351.947 593.028 350.781 593.583C349.642 594.139 348.309 594.417 346.782 594.417C343.893 594.417 341.63 593.403 339.991 591.376C338.381 589.348 337.575 586.515 337.575 582.877C337.575 580.489 337.936 578.434 338.658 576.712C339.408 574.962 340.464 573.615 341.824 572.671C343.185 571.727 344.824 571.255 346.74 571.255ZM347.24 574.337C345.99 574.337 344.921 574.671 344.032 575.337C343.171 576.004 342.505 576.976 342.033 578.253C341.588 579.531 341.366 581.086 341.366 582.919C341.366 585.668 341.866 587.779 342.866 589.251C343.893 590.695 345.379 591.417 347.323 591.417C348.462 591.417 349.434 591.278 350.239 591.001C351.045 590.695 351.711 590.237 352.239 589.626C352.767 588.987 353.155 588.182 353.405 587.21C353.655 586.238 353.78 585.085 353.78 583.752V582.877C353.78 580.85 353.544 579.211 353.072 577.962C352.628 576.712 351.92 575.795 350.948 575.212C349.976 574.629 348.74 574.337 347.24 574.337ZM392.689 594L389.107 584.794H377.318L373.777 594H369.986L381.608 564.131H384.983L396.564 594H392.689ZM384.649 572.463C384.566 572.24 384.427 571.838 384.233 571.255C384.038 570.671 383.844 570.074 383.65 569.463C383.483 568.825 383.344 568.338 383.233 568.005C383.094 568.561 382.941 569.13 382.775 569.713C382.636 570.269 382.483 570.782 382.317 571.255C382.178 571.727 382.053 572.129 381.942 572.463L378.567 581.461H387.982L384.649 572.463ZM403.799 570.046C403.799 570.991 403.771 571.879 403.715 572.713C403.687 573.518 403.646 574.157 403.59 574.629H403.799C404.437 573.685 405.312 572.893 406.423 572.254C407.534 571.616 408.964 571.296 410.714 571.296C413.491 571.296 415.713 572.268 417.379 574.212C419.073 576.129 419.92 579.003 419.92 582.836C419.92 585.391 419.531 587.529 418.754 589.251C418.004 590.973 416.935 592.264 415.546 593.125C414.158 593.986 412.547 594.417 410.714 594.417C408.964 594.417 407.534 594.097 406.423 593.458C405.312 592.82 404.437 592.056 403.799 591.167H403.507L402.757 594H400.133V562.34H403.799V570.046ZM410.089 574.337C408.506 574.337 407.256 574.643 406.34 575.254C405.423 575.837 404.771 576.753 404.382 578.003C403.993 579.225 403.799 580.794 403.799 582.711V582.877C403.799 585.627 404.243 587.737 405.132 589.209C406.048 590.653 407.728 591.376 410.172 591.376C412.172 591.376 413.658 590.64 414.63 589.168C415.63 587.696 416.129 585.571 416.129 582.794C416.129 579.989 415.63 577.878 414.63 576.462C413.658 575.045 412.144 574.337 410.089 574.337ZM433.677 594.417C430.9 594.417 428.678 593.458 427.012 591.542C425.346 589.598 424.512 586.71 424.512 582.877C424.512 579.045 425.346 576.156 427.012 574.212C428.706 572.24 430.942 571.255 433.719 571.255C434.885 571.255 435.899 571.407 436.76 571.713C437.621 571.991 438.371 572.379 439.01 572.879C439.648 573.379 440.19 573.935 440.634 574.546H440.884C440.856 574.185 440.801 573.657 440.718 572.963C440.662 572.24 440.634 571.671 440.634 571.255V562.34H444.3V594H441.342L440.801 591.001H440.634C440.19 591.639 439.648 592.223 439.01 592.75C438.371 593.25 437.607 593.653 436.718 593.958C435.857 594.264 434.844 594.417 433.677 594.417ZM434.261 591.376C436.621 591.376 438.274 590.737 439.218 589.459C440.19 588.154 440.676 586.196 440.676 583.585V582.919C440.676 580.142 440.218 578.017 439.301 576.545C438.385 575.045 436.691 574.296 434.219 574.296C432.247 574.296 430.761 575.087 429.761 576.67C428.789 578.225 428.303 580.322 428.303 582.961C428.303 585.627 428.789 587.696 429.761 589.168C430.761 590.64 432.261 591.376 434.261 591.376ZM470.055 571.671V594H467.055L466.514 591.042H466.347C465.875 591.82 465.264 592.459 464.514 592.959C463.764 593.458 462.945 593.819 462.056 594.042C461.168 594.292 460.237 594.417 459.265 594.417C457.488 594.417 455.988 594.139 454.766 593.583C453.572 593 452.669 592.111 452.058 590.917C451.447 589.723 451.142 588.182 451.142 586.293V571.671H454.849V586.043C454.849 587.821 455.252 589.154 456.058 590.042C456.863 590.931 458.113 591.376 459.807 591.376C461.473 591.376 462.778 591.07 463.723 590.459C464.695 589.82 465.375 588.904 465.764 587.71C466.181 586.488 466.389 585.016 466.389 583.294V571.671H470.055ZM480.809 594H477.143V562.34H480.809V594ZM491.549 594H487.884V562.34H491.549V594ZM507.08 571.296C509.802 571.296 511.815 571.893 513.121 573.088C514.426 574.282 515.079 576.184 515.079 578.795V594H512.412L511.704 590.834H511.538C510.899 591.639 510.232 592.32 509.538 592.875C508.871 593.403 508.094 593.792 507.205 594.042C506.344 594.292 505.289 594.417 504.039 594.417C502.706 594.417 501.498 594.181 500.415 593.708C499.359 593.236 498.526 592.514 497.915 591.542C497.304 590.542 496.999 589.293 496.999 587.793C496.999 585.571 497.874 583.863 499.623 582.669C501.373 581.447 504.067 580.78 507.705 580.669L511.496 580.544V579.211C511.496 577.351 511.093 576.059 510.288 575.337C509.482 574.615 508.344 574.254 506.872 574.254C505.705 574.254 504.595 574.434 503.539 574.796C502.484 575.129 501.498 575.518 500.581 575.962L499.457 573.213C500.429 572.685 501.581 572.24 502.914 571.879C504.247 571.491 505.636 571.296 507.08 571.296ZM508.163 583.211C505.386 583.322 503.456 583.766 502.373 584.544C501.317 585.321 500.79 586.418 500.79 587.835C500.79 589.084 501.165 590.001 501.915 590.584C502.692 591.167 503.678 591.459 504.872 591.459C506.761 591.459 508.33 590.945 509.58 589.917C510.829 588.862 511.454 587.251 511.454 585.085V583.086L508.163 583.211ZM525.641 571.63C525.641 572.157 525.613 572.699 525.558 573.254C525.53 573.81 525.488 574.31 525.433 574.754H525.683C526.155 573.976 526.752 573.337 527.474 572.838C528.196 572.338 529.001 571.963 529.89 571.713C530.779 571.435 531.695 571.296 532.639 571.296C534.445 571.296 535.944 571.588 537.139 572.171C538.361 572.727 539.277 573.601 539.888 574.796C540.499 575.99 540.805 577.545 540.805 579.461V594H537.18V579.711C537.18 577.906 536.778 576.559 535.972 575.67C535.167 574.782 533.903 574.337 532.181 574.337C530.515 574.337 529.21 574.657 528.265 575.295C527.321 575.906 526.641 576.823 526.224 578.045C525.835 579.239 525.641 580.711 525.641 582.461V594H521.975V562.34H525.641V571.63ZM284.914 608.256C288.802 608.256 291.635 609.02 293.413 610.547C295.19 612.075 296.079 614.227 296.079 617.004C296.079 618.226 295.87 619.407 295.454 620.545C295.065 621.656 294.412 622.656 293.496 623.545C292.579 624.433 291.357 625.141 289.83 625.669C288.302 626.169 286.428 626.419 284.206 626.419H280.79V638H277.041V608.256H284.914ZM284.581 611.464H280.79V623.211H283.789C285.678 623.211 287.247 623.017 288.497 622.628C289.747 622.212 290.677 621.559 291.288 620.67C291.899 619.781 292.204 618.615 292.204 617.171C292.204 615.255 291.593 613.824 290.372 612.88C289.15 611.936 287.219 611.464 284.581 611.464ZM321.177 626.794C321.177 628.655 320.927 630.307 320.427 631.751C319.955 633.168 319.26 634.376 318.344 635.376C317.455 636.375 316.358 637.139 315.053 637.667C313.775 638.167 312.345 638.417 310.762 638.417C309.29 638.417 307.929 638.167 306.679 637.667C305.43 637.139 304.347 636.375 303.43 635.376C302.514 634.376 301.792 633.168 301.264 631.751C300.764 630.307 300.514 628.655 300.514 626.794C300.514 624.322 300.931 622.239 301.764 620.545C302.597 618.823 303.791 617.518 305.346 616.629C306.902 615.713 308.748 615.255 310.887 615.255C312.914 615.255 314.692 615.713 316.219 616.629C317.774 617.518 318.983 618.823 319.843 620.545C320.732 622.239 321.177 624.322 321.177 626.794ZM304.305 626.794C304.305 628.544 304.527 630.071 304.971 631.376C305.444 632.654 306.166 633.64 307.138 634.334C308.11 635.028 309.346 635.376 310.845 635.376C312.345 635.376 313.581 635.028 314.553 634.334C315.525 633.64 316.233 632.654 316.677 631.376C317.15 630.071 317.386 628.544 317.386 626.794C317.386 625.017 317.15 623.503 316.677 622.253C316.205 621.003 315.483 620.045 314.511 619.379C313.567 618.684 312.331 618.337 310.804 618.337C308.526 618.337 306.874 619.087 305.846 620.587C304.819 622.087 304.305 624.156 304.305 626.794ZM337.401 615.255C337.818 615.255 338.262 615.282 338.734 615.338C339.234 615.366 339.665 615.421 340.026 615.505L339.567 618.879C339.206 618.796 338.804 618.726 338.359 618.671C337.943 618.615 337.54 618.587 337.151 618.587C336.29 618.587 335.471 618.768 334.693 619.129C333.916 619.49 333.221 620.004 332.61 620.67C331.999 621.309 331.513 622.087 331.152 623.003C330.819 623.919 330.652 624.947 330.652 626.086V638H326.987V615.671H329.986L330.403 619.754H330.569C331.041 618.921 331.611 618.171 332.277 617.504C332.944 616.81 333.707 616.268 334.568 615.879C335.429 615.463 336.374 615.255 337.401 615.255ZM351.652 635.417C352.207 635.417 352.777 635.376 353.36 635.292C353.943 635.181 354.415 635.07 354.776 634.959V637.75C354.387 637.944 353.832 638.097 353.11 638.208C352.388 638.347 351.693 638.417 351.027 638.417C349.861 638.417 348.777 638.222 347.778 637.833C346.806 637.417 346.014 636.709 345.403 635.709C344.792 634.709 344.487 633.306 344.487 631.501V618.504H341.321V616.754L344.528 615.296L345.986 610.547H348.153V615.671H354.61V618.504H348.153V631.418C348.153 632.779 348.472 633.793 349.111 634.459C349.777 635.098 350.624 635.417 351.652 635.417Z" fill="white"/>
<defs>
<radialGradient id="paint0_radial_346_5410" cx="0" cy="0" r="1" gradientUnits="userSpaceOnUse" gradientTransform="translate(632.537 676.691) rotate(1.48789) scale(928.065 928.065)">
<stop stop-color="white"/>
<stop offset="0.53" stop-color="white"/>
<stop offset="0.68" stop-color="#FCFCFC"/>
<stop offset="0.76" stop-color="#F5F5F5"/>
<stop offset="0.82" stop-color="#E8E8E8"/>
<stop offset="0.87" stop-color="#D5D6D7"/>
<stop offset="0.91" stop-color="#BDBEBF"/>
<stop offset="0.95" stop-color="#A0A1A3"/>
<stop offset="0.98" stop-color="#7E7F81"/>
<stop offset="1" stop-color="#6D6E71"/>
</radialGradient>
</defs>
</svg>
