<svg width="1033" height="1080" viewBox="0 0 1033 1080" fill="none" xmlns="http://www.w3.org/2000/svg">
<path d="M2086.93 437.443L1819.58 418.32L1552.82 113.509L1527.32 -12.6057L1463.36 -49.4556L1369.53 -196.889L1169.51 -253.27L997.971 -266.615L583.783 -583.98L468.236 -610.279L251.676 -552.701L343.518 -433.961L139.512 -299.291L19.7749 -274.181L49.2666 -176.959L243.311 236.232L368.021 369.314L409.66 469.721L404.081 608.781L552.304 764.97L801.341 1162.63L849.549 1050.27L1290.83 1093.29L1368.13 973.365L1470.94 919.171L1775.75 866.182L2092.51 736.883L2148.3 506.579L2086.93 437.443Z" fill="#EEEEEE" fill-opacity="0.09"/>
<g opacity="0.5">
<g opacity="0.33">
<mask id="mask0_346_6319" style="mask-type:luminance" maskUnits="userSpaceOnUse" x="265" y="232" width="687" height="760">
<path d="M951.029 292.008L332.616 232.594L265.452 931.661L883.865 991.075L951.029 292.008Z" fill="white"/>
</mask>
<g mask="url(#mask0_346_6319)">
<path d="M698.633 316.927L697.056 327.505L697.861 336.631L709.682 346.536L712.601 360.749L718.393 374.639L720.614 391.108L734.766 424.258L743.419 429.213L784.42 432.112L793.369 434.813L798.594 440.44L795.899 448.91L794.65 464.405L798.159 471.228L808.826 475.216L825.372 471.36L844.029 475.955L844.828 480.557L841.547 498.459L845.757 536.74L843.586 543.498L836.557 553.313L837.655 573.558L831.893 598.108L833.48 602.425L846.882 621.289L858.972 642.15L847.177 646.141L830.269 656.689L815.175 652.516L808.594 653.085L799.263 657.273L786.003 657.761L773.319 668.514L754.411 676.947L724.274 703.08L717.485 706.231L710.843 705.353L706.853 702.287L693.928 675.54L688.318 669.756L684.024 669.024L668.036 676.656L655.949 675.775L642.396 680.559L636.934 676.151L633.513 665.092L630.081 660.798L625.977 658.922L619.377 659.69L615.308 663.703L613.119 669.819L616.006 683.109L615.466 689.983L607.304 703.253L603.037 713.493L580.392 718.324L568.425 729.947L568.826 734.109L570.706 736.212L581.264 739.668L583.951 744.211L582.638 759.539L584.986 770.936L583.867 783.841L587.549 788.439L598.139 794.901L603.916 803.945L608.458 807.103L616.005 807.308L622.537 804.332L630.717 778.372L638.031 765.582L642.511 763.97L655.939 764.22L658.278 762.803L662.719 760.747L669.392 761.308L674.617 766.935L675.11 771.387L670.782 791.43L676.813 804.502L672.772 817.807L670.46 821.869L665.979 823.921L652.2 822.317L645.668 823.211L634.178 831.115L632.005 831.227L626.415 825.645L624.224 854.703L625.793 863.382L628.653 867.78L632.791 869.299L652.303 870.413L658.357 874.078L666.349 900.911L661.484 919.461L658.385 925.049L647.91 930.729L641.957 939.767L640.92 934.302L640.174 933.309L637.483 929.648L637.621 928.219L636.702 926.53L635.647 925.427L634.117 927.602L633.097 926.544L634.218 923.208L632.887 922.479L631.551 920.549L632.072 918.037L630 915.436L628.573 909.453L628.798 907.112L628.393 902.989L626.06 900.603L626.598 897.091L622.58 893.903L620.824 890.09L614.259 889.66L611.255 887.169L610.829 882.444L605.922 876.006L609.924 861.857L605.402 860.582L602.143 857.826L598.872 849.785L602.864 841.159L602.416 836.232L593.632 832.225L590.612 824.487L591.832 820.12L590.638 815.882L588.283 814.134L586.745 810.142L582.218 807.666L583.138 806.433L581.905 800.509L583.556 792.499L580.086 788.602L573.532 786.812L565.575 780.442L564.822 777.447L567.799 780.215L568.945 774.119L565.908 764.899L561.852 760.025L555.821 761.527L552.915 760.527L553.376 762.814L556.586 764.404L555.709 765.2L551.828 762.665L550.689 758.272L546.616 756.079L545.895 750.244L542.144 748.442L543.455 744.804L542.328 741.533L526.046 729.719L517.444 726.73L513.979 720.712L512.075 720.529L512.584 716.894L505.933 716.936L501.803 712.415L500.418 708.078L495.672 706.221L490.166 706.853L490.303 708.347L488.111 708.657L482.116 703.958L478.787 704.438L483.166 706.781L483.92 708.935L476.247 705.035L461.556 693.334L456.588 687.531L458.335 686.018L455.269 683.761L455.887 680.658L453.083 681.509L451.076 679.475L448.249 675.56L448.951 674.506L451.799 676.541L450.726 673.115L447.824 673.316L443.665 667.432L439.117 658.507L440.691 656.295L440.258 654.132L436.115 651.412L435.619 653.246L437.304 656.13L435.647 655.451L433.497 649.078L436.052 650.404L437.065 649.861L435.549 648.554L436.419 647.837L434.494 647.452L432.882 647.978L427.052 642.813L427.898 639.011L425.517 636.7L421.78 636.421L418.328 630.684L418.861 627.212L415.206 620.255L410.451 617.235L408.198 604.847L405.838 602.739L402.343 595.356L402.719 593.11L405.265 592.033L409.07 589.516L411.27 584.122L407.8 581.066L408.227 578.705L407.517 576.514L410.141 576.286L407.56 572.315L408.309 571.185L406.592 571.14L405.873 571.952L403.664 569.938L401.406 552.184L397.484 542.999L388.361 530.431L387.404 524.974L388.573 523.645L387.177 519.427L388.952 517.195L392.947 516.458L389.827 521.844L391.286 523.746L392.688 521.238L394.998 521.78L395.764 513.806L399.331 514.189L398.691 511.685L400.466 505.289L399.542 503.238L397.707 511.51L396.022 510.708L398.483 505.099L397.657 500.775L404.538 488.744L404.614 483.786L405.935 481.711L408.38 481.266L409.403 477.28L406.012 477.154L405.515 479.829L404.569 479.258L402.532 477.541L404.086 471.364L404.053 460.871L398.822 451.559L397.834 446.42L394.518 442.177L397.165 439.629L394.468 439.37L393.186 440.208L381.278 419.124L385.016 420.644L388.825 427.257L388.255 428.603L391.712 429.296L393.231 427.239L388.787 420.566L388.762 416.24L382.091 416.079L383.077 414.573L380.492 414.805L379.715 415.811L375.692 409.339L377.99 404.595L376.174 393.49L375.507 391.264L373.48 393.191L368.772 385.932L368.626 382.034L367.697 380.864L367.061 380.402L364.371 373.818L364.377 366.251L379.305 365.483L388.349 363.029L390.689 364.095L396.645 374.196L403.559 379.745L413.204 391.882L417.994 395.786L422.482 396.578L436.771 393.706L441.341 394.906L442.3 406.169L444.294 407.922L474.916 399.253L488.782 398.703L491.788 402.836L492.36 412.3L484.114 432.288L484.235 434.782L485.905 436.984L497.396 440.73L503.335 446.426L504.448 453.179L501.731 464.369L503.487 469.022L517.307 471.031L524.168 467.966L537.971 456.4L557.562 463.367L562.281 463.42L575.802 444.38L603.548 424.383L618.852 409.278L626.134 404.332L642.793 398.045L644.482 395.885L643.441 391.301L628.087 382.338L625.914 380.368L625.453 375.999L636.117 367.935L670.735 351.843L673.958 347.468L676.134 341.07L675.915 331.68L672.864 324.26L674.71 317.551L684.225 314.782L698.82 317.065L698.633 316.927Z" fill="#DEDCD9"/>
<mask id="mask1_346_6319" style="mask-type:luminance" maskUnits="userSpaceOnUse" x="364" y="314" width="495" height="626">
<path d="M674.524 317.414L672.678 324.123L675.729 331.543L675.948 340.933L673.776 347.291L670.552 351.666L635.895 367.754L625.231 375.819L625.692 380.187L627.865 382.158L643.219 391.12L644.26 395.704L642.571 397.864L625.912 404.151L618.63 409.097L603.325 424.203L575.619 444.203L562.098 463.243L557.379 463.19L537.785 456.263L523.981 467.829L517.121 470.893L503.3 468.885L501.545 464.232L504.262 453.042L503.109 446.285L497.174 440.55L485.683 436.803L484.012 434.601L483.892 432.107L492.134 412.159L491.562 402.695L488.556 398.562L474.69 399.112L444.068 407.781L442.074 406.028L441.115 394.765L436.545 393.565L422.256 396.436L417.768 395.645L412.978 391.741L403.333 379.604L396.419 374.055L390.463 363.954L388.084 362.884L379.039 365.338L364.111 366.106L364.105 373.673L366.795 380.257L367.471 380.723L368.4 381.893L368.546 385.791L373.254 393.05L375.281 391.122L375.948 393.349L377.803 404.457L375.506 409.201L379.528 415.674L380.306 414.667L382.891 414.435L381.905 415.942L388.576 416.103L388.601 420.429L393.044 427.102L391.486 429.154L388.029 428.462L388.599 427.115L384.79 420.503L381.052 418.983L392.92 440.063L394.206 439.185L396.904 439.444L394.253 442.032L397.569 446.275L398.556 451.415L403.787 460.726L403.82 471.219L402.266 477.396L404.303 479.113L405.249 479.684L405.746 477.009L409.138 477.135L408.114 481.121L405.669 481.566L404.348 483.642L404.273 488.599L397.391 500.63L398.221 504.914L395.76 510.523L397.405 511.322L399.241 503.05L400.165 505.101L398.35 511.493L398.99 513.996L395.459 513.657L394.693 521.631L392.383 521.089L390.981 523.597L389.522 521.695L392.642 516.309L388.647 517.047L386.871 519.278L388.228 523.493L387.059 524.822L388.016 530.279L397.139 542.847L401.061 552.032L403.319 569.786L405.528 571.8L406.247 570.988L407.964 571.033L407.215 572.162L409.796 576.134L407.172 576.362L407.882 578.552L407.455 580.913L410.925 583.969L408.765 589.367L404.92 591.881L402.374 592.957L401.998 595.203L405.493 602.586L407.853 604.695L410.106 617.083L414.861 620.102L418.517 627.06L417.943 630.528L421.396 636.265L425.132 636.544L427.513 638.854L426.667 642.657L432.497 647.821L434.109 647.296L436.034 647.681L435.164 648.398L436.68 649.705L435.667 650.248L433.112 648.922L435.263 655.294L436.919 655.974L435.234 653.089L435.731 651.255L439.874 653.975L440.306 656.139L438.733 658.35L443.28 667.275L447.439 673.16L450.342 672.959L451.414 676.385L448.566 674.35L447.865 675.403L450.692 679.318L452.658 681.349L455.463 680.497L454.845 683.601L457.911 685.858L456.164 687.371L461.132 693.174L475.823 704.875L483.496 708.775L482.746 706.581L478.366 704.239L481.699 703.718L487.694 708.418L489.886 708.108L489.749 706.613L495.255 705.981L500.002 707.839L501.387 712.176L505.517 716.697L512.167 716.655L511.658 720.289L513.562 720.472L517.028 726.491L525.629 729.479L541.911 741.293L543.038 744.565L541.728 748.203L545.478 750.004L546.199 755.839L550.272 758.032L551.412 762.426L555.292 764.961L556.169 764.164L552.959 762.574L552.498 760.288L555.405 761.288L561.435 759.785L565.491 764.659L568.529 773.88L567.383 779.976L564.445 777.211L565.198 780.206L573.154 786.576L579.709 788.367L583.178 792.264L581.528 800.273L582.76 806.197L581.841 807.43L586.368 809.907L587.906 813.898L590.261 815.646L591.455 819.885L590.235 824.252L593.255 831.989L602.039 835.996L602.486 840.924L598.495 849.549L601.766 857.591L605.064 860.35L609.586 861.625L605.584 875.775L610.491 882.212L610.918 886.937L613.961 889.432L620.526 889.862L622.282 893.675L626.3 896.863L625.762 900.375L628.096 902.761L628.5 906.884L628.275 909.225L629.703 915.208L631.775 917.809L631.253 920.321L632.589 922.251L633.921 922.98L632.799 926.315L633.819 927.374L635.349 925.199L636.404 926.301L637.283 927.987L637.146 929.416L639.837 933.078L640.622 934.074L641.659 939.539L647.612 930.501L658.087 924.821L661.187 919.233L666.052 900.682L658.06 873.849L652.009 870.145L632.497 869.031L628.359 867.513L625.499 863.114L623.93 854.435L626.121 825.377L631.711 830.959L633.884 830.848L645.374 822.943L651.906 822.049L665.685 823.653L670.166 821.601L672.478 817.539L676.519 804.234L670.488 791.163L674.816 771.119L674.323 766.667L669.058 761.037L662.386 760.475L657.944 762.531L655.61 763.908L642.181 763.659L637.702 765.271L630.387 778.061L622.207 804.021L615.676 806.997L608.128 806.792L603.587 803.633L597.809 794.59L587.219 788.127L583.533 783.569L584.653 770.664L582.304 759.268L583.617 743.939L580.891 739.393L570.332 735.936L568.452 733.834L568.052 729.671L580.019 718.049L602.664 713.218L606.935 702.938L615.096 689.668L615.637 682.794L612.75 669.504L614.939 663.388L619.008 659.375L625.608 658.607L629.712 660.483L633.143 664.777L636.565 675.836L642.027 680.244L655.579 675.46L667.666 676.341L683.654 668.709L687.948 669.441L693.558 675.225L706.484 701.972L710.473 705.038L717.115 705.916L723.904 702.765L754.042 676.632L772.949 668.199L785.634 657.446L798.893 656.958L808.185 652.766L814.805 652.201L829.899 656.374L846.808 645.826L858.642 641.838L846.552 620.978L833.15 602.113L831.563 597.797L837.325 573.246L836.267 553.005L843.296 543.191L845.466 536.432L841.257 498.151L844.499 480.245L843.7 475.644L825.043 471.049L808.497 474.905L797.829 470.917L794.36 464.097L795.609 448.602L798.304 440.133L793.079 434.506L784.13 431.804L743.129 428.906L734.48 423.911L720.328 390.761L718.106 374.292L712.314 360.402L709.396 346.189L697.575 336.284L696.77 327.158L698.347 316.58L683.752 314.296L674.241 317.026L674.524 317.414Z" fill="white"/>
</mask>
<g mask="url(#mask1_346_6319)">
<path d="M889.5 298.046L327.335 283.444L310.172 944.218L872.337 958.82L889.5 298.046Z" fill="url(#paint0_radial_346_6319)"/>
<path d="M-877.725 -70.7238L-879.488 -69.0498L387.221 1265.22L388.985 1263.54L-877.725 -70.7238Z" fill="#D4D4D4"/>
<path d="M-852.045 -70.09L-853.808 -68.416L412.901 1265.85L414.665 1264.18L-852.045 -70.09Z" fill="#D4D4D4"/>
<path d="M-826.398 -69.3897L-828.161 -67.7158L438.548 1266.55L440.311 1264.88L-826.398 -69.3897Z" fill="#D4D4D4"/>
<path d="M-800.723 -68.7178L-802.487 -67.0439L464.223 1267.22L465.986 1265.55L-800.723 -68.7178Z" fill="#D4D4D4"/>
<path d="M-775.044 -68.083L-776.807 -66.4092L489.902 1267.86L491.665 1266.19L-775.044 -68.083Z" fill="#D4D4D4"/>
<path d="M-749.397 -67.383L-751.161 -65.709L515.549 1268.56L517.312 1266.89L-749.397 -67.383Z" fill="#D4D4D4"/>
<path d="M-723.718 -66.7502L-725.481 -65.0762L541.228 1269.19L542.992 1267.52L-723.718 -66.7502Z" fill="#D4D4D4"/>
<path d="M-698.043 -66.0762L-699.806 -64.4023L566.904 1269.87L568.667 1268.19L-698.043 -66.0762Z" fill="#D4D4D4"/>
<path d="M-672.392 -65.417L-674.155 -63.7432L592.554 1270.52L594.317 1268.85L-672.392 -65.417Z" fill="#D4D4D4"/>
<path d="M-646.717 -64.7432L-648.48 -63.0693L618.229 1271.2L619.992 1269.52L-646.717 -64.7432Z" fill="#D4D4D4"/>
<path d="M-621.041 -64.0703L-622.804 -62.3965L643.906 1271.87L645.669 1270.2L-621.041 -64.0703Z" fill="#D4D4D4"/>
<path d="M-595.39 -63.4094L-597.153 -61.7354L669.556 1272.53L671.32 1270.86L-595.39 -63.4094Z" fill="#D4D4D4"/>
<path d="M-569.687 -62.7072L-571.45 -61.0332L695.259 1273.23L697.022 1271.56L-569.687 -62.7072Z" fill="#D4D4D4"/>
<path d="M-544.008 -62.0742L-545.771 -60.4004L720.938 1273.87L722.701 1272.19L-544.008 -62.0742Z" fill="#D4D4D4"/>
<path d="M-518.362 -61.374L-520.125 -59.7002L746.584 1274.57L748.347 1272.89L-518.362 -61.374Z" fill="#D4D4D4"/>
<path d="M-492.682 -60.7402L-494.445 -59.0664L772.264 1275.2L774.028 1273.53L-492.682 -60.7402Z" fill="#D4D4D4"/>
<path d="M-467.007 -60.0674L-468.771 -58.3936L797.939 1275.87L799.702 1274.2L-467.007 -60.0674Z" fill="#D4D4D4"/>
<path d="M-441.36 -59.3664L-443.124 -57.6924L823.586 1276.58L825.349 1274.9L-441.36 -59.3664Z" fill="#D4D4D4"/>
<path d="M-415.681 -58.7336L-417.444 -57.0596L849.265 1277.21L851.028 1275.53L-415.681 -58.7336Z" fill="#D4D4D4"/>
<path d="M-390.005 -58.0596L-391.769 -56.3857L874.941 1277.88L876.704 1276.21L-390.005 -58.0596Z" fill="#D4D4D4"/>
<path d="M-364.395 -57.4033L-366.158 -55.7295L900.552 1278.54L902.315 1276.86L-364.395 -57.4033Z" fill="#D4D4D4"/>
<path d="M-338.72 -56.7305L-340.483 -55.0566L926.226 1279.21L927.989 1277.54L-338.72 -56.7305Z" fill="#D4D4D4"/>
<path d="M-313.039 -56.0967L-314.802 -54.4229L951.907 1279.85L953.67 1278.17L-313.039 -56.0967Z" fill="#D4D4D4"/>
</g>
<path d="M628.491 909.485L629.579 913.994L646.849 932.189L647.831 930.722L648.508 930.346L628.506 909.326L628.491 909.485Z" fill="#D4D4D4"/>
<path d="M608.758 865.669L660.824 920.519L661.406 919.454L661.789 917.97L609.541 862.942L608.758 865.669ZM602.025 857.815L605.284 860.571L608.011 861.353L600.012 852.938L602.025 857.815Z" fill="#D4D4D4"/>
<path d="M637.452 869.548L665.776 899.376L664.233 894.183L640.998 869.729L637.416 869.505L637.452 869.548ZM591.673 820.107L591.423 821.044L624.331 855.676L624.148 854.657L624.392 852.118L590.756 816.736L591.681 820.027L591.673 820.107ZM588.125 814.12L588.387 814.306L588.096 813.998L588.164 814.124L588.125 814.12ZM483.107 706.977L483.011 706.728L482.705 706.578L483.107 706.977ZM438.966 658.414L441.224 662.835L480.419 704.117L482.005 703.868L487.999 708.568L488.039 708.572L439.609 657.555L439.006 658.418L438.966 658.414ZM435.456 655.354L437.113 656.033L435.496 653.276L434.293 652.039L435.417 655.35L435.456 655.354Z" fill="#D4D4D4"/>
<path d="M402.454 592.965L402.077 595.211L538.133 738.528L542.173 741.478L542.856 743.546L559.11 760.642L561.697 759.97L565.749 764.884L567.146 769.102L625.901 831.001L626.178 827.704L590.471 790.121L587.521 788.316L583.875 783.762L583.889 783.203L403.079 592.704L402.454 592.965Z" fill="#D4D4D4"/>
<path d="M623.257 801.839L644.346 824.045L645.632 823.167L646.769 822.996L624.119 799.119L623.261 801.799L623.257 801.839ZM407.329 572.212L409.911 576.184L409.062 576.263L582.64 759.099L582.953 755.846L407.846 571.421L407.329 572.212ZM403.43 569.876L405.639 571.89L406.357 571.078L407.515 571.109L402.932 566.305L403.386 569.912L403.43 569.876Z" fill="#D4D4D4"/>
<path d="M629.487 782.018L668.208 822.814L670.386 821.822L670.48 821.671L630.341 779.378L629.483 782.058L629.487 782.018ZM387.171 524.913L387.589 527.235L574.439 724.039L576.205 722.327L387.973 524.069L387.207 524.956L387.171 524.913Z" fill="#D4D4D4"/>
<path d="M638.621 765.278L676.507 805.193L676.742 804.414L674.454 799.47L641.112 764.356L638.582 765.274L638.621 765.278ZM398.5 511.586L398.762 512.612L591.681 715.845L594.502 715.235L399.107 509.442L398.496 511.625L398.5 511.586ZM396.182 509.882L397.563 511.336L398.199 508.474L397.251 507.502L396.178 509.921L396.182 509.882Z" fill="#D4D4D4"/>
<path d="M662.644 760.7L660.301 761.756L673.971 776.162L674.61 773.26L662.684 760.704L662.644 760.7ZM404.344 488.685L403.095 490.847L606.416 705.009L607.193 703.162L607.525 702.633L404.352 488.606L404.344 488.685Z" fill="#D4D4D4"/>
<path d="M403.909 465.301L615.515 688.227L615.792 684.93L403.891 461.736L403.909 465.301Z" fill="#D4D4D4"/>
<path d="M388.672 420.516L393.116 427.189L392.978 427.376L616.296 662.597L618.022 660.881L388.707 419.318L388.712 420.52L388.672 420.516ZM375.597 409.09L380.869 414.641L382.93 414.439L382.031 415.874L382.139 416.005L385.614 416.098L376.741 406.758L375.593 409.13L375.597 409.09Z" fill="#D4D4D4"/>
<path d="M364.149 370.715L654.258 676.295L655.914 675.733L657.187 675.815L364.131 367.149L364.149 370.715Z" fill="#D4D4D4"/>
<path d="M706.775 702.28L708.827 703.838L706.207 701.104L706.775 702.28ZM383.101 364.327L675.973 672.815L678.281 671.715L385.775 363.583L383.101 364.327Z" fill="#D4D4D4"/>
<path d="M727.291 700.447L729.129 698.822L512.103 470.211L508.195 469.635L727.256 700.404L727.291 700.447ZM448.384 406.634L501.903 463.025L502.574 460.207L451.015 405.925L448.34 406.669L448.384 406.634ZM436.131 393.725L441.551 399.411L441.206 395.494L440.37 394.613L436.583 393.608L436.135 393.685L436.131 393.725Z" fill="#D4D4D4"/>
<path d="M528.199 464.35L741.008 688.512L742.846 686.887L530.073 462.769L528.199 464.35ZM468.098 401.041L488.096 422.1L489.133 419.638L470.772 400.297L468.098 401.041Z" fill="#D4D4D4"/>
<path d="M754.832 676.748L757.215 675.696L554.588 462.242L549.513 460.473L754.832 676.748Z" fill="#D4D4D4"/>
<path d="M568.574 454.175L772.4 668.906L773.279 668.51L774.457 667.502L570.01 452.151L568.574 454.175Z" fill="#D4D4D4"/>
<path d="M580.694 440.566L786.849 657.723L790.104 657.595L582.711 439.159L580.694 440.566Z" fill="#D4D4D4"/>
<path d="M595.574 429.865L807.802 653.41L808.515 653.079L810.691 652.927L597.555 428.414L595.574 429.865Z" fill="#D4D4D4"/>
<path d="M609.512 418.151L833.845 654.471L835.934 653.15L611.238 416.435L609.512 418.151Z" fill="#D4D4D4"/>
<path d="M623.079 406.121L850.072 645.179L852.595 644.34L625.136 404.717L623.079 406.121Z" fill="#D4D4D4"/>
<path d="M642.568 397.904L640.905 398.545L832.773 600.635L831.851 598.144L832.249 596.501L643.073 397.231L642.572 397.864L642.568 397.904ZM625.692 380.187L627.865 382.157L629.837 383.307L625.548 378.771L625.696 380.147L625.692 380.187Z" fill="#D4D4D4"/>
<path d="M636.481 367.491L836.527 578.215L837.202 575.357L638.828 366.395L636.481 367.491Z" fill="#D4D4D4"/>
<path d="M653.87 359.431L837.156 552.49L838.592 550.465L656.178 358.332L653.87 359.431Z" fill="#D4D4D4"/>
<path d="M745.36 429.44L845.529 534.956L845.073 530.949L748.938 429.704L745.32 429.436L745.36 429.44ZM670.967 351.104L730.124 413.402L727.383 406.933L672.482 349.088L671.007 351.108L670.967 351.104Z" fill="#D4D4D4"/>
<path d="M812.999 474.296L842.271 505.095L841.815 501.087L815.785 473.643L812.999 474.296ZM772.207 431.299L795.331 455.662L795.647 452.369L775.829 431.527L772.211 431.259L772.207 431.299ZM672.682 324.083L674.404 328.252L718.433 374.643L715.799 368.304L672.932 323.146L672.686 324.043L672.682 324.083Z" fill="#D4D4D4"/>
<path d="M844.678 481.303L844.743 480.629L844.226 477.256L842.772 475.715L838.354 474.61L844.682 481.264L844.678 481.303ZM697.318 326.05L697.773 322.97L690.865 315.7L686.92 315.081L697.318 326.05Z" fill="#D4D4D4"/>
<mask id="mask2_346_6319" style="mask-type:luminance" maskUnits="userSpaceOnUse" x="364" y="314" width="495" height="626">
<path d="M674.524 317.414L672.678 324.123L675.729 331.543L675.948 340.933L673.776 347.291L670.552 351.666L635.895 367.754L625.231 375.819L625.692 380.187L627.865 382.158L643.219 391.12L644.26 395.704L642.571 397.864L625.912 404.151L618.63 409.097L603.325 424.203L575.619 444.203L562.098 463.243L557.379 463.19L537.785 456.263L523.981 467.829L517.121 470.893L503.3 468.885L501.545 464.232L504.262 453.042L503.109 446.285L497.174 440.55L485.683 436.803L484.012 434.601L483.892 432.107L492.134 412.159L491.562 402.695L488.556 398.562L474.69 399.112L444.068 407.781L442.074 406.028L441.115 394.765L436.545 393.565L422.256 396.436L417.768 395.645L412.978 391.741L403.333 379.604L396.419 374.055L390.463 363.954L388.084 362.884L379.039 365.338L364.111 366.106L364.105 373.673L366.795 380.257L367.471 380.723L368.4 381.893L368.546 385.791L373.254 393.05L375.281 391.122L375.948 393.349L377.803 404.457L375.506 409.201L379.528 415.674L380.306 414.667L382.891 414.435L381.905 415.942L388.576 416.103L388.601 420.429L393.044 427.102L391.486 429.154L388.029 428.462L388.599 427.115L384.79 420.503L381.052 418.983L392.92 440.063L394.206 439.185L396.904 439.444L394.253 442.032L397.569 446.275L398.556 451.415L403.787 460.726L403.82 471.219L402.266 477.396L404.303 479.113L405.249 479.684L405.746 477.009L409.138 477.135L408.114 481.121L405.669 481.566L404.348 483.642L404.273 488.599L397.391 500.63L398.221 504.914L395.76 510.523L397.405 511.322L399.241 503.05L400.165 505.101L398.35 511.493L398.99 513.996L395.459 513.657L394.693 521.631L392.383 521.089L390.981 523.597L389.522 521.695L392.642 516.309L388.647 517.047L386.871 519.278L388.228 523.493L387.059 524.822L388.016 530.279L397.139 542.847L401.061 552.032L403.319 569.786L405.528 571.8L406.247 570.988L407.964 571.033L407.215 572.162L409.796 576.134L407.172 576.362L407.882 578.552L407.455 580.913L410.925 583.969L408.765 589.367L404.92 591.881L402.374 592.957L401.998 595.203L405.493 602.586L407.853 604.695L410.106 617.083L414.861 620.102L418.517 627.06L417.943 630.528L421.396 636.265L425.132 636.544L427.513 638.854L426.667 642.657L432.497 647.821L434.109 647.296L436.034 647.681L435.164 648.398L436.68 649.705L435.667 650.248L433.112 648.922L435.263 655.294L436.919 655.974L435.234 653.089L435.731 651.255L439.874 653.975L440.306 656.139L438.733 658.35L443.28 667.275L447.439 673.16L450.342 672.959L451.414 676.385L448.566 674.35L447.865 675.403L450.692 679.318L452.658 681.349L455.463 680.497L454.845 683.601L457.911 685.858L456.164 687.371L461.132 693.174L475.823 704.875L483.496 708.775L482.746 706.581L478.366 704.239L481.699 703.718L487.694 708.418L489.886 708.108L489.749 706.613L495.255 705.981L500.002 707.839L501.387 712.176L505.517 716.697L512.167 716.655L511.658 720.289L513.562 720.472L517.028 726.491L525.629 729.479L541.911 741.293L543.038 744.565L541.728 748.203L545.478 750.004L546.199 755.839L550.272 758.032L551.412 762.426L555.292 764.961L556.169 764.164L552.959 762.574L552.498 760.288L555.405 761.288L561.435 759.785L565.491 764.659L568.529 773.88L567.383 779.976L564.445 777.211L565.198 780.206L573.154 786.576L579.709 788.367L583.178 792.264L581.528 800.273L582.76 806.197L581.841 807.43L586.368 809.907L587.906 813.898L590.261 815.646L591.455 819.885L590.235 824.252L593.255 831.989L602.039 835.996L602.486 840.924L598.495 849.549L601.766 857.591L605.064 860.35L609.586 861.625L605.584 875.775L610.491 882.212L610.918 886.937L613.961 889.432L620.526 889.862L622.282 893.675L626.3 896.863L625.762 900.375L628.096 902.761L628.5 906.884L628.275 909.225L629.703 915.208L631.775 917.809L631.253 920.321L632.589 922.251L633.921 922.98L632.799 926.315L633.819 927.374L635.349 925.199L636.404 926.301L637.283 927.987L637.146 929.416L639.837 933.078L640.622 934.074L641.659 939.539L647.612 930.501L658.087 924.821L661.187 919.233L666.052 900.682L658.06 873.849L652.009 870.145L632.497 869.031L628.359 867.513L625.499 863.114L623.93 854.435L626.121 825.377L631.711 830.959L633.884 830.848L645.374 822.943L651.906 822.049L665.685 823.653L670.166 821.601L672.478 817.539L676.519 804.234L670.488 791.163L674.816 771.119L674.323 766.667L669.058 761.037L662.386 760.475L657.944 762.531L655.61 763.908L642.181 763.659L637.702 765.271L630.387 778.061L622.207 804.021L615.676 806.997L608.128 806.792L603.587 803.633L597.809 794.59L587.219 788.127L583.533 783.569L584.653 770.664L582.304 759.268L583.617 743.939L580.891 739.393L570.332 735.936L568.452 733.834L568.052 729.671L580.019 718.049L602.664 713.218L606.935 702.938L615.096 689.668L615.637 682.794L612.75 669.504L614.939 663.388L619.008 659.375L625.608 658.607L629.712 660.483L633.143 664.777L636.565 675.836L642.027 680.244L655.579 675.46L667.666 676.341L683.654 668.709L687.948 669.441L693.558 675.225L706.484 701.972L710.473 705.038L717.115 705.916L723.904 702.765L754.042 676.632L772.949 668.199L785.634 657.446L798.893 656.958L808.185 652.766L814.805 652.201L829.899 656.374L846.808 645.826L858.642 641.838L846.552 620.978L833.15 602.113L831.563 597.797L837.325 573.246L836.267 553.005L843.296 543.191L845.466 536.432L841.257 498.151L844.499 480.245L843.7 475.644L825.043 471.049L808.497 474.905L797.829 470.917L794.36 464.097L795.609 448.602L798.304 440.133L793.079 434.506L784.13 431.804L743.129 428.906L734.48 423.911L720.328 390.761L718.106 374.292L712.314 360.402L709.396 346.189L697.575 336.284L696.77 327.158L698.347 316.58L683.752 314.296L674.241 317.026L674.524 317.414Z" fill="white"/>
</mask>
<g mask="url(#mask2_346_6319)">
<path d="M379.996 -38.0606L378.233 -36.3867L1644.94 1297.88L1646.71 1296.21L379.996 -38.0606Z" fill="#D4D4D4"/>
<path d="M405.675 -37.4277L403.912 -35.7539L1670.62 1298.51L1672.38 1296.84L405.675 -37.4277Z" fill="#D4D4D4"/>
<path d="M431.322 -36.7266L429.559 -35.0527L1696.27 1299.22L1698.03 1297.54L431.322 -36.7266Z" fill="#D4D4D4"/>
<path d="M456.998 -36.0539L455.234 -34.3799L1721.94 1299.89L1723.71 1298.21L456.998 -36.0539Z" fill="#D4D4D4"/>
<path d="M482.677 -35.4211L480.914 -33.7471L1747.62 1300.52L1749.39 1298.85L482.677 -35.4211Z" fill="#D4D4D4"/>
<path d="M508.324 -34.7197L506.561 -33.0459L1773.27 1301.22L1775.03 1299.55L508.324 -34.7197Z" fill="#D4D4D4"/>
<path d="M534.002 -34.0869L532.239 -32.4131L1798.95 1301.86L1800.71 1300.18L534.002 -34.0869Z" fill="#D4D4D4"/>
<path d="M559.679 -33.4131L557.916 -31.7393L1824.62 1302.53L1826.39 1300.86L559.679 -33.4131Z" fill="#D4D4D4"/>
<path d="M585.33 -32.752L583.566 -31.0781L1850.28 1303.19L1852.04 1301.52L585.33 -32.752Z" fill="#D4D4D4"/>
<path d="M611.004 -32.0802L609.241 -30.4062L1875.95 1303.86L1877.71 1302.19L611.004 -32.0802Z" fill="#D4D4D4"/>
<path d="M636.68 -31.4064L634.917 -29.7324L1901.63 1304.54L1903.39 1302.86L636.68 -31.4064Z" fill="#D4D4D4"/>
<path d="M662.33 -30.7461L660.566 -29.0723L1927.28 1305.2L1929.04 1303.52L662.33 -30.7461Z" fill="#D4D4D4"/>
<path d="M688.006 -30.0742L686.243 -28.4004L1952.95 1305.87L1954.72 1304.19L688.006 -30.0742Z" fill="#D4D4D4"/>
<path d="M713.711 -29.4111L711.948 -27.7373L1978.66 1306.53L1980.42 1304.86L713.711 -29.4111Z" fill="#D4D4D4"/>
<path d="M739.359 -28.7111L737.596 -27.0371L2004.31 1307.23L2006.07 1305.56L739.359 -28.7111Z" fill="#D4D4D4"/>
<path d="M765.038 -28.0773L763.274 -26.4033L2029.98 1307.86L2031.75 1306.19L765.038 -28.0773Z" fill="#D4D4D4"/>
<path d="M790.713 -27.4043L788.95 -25.7305L2055.66 1308.54L2057.42 1306.86L790.713 -27.4043Z" fill="#D4D4D4"/>
<path d="M816.322 -26.708L814.559 -25.0342L2081.27 1309.23L2083.03 1307.56L816.322 -26.708Z" fill="#D4D4D4"/>
<path d="M841.999 -26.0742L840.236 -24.4004L2106.95 1309.87L2108.71 1308.19L841.999 -26.0742Z" fill="#D4D4D4"/>
<path d="M-877.706 -71.208L-879.469 -69.5342L387.24 1264.73L389.003 1263.06L-877.706 -71.208Z" fill="black"/>
<path d="M-852.03 -70.5342L-853.793 -68.8604L412.916 1265.41L414.679 1263.73L-852.03 -70.5342Z" fill="black"/>
<path d="M-826.38 -69.874L-828.143 -68.2002L438.566 1266.07L440.329 1264.39L-826.38 -69.874Z" fill="black"/>
<path d="M-800.705 -69.2002L-802.468 -67.5264L464.241 1266.74L466.005 1265.07L-800.705 -69.2002Z" fill="black"/>
<path d="M-775.026 -68.5674L-776.789 -66.8936L489.92 1267.37L491.684 1265.7L-775.026 -68.5674Z" fill="black"/>
<path d="M-749.379 -67.8664L-751.142 -66.1924L515.567 1268.08L517.33 1266.4L-749.379 -67.8664Z" fill="black"/>
<path d="M-723.699 -67.2334L-725.462 -65.5596L541.247 1268.71L543.01 1267.03L-723.699 -67.2334Z" fill="black"/>
<path d="M-698.024 -66.5615L-699.787 -64.8877L566.923 1269.38L568.686 1267.71L-698.024 -66.5615Z" fill="black"/>
<path d="M-672.377 -65.8604L-674.14 -64.1865L592.569 1270.08L594.332 1268.41L-672.377 -65.8604Z" fill="black"/>
<path d="M-646.698 -65.2275L-648.461 -63.5537L618.248 1270.71L620.011 1269.04L-646.698 -65.2275Z" fill="black"/>
<path d="M-621.023 -64.5537L-622.786 -62.8799L643.924 1271.39L645.687 1269.71L-621.023 -64.5537Z" fill="black"/>
<path d="M-595.372 -63.8937L-597.136 -62.2197L669.573 1272.05L671.337 1270.37L-595.372 -63.8937Z" fill="black"/>
<path d="M-569.696 -63.2207L-571.459 -61.5469L695.25 1272.72L697.013 1271.05L-569.696 -63.2207Z" fill="black"/>
<path d="M-544.016 -62.5859L-545.779 -60.9121L720.93 1273.36L722.693 1271.68L-544.016 -62.5859Z" fill="black"/>
<path d="M-518.371 -61.8867L-520.134 -60.2129L746.575 1274.06L748.339 1272.38L-518.371 -61.8867Z" fill="black"/>
<path d="M-492.695 -61.2139L-494.458 -59.54L772.251 1274.73L774.014 1273.05L-492.695 -61.2139Z" fill="black"/>
<path d="M-466.989 -60.5508L-468.752 -58.877L797.957 1275.39L799.72 1273.72L-466.989 -60.5508Z" fill="black"/>
<path d="M-441.341 -59.8506L-443.104 -58.1768L823.605 1276.09L825.368 1274.42L-441.341 -59.8506Z" fill="black"/>
<path d="M-415.662 -59.2168L-417.425 -57.543L849.284 1276.73L851.047 1275.05L-415.662 -59.2168Z" fill="black"/>
<path d="M-390.026 -58.5479L-391.79 -56.874L874.92 1277.39L876.683 1275.72L-390.026 -58.5479Z" fill="black"/>
<path d="M-364.347 -57.9141L-366.11 -56.2402L900.599 1278.03L902.362 1276.35L-364.347 -57.9141Z" fill="black"/>
<path d="M-338.701 -57.2139L-340.464 -55.54L926.245 1278.73L928.008 1277.05L-338.701 -57.2139Z" fill="black"/>
<path d="M-313.025 -56.5412L-314.788 -54.8672L951.921 1279.4L953.684 1277.73L-313.025 -56.5412Z" fill="black"/>
</g>
<path d="M628.491 909.485L629.406 913.297L647.039 931.887L647.832 930.722L648.805 930.175L628.552 908.851L628.491 909.485Z" fill="black"/>
<path d="M608.874 865.281L661.016 920.179L661.409 919.416L661.909 917.542L609.661 862.514L608.878 865.242L608.874 865.281ZM602.064 857.82L605.323 860.576L608.674 861.538L599.654 852.063L602.025 857.817L602.064 857.82Z" fill="black"/>
<path d="M637.973 869.557L665.569 898.634L664.026 893.441L641.519 869.738L637.938 869.514L637.973 869.557ZM591.679 820.066L591.507 820.61L624.195 855.021L624.111 854.652L624.321 851.63L590.509 815.99L591.643 820.023L591.679 820.066ZM588.13 814.08L590.035 815.504L587.782 813.125L588.17 814.084L588.13 814.08ZM582.065 807.611L583.055 808.147L582.29 807.353L582.105 807.615L582.065 807.611ZM438.968 658.413L440.651 661.737L480.829 704.035L481.967 703.864L487.962 708.564L488.409 708.487L439.761 657.248L438.928 658.409L438.968 658.413ZM435.458 655.353L437.115 656.033L435.426 653.188L435.54 652.838L434.05 651.254L435.458 655.353Z" fill="black"/>
<path d="M402.453 592.965L402.119 594.775L539.667 739.637L542.173 741.479L542.61 742.762L559.482 760.519L561.697 759.971L565.749 764.884L566.9 768.318L625.947 830.526L626.18 827.265L604.218 804.135L603.884 803.862L603.641 803.479L591.603 790.831L587.521 788.317L583.874 783.762L583.934 782.727L403.411 592.577L402.453 592.965Z" fill="black"/>
<path d="M623.375 801.45L644.647 823.833L645.632 823.167L647.174 822.955L624.233 798.77L623.375 801.45ZM407.334 572.173L409.915 576.144L409.511 576.185L582.687 758.623L582.999 755.37L408.036 571.119L407.29 572.209L407.334 572.173ZM403.442 569.757L403.916 570.243L405.683 571.854L406.401 571.042L408.079 571.083L402.954 565.666L403.482 569.761L403.442 569.757Z" fill="black"/>
<path d="M629.6 781.669L668.541 822.686L670.385 821.822L670.63 821.365L630.415 779.024L629.557 781.705L629.6 781.669ZM387.171 524.912L387.491 526.584L574.667 723.74L576.434 722.028L388.166 523.726L387.175 524.872L387.171 524.912Z" fill="black"/>
<path d="M638.994 765.154L676.661 804.848L676.778 804.458L674.023 798.548L641.482 764.272L638.951 765.19L638.994 765.154ZM398.501 511.586L398.589 511.915L592.094 715.725L594.915 715.115L399.229 509.014L398.501 511.586ZM396.336 509.536L397.646 510.904L398.281 508.042L397.409 507.117L396.336 509.536Z" fill="black"/>
<path d="M662.644 760.701L660.633 761.629L674.049 775.77L674.688 772.868L663.16 760.75L662.605 760.697L662.644 760.701ZM404.344 488.686L403.285 490.546L606.569 704.664L607.193 703.163L607.714 702.332L404.358 488.127L404.301 488.722L404.344 488.686Z" fill="black"/>
<path d="M403.879 464.779L615.561 687.751L615.798 684.451L403.897 461.257L403.879 464.779Z" fill="black"/>
<path d="M388.672 420.516L392.797 426.758L616.477 662.374L618.204 660.658L388.634 418.83L388.633 420.512L388.672 420.516ZM375.746 408.784L381.309 414.643L382.962 414.522L382.253 415.655L382.651 416.094L386.125 416.187L376.927 406.495L375.778 408.867L375.746 408.784Z" fill="black"/>
<path d="M364.158 370.195L654.63 676.17L655.913 675.733L657.698 675.905L364.141 366.63L364.158 370.195Z" fill="black"/>
<path d="M706.775 702.279L710.577 705.207L705.703 700.094L706.775 702.279ZM383.473 364.202L676.31 672.647L678.617 671.547L413.448 392.266L412.927 391.856L412.321 391.077L386.143 363.498L383.469 364.242L383.473 364.202Z" fill="black"/>
<path d="M727.551 700.232L729.389 698.606L512.653 470.304L508.745 469.728L727.515 700.188L727.551 700.232ZM448.751 406.549L501.979 462.632L502.651 459.813L451.385 405.801L448.712 406.545L448.751 406.549ZM436.534 393.684L441.476 398.923L441.132 395.006L440.988 394.832L436.574 393.687L436.534 393.684Z" fill="black"/>
<path d="M528.46 464.136L741.269 688.298L743.107 686.673L530.334 462.554L528.46 464.136ZM468.471 400.917L488.249 421.756L489.287 419.293L471.141 400.213L468.467 400.957L468.471 400.917Z" fill="black"/>
<path d="M755.168 676.581L757.551 675.528L555.322 462.513L550.211 460.7L755.168 676.581Z" fill="black"/>
<path d="M568.764 453.875L772.737 668.74L773.28 668.512L774.722 667.249L570.24 451.854L568.764 453.875Z" fill="black"/>
<path d="M580.989 440.394L787.292 657.685L790.583 657.601L583.01 438.947L580.989 440.394Z" fill="black"/>
<path d="M595.836 429.649L808.136 653.282L808.515 653.078L811.136 652.889L597.857 428.202L595.836 429.649Z" fill="black"/>
<path d="M609.734 417.932L834.143 654.299L836.236 652.939L611.5 416.22L609.734 417.932Z" fill="black"/>
<path d="M623.379 405.91L850.404 645.051L852.967 644.216L625.436 404.506L623.379 405.91Z" fill="black"/>
<path d="M642.568 397.903L641.237 398.416L832.452 599.803L831.85 598.144L832.326 596.108L643.298 396.972L642.568 397.903ZM625.692 380.186L627.865 382.157L630.898 383.93L625.482 378.204L625.696 380.147L625.692 380.186Z" fill="black"/>
<path d="M636.817 367.323L836.609 577.782L837.28 574.964L639.165 366.227L636.817 367.323Z" fill="black"/>
<path d="M654.168 359.259L837.346 552.187L838.821 550.167L656.515 358.164L654.168 359.259Z" fill="black"/>
<path d="M745.879 429.451L845.502 534.394L845.046 530.387L749.493 429.758L745.875 429.491L745.879 429.451ZM671.199 350.767L729.736 412.445L726.994 405.976L672.675 348.747L671.199 350.767Z" fill="black"/>
<path d="M813.368 474.211L842.162 504.564L841.706 500.557L816.11 473.594L813.364 474.251L813.368 474.211ZM772.683 431.345L795.333 455.222L795.65 451.929L776.301 431.612L772.683 431.345ZM672.642 324.079L674.008 327.374L718.037 373.764L715.403 367.425L673.01 322.753L672.646 324.04L672.642 324.079Z" fill="black"/>
<path d="M844.719 480.866L844.742 480.628L844.084 476.641L843.355 475.891L838.937 474.786L844.719 480.866ZM697.319 325.609L697.775 322.53L691.376 315.789L687.392 315.166L697.319 325.609Z" fill="black"/>
<mask id="mask3_346_6319" style="mask-type:luminance" maskUnits="userSpaceOnUse" x="364" y="314" width="495" height="626">
<path d="M674.524 317.414L672.678 324.123L675.729 331.543L675.948 340.933L673.776 347.291L670.552 351.666L635.895 367.754L625.231 375.819L625.692 380.187L627.865 382.158L643.219 391.12L644.26 395.704L642.571 397.864L625.912 404.151L618.63 409.097L603.325 424.203L575.619 444.203L562.098 463.243L557.379 463.19L537.785 456.263L523.981 467.829L517.121 470.893L503.3 468.885L501.545 464.232L504.262 453.042L503.109 446.285L497.174 440.55L485.683 436.803L484.012 434.601L483.892 432.107L492.134 412.159L491.562 402.695L488.556 398.562L474.69 399.112L444.068 407.781L442.074 406.028L441.115 394.765L436.545 393.565L422.256 396.436L417.768 395.645L412.978 391.741L403.333 379.604L396.419 374.055L390.463 363.954L388.084 362.884L379.039 365.338L364.111 366.106L364.105 373.673L366.795 380.257L367.471 380.723L368.4 381.893L368.546 385.791L373.254 393.05L375.281 391.122L375.948 393.349L377.803 404.457L375.506 409.201L379.528 415.674L380.306 414.667L382.891 414.435L381.905 415.942L388.576 416.103L388.601 420.429L393.044 427.102L391.486 429.154L388.029 428.462L388.599 427.115L384.79 420.503L381.052 418.983L392.92 440.063L394.206 439.185L396.904 439.444L394.253 442.032L397.569 446.275L398.556 451.415L403.787 460.726L403.82 471.219L402.266 477.396L404.303 479.113L405.249 479.684L405.746 477.009L409.138 477.135L408.114 481.121L405.669 481.566L404.348 483.642L404.273 488.599L397.391 500.63L398.221 504.914L395.76 510.523L397.405 511.322L399.241 503.05L400.165 505.101L398.35 511.493L398.99 513.996L395.459 513.657L394.693 521.631L392.383 521.089L390.981 523.597L389.522 521.695L392.642 516.309L388.647 517.047L386.871 519.278L388.228 523.493L387.059 524.822L388.016 530.279L397.139 542.847L401.061 552.032L403.319 569.786L405.528 571.8L406.247 570.988L407.964 571.033L407.215 572.162L409.796 576.134L407.172 576.362L407.882 578.552L407.455 580.913L410.925 583.969L408.765 589.367L404.92 591.881L402.374 592.957L401.998 595.203L405.493 602.586L407.853 604.695L410.106 617.083L414.861 620.102L418.517 627.06L417.943 630.528L421.396 636.265L425.132 636.544L427.513 638.854L426.667 642.657L432.497 647.821L434.109 647.296L436.034 647.681L435.164 648.398L436.68 649.705L435.667 650.248L433.112 648.922L435.263 655.294L436.919 655.974L435.234 653.089L435.731 651.255L439.874 653.975L440.306 656.139L438.733 658.35L443.28 667.275L447.439 673.16L450.342 672.959L451.414 676.385L448.566 674.35L447.865 675.403L450.692 679.318L452.658 681.349L455.463 680.497L454.845 683.601L457.911 685.858L456.164 687.371L461.132 693.174L475.823 704.875L483.496 708.775L482.746 706.581L478.366 704.239L481.699 703.718L487.694 708.418L489.886 708.108L489.749 706.613L495.255 705.981L500.002 707.839L501.387 712.176L505.517 716.697L512.167 716.655L511.658 720.289L513.562 720.472L517.028 726.491L525.629 729.479L541.911 741.293L543.038 744.565L541.728 748.203L545.478 750.004L546.199 755.839L550.272 758.032L551.412 762.426L555.292 764.961L556.169 764.164L552.959 762.574L552.498 760.288L555.405 761.288L561.435 759.785L565.491 764.659L568.529 773.88L567.383 779.976L564.445 777.211L565.198 780.206L573.154 786.576L579.709 788.367L583.178 792.264L581.528 800.273L582.76 806.197L581.841 807.43L586.368 809.907L587.906 813.898L590.261 815.646L591.455 819.885L590.235 824.252L593.255 831.989L602.039 835.996L602.486 840.924L598.495 849.549L601.766 857.591L605.064 860.35L609.586 861.625L605.584 875.775L610.491 882.212L610.918 886.937L613.961 889.432L620.526 889.862L622.282 893.675L626.3 896.863L625.762 900.375L628.096 902.761L628.5 906.884L628.275 909.225L629.703 915.208L631.775 917.809L631.253 920.321L632.589 922.251L633.921 922.98L632.799 926.315L633.819 927.374L635.349 925.199L636.404 926.301L637.283 927.987L637.146 929.416L639.837 933.078L640.622 934.074L641.659 939.539L647.612 930.501L658.087 924.821L661.187 919.233L666.052 900.682L658.06 873.849L652.009 870.145L632.497 869.031L628.359 867.513L625.499 863.114L623.93 854.435L626.121 825.377L631.711 830.959L633.884 830.848L645.374 822.943L651.906 822.049L665.685 823.653L670.166 821.601L672.478 817.539L676.519 804.234L670.488 791.163L674.816 771.119L674.323 766.667L669.058 761.037L662.386 760.475L657.944 762.531L655.61 763.908L642.181 763.659L637.702 765.271L630.387 778.061L622.207 804.021L615.676 806.997L608.128 806.792L603.587 803.633L597.809 794.59L587.219 788.127L583.533 783.569L584.653 770.664L582.304 759.268L583.617 743.939L580.891 739.393L570.332 735.936L568.452 733.834L568.052 729.671L580.019 718.049L602.664 713.218L606.935 702.938L615.096 689.668L615.637 682.794L612.75 669.504L614.939 663.388L619.008 659.375L625.608 658.607L629.712 660.483L633.143 664.777L636.565 675.836L642.027 680.244L655.579 675.46L667.666 676.341L683.654 668.709L687.948 669.441L693.558 675.225L706.484 701.972L710.473 705.038L717.115 705.916L723.904 702.765L754.042 676.632L772.949 668.199L785.634 657.446L798.893 656.958L808.185 652.766L814.805 652.201L829.899 656.374L846.808 645.826L858.642 641.838L846.552 620.978L833.15 602.113L831.563 597.797L837.325 573.246L836.267 553.005L843.296 543.191L845.466 536.432L841.257 498.151L844.499 480.245L843.7 475.644L825.043 471.049L808.497 474.905L797.829 470.917L794.36 464.097L795.609 448.602L798.304 440.133L793.079 434.506L784.13 431.804L743.129 428.906L734.48 423.911L720.328 390.761L718.106 374.292L712.314 360.402L709.396 346.189L697.575 336.284L696.77 327.158L698.347 316.58L683.752 314.296L674.241 317.026L674.524 317.414Z" fill="white"/>
</mask>
<g mask="url(#mask3_346_6319)">
<path d="M380.014 -38.543L378.251 -36.8691L1644.96 1297.4L1646.72 1295.73L380.014 -38.543Z" fill="black"/>
<path d="M405.69 -37.8701L403.927 -36.1963L1670.64 1298.07L1672.4 1296.4L405.69 -37.8701Z" fill="black"/>
<path d="M431.341 -37.2092L429.578 -35.5352L1696.29 1298.73L1698.05 1297.06L431.341 -37.2092Z" fill="black"/>
<path d="M457.016 -36.5363L455.252 -34.8623L1721.96 1299.41L1723.72 1297.73L457.016 -36.5363Z" fill="black"/>
<path d="M482.694 -35.9033L480.931 -34.2295L1747.64 1300.04L1749.4 1298.36L482.694 -35.9033Z" fill="black"/>
<path d="M508.341 -35.2022L506.578 -33.5283L1773.29 1300.74L1775.05 1299.07L508.341 -35.2022Z" fill="black"/>
<path d="M534.019 -34.5693L532.256 -32.8955L1798.97 1301.37L1800.73 1299.7L534.019 -34.5693Z" fill="black"/>
<path d="M559.697 -33.8965L557.934 -32.2227L1824.64 1302.05L1826.41 1300.37L559.697 -33.8965Z" fill="black"/>
<path d="M585.341 -33.1955L583.578 -31.5215L1850.29 1302.75L1852.05 1301.07L585.341 -33.1955Z" fill="black"/>
<path d="M611.021 -32.5625L609.258 -30.8887L1875.97 1303.38L1877.73 1301.71L611.021 -32.5625Z" fill="black"/>
<path d="M636.697 -31.8897L634.934 -30.2158L1901.64 1304.05L1903.41 1302.38L636.697 -31.8897Z" fill="black"/>
<path d="M662.348 -31.2295L660.584 -29.5557L1927.29 1304.71L1929.06 1303.04L662.348 -31.2295Z" fill="black"/>
<path d="M688.024 -30.5557L686.261 -28.8818L1952.97 1305.39L1954.73 1303.71L688.024 -30.5557Z" fill="black"/>
<path d="M713.699 -29.8828L711.936 -28.209L1978.64 1306.06L1980.41 1304.39L713.699 -29.8828Z" fill="black"/>
<path d="M739.349 -29.2228L737.586 -27.5488L2004.3 1306.72L2006.06 1305.05L739.349 -29.2228Z" fill="black"/>
<path d="M765.025 -28.5488L763.262 -26.875L2029.97 1307.39L2031.73 1305.72L765.025 -28.5488Z" fill="black"/>
<path d="M790.663 -27.9199L788.9 -26.2461L2055.61 1308.02L2057.37 1306.35L790.663 -27.9199Z" fill="black"/>
<path d="M816.339 -27.1895L814.576 -25.5156L2081.28 1308.75L2083.05 1307.08L816.339 -27.1895Z" fill="black"/>
<path d="M842.017 -26.5566L840.254 -24.8828L2106.96 1309.39L2108.73 1307.71L842.017 -26.5566Z" fill="black"/>
</g>
<path d="M363.174 365.855L363.539 365.81M698.633 316.927L697.056 327.505L697.861 336.631L709.682 346.536L712.601 360.749L718.393 374.639L720.614 391.108L734.766 424.258L743.419 429.213L784.42 432.112L793.369 434.813L798.594 440.44L795.899 448.91L794.65 464.405L798.159 471.228L808.826 475.216L825.372 471.36L844.029 475.955L844.828 480.557L841.547 498.459L845.757 536.74L843.586 543.498L836.557 553.313L837.655 573.558L831.893 598.108L833.48 602.425L846.882 621.289L858.972 642.15L847.177 646.141L830.269 656.689L815.175 652.516L808.594 653.085L799.263 657.273L786.003 657.761L773.319 668.514L754.411 676.947L724.274 703.08L717.485 706.231L710.843 705.353L706.853 702.287L693.928 675.54L688.318 669.756L684.024 669.024L668.036 676.656L655.949 675.775L642.396 680.559L636.934 676.151L633.513 665.092L630.081 660.798L625.977 658.922L619.377 659.69L615.308 663.703L613.119 669.819L616.006 683.109L615.466 689.983L607.304 703.253L603.037 713.493L580.392 718.324L568.425 729.947L568.826 734.109L570.706 736.212L581.264 739.668L583.951 744.211L582.638 759.539L584.986 770.936L583.867 783.841L587.549 788.439L598.139 794.901L603.917 803.945L608.458 807.103L616.005 807.308L622.537 804.332L630.717 778.372L638.031 765.582L642.511 763.97L655.939 764.22L658.278 762.803L662.719 760.747L669.392 761.308L674.617 766.935L675.11 771.387L670.782 791.43L676.813 804.502L672.772 817.807L670.46 821.869L665.979 823.921L652.2 822.317L645.668 823.211L634.178 831.115L632.005 831.227L626.415 825.645L624.224 854.703L625.793 863.382L628.653 867.78L632.791 869.299L652.303 870.413L658.357 874.078L666.349 900.911L661.484 919.461L658.385 925.049L647.91 930.729L641.957 939.767L640.92 934.302L640.174 933.309L637.483 929.648L637.621 928.219L636.702 926.53L635.647 925.427L634.117 927.602L633.097 926.544L634.218 923.208L632.887 922.479L631.551 920.549L632.073 918.037L630 915.436L628.573 909.453L628.798 907.112L628.393 902.989L626.06 900.603L626.598 897.091L622.58 893.903L620.824 890.09L614.259 889.66L611.255 887.169L610.829 882.444L605.922 876.007L609.924 861.857L605.402 860.582L602.143 857.826L598.872 849.785L602.864 841.159L602.416 836.232L593.632 832.225L590.612 824.487L591.832 820.12L590.638 815.882L588.283 814.134L586.745 810.142L582.218 807.666L583.138 806.433L581.905 800.509L583.556 792.499L580.086 788.602L573.532 786.812L565.575 780.442L564.822 777.447L567.799 780.215L568.945 774.119L565.908 764.899L561.852 760.025L555.821 761.527L552.915 760.527L553.376 762.814L556.586 764.404L555.709 765.2L551.828 762.665L550.689 758.272L546.616 756.079L545.895 750.244L542.144 748.442L543.455 744.804L542.328 741.533L526.046 729.719L517.444 726.73L513.979 720.712L512.075 720.529L512.584 716.894L505.933 716.936L501.803 712.415L500.418 708.078L495.672 706.221L490.166 706.853L490.303 708.347L488.111 708.657L482.116 703.958L478.787 704.438L483.166 706.781L483.92 708.935L476.247 705.035L461.556 693.334L456.588 687.531L458.335 686.018L455.269 683.761L455.887 680.658L453.083 681.509L451.076 679.475L448.249 675.56L448.951 674.506L451.799 676.541L450.726 673.115L447.824 673.316L443.665 667.432L439.117 658.507L440.691 656.295L440.258 654.132L436.115 651.412L435.619 653.246L437.304 656.13L435.647 655.451L433.497 649.078L436.052 650.404L437.065 649.861L435.549 648.554L436.419 647.837L434.494 647.452L432.882 647.978L427.052 642.813L427.898 639.011L425.517 636.7L421.78 636.421L418.328 630.684L418.861 627.212L415.206 620.255L410.451 617.235L408.198 604.847L405.838 602.739L402.343 595.356L402.719 593.11L405.265 592.033L409.07 589.516L411.27 584.122L407.8 581.066L408.227 578.705L407.517 576.514L410.141 576.286L407.56 572.315L408.309 571.185L406.592 571.14L405.873 571.952L403.664 569.938L401.406 552.184L397.484 542.999L388.361 530.431L387.404 524.974L388.573 523.645L387.176 519.427L388.952 517.195L392.947 516.458L389.827 521.844L391.286 523.746L392.688 521.238L394.998 521.78L395.764 513.806L399.331 514.189L398.691 511.685L400.466 505.289L399.542 503.238L397.707 511.51L396.022 510.708L398.483 505.098L397.657 500.775L404.538 488.744L404.614 483.786L405.935 481.711L408.38 481.265L409.403 477.28L406.012 477.154L405.515 479.829L404.569 479.258L402.532 477.541L404.086 471.364L404.053 460.871L398.822 451.559L397.834 446.42L394.518 442.177L397.165 439.629L394.468 439.37L393.186 440.208L381.278 419.124L385.016 420.644L388.825 427.257L388.255 428.603L391.712 429.296L393.231 427.239L388.787 420.566L388.762 416.24L382.091 416.079L383.077 414.573L380.492 414.805L379.715 415.811L375.692 409.339L377.99 404.595L376.174 393.49L375.507 391.264L373.48 393.191L368.772 385.932L368.626 382.034L367.697 380.864L367.061 380.402L364.371 373.818L364.377 366.251L379.305 365.483L388.349 363.029L390.689 364.095L396.645 374.196L403.559 379.745L413.204 391.882L417.994 395.786L422.482 396.578L436.771 393.706L441.341 394.906L442.3 406.169L444.294 407.922L474.916 399.253L488.782 398.703L491.788 402.836L492.36 412.3L484.114 432.288L484.235 434.782L485.905 436.984L497.396 440.73L503.335 446.426L504.448 453.179L501.731 464.369L503.487 469.022L517.307 471.031L524.168 467.966L537.971 456.4L557.562 463.367L562.281 463.42L575.802 444.38L603.548 424.383L618.852 409.278L626.134 404.332L642.793 398.045L644.482 395.885L643.441 391.301L628.087 382.338L625.914 380.368L625.453 375.999L636.117 367.935L670.735 351.843L673.958 347.468L676.134 341.07L675.915 331.68L672.864 324.26L674.71 317.551L684.225 314.782L698.82 317.065L698.633 316.927Z" stroke="#00AFA9" stroke-width="1.29971" stroke-linecap="round" stroke-linejoin="round"/>
</g>
</g>
</g>
<circle cx="439.161" cy="651.979" r="34.7421" fill="#CDDC29" fill-opacity="0.2"/>
<circle cx="439.161" cy="651.981" r="35.034" fill="#CDDC29"/>
<path d="M254.905 702.915C254.239 702.915 253.656 702.86 253.156 702.748C252.656 702.665 252.212 702.54 251.823 702.374V699.207C252.267 699.319 252.739 699.416 253.239 699.499C253.739 699.582 254.267 699.624 254.822 699.624C255.516 699.624 256.169 699.485 256.78 699.207C257.419 698.93 257.933 698.444 258.321 697.749C258.71 697.055 258.905 696.083 258.905 694.833V665.256H262.654V694.542C262.654 696.458 262.334 698.027 261.696 699.249C261.057 700.499 260.154 701.415 258.988 701.999C257.822 702.61 256.461 702.915 254.905 702.915ZM278.627 672.255C280.544 672.255 282.182 672.671 283.543 673.504C284.932 674.337 285.987 675.518 286.709 677.045C287.459 678.545 287.834 680.309 287.834 682.336V684.544H272.545C272.601 687.071 273.239 689.001 274.461 690.334C275.711 691.64 277.447 692.292 279.669 692.292C281.085 692.292 282.335 692.167 283.418 691.917C284.529 691.64 285.667 691.251 286.834 690.751V693.959C285.695 694.458 284.57 694.819 283.46 695.042C282.349 695.292 281.03 695.417 279.502 695.417C277.391 695.417 275.517 694.986 273.878 694.125C272.267 693.264 271.004 691.987 270.087 690.293C269.199 688.571 268.754 686.474 268.754 684.002C268.754 681.558 269.157 679.461 269.962 677.712C270.795 675.962 271.948 674.615 273.42 673.671C274.92 672.727 276.655 672.255 278.627 672.255ZM278.586 675.254C276.836 675.254 275.447 675.823 274.42 676.962C273.42 678.073 272.823 679.628 272.628 681.628H284.001C284.001 680.35 283.807 679.239 283.418 678.295C283.029 677.351 282.432 676.615 281.627 676.087C280.849 675.532 279.835 675.254 278.586 675.254ZM301.433 695.417C298.656 695.417 296.434 694.458 294.768 692.542C293.102 690.598 292.268 687.71 292.268 683.877C292.268 680.045 293.102 677.156 294.768 675.212C296.462 673.24 298.698 672.255 301.475 672.255C302.641 672.255 303.655 672.407 304.516 672.713C305.377 672.991 306.127 673.379 306.765 673.879C307.404 674.379 307.946 674.935 308.39 675.546H308.64C308.612 675.185 308.557 674.657 308.473 673.963C308.418 673.24 308.39 672.671 308.39 672.255V663.34H312.056V695H309.098L308.557 692.001H308.39C307.946 692.639 307.404 693.223 306.765 693.75C306.127 694.25 305.363 694.653 304.474 694.958C303.613 695.264 302.6 695.417 301.433 695.417ZM302.016 692.376C304.377 692.376 306.029 691.737 306.974 690.459C307.946 689.154 308.432 687.196 308.432 684.585V683.919C308.432 681.142 307.974 679.017 307.057 677.545C306.141 676.045 304.446 675.296 301.975 675.296C300.003 675.296 298.517 676.087 297.517 677.67C296.545 679.225 296.059 681.322 296.059 683.961C296.059 686.627 296.545 688.696 297.517 690.168C298.517 691.64 300.017 692.376 302.016 692.376ZM327.063 695.417C324.286 695.417 322.064 694.458 320.397 692.542C318.731 690.598 317.898 687.71 317.898 683.877C317.898 680.045 318.731 677.156 320.397 675.212C322.092 673.24 324.327 672.255 327.104 672.255C328.271 672.255 329.285 672.407 330.145 672.713C331.006 672.991 331.756 673.379 332.395 673.879C333.034 674.379 333.575 674.935 334.02 675.546H334.27C334.242 675.185 334.186 674.657 334.103 673.963C334.047 673.24 334.02 672.671 334.02 672.255V663.34H337.686V695H334.728L334.186 692.001H334.02C333.575 692.639 333.034 693.223 332.395 693.75C331.756 694.25 330.993 694.653 330.104 694.958C329.243 695.264 328.229 695.417 327.063 695.417ZM327.646 692.376C330.007 692.376 331.659 691.737 332.603 690.459C333.575 689.154 334.061 687.196 334.061 684.585V683.919C334.061 681.142 333.603 679.017 332.687 677.545C331.77 676.045 330.076 675.296 327.604 675.296C325.633 675.296 324.147 676.087 323.147 677.67C322.175 679.225 321.689 681.322 321.689 683.961C321.689 686.627 322.175 688.696 323.147 690.168C324.147 691.64 325.646 692.376 327.646 692.376ZM353.234 672.296C355.956 672.296 357.969 672.893 359.274 674.088C360.58 675.282 361.232 677.184 361.232 679.795V695H358.566L357.858 691.834H357.691C357.053 692.639 356.386 693.32 355.692 693.875C355.025 694.403 354.248 694.792 353.359 695.042C352.498 695.292 351.443 695.417 350.193 695.417C348.86 695.417 347.652 695.181 346.569 694.708C345.513 694.236 344.68 693.514 344.069 692.542C343.458 691.542 343.153 690.293 343.153 688.793C343.153 686.571 344.027 684.863 345.777 683.669C347.527 682.447 350.221 681.78 353.859 681.669L357.65 681.544V680.211C357.65 678.351 357.247 677.059 356.442 676.337C355.636 675.615 354.498 675.254 353.026 675.254C351.859 675.254 350.748 675.434 349.693 675.796C348.638 676.129 347.652 676.518 346.735 676.962L345.61 674.213C346.583 673.685 347.735 673.24 349.068 672.879C350.401 672.491 351.79 672.296 353.234 672.296ZM354.317 684.211C351.54 684.322 349.61 684.766 348.527 685.544C347.471 686.321 346.944 687.418 346.944 688.835C346.944 690.084 347.318 691.001 348.068 691.584C348.846 692.167 349.832 692.459 351.026 692.459C352.915 692.459 354.484 691.945 355.733 690.917C356.983 689.862 357.608 688.251 357.608 686.085V684.086L354.317 684.211ZM371.795 672.63C371.795 673.157 371.767 673.699 371.711 674.254C371.684 674.81 371.642 675.31 371.586 675.754H371.836C372.308 674.976 372.906 674.337 373.628 673.838C374.35 673.338 375.155 672.963 376.044 672.713C376.933 672.435 377.849 672.296 378.793 672.296C380.598 672.296 382.098 672.588 383.292 673.171C384.514 673.727 385.431 674.601 386.042 675.796C386.653 676.99 386.958 678.545 386.958 680.461V695H383.334V680.711C383.334 678.906 382.931 677.559 382.126 676.67C381.321 675.782 380.057 675.337 378.335 675.337C376.669 675.337 375.363 675.657 374.419 676.295C373.475 676.906 372.794 677.823 372.378 679.045C371.989 680.239 371.795 681.711 371.795 683.461V695H368.129V663.34H371.795V672.63ZM258.414 739H247.666V736.834L251.166 736.042V712.255L247.666 711.422V709.256H258.414V711.422L254.915 712.255V736.042L258.414 736.834V739ZM278.196 732.835C278.196 734.279 277.835 735.487 277.113 736.459C276.391 737.431 275.364 738.167 274.03 738.667C272.697 739.167 271.114 739.417 269.281 739.417C267.726 739.417 266.379 739.292 265.241 739.042C264.13 738.792 263.144 738.445 262.283 738V734.668C263.172 735.112 264.241 735.528 265.491 735.917C266.768 736.278 268.059 736.459 269.365 736.459C271.226 736.459 272.572 736.167 273.406 735.584C274.239 734.973 274.655 734.168 274.655 733.168C274.655 732.612 274.503 732.112 274.197 731.668C273.892 731.224 273.336 730.779 272.531 730.335C271.753 729.891 270.628 729.391 269.156 728.835C267.712 728.28 266.476 727.724 265.449 727.169C264.421 726.614 263.63 725.947 263.074 725.169C262.519 724.392 262.241 723.392 262.241 722.17C262.241 720.282 263.005 718.824 264.532 717.796C266.088 716.768 268.115 716.255 270.615 716.255C271.975 716.255 273.239 716.393 274.405 716.671C275.6 716.921 276.711 717.282 277.738 717.754L276.488 720.67C275.877 720.393 275.225 720.157 274.53 719.962C273.864 719.74 273.183 719.573 272.489 719.462C271.795 719.323 271.087 719.254 270.365 719.254C268.865 719.254 267.712 719.504 266.907 720.004C266.129 720.476 265.74 721.129 265.74 721.962C265.74 722.573 265.921 723.1 266.282 723.545C266.643 723.961 267.24 724.378 268.073 724.795C268.934 725.183 270.073 725.655 271.489 726.211C272.906 726.739 274.114 727.28 275.114 727.836C276.113 728.391 276.877 729.071 277.405 729.877C277.932 730.654 278.196 731.64 278.196 732.835ZM287.258 739H283.592V707.34H287.258V739ZM302.788 716.296C305.51 716.296 307.524 716.893 308.829 718.088C310.134 719.282 310.787 721.184 310.787 723.795V739H308.121L307.412 735.834H307.246C306.607 736.639 305.941 737.32 305.246 737.875C304.58 738.403 303.802 738.792 302.913 739.042C302.052 739.292 300.997 739.417 299.747 739.417C298.414 739.417 297.206 739.181 296.123 738.708C295.068 738.236 294.235 737.514 293.624 736.542C293.013 735.542 292.707 734.293 292.707 732.793C292.707 730.571 293.582 728.863 295.332 727.669C297.081 726.447 299.775 725.78 303.413 725.669L307.204 725.544V724.211C307.204 722.351 306.801 721.059 305.996 720.337C305.191 719.615 304.052 719.254 302.58 719.254C301.414 719.254 300.303 719.434 299.247 719.796C298.192 720.129 297.206 720.518 296.29 720.962L295.165 718.213C296.137 717.685 297.289 717.24 298.623 716.879C299.956 716.491 301.344 716.296 302.788 716.296ZM303.871 728.211C301.094 728.322 299.164 728.766 298.081 729.544C297.026 730.321 296.498 731.418 296.498 732.835C296.498 734.084 296.873 735.001 297.623 735.584C298.4 736.167 299.386 736.459 300.58 736.459C302.469 736.459 304.038 735.945 305.288 734.917C306.538 733.862 307.162 732.251 307.162 730.085V728.086L303.871 728.211ZM342.178 716.255C344.706 716.255 346.594 716.907 347.844 718.213C349.094 719.49 349.718 721.573 349.718 724.461V739H346.094V724.628C346.094 722.878 345.719 721.559 344.969 720.67C344.247 719.782 343.109 719.337 341.553 719.337C339.387 719.337 337.832 719.962 336.888 721.212C335.971 722.462 335.513 724.281 335.513 726.669V739H331.889V724.628C331.889 723.461 331.722 722.489 331.389 721.712C331.055 720.906 330.556 720.309 329.889 719.921C329.223 719.532 328.362 719.337 327.306 719.337C325.807 719.337 324.626 719.657 323.765 720.295C322.904 720.906 322.279 721.809 321.891 723.003C321.53 724.197 321.349 725.669 321.349 727.419V739H317.683V716.671H320.641L321.182 719.712H321.391C321.863 718.935 322.432 718.296 323.099 717.796C323.793 717.268 324.557 716.879 325.39 716.63C326.223 716.38 327.084 716.255 327.973 716.255C329.695 716.255 331.125 716.56 332.264 717.171C333.43 717.782 334.277 718.726 334.805 720.004H335.013C335.763 718.726 336.777 717.782 338.054 717.171C339.359 716.56 340.734 716.255 342.178 716.255ZM360.282 716.671V739H356.616V716.671H360.282ZM358.49 708.298C359.046 708.298 359.532 708.492 359.948 708.881C360.393 709.242 360.615 709.825 360.615 710.631C360.615 711.408 360.393 711.992 359.948 712.38C359.532 712.769 359.046 712.964 358.49 712.964C357.879 712.964 357.366 712.769 356.949 712.38C356.532 711.992 356.324 711.408 356.324 710.631C356.324 709.825 356.532 709.242 356.949 708.881C357.366 708.492 357.879 708.298 358.49 708.298ZM376.312 739.417C374.34 739.417 372.577 739.014 371.022 738.208C369.494 737.403 368.286 736.153 367.397 734.459C366.537 732.765 366.106 730.599 366.106 727.961C366.106 725.211 366.564 722.975 367.481 721.254C368.397 719.532 369.633 718.268 371.188 717.463C372.771 716.657 374.563 716.255 376.562 716.255C377.701 716.255 378.798 716.38 379.853 716.63C380.909 716.852 381.77 717.129 382.436 717.463L381.311 720.504C380.645 720.254 379.867 720.018 378.978 719.796C378.09 719.573 377.257 719.462 376.479 719.462C374.979 719.462 373.743 719.782 372.771 720.42C371.799 721.059 371.077 722.003 370.605 723.253C370.133 724.503 369.897 726.058 369.897 727.919C369.897 729.696 370.133 731.21 370.605 732.46C371.077 733.709 371.785 734.654 372.73 735.292C373.674 735.931 374.854 736.251 376.271 736.251C377.493 736.251 378.562 736.126 379.478 735.876C380.423 735.626 381.284 735.32 382.061 734.959V738.208C381.311 738.597 380.478 738.889 379.562 739.083C378.673 739.305 377.59 739.417 376.312 739.417ZM404.817 709.256C408.705 709.256 411.538 710.02 413.315 711.547C415.092 713.075 415.981 715.227 415.981 718.004C415.981 719.226 415.773 720.407 415.356 721.545C414.967 722.656 414.315 723.656 413.398 724.545C412.482 725.433 411.26 726.141 409.732 726.669C408.205 727.169 406.33 727.419 404.108 727.419H400.693V739H396.943V709.256H404.817ZM404.483 712.464H400.693V724.211H403.692C405.58 724.211 407.15 724.017 408.399 723.628C409.649 723.212 410.579 722.559 411.19 721.67C411.801 720.781 412.107 719.615 412.107 718.171C412.107 716.255 411.496 714.824 410.274 713.88C409.052 712.936 407.122 712.464 404.483 712.464ZM441.079 727.794C441.079 729.655 440.829 731.307 440.329 732.751C439.857 734.168 439.163 735.376 438.246 736.376C437.357 737.375 436.26 738.139 434.955 738.667C433.678 739.167 432.247 739.417 430.664 739.417C429.192 739.417 427.832 739.167 426.582 738.667C425.332 738.139 424.249 737.375 423.332 736.376C422.416 735.376 421.694 734.168 421.166 732.751C420.666 731.307 420.416 729.655 420.416 727.794C420.416 725.322 420.833 723.239 421.666 721.545C422.499 719.823 423.694 718.518 425.249 717.629C426.804 716.713 428.651 716.255 430.789 716.255C432.817 716.255 434.594 716.713 436.122 717.629C437.677 718.518 438.885 719.823 439.746 721.545C440.635 723.239 441.079 725.322 441.079 727.794ZM424.207 727.794C424.207 729.544 424.429 731.071 424.874 732.376C425.346 733.654 426.068 734.64 427.04 735.334C428.012 736.028 429.248 736.376 430.748 736.376C432.247 736.376 433.483 736.028 434.455 735.334C435.427 734.64 436.135 733.654 436.58 732.376C437.052 731.071 437.288 729.544 437.288 727.794C437.288 726.017 437.052 724.503 436.58 723.253C436.108 722.003 435.386 721.045 434.414 720.379C433.469 719.684 432.233 719.337 430.706 719.337C428.429 719.337 426.776 720.087 425.749 721.587C424.721 723.087 424.207 725.156 424.207 727.794ZM457.304 716.255C457.72 716.255 458.164 716.282 458.637 716.338C459.136 716.366 459.567 716.421 459.928 716.505L459.47 719.879C459.109 719.796 458.706 719.726 458.262 719.671C457.845 719.615 457.442 719.587 457.054 719.587C456.193 719.587 455.373 719.768 454.596 720.129C453.818 720.49 453.124 721.004 452.513 721.67C451.902 722.309 451.416 723.087 451.055 724.003C450.721 724.919 450.555 725.947 450.555 727.086V739H446.889V716.671H449.888L450.305 720.754H450.472C450.944 719.921 451.513 719.171 452.18 718.504C452.846 717.81 453.61 717.268 454.471 716.879C455.332 716.463 456.276 716.255 457.304 716.255ZM471.554 736.417C472.11 736.417 472.679 736.376 473.262 736.292C473.845 736.181 474.318 736.07 474.679 735.959V738.75C474.29 738.944 473.734 739.097 473.012 739.208C472.29 739.347 471.596 739.417 470.929 739.417C469.763 739.417 468.68 739.222 467.68 738.833C466.708 738.417 465.916 737.709 465.305 736.709C464.694 735.709 464.389 734.306 464.389 732.501V719.504H461.223V717.754L464.431 716.296L465.889 711.547H468.055V716.671H474.512V719.504H468.055V732.418C468.055 733.779 468.374 734.793 469.013 735.459C469.68 736.098 470.527 736.417 471.554 736.417Z" fill="white"/>
<defs>
<radialGradient id="paint0_radial_346_6319" cx="0" cy="0" r="1" gradientUnits="userSpaceOnUse" gradientTransform="translate(632.537 676.691) rotate(1.48789) scale(928.065 928.065)">
<stop stop-color="white"/>
<stop offset="0.53" stop-color="white"/>
<stop offset="0.68" stop-color="#FCFCFC"/>
<stop offset="0.76" stop-color="#F5F5F5"/>
<stop offset="0.82" stop-color="#E8E8E8"/>
<stop offset="0.87" stop-color="#D5D6D7"/>
<stop offset="0.91" stop-color="#BDBEBF"/>
<stop offset="0.95" stop-color="#A0A1A3"/>
<stop offset="0.98" stop-color="#7E7F81"/>
<stop offset="1" stop-color="#6D6E71"/>
</radialGradient>
</defs>
</svg>
