<svg width="1033" height="1080" viewBox="0 0 1033 1080" fill="none" xmlns="http://www.w3.org/2000/svg">
<path d="M2086.93 437.443L1819.58 418.32L1552.82 113.509L1527.32 -12.6057L1463.36 -49.4556L1369.53 -196.889L1169.51 -253.27L997.971 -266.615L583.783 -583.98L468.236 -610.279L251.676 -552.701L343.518 -433.961L139.512 -299.291L19.7749 -274.181L49.2666 -176.959L243.311 236.232L368.021 369.314L409.66 469.721L404.081 608.781L552.304 764.97L801.341 1162.63L849.549 1050.27L1290.83 1093.29L1368.13 973.365L1470.94 919.171L1775.75 866.182L2092.51 736.883L2148.3 506.579L2086.93 437.443Z" fill="#EEEEEE" fill-opacity="0.09"/>
<g opacity="0.5">
<g opacity="0.33">
<mask id="mask0_346_6319" style="mask-type:luminance" maskUnits="userSpaceOnUse" x="265" y="232" width="687" height="760">
<path d="M951.029 292.008L332.616 232.594L265.452 931.661L883.865 991.075L951.029 292.008Z" fill="white"/>
</mask>
<g mask="url(#mask0_346_6319)">
<path d="M698.633 316.927L697.056 327.505L697.861 336.631L709.682 346.536L712.601 360.749L718.393 374.639L720.614 391.108L734.766 424.258L743.419 429.213L784.42 432.112L793.369 434.813L798.594 440.44L795.899 448.91L794.65 464.405L798.159 471.228L808.826 475.216L825.372 471.36L844.029 475.955L844.828 480.557L841.547 498.459L845.757 536.74L843.586 543.498L836.557 553.313L837.655 573.558L831.893 598.108L833.48 602.425L846.882 621.289L858.972 642.15L847.177 646.141L830.269 656.689L815.175 652.516L808.594 653.085L799.263 657.273L786.003 657.761L773.319 668.514L754.411 676.947L724.274 703.08L717.485 706.231L710.843 705.353L706.853 702.287L693.928 675.54L688.318 669.756L684.024 669.024L668.036 676.656L655.949 675.775L642.396 680.559L636.934 676.151L633.513 665.092L630.081 660.798L625.977 658.922L619.377 659.69L615.308 663.703L613.119 669.819L616.006 683.109L615.466 689.983L607.304 703.253L603.037 713.493L580.392 718.324L568.425 729.947L568.826 734.109L570.706 736.212L581.264 739.668L583.951 744.211L582.638 759.539L584.986 770.936L583.867 783.841L587.549 788.439L598.139 794.901L603.916 803.945L608.458 807.103L616.005 807.308L622.537 804.332L630.717 778.372L638.031 765.582L642.511 763.97L655.939 764.22L658.278 762.803L662.719 760.747L669.392 761.308L674.617 766.935L675.11 771.387L670.782 791.43L676.813 804.502L672.772 817.807L670.46 821.869L665.979 823.921L652.2 822.317L645.668 823.211L634.178 831.115L632.005 831.227L626.415 825.645L624.224 854.703L625.793 863.382L628.653 867.78L632.791 869.299L652.303 870.413L658.357 874.078L666.349 900.911L661.484 919.461L658.385 925.049L647.91 930.729L641.957 939.767L640.92 934.302L640.174 933.309L637.483 929.648L637.621 928.219L636.702 926.53L635.647 925.427L634.117 927.602L633.097 926.544L634.218 923.208L632.887 922.479L631.551 920.549L632.072 918.037L630 915.436L628.573 909.453L628.798 907.112L628.393 902.989L626.06 900.603L626.598 897.091L622.58 893.903L620.824 890.09L614.259 889.66L611.255 887.169L610.829 882.444L605.922 876.006L609.924 861.857L605.402 860.582L602.143 857.826L598.872 849.785L602.864 841.159L602.416 836.232L593.632 832.225L590.612 824.487L591.832 820.12L590.638 815.882L588.283 814.134L586.745 810.142L582.218 807.666L583.138 806.433L581.905 800.509L583.556 792.499L580.086 788.602L573.532 786.812L565.575 780.442L564.822 777.447L567.799 780.215L568.945 774.119L565.908 764.899L561.852 760.025L555.821 761.527L552.915 760.527L553.376 762.814L556.586 764.404L555.709 765.2L551.828 762.665L550.689 758.272L546.616 756.079L545.895 750.244L542.144 748.442L543.455 744.804L542.328 741.533L526.046 729.719L517.444 726.73L513.979 720.712L512.075 720.529L512.584 716.894L505.933 716.936L501.803 712.415L500.418 708.078L495.672 706.221L490.166 706.853L490.303 708.347L488.111 708.657L482.116 703.958L478.787 704.438L483.166 706.781L483.92 708.935L476.247 705.035L461.556 693.334L456.588 687.531L458.335 686.018L455.269 683.761L455.887 680.658L453.083 681.509L451.076 679.475L448.249 675.56L448.951 674.506L451.799 676.541L450.726 673.115L447.824 673.316L443.665 667.432L439.117 658.507L440.691 656.295L440.258 654.132L436.115 651.412L435.619 653.246L437.304 656.13L435.647 655.451L433.497 649.078L436.052 650.404L437.065 649.861L435.549 648.554L436.419 647.837L434.494 647.452L432.882 647.978L427.052 642.813L427.898 639.011L425.517 636.7L421.78 636.421L418.328 630.684L418.861 627.212L415.206 620.255L410.451 617.235L408.198 604.847L405.838 602.739L402.343 595.356L402.719 593.11L405.265 592.033L409.07 589.516L411.27 584.122L407.8 581.066L408.227 578.705L407.517 576.514L410.141 576.286L407.56 572.315L408.309 571.185L406.592 571.14L405.873 571.952L403.664 569.938L401.406 552.184L397.484 542.999L388.361 530.431L387.404 524.974L388.573 523.645L387.177 519.427L388.952 517.195L392.947 516.458L389.827 521.844L391.286 523.746L392.688 521.238L394.998 521.78L395.764 513.806L399.331 514.189L398.691 511.685L400.466 505.289L399.542 503.238L397.707 511.51L396.022 510.708L398.483 505.099L397.657 500.775L404.538 488.744L404.614 483.786L405.935 481.711L408.38 481.266L409.403 477.28L406.012 477.154L405.515 479.829L404.569 479.258L402.532 477.541L404.086 471.364L404.053 460.871L398.822 451.559L397.834 446.42L394.518 442.177L397.165 439.629L394.468 439.37L393.186 440.208L381.278 419.124L385.016 420.644L388.825 427.257L388.255 428.603L391.712 429.296L393.231 427.239L388.787 420.566L388.762 416.24L382.091 416.079L383.077 414.573L380.492 414.805L379.715 415.811L375.692 409.339L377.99 404.595L376.174 393.49L375.507 391.264L373.48 393.191L368.772 385.932L368.626 382.034L367.697 380.864L367.061 380.402L364.371 373.818L364.377 366.251L379.305 365.483L388.349 363.029L390.689 364.095L396.645 374.196L403.559 379.745L413.204 391.882L417.994 395.786L422.482 396.578L436.771 393.706L441.341 394.906L442.3 406.169L444.294 407.922L474.916 399.253L488.782 398.703L491.788 402.836L492.36 412.3L484.114 432.288L484.235 434.782L485.905 436.984L497.396 440.73L503.335 446.426L504.448 453.179L501.731 464.369L503.487 469.022L517.307 471.031L524.168 467.966L537.971 456.4L557.562 463.367L562.281 463.42L575.802 444.38L603.548 424.383L618.852 409.278L626.134 404.332L642.793 398.045L644.482 395.885L643.441 391.301L628.087 382.338L625.914 380.368L625.453 375.999L636.117 367.935L670.735 351.843L673.958 347.468L676.134 341.07L675.915 331.68L672.864 324.26L674.71 317.551L684.225 314.782L698.82 317.065L698.633 316.927Z" fill="#DEDCD9"/>
<mask id="mask1_346_6319" style="mask-type:luminance" maskUnits="userSpaceOnUse" x="364" y="314" width="495" height="626">
<path d="M674.524 317.414L672.678 324.123L675.729 331.543L675.948 340.933L673.776 347.291L670.552 351.666L635.895 367.754L625.231 375.819L625.692 380.187L627.865 382.158L643.219 391.12L644.26 395.704L642.571 397.864L625.912 404.151L618.63 409.097L603.325 424.203L575.619 444.203L562.098 463.243L557.379 463.19L537.785 456.263L523.981 467.829L517.121 470.893L503.3 468.885L501.545 464.232L504.262 453.042L503.109 446.285L497.174 440.55L485.683 436.803L484.012 434.601L483.892 432.107L492.134 412.159L491.562 402.695L488.556 398.562L474.69 399.112L444.068 407.781L442.074 406.028L441.115 394.765L436.545 393.565L422.256 396.436L417.768 395.645L412.978 391.741L403.333 379.604L396.419 374.055L390.463 363.954L388.084 362.884L379.039 365.338L364.111 366.106L364.105 373.673L366.795 380.257L367.471 380.723L368.4 381.893L368.546 385.791L373.254 393.05L375.281 391.122L375.948 393.349L377.803 404.457L375.506 409.201L379.528 415.674L380.306 414.667L382.891 414.435L381.905 415.942L388.576 416.103L388.601 420.429L393.044 427.102L391.486 429.154L388.029 428.462L388.599 427.115L384.79 420.503L381.052 418.983L392.92 440.063L394.206 439.185L396.904 439.444L394.253 442.032L397.569 446.275L398.556 451.415L403.787 460.726L403.82 471.219L402.266 477.396L404.303 479.113L405.249 479.684L405.746 477.009L409.138 477.135L408.114 481.121L405.669 481.566L404.348 483.642L404.273 488.599L397.391 500.63L398.221 504.914L395.76 510.523L397.405 511.322L399.241 503.05L400.165 505.101L398.35 511.493L398.99 513.996L395.459 513.657L394.693 521.631L392.383 521.089L390.981 523.597L389.522 521.695L392.642 516.309L388.647 517.047L386.871 519.278L388.228 523.493L387.059 524.822L388.016 530.279L397.139 542.847L401.061 552.032L403.319 569.786L405.528 571.8L406.247 570.988L407.964 571.033L407.215 572.162L409.796 576.134L407.172 576.362L407.882 578.552L407.455 580.913L410.925 583.969L408.765 589.367L404.92 591.881L402.374 592.957L401.998 595.203L405.493 602.586L407.853 604.695L410.106 617.083L414.861 620.102L418.517 627.06L417.943 630.528L421.396 636.265L425.132 636.544L427.513 638.854L426.667 642.657L432.497 647.821L434.109 647.296L436.034 647.681L435.164 648.398L436.68 649.705L435.667 650.248L433.112 648.922L435.263 655.294L436.919 655.974L435.234 653.089L435.731 651.255L439.874 653.975L440.306 656.139L438.733 658.35L443.28 667.275L447.439 673.16L450.342 672.959L451.414 676.385L448.566 674.35L447.865 675.403L450.692 679.318L452.658 681.349L455.463 680.497L454.845 683.601L457.911 685.858L456.164 687.371L461.132 693.174L475.823 704.875L483.496 708.775L482.746 706.581L478.366 704.239L481.699 703.718L487.694 708.418L489.886 708.108L489.749 706.613L495.255 705.981L500.002 707.839L501.387 712.176L505.517 716.697L512.167 716.655L511.658 720.289L513.562 720.472L517.028 726.491L525.629 729.479L541.911 741.293L543.038 744.565L541.728 748.203L545.478 750.004L546.199 755.839L550.272 758.032L551.412 762.426L555.292 764.961L556.169 764.164L552.959 762.574L552.498 760.288L555.405 761.288L561.435 759.785L565.491 764.659L568.529 773.88L567.383 779.976L564.445 777.211L565.198 780.206L573.154 786.576L579.709 788.367L583.178 792.264L581.528 800.273L582.76 806.197L581.841 807.43L586.368 809.907L587.906 813.898L590.261 815.646L591.455 819.885L590.235 824.252L593.255 831.989L602.039 835.996L602.486 840.924L598.495 849.549L601.766 857.591L605.064 860.35L609.586 861.625L605.584 875.775L610.491 882.212L610.918 886.937L613.961 889.432L620.526 889.862L622.282 893.675L626.3 896.863L625.762 900.375L628.096 902.761L628.5 906.884L628.275 909.225L629.703 915.208L631.775 917.809L631.253 920.321L632.589 922.251L633.921 922.98L632.799 926.315L633.819 927.374L635.349 925.199L636.404 926.301L637.283 927.987L637.146 929.416L639.837 933.078L640.622 934.074L641.659 939.539L647.612 930.501L658.087 924.821L661.187 919.233L666.052 900.682L658.06 873.849L652.009 870.145L632.497 869.031L628.359 867.513L625.499 863.114L623.93 854.435L626.121 825.377L631.711 830.959L633.884 830.848L645.374 822.943L651.906 822.049L665.685 823.653L670.166 821.601L672.478 817.539L676.519 804.234L670.488 791.163L674.816 771.119L674.323 766.667L669.058 761.037L662.386 760.475L657.944 762.531L655.61 763.908L642.181 763.659L637.702 765.271L630.387 778.061L622.207 804.021L615.676 806.997L608.128 806.792L603.587 803.633L597.809 794.59L587.219 788.127L583.533 783.569L584.653 770.664L582.304 759.268L583.617 743.939L580.891 739.393L570.332 735.936L568.452 733.834L568.052 729.671L580.019 718.049L602.664 713.218L606.935 702.938L615.096 689.668L615.637 682.794L612.75 669.504L614.939 663.388L619.008 659.375L625.608 658.607L629.712 660.483L633.143 664.777L636.565 675.836L642.027 680.244L655.579 675.46L667.666 676.341L683.654 668.709L687.948 669.441L693.558 675.225L706.484 701.972L710.473 705.038L717.115 705.916L723.904 702.765L754.042 676.632L772.949 668.199L785.634 657.446L798.893 656.958L808.185 652.766L814.805 652.201L829.899 656.374L846.808 645.826L858.642 641.838L846.552 620.978L833.15 602.113L831.563 597.797L837.325 573.246L836.267 553.005L843.296 543.191L845.466 536.432L841.257 498.151L844.499 480.245L843.7 475.644L825.043 471.049L808.497 474.905L797.829 470.917L794.36 464.097L795.609 448.602L798.304 440.133L793.079 434.506L784.13 431.804L743.129 428.906L734.48 423.911L720.328 390.761L718.106 374.292L712.314 360.402L709.396 346.189L697.575 336.284L696.77 327.158L698.347 316.58L683.752 314.296L674.241 317.026L674.524 317.414Z" fill="white"/>
</mask>
<g mask="url(#mask1_346_6319)">
<path d="M889.5 298.046L327.335 283.444L310.172 944.218L872.337 958.82L889.5 298.046Z" fill="url(#paint0_radial_346_6319)"/>
<path d="M-877.725 -70.7238L-879.488 -69.0498L387.221 1265.22L388.985 1263.54L-877.725 -70.7238Z" fill="#D4D4D4"/>
<path d="M-852.045 -70.09L-853.808 -68.416L412.901 1265.85L414.665 1264.18L-852.045 -70.09Z" fill="#D4D4D4"/>
<path d="M-826.398 -69.3897L-828.161 -67.7158L438.548 1266.55L440.311 1264.88L-826.398 -69.3897Z" fill="#D4D4D4"/>
<path d="M-800.723 -68.7178L-802.487 -67.0439L464.223 1267.22L465.986 1265.55L-800.723 -68.7178Z" fill="#D4D4D4"/>
<path d="M-775.044 -68.083L-776.807 -66.4092L489.902 1267.86L491.665 1266.19L-775.044 -68.083Z" fill="#D4D4D4"/>
<path d="M-749.397 -67.383L-751.161 -65.709L515.549 1268.56L517.312 1266.89L-749.397 -67.383Z" fill="#D4D4D4"/>
<path d="M-723.718 -66.7502L-725.481 -65.0762L541.228 1269.19L542.992 1267.52L-723.718 -66.7502Z" fill="#D4D4D4"/>
<path d="M-698.043 -66.0762L-699.806 -64.4023L566.904 1269.87L568.667 1268.19L-698.043 -66.0762Z" fill="#D4D4D4"/>
<path d="M-672.392 -65.417L-674.155 -63.7432L592.554 1270.52L594.317 1268.85L-672.392 -65.417Z" fill="#D4D4D4"/>
<path d="M-646.717 -64.7432L-648.48 -63.0693L618.229 1271.2L619.992 1269.52L-646.717 -64.7432Z" fill="#D4D4D4"/>
<path d="M-621.041 -64.0703L-622.804 -62.3965L643.906 1271.87L645.669 1270.2L-621.041 -64.0703Z" fill="#D4D4D4"/>
<path d="M-595.39 -63.4094L-597.153 -61.7354L669.556 1272.53L671.32 1270.86L-595.39 -63.4094Z" fill="#D4D4D4"/>
<path d="M-569.687 -62.7072L-571.45 -61.0332L695.259 1273.23L697.022 1271.56L-569.687 -62.7072Z" fill="#D4D4D4"/>
<path d="M-544.008 -62.0742L-545.771 -60.4004L720.938 1273.87L722.701 1272.19L-544.008 -62.0742Z" fill="#D4D4D4"/>
<path d="M-518.362 -61.374L-520.125 -59.7002L746.584 1274.57L748.347 1272.89L-518.362 -61.374Z" fill="#D4D4D4"/>
<path d="M-492.682 -60.7402L-494.445 -59.0664L772.264 1275.2L774.028 1273.53L-492.682 -60.7402Z" fill="#D4D4D4"/>
<path d="M-467.007 -60.0674L-468.771 -58.3936L797.939 1275.87L799.702 1274.2L-467.007 -60.0674Z" fill="#D4D4D4"/>
<path d="M-441.36 -59.3664L-443.124 -57.6924L823.586 1276.58L825.349 1274.9L-441.36 -59.3664Z" fill="#D4D4D4"/>
<path d="M-415.681 -58.7336L-417.444 -57.0596L849.265 1277.21L851.028 1275.53L-415.681 -58.7336Z" fill="#D4D4D4"/>
<path d="M-390.005 -58.0596L-391.769 -56.3857L874.941 1277.88L876.704 1276.21L-390.005 -58.0596Z" fill="#D4D4D4"/>
<path d="M-364.395 -57.4033L-366.158 -55.7295L900.552 1278.54L902.315 1276.86L-364.395 -57.4033Z" fill="#D4D4D4"/>
<path d="M-338.72 -56.7305L-340.483 -55.0566L926.226 1279.21L927.989 1277.54L-338.72 -56.7305Z" fill="#D4D4D4"/>
<path d="M-313.039 -56.0967L-314.802 -54.4229L951.907 1279.85L953.67 1278.17L-313.039 -56.0967Z" fill="#D4D4D4"/>
</g>
<path d="M628.491 909.485L629.579 913.994L646.849 932.189L647.831 930.722L648.508 930.346L628.506 909.326L628.491 909.485Z" fill="#D4D4D4"/>
<path d="M608.758 865.669L660.824 920.519L661.406 919.454L661.789 917.97L609.541 862.942L608.758 865.669ZM602.025 857.815L605.284 860.571L608.011 861.353L600.012 852.938L602.025 857.815Z" fill="#D4D4D4"/>
<path d="M637.452 869.548L665.776 899.376L664.233 894.183L640.998 869.729L637.416 869.505L637.452 869.548ZM591.673 820.107L591.423 821.044L624.331 855.676L624.148 854.657L624.392 852.118L590.756 816.736L591.681 820.027L591.673 820.107ZM588.125 814.12L588.387 814.306L588.096 813.998L588.164 814.124L588.125 814.12ZM483.107 706.977L483.011 706.728L482.705 706.578L483.107 706.977ZM438.966 658.414L441.224 662.835L480.419 704.117L482.005 703.868L487.999 708.568L488.039 708.572L439.609 657.555L439.006 658.418L438.966 658.414ZM435.456 655.354L437.113 656.033L435.496 653.276L434.293 652.039L435.417 655.35L435.456 655.354Z" fill="#D4D4D4"/>
<path d="M402.454 592.965L402.077 595.211L538.133 738.528L542.173 741.478L542.856 743.546L559.11 760.642L561.697 759.97L565.749 764.884L567.146 769.102L625.901 831.001L626.178 827.704L590.471 790.121L587.521 788.316L583.875 783.762L583.889 783.203L403.079 592.704L402.454 592.965Z" fill="#D4D4D4"/>
<path d="M623.257 801.839L644.346 824.045L645.632 823.167L646.769 822.996L624.119 799.119L623.261 801.799L623.257 801.839ZM407.329 572.212L409.911 576.184L409.062 576.263L582.64 759.099L582.953 755.846L407.846 571.421L407.329 572.212ZM403.43 569.876L405.639 571.89L406.357 571.078L407.515 571.109L402.932 566.305L403.386 569.912L403.43 569.876Z" fill="#D4D4D4"/>
<path d="M629.487 782.018L668.208 822.814L670.386 821.822L670.48 821.671L630.341 779.378L629.483 782.058L629.487 782.018ZM387.171 524.913L387.589 527.235L574.439 724.039L576.205 722.327L387.973 524.069L387.207 524.956L387.171 524.913Z" fill="#D4D4D4"/>
<path d="M638.621 765.278L676.507 805.193L676.742 804.414L674.454 799.47L641.112 764.356L638.582 765.274L638.621 765.278ZM398.5 511.586L398.762 512.612L591.681 715.845L594.502 715.235L399.107 509.442L398.496 511.625L398.5 511.586ZM396.182 509.882L397.563 511.336L398.199 508.474L397.251 507.502L396.178 509.921L396.182 509.882Z" fill="#D4D4D4"/>
<path d="M662.644 760.7L660.301 761.756L673.971 776.162L674.61 773.26L662.684 760.704L662.644 760.7ZM404.344 488.685L403.095 490.847L606.416 705.009L607.193 703.162L607.525 702.633L404.352 488.606L404.344 488.685Z" fill="#D4D4D4"/>
<path d="M403.909 465.301L615.515 688.227L615.792 684.93L403.891 461.736L403.909 465.301Z" fill="#D4D4D4"/>
<path d="M388.672 420.516L393.116 427.189L392.978 427.376L616.296 662.597L618.022 660.881L388.707 419.318L388.712 420.52L388.672 420.516ZM375.597 409.09L380.869 414.641L382.93 414.439L382.031 415.874L382.139 416.005L385.614 416.098L376.741 406.758L375.593 409.13L375.597 409.09Z" fill="#D4D4D4"/>
<path d="M364.149 370.715L654.258 676.295L655.914 675.733L657.187 675.815L364.131 367.149L364.149 370.715Z" fill="#D4D4D4"/>
<path d="M706.775 702.28L708.827 703.838L706.207 701.104L706.775 702.28ZM383.101 364.327L675.973 672.815L678.281 671.715L385.775 363.583L383.101 364.327Z" fill="#D4D4D4"/>
<path d="M727.291 700.447L729.129 698.822L512.103 470.211L508.195 469.635L727.256 700.404L727.291 700.447ZM448.384 406.634L501.903 463.025L502.574 460.207L451.015 405.925L448.34 406.669L448.384 406.634ZM436.131 393.725L441.551 399.411L441.206 395.494L440.37 394.613L436.583 393.608L436.135 393.685L436.131 393.725Z" fill="#D4D4D4"/>
<path d="M528.199 464.35L741.008 688.512L742.846 686.887L530.073 462.769L528.199 464.35ZM468.098 401.041L488.096 422.1L489.133 419.638L470.772 400.297L468.098 401.041Z" fill="#D4D4D4"/>
<path d="M754.832 676.748L757.215 675.696L554.588 462.242L549.513 460.473L754.832 676.748Z" fill="#D4D4D4"/>
<path d="M568.574 454.175L772.4 668.906L773.279 668.51L774.457 667.502L570.01 452.151L568.574 454.175Z" fill="#D4D4D4"/>
<path d="M580.694 440.566L786.849 657.723L790.104 657.595L582.711 439.159L580.694 440.566Z" fill="#D4D4D4"/>
<path d="M595.574 429.865L807.802 653.41L808.515 653.079L810.691 652.927L597.555 428.414L595.574 429.865Z" fill="#D4D4D4"/>
<path d="M609.512 418.151L833.845 654.471L835.934 653.15L611.238 416.435L609.512 418.151Z" fill="#D4D4D4"/>
<path d="M623.079 406.121L850.072 645.179L852.595 644.34L625.136 404.717L623.079 406.121Z" fill="#D4D4D4"/>
<path d="M642.568 397.904L640.905 398.545L832.773 600.635L831.851 598.144L832.249 596.501L643.073 397.231L642.572 397.864L642.568 397.904ZM625.692 380.187L627.865 382.157L629.837 383.307L625.548 378.771L625.696 380.147L625.692 380.187Z" fill="#D4D4D4"/>
<path d="M636.481 367.491L836.527 578.215L837.202 575.357L638.828 366.395L636.481 367.491Z" fill="#D4D4D4"/>
<path d="M653.87 359.431L837.156 552.49L838.592 550.465L656.178 358.332L653.87 359.431Z" fill="#D4D4D4"/>
<path d="M745.36 429.44L845.529 534.956L845.073 530.949L748.938 429.704L745.32 429.436L745.36 429.44ZM670.967 351.104L730.124 413.402L727.383 406.933L672.482 349.088L671.007 351.108L670.967 351.104Z" fill="#D4D4D4"/>
<path d="M812.999 474.296L842.271 505.095L841.815 501.087L815.785 473.643L812.999 474.296ZM772.207 431.299L795.331 455.662L795.647 452.369L775.829 431.527L772.211 431.259L772.207 431.299ZM672.682 324.083L674.404 328.252L718.433 374.643L715.799 368.304L672.932 323.146L672.686 324.043L672.682 324.083Z" fill="#D4D4D4"/>
<path d="M844.678 481.303L844.743 480.629L844.226 477.256L842.772 475.715L838.354 474.61L844.682 481.264L844.678 481.303ZM697.318 326.05L697.773 322.97L690.865 315.7L686.92 315.081L697.318 326.05Z" fill="#D4D4D4"/>
<mask id="mask2_346_6319" style="mask-type:luminance" maskUnits="userSpaceOnUse" x="364" y="314" width="495" height="626">
<path d="M674.524 317.414L672.678 324.123L675.729 331.543L675.948 340.933L673.776 347.291L670.552 351.666L635.895 367.754L625.231 375.819L625.692 380.187L627.865 382.158L643.219 391.12L644.26 395.704L642.571 397.864L625.912 404.151L618.63 409.097L603.325 424.203L575.619 444.203L562.098 463.243L557.379 463.19L537.785 456.263L523.981 467.829L517.121 470.893L503.3 468.885L501.545 464.232L504.262 453.042L503.109 446.285L497.174 440.55L485.683 436.803L484.012 434.601L483.892 432.107L492.134 412.159L491.562 402.695L488.556 398.562L474.69 399.112L444.068 407.781L442.074 406.028L441.115 394.765L436.545 393.565L422.256 396.436L417.768 395.645L412.978 391.741L403.333 379.604L396.419 374.055L390.463 363.954L388.084 362.884L379.039 365.338L364.111 366.106L364.105 373.673L366.795 380.257L367.471 380.723L368.4 381.893L368.546 385.791L373.254 393.05L375.281 391.122L375.948 393.349L377.803 404.457L375.506 409.201L379.528 415.674L380.306 414.667L382.891 414.435L381.905 415.942L388.576 416.103L388.601 420.429L393.044 427.102L391.486 429.154L388.029 428.462L388.599 427.115L384.79 420.503L381.052 418.983L392.92 440.063L394.206 439.185L396.904 439.444L394.253 442.032L397.569 446.275L398.556 451.415L403.787 460.726L403.82 471.219L402.266 477.396L404.303 479.113L405.249 479.684L405.746 477.009L409.138 477.135L408.114 481.121L405.669 481.566L404.348 483.642L404.273 488.599L397.391 500.63L398.221 504.914L395.76 510.523L397.405 511.322L399.241 503.05L400.165 505.101L398.35 511.493L398.99 513.996L395.459 513.657L394.693 521.631L392.383 521.089L390.981 523.597L389.522 521.695L392.642 516.309L388.647 517.047L386.871 519.278L388.228 523.493L387.059 524.822L388.016 530.279L397.139 542.847L401.061 552.032L403.319 569.786L405.528 571.8L406.247 570.988L407.964 571.033L407.215 572.162L409.796 576.134L407.172 576.362L407.882 578.552L407.455 580.913L410.925 583.969L408.765 589.367L404.92 591.881L402.374 592.957L401.998 595.203L405.493 602.586L407.853 604.695L410.106 617.083L414.861 620.102L418.517 627.06L417.943 630.528L421.396 636.265L425.132 636.544L427.513 638.854L426.667 642.657L432.497 647.821L434.109 647.296L436.034 647.681L435.164 648.398L436.68 649.705L435.667 650.248L433.112 648.922L435.263 655.294L436.919 655.974L435.234 653.089L435.731 651.255L439.874 653.975L440.306 656.139L438.733 658.35L443.28 667.275L447.439 673.16L450.342 672.959L451.414 676.385L448.566 674.35L447.865 675.403L450.692 679.318L452.658 681.349L455.463 680.497L454.845 683.601L457.911 685.858L456.164 687.371L461.132 693.174L475.823 704.875L483.496 708.775L482.746 706.581L478.366 704.239L481.699 703.718L487.694 708.418L489.886 708.108L489.749 706.613L495.255 705.981L500.002 707.839L501.387 712.176L505.517 716.697L512.167 716.655L511.658 720.289L513.562 720.472L517.028 726.491L525.629 729.479L541.911 741.293L543.038 744.565L541.728 748.203L545.478 750.004L546.199 755.839L550.272 758.032L551.412 762.426L555.292 764.961L556.169 764.164L552.959 762.574L552.498 760.288L555.405 761.288L561.435 759.785L565.491 764.659L568.529 773.88L567.383 779.976L564.445 777.211L565.198 780.206L573.154 786.576L579.709 788.367L583.178 792.264L581.528 800.273L582.76 806.197L581.841 807.43L586.368 809.907L587.906 813.898L590.261 815.646L591.455 819.885L590.235 824.252L593.255 831.989L602.039 835.996L602.486 840.924L598.495 849.549L601.766 857.591L605.064 860.35L609.586 861.625L605.584 875.775L610.491 882.212L610.918 886.937L613.961 889.432L620.526 889.862L622.282 893.675L626.3 896.863L625.762 900.375L628.096 902.761L628.5 906.884L628.275 909.225L629.703 915.208L631.775 917.809L631.253 920.321L632.589 922.251L633.921 922.98L632.799 926.315L633.819 927.374L635.349 925.199L636.404 926.301L637.283 927.987L637.146 929.416L639.837 933.078L640.622 934.074L641.659 939.539L647.612 930.501L658.087 924.821L661.187 919.233L666.052 900.682L658.06 873.849L652.009 870.145L632.497 869.031L628.359 867.513L625.499 863.114L623.93 854.435L626.121 825.377L631.711 830.959L633.884 830.848L645.374 822.943L651.906 822.049L665.685 823.653L670.166 821.601L672.478 817.539L676.519 804.234L670.488 791.163L674.816 771.119L674.323 766.667L669.058 761.037L662.386 760.475L657.944 762.531L655.61 763.908L642.181 763.659L637.702 765.271L630.387 778.061L622.207 804.021L615.676 806.997L608.128 806.792L603.587 803.633L597.809 794.59L587.219 788.127L583.533 783.569L584.653 770.664L582.304 759.268L583.617 743.939L580.891 739.393L570.332 735.936L568.452 733.834L568.052 729.671L580.019 718.049L602.664 713.218L606.935 702.938L615.096 689.668L615.637 682.794L612.75 669.504L614.939 663.388L619.008 659.375L625.608 658.607L629.712 660.483L633.143 664.777L636.565 675.836L642.027 680.244L655.579 675.46L667.666 676.341L683.654 668.709L687.948 669.441L693.558 675.225L706.484 701.972L710.473 705.038L717.115 705.916L723.904 702.765L754.042 676.632L772.949 668.199L785.634 657.446L798.893 656.958L808.185 652.766L814.805 652.201L829.899 656.374L846.808 645.826L858.642 641.838L846.552 620.978L833.15 602.113L831.563 597.797L837.325 573.246L836.267 553.005L843.296 543.191L845.466 536.432L841.257 498.151L844.499 480.245L843.7 475.644L825.043 471.049L808.497 474.905L797.829 470.917L794.36 464.097L795.609 448.602L798.304 440.133L793.079 434.506L784.13 431.804L743.129 428.906L734.48 423.911L720.328 390.761L718.106 374.292L712.314 360.402L709.396 346.189L697.575 336.284L696.77 327.158L698.347 316.58L683.752 314.296L674.241 317.026L674.524 317.414Z" fill="white"/>
</mask>
<g mask="url(#mask2_346_6319)">
<path d="M379.996 -38.0606L378.233 -36.3867L1644.94 1297.88L1646.71 1296.21L379.996 -38.0606Z" fill="#D4D4D4"/>
<path d="M405.675 -37.4277L403.912 -35.7539L1670.62 1298.51L1672.38 1296.84L405.675 -37.4277Z" fill="#D4D4D4"/>
<path d="M431.322 -36.7266L429.559 -35.0527L1696.27 1299.22L1698.03 1297.54L431.322 -36.7266Z" fill="#D4D4D4"/>
<path d="M456.998 -36.0539L455.234 -34.3799L1721.94 1299.89L1723.71 1298.21L456.998 -36.0539Z" fill="#D4D4D4"/>
<path d="M482.677 -35.4211L480.914 -33.7471L1747.62 1300.52L1749.39 1298.85L482.677 -35.4211Z" fill="#D4D4D4"/>
<path d="M508.324 -34.7197L506.561 -33.0459L1773.27 1301.22L1775.03 1299.55L508.324 -34.7197Z" fill="#D4D4D4"/>
<path d="M534.002 -34.0869L532.239 -32.4131L1798.95 1301.86L1800.71 1300.18L534.002 -34.0869Z" fill="#D4D4D4"/>
<path d="M559.679 -33.4131L557.916 -31.7393L1824.62 1302.53L1826.39 1300.86L559.679 -33.4131Z" fill="#D4D4D4"/>
<path d="M585.33 -32.752L583.566 -31.0781L1850.28 1303.19L1852.04 1301.52L585.33 -32.752Z" fill="#D4D4D4"/>
<path d="M611.004 -32.0802L609.241 -30.4062L1875.95 1303.86L1877.71 1302.19L611.004 -32.0802Z" fill="#D4D4D4"/>
<path d="M636.68 -31.4064L634.917 -29.7324L1901.63 1304.54L1903.39 1302.86L636.68 -31.4064Z" fill="#D4D4D4"/>
<path d="M662.33 -30.7461L660.566 -29.0723L1927.28 1305.2L1929.04 1303.52L662.33 -30.7461Z" fill="#D4D4D4"/>
<path d="M688.006 -30.0742L686.243 -28.4004L1952.95 1305.87L1954.72 1304.19L688.006 -30.0742Z" fill="#D4D4D4"/>
<path d="M713.711 -29.4111L711.948 -27.7373L1978.66 1306.53L1980.42 1304.86L713.711 -29.4111Z" fill="#D4D4D4"/>
<path d="M739.359 -28.7111L737.596 -27.0371L2004.31 1307.23L2006.07 1305.56L739.359 -28.7111Z" fill="#D4D4D4"/>
<path d="M765.038 -28.0773L763.274 -26.4033L2029.98 1307.86L2031.75 1306.19L765.038 -28.0773Z" fill="#D4D4D4"/>
<path d="M790.713 -27.4043L788.95 -25.7305L2055.66 1308.54L2057.42 1306.86L790.713 -27.4043Z" fill="#D4D4D4"/>
<path d="M816.322 -26.708L814.559 -25.0342L2081.27 1309.23L2083.03 1307.56L816.322 -26.708Z" fill="#D4D4D4"/>
<path d="M841.999 -26.0742L840.236 -24.4004L2106.95 1309.87L2108.71 1308.19L841.999 -26.0742Z" fill="#D4D4D4"/>
<path d="M-877.706 -71.208L-879.469 -69.5342L387.24 1264.73L389.003 1263.06L-877.706 -71.208Z" fill="black"/>
<path d="M-852.03 -70.5342L-853.793 -68.8604L412.916 1265.41L414.679 1263.73L-852.03 -70.5342Z" fill="black"/>
<path d="M-826.38 -69.874L-828.143 -68.2002L438.566 1266.07L440.329 1264.39L-826.38 -69.874Z" fill="black"/>
<path d="M-800.705 -69.2002L-802.468 -67.5264L464.241 1266.74L466.005 1265.07L-800.705 -69.2002Z" fill="black"/>
<path d="M-775.026 -68.5674L-776.789 -66.8936L489.92 1267.37L491.684 1265.7L-775.026 -68.5674Z" fill="black"/>
<path d="M-749.379 -67.8664L-751.142 -66.1924L515.567 1268.08L517.33 1266.4L-749.379 -67.8664Z" fill="black"/>
<path d="M-723.699 -67.2334L-725.462 -65.5596L541.247 1268.71L543.01 1267.03L-723.699 -67.2334Z" fill="black"/>
<path d="M-698.024 -66.5615L-699.787 -64.8877L566.923 1269.38L568.686 1267.71L-698.024 -66.5615Z" fill="black"/>
<path d="M-672.377 -65.8604L-674.14 -64.1865L592.569 1270.08L594.332 1268.41L-672.377 -65.8604Z" fill="black"/>
<path d="M-646.698 -65.2275L-648.461 -63.5537L618.248 1270.71L620.011 1269.04L-646.698 -65.2275Z" fill="black"/>
<path d="M-621.023 -64.5537L-622.786 -62.8799L643.924 1271.39L645.687 1269.71L-621.023 -64.5537Z" fill="black"/>
<path d="M-595.372 -63.8937L-597.136 -62.2197L669.573 1272.05L671.337 1270.37L-595.372 -63.8937Z" fill="black"/>
<path d="M-569.696 -63.2207L-571.459 -61.5469L695.25 1272.72L697.013 1271.05L-569.696 -63.2207Z" fill="black"/>
<path d="M-544.016 -62.5859L-545.779 -60.9121L720.93 1273.36L722.693 1271.68L-544.016 -62.5859Z" fill="black"/>
<path d="M-518.371 -61.8867L-520.134 -60.2129L746.575 1274.06L748.339 1272.38L-518.371 -61.8867Z" fill="black"/>
<path d="M-492.695 -61.2139L-494.458 -59.54L772.251 1274.73L774.014 1273.05L-492.695 -61.2139Z" fill="black"/>
<path d="M-466.989 -60.5508L-468.752 -58.877L797.957 1275.39L799.72 1273.72L-466.989 -60.5508Z" fill="black"/>
<path d="M-441.341 -59.8506L-443.104 -58.1768L823.605 1276.09L825.368 1274.42L-441.341 -59.8506Z" fill="black"/>
<path d="M-415.662 -59.2168L-417.425 -57.543L849.284 1276.73L851.047 1275.05L-415.662 -59.2168Z" fill="black"/>
<path d="M-390.026 -58.5479L-391.79 -56.874L874.92 1277.39L876.683 1275.72L-390.026 -58.5479Z" fill="black"/>
<path d="M-364.347 -57.9141L-366.11 -56.2402L900.599 1278.03L902.362 1276.35L-364.347 -57.9141Z" fill="black"/>
<path d="M-338.701 -57.2139L-340.464 -55.54L926.245 1278.73L928.008 1277.05L-338.701 -57.2139Z" fill="black"/>
<path d="M-313.025 -56.5412L-314.788 -54.8672L951.921 1279.4L953.684 1277.73L-313.025 -56.5412Z" fill="black"/>
</g>
<path d="M628.491 909.485L629.406 913.297L647.039 931.887L647.832 930.722L648.805 930.175L628.552 908.851L628.491 909.485Z" fill="black"/>
<path d="M608.874 865.281L661.016 920.179L661.409 919.416L661.909 917.542L609.661 862.514L608.878 865.242L608.874 865.281ZM602.064 857.82L605.323 860.576L608.674 861.538L599.654 852.063L602.025 857.817L602.064 857.82Z" fill="black"/>
<path d="M637.973 869.557L665.569 898.634L664.026 893.441L641.519 869.738L637.938 869.514L637.973 869.557ZM591.679 820.066L591.507 820.61L624.195 855.021L624.111 854.652L624.321 851.63L590.509 815.99L591.643 820.023L591.679 820.066ZM588.13 814.08L590.035 815.504L587.782 813.125L588.17 814.084L588.13 814.08ZM582.065 807.611L583.055 808.147L582.29 807.353L582.105 807.615L582.065 807.611ZM438.968 658.413L440.651 661.737L480.829 704.035L481.967 703.864L487.962 708.564L488.409 708.487L439.761 657.248L438.928 658.409L438.968 658.413ZM435.458 655.353L437.115 656.033L435.426 653.188L435.54 652.838L434.05 651.254L435.458 655.353Z" fill="black"/>
<path d="M402.453 592.965L402.119 594.775L539.667 739.637L542.173 741.479L542.61 742.762L559.482 760.519L561.697 759.971L565.749 764.884L566.9 768.318L625.947 830.526L626.18 827.265L604.218 804.135L603.884 803.862L603.641 803.479L591.603 790.831L587.521 788.317L583.874 783.762L583.934 782.727L403.411 592.577L402.453 592.965Z" fill="black"/>
<path d="M623.375 801.45L644.647 823.833L645.632 823.167L647.174 822.955L624.233 798.77L623.375 801.45ZM407.334 572.173L409.915 576.144L409.511 576.185L582.687 758.623L582.999 755.37L408.036 571.119L407.29 572.209L407.334 572.173ZM403.442 569.757L403.916 570.243L405.683 571.854L406.401 571.042L408.079 571.083L402.954 565.666L403.482 569.761L403.442 569.757Z" fill="black"/>
<path d="M629.6 781.669L668.541 822.686L670.385 821.822L670.63 821.365L630.415 779.024L629.557 781.705L629.6 781.669ZM387.171 524.912L387.491 526.584L574.667 723.74L576.434 722.028L388.166 523.726L387.175 524.872L387.171 524.912Z" fill="black"/>
<path d="M638.994 765.154L676.661 804.848L676.778 804.458L674.023 798.548L641.482 764.272L638.951 765.19L638.994 765.154ZM398.501 511.586L398.589 511.915L592.094 715.725L594.915 715.115L399.229 509.014L398.501 511.586ZM396.336 509.536L397.646 510.904L398.281 508.042L397.409 507.117L396.336 509.536Z" fill="black"/>
<path d="M662.644 760.701L660.633 761.629L674.049 775.77L674.688 772.868L663.16 760.75L662.605 760.697L662.644 760.701ZM404.344 488.686L403.285 490.546L606.569 704.664L607.193 703.163L607.714 702.332L404.358 488.127L404.301 488.722L404.344 488.686Z" fill="black"/>
<path d="M403.879 464.779L615.561 687.751L615.798 684.451L403.897 461.257L403.879 464.779Z" fill="black"/>
<path d="M388.672 420.516L392.797 426.758L616.477 662.374L618.204 660.658L388.634 418.83L388.633 420.512L388.672 420.516ZM375.746 408.784L381.309 414.643L382.962 414.522L382.253 415.655L382.651 416.094L386.125 416.187L376.927 406.495L375.778 408.867L375.746 408.784Z" fill="black"/>
<path d="M364.158 370.195L654.63 676.17L655.913 675.733L657.698 675.905L364.141 366.63L364.158 370.195Z" fill="black"/>
<path d="M706.775 702.279L710.577 705.207L705.703 700.094L706.775 702.279ZM383.473 364.202L676.31 672.647L678.617 671.547L413.448 392.266L412.927 391.856L412.321 391.077L386.143 363.498L383.469 364.242L383.473 364.202Z" fill="black"/>
<path d="M727.551 700.232L729.389 698.606L512.653 470.304L508.745 469.728L727.515 700.188L727.551 700.232ZM448.751 406.549L501.979 462.632L502.651 459.813L451.385 405.801L448.712 406.545L448.751 406.549ZM436.534 393.684L441.476 398.923L441.132 395.006L440.988 394.832L436.574 393.687L436.534 393.684Z" fill="black"/>
<path d="M528.46 464.136L741.269 688.298L743.107 686.673L530.334 462.554L528.46 464.136ZM468.471 400.917L488.249 421.756L489.287 419.293L471.141 400.213L468.467 400.957L468.471 400.917Z" fill="black"/>
<path d="M755.168 676.581L757.551 675.528L555.322 462.513L550.211 460.7L755.168 676.581Z" fill="black"/>
<path d="M568.764 453.875L772.737 668.74L773.28 668.512L774.722 667.249L570.24 451.854L568.764 453.875Z" fill="black"/>
<path d="M580.989 440.394L787.292 657.685L790.583 657.601L583.01 438.947L580.989 440.394Z" fill="black"/>
<path d="M595.836 429.649L808.136 653.282L808.515 653.078L811.136 652.889L597.857 428.202L595.836 429.649Z" fill="black"/>
<path d="M609.734 417.932L834.143 654.299L836.236 652.939L611.5 416.22L609.734 417.932Z" fill="black"/>
<path d="M623.379 405.91L850.404 645.051L852.967 644.216L625.436 404.506L623.379 405.91Z" fill="black"/>
<path d="M642.568 397.903L641.237 398.416L832.452 599.803L831.85 598.144L832.326 596.108L643.298 396.972L642.568 397.903ZM625.692 380.186L627.865 382.157L630.898 383.93L625.482 378.204L625.696 380.147L625.692 380.186Z" fill="black"/>
<path d="M636.817 367.323L836.609 577.782L837.28 574.964L639.165 366.227L636.817 367.323Z" fill="black"/>
<path d="M654.168 359.259L837.346 552.187L838.821 550.167L656.515 358.164L654.168 359.259Z" fill="black"/>
<path d="M745.879 429.451L845.502 534.394L845.046 530.387L749.493 429.758L745.875 429.491L745.879 429.451ZM671.199 350.767L729.736 412.445L726.994 405.976L672.675 348.747L671.199 350.767Z" fill="black"/>
<path d="M813.368 474.211L842.162 504.564L841.706 500.557L816.11 473.594L813.364 474.251L813.368 474.211ZM772.683 431.345L795.333 455.222L795.65 451.929L776.301 431.612L772.683 431.345ZM672.642 324.079L674.008 327.374L718.037 373.764L715.403 367.425L673.01 322.753L672.646 324.04L672.642 324.079Z" fill="black"/>
<path d="M844.719 480.866L844.742 480.628L844.084 476.641L843.355 475.891L838.937 474.786L844.719 480.866ZM697.319 325.609L697.775 322.53L691.376 315.789L687.392 315.166L697.319 325.609Z" fill="black"/>
<mask id="mask3_346_6319" style="mask-type:luminance" maskUnits="userSpaceOnUse" x="364" y="314" width="495" height="626">
<path d="M674.524 317.414L672.678 324.123L675.729 331.543L675.948 340.933L673.776 347.291L670.552 351.666L635.895 367.754L625.231 375.819L625.692 380.187L627.865 382.158L643.219 391.12L644.26 395.704L642.571 397.864L625.912 404.151L618.63 409.097L603.325 424.203L575.619 444.203L562.098 463.243L557.379 463.19L537.785 456.263L523.981 467.829L517.121 470.893L503.3 468.885L501.545 464.232L504.262 453.042L503.109 446.285L497.174 440.55L485.683 436.803L484.012 434.601L483.892 432.107L492.134 412.159L491.562 402.695L488.556 398.562L474.69 399.112L444.068 407.781L442.074 406.028L441.115 394.765L436.545 393.565L422.256 396.436L417.768 395.645L412.978 391.741L403.333 379.604L396.419 374.055L390.463 363.954L388.084 362.884L379.039 365.338L364.111 366.106L364.105 373.673L366.795 380.257L367.471 380.723L368.4 381.893L368.546 385.791L373.254 393.05L375.281 391.122L375.948 393.349L377.803 404.457L375.506 409.201L379.528 415.674L380.306 414.667L382.891 414.435L381.905 415.942L388.576 416.103L388.601 420.429L393.044 427.102L391.486 429.154L388.029 428.462L388.599 427.115L384.79 420.503L381.052 418.983L392.92 440.063L394.206 439.185L396.904 439.444L394.253 442.032L397.569 446.275L398.556 451.415L403.787 460.726L403.82 471.219L402.266 477.396L404.303 479.113L405.249 479.684L405.746 477.009L409.138 477.135L408.114 481.121L405.669 481.566L404.348 483.642L404.273 488.599L397.391 500.63L398.221 504.914L395.76 510.523L397.405 511.322L399.241 503.05L400.165 505.101L398.35 511.493L398.99 513.996L395.459 513.657L394.693 521.631L392.383 521.089L390.981 523.597L389.522 521.695L392.642 516.309L388.647 517.047L386.871 519.278L388.228 523.493L387.059 524.822L388.016 530.279L397.139 542.847L401.061 552.032L403.319 569.786L405.528 571.8L406.247 570.988L407.964 571.033L407.215 572.162L409.796 576.134L407.172 576.362L407.882 578.552L407.455 580.913L410.925 583.969L408.765 589.367L404.92 591.881L402.374 592.957L401.998 595.203L405.493 602.586L407.853 604.695L410.106 617.083L414.861 620.102L418.517 627.06L417.943 630.528L421.396 636.265L425.132 636.544L427.513 638.854L426.667 642.657L432.497 647.821L434.109 647.296L436.034 647.681L435.164 648.398L436.68 649.705L435.667 650.248L433.112 648.922L435.263 655.294L436.919 655.974L435.234 653.089L435.731 651.255L439.874 653.975L440.306 656.139L438.733 658.35L443.28 667.275L447.439 673.16L450.342 672.959L451.414 676.385L448.566 674.35L447.865 675.403L450.692 679.318L452.658 681.349L455.463 680.497L454.845 683.601L457.911 685.858L456.164 687.371L461.132 693.174L475.823 704.875L483.496 708.775L482.746 706.581L478.366 704.239L481.699 703.718L487.694 708.418L489.886 708.108L489.749 706.613L495.255 705.981L500.002 707.839L501.387 712.176L505.517 716.697L512.167 716.655L511.658 720.289L513.562 720.472L517.028 726.491L525.629 729.479L541.911 741.293L543.038 744.565L541.728 748.203L545.478 750.004L546.199 755.839L550.272 758.032L551.412 762.426L555.292 764.961L556.169 764.164L552.959 762.574L552.498 760.288L555.405 761.288L561.435 759.785L565.491 764.659L568.529 773.88L567.383 779.976L564.445 777.211L565.198 780.206L573.154 786.576L579.709 788.367L583.178 792.264L581.528 800.273L582.76 806.197L581.841 807.43L586.368 809.907L587.906 813.898L590.261 815.646L591.455 819.885L590.235 824.252L593.255 831.989L602.039 835.996L602.486 840.924L598.495 849.549L601.766 857.591L605.064 860.35L609.586 861.625L605.584 875.775L610.491 882.212L610.918 886.937L613.961 889.432L620.526 889.862L622.282 893.675L626.3 896.863L625.762 900.375L628.096 902.761L628.5 906.884L628.275 909.225L629.703 915.208L631.775 917.809L631.253 920.321L632.589 922.251L633.921 922.98L632.799 926.315L633.819 927.374L635.349 925.199L636.404 926.301L637.283 927.987L637.146 929.416L639.837 933.078L640.622 934.074L641.659 939.539L647.612 930.501L658.087 924.821L661.187 919.233L666.052 900.682L658.06 873.849L652.009 870.145L632.497 869.031L628.359 867.513L625.499 863.114L623.93 854.435L626.121 825.377L631.711 830.959L633.884 830.848L645.374 822.943L651.906 822.049L665.685 823.653L670.166 821.601L672.478 817.539L676.519 804.234L670.488 791.163L674.816 771.119L674.323 766.667L669.058 761.037L662.386 760.475L657.944 762.531L655.61 763.908L642.181 763.659L637.702 765.271L630.387 778.061L622.207 804.021L615.676 806.997L608.128 806.792L603.587 803.633L597.809 794.59L587.219 788.127L583.533 783.569L584.653 770.664L582.304 759.268L583.617 743.939L580.891 739.393L570.332 735.936L568.452 733.834L568.052 729.671L580.019 718.049L602.664 713.218L606.935 702.938L615.096 689.668L615.637 682.794L612.75 669.504L614.939 663.388L619.008 659.375L625.608 658.607L629.712 660.483L633.143 664.777L636.565 675.836L642.027 680.244L655.579 675.46L667.666 676.341L683.654 668.709L687.948 669.441L693.558 675.225L706.484 701.972L710.473 705.038L717.115 705.916L723.904 702.765L754.042 676.632L772.949 668.199L785.634 657.446L798.893 656.958L808.185 652.766L814.805 652.201L829.899 656.374L846.808 645.826L858.642 641.838L846.552 620.978L833.15 602.113L831.563 597.797L837.325 573.246L836.267 553.005L843.296 543.191L845.466 536.432L841.257 498.151L844.499 480.245L843.7 475.644L825.043 471.049L808.497 474.905L797.829 470.917L794.36 464.097L795.609 448.602L798.304 440.133L793.079 434.506L784.13 431.804L743.129 428.906L734.48 423.911L720.328 390.761L718.106 374.292L712.314 360.402L709.396 346.189L697.575 336.284L696.77 327.158L698.347 316.58L683.752 314.296L674.241 317.026L674.524 317.414Z" fill="white"/>
</mask>
<g mask="url(#mask3_346_6319)">
<path d="M380.014 -38.543L378.251 -36.8691L1644.96 1297.4L1646.72 1295.73L380.014 -38.543Z" fill="black"/>
<path d="M405.69 -37.8701L403.927 -36.1963L1670.64 1298.07L1672.4 1296.4L405.69 -37.8701Z" fill="black"/>
<path d="M431.341 -37.2092L429.578 -35.5352L1696.29 1298.73L1698.05 1297.06L431.341 -37.2092Z" fill="black"/>
<path d="M457.016 -36.5363L455.252 -34.8623L1721.96 1299.41L1723.72 1297.73L457.016 -36.5363Z" fill="black"/>
<path d="M482.694 -35.9033L480.931 -34.2295L1747.64 1300.04L1749.4 1298.36L482.694 -35.9033Z" fill="black"/>
<path d="M508.341 -35.2022L506.578 -33.5283L1773.29 1300.74L1775.05 1299.07L508.341 -35.2022Z" fill="black"/>
<path d="M534.019 -34.5693L532.256 -32.8955L1798.97 1301.37L1800.73 1299.7L534.019 -34.5693Z" fill="black"/>
<path d="M559.697 -33.8965L557.934 -32.2227L1824.64 1302.05L1826.41 1300.37L559.697 -33.8965Z" fill="black"/>
<path d="M585.341 -33.1955L583.578 -31.5215L1850.29 1302.75L1852.05 1301.07L585.341 -33.1955Z" fill="black"/>
<path d="M611.021 -32.5625L609.258 -30.8887L1875.97 1303.38L1877.73 1301.71L611.021 -32.5625Z" fill="black"/>
<path d="M636.697 -31.8897L634.934 -30.2158L1901.64 1304.05L1903.41 1302.38L636.697 -31.8897Z" fill="black"/>
<path d="M662.348 -31.2295L660.584 -29.5557L1927.29 1304.71L1929.06 1303.04L662.348 -31.2295Z" fill="black"/>
<path d="M688.024 -30.5557L686.261 -28.8818L1952.97 1305.39L1954.73 1303.71L688.024 -30.5557Z" fill="black"/>
<path d="M713.699 -29.8828L711.936 -28.209L1978.64 1306.06L1980.41 1304.39L713.699 -29.8828Z" fill="black"/>
<path d="M739.349 -29.2228L737.586 -27.5488L2004.3 1306.72L2006.06 1305.05L739.349 -29.2228Z" fill="black"/>
<path d="M765.025 -28.5488L763.262 -26.875L2029.97 1307.39L2031.73 1305.72L765.025 -28.5488Z" fill="black"/>
<path d="M790.663 -27.9199L788.9 -26.2461L2055.61 1308.02L2057.37 1306.35L790.663 -27.9199Z" fill="black"/>
<path d="M816.339 -27.1895L814.576 -25.5156L2081.28 1308.75L2083.05 1307.08L816.339 -27.1895Z" fill="black"/>
<path d="M842.017 -26.5566L840.254 -24.8828L2106.96 1309.39L2108.73 1307.71L842.017 -26.5566Z" fill="black"/>
</g>
<path d="M363.174 365.855L363.539 365.81M698.633 316.927L697.056 327.505L697.861 336.631L709.682 346.536L712.601 360.749L718.393 374.639L720.614 391.108L734.766 424.258L743.419 429.213L784.42 432.112L793.369 434.813L798.594 440.44L795.899 448.91L794.65 464.405L798.159 471.228L808.826 475.216L825.372 471.36L844.029 475.955L844.828 480.557L841.547 498.459L845.757 536.74L843.586 543.498L836.557 553.313L837.655 573.558L831.893 598.108L833.48 602.425L846.882 621.289L858.972 642.15L847.177 646.141L830.269 656.689L815.175 652.516L808.594 653.085L799.263 657.273L786.003 657.761L773.319 668.514L754.411 676.947L724.274 703.08L717.485 706.231L710.843 705.353L706.853 702.287L693.928 675.54L688.318 669.756L684.024 669.024L668.036 676.656L655.949 675.775L642.396 680.559L636.934 676.151L633.513 665.092L630.081 660.798L625.977 658.922L619.377 659.69L615.308 663.703L613.119 669.819L616.006 683.109L615.466 689.983L607.304 703.253L603.037 713.493L580.392 718.324L568.425 729.947L568.826 734.109L570.706 736.212L581.264 739.668L583.951 744.211L582.638 759.539L584.986 770.936L583.867 783.841L587.549 788.439L598.139 794.901L603.917 803.945L608.458 807.103L616.005 807.308L622.537 804.332L630.717 778.372L638.031 765.582L642.511 763.97L655.939 764.22L658.278 762.803L662.719 760.747L669.392 761.308L674.617 766.935L675.11 771.387L670.782 791.43L676.813 804.502L672.772 817.807L670.46 821.869L665.979 823.921L652.2 822.317L645.668 823.211L634.178 831.115L632.005 831.227L626.415 825.645L624.224 854.703L625.793 863.382L628.653 867.78L632.791 869.299L652.303 870.413L658.357 874.078L666.349 900.911L661.484 919.461L658.385 925.049L647.91 930.729L641.957 939.767L640.92 934.302L640.174 933.309L637.483 929.648L637.621 928.219L636.702 926.53L635.647 925.427L634.117 927.602L633.097 926.544L634.218 923.208L632.887 922.479L631.551 920.549L632.073 918.037L630 915.436L628.573 909.453L628.798 907.112L628.393 902.989L626.06 900.603L626.598 897.091L622.58 893.903L620.824 890.09L614.259 889.66L611.255 887.169L610.829 882.444L605.922 876.007L609.924 861.857L605.402 860.582L602.143 857.826L598.872 849.785L602.864 841.159L602.416 836.232L593.632 832.225L590.612 824.487L591.832 820.12L590.638 815.882L588.283 814.134L586.745 810.142L582.218 807.666L583.138 806.433L581.905 800.509L583.556 792.499L580.086 788.602L573.532 786.812L565.575 780.442L564.822 777.447L567.799 780.215L568.945 774.119L565.908 764.899L561.852 760.025L555.821 761.527L552.915 760.527L553.376 762.814L556.586 764.404L555.709 765.2L551.828 762.665L550.689 758.272L546.616 756.079L545.895 750.244L542.144 748.442L543.455 744.804L542.328 741.533L526.046 729.719L517.444 726.73L513.979 720.712L512.075 720.529L512.584 716.894L505.933 716.936L501.803 712.415L500.418 708.078L495.672 706.221L490.166 706.853L490.303 708.347L488.111 708.657L482.116 703.958L478.787 704.438L483.166 706.781L483.92 708.935L476.247 705.035L461.556 693.334L456.588 687.531L458.335 686.018L455.269 683.761L455.887 680.658L453.083 681.509L451.076 679.475L448.249 675.56L448.951 674.506L451.799 676.541L450.726 673.115L447.824 673.316L443.665 667.432L439.117 658.507L440.691 656.295L440.258 654.132L436.115 651.412L435.619 653.246L437.304 656.13L435.647 655.451L433.497 649.078L436.052 650.404L437.065 649.861L435.549 648.554L436.419 647.837L434.494 647.452L432.882 647.978L427.052 642.813L427.898 639.011L425.517 636.7L421.78 636.421L418.328 630.684L418.861 627.212L415.206 620.255L410.451 617.235L408.198 604.847L405.838 602.739L402.343 595.356L402.719 593.11L405.265 592.033L409.07 589.516L411.27 584.122L407.8 581.066L408.227 578.705L407.517 576.514L410.141 576.286L407.56 572.315L408.309 571.185L406.592 571.14L405.873 571.952L403.664 569.938L401.406 552.184L397.484 542.999L388.361 530.431L387.404 524.974L388.573 523.645L387.176 519.427L388.952 517.195L392.947 516.458L389.827 521.844L391.286 523.746L392.688 521.238L394.998 521.78L395.764 513.806L399.331 514.189L398.691 511.685L400.466 505.289L399.542 503.238L397.707 511.51L396.022 510.708L398.483 505.098L397.657 500.775L404.538 488.744L404.614 483.786L405.935 481.711L408.38 481.265L409.403 477.28L406.012 477.154L405.515 479.829L404.569 479.258L402.532 477.541L404.086 471.364L404.053 460.871L398.822 451.559L397.834 446.42L394.518 442.177L397.165 439.629L394.468 439.37L393.186 440.208L381.278 419.124L385.016 420.644L388.825 427.257L388.255 428.603L391.712 429.296L393.231 427.239L388.787 420.566L388.762 416.24L382.091 416.079L383.077 414.573L380.492 414.805L379.715 415.811L375.692 409.339L377.99 404.595L376.174 393.49L375.507 391.264L373.48 393.191L368.772 385.932L368.626 382.034L367.697 380.864L367.061 380.402L364.371 373.818L364.377 366.251L379.305 365.483L388.349 363.029L390.689 364.095L396.645 374.196L403.559 379.745L413.204 391.882L417.994 395.786L422.482 396.578L436.771 393.706L441.341 394.906L442.3 406.169L444.294 407.922L474.916 399.253L488.782 398.703L491.788 402.836L492.36 412.3L484.114 432.288L484.235 434.782L485.905 436.984L497.396 440.73L503.335 446.426L504.448 453.179L501.731 464.369L503.487 469.022L517.307 471.031L524.168 467.966L537.971 456.4L557.562 463.367L562.281 463.42L575.802 444.38L603.548 424.383L618.852 409.278L626.134 404.332L642.793 398.045L644.482 395.885L643.441 391.301L628.087 382.338L625.914 380.368L625.453 375.999L636.117 367.935L670.735 351.843L673.958 347.468L676.134 341.07L675.915 331.68L672.864 324.26L674.71 317.551L684.225 314.782L698.82 317.065L698.633 316.927Z" stroke="#00AFA9" stroke-width="1.29971" stroke-linecap="round" stroke-linejoin="round"/>
</g>
</g>
</g>
<circle cx="439.161" cy="651.979" r="34.7421" fill="#CDDC29" fill-opacity="0.2"/>
<circle cx="439.161" cy="651.981" r="35.034" fill="#CDDC29"/>
<path d="M52.0304 674.054C49.1976 674.054 46.7814 673.762 44.7818 673.179C42.81 672.568 41.1992 671.721 39.9495 670.638C38.7275 669.555 37.8249 668.249 37.2417 666.722C36.6862 665.194 36.4085 663.486 36.4085 661.598C36.4085 660.709 36.4918 659.723 36.6585 658.64C36.8251 657.529 37.0195 656.529 37.2417 655.641L41.3242 654.808C40.9909 655.863 40.741 656.89 40.5743 657.89C40.4077 658.862 40.3244 659.932 40.3244 661.098C40.3244 662.514 40.5049 663.806 40.866 664.972C41.227 666.139 41.8658 667.152 42.7822 668.013C43.7265 668.874 45.004 669.541 46.6148 670.013C48.2256 670.485 50.2807 670.721 52.7802 670.721H57.9875V655.058C59.1262 654.808 60.2093 654.613 61.2369 654.474C62.2922 654.335 63.3475 654.266 64.4029 654.266C66.097 654.266 67.4995 654.474 68.6104 654.891C69.749 655.307 70.6516 655.932 71.3182 656.766C72.0125 657.571 72.4985 658.571 72.7762 659.765C73.0539 660.959 73.1928 662.348 73.1928 663.931V670.721H77.9835V674.054H69.4435V663.972C69.4435 661.667 68.9992 660.001 68.1105 658.973C67.2218 657.918 65.8609 657.39 64.028 657.39C63.7225 657.39 63.3198 657.404 62.8199 657.432C62.3477 657.46 61.9867 657.501 61.7368 657.557V674.054H52.0304ZM50.9056 682.719C50.1835 682.719 49.5864 682.455 49.1143 681.927C48.6422 681.427 48.4061 680.816 48.4061 680.094C48.4061 679.372 48.6422 678.747 49.1143 678.22C49.5864 677.72 50.1835 677.47 50.9056 677.47C51.6277 677.47 52.2248 677.72 52.6969 678.22C53.169 678.747 53.4051 679.372 53.4051 680.094C53.4051 680.816 53.169 681.427 52.6969 681.927C52.2248 682.455 51.6277 682.719 50.9056 682.719ZM57.2793 682.76C56.5572 682.76 55.9463 682.496 55.4464 681.969C54.9742 681.441 54.7382 680.816 54.7382 680.094C54.7382 679.372 54.9742 678.761 55.4464 678.261C55.9463 677.761 56.5572 677.511 57.2793 677.511C58.0014 677.511 58.5846 677.761 59.029 678.261C59.5011 678.761 59.7372 679.372 59.7372 680.094C59.7372 680.816 59.5011 681.441 59.029 681.969C58.5846 682.496 58.0014 682.76 57.2793 682.76ZM77.1327 670.721H78.4658C78.9935 670.721 79.5073 670.638 80.0072 670.471C80.5071 670.304 80.9514 670.013 81.3402 669.596C81.729 669.152 82.0345 668.569 82.2567 667.847C82.5067 667.097 82.6316 666.166 82.6316 665.056C82.6316 663.223 82.8538 661.64 83.2982 660.306C83.7703 658.946 84.4229 657.821 85.2561 656.932C86.0893 656.043 87.0752 655.377 88.2138 654.933C89.3803 654.488 90.6717 654.266 92.0881 654.266C93.31 654.266 94.407 654.46 95.3791 654.849C96.3789 655.21 97.2259 655.793 97.9202 656.599C98.6145 657.377 99.1422 658.39 99.5032 659.64C99.8921 660.862 100.086 662.334 100.086 664.056V674.054H92.5047C90.144 674.054 88.3111 673.693 87.0058 672.971C85.7005 672.221 84.7146 671.263 84.048 670.096C83.6592 671.263 82.9649 672.221 81.9651 672.971C80.9931 673.693 79.6461 674.054 77.9243 674.054H77.1327V670.721ZM96.3372 670.721V663.306C96.3372 662.5 96.2261 661.737 96.0039 661.015C95.8095 660.293 95.504 659.668 95.0875 659.14C94.6987 658.585 94.1988 658.154 93.5878 657.849C93.0046 657.543 92.3241 657.39 91.5465 657.39C90.6578 657.39 89.8941 657.557 89.2553 657.89C88.6443 658.224 88.1305 658.682 87.7139 659.265C87.3251 659.848 87.0335 660.529 86.8391 661.306C86.6725 662.084 86.5892 662.931 86.5892 663.847C86.5892 666.236 87.1168 667.985 88.1722 669.096C89.2553 670.179 90.9355 670.721 93.2128 670.721H96.3372ZM125.762 674.054C124.679 674.054 123.623 673.873 122.596 673.512C121.596 673.151 120.735 672.665 120.013 672.054C119.124 672.832 117.999 673.429 116.638 673.845C115.305 674.262 113.681 674.47 111.764 674.47C110.598 674.47 109.473 674.387 108.39 674.22C107.307 674.081 106.321 673.901 105.432 673.679L105.932 669.513C106.849 669.902 107.849 670.207 108.932 670.429C110.015 670.624 111.056 670.721 112.056 670.721C113.389 670.721 114.5 670.596 115.389 670.346C116.277 670.068 116.986 669.693 117.513 669.221C118.069 668.749 118.458 668.166 118.68 667.472C118.902 666.777 119.013 666.014 119.013 665.18V643.56H122.762V664.764C122.762 666.402 122.512 667.874 122.012 669.18C122.957 670.207 124.317 670.721 126.095 670.721H126.47V674.054H125.762ZM111.639 666.639L107.89 667.513V646.184C107.39 646.101 106.807 646.032 106.141 645.976C105.502 645.893 104.877 645.823 104.266 645.768V643.56C105.321 643.421 106.502 643.324 107.807 643.268C109.14 643.213 110.417 643.213 111.639 643.268V666.639ZM138.54 674.47C137.429 674.47 136.36 674.165 135.332 673.554C134.332 672.915 133.596 671.971 133.124 670.721C132.485 671.915 131.652 672.776 130.625 673.304C129.597 673.804 128.569 674.054 127.542 674.054H125.626V670.721H127.125C128.625 670.721 129.819 670.166 130.708 669.055C131.597 667.944 132.041 666.319 132.041 664.181V654.891H135.79V665.764C135.79 667.68 136.123 669.041 136.79 669.846C137.484 670.652 138.415 671.054 139.581 671.054C140.942 671.054 141.97 670.457 142.664 669.263C143.358 668.069 143.705 666.041 143.705 663.181V654.891H147.455V667.472C147.455 668.499 147.788 669.305 148.454 669.888C149.121 670.443 149.982 670.721 151.037 670.721H154.911V663.389C154.911 661.39 154.828 659.584 154.661 657.974C154.523 656.363 154.342 654.877 154.12 653.516L157.952 652.808C158.175 654.086 158.341 655.585 158.452 657.307C158.591 659.029 158.661 660.806 158.661 662.639V674.054H150.746C149.163 674.054 147.913 673.776 146.996 673.221C146.08 672.665 145.399 671.818 144.955 670.679C144.455 671.846 143.691 672.776 142.664 673.47C141.664 674.137 140.289 674.47 138.54 674.47ZM170.753 674.47C169.587 674.47 168.462 674.387 167.379 674.22C166.296 674.081 165.31 673.901 164.421 673.679L164.921 669.513C165.838 669.902 166.837 670.207 167.92 670.429C169.004 670.624 170.045 670.721 171.045 670.721C172.378 670.721 173.489 670.596 174.377 670.346C175.266 670.068 175.974 669.693 176.502 669.221C177.058 668.749 177.446 668.166 177.668 667.472C177.891 666.777 178.002 666.014 178.002 665.18V643.56H181.751V664.764C181.751 666.18 181.557 667.486 181.168 668.68C180.807 669.846 180.196 670.86 179.335 671.721C178.474 672.582 177.335 673.262 175.919 673.762C174.53 674.234 172.808 674.47 170.753 674.47ZM170.628 666.639L166.879 667.513V646.184C166.379 646.101 165.796 646.032 165.129 645.976C164.491 645.893 163.866 645.823 163.255 645.768V643.56C164.31 643.421 165.49 643.324 166.796 643.268C168.129 643.213 169.406 643.213 170.628 643.268V666.639ZM171.878 679.761C171.628 679.733 171.392 679.705 171.17 679.678C170.948 679.678 170.725 679.678 170.503 679.678C170.031 679.678 169.642 679.789 169.337 680.011C169.059 680.261 168.92 680.594 168.92 681.011C168.92 681.427 169.087 681.802 169.42 682.135C169.753 682.469 170.323 682.635 171.128 682.635H172.878V685.01H164.671V682.635C164.977 682.635 165.421 682.635 166.004 682.635C166.587 682.663 167.073 682.746 167.462 682.885C167.101 682.635 166.837 682.344 166.671 682.01C166.532 681.705 166.462 681.288 166.462 680.761C166.462 679.789 166.837 679.011 167.587 678.428C168.337 677.872 169.295 677.595 170.462 677.595C170.739 677.595 171.031 677.609 171.336 677.636C171.67 677.664 172.017 677.706 172.378 677.761L171.878 679.761ZM193.309 674.054H189.56V646.476C189.06 646.393 188.477 646.323 187.81 646.268C187.172 646.184 186.547 646.115 185.936 646.059V643.851C186.991 643.713 188.171 643.615 189.477 643.56C190.81 643.504 192.087 643.504 193.309 643.56V674.054ZM217.018 674.054C215.296 674.054 213.81 673.818 212.56 673.346C211.31 672.873 210.283 672.221 209.478 671.388C208.7 670.527 208.117 669.513 207.728 668.347C207.367 667.18 207.186 665.889 207.186 664.472C207.186 663 207.381 661.64 207.77 660.39C208.186 659.14 208.783 658.071 209.561 657.182C210.366 656.266 211.352 655.557 212.519 655.058C213.685 654.53 215.046 654.266 216.601 654.266C217.823 654.266 218.92 654.46 219.892 654.849C220.892 655.21 221.739 655.793 222.433 656.599C223.128 657.377 223.655 658.39 224.016 659.64C224.405 660.862 224.599 662.334 224.599 664.056V674.054H217.018ZM220.85 670.721V663.306C220.85 662.5 220.739 661.737 220.517 661.015C220.323 660.293 220.017 659.668 219.6 659.14C219.212 658.585 218.712 658.154 218.101 657.849C217.518 657.543 216.837 657.39 216.06 657.39C215.171 657.39 214.407 657.557 213.768 657.89C213.157 658.224 212.644 658.682 212.227 659.265C211.838 659.848 211.547 660.529 211.352 661.306C211.186 662.084 211.102 662.931 211.102 663.847C211.102 666.236 211.63 667.985 212.685 669.096C213.768 670.179 215.449 670.721 217.726 670.721H220.85ZM212.894 651.433C212.171 651.433 211.574 651.183 211.102 650.683C210.63 650.156 210.394 649.531 210.394 648.809C210.394 648.087 210.63 647.476 211.102 646.976C211.574 646.448 212.171 646.184 212.894 646.184C213.616 646.184 214.213 646.448 214.685 646.976C215.157 647.476 215.393 648.087 215.393 648.809C215.393 649.531 215.157 650.156 214.685 650.683C214.213 651.183 213.616 651.433 212.894 651.433ZM219.267 651.475C218.545 651.475 217.934 651.211 217.434 650.683C216.962 650.156 216.726 649.531 216.726 648.809C216.726 648.087 216.962 647.476 217.434 646.976C217.934 646.476 218.545 646.226 219.267 646.226C219.989 646.226 220.573 646.476 221.017 646.976C221.489 647.476 221.725 648.087 221.725 648.809C221.725 649.531 221.489 650.156 221.017 650.683C220.573 651.211 219.989 651.475 219.267 651.475ZM227.919 670.721H241.125C241.125 667.083 240.25 664.195 238.501 662.056C236.751 659.918 234.015 658.321 230.294 657.265L230.669 653.308C232.78 653.752 234.71 654.447 236.459 655.391C238.209 656.307 239.709 657.46 240.958 658.848C242.208 660.209 243.166 661.792 243.833 663.597C244.527 665.375 244.874 667.374 244.874 669.596V670.721H249.623V674.054H227.919V670.721ZM247.956 670.721H263.286V665.972C263.286 663.167 262.55 661.181 261.078 660.015C259.634 658.821 257.454 658.224 254.538 658.224C253.761 658.224 253.038 658.237 252.372 658.265C251.733 658.293 251.178 658.335 250.706 658.39L251.122 655.058C251.594 655.002 252.136 654.96 252.747 654.933C253.358 654.905 254.108 654.891 254.996 654.891C256.496 654.891 257.968 655.044 259.412 655.349C260.856 655.627 262.134 656.155 263.245 656.932C264.383 657.682 265.3 658.723 265.994 660.057C266.688 661.362 267.036 663.028 267.036 665.056V674.054H247.956V670.721ZM257.496 682.427C256.802 682.427 256.218 682.177 255.746 681.677C255.302 681.177 255.08 680.58 255.08 679.886C255.08 679.219 255.302 678.636 255.746 678.136C256.218 677.664 256.802 677.428 257.496 677.428C258.19 677.428 258.746 677.664 259.162 678.136C259.607 678.636 259.829 679.219 259.829 679.886C259.829 680.58 259.607 681.177 259.162 681.677C258.746 682.177 258.19 682.427 257.496 682.427ZM279.423 670.721C279.728 670.721 280.117 670.721 280.589 670.721C281.089 670.721 281.603 670.749 282.131 670.804C282.686 670.832 283.228 670.874 283.755 670.929C284.283 670.985 284.727 671.082 285.088 671.221C283.755 670.249 283.089 668.874 283.089 667.097C283.089 666.208 283.283 665.375 283.672 664.597C284.061 663.792 284.588 663.098 285.255 662.514C285.949 661.903 286.769 661.417 287.713 661.056C288.685 660.695 289.754 660.515 290.92 660.515C291.531 660.515 292.226 660.543 293.003 660.598C293.809 660.654 294.6 660.765 295.378 660.931L294.711 664.222C293.351 663.972 292.017 663.847 290.712 663.847C289.379 663.847 288.421 664.139 287.838 664.722C287.282 665.305 287.005 666.125 287.005 667.18C287.005 668.208 287.435 669.069 288.296 669.763C289.157 670.429 290.476 670.763 292.254 670.763H296.253V674.054H279.423V670.721ZM306.12 670.721H310.869V674.054H302.371V646.476C301.871 646.393 301.288 646.323 300.621 646.268C299.983 646.184 299.358 646.115 298.747 646.059V643.851C299.802 643.713 300.982 643.615 302.288 643.56C303.621 643.504 304.898 643.504 306.12 643.56V670.721ZM310.037 670.721H315.952V654.891H319.701V670.721H324.45V674.054H310.037V670.721ZM317.66 651.475C316.966 651.475 316.383 651.225 315.911 650.725C315.466 650.225 315.244 649.628 315.244 648.934C315.244 648.267 315.466 647.698 315.911 647.226C316.383 646.726 316.966 646.476 317.66 646.476C318.354 646.476 318.91 646.726 319.327 647.226C319.771 647.698 319.993 648.267 319.993 648.934C319.993 649.628 319.771 650.225 319.327 650.725C318.91 651.225 318.354 651.475 317.66 651.475ZM323.624 670.721H329.54V654.891H333.289V670.721H338.038V674.054H323.624V670.721ZM326.957 682.677C326.235 682.677 325.638 682.413 325.166 681.885C324.694 681.386 324.458 680.775 324.458 680.053C324.458 679.33 324.694 678.706 325.166 678.178C325.638 677.678 326.235 677.428 326.957 677.428C327.679 677.428 328.276 677.678 328.748 678.178C329.221 678.706 329.457 679.33 329.457 680.053C329.457 680.775 329.221 681.386 328.748 681.885C328.276 682.413 327.679 682.677 326.957 682.677ZM333.331 682.719C332.609 682.719 331.998 682.455 331.498 681.927C331.026 681.399 330.79 680.775 330.79 680.053C330.79 679.33 331.026 678.719 331.498 678.22C331.998 677.72 332.609 677.47 333.331 677.47C334.053 677.47 334.636 677.72 335.081 678.22C335.553 678.719 335.789 679.33 335.789 680.053C335.789 680.775 335.553 681.399 335.081 681.927C334.636 682.455 334.053 682.719 333.331 682.719ZM337.212 670.721H338.545C339.073 670.721 339.587 670.638 340.087 670.471C340.587 670.304 341.031 670.013 341.42 669.596C341.809 669.152 342.114 668.569 342.336 667.847C342.586 667.097 342.711 666.166 342.711 665.056C342.711 663.223 342.933 661.64 343.378 660.306C343.85 658.946 344.502 657.821 345.336 656.932C346.169 656.043 347.155 655.377 348.293 654.933C349.46 654.488 350.751 654.266 352.168 654.266C353.39 654.266 354.487 654.46 355.459 654.849C356.458 655.21 357.305 655.793 358 656.599C358.694 657.377 359.222 658.39 359.583 659.64C359.972 660.862 360.166 662.334 360.166 664.056V674.054H352.584C350.224 674.054 348.391 673.693 347.085 672.971C345.78 672.221 344.794 671.263 344.128 670.096C343.739 671.263 343.044 672.221 342.045 672.971C341.073 673.693 339.726 674.054 338.004 674.054H337.212V670.721ZM356.417 670.721V663.306C356.417 662.5 356.306 661.737 356.083 661.015C355.889 660.293 355.584 659.668 355.167 659.14C354.778 658.585 354.278 658.154 353.667 657.849C353.084 657.543 352.404 657.39 351.626 657.39C350.737 657.39 349.974 657.557 349.335 657.89C348.724 658.224 348.21 658.682 347.793 659.265C347.405 659.848 347.113 660.529 346.919 661.306C346.752 662.084 346.669 662.931 346.669 663.847C346.669 666.236 347.196 667.985 348.252 669.096C349.335 670.179 351.015 670.721 353.292 670.721H356.417Z" fill="white"/>
<defs>
<radialGradient id="paint0_radial_346_6319" cx="0" cy="0" r="1" gradientUnits="userSpaceOnUse" gradientTransform="translate(632.537 676.691) rotate(1.48789) scale(928.065 928.065)">
<stop stop-color="white"/>
<stop offset="0.53" stop-color="white"/>
<stop offset="0.68" stop-color="#FCFCFC"/>
<stop offset="0.76" stop-color="#F5F5F5"/>
<stop offset="0.82" stop-color="#E8E8E8"/>
<stop offset="0.87" stop-color="#D5D6D7"/>
<stop offset="0.91" stop-color="#BDBEBF"/>
<stop offset="0.95" stop-color="#A0A1A3"/>
<stop offset="0.98" stop-color="#7E7F81"/>
<stop offset="1" stop-color="#6D6E71"/>
</radialGradient>
</defs>
</svg>
