<svg width="1725" height="1080" viewBox="0 0 1725 1080" fill="none" xmlns="http://www.w3.org/2000/svg">
<g clip-path="url(#clip0_346_7225)">
<path d="M2612.93 14.4435L2345.58 -4.67993L2078.82 -309.491L2053.32 -435.606L1989.36 -472.456L1895.53 -619.889L1695.51 -676.27L1523.97 -689.615L1109.78 -1006.98L994.236 -1033.28L777.676 -975.701L869.518 -856.961L665.512 -722.291L545.775 -697.181L575.267 -599.959L769.311 -186.768L894.021 -53.6857L935.66 46.7206L930.081 185.781L1078.3 341.97L1327.34 739.629L1375.55 627.266L1816.83 670.294L1894.13 550.365L1996.94 496.171L2301.75 443.182L2618.51 313.883L2674.3 83.5789L2612.93 14.4435Z" fill="#EEEEEE" fill-opacity="0.09"/>
<path d="M1199.42 481.585L1216.57 482.311L1220.78 486.934L1213.55 513.967L1213.79 519.823L1216.33 522.015L1227.76 521.953L1235.73 524.054L1239.07 529.78L1240.67 541.166L1243.07 543.998L1274.17 550.206L1278.29 555.627L1282.21 570.642L1292.72 584.478L1298.15 587.693L1303.55 587.978L1306.05 585.797L1316.2 561.183L1321.93 553.915L1334.02 547.382L1342.88 545.265L1346.04 550.088L1343.07 566.745L1355.63 575.663L1363.02 594.708L1365.29 597.225L1376.12 601.202L1381.93 613.712L1384.83 619.484L1375.91 629.453L1374.92 638.489L1380.25 642.787L1379.9 645.25L1382.76 647.035L1383.36 649.757L1365.57 652.583L1366.11 659.896L1359.59 664.21L1358.99 669.736L1356.44 670.612L1355.72 673.904L1355.84 675.276L1359.8 674.327L1365.72 677.029L1367.88 683.742L1365.27 686.858L1356.85 684.61L1356.24 695.364L1350.14 697.178L1349.69 699.428L1354.11 707.408L1359.77 709.572L1360.57 712.868L1364.12 715.282L1362.56 719.926L1363.89 723.434L1358.42 723.038L1356.73 725.925L1357.13 736.037L1353.89 736.137L1346.68 730.8L1344.07 731.087L1345.23 734.748L1339.76 744.52L1339.39 748.564L1321.99 750.47L1314.97 754.047L1315.05 764.52L1308.37 765.009L1290.39 760.409L1289.52 757.626L1292.76 751.244L1288.84 746.204L1286.91 737.337L1291.02 724.193L1289.96 722.904L1288.51 720.376L1289.05 716.851L1289.37 714.717L1281.65 701.498L1276.7 698.1L1274.12 698.681L1273.43 693.349L1271.59 692.365L1269.16 690.773L1273.76 687.761L1272.54 682.216L1274.77 675.372L1270.17 670.374L1262.37 666.587L1258.4 658.753L1260.29 651.93L1258.63 650.987L1254.77 647.831L1253.64 648.828L1256.81 656.82L1253.94 658.966L1253 666.479L1251.33 669.899L1252.75 655.681L1250.84 643.076L1251.17 627.035L1249.25 625.554L1252.95 617.932L1252.76 611.608L1247.51 609.343L1242.97 599.082L1236.36 592.297L1232.62 591.9L1232.73 586.17L1230.26 582.17L1205.47 558.316L1203.63 554.026L1198.28 551.979L1194.21 547.432L1190.24 546.699L1191.41 543.793L1179.07 528.496L1181.68 528.833L1178.34 524.834L1179.97 520.927L1177.27 523.591L1175.6 522.069L1175.45 519.925L1177.79 519.532L1177.56 515.596L1172.57 512.766L1170.71 505.591L1179.96 494.784L1194.52 488.99L1199.42 481.585Z" fill="#00AFA9"/>
<path d="M1288.02 733.843L1310.95 764.814L1314.75 764.552L1289.19 730.073L1288.02 733.843Z" fill="#DBDADA"/>
<path d="M1250.84 643.076L1250.94 643.721L1254.3 648.254L1254.77 647.832L1258.63 650.987L1260.29 651.93L1259.39 655.136L1272.79 673.256L1274.77 675.373L1274.65 675.728L1329.41 749.665L1333.1 749.235L1250.97 638.357L1250.84 643.076Z" fill="#DBDADA"/>
<path d="M1174.79 500.788L1345.25 730.964L1346.63 730.79L1352.12 734.833L1176.93 498.287L1174.79 500.788Z" fill="#DBDADA"/>
<path d="M1363.86 715.994L1364.12 715.283L1362.58 714.223L1363.86 715.994ZM1360.1 710.893L1359.77 709.573L1358.84 709.223L1360.09 710.939L1360.1 710.893ZM1220.17 522.002L1350.09 697.407L1350.14 697.179L1353.21 696.277L1224.15 521.973L1220.17 522.002ZM1195.09 488.158L1213.74 513.338L1214.81 509.355L1196.98 485.266L1195.1 488.112L1195.09 488.158Z" fill="#DBDADA"/>
<path d="M1366.49 679.406L1365.72 677.03L1364.25 676.32L1366.5 679.36L1366.49 679.406ZM1298.58 587.694L1359.03 669.315L1359.54 664.632L1302.71 587.888L1298.54 587.684L1298.58 587.694ZM1270.22 549.382L1280.26 562.97L1278.35 555.592L1274.22 550.171L1270.22 549.382Z" fill="#DBDADA"/>
<path d="M1313.44 567.768L1375.16 651.06L1378.73 650.508L1314.88 564.298L1313.44 567.768Z" fill="#DBDADA"/>
<path d="M1382.98 621.568L1384.82 619.529L1383.49 616.884L1370.35 599.109L1365.29 597.27L1363.48 595.24L1382.98 621.568ZM1329.72 549.691L1362.88 594.484L1358.53 583.161L1350.03 571.69L1343.02 566.735L1343.69 563.092L1332.61 548.124L1329.78 549.656L1329.72 549.691Z" fill="#DBDADA"/>
<circle cx="1188.5" cy="524.287" r="34.7421" fill="#CDDC29" fill-opacity="0.2"/>
<circle cx="1188.5" cy="524.286" r="35.034" fill="#CDDC29"/>
<path d="M806.905 615.915C806.239 615.915 805.656 615.86 805.156 615.748C804.656 615.665 804.212 615.54 803.823 615.374V612.207C804.267 612.319 804.739 612.416 805.239 612.499C805.739 612.582 806.267 612.624 806.822 612.624C807.516 612.624 808.169 612.485 808.78 612.207C809.419 611.93 809.933 611.444 810.321 610.749C810.71 610.055 810.905 609.083 810.905 607.833V578.256H814.654V607.542C814.654 609.458 814.334 611.027 813.696 612.249C813.057 613.499 812.154 614.415 810.988 614.999C809.822 615.61 808.461 615.915 806.905 615.915ZM830.461 585.296C833.182 585.296 835.196 585.893 836.501 587.088C837.806 588.282 838.459 590.184 838.459 592.795V608H835.793L835.085 604.834H834.918C834.279 605.639 833.613 606.32 832.918 606.875C832.252 607.403 831.474 607.792 830.586 608.042C829.725 608.292 828.669 608.417 827.42 608.417C826.086 608.417 824.878 608.181 823.795 607.708C822.74 607.236 821.907 606.514 821.296 605.542C820.685 604.542 820.379 603.293 820.379 601.793C820.379 599.571 821.254 597.863 823.004 596.669C824.753 595.447 827.447 594.78 831.085 594.669L834.876 594.544V593.211C834.876 591.351 834.474 590.059 833.668 589.337C832.863 588.615 831.724 588.254 830.252 588.254C829.086 588.254 827.975 588.434 826.92 588.796C825.864 589.129 824.878 589.518 823.962 589.962L822.837 587.213C823.809 586.685 824.962 586.24 826.295 585.879C827.628 585.491 829.016 585.296 830.461 585.296ZM831.544 597.211C828.766 597.322 826.836 597.766 825.753 598.544C824.698 599.321 824.17 600.418 824.17 601.835C824.17 603.084 824.545 604.001 825.295 604.584C826.073 605.167 827.058 605.459 828.253 605.459C830.141 605.459 831.71 604.945 832.96 603.917C834.21 602.862 834.835 601.251 834.835 599.085V597.086L831.544 597.211ZM859.769 608H843.439V605.584L855.437 588.504H844.147V585.671H859.478V588.421L847.647 605.167H859.769V608ZM873.38 585.296C876.102 585.296 878.115 585.893 879.42 587.088C880.726 588.282 881.378 590.184 881.378 592.795V608H878.712L878.004 604.834H877.837C877.199 605.639 876.532 606.32 875.838 606.875C875.171 607.403 874.394 607.792 873.505 608.042C872.644 608.292 871.589 608.417 870.339 608.417C869.006 608.417 867.798 608.181 866.715 607.708C865.659 607.236 864.826 606.514 864.215 605.542C863.604 604.542 863.299 603.293 863.299 601.793C863.299 599.571 864.174 597.863 865.923 596.669C867.673 595.447 870.367 594.78 874.005 594.669L877.796 594.544V593.211C877.796 591.351 877.393 590.059 876.588 589.337C875.782 588.615 874.644 588.254 873.172 588.254C872.005 588.254 870.894 588.434 869.839 588.796C868.784 589.129 867.798 589.518 866.881 589.962L865.757 587.213C866.729 586.685 867.881 586.24 869.214 585.879C870.547 585.491 871.936 585.296 873.38 585.296ZM874.463 597.211C871.686 597.322 869.756 597.766 868.673 598.544C867.617 599.321 867.09 600.418 867.09 601.835C867.09 603.084 867.465 604.001 868.214 604.584C868.992 605.167 869.978 605.459 871.172 605.459C873.061 605.459 874.63 604.945 875.88 603.917C877.129 602.862 877.754 601.251 877.754 599.085V597.086L874.463 597.211ZM899.023 585.255C901.689 585.255 903.702 585.907 905.063 587.213C906.424 588.49 907.104 590.573 907.104 593.461V608H903.48V593.711C903.48 591.906 903.077 590.559 902.272 589.67C901.467 588.782 900.203 588.337 898.481 588.337C896.009 588.337 894.301 589.032 893.357 590.42C892.413 591.809 891.941 593.808 891.941 596.419V608H888.275V585.671H891.233L891.774 588.712H891.982C892.482 587.935 893.093 587.296 893.815 586.796C894.565 586.268 895.384 585.879 896.273 585.63C897.162 585.38 898.078 585.255 899.023 585.255ZM936.346 581.13C934.763 581.13 933.333 581.408 932.055 581.964C930.778 582.491 929.694 583.283 928.806 584.338C927.917 585.366 927.237 586.629 926.764 588.129C926.292 589.601 926.056 591.267 926.056 593.128C926.056 595.572 926.431 597.697 927.181 599.502C927.959 601.307 929.097 602.696 930.597 603.668C932.124 604.64 934.027 605.126 936.304 605.126C937.609 605.126 938.845 605.014 940.012 604.792C941.178 604.57 942.317 604.292 943.428 603.959V607.208C942.317 607.625 941.164 607.931 939.97 608.125C938.804 608.319 937.401 608.417 935.763 608.417C932.735 608.417 930.208 607.792 928.181 606.542C926.153 605.292 924.626 603.515 923.598 601.21C922.599 598.905 922.099 596.197 922.099 593.086C922.099 590.837 922.404 588.782 923.015 586.921C923.654 585.06 924.57 583.449 925.765 582.089C926.987 580.728 928.486 579.686 930.264 578.964C932.041 578.214 934.082 577.839 936.388 577.839C937.915 577.839 939.387 577.992 940.803 578.298C942.22 578.603 943.483 579.034 944.594 579.589L943.095 582.755C942.178 582.338 941.15 581.964 940.012 581.63C938.901 581.297 937.679 581.13 936.346 581.13ZM953.086 585.671V608H949.42V585.671H953.086ZM951.294 577.298C951.85 577.298 952.336 577.492 952.752 577.881C953.197 578.242 953.419 578.825 953.419 579.631C953.419 580.408 953.197 580.992 952.752 581.38C952.336 581.769 951.85 581.964 951.294 581.964C950.683 581.964 950.17 581.769 949.753 581.38C949.336 580.992 949.128 580.408 949.128 579.631C949.128 578.825 949.336 578.242 949.753 577.881C950.17 577.492 950.683 577.298 951.294 577.298ZM967.617 605.417C968.172 605.417 968.741 605.376 969.325 605.292C969.908 605.181 970.38 605.07 970.741 604.959V607.75C970.352 607.944 969.797 608.097 969.075 608.208C968.353 608.347 967.658 608.417 966.992 608.417C965.825 608.417 964.742 608.222 963.742 607.833C962.77 607.417 961.979 606.709 961.368 605.709C960.757 604.709 960.451 603.306 960.451 601.501V588.504H957.285V586.754L960.493 585.296L961.951 580.547H964.117V585.671H970.574V588.504H964.117V601.418C964.117 602.779 964.437 603.793 965.075 604.459C965.742 605.098 966.589 605.417 967.617 605.417ZM971.713 585.671H975.629L980.461 598.377C980.739 599.127 980.989 599.849 981.211 600.543C981.461 601.237 981.683 601.918 981.877 602.584C982.072 603.223 982.225 603.848 982.336 604.459H982.502C982.669 603.765 982.933 602.862 983.294 601.751C983.655 600.613 984.03 599.474 984.419 598.335L988.959 585.671H992.917L983.294 611.083C982.766 612.471 982.141 613.679 981.419 614.707C980.725 615.762 979.864 616.568 978.836 617.123C977.837 617.706 976.615 617.998 975.17 617.998C974.504 617.998 973.921 617.956 973.421 617.873C972.921 617.817 972.49 617.748 972.129 617.665V614.749C972.435 614.804 972.796 614.86 973.212 614.915C973.657 614.971 974.115 614.999 974.587 614.999C975.448 614.999 976.184 614.832 976.795 614.499C977.434 614.193 977.975 613.735 978.42 613.124C978.864 612.541 979.239 611.846 979.545 611.041L980.711 608.083L971.713 585.671ZM1015.81 588.504H1010.19V608H1006.52V588.504H1002.6V586.796L1006.52 585.546V584.255C1006.52 582.338 1006.8 580.783 1007.35 579.589C1007.94 578.395 1008.77 577.52 1009.85 576.965C1010.94 576.409 1012.24 576.131 1013.77 576.131C1014.66 576.131 1015.46 576.215 1016.18 576.381C1016.93 576.52 1017.57 576.687 1018.1 576.881L1017.14 579.756C1016.7 579.617 1016.18 579.478 1015.6 579.339C1015.02 579.2 1014.42 579.131 1013.81 579.131C1012.59 579.131 1011.67 579.547 1011.06 580.381C1010.48 581.186 1010.19 582.463 1010.19 584.213V585.671H1015.81V588.504ZM1039.25 596.794C1039.25 598.655 1039 600.307 1038.5 601.751C1038.03 603.168 1037.34 604.376 1036.42 605.376C1035.53 606.375 1034.43 607.139 1033.13 607.667C1031.85 608.167 1030.42 608.417 1028.84 608.417C1027.37 608.417 1026.01 608.167 1024.76 607.667C1023.51 607.139 1022.42 606.375 1021.51 605.376C1020.59 604.376 1019.87 603.168 1019.34 601.751C1018.84 600.307 1018.59 598.655 1018.59 596.794C1018.59 594.322 1019.01 592.239 1019.84 590.545C1020.67 588.823 1021.87 587.518 1023.42 586.629C1024.98 585.713 1026.82 585.255 1028.96 585.255C1030.99 585.255 1032.77 585.713 1034.3 586.629C1035.85 587.518 1037.06 588.823 1037.92 590.545C1038.81 592.239 1039.25 594.322 1039.25 596.794ZM1022.38 596.794C1022.38 598.544 1022.6 600.071 1023.05 601.376C1023.52 602.654 1024.24 603.64 1025.21 604.334C1026.19 605.028 1027.42 605.376 1028.92 605.376C1030.42 605.376 1031.66 605.028 1032.63 604.334C1033.6 603.64 1034.31 602.654 1034.75 601.376C1035.23 600.071 1035.46 598.544 1035.46 596.794C1035.46 595.017 1035.23 593.503 1034.75 592.253C1034.28 591.003 1033.56 590.045 1032.59 589.379C1031.64 588.684 1030.41 588.337 1028.88 588.337C1026.6 588.337 1024.95 589.087 1023.92 590.587C1022.9 592.087 1022.38 594.156 1022.38 596.794ZM1055.48 585.255C1055.89 585.255 1056.34 585.282 1056.81 585.338C1057.31 585.366 1057.74 585.421 1058.1 585.505L1057.64 588.879C1057.28 588.796 1056.88 588.726 1056.44 588.671C1056.02 588.615 1055.62 588.587 1055.23 588.587C1054.37 588.587 1053.55 588.768 1052.77 589.129C1051.99 589.49 1051.3 590.004 1050.69 590.67C1050.08 591.309 1049.59 592.087 1049.23 593.003C1048.9 593.919 1048.73 594.947 1048.73 596.086V608H1045.06V585.671H1048.06L1048.48 589.754H1048.65C1049.12 588.921 1049.69 588.171 1050.35 587.504C1051.02 586.81 1051.78 586.268 1052.64 585.879C1053.51 585.463 1054.45 585.255 1055.48 585.255ZM1079.72 578.256C1083.6 578.256 1086.44 579.02 1088.22 580.547C1089.99 582.075 1090.88 584.227 1090.88 587.004C1090.88 588.226 1090.67 589.407 1090.26 590.545C1089.87 591.656 1089.21 592.656 1088.3 593.545C1087.38 594.433 1086.16 595.141 1084.63 595.669C1083.1 596.169 1081.23 596.419 1079.01 596.419H1075.59V608H1071.84V578.256H1079.72ZM1079.38 581.464H1075.59V593.211H1078.59C1080.48 593.211 1082.05 593.017 1083.3 592.628C1084.55 592.212 1085.48 591.559 1086.09 590.67C1086.7 589.781 1087.01 588.615 1087.01 587.171C1087.01 585.255 1086.4 583.824 1085.17 582.88C1083.95 581.936 1082.02 581.464 1079.38 581.464ZM1106.98 585.255C1107.4 585.255 1107.84 585.282 1108.31 585.338C1108.81 585.366 1109.24 585.421 1109.61 585.505L1109.15 588.879C1108.79 588.796 1108.38 588.726 1107.94 588.671C1107.52 588.615 1107.12 588.587 1106.73 588.587C1105.87 588.587 1105.05 588.768 1104.27 589.129C1103.5 589.49 1102.8 590.004 1102.19 590.67C1101.58 591.309 1101.09 592.087 1100.73 593.003C1100.4 593.919 1100.23 594.947 1100.23 596.086V608H1096.57V585.671H1099.57L1099.98 589.754H1100.15C1100.62 588.921 1101.19 588.171 1101.86 587.504C1102.52 586.81 1103.29 586.268 1104.15 585.879C1105.01 585.463 1105.95 585.255 1106.98 585.255ZM1117.44 585.671V608H1113.77V585.671H1117.44ZM1115.65 577.298C1116.2 577.298 1116.69 577.492 1117.11 577.881C1117.55 578.242 1117.77 578.825 1117.77 579.631C1117.77 580.408 1117.55 580.992 1117.11 581.38C1116.69 581.769 1116.2 581.964 1115.65 581.964C1115.04 581.964 1114.52 581.769 1114.11 581.38C1113.69 580.992 1113.48 580.408 1113.48 579.631C1113.48 578.825 1113.69 578.242 1114.11 577.881C1114.52 577.492 1115.04 577.298 1115.65 577.298ZM1149.01 585.255C1151.54 585.255 1153.43 585.907 1154.68 587.213C1155.93 588.49 1156.55 590.573 1156.55 593.461V608H1152.93V593.628C1152.93 591.878 1152.55 590.559 1151.8 589.67C1151.08 588.782 1149.94 588.337 1148.38 588.337C1146.22 588.337 1144.66 588.962 1143.72 590.212C1142.8 591.462 1142.34 593.281 1142.34 595.669V608H1138.72V593.628C1138.72 592.461 1138.55 591.489 1138.22 590.712C1137.89 589.906 1137.39 589.309 1136.72 588.921C1136.05 588.532 1135.19 588.337 1134.14 588.337C1132.64 588.337 1131.46 588.657 1130.6 589.295C1129.74 589.906 1129.11 590.809 1128.72 592.003C1128.36 593.197 1128.18 594.669 1128.18 596.419V608H1124.51V585.671H1127.47L1128.01 588.712H1128.22C1128.69 587.935 1129.26 587.296 1129.93 586.796C1130.62 586.268 1131.39 585.879 1132.22 585.63C1133.05 585.38 1133.92 585.255 1134.8 585.255C1136.53 585.255 1137.96 585.56 1139.1 586.171C1140.26 586.782 1141.11 587.726 1141.64 589.004H1141.84C1142.59 587.726 1143.61 586.782 1144.89 586.171C1146.19 585.56 1147.57 585.255 1149.01 585.255ZM1171.9 585.296C1174.63 585.296 1176.64 585.893 1177.94 587.088C1179.25 588.282 1179.9 590.184 1179.9 592.795V608H1177.24L1176.53 604.834H1176.36C1175.72 605.639 1175.06 606.32 1174.36 606.875C1173.7 607.403 1172.92 607.792 1172.03 608.042C1171.17 608.292 1170.11 608.417 1168.86 608.417C1167.53 608.417 1166.32 608.181 1165.24 607.708C1164.18 607.236 1163.35 606.514 1162.74 605.542C1162.13 604.542 1161.82 603.293 1161.82 601.793C1161.82 599.571 1162.7 597.863 1164.45 596.669C1166.2 595.447 1168.89 594.78 1172.53 594.669L1176.32 594.544V593.211C1176.32 591.351 1175.92 590.059 1175.11 589.337C1174.31 588.615 1173.17 588.254 1171.7 588.254C1170.53 588.254 1169.42 588.434 1168.36 588.796C1167.31 589.129 1166.32 589.518 1165.41 589.962L1164.28 587.213C1165.25 586.685 1166.41 586.24 1167.74 585.879C1169.07 585.491 1170.46 585.296 1171.9 585.296ZM1172.99 597.211C1170.21 597.322 1168.28 597.766 1167.2 598.544C1166.14 599.321 1165.61 600.418 1165.61 601.835C1165.61 603.084 1165.99 604.001 1166.74 604.584C1167.52 605.167 1168.5 605.459 1169.7 605.459C1171.58 605.459 1173.15 604.945 1174.4 603.917C1175.65 602.862 1176.28 601.251 1176.28 599.085V597.086L1172.99 597.211ZM1197.21 585.255C1197.63 585.255 1198.07 585.282 1198.55 585.338C1199.05 585.366 1199.48 585.421 1199.84 585.505L1199.38 588.879C1199.02 588.796 1198.62 588.726 1198.17 588.671C1197.75 588.615 1197.35 588.587 1196.96 588.587C1196.1 588.587 1195.28 588.768 1194.51 589.129C1193.73 589.49 1193.03 590.004 1192.42 590.67C1191.81 591.309 1191.33 592.087 1190.96 593.003C1190.63 593.919 1190.46 594.947 1190.46 596.086V608H1186.8V585.671H1189.8L1190.21 589.754H1190.38C1190.85 588.921 1191.42 588.171 1192.09 587.504C1192.76 586.81 1193.52 586.268 1194.38 585.879C1195.24 585.463 1196.19 585.255 1197.21 585.255ZM1200.51 585.671H1204.42L1209.26 598.377C1209.53 599.127 1209.78 599.849 1210.01 600.543C1210.26 601.237 1210.48 601.918 1210.67 602.584C1210.87 603.223 1211.02 603.848 1211.13 604.459H1211.3C1211.46 603.765 1211.73 602.862 1212.09 601.751C1212.45 600.613 1212.82 599.474 1213.21 598.335L1217.75 585.671H1221.71L1212.09 611.083C1211.56 612.471 1210.94 613.679 1210.21 614.707C1209.52 615.762 1208.66 616.568 1207.63 617.123C1206.63 617.706 1205.41 617.998 1203.97 617.998C1203.3 617.998 1202.72 617.956 1202.22 617.873C1201.72 617.817 1201.29 617.748 1200.92 617.665V614.749C1201.23 614.804 1201.59 614.86 1202.01 614.915C1202.45 614.971 1202.91 614.999 1203.38 614.999C1204.24 614.999 1204.98 614.832 1205.59 614.499C1206.23 614.193 1206.77 613.735 1207.21 613.124C1207.66 612.541 1208.03 611.846 1208.34 611.041L1209.51 608.083L1200.51 585.671ZM809.998 629.296C812.719 629.296 814.733 629.893 816.038 631.088C817.343 632.282 817.996 634.184 817.996 636.795V652H815.33L814.622 648.834H814.455C813.816 649.639 813.15 650.32 812.455 650.875C811.789 651.403 811.011 651.792 810.123 652.042C809.262 652.292 808.206 652.417 806.957 652.417C805.623 652.417 804.415 652.181 803.332 651.708C802.277 651.236 801.444 650.514 800.833 649.542C800.222 648.542 799.916 647.293 799.916 645.793C799.916 643.571 800.791 641.863 802.541 640.669C804.29 639.447 806.984 638.78 810.622 638.669L814.413 638.544V637.211C814.413 635.351 814.011 634.059 813.205 633.337C812.4 632.615 811.261 632.254 809.789 632.254C808.623 632.254 807.512 632.434 806.457 632.796C805.401 633.129 804.415 633.518 803.499 633.962L802.374 631.213C803.346 630.685 804.499 630.24 805.832 629.879C807.165 629.491 808.553 629.296 809.998 629.296ZM811.081 641.211C808.303 641.322 806.373 641.766 805.29 642.544C804.235 643.321 803.707 644.418 803.707 645.835C803.707 647.084 804.082 648.001 804.832 648.584C805.61 649.167 806.595 649.459 807.79 649.459C809.678 649.459 811.247 648.945 812.497 647.917C813.747 646.862 814.372 645.251 814.372 643.085V641.086L811.081 641.211ZM835.64 629.255C838.306 629.255 840.32 629.907 841.681 631.213C843.042 632.49 843.722 634.573 843.722 637.461V652H840.098V637.711C840.098 635.906 839.695 634.559 838.89 633.67C838.084 632.782 836.821 632.337 835.099 632.337C832.627 632.337 830.919 633.032 829.975 634.42C829.03 635.809 828.558 637.808 828.558 640.419V652H824.892V629.671H827.85L828.392 632.712H828.6C829.1 631.935 829.711 631.296 830.433 630.796C831.183 630.268 832.002 629.879 832.891 629.63C833.779 629.38 834.696 629.255 835.64 629.255ZM858.559 652.417C855.782 652.417 853.56 651.458 851.894 649.542C850.227 647.598 849.394 644.71 849.394 640.877C849.394 637.045 850.227 634.156 851.894 632.212C853.588 630.24 855.824 629.255 858.601 629.255C859.767 629.255 860.781 629.407 861.642 629.713C862.503 629.991 863.253 630.379 863.891 630.879C864.53 631.379 865.072 631.935 865.516 632.546H865.766C865.738 632.185 865.683 631.657 865.599 630.963C865.544 630.24 865.516 629.671 865.516 629.255V620.34H869.182V652H866.224L865.683 649.001H865.516C865.072 649.639 864.53 650.223 863.891 650.75C863.253 651.25 862.489 651.653 861.6 651.958C860.739 652.264 859.726 652.417 858.559 652.417ZM859.142 649.376C861.503 649.376 863.155 648.737 864.1 647.459C865.072 646.154 865.558 644.196 865.558 641.585V640.919C865.558 638.142 865.099 636.017 864.183 634.545C863.266 633.045 861.572 632.296 859.101 632.296C857.129 632.296 855.643 633.087 854.643 634.67C853.671 636.225 853.185 638.322 853.185 640.961C853.185 643.627 853.671 645.696 854.643 647.168C855.643 648.64 857.143 649.376 859.142 649.376ZM909.674 636.836C909.674 640.169 909.049 642.96 907.8 645.21C906.578 647.459 904.814 649.153 902.509 650.292C900.204 651.431 897.413 652 894.136 652H885.846V622.256H895.01C898.01 622.256 900.607 622.811 902.801 623.922C904.995 625.033 906.689 626.672 907.883 628.838C909.077 630.976 909.674 633.643 909.674 636.836ZM905.717 636.961C905.717 634.323 905.272 632.157 904.384 630.463C903.523 628.769 902.245 627.519 900.551 626.713C898.885 625.88 896.857 625.464 894.469 625.464H889.595V648.792H893.636C897.663 648.792 900.676 647.806 902.676 645.835C904.703 643.835 905.717 640.877 905.717 636.961ZM935.189 640.794C935.189 642.655 934.939 644.307 934.439 645.751C933.967 647.168 933.272 648.376 932.356 649.376C931.467 650.375 930.37 651.139 929.065 651.667C927.787 652.167 926.357 652.417 924.774 652.417C923.302 652.417 921.941 652.167 920.691 651.667C919.442 651.139 918.359 650.375 917.442 649.376C916.526 648.376 915.804 647.168 915.276 645.751C914.776 644.307 914.526 642.655 914.526 640.794C914.526 638.322 914.943 636.239 915.776 634.545C916.609 632.823 917.803 631.518 919.358 630.629C920.914 629.713 922.76 629.255 924.899 629.255C926.926 629.255 928.704 629.713 930.231 630.629C931.786 631.518 932.995 632.823 933.855 634.545C934.744 636.239 935.189 638.322 935.189 640.794ZM918.317 640.794C918.317 642.544 918.539 644.071 918.983 645.376C919.456 646.654 920.178 647.64 921.15 648.334C922.122 649.028 923.358 649.376 924.857 649.376C926.357 649.376 927.593 649.028 928.565 648.334C929.537 647.64 930.245 646.654 930.689 645.376C931.162 644.071 931.398 642.544 931.398 640.794C931.398 639.017 931.162 637.503 930.689 636.253C930.217 635.003 929.495 634.045 928.523 633.379C927.579 632.684 926.343 632.337 924.816 632.337C922.538 632.337 920.886 633.087 919.858 634.587C918.831 636.087 918.317 638.156 918.317 640.794ZM954.599 639.378C954.432 638.794 954.265 638.225 954.099 637.67C953.932 637.086 953.779 636.545 953.641 636.045C953.529 635.517 953.418 635.031 953.307 634.587C953.196 634.142 953.113 633.768 953.057 633.462H952.891C952.835 633.768 952.752 634.142 952.641 634.587C952.557 635.031 952.446 635.517 952.307 636.045C952.196 636.573 952.058 637.128 951.891 637.711C951.752 638.267 951.585 638.836 951.391 639.419L947.392 651.958H943.226L937.102 629.63H940.893L943.976 641.544C944.198 642.349 944.406 643.168 944.601 644.002C944.795 644.807 944.962 645.585 945.101 646.334C945.267 647.057 945.378 647.681 945.434 648.209H945.601C945.684 647.876 945.781 647.459 945.892 646.959C946.003 646.459 946.114 645.932 946.225 645.376C946.364 644.821 946.503 644.265 946.642 643.71C946.809 643.155 946.961 642.655 947.1 642.21L951.058 629.63H955.057L958.89 642.21C959.084 642.849 959.278 643.529 959.473 644.252C959.695 644.974 959.889 645.682 960.056 646.376C960.223 647.043 960.334 647.64 960.389 648.167H960.556C960.611 647.695 960.709 647.112 960.847 646.418C961.014 645.696 961.195 644.918 961.389 644.085C961.611 643.224 961.833 642.377 962.056 641.544L965.18 629.63H968.929L962.722 651.958H958.431L954.599 639.378ZM983.682 629.255C986.348 629.255 988.361 629.907 989.722 631.213C991.083 632.49 991.763 634.573 991.763 637.461V652H988.139V637.711C988.139 635.906 987.736 634.559 986.931 633.67C986.126 632.782 984.862 632.337 983.14 632.337C980.668 632.337 978.96 633.032 978.016 634.42C977.072 635.809 976.6 637.808 976.6 640.419V652H972.934V629.671H975.892L976.433 632.712H976.641C977.141 631.935 977.752 631.296 978.474 630.796C979.224 630.268 980.044 629.879 980.932 629.63C981.821 629.38 982.737 629.255 983.682 629.255ZM1013.22 645.835C1013.22 647.279 1012.86 648.487 1012.14 649.459C1011.42 650.431 1010.39 651.167 1009.06 651.667C1007.73 652.167 1006.14 652.417 1004.31 652.417C1002.75 652.417 1001.41 652.292 1000.27 652.042C999.158 651.792 998.172 651.445 997.311 651V647.668C998.2 648.112 999.269 648.528 1000.52 648.917C1001.8 649.278 1003.09 649.459 1004.39 649.459C1006.25 649.459 1007.6 649.167 1008.43 648.584C1009.27 647.973 1009.68 647.168 1009.68 646.168C1009.68 645.612 1009.53 645.112 1009.23 644.668C1008.92 644.224 1008.36 643.779 1007.56 643.335C1006.78 642.891 1005.66 642.391 1004.18 641.835C1002.74 641.28 1001.5 640.724 1000.48 640.169C999.449 639.614 998.658 638.947 998.102 638.169C997.547 637.392 997.269 636.392 997.269 635.17C997.269 633.282 998.033 631.824 999.56 630.796C1001.12 629.768 1003.14 629.255 1005.64 629.255C1007 629.255 1008.27 629.393 1009.43 629.671C1010.63 629.921 1011.74 630.282 1012.77 630.754L1011.52 633.67C1010.91 633.393 1010.25 633.157 1009.56 632.962C1008.89 632.74 1008.21 632.573 1007.52 632.462C1006.82 632.323 1006.11 632.254 1005.39 632.254C1003.89 632.254 1002.74 632.504 1001.93 633.004C1001.16 633.476 1000.77 634.129 1000.77 634.962C1000.77 635.573 1000.95 636.1 1001.31 636.545C1001.67 636.961 1002.27 637.378 1003.1 637.795C1003.96 638.183 1005.1 638.655 1006.52 639.211C1007.93 639.739 1009.14 640.28 1010.14 640.836C1011.14 641.391 1011.91 642.071 1012.43 642.877C1012.96 643.654 1013.22 644.64 1013.22 645.835ZM1026.08 649.417C1026.63 649.417 1027.2 649.376 1027.78 649.292C1028.37 649.181 1028.84 649.07 1029.2 648.959V651.75C1028.81 651.944 1028.26 652.097 1027.53 652.208C1026.81 652.347 1026.12 652.417 1025.45 652.417C1024.29 652.417 1023.2 652.222 1022.2 651.833C1021.23 651.417 1020.44 650.709 1019.83 649.709C1019.22 648.709 1018.91 647.306 1018.91 645.501V632.504H1015.75V630.754L1018.95 629.296L1020.41 624.547H1022.58V629.671H1029.03V632.504H1022.58V645.418C1022.58 646.779 1022.9 647.793 1023.54 648.459C1024.2 649.098 1025.05 649.417 1026.08 649.417ZM1044.09 629.255C1044.5 629.255 1044.95 629.282 1045.42 629.338C1045.92 629.366 1046.35 629.421 1046.71 629.505L1046.25 632.879C1045.89 632.796 1045.49 632.726 1045.04 632.671C1044.63 632.615 1044.23 632.587 1043.84 632.587C1042.98 632.587 1042.16 632.768 1041.38 633.129C1040.6 633.49 1039.91 634.004 1039.3 634.67C1038.68 635.309 1038.2 636.087 1037.84 637.003C1037.5 637.919 1037.34 638.947 1037.34 640.086V652H1033.67V629.671H1036.67L1037.09 633.754H1037.25C1037.73 632.921 1038.3 632.171 1038.96 631.504C1039.63 630.81 1040.39 630.268 1041.25 629.879C1042.11 629.463 1043.06 629.255 1044.09 629.255ZM1058.69 629.255C1060.61 629.255 1062.24 629.671 1063.61 630.504C1064.99 631.337 1066.05 632.518 1066.77 634.045C1067.52 635.545 1067.9 637.309 1067.9 639.336V641.544H1052.61C1052.66 644.071 1053.3 646.001 1054.52 647.334C1055.77 648.64 1057.51 649.292 1059.73 649.292C1061.15 649.292 1062.4 649.167 1063.48 648.917C1064.59 648.64 1065.73 648.251 1066.9 647.751V650.959C1065.76 651.458 1064.63 651.819 1063.52 652.042C1062.41 652.292 1061.09 652.417 1059.56 652.417C1057.45 652.417 1055.58 651.986 1053.94 651.125C1052.33 650.264 1051.07 648.987 1050.15 647.293C1049.26 645.571 1048.82 643.474 1048.82 641.002C1048.82 638.558 1049.22 636.461 1050.03 634.712C1050.86 632.962 1052.01 631.615 1053.48 630.671C1054.98 629.727 1056.72 629.255 1058.69 629.255ZM1058.65 632.254C1056.9 632.254 1055.51 632.823 1054.48 633.962C1053.48 635.073 1052.89 636.628 1052.69 638.628H1064.06C1064.06 637.35 1063.87 636.239 1063.48 635.295C1063.09 634.351 1062.49 633.615 1061.69 633.087C1060.91 632.532 1059.9 632.254 1058.65 632.254ZM1082.04 629.296C1084.76 629.296 1086.77 629.893 1088.08 631.088C1089.38 632.282 1090.04 634.184 1090.04 636.795V652H1087.37L1086.66 648.834H1086.5C1085.86 649.639 1085.19 650.32 1084.5 650.875C1083.83 651.403 1083.05 651.792 1082.16 652.042C1081.3 652.292 1080.25 652.417 1079 652.417C1077.66 652.417 1076.46 652.181 1075.37 651.708C1074.32 651.236 1073.48 650.514 1072.87 649.542C1072.26 648.542 1071.96 647.293 1071.96 645.793C1071.96 643.571 1072.83 641.863 1074.58 640.669C1076.33 639.447 1079.02 638.78 1082.66 638.669L1086.45 638.544V637.211C1086.45 635.351 1086.05 634.059 1085.25 633.337C1084.44 632.615 1083.3 632.254 1081.83 632.254C1080.66 632.254 1079.55 632.434 1078.5 632.796C1077.44 633.129 1076.46 633.518 1075.54 633.962L1074.41 631.213C1075.39 630.685 1076.54 630.24 1077.87 629.879C1079.2 629.491 1080.59 629.296 1082.04 629.296ZM1083.12 641.211C1080.34 641.322 1078.41 641.766 1077.33 642.544C1076.27 643.321 1075.75 644.418 1075.75 645.835C1075.75 647.084 1076.12 648.001 1076.87 648.584C1077.65 649.167 1078.64 649.459 1079.83 649.459C1081.72 649.459 1083.29 648.945 1084.54 647.917C1085.79 646.862 1086.41 645.251 1086.41 643.085V641.086L1083.12 641.211ZM1121.43 629.255C1123.95 629.255 1125.84 629.907 1127.09 631.213C1128.34 632.49 1128.97 634.573 1128.97 637.461V652H1125.34V637.628C1125.34 635.878 1124.97 634.559 1124.22 633.67C1123.5 632.782 1122.36 632.337 1120.8 632.337C1118.64 632.337 1117.08 632.962 1116.14 634.212C1115.22 635.462 1114.76 637.281 1114.76 639.669V652H1111.14V637.628C1111.14 636.461 1110.97 635.489 1110.64 634.712C1110.3 633.906 1109.8 633.309 1109.14 632.921C1108.47 632.532 1107.61 632.337 1106.56 632.337C1105.06 632.337 1103.88 632.657 1103.01 633.295C1102.15 633.906 1101.53 634.809 1101.14 636.003C1100.78 637.197 1100.6 638.669 1100.6 640.419V652H1096.93V629.671H1099.89L1100.43 632.712H1100.64C1101.11 631.935 1101.68 631.296 1102.35 630.796C1103.04 630.268 1103.81 629.879 1104.64 629.63C1105.47 629.38 1106.33 629.255 1107.22 629.255C1108.94 629.255 1110.37 629.56 1111.51 630.171C1112.68 630.782 1113.53 631.726 1114.05 633.004H1114.26C1115.01 631.726 1116.03 630.782 1117.3 630.171C1118.61 629.56 1119.98 629.255 1121.43 629.255ZM810.414 696H799.666V693.834L803.166 693.042V669.255L799.666 668.422V666.256H810.414V668.422L806.915 669.255V693.042L810.414 693.834V696ZM826.405 673.255C829.072 673.255 831.085 673.907 832.446 675.213C833.807 676.49 834.487 678.573 834.487 681.461V696H830.863V681.711C830.863 679.906 830.46 678.559 829.655 677.67C828.849 676.782 827.586 676.337 825.864 676.337C823.392 676.337 821.684 677.032 820.74 678.42C819.796 679.809 819.324 681.808 819.324 684.419V696H815.658V673.671H818.615L819.157 676.712H819.365C819.865 675.935 820.476 675.296 821.198 674.796C821.948 674.268 822.767 673.879 823.656 673.63C824.545 673.38 825.461 673.255 826.405 673.255ZM849.324 696.417C846.547 696.417 844.325 695.458 842.659 693.542C840.993 691.598 840.159 688.71 840.159 684.877C840.159 681.045 840.993 678.156 842.659 676.212C844.353 674.24 846.589 673.255 849.366 673.255C850.532 673.255 851.546 673.407 852.407 673.713C853.268 673.991 854.018 674.379 854.657 674.879C855.295 675.379 855.837 675.935 856.281 676.546H856.531C856.503 676.185 856.448 675.657 856.365 674.963C856.309 674.24 856.281 673.671 856.281 673.255V664.34H859.947V696H856.989L856.448 693.001H856.281C855.837 693.639 855.295 694.223 854.657 694.75C854.018 695.25 853.254 695.653 852.365 695.958C851.504 696.264 850.491 696.417 849.324 696.417ZM849.908 693.376C852.268 693.376 853.921 692.737 854.865 691.459C855.837 690.154 856.323 688.196 856.323 685.585V684.919C856.323 682.142 855.865 680.017 854.948 678.545C854.032 677.045 852.338 676.296 849.866 676.296C847.894 676.296 846.408 677.087 845.408 678.67C844.436 680.225 843.95 682.322 843.95 684.961C843.95 687.627 844.436 689.696 845.408 691.168C846.408 692.64 847.908 693.376 849.908 693.376ZM885.702 673.671V696H882.702L882.161 693.042H881.994C881.522 693.82 880.911 694.459 880.161 694.959C879.411 695.458 878.592 695.819 877.703 696.042C876.815 696.292 875.884 696.417 874.912 696.417C873.135 696.417 871.635 696.139 870.413 695.583C869.219 695 868.316 694.111 867.705 692.917C867.094 691.723 866.789 690.182 866.789 688.293V673.671H870.496V688.043C870.496 689.821 870.899 691.154 871.705 692.042C872.51 692.931 873.76 693.376 875.454 693.376C877.12 693.376 878.425 693.07 879.37 692.459C880.342 691.82 881.022 690.904 881.411 689.71C881.828 688.488 882.036 687.016 882.036 685.294V673.671H885.702ZM907.329 689.835C907.329 691.279 906.968 692.487 906.246 693.459C905.524 694.431 904.496 695.167 903.163 695.667C901.83 696.167 900.247 696.417 898.414 696.417C896.859 696.417 895.512 696.292 894.374 696.042C893.263 695.792 892.277 695.445 891.416 695V691.668C892.304 692.112 893.374 692.528 894.623 692.917C895.901 693.278 897.192 693.459 898.498 693.459C900.358 693.459 901.705 693.167 902.539 692.584C903.372 691.973 903.788 691.168 903.788 690.168C903.788 689.612 903.636 689.112 903.33 688.668C903.025 688.224 902.469 687.779 901.664 687.335C900.886 686.891 899.761 686.391 898.289 685.835C896.845 685.28 895.609 684.724 894.582 684.169C893.554 683.614 892.763 682.947 892.207 682.169C891.652 681.392 891.374 680.392 891.374 679.17C891.374 677.282 892.138 675.824 893.665 674.796C895.221 673.768 897.248 673.255 899.747 673.255C901.108 673.255 902.372 673.393 903.538 673.671C904.733 673.921 905.843 674.282 906.871 674.754L905.621 677.67C905.01 677.393 904.358 677.157 903.663 676.962C902.997 676.74 902.316 676.573 901.622 676.462C900.928 676.323 900.22 676.254 899.497 676.254C897.998 676.254 896.845 676.504 896.04 677.004C895.262 677.476 894.873 678.129 894.873 678.962C894.873 679.573 895.054 680.1 895.415 680.545C895.776 680.961 896.373 681.378 897.206 681.795C898.067 682.183 899.206 682.655 900.622 683.211C902.039 683.739 903.247 684.28 904.247 684.836C905.246 685.391 906.01 686.071 906.538 686.877C907.065 687.654 907.329 688.64 907.329 689.835ZM920.181 693.417C920.737 693.417 921.306 693.376 921.889 693.292C922.473 693.181 922.945 693.07 923.306 692.959V695.75C922.917 695.944 922.362 696.097 921.64 696.208C920.917 696.347 920.223 696.417 919.557 696.417C918.39 696.417 917.307 696.222 916.307 695.833C915.335 695.417 914.544 694.709 913.933 693.709C913.322 692.709 913.016 691.306 913.016 689.501V676.504H909.85V674.754L913.058 673.296L914.516 668.547H916.682V673.671H923.139V676.504H916.682V689.418C916.682 690.779 917.002 691.793 917.64 692.459C918.307 693.098 919.154 693.417 920.181 693.417ZM938.192 673.255C938.608 673.255 939.052 673.282 939.525 673.338C940.024 673.366 940.455 673.421 940.816 673.505L940.358 676.879C939.997 676.796 939.594 676.726 939.15 676.671C938.733 676.615 938.33 676.587 937.942 676.587C937.081 676.587 936.261 676.768 935.484 677.129C934.706 677.49 934.012 678.004 933.401 678.67C932.79 679.309 932.304 680.087 931.943 681.003C931.61 681.919 931.443 682.947 931.443 684.086V696H927.777V673.671H930.776L931.193 677.754H931.36C931.832 676.921 932.401 676.171 933.068 675.504C933.734 674.81 934.498 674.268 935.359 673.879C936.22 673.463 937.164 673.255 938.192 673.255ZM948.651 673.671V696H944.985V673.671H948.651ZM946.86 665.298C947.415 665.298 947.901 665.492 948.318 665.881C948.762 666.242 948.985 666.825 948.985 667.631C948.985 668.408 948.762 668.992 948.318 669.38C947.901 669.769 947.415 669.964 946.86 669.964C946.249 669.964 945.735 669.769 945.319 669.38C944.902 668.992 944.694 668.408 944.694 667.631C944.694 666.825 944.902 666.242 945.319 665.881C945.735 665.492 946.249 665.298 946.86 665.298ZM964.349 673.255C966.265 673.255 967.904 673.671 969.264 674.504C970.653 675.337 971.708 676.518 972.43 678.045C973.18 679.545 973.555 681.309 973.555 683.336V685.544H958.267C958.322 688.071 958.961 690.001 960.183 691.334C961.433 692.64 963.168 693.292 965.39 693.292C966.807 693.292 968.056 693.167 969.139 692.917C970.25 692.64 971.389 692.251 972.555 691.751V694.959C971.417 695.458 970.292 695.819 969.181 696.042C968.07 696.292 966.751 696.417 965.224 696.417C963.113 696.417 961.238 695.986 959.6 695.125C957.989 694.264 956.725 692.987 955.809 691.293C954.92 689.571 954.476 687.474 954.476 685.002C954.476 682.558 954.878 680.461 955.684 678.712C956.517 676.962 957.669 675.615 959.141 674.671C960.641 673.727 962.377 673.255 964.349 673.255ZM964.307 676.254C962.557 676.254 961.169 676.823 960.141 677.962C959.141 679.073 958.544 680.628 958.35 682.628H969.723C969.723 681.35 969.528 680.239 969.139 679.295C968.751 678.351 968.153 677.615 967.348 677.087C966.57 676.532 965.557 676.254 964.307 676.254ZM993.778 689.835C993.778 691.279 993.417 692.487 992.695 693.459C991.973 694.431 990.946 695.167 989.612 695.667C988.279 696.167 986.696 696.417 984.863 696.417C983.308 696.417 981.961 696.292 980.823 696.042C979.712 695.792 978.726 695.445 977.865 695V691.668C978.754 692.112 979.823 692.528 981.073 692.917C982.35 693.278 983.641 693.459 984.947 693.459C986.807 693.459 988.154 693.167 988.988 692.584C989.821 691.973 990.237 691.168 990.237 690.168C990.237 689.612 990.085 689.112 989.779 688.668C989.474 688.224 988.918 687.779 988.113 687.335C987.335 686.891 986.21 686.391 984.738 685.835C983.294 685.28 982.058 684.724 981.031 684.169C980.003 683.614 979.212 682.947 978.656 682.169C978.101 681.392 977.823 680.392 977.823 679.17C977.823 677.282 978.587 675.824 980.114 674.796C981.67 673.768 983.697 673.255 986.196 673.255C987.557 673.255 988.821 673.393 989.987 673.671C991.182 673.921 992.292 674.282 993.32 674.754L992.07 677.67C991.459 677.393 990.807 677.157 990.112 676.962C989.446 676.74 988.765 676.573 988.071 676.462C987.377 676.323 986.669 676.254 985.947 676.254C984.447 676.254 983.294 676.504 982.489 677.004C981.711 677.476 981.322 678.129 981.322 678.962C981.322 679.573 981.503 680.1 981.864 680.545C982.225 680.961 982.822 681.378 983.655 681.795C984.516 682.183 985.655 682.655 987.071 683.211C988.488 683.739 989.696 684.28 990.696 684.836C991.695 685.391 992.459 686.071 992.987 686.877C993.514 687.654 993.778 688.64 993.778 689.835ZM1016.62 666.256C1020.51 666.256 1023.34 667.02 1025.12 668.547C1026.89 670.075 1027.78 672.227 1027.78 675.004C1027.78 676.226 1027.58 677.407 1027.16 678.545C1026.77 679.656 1026.12 680.656 1025.2 681.545C1024.28 682.433 1023.06 683.141 1021.53 683.669C1020.01 684.169 1018.13 684.419 1015.91 684.419H1012.49V696H1008.75V666.256H1016.62ZM1016.29 669.464H1012.49V681.211H1015.49C1017.38 681.211 1018.95 681.017 1020.2 680.628C1021.45 680.212 1022.38 679.559 1022.99 678.67C1023.6 677.781 1023.91 676.615 1023.91 675.171C1023.91 673.255 1023.3 671.824 1022.08 670.88C1020.85 669.936 1018.92 669.464 1016.29 669.464ZM1052.88 684.794C1052.88 686.655 1052.63 688.307 1052.13 689.751C1051.66 691.168 1050.97 692.376 1050.05 693.376C1049.16 694.375 1048.06 695.139 1046.76 695.667C1045.48 696.167 1044.05 696.417 1042.47 696.417C1040.99 696.417 1039.63 696.167 1038.38 695.667C1037.13 695.139 1036.05 694.375 1035.13 693.376C1034.22 692.376 1033.5 691.168 1032.97 689.751C1032.47 688.307 1032.22 686.655 1032.22 684.794C1032.22 682.322 1032.64 680.239 1033.47 678.545C1034.3 676.823 1035.5 675.518 1037.05 674.629C1038.61 673.713 1040.45 673.255 1042.59 673.255C1044.62 673.255 1046.4 673.713 1047.92 674.629C1049.48 675.518 1050.69 676.823 1051.55 678.545C1052.44 680.239 1052.88 682.322 1052.88 684.794ZM1036.01 684.794C1036.01 686.544 1036.23 688.071 1036.68 689.376C1037.15 690.654 1037.87 691.64 1038.84 692.334C1039.81 693.028 1041.05 693.376 1042.55 693.376C1044.05 693.376 1045.29 693.028 1046.26 692.334C1047.23 691.64 1047.94 690.654 1048.38 689.376C1048.85 688.071 1049.09 686.544 1049.09 684.794C1049.09 683.017 1048.85 681.503 1048.38 680.253C1047.91 679.003 1047.19 678.045 1046.22 677.379C1045.27 676.684 1044.04 676.337 1042.51 676.337C1040.23 676.337 1038.58 677.087 1037.55 678.587C1036.52 680.087 1036.01 682.156 1036.01 684.794ZM1069.11 673.255C1069.52 673.255 1069.97 673.282 1070.44 673.338C1070.94 673.366 1071.37 673.421 1071.73 673.505L1071.27 676.879C1070.91 676.796 1070.51 676.726 1070.06 676.671C1069.65 676.615 1069.24 676.587 1068.86 676.587C1068 676.587 1067.18 676.768 1066.4 677.129C1065.62 677.49 1064.93 678.004 1064.32 678.67C1063.7 679.309 1063.22 680.087 1062.86 681.003C1062.52 681.919 1062.36 682.947 1062.36 684.086V696H1058.69V673.671H1061.69L1062.11 677.754H1062.27C1062.75 676.921 1063.32 676.171 1063.98 675.504C1064.65 674.81 1065.41 674.268 1066.27 673.879C1067.13 673.463 1068.08 673.255 1069.11 673.255ZM1083.36 693.417C1083.91 693.417 1084.48 693.376 1085.06 693.292C1085.65 693.181 1086.12 693.07 1086.48 692.959V695.75C1086.09 695.944 1085.54 696.097 1084.81 696.208C1084.09 696.347 1083.4 696.417 1082.73 696.417C1081.57 696.417 1080.48 696.222 1079.48 695.833C1078.51 695.417 1077.72 694.709 1077.11 693.709C1076.5 692.709 1076.19 691.306 1076.19 689.501V676.504H1073.03V674.754L1076.23 673.296L1077.69 668.547H1079.86V673.671H1086.31V676.504H1079.86V689.418C1079.86 690.779 1080.18 691.793 1080.82 692.459C1081.48 693.098 1082.33 693.417 1083.36 693.417Z" fill="white"/>
</g>
<defs>
<clipPath id="clip0_346_7225">
<rect width="3772" height="1953" fill="white" transform="translate(0 -527)"/>
</clipPath>
</defs>
</svg>
