<svg width="1725" height="1080" viewBox="0 0 1725 1080" fill="none" xmlns="http://www.w3.org/2000/svg">
<g clip-path="url(#clip0_346_7225)">
<path d="M2612.93 14.4435L2345.58 -4.67993L2078.82 -309.491L2053.32 -435.606L1989.36 -472.456L1895.53 -619.889L1695.51 -676.27L1523.97 -689.615L1109.78 -1006.98L994.236 -1033.28L777.676 -975.701L869.518 -856.961L665.512 -722.291L545.775 -697.181L575.267 -599.959L769.311 -186.768L894.021 -53.6857L935.66 46.7206L930.081 185.781L1078.3 341.97L1327.34 739.629L1375.55 627.266L1816.83 670.294L1894.13 550.365L1996.94 496.171L2301.75 443.182L2618.51 313.883L2674.3 83.5789L2612.93 14.4435Z" fill="#EEEEEE" fill-opacity="0.09"/>
<path d="M1199.42 481.585L1216.57 482.311L1220.78 486.934L1213.55 513.967L1213.79 519.823L1216.33 522.015L1227.76 521.953L1235.73 524.054L1239.07 529.78L1240.67 541.166L1243.07 543.998L1274.17 550.206L1278.29 555.627L1282.21 570.642L1292.72 584.478L1298.15 587.693L1303.55 587.978L1306.05 585.797L1316.2 561.183L1321.93 553.915L1334.02 547.382L1342.88 545.265L1346.04 550.088L1343.07 566.745L1355.63 575.663L1363.02 594.708L1365.29 597.225L1376.12 601.202L1381.93 613.712L1384.83 619.484L1375.91 629.453L1374.92 638.489L1380.25 642.787L1379.9 645.25L1382.76 647.035L1383.36 649.757L1365.57 652.583L1366.11 659.896L1359.59 664.21L1358.99 669.736L1356.44 670.612L1355.72 673.904L1355.84 675.276L1359.8 674.327L1365.72 677.029L1367.88 683.742L1365.27 686.858L1356.85 684.61L1356.24 695.364L1350.14 697.178L1349.69 699.428L1354.11 707.408L1359.77 709.572L1360.57 712.868L1364.12 715.282L1362.56 719.926L1363.89 723.434L1358.42 723.038L1356.73 725.925L1357.13 736.037L1353.89 736.137L1346.68 730.8L1344.07 731.087L1345.23 734.748L1339.76 744.52L1339.39 748.564L1321.99 750.47L1314.97 754.047L1315.05 764.52L1308.37 765.009L1290.39 760.409L1289.52 757.626L1292.76 751.244L1288.84 746.204L1286.91 737.337L1291.02 724.193L1289.96 722.904L1288.51 720.376L1289.05 716.851L1289.37 714.717L1281.65 701.498L1276.7 698.1L1274.12 698.681L1273.43 693.349L1271.59 692.365L1269.16 690.773L1273.76 687.761L1272.54 682.216L1274.77 675.372L1270.17 670.374L1262.37 666.587L1258.4 658.753L1260.29 651.93L1258.63 650.987L1254.77 647.831L1253.64 648.828L1256.81 656.82L1253.94 658.966L1253 666.479L1251.33 669.899L1252.75 655.681L1250.84 643.076L1251.17 627.035L1249.25 625.554L1252.95 617.932L1252.76 611.608L1247.51 609.343L1242.97 599.082L1236.36 592.297L1232.62 591.9L1232.73 586.17L1230.26 582.17L1205.47 558.316L1203.63 554.026L1198.28 551.979L1194.21 547.432L1190.24 546.699L1191.41 543.793L1179.07 528.496L1181.68 528.833L1178.34 524.834L1179.97 520.927L1177.27 523.591L1175.6 522.069L1175.45 519.925L1177.79 519.532L1177.56 515.596L1172.57 512.766L1170.71 505.591L1179.96 494.784L1194.52 488.99L1199.42 481.585Z" fill="#00AFA9"/>
<path d="M1288.02 733.843L1310.95 764.814L1314.75 764.552L1289.19 730.073L1288.02 733.843Z" fill="#DBDADA"/>
<path d="M1250.84 643.076L1250.94 643.721L1254.3 648.254L1254.77 647.832L1258.63 650.987L1260.29 651.93L1259.39 655.136L1272.79 673.256L1274.77 675.373L1274.65 675.728L1329.41 749.665L1333.1 749.235L1250.97 638.357L1250.84 643.076Z" fill="#DBDADA"/>
<path d="M1174.79 500.788L1345.25 730.964L1346.63 730.79L1352.12 734.833L1176.93 498.287L1174.79 500.788Z" fill="#DBDADA"/>
<path d="M1363.86 715.994L1364.12 715.283L1362.58 714.223L1363.86 715.994ZM1360.1 710.893L1359.77 709.573L1358.84 709.223L1360.09 710.939L1360.1 710.893ZM1220.17 522.002L1350.09 697.407L1350.14 697.179L1353.21 696.277L1224.15 521.973L1220.17 522.002ZM1195.09 488.158L1213.74 513.338L1214.81 509.355L1196.98 485.266L1195.1 488.112L1195.09 488.158Z" fill="#DBDADA"/>
<path d="M1366.49 679.406L1365.72 677.03L1364.25 676.32L1366.5 679.36L1366.49 679.406ZM1298.58 587.694L1359.03 669.315L1359.54 664.632L1302.71 587.888L1298.54 587.684L1298.58 587.694ZM1270.22 549.382L1280.26 562.97L1278.35 555.592L1274.22 550.171L1270.22 549.382Z" fill="#DBDADA"/>
<path d="M1313.44 567.768L1375.16 651.06L1378.73 650.508L1314.88 564.298L1313.44 567.768Z" fill="#DBDADA"/>
<path d="M1382.98 621.568L1384.82 619.529L1383.49 616.884L1370.35 599.109L1365.29 597.27L1363.48 595.24L1382.98 621.568ZM1329.72 549.691L1362.88 594.484L1358.53 583.161L1350.03 571.69L1343.02 566.735L1343.69 563.092L1332.61 548.124L1329.78 549.656L1329.72 549.691Z" fill="#DBDADA"/>
<circle cx="1188.5" cy="524.287" r="34.7421" fill="#CDDC29" fill-opacity="0.2"/>
<circle cx="1188.5" cy="524.286" r="35.034" fill="#CDDC29"/>
<path d="M705.53 556.287C702.697 556.287 700.281 555.996 698.282 555.412C696.31 554.801 694.699 553.954 693.449 552.871C692.227 551.788 691.325 550.483 690.742 548.955C690.186 547.428 689.908 545.72 689.908 543.831C689.908 542.943 689.992 541.957 690.158 540.874C690.325 539.763 690.519 538.763 690.742 537.874L694.824 537.041C694.491 538.096 694.241 539.124 694.074 540.124C693.908 541.096 693.824 542.165 693.824 543.331C693.824 544.748 694.005 546.039 694.366 547.206C694.727 548.372 695.366 549.386 696.282 550.247C697.226 551.108 698.504 551.774 700.115 552.246C701.725 552.718 703.781 552.954 706.28 552.954H713.112V537.124H716.861V556.287H705.53ZM701.906 535.541C701.184 535.541 700.587 535.291 700.115 534.791C699.643 534.264 699.406 533.639 699.406 532.917C699.406 532.195 699.643 531.584 700.115 531.084C700.587 530.556 701.184 530.292 701.906 530.292C702.628 530.292 703.225 530.556 703.697 531.084C704.169 531.584 704.405 532.195 704.405 532.917C704.405 533.639 704.169 534.264 703.697 534.791C703.225 535.291 702.628 535.541 701.906 535.541ZM708.28 535.583C707.558 535.583 706.947 535.319 706.447 534.791C705.975 534.264 705.739 533.639 705.739 532.917C705.739 532.195 705.975 531.584 706.447 531.084C706.947 530.584 707.558 530.334 708.28 530.334C709.002 530.334 709.585 530.584 710.029 531.084C710.501 531.584 710.738 532.195 710.738 532.917C710.738 533.639 710.501 534.264 710.029 534.791C709.585 535.319 709.002 535.583 708.28 535.583ZM727.977 552.954H732.726V556.287H724.228V528.709C723.728 528.626 723.145 528.557 722.478 528.501C721.84 528.418 721.215 528.348 720.604 528.293V526.085C721.659 525.946 722.839 525.849 724.145 525.793C725.478 525.738 726.755 525.738 727.977 525.793V552.954ZM731.894 552.954H738.517C737.795 552.149 737.212 551.177 736.768 550.038C736.323 548.9 736.101 547.622 736.101 546.206C736.101 544.901 736.31 543.665 736.726 542.498C737.143 541.332 737.768 540.304 738.601 539.416C739.434 538.527 740.489 537.819 741.767 537.291C743.044 536.763 744.558 536.499 746.308 536.499C747.113 536.499 747.918 536.555 748.724 536.666C749.529 536.777 750.279 536.944 750.973 537.166L750.557 540.707C750.001 540.485 749.321 540.29 748.515 540.124C747.71 539.929 746.905 539.832 746.099 539.832C743.989 539.832 742.433 540.415 741.434 541.582C740.461 542.72 739.975 544.178 739.975 545.956C739.975 548.122 740.684 549.83 742.1 551.08C743.516 552.33 745.544 552.954 748.182 552.954H752.848V556.287H731.894V552.954ZM762.313 552.954H767.062V556.287H758.564V528.709C758.064 528.626 757.48 528.557 756.814 528.501C756.175 528.418 755.55 528.348 754.939 528.293V526.085C755.995 525.946 757.175 525.849 758.48 525.793C759.813 525.738 761.091 525.738 762.313 525.793V552.954ZM766.229 552.954H772.145V537.124H775.894V552.954H780.643V556.287H766.229V552.954ZM773.853 533.708C773.158 533.708 772.575 533.458 772.103 532.958C771.659 532.459 771.437 531.861 771.437 531.167C771.437 530.501 771.659 529.931 772.103 529.459C772.575 528.959 773.158 528.709 773.853 528.709C774.547 528.709 775.103 528.959 775.519 529.459C775.963 529.931 776.186 530.501 776.186 531.167C776.186 531.861 775.963 532.459 775.519 532.958C775.103 533.458 774.547 533.708 773.853 533.708ZM779.817 552.954H785.733V537.124H789.482C789.482 538.68 789.454 540.054 789.398 541.248C789.371 542.415 789.329 543.429 789.273 544.29C789.218 545.15 789.149 545.873 789.065 546.456C788.982 547.039 788.912 547.511 788.857 547.872C789.468 546.539 790.232 545.206 791.148 543.873C792.065 542.512 793.092 541.29 794.231 540.207C795.369 539.096 796.591 538.207 797.897 537.541C799.202 536.847 800.535 536.499 801.896 536.499C804.34 536.499 806.27 537.291 807.686 538.874C809.131 540.457 809.853 542.831 809.853 545.998V552.954H814.602V556.287H779.817V552.954ZM805.853 552.954V546.539C805.853 545.567 805.77 544.678 805.604 543.873C805.437 543.04 805.159 542.332 804.77 541.748C804.409 541.165 803.923 540.707 803.312 540.374C802.729 540.04 802.007 539.874 801.146 539.874C800.23 539.874 799.216 540.193 798.105 540.832C797.022 541.471 795.953 542.359 794.897 543.498C793.842 544.637 792.828 546.011 791.856 547.622C790.912 549.233 790.121 551.01 789.482 552.954H805.853ZM813.786 552.954H819.494V525.793H823.243V552.954H827.992V556.287H813.786V552.954ZM827.171 552.954H832.878V525.793H836.627V556.287H827.171V552.954ZM861.337 566.618C859.476 566.618 857.893 566.299 856.588 565.66C855.283 565.021 854.227 564.133 853.422 562.994C852.617 561.855 852.033 560.508 851.672 558.953C851.311 557.426 851.131 555.759 851.131 553.954C851.131 553.454 851.159 552.885 851.214 552.246C851.27 551.607 851.353 550.955 851.464 550.288C851.575 549.594 851.7 548.914 851.839 548.247C852.006 547.581 852.172 546.956 852.339 546.372L856.463 545.623C855.963 547.122 855.602 548.525 855.38 549.83C855.158 551.135 855.047 552.399 855.047 553.621C855.047 555.371 855.199 556.856 855.505 558.078C855.838 559.3 856.296 560.286 856.88 561.036C857.463 561.814 858.157 562.383 858.963 562.744C859.768 563.105 860.657 563.286 861.629 563.286C862.878 563.286 863.92 563.036 864.753 562.536C865.614 562.036 866.308 561.314 866.836 560.37C867.364 559.453 867.739 558.342 867.961 557.037C868.211 555.732 868.336 554.274 868.336 552.663V537.124H872.085V552.371C872.085 557.231 871.224 560.814 869.502 563.119C867.808 565.452 865.086 566.618 861.337 566.618ZM862.004 540.624C861.309 540.624 860.726 540.374 860.254 539.874C859.81 539.374 859.587 538.777 859.587 538.082C859.587 537.416 859.81 536.847 860.254 536.374C860.726 535.875 861.309 535.625 862.004 535.625C862.698 535.625 863.253 535.875 863.67 536.374C864.114 536.847 864.337 537.416 864.337 538.082C864.337 538.777 864.114 539.374 863.67 539.874C863.253 540.374 862.698 540.624 862.004 540.624ZM883.219 556.287H879.47V528.709C878.97 528.626 878.387 528.557 877.721 528.501C877.082 528.418 876.457 528.348 875.846 528.293V526.085C876.901 525.946 878.082 525.849 879.387 525.793C880.72 525.738 881.997 525.738 883.219 525.793V556.287ZM887.691 566.702C886.969 566.702 886.247 566.66 885.525 566.577L885.942 562.827C886.58 562.911 887.191 562.952 887.774 562.952C889.746 562.952 891.177 562.439 892.065 561.411C892.954 560.411 893.398 558.828 893.398 556.662V537.124H897.148V556.454C897.148 557.953 896.995 559.328 896.689 560.578C896.412 561.828 895.912 562.897 895.19 563.786C894.468 564.702 893.496 565.41 892.274 565.91C891.079 566.438 889.552 566.702 887.691 566.702ZM895.231 533.708C894.537 533.708 893.954 533.458 893.482 532.958C893.037 532.459 892.815 531.861 892.815 531.167C892.815 530.501 893.037 529.931 893.482 529.459C893.954 528.959 894.537 528.709 895.231 528.709C895.926 528.709 896.481 528.959 896.898 529.459C897.342 529.931 897.564 530.501 897.564 531.167C897.564 531.861 897.342 532.459 896.898 532.958C896.481 533.458 895.926 533.708 895.231 533.708ZM908.808 552.954H913.557V556.287H905.059V528.709C904.559 528.626 903.976 528.557 903.309 528.501C902.671 528.418 902.046 528.348 901.435 528.293V526.085C902.49 525.946 903.67 525.849 904.976 525.793C906.309 525.738 907.586 525.738 908.808 525.793V552.954ZM912.725 552.954H928.055V548.205C928.055 545.4 927.319 543.415 925.847 542.248C924.403 541.054 922.223 540.457 919.307 540.457C918.529 540.457 917.807 540.471 917.141 540.499C916.502 540.526 915.946 540.568 915.474 540.624L915.891 537.291C916.363 537.235 916.905 537.194 917.516 537.166C918.127 537.138 918.876 537.124 919.765 537.124C921.265 537.124 922.737 537.277 924.181 537.583C925.625 537.86 926.903 538.388 928.013 539.166C929.152 539.915 930.069 540.957 930.763 542.29C931.457 543.595 931.804 545.262 931.804 547.289V556.287H912.725V552.954ZM922.265 564.66C921.57 564.66 920.987 564.41 920.515 563.911C920.071 563.411 919.848 562.814 919.848 562.119C919.848 561.453 920.071 560.87 920.515 560.37C920.987 559.897 921.57 559.661 922.265 559.661C922.959 559.661 923.514 559.897 923.931 560.37C924.375 560.87 924.597 561.453 924.597 562.119C924.597 562.814 924.375 563.411 923.931 563.911C923.514 564.41 922.959 564.66 922.265 564.66ZM954.481 556.287C952.926 556.287 951.537 556.065 950.315 555.621C949.121 555.148 948.107 554.496 947.274 553.663C946.469 552.829 945.858 551.844 945.441 550.705C945.025 549.538 944.816 548.261 944.816 546.872C944.816 545.317 945.066 543.901 945.566 542.623C946.094 541.346 946.816 540.263 947.732 539.374C948.649 538.457 949.732 537.749 950.982 537.249C952.232 536.749 953.592 536.499 955.064 536.499C956.314 536.499 957.425 536.555 958.397 536.666C959.397 536.777 960.466 536.93 961.605 537.124V552.954H966.354V556.287H954.481ZM957.855 552.954V539.915C957.633 539.86 957.369 539.818 957.064 539.79C956.758 539.735 956.439 539.707 956.106 539.707C955.8 539.679 955.509 539.665 955.231 539.665C954.953 539.638 954.731 539.624 954.564 539.624C953.759 539.624 952.995 539.79 952.273 540.124C951.579 540.429 950.968 540.874 950.44 541.457C949.94 542.012 949.538 542.679 949.232 543.456C948.927 544.234 948.774 545.095 948.774 546.039C948.774 548.289 949.302 550.011 950.357 551.205C951.412 552.371 952.954 552.954 954.981 552.954H957.855ZM951.732 533.667C951.01 533.667 950.413 533.417 949.94 532.917C949.468 532.389 949.232 531.764 949.232 531.042C949.232 530.32 949.468 529.709 949.94 529.209C950.413 528.682 951.01 528.418 951.732 528.418C952.454 528.418 953.051 528.682 953.523 529.209C953.995 529.709 954.231 530.32 954.231 531.042C954.231 531.764 953.995 532.389 953.523 532.917C953.051 533.417 952.454 533.667 951.732 533.667ZM958.105 533.708C957.383 533.708 956.772 533.444 956.272 532.917C955.8 532.389 955.564 531.764 955.564 531.042C955.564 530.32 955.8 529.709 956.272 529.209C956.772 528.709 957.383 528.459 958.105 528.459C958.827 528.459 959.411 528.709 959.855 529.209C960.327 529.709 960.563 530.32 960.563 531.042C960.563 531.764 960.327 532.389 959.855 532.917C959.411 533.444 958.827 533.708 958.105 533.708ZM965.53 552.954H971.445V537.124H975.195V552.954H979.944V556.287H965.53V552.954ZM973.153 533.708C972.459 533.708 971.876 533.458 971.404 532.958C970.959 532.459 970.737 531.861 970.737 531.167C970.737 530.501 970.959 529.931 971.404 529.459C971.876 528.959 972.459 528.709 973.153 528.709C973.848 528.709 974.403 528.959 974.82 529.459C975.264 529.931 975.486 530.501 975.486 531.167C975.486 531.861 975.264 532.459 974.82 532.958C974.403 533.458 973.848 533.708 973.153 533.708ZM979.243 552.954H985.158V537.124H988.907V556.287H979.243V552.954ZM982.242 564.952C981.52 564.952 980.923 564.688 980.451 564.161C979.979 563.661 979.743 563.05 979.743 562.328C979.743 561.605 979.979 560.981 980.451 560.453C980.923 559.953 981.52 559.703 982.242 559.703C982.964 559.703 983.561 559.953 984.033 560.453C984.506 560.981 984.742 561.605 984.742 562.328C984.742 563.05 984.506 563.661 984.033 564.161C983.561 564.688 982.964 564.952 982.242 564.952ZM988.616 564.994C987.894 564.994 987.283 564.73 986.783 564.202C986.311 563.675 986.075 563.05 986.075 562.328C986.075 561.605 986.311 560.994 986.783 560.495C987.283 559.995 987.894 559.745 988.616 559.745C989.338 559.745 989.921 559.995 990.366 560.495C990.838 560.994 991.074 561.605 991.074 562.328C991.074 563.05 990.838 563.675 990.366 564.202C989.921 564.73 989.338 564.994 988.616 564.994ZM994.637 552.954H1007.84C1007.84 549.316 1006.97 546.428 1005.22 544.29C1003.47 542.151 1000.73 540.554 997.012 539.499L997.387 535.541C999.497 535.986 1001.43 536.68 1003.18 537.624C1004.93 538.541 1006.43 539.693 1007.68 541.082C1008.93 542.443 1009.88 544.026 1010.55 545.831C1011.24 547.608 1011.59 549.608 1011.59 551.83V552.954H1016.34V556.287H994.637V552.954ZM1014.67 552.954H1016.01C1016.53 552.954 1017.05 552.871 1017.55 552.704C1018.05 552.538 1018.49 552.246 1018.88 551.83C1019.27 551.385 1019.58 550.802 1019.8 550.08C1020.05 549.33 1020.17 548.4 1020.17 547.289C1020.17 545.456 1020.39 543.873 1020.84 542.54C1021.31 541.179 1021.96 540.054 1022.8 539.166C1023.63 538.277 1024.62 537.61 1025.75 537.166C1026.92 536.722 1028.21 536.499 1029.63 536.499C1030.85 536.499 1031.95 536.694 1032.92 537.083C1033.92 537.444 1034.77 538.027 1035.46 538.832C1036.16 539.61 1036.68 540.624 1037.04 541.873C1037.43 543.095 1037.63 544.567 1037.63 546.289V556.287H1030.05C1027.69 556.287 1025.85 555.926 1024.55 555.204C1023.24 554.454 1022.26 553.496 1021.59 552.33C1021.2 553.496 1020.51 554.454 1019.51 555.204C1018.53 555.926 1017.19 556.287 1015.47 556.287H1014.67V552.954ZM1033.88 552.954V545.539C1033.88 544.734 1033.77 543.97 1033.54 543.248C1033.35 542.526 1033.05 541.901 1032.63 541.373C1032.24 540.818 1031.74 540.388 1031.13 540.082C1030.55 539.777 1029.87 539.624 1029.09 539.624C1028.2 539.624 1027.44 539.79 1026.8 540.124C1026.19 540.457 1025.67 540.915 1025.25 541.498C1024.87 542.082 1024.57 542.762 1024.38 543.54C1024.21 544.317 1024.13 545.164 1024.13 546.081C1024.13 548.469 1024.66 550.219 1025.71 551.33C1026.8 552.413 1028.48 552.954 1030.75 552.954H1033.88ZM1050.05 552.954C1050.35 552.954 1050.74 552.954 1051.21 552.954C1051.71 552.954 1052.23 552.982 1052.75 553.038C1053.31 553.066 1053.85 553.107 1054.38 553.163C1054.91 553.218 1055.35 553.315 1055.71 553.454C1054.38 552.482 1053.71 551.108 1053.71 549.33C1053.71 548.441 1053.91 547.608 1054.3 546.831C1054.68 546.025 1055.21 545.331 1055.88 544.748C1056.57 544.137 1057.39 543.651 1058.34 543.29C1059.31 542.929 1060.38 542.748 1061.54 542.748C1062.15 542.748 1062.85 542.776 1063.63 542.831C1064.43 542.887 1065.22 542.998 1066 543.165L1065.33 546.456C1063.97 546.206 1062.64 546.081 1061.34 546.081C1060 546.081 1059.04 546.372 1058.46 546.956C1057.91 547.539 1057.63 548.358 1057.63 549.413C1057.63 550.441 1058.06 551.302 1058.92 551.996C1059.78 552.663 1061.1 552.996 1062.88 552.996H1066.88V556.287H1050.05V552.954ZM1076.74 552.954H1081.49V556.287H1072.99V528.709C1072.49 528.626 1071.91 528.557 1071.24 528.501C1070.61 528.418 1069.98 528.348 1069.37 528.293V526.085C1070.43 525.946 1071.61 525.849 1072.91 525.793C1074.24 525.738 1075.52 525.738 1076.74 525.793V552.954ZM1080.66 552.954H1086.58V537.124H1090.32V552.954H1095.07V556.287H1080.66V552.954ZM1088.28 533.708C1087.59 533.708 1087.01 533.458 1086.53 532.958C1086.09 532.459 1085.87 531.861 1085.87 531.167C1085.87 530.501 1086.09 529.931 1086.53 529.459C1087.01 528.959 1087.59 528.709 1088.28 528.709C1088.98 528.709 1089.53 528.959 1089.95 529.459C1090.39 529.931 1090.62 530.501 1090.62 531.167C1090.62 531.861 1090.39 532.459 1089.95 532.958C1089.53 533.458 1088.98 533.708 1088.28 533.708ZM1094.25 552.954H1100.16V537.124H1103.91V552.954H1108.66V556.287H1094.25V552.954ZM1097.58 564.91C1096.86 564.91 1096.26 564.647 1095.79 564.119C1095.32 563.619 1095.08 563.008 1095.08 562.286C1095.08 561.564 1095.32 560.939 1095.79 560.411C1096.26 559.911 1096.86 559.661 1097.58 559.661C1098.3 559.661 1098.9 559.911 1099.37 560.411C1099.84 560.939 1100.08 561.564 1100.08 562.286C1100.08 563.008 1099.84 563.619 1099.37 564.119C1098.9 564.647 1098.3 564.91 1097.58 564.91ZM1103.95 564.952C1103.23 564.952 1102.62 564.688 1102.12 564.161C1101.65 563.633 1101.41 563.008 1101.41 562.286C1101.41 561.564 1101.65 560.953 1102.12 560.453C1102.62 559.953 1103.23 559.703 1103.95 559.703C1104.68 559.703 1105.26 559.953 1105.7 560.453C1106.18 560.953 1106.41 561.564 1106.41 562.286C1106.41 563.008 1106.18 563.633 1105.7 564.161C1105.26 564.688 1104.68 564.952 1103.95 564.952ZM1107.84 552.954H1109.17C1109.7 552.954 1110.21 552.871 1110.71 552.704C1111.21 552.538 1111.65 552.246 1112.04 551.83C1112.43 551.385 1112.74 550.802 1112.96 550.08C1113.21 549.33 1113.33 548.4 1113.33 547.289C1113.33 545.456 1113.56 543.873 1114 542.54C1114.47 541.179 1115.13 540.054 1115.96 539.166C1116.79 538.277 1117.78 537.61 1118.92 537.166C1120.08 536.722 1121.37 536.499 1122.79 536.499C1124.01 536.499 1125.11 536.694 1126.08 537.083C1127.08 537.444 1127.93 538.027 1128.62 538.832C1129.32 539.61 1129.84 540.624 1130.21 541.873C1130.59 543.095 1130.79 544.567 1130.79 546.289V556.287H1123.21C1120.85 556.287 1119.01 555.926 1117.71 555.204C1116.4 554.454 1115.42 553.496 1114.75 552.33C1114.36 553.496 1113.67 554.454 1112.67 555.204C1111.7 555.926 1110.35 556.287 1108.63 556.287H1107.84V552.954ZM1127.04 552.954V545.539C1127.04 544.734 1126.93 543.97 1126.71 543.248C1126.51 542.526 1126.21 541.901 1125.79 541.373C1125.4 540.818 1124.9 540.388 1124.29 540.082C1123.71 539.777 1123.03 539.624 1122.25 539.624C1121.36 539.624 1120.6 539.79 1119.96 540.124C1119.35 540.457 1118.83 540.915 1118.42 541.498C1118.03 542.082 1117.74 542.762 1117.54 543.54C1117.38 544.317 1117.29 545.164 1117.29 546.081C1117.29 548.469 1117.82 550.219 1118.87 551.33C1119.96 552.413 1121.64 552.954 1123.92 552.954H1127.04ZM810.06 600.287C808.505 600.287 807.116 600.065 805.894 599.621C804.7 599.148 803.687 598.496 802.853 597.663C802.048 596.829 801.437 595.844 801.02 594.705C800.604 593.538 800.396 592.261 800.396 590.872C800.396 589.317 800.646 587.901 801.145 586.623C801.673 585.346 802.395 584.263 803.312 583.374C804.228 582.457 805.311 581.749 806.561 581.249C807.811 580.749 809.172 580.499 810.644 580.499C811.893 580.499 813.004 580.555 813.976 580.666C814.976 580.777 816.045 580.93 817.184 581.124V596.954H821.933V600.287H810.06ZM813.435 596.954V583.915C813.212 583.86 812.949 583.818 812.643 583.79C812.338 583.735 812.018 583.707 811.685 583.707C811.38 583.679 811.088 583.665 810.81 583.665C810.532 583.638 810.31 583.624 810.144 583.624C809.338 583.624 808.575 583.79 807.852 584.124C807.158 584.429 806.547 584.874 806.019 585.457C805.52 586.012 805.117 586.679 804.811 587.456C804.506 588.234 804.353 589.095 804.353 590.039C804.353 592.289 804.881 594.011 805.936 595.205C806.991 596.371 808.533 596.954 810.56 596.954H813.435ZM807.311 577.667C806.589 577.667 805.992 577.417 805.52 576.917C805.047 576.389 804.811 575.764 804.811 575.042C804.811 574.32 805.047 573.709 805.52 573.209C805.992 572.682 806.589 572.418 807.311 572.418C808.033 572.418 808.63 572.682 809.102 573.209C809.574 573.709 809.81 574.32 809.81 575.042C809.81 575.764 809.574 576.389 809.102 576.917C808.63 577.417 808.033 577.667 807.311 577.667ZM813.685 577.708C812.963 577.708 812.352 577.444 811.852 576.917C811.38 576.389 811.143 575.764 811.143 575.042C811.143 574.32 811.38 573.709 811.852 573.209C812.352 572.709 812.963 572.459 813.685 572.459C814.407 572.459 814.99 572.709 815.434 573.209C815.906 573.709 816.142 574.32 816.142 575.042C816.142 575.764 815.906 576.389 815.434 576.917C814.99 577.444 814.407 577.708 813.685 577.708ZM821.109 596.954H827.025V581.124H830.774V596.954H835.523V600.287H821.109V596.954ZM824.442 608.91C823.72 608.91 823.123 608.647 822.651 608.119C822.178 607.619 821.942 607.008 821.942 606.286C821.942 605.564 822.178 604.939 822.651 604.411C823.123 603.911 823.72 603.661 824.442 603.661C825.164 603.661 825.761 603.911 826.233 604.411C826.705 604.939 826.941 605.564 826.941 606.286C826.941 607.008 826.705 607.619 826.233 608.119C825.761 608.647 825.164 608.91 824.442 608.91ZM830.816 608.952C830.094 608.952 829.483 608.688 828.983 608.161C828.51 607.633 828.274 607.008 828.274 606.286C828.274 605.564 828.51 604.953 828.983 604.453C829.483 603.953 830.094 603.703 830.816 603.703C831.538 603.703 832.121 603.953 832.565 604.453C833.037 604.953 833.273 605.564 833.273 606.286C833.273 607.008 833.037 607.633 832.565 608.161C832.121 608.688 831.538 608.952 830.816 608.952ZM834.697 596.954H840.404V569.793H844.153V596.954H848.902V600.287H834.697V596.954ZM848.206 596.954H854.122V581.124H857.871V600.287H848.206V596.954ZM851.206 608.952C850.484 608.952 849.887 608.688 849.414 608.161C848.942 607.661 848.706 607.05 848.706 606.328C848.706 605.605 848.942 604.981 849.414 604.453C849.887 603.953 850.484 603.703 851.206 603.703C851.928 603.703 852.525 603.953 852.997 604.453C853.469 604.981 853.705 605.605 853.705 606.328C853.705 607.05 853.469 607.661 852.997 608.161C852.525 608.688 851.928 608.952 851.206 608.952ZM857.579 608.994C856.857 608.994 856.246 608.73 855.746 608.202C855.274 607.675 855.038 607.05 855.038 606.328C855.038 605.605 855.274 604.994 855.746 604.495C856.246 603.995 856.857 603.745 857.579 603.745C858.301 603.745 858.885 603.995 859.329 604.495C859.801 604.994 860.037 605.605 860.037 606.328C860.037 607.05 859.801 607.675 859.329 608.202C858.885 608.73 858.301 608.994 857.579 608.994ZM869.891 610.66C869.086 610.66 868.183 610.618 867.183 610.535C866.211 610.452 865.392 610.355 864.725 610.243L864.434 606.119C865.378 606.341 866.336 606.522 867.308 606.661C868.308 606.827 869.294 606.911 870.266 606.911C875.487 606.911 878.139 604.703 878.223 600.287H874.807C873.057 600.287 871.571 600.023 870.349 599.496C869.127 598.94 868.128 598.232 867.35 597.371C866.6 596.482 866.045 595.483 865.684 594.372C865.35 593.233 865.184 592.067 865.184 590.872C865.184 589.484 865.406 588.165 865.85 586.915C866.322 585.665 866.989 584.568 867.85 583.624C868.739 582.652 869.808 581.888 871.057 581.333C872.335 580.777 873.779 580.499 875.39 580.499C876.64 580.499 877.764 580.555 878.764 580.666C879.764 580.777 880.833 580.93 881.972 581.124V596.954H886.721V600.287H881.93C881.875 601.481 881.639 602.689 881.222 603.911C880.806 605.133 880.139 606.244 879.223 607.244C878.306 608.244 877.084 609.063 875.557 609.702C874.029 610.341 872.141 610.66 869.891 610.66ZM878.223 596.954V583.915C878.001 583.86 877.737 583.818 877.431 583.79C877.126 583.735 876.806 583.707 876.473 583.707C876.168 583.679 875.876 583.665 875.598 583.665C875.321 583.638 875.098 583.624 874.932 583.624C874.321 583.624 873.668 583.763 872.974 584.04C872.279 584.29 871.655 584.679 871.099 585.207C870.544 585.734 870.072 586.401 869.683 587.206C869.322 588.012 869.141 588.956 869.141 590.039C869.141 592.316 869.669 594.038 870.724 595.205C871.807 596.371 873.349 596.954 875.348 596.954H878.223ZM885.875 596.954H901.205V592.205C901.205 589.4 900.469 587.415 898.997 586.248C897.553 585.054 895.373 584.457 892.457 584.457C891.679 584.457 890.957 584.471 890.291 584.499C889.652 584.526 889.096 584.568 888.624 584.624L889.041 581.291C889.513 581.235 890.055 581.194 890.666 581.166C891.277 581.138 892.026 581.124 892.915 581.124C894.415 581.124 895.887 581.277 897.331 581.583C898.775 581.86 900.053 582.388 901.163 583.166C902.302 583.915 903.219 584.957 903.913 586.29C904.607 587.595 904.954 589.262 904.954 591.289V596.954H909.703V600.287H885.875V596.954ZM908.86 596.954H914.776V581.124H918.525V596.954H923.274V600.287H908.86V596.954ZM913.692 577.667C912.97 577.667 912.373 577.417 911.901 576.917C911.429 576.389 911.193 575.764 911.193 575.042C911.193 574.32 911.429 573.709 911.901 573.209C912.373 572.682 912.97 572.418 913.692 572.418C914.415 572.418 915.012 572.682 915.484 573.209C915.956 573.709 916.192 574.32 916.192 575.042C916.192 575.764 915.956 576.389 915.484 576.917C915.012 577.417 914.415 577.667 913.692 577.667ZM920.066 577.708C919.344 577.708 918.733 577.444 918.233 576.917C917.761 576.389 917.525 575.764 917.525 575.042C917.525 574.32 917.761 573.709 918.233 573.209C918.733 572.709 919.344 572.459 920.066 572.459C920.788 572.459 921.371 572.709 921.816 573.209C922.288 573.709 922.524 574.32 922.524 575.042C922.524 575.764 922.288 576.389 921.816 576.917C921.371 577.444 920.788 577.708 920.066 577.708ZM922.448 596.954H928.155V569.793H931.904V600.287H922.448V596.954ZM943.876 600.287H940.127V572.709C939.627 572.626 939.044 572.557 938.377 572.501C937.739 572.418 937.114 572.348 936.503 572.293V570.085C937.558 569.946 938.738 569.849 940.044 569.793C941.377 569.738 942.654 569.738 943.876 569.793V600.287ZM954.347 610.66C953.541 610.66 952.639 610.618 951.639 610.535C950.667 610.452 949.848 610.355 949.181 610.243L948.889 606.119C949.834 606.341 950.792 606.522 951.764 606.661C952.764 606.827 953.75 606.911 954.722 606.911C959.943 606.911 962.595 604.703 962.678 600.287H959.262C957.513 600.287 956.027 600.023 954.805 599.496C953.583 598.94 952.583 598.232 951.806 597.371C951.056 596.482 950.5 595.483 950.139 594.372C949.806 593.233 949.639 592.067 949.639 590.872C949.639 589.484 949.862 588.165 950.306 586.915C950.778 585.665 951.445 584.568 952.305 583.624C953.194 582.652 954.263 581.888 955.513 581.333C956.791 580.777 958.235 580.499 959.846 580.499C961.095 580.499 962.22 580.555 963.22 580.666C964.22 580.777 965.289 580.93 966.428 581.124V599.704C966.428 600.926 966.233 602.176 965.844 603.453C965.483 604.758 964.845 605.939 963.928 606.994C963.012 608.077 961.776 608.952 960.221 609.619C958.665 610.313 956.707 610.66 954.347 610.66ZM962.678 596.954V583.915C962.456 583.86 962.192 583.818 961.887 583.79C961.581 583.735 961.262 583.707 960.929 583.707C960.623 583.679 960.332 583.665 960.054 583.665C959.776 583.638 959.554 583.624 959.387 583.624C958.776 583.624 958.124 583.763 957.429 584.04C956.735 584.29 956.11 584.679 955.555 585.207C954.999 585.734 954.527 586.401 954.138 587.206C953.777 588.012 953.597 588.956 953.597 590.039C953.597 592.316 954.125 594.038 955.18 595.205C956.263 596.371 957.804 596.954 959.804 596.954H962.678ZM989.549 600.287C987.994 600.287 986.605 600.065 985.383 599.621C984.189 599.148 983.175 598.496 982.342 597.663C981.537 596.829 980.926 595.844 980.509 594.705C980.093 593.538 979.884 592.261 979.884 590.872C979.884 589.317 980.134 587.901 980.634 586.623C981.162 585.346 981.884 584.263 982.8 583.374C983.717 582.457 984.8 581.749 986.05 581.249C987.299 580.749 988.66 580.499 990.132 580.499C991.382 580.499 992.493 580.555 993.465 580.666C994.465 580.777 995.534 580.93 996.673 581.124V596.954H1001.42V600.287H989.549ZM992.923 596.954V583.915C992.701 583.86 992.437 583.818 992.132 583.79C991.826 583.735 991.507 583.707 991.174 583.707C990.868 583.679 990.577 583.665 990.299 583.665C990.021 583.638 989.799 583.624 989.632 583.624C988.827 583.624 988.063 583.79 987.341 584.124C986.647 584.429 986.036 584.874 985.508 585.457C985.008 586.012 984.605 586.679 984.3 587.456C983.995 588.234 983.842 589.095 983.842 590.039C983.842 592.289 984.369 594.011 985.425 595.205C986.48 596.371 988.021 596.954 990.049 596.954H992.923ZM986.799 577.667C986.077 577.667 985.48 577.417 985.008 576.917C984.536 576.389 984.3 575.764 984.3 575.042C984.3 574.32 984.536 573.709 985.008 573.209C985.48 572.682 986.077 572.418 986.799 572.418C987.522 572.418 988.119 572.682 988.591 573.209C989.063 573.709 989.299 574.32 989.299 575.042C989.299 575.764 989.063 576.389 988.591 576.917C988.119 577.417 987.522 577.667 986.799 577.667ZM993.173 577.708C992.451 577.708 991.84 577.444 991.34 576.917C990.868 576.389 990.632 575.764 990.632 575.042C990.632 574.32 990.868 573.709 991.34 573.209C991.84 572.709 992.451 572.459 993.173 572.459C993.895 572.459 994.479 572.709 994.923 573.209C995.395 573.709 995.631 574.32 995.631 575.042C995.631 575.764 995.395 576.389 994.923 576.917C994.479 577.444 993.895 577.708 993.173 577.708ZM1000.6 596.954H1006.51V581.124H1010.26V596.954H1015.01V600.287H1000.6V596.954ZM1003.93 608.91C1003.21 608.91 1002.61 608.647 1002.14 608.119C1001.67 607.619 1001.43 607.008 1001.43 606.286C1001.43 605.564 1001.67 604.939 1002.14 604.411C1002.61 603.911 1003.21 603.661 1003.93 603.661C1004.65 603.661 1005.25 603.911 1005.72 604.411C1006.19 604.939 1006.43 605.564 1006.43 606.286C1006.43 607.008 1006.19 607.619 1005.72 608.119C1005.25 608.647 1004.65 608.91 1003.93 608.91ZM1010.3 608.952C1009.58 608.952 1008.97 608.688 1008.47 608.161C1008 607.633 1007.76 607.008 1007.76 606.286C1007.76 605.564 1008 604.953 1008.47 604.453C1008.97 603.953 1009.58 603.703 1010.3 603.703C1011.03 603.703 1011.61 603.953 1012.05 604.453C1012.53 604.953 1012.76 605.564 1012.76 606.286C1012.76 607.008 1012.53 607.633 1012.05 608.161C1011.61 608.688 1011.03 608.952 1010.3 608.952ZM1027.1 600.704C1025.99 600.704 1024.92 600.398 1023.89 599.787C1022.89 599.148 1022.16 598.204 1021.68 596.954C1021.05 598.149 1020.21 599.01 1019.18 599.537C1018.16 600.037 1017.13 600.287 1016.1 600.287H1014.19V596.954H1015.69C1017.18 596.954 1018.38 596.399 1019.27 595.288C1020.16 594.177 1020.6 592.553 1020.6 590.414V581.124H1024.35V591.997C1024.35 593.913 1024.68 595.274 1025.35 596.08C1026.04 596.885 1026.97 597.288 1028.14 597.288C1029.5 597.288 1030.53 596.691 1031.22 595.496C1031.92 594.302 1032.27 592.275 1032.27 589.414V581.124H1036.01V593.705C1036.01 594.733 1036.35 595.538 1037.01 596.121C1037.68 596.677 1038.54 596.954 1039.6 596.954H1043.47V589.623C1043.47 587.623 1043.39 585.818 1043.22 584.207C1043.08 582.596 1042.9 581.11 1042.68 579.75L1046.51 579.041C1046.73 580.319 1046.9 581.819 1047.01 583.54C1047.15 585.262 1047.22 587.04 1047.22 588.873V600.287H1039.31C1037.72 600.287 1036.47 600.009 1035.56 599.454C1034.64 598.898 1033.96 598.051 1033.52 596.913C1033.02 598.079 1032.25 599.01 1031.22 599.704C1030.22 600.37 1028.85 600.704 1027.1 600.704ZM1058.36 596.954H1063.1V600.287H1054.61V572.709C1054.11 572.626 1053.52 572.557 1052.86 572.501C1052.22 572.418 1051.59 572.348 1050.98 572.293V570.085C1052.04 569.946 1053.22 569.849 1054.52 569.793C1055.86 569.738 1057.13 569.738 1058.36 569.793V596.954ZM1075.19 600.704C1074.07 600.704 1073.01 600.398 1071.98 599.787C1070.98 599.148 1070.24 598.204 1069.77 596.954C1069.13 598.149 1068.3 599.01 1067.27 599.537C1066.24 600.037 1065.22 600.287 1064.19 600.287H1062.27V596.954H1063.77C1065.27 596.954 1066.47 596.399 1067.35 595.288C1068.24 594.177 1068.69 592.553 1068.69 590.414V581.124H1072.44V591.997C1072.44 593.913 1072.77 595.274 1073.44 596.08C1074.13 596.885 1075.06 597.288 1076.23 597.288C1077.59 597.288 1078.62 596.691 1079.31 595.496C1080 594.302 1080.35 592.275 1080.35 589.414V581.124H1084.1V593.705C1084.1 594.733 1084.43 595.538 1085.1 596.121C1085.77 596.677 1086.63 596.954 1087.68 596.954H1091.56V589.623C1091.56 587.623 1091.47 585.818 1091.31 584.207C1091.17 582.596 1090.99 581.11 1090.77 579.75L1094.6 579.041C1094.82 580.319 1094.99 581.819 1095.1 583.54C1095.24 585.262 1095.31 587.04 1095.31 588.873V600.287H1087.39C1085.81 600.287 1084.56 600.009 1083.64 599.454C1082.73 598.898 1082.05 598.051 1081.6 596.913C1081.1 598.079 1080.34 599.01 1079.31 599.704C1078.31 600.37 1076.94 600.704 1075.19 600.704ZM1108.07 600.704C1106.9 600.704 1105.77 600.62 1104.69 600.454C1103.61 600.315 1102.62 600.134 1101.73 599.912L1102.23 595.746C1103.15 596.135 1104.15 596.441 1105.23 596.663C1106.32 596.857 1107.36 596.954 1108.36 596.954C1109.69 596.954 1110.8 596.829 1111.69 596.58C1112.58 596.302 1113.29 595.927 1113.81 595.455C1114.37 594.983 1114.76 594.399 1114.98 593.705C1115.2 593.011 1115.31 592.247 1115.31 591.414V569.793H1119.06V590.997C1119.06 592.414 1118.87 593.719 1118.48 594.913C1118.12 596.08 1117.51 597.093 1116.65 597.954C1115.79 598.815 1114.65 599.496 1113.23 599.996C1111.84 600.468 1110.12 600.704 1108.07 600.704ZM1107.94 592.872L1104.19 593.747V578.208C1103.69 578.125 1103.11 578.055 1102.44 578C1101.8 577.917 1101.18 577.847 1100.57 577.792V575.584C1101.62 575.445 1102.8 575.348 1104.11 575.292C1105.44 575.237 1106.72 575.237 1107.94 575.292V592.872ZM1107.11 566.627C1106.86 566.599 1106.62 566.586 1106.4 566.586C1106.18 566.558 1105.96 566.544 1105.73 566.544C1105.26 566.544 1104.87 566.669 1104.57 566.919C1104.29 567.141 1104.15 567.46 1104.15 567.877C1104.15 568.294 1104.32 568.668 1104.65 569.002C1104.98 569.335 1105.55 569.502 1106.36 569.502H1108.11V571.876H1099.9V569.502C1100.21 569.502 1100.65 569.516 1101.23 569.543C1101.82 569.543 1102.3 569.613 1102.69 569.752C1102.33 569.502 1102.07 569.224 1101.9 568.918C1101.76 568.585 1101.69 568.155 1101.69 567.627C1101.69 566.655 1102.07 565.891 1102.82 565.336C1103.57 564.753 1104.52 564.461 1105.69 564.461C1105.97 564.461 1106.26 564.475 1106.57 564.503C1106.9 564.53 1107.25 564.572 1107.61 564.628L1107.11 566.627ZM1129.96 600.287H1126.21V572.709C1125.71 572.626 1125.12 572.557 1124.46 572.501C1123.82 572.418 1123.19 572.348 1122.58 572.293V570.085C1123.64 569.946 1124.82 569.849 1126.12 569.793C1127.46 569.738 1128.73 569.738 1129.96 569.793V600.287Z" fill="white"/>
</g>
<defs>
<clipPath id="clip0_346_7225">
<rect width="3772" height="1953" fill="white" transform="translate(0 -527)"/>
</clipPath>
</defs>
</svg>
