<svg width="1725" height="1080" viewBox="0 0 1725 1080" fill="none" xmlns="http://www.w3.org/2000/svg">
<g clip-path="url(#clip0_346_8132)">
<path d="M2612.93 14.4435L2345.58 -4.67993L2078.82 -309.491L2053.32 -435.606L1989.36 -472.456L1895.53 -619.889L1695.51 -676.27L1523.97 -689.615L1109.78 -1006.98L994.236 -1033.28L777.676 -975.701L869.518 -856.961L665.512 -722.291L545.775 -697.181L575.267 -599.959L769.311 -186.768L894.021 -53.6857L935.66 46.7206L930.081 185.781L1078.3 341.97L1327.34 739.629L1375.55 627.266L1816.83 670.294L1894.13 550.365L1996.94 496.171L2301.75 443.182L2618.51 313.883L2674.3 83.5789L2612.93 14.4435Z" fill="#EEEEEE" fill-opacity="0.09"/>
<path d="M1199.42 481.585L1216.57 482.311L1220.78 486.934L1213.55 513.967L1213.79 519.823L1216.33 522.015L1227.76 521.953L1235.73 524.054L1239.07 529.78L1240.67 541.166L1243.07 543.998L1274.17 550.206L1278.29 555.627L1282.21 570.642L1292.72 584.478L1298.15 587.693L1303.55 587.978L1306.05 585.797L1316.2 561.183L1321.93 553.915L1334.02 547.382L1342.88 545.265L1346.04 550.088L1343.07 566.745L1355.63 575.663L1363.02 594.708L1365.29 597.225L1376.12 601.202L1381.93 613.712L1384.83 619.484L1375.91 629.453L1374.92 638.489L1380.25 642.787L1379.9 645.25L1382.76 647.035L1383.36 649.757L1365.57 652.583L1366.11 659.896L1359.59 664.21L1358.99 669.736L1356.44 670.612L1355.72 673.904L1355.84 675.276L1359.8 674.327L1365.72 677.029L1367.88 683.742L1365.27 686.858L1356.85 684.61L1356.24 695.364L1350.14 697.178L1349.69 699.428L1354.11 707.408L1359.77 709.572L1360.57 712.868L1364.12 715.282L1362.56 719.926L1363.89 723.434L1358.42 723.038L1356.73 725.925L1357.13 736.037L1353.89 736.137L1346.68 730.8L1344.07 731.087L1345.23 734.748L1339.76 744.52L1339.39 748.564L1321.99 750.47L1314.97 754.047L1315.05 764.52L1308.37 765.009L1290.39 760.409L1289.52 757.626L1292.76 751.244L1288.84 746.204L1286.91 737.337L1291.02 724.193L1289.96 722.904L1288.51 720.376L1289.05 716.851L1289.37 714.717L1281.65 701.498L1276.7 698.1L1274.12 698.681L1273.43 693.349L1271.59 692.365L1269.16 690.773L1273.76 687.761L1272.54 682.216L1274.77 675.372L1270.17 670.374L1262.37 666.587L1258.4 658.753L1260.29 651.93L1258.63 650.987L1254.77 647.831L1253.64 648.828L1256.81 656.82L1253.94 658.966L1253 666.479L1251.33 669.899L1252.75 655.681L1250.84 643.076L1251.17 627.035L1249.25 625.554L1252.95 617.932L1252.76 611.608L1247.51 609.343L1242.97 599.082L1236.36 592.297L1232.62 591.9L1232.73 586.17L1230.26 582.17L1205.47 558.316L1203.63 554.026L1198.28 551.979L1194.21 547.432L1190.24 546.699L1191.41 543.793L1179.07 528.496L1181.68 528.833L1178.34 524.834L1179.97 520.927L1177.27 523.591L1175.6 522.069L1175.45 519.925L1177.79 519.532L1177.56 515.596L1172.57 512.766L1170.71 505.591L1179.96 494.784L1194.52 488.99L1199.42 481.585Z" fill="#00AFA9"/>
<path d="M1288.02 733.843L1310.95 764.814L1314.75 764.552L1289.19 730.073L1288.02 733.843Z" fill="#DBDADA"/>
<path d="M1250.84 643.076L1250.94 643.721L1254.3 648.254L1254.77 647.832L1258.63 650.987L1260.29 651.93L1259.39 655.136L1272.79 673.256L1274.77 675.373L1274.65 675.728L1329.41 749.665L1333.1 749.235L1250.97 638.357L1250.84 643.076Z" fill="#DBDADA"/>
<path d="M1174.79 500.788L1345.25 730.964L1346.63 730.79L1352.12 734.833L1176.93 498.287L1174.79 500.788Z" fill="#DBDADA"/>
<path d="M1363.86 715.993L1364.12 715.282L1362.58 714.222L1363.86 715.993ZM1360.1 710.892L1359.77 709.572L1358.84 709.222L1360.09 710.938L1360.1 710.892ZM1220.17 522.001L1350.09 697.406L1350.14 697.178L1353.21 696.276L1224.15 521.972L1220.17 522.001ZM1195.09 488.157L1213.74 513.337L1214.81 509.354L1196.98 485.265L1195.1 488.111L1195.09 488.157Z" fill="#DBDADA"/>
<path d="M1366.49 679.406L1365.72 677.03L1364.25 676.32L1366.5 679.36L1366.49 679.406ZM1298.58 587.694L1359.03 669.315L1359.54 664.632L1302.71 587.888L1298.54 587.684L1298.58 587.694ZM1270.22 549.382L1280.26 562.97L1278.35 555.592L1274.22 550.171L1270.22 549.382Z" fill="#DBDADA"/>
<path d="M1313.44 567.768L1375.16 651.06L1378.73 650.508L1314.88 564.298L1313.44 567.768Z" fill="#DBDADA"/>
<path d="M1382.98 621.568L1384.82 619.529L1383.49 616.884L1370.35 599.109L1365.29 597.27L1363.48 595.24L1382.98 621.568ZM1329.72 549.691L1362.88 594.484L1358.53 583.161L1350.03 571.69L1343.02 566.735L1343.69 563.092L1332.61 548.124L1329.78 549.656L1329.72 549.691Z" fill="#DBDADA"/>
<circle cx="1265.43" cy="673.183" r="34.7421" fill="#CDDC29" fill-opacity="0.2"/>
<circle cx="1265.43" cy="673.182" r="35.034" fill="#CDDC29"/>
<path d="M1016.91 710.614C1016.24 710.614 1015.66 710.559 1015.16 710.448C1014.66 710.364 1014.21 710.239 1013.82 710.073V706.907C1014.27 707.018 1014.74 707.115 1015.24 707.198C1015.74 707.282 1016.27 707.323 1016.82 707.323C1017.52 707.323 1018.17 707.184 1018.78 706.907C1019.42 706.629 1019.93 706.143 1020.32 705.449C1020.71 704.754 1020.9 703.782 1020.9 702.533V672.955H1024.65V702.241C1024.65 704.157 1024.33 705.726 1023.7 706.948C1023.06 708.198 1022.15 709.115 1020.99 709.698C1019.82 710.309 1018.46 710.614 1016.91 710.614ZM1040.46 679.995C1043.18 679.995 1045.2 680.593 1046.5 681.787C1047.81 682.981 1048.46 684.883 1048.46 687.494V702.699H1045.79L1045.08 699.533H1044.92C1044.28 700.339 1043.61 701.019 1042.92 701.574C1042.25 702.102 1041.47 702.491 1040.59 702.741C1039.72 702.991 1038.67 703.116 1037.42 703.116C1036.09 703.116 1034.88 702.88 1033.8 702.408C1032.74 701.935 1031.91 701.213 1031.3 700.241C1030.68 699.242 1030.38 697.992 1030.38 696.492C1030.38 694.27 1031.25 692.562 1033 691.368C1034.75 690.146 1037.45 689.48 1041.09 689.369L1044.88 689.244V687.911C1044.88 686.05 1044.47 684.758 1043.67 684.036C1042.86 683.314 1041.72 682.953 1040.25 682.953C1039.09 682.953 1037.97 683.134 1036.92 683.495C1035.86 683.828 1034.88 684.217 1033.96 684.661L1032.84 681.912C1033.81 681.384 1034.96 680.94 1036.29 680.579C1037.63 680.19 1039.02 679.995 1040.46 679.995ZM1041.54 691.91C1038.77 692.021 1036.84 692.465 1035.75 693.243C1034.7 694.02 1034.17 695.117 1034.17 696.534C1034.17 697.784 1034.55 698.7 1035.29 699.283C1036.07 699.866 1037.06 700.158 1038.25 700.158C1040.14 700.158 1041.71 699.644 1042.96 698.617C1044.21 697.561 1044.83 695.951 1044.83 693.784V691.785L1041.54 691.91ZM1069.77 702.699H1053.44V700.283L1065.44 683.203H1054.15V680.37H1069.48V683.12L1057.65 699.866H1069.77V702.699ZM1083.38 679.995C1086.1 679.995 1088.12 680.593 1089.42 681.787C1090.73 682.981 1091.38 684.883 1091.38 687.494V702.699H1088.71L1088 699.533H1087.84C1087.2 700.339 1086.53 701.019 1085.84 701.574C1085.17 702.102 1084.39 702.491 1083.5 702.741C1082.64 702.991 1081.59 703.116 1080.34 703.116C1079.01 703.116 1077.8 702.88 1076.71 702.408C1075.66 701.935 1074.83 701.213 1074.22 700.241C1073.6 699.242 1073.3 697.992 1073.3 696.492C1073.3 694.27 1074.17 692.562 1075.92 691.368C1077.67 690.146 1080.37 689.48 1084 689.369L1087.8 689.244V687.911C1087.8 686.05 1087.39 684.758 1086.59 684.036C1085.78 683.314 1084.64 682.953 1083.17 682.953C1082.01 682.953 1080.89 683.134 1079.84 683.495C1078.78 683.828 1077.8 684.217 1076.88 684.661L1075.76 681.912C1076.73 681.384 1077.88 680.94 1079.21 680.579C1080.55 680.19 1081.94 679.995 1083.38 679.995ZM1084.46 691.91C1081.69 692.021 1079.76 692.465 1078.67 693.243C1077.62 694.02 1077.09 695.117 1077.09 696.534C1077.09 697.784 1077.46 698.7 1078.21 699.283C1078.99 699.866 1079.98 700.158 1081.17 700.158C1083.06 700.158 1084.63 699.644 1085.88 698.617C1087.13 697.561 1087.75 695.951 1087.75 693.784V691.785L1084.46 691.91ZM1109.02 679.954C1111.69 679.954 1113.7 680.606 1115.06 681.912C1116.42 683.189 1117.1 685.272 1117.1 688.16V702.699H1113.48V688.41C1113.48 686.605 1113.08 685.258 1112.27 684.37C1111.47 683.481 1110.2 683.037 1108.48 683.037C1106.01 683.037 1104.3 683.731 1103.36 685.119C1102.41 686.508 1101.94 688.508 1101.94 691.118V702.699H1098.27V680.37H1101.23L1101.77 683.411H1101.98C1102.48 682.634 1103.09 681.995 1103.82 681.495C1104.57 680.967 1105.38 680.579 1106.27 680.329C1107.16 680.079 1108.08 679.954 1109.02 679.954ZM1141.47 672.955C1145.36 672.955 1148.19 673.719 1149.97 675.246C1151.75 676.774 1152.64 678.926 1152.64 681.703C1152.64 682.925 1152.43 684.106 1152.01 685.244C1151.62 686.355 1150.97 687.355 1150.05 688.244C1149.14 689.133 1147.91 689.841 1146.39 690.368C1144.86 690.868 1142.99 691.118 1140.76 691.118H1137.35V702.699H1133.6V672.955H1141.47ZM1141.14 676.163H1137.35V687.911H1140.35C1142.24 687.911 1143.8 687.716 1145.05 687.327C1146.3 686.911 1147.23 686.258 1147.85 685.369C1148.46 684.481 1148.76 683.314 1148.76 681.87C1148.76 679.954 1148.15 678.524 1146.93 677.579C1145.71 676.635 1143.78 676.163 1141.14 676.163ZM1177.73 691.493C1177.73 693.354 1177.48 695.006 1176.98 696.45C1176.51 697.867 1175.82 699.075 1174.9 700.075C1174.01 701.075 1172.92 701.838 1171.61 702.366C1170.33 702.866 1168.9 703.116 1167.32 703.116C1165.85 703.116 1164.49 702.866 1163.24 702.366C1161.99 701.838 1160.9 701.075 1159.99 700.075C1159.07 699.075 1158.35 697.867 1157.82 696.45C1157.32 695.006 1157.07 693.354 1157.07 691.493C1157.07 689.021 1157.49 686.939 1158.32 685.244C1159.15 683.523 1160.35 682.217 1161.9 681.329C1163.46 680.412 1165.31 679.954 1167.44 679.954C1169.47 679.954 1171.25 680.412 1172.78 681.329C1174.33 682.217 1175.54 683.523 1176.4 685.244C1177.29 686.939 1177.73 689.021 1177.73 691.493ZM1160.86 691.493C1160.86 693.243 1161.08 694.77 1161.53 696.076C1162 697.353 1162.72 698.339 1163.7 699.033C1164.67 699.728 1165.9 700.075 1167.4 700.075C1168.9 700.075 1170.14 699.728 1171.11 699.033C1172.08 698.339 1172.79 697.353 1173.23 696.076C1173.71 694.77 1173.94 693.243 1173.94 691.493C1173.94 689.716 1173.71 688.202 1173.23 686.952C1172.76 685.703 1172.04 684.744 1171.07 684.078C1170.12 683.384 1168.89 683.037 1167.36 683.037C1165.08 683.037 1163.43 683.786 1162.4 685.286C1161.38 686.786 1160.86 688.855 1160.86 691.493ZM1193.96 679.954C1194.38 679.954 1194.82 679.982 1195.29 680.037C1195.79 680.065 1196.22 680.12 1196.58 680.204L1196.12 683.578C1195.76 683.495 1195.36 683.425 1194.92 683.37C1194.5 683.314 1194.1 683.286 1193.71 683.286C1192.85 683.286 1192.03 683.467 1191.25 683.828C1190.47 684.189 1189.78 684.703 1189.17 685.369C1188.56 686.008 1188.07 686.786 1187.71 687.702C1187.38 688.619 1187.21 689.646 1187.21 690.785V702.699H1183.54V680.37H1186.54L1186.96 684.453H1187.13C1187.6 683.62 1188.17 682.87 1188.83 682.203C1189.5 681.509 1190.26 680.967 1191.13 680.579C1191.99 680.162 1192.93 679.954 1193.96 679.954ZM1208.21 700.116C1208.76 700.116 1209.33 700.075 1209.92 699.991C1210.5 699.88 1210.97 699.769 1211.33 699.658V702.449C1210.94 702.644 1210.39 702.796 1209.67 702.908C1208.95 703.046 1208.25 703.116 1207.58 703.116C1206.42 703.116 1205.33 702.921 1204.34 702.533C1203.36 702.116 1202.57 701.408 1201.96 700.408C1201.35 699.408 1201.04 698.006 1201.04 696.201V683.203H1197.88V681.453L1201.09 679.995L1202.54 675.246H1204.71V680.37H1211.17V683.203H1204.71V696.117C1204.71 697.478 1205.03 698.492 1205.67 699.158C1206.33 699.797 1207.18 700.116 1208.21 700.116Z" fill="white"/>
</g>
<defs>
<clipPath id="clip0_346_8132">
<rect width="3772" height="1953" fill="white" transform="translate(0 -527)"/>
</clipPath>
</defs>
</svg>
