<svg width="1725" height="1080" viewBox="0 0 1725 1080" fill="none" xmlns="http://www.w3.org/2000/svg">
<g clip-path="url(#clip0_346_8132)">
<path d="M2612.93 14.4435L2345.58 -4.67993L2078.82 -309.491L2053.32 -435.606L1989.36 -472.456L1895.53 -619.889L1695.51 -676.27L1523.97 -689.615L1109.78 -1006.98L994.236 -1033.28L777.676 -975.701L869.518 -856.961L665.512 -722.291L545.775 -697.181L575.267 -599.959L769.311 -186.768L894.021 -53.6857L935.66 46.7206L930.081 185.781L1078.3 341.97L1327.34 739.629L1375.55 627.266L1816.83 670.294L1894.13 550.365L1996.94 496.171L2301.75 443.182L2618.51 313.883L2674.3 83.5789L2612.93 14.4435Z" fill="#EEEEEE" fill-opacity="0.09"/>
<path d="M1199.42 481.585L1216.57 482.311L1220.78 486.934L1213.55 513.967L1213.79 519.823L1216.33 522.015L1227.76 521.953L1235.73 524.054L1239.07 529.78L1240.67 541.166L1243.07 543.998L1274.17 550.206L1278.29 555.627L1282.21 570.642L1292.72 584.478L1298.15 587.693L1303.55 587.978L1306.05 585.797L1316.2 561.183L1321.93 553.915L1334.02 547.382L1342.88 545.265L1346.04 550.088L1343.07 566.745L1355.63 575.663L1363.02 594.708L1365.29 597.225L1376.12 601.202L1381.93 613.712L1384.83 619.484L1375.91 629.453L1374.92 638.489L1380.25 642.787L1379.9 645.25L1382.76 647.035L1383.36 649.757L1365.57 652.583L1366.11 659.896L1359.59 664.21L1358.99 669.736L1356.44 670.612L1355.72 673.904L1355.84 675.276L1359.8 674.327L1365.72 677.029L1367.88 683.742L1365.27 686.858L1356.85 684.61L1356.24 695.364L1350.14 697.178L1349.69 699.428L1354.11 707.408L1359.77 709.572L1360.57 712.868L1364.12 715.282L1362.56 719.926L1363.89 723.434L1358.42 723.038L1356.73 725.925L1357.13 736.037L1353.89 736.137L1346.68 730.8L1344.07 731.087L1345.23 734.748L1339.76 744.52L1339.39 748.564L1321.99 750.47L1314.97 754.047L1315.05 764.52L1308.37 765.009L1290.39 760.409L1289.52 757.626L1292.76 751.244L1288.84 746.204L1286.91 737.337L1291.02 724.193L1289.96 722.904L1288.51 720.376L1289.05 716.851L1289.37 714.717L1281.65 701.498L1276.7 698.1L1274.12 698.681L1273.43 693.349L1271.59 692.365L1269.16 690.773L1273.76 687.761L1272.54 682.216L1274.77 675.372L1270.17 670.374L1262.37 666.587L1258.4 658.753L1260.29 651.93L1258.63 650.987L1254.77 647.831L1253.64 648.828L1256.81 656.82L1253.94 658.966L1253 666.479L1251.33 669.899L1252.75 655.681L1250.84 643.076L1251.17 627.035L1249.25 625.554L1252.95 617.932L1252.76 611.608L1247.51 609.343L1242.97 599.082L1236.36 592.297L1232.62 591.9L1232.73 586.17L1230.26 582.17L1205.47 558.316L1203.63 554.026L1198.28 551.979L1194.21 547.432L1190.24 546.699L1191.41 543.793L1179.07 528.496L1181.68 528.833L1178.34 524.834L1179.97 520.927L1177.27 523.591L1175.6 522.069L1175.45 519.925L1177.79 519.532L1177.56 515.596L1172.57 512.766L1170.71 505.591L1179.96 494.784L1194.52 488.99L1199.42 481.585Z" fill="#00AFA9"/>
<path d="M1288.02 733.843L1310.95 764.814L1314.75 764.552L1289.19 730.073L1288.02 733.843Z" fill="#DBDADA"/>
<path d="M1250.84 643.076L1250.94 643.721L1254.3 648.254L1254.77 647.832L1258.63 650.987L1260.29 651.93L1259.39 655.136L1272.79 673.256L1274.77 675.373L1274.65 675.728L1329.41 749.665L1333.1 749.235L1250.97 638.357L1250.84 643.076Z" fill="#DBDADA"/>
<path d="M1174.79 500.788L1345.25 730.964L1346.63 730.79L1352.12 734.833L1176.93 498.287L1174.79 500.788Z" fill="#DBDADA"/>
<path d="M1363.86 715.993L1364.12 715.282L1362.58 714.222L1363.86 715.993ZM1360.1 710.892L1359.77 709.572L1358.84 709.222L1360.09 710.938L1360.1 710.892ZM1220.17 522.001L1350.09 697.406L1350.14 697.178L1353.21 696.276L1224.15 521.972L1220.17 522.001ZM1195.09 488.157L1213.74 513.337L1214.81 509.354L1196.98 485.265L1195.1 488.111L1195.09 488.157Z" fill="#DBDADA"/>
<path d="M1366.49 679.406L1365.72 677.03L1364.25 676.32L1366.5 679.36L1366.49 679.406ZM1298.58 587.694L1359.03 669.315L1359.54 664.632L1302.71 587.888L1298.54 587.684L1298.58 587.694ZM1270.22 549.382L1280.26 562.97L1278.35 555.592L1274.22 550.171L1270.22 549.382Z" fill="#DBDADA"/>
<path d="M1313.44 567.768L1375.16 651.06L1378.73 650.508L1314.88 564.298L1313.44 567.768Z" fill="#DBDADA"/>
<path d="M1382.98 621.568L1384.82 619.529L1383.49 616.884L1370.35 599.109L1365.29 597.27L1363.48 595.24L1382.98 621.568ZM1329.72 549.691L1362.88 594.484L1358.53 583.161L1350.03 571.69L1343.02 566.735L1343.69 563.092L1332.61 548.124L1329.78 549.656L1329.72 549.691Z" fill="#DBDADA"/>
<circle cx="1265.43" cy="673.183" r="34.7421" fill="#CDDC29" fill-opacity="0.2"/>
<circle cx="1265.43" cy="673.182" r="35.034" fill="#CDDC29"/>
<path d="M1039.15 713.03C1037.29 713.03 1035.71 712.711 1034.4 712.072C1033.1 711.434 1032.04 710.545 1031.24 709.406C1030.43 708.268 1029.85 706.921 1029.49 705.365C1029.13 703.838 1028.94 702.172 1028.94 700.366C1028.94 699.866 1028.97 699.297 1029.03 698.658C1029.08 698.02 1029.17 697.367 1029.28 696.7C1029.39 696.006 1029.51 695.326 1029.65 694.659C1029.82 693.993 1029.99 693.368 1030.15 692.785L1034.28 692.035C1033.78 693.534 1033.42 694.937 1033.19 696.242C1032.97 697.547 1032.86 698.811 1032.86 700.033C1032.86 701.783 1033.01 703.269 1033.32 704.491C1033.65 705.713 1034.11 706.698 1034.69 707.448C1035.28 708.226 1035.97 708.795 1036.78 709.156C1037.58 709.517 1038.47 709.698 1039.44 709.698C1040.69 709.698 1041.73 709.448 1042.57 708.948C1043.43 708.448 1044.12 707.726 1044.65 706.782C1045.18 705.865 1045.55 704.754 1045.77 703.449C1046.02 702.144 1046.15 700.686 1046.15 699.075V683.536H1049.9V698.783C1049.9 703.643 1049.04 707.226 1047.32 709.531C1045.62 711.864 1042.9 713.03 1039.15 713.03ZM1039.82 687.036C1039.12 687.036 1038.54 686.786 1038.07 686.286C1037.62 685.786 1037.4 685.189 1037.4 684.495C1037.4 683.828 1037.62 683.259 1038.07 682.787C1038.54 682.287 1039.12 682.037 1039.82 682.037C1040.51 682.037 1041.07 682.287 1041.48 682.787C1041.93 683.259 1042.15 683.828 1042.15 684.495C1042.15 685.189 1041.93 685.786 1041.48 686.286C1041.07 686.786 1040.51 687.036 1039.82 687.036ZM1061.03 702.699H1057.28V675.121C1056.78 675.038 1056.2 674.969 1055.53 674.913C1054.9 674.83 1054.27 674.76 1053.66 674.705V672.497C1054.72 672.358 1055.9 672.261 1057.2 672.205C1058.53 672.15 1059.81 672.15 1061.03 672.205V702.699ZM1065.51 713.114C1064.78 713.114 1064.06 713.072 1063.34 712.989L1063.76 709.24C1064.39 709.323 1065.01 709.365 1065.59 709.365C1067.56 709.365 1068.99 708.851 1069.88 707.823C1070.77 706.823 1071.21 705.24 1071.21 703.074V683.536H1074.96V702.866C1074.96 704.366 1074.81 705.74 1074.5 706.99C1074.23 708.24 1073.73 709.309 1073 710.198C1072.28 711.114 1071.31 711.822 1070.09 712.322C1068.89 712.85 1067.37 713.114 1065.51 713.114ZM1073.05 680.12C1072.35 680.12 1071.77 679.87 1071.3 679.371C1070.85 678.871 1070.63 678.274 1070.63 677.579C1070.63 676.913 1070.85 676.343 1071.3 675.871C1071.77 675.371 1072.35 675.121 1073.05 675.121C1073.74 675.121 1074.29 675.371 1074.71 675.871C1075.16 676.343 1075.38 676.913 1075.38 677.579C1075.38 678.274 1075.16 678.871 1074.71 679.371C1074.29 679.87 1073.74 680.12 1073.05 680.12ZM1086.62 699.367H1091.37V702.699H1082.87V675.121C1082.37 675.038 1081.79 674.969 1081.12 674.913C1080.48 674.83 1079.86 674.76 1079.25 674.705V672.497C1080.3 672.358 1081.48 672.261 1082.79 672.205C1084.12 672.15 1085.4 672.15 1086.62 672.205V699.367ZM1090.54 699.367H1105.87V694.618C1105.87 691.813 1105.13 689.827 1103.66 688.66C1102.22 687.466 1100.04 686.869 1097.12 686.869C1096.34 686.869 1095.62 686.883 1094.95 686.911C1094.32 686.939 1093.76 686.98 1093.29 687.036L1093.7 683.703C1094.18 683.647 1094.72 683.606 1095.33 683.578C1095.94 683.55 1096.69 683.536 1097.58 683.536C1099.08 683.536 1100.55 683.689 1101.99 683.995C1103.44 684.272 1104.72 684.8 1105.83 685.578C1106.97 686.328 1107.88 687.369 1108.58 688.702C1109.27 690.007 1109.62 691.674 1109.62 693.701V702.699H1090.54V699.367ZM1100.08 711.073C1099.38 711.073 1098.8 710.823 1098.33 710.323C1097.88 709.823 1097.66 709.226 1097.66 708.531C1097.66 707.865 1097.88 707.282 1098.33 706.782C1098.8 706.31 1099.38 706.074 1100.08 706.074C1100.77 706.074 1101.33 706.31 1101.74 706.782C1102.19 707.282 1102.41 707.865 1102.41 708.531C1102.41 709.226 1102.19 709.823 1101.74 710.323C1101.33 710.823 1100.77 711.073 1100.08 711.073ZM1122.01 699.367C1122.31 699.367 1122.7 699.367 1123.17 699.367C1123.67 699.367 1124.19 699.394 1124.71 699.45C1125.27 699.478 1125.81 699.519 1126.34 699.575C1126.87 699.63 1127.31 699.728 1127.67 699.866C1126.34 698.894 1125.67 697.52 1125.67 695.742C1125.67 694.854 1125.87 694.02 1126.25 693.243C1126.64 692.437 1127.17 691.743 1127.84 691.16C1128.53 690.549 1129.35 690.063 1130.3 689.702C1131.27 689.341 1132.34 689.16 1133.5 689.16C1134.11 689.16 1134.81 689.188 1135.59 689.244C1136.39 689.299 1137.18 689.41 1137.96 689.577L1137.29 692.868C1135.93 692.618 1134.6 692.493 1133.29 692.493C1131.96 692.493 1131 692.785 1130.42 693.368C1129.86 693.951 1129.59 694.77 1129.59 695.826C1129.59 696.853 1130.02 697.714 1130.88 698.408C1131.74 699.075 1133.06 699.408 1134.84 699.408H1138.84V702.699H1122.01V699.367ZM1148.7 699.367H1153.45V702.699H1144.95V675.121C1144.45 675.038 1143.87 674.969 1143.2 674.913C1142.57 674.83 1141.94 674.76 1141.33 674.705V672.497C1142.38 672.358 1143.56 672.261 1144.87 672.205C1146.2 672.15 1147.48 672.15 1148.7 672.205V699.367ZM1152.62 699.367H1158.53V683.536H1162.28V699.367H1167.03V702.699H1152.62V699.367ZM1160.24 680.12C1159.55 680.12 1158.97 679.87 1158.49 679.371C1158.05 678.871 1157.83 678.274 1157.83 677.579C1157.83 676.913 1158.05 676.343 1158.49 675.871C1158.97 675.371 1159.55 675.121 1160.24 675.121C1160.94 675.121 1161.49 675.371 1161.91 675.871C1162.35 676.343 1162.58 676.913 1162.58 677.579C1162.58 678.274 1162.35 678.871 1161.91 679.371C1161.49 679.87 1160.94 680.12 1160.24 680.12ZM1166.21 699.367H1172.12V683.536H1175.87V699.367H1180.62V702.699H1166.21V699.367ZM1169.54 711.322C1168.82 711.322 1168.22 711.059 1167.75 710.531C1167.28 710.031 1167.04 709.42 1167.04 708.698C1167.04 707.976 1167.28 707.351 1167.75 706.823C1168.22 706.323 1168.82 706.074 1169.54 706.074C1170.26 706.074 1170.86 706.323 1171.33 706.823C1171.8 707.351 1172.04 707.976 1172.04 708.698C1172.04 709.42 1171.8 710.031 1171.33 710.531C1170.86 711.059 1170.26 711.322 1169.54 711.322ZM1175.91 711.364C1175.19 711.364 1174.58 711.1 1174.08 710.573C1173.61 710.045 1173.37 709.42 1173.37 708.698C1173.37 707.976 1173.61 707.365 1174.08 706.865C1174.58 706.365 1175.19 706.115 1175.91 706.115C1176.64 706.115 1177.22 706.365 1177.66 706.865C1178.14 707.365 1178.37 707.976 1178.37 708.698C1178.37 709.42 1178.14 710.045 1177.66 710.573C1177.22 711.1 1176.64 711.364 1175.91 711.364ZM1179.79 699.367H1181.13C1181.66 699.367 1182.17 699.283 1182.67 699.117C1183.17 698.95 1183.61 698.658 1184 698.242C1184.39 697.797 1184.7 697.214 1184.92 696.492C1185.17 695.742 1185.29 694.812 1185.29 693.701C1185.29 691.868 1185.52 690.285 1185.96 688.952C1186.43 687.591 1187.09 686.466 1187.92 685.578C1188.75 684.689 1189.74 684.022 1190.88 683.578C1192.04 683.134 1193.33 682.912 1194.75 682.912C1195.97 682.912 1197.07 683.106 1198.04 683.495C1199.04 683.856 1199.89 684.439 1200.58 685.244C1201.28 686.022 1201.8 687.036 1202.17 688.285C1202.55 689.507 1202.75 690.979 1202.75 692.701V702.699H1195.17C1192.81 702.699 1190.97 702.338 1189.67 701.616C1188.36 700.866 1187.38 699.908 1186.71 698.742C1186.32 699.908 1185.63 700.866 1184.63 701.616C1183.66 702.338 1182.31 702.699 1180.59 702.699H1179.79V699.367ZM1199 699.367V691.951C1199 691.146 1198.89 690.382 1198.67 689.66C1198.47 688.938 1198.17 688.313 1197.75 687.786C1197.36 687.23 1196.86 686.8 1196.25 686.494C1195.67 686.189 1194.99 686.036 1194.21 686.036C1193.32 686.036 1192.56 686.203 1191.92 686.536C1191.31 686.869 1190.79 687.327 1190.38 687.911C1189.99 688.494 1189.7 689.174 1189.5 689.952C1189.33 690.729 1189.25 691.576 1189.25 692.493C1189.25 694.881 1189.78 696.631 1190.83 697.742C1191.92 698.825 1193.6 699.367 1195.87 699.367H1199Z" fill="white"/>
</g>
<defs>
<clipPath id="clip0_346_8132">
<rect width="3772" height="1953" fill="white" transform="translate(0 -527)"/>
</clipPath>
</defs>
</svg>
