<svg width="1124" height="1080" viewBox="0 0 1124 1080" fill="none" xmlns="http://www.w3.org/2000/svg">
<path d="M1050.52 929.518L783.17 910.394L516.407 605.583L490.906 479.469L426.951 442.619L333.121 295.185L133.098 238.804L-38.4388 225.46L-452.627 -91.9062L-568.174 -118.205L-784.735 -60.6269L-692.892 58.1129L-896.898 192.783L-1016.64 217.893L-987.144 315.115L-793.099 728.306L-668.389 861.388L-626.75 961.795L-632.329 1100.86L-484.106 1257.04L-235.069 1654.7L-186.861 1542.34L254.424 1585.37L331.724 1465.44L434.525 1411.25L739.336 1358.26L1056.1 1228.96L1111.89 998.653L1050.52 929.518Z" fill="#EEEEEE" fill-opacity="0.09"/>
<path d="M722.583 844.681L709.279 827.305L710.14 831.271L722.583 844.681ZM523.071 473.834L528.002 473.878L517.263 470.663L512.746 467.739L509.186 468.57L507.271 470.781L505.677 474.817L506.19 476.882L507.248 477.249L506.424 475.7L512.244 469.733L515.296 471.297L515.524 472.601L514.327 473.206L515.437 474.821L521.762 473.075L523.111 473.802L523.071 473.834ZM579.297 653.285L580.754 656.801L580.016 651.313L576.848 649.81L576.661 651.581L579.3 653.249L579.297 653.285ZM680.677 755.24L682.382 753.628L680.443 751.56L677.661 752.985L676.733 748.61L675.302 749.702L673.009 748.218L673.147 750.718L668.818 753.991L667.703 757.639L663.785 759.785L663.652 753.411L665.5 750.096L663.473 750.943L661.921 749.719L662.242 748.4L659.565 749.178L656.539 748.056L652.069 752.666L645.538 754.976L633.523 752.431L624.209 740.557L621.559 734.831L622.274 733.59L618.075 734.245L616.219 739.021L612.891 721.672L611.516 719.809L609.013 719.619L606.542 710.804L600.236 701.257L599.317 703.391L600.556 705.166L598.24 703.899L599.03 701.606L597.08 694.784L598.337 690.127L595.223 684.645L596.327 678.327L593.185 667.542L584.916 660.676L583.441 656.28L581.654 657.627L583.371 660.074L583.395 662.965L582.347 662.854L577.224 655.954L577.127 653.056L573.86 651.798L572.224 647.897L568.974 644.74L568.489 639.974L567.946 639.222L566.544 641.085L566.479 639.616L563.665 637.528L562.033 632.896L563.218 634.483L564.685 634.09L567.193 638.046L570.888 639.056L571.794 642.954L572.9 642.522L573.581 640.217L571.651 639.1L569.99 633.698L567.186 631.867L562.647 624.626L559.556 616.843L560.644 614.143L562.473 613.788L560.882 612.231L561.356 610.161L560.108 608.128L556.492 607.748L554.441 605.704L552.254 608.069L550.662 607.572L550.841 599.622L552.264 597.908L550.036 594.419L553.323 587.162L554.723 586.359L556.687 587.845L563.05 603.796L565.059 602.764L564.69 599.326L567.063 593.8L566.007 592.373L566.628 586.479L568.803 589.779L568.224 591.802L570.978 588.911L571.389 585.007L572.344 584.961L571.221 583.125L573.011 572.383L571.785 568.05L567.582 563.879L569.251 563.652L569.143 560.863L571.78 559.422L571.742 556.311L570.699 557.883L570.482 555.082L569.862 554.029L568.705 558.769L569.633 559.671L566.343 564.187L564.317 562.95L564.686 556.665L563.516 556.322L562.155 560.565L561.229 557.909L560.378 558.697L559.986 561.726L556.452 556.748L554.22 550.518L553.646 543.475L554.677 540.623L552.546 540.033L552.227 537.513L553.686 531.636L553.768 533.984L556.834 539.242L559.498 537.548L563.897 538.815L567.168 543.51L568.721 543.345L567.667 542.247L566.407 541.017L555.051 526.661L549.797 520.661L541.978 519.582L539.961 517.907L537.004 516.828L533.893 514.783L532.94 514.463L527.03 509.491L526.721 508.946L526.154 506.693L524.274 506.495L524.309 503.392L525.77 503.399L526.265 501.477L522.303 502.303L519.875 498.977L525.989 496.111L526.659 497.388L527.407 496.187L527.635 496.102L528.908 496.163L529.007 495.917L526.242 494.749L519.803 498.275L516.81 495.108L515.531 489.892L517.292 487.409L518.597 483.343L521.488 475.678L518.793 479.05L516.991 486.098L514.54 487.85L512.076 485.215L514.055 484.473L513.594 480.513L510.666 480.204L509.64 475.015L507.652 476.195L508.162 477.601L506.346 480.261L508.152 480.122L512.557 484.461L509.099 487.789L511.293 492.297L507.503 490.801L504.26 492.434L504.774 489.637L503.488 488.661L501.551 493.172L500.234 490.402L498.219 491.14L498.808 489.703L497.463 489.635L498.67 488.592L500.356 489.245L501.789 484.314L498.849 482.725L497.439 483.271L496.331 483.374L494.921 483.226L493.262 480.236L493.632 470.478L489.411 468.9L484.774 471.629L486.642 468.463L485.877 466.006L487.828 465.882L489.495 463.938L485.994 461.778L485.994 464.556L483.307 465.077L481.899 463.174L477.933 460.563L476.82 461.068L477.752 459.155L479.878 460.147L481.771 457.787L482.557 459.003L484.546 457.823L486.46 459.78L488.405 457.974L489.767 459.616L491.761 456.646L492.669 458.094L491.933 459.881L493.385 460.326L493.015 455.498L490.131 453.732L488.641 450.176L484.247 447.812L474.579 447.635L467.871 444.333L465.173 440.101L462.726 439.039L458.538 440.974L458.686 443.731L456.496 444.744L456.344 441.328L457.942 438.645L456.285 438.068L454.172 441.465L451.261 439.952L452.178 438.184L452.407 436.015L453.786 435.758L454.677 434.244L451.822 434.967L452.841 431.893L451.79 430.065L449.998 432.508L449.311 426.185L448.017 429.448L446.325 429.197L450.166 417.721L450.797 421.443L452.79 418.838L451.836 424.074L453.283 424.227L453.183 426.556L455.608 425.056L455.846 423.839L454.691 422.657L455.819 417.146L450.596 413.635L450.604 410.09L447.972 409.74L443.957 404.821L443.849 402.031L446.047 402.335L448.161 399.963L437.997 396.845L432.83 390.379L431.903 387.723L432.641 380.709L434.501 379.369L430.238 373.327L426.444 370.478L424.077 365.184L427.023 357.343L424.808 356.854L425.305 355.955L423.155 354.157L423.45 348.23L420.122 346.856L417.121 343.761L351.264 342.566L351.783 340.756L342.922 328.052L342.776 315.9L341.408 309.103L333.063 294.625L330.844 292.783L248.615 279.043L237.543 286.98L230.455 290.072L217.017 289.242L183.786 299.67L161.194 321.893L125.65 383.11L100.431 414.305L96.6268 426.479L97.4772 430.553L101.199 435.478L109.735 441.897L115.134 447.912L118.379 461.524L121.49 465.653L148.362 482.63L163.401 485.968L172.139 497.416L182.53 506.699L188.655 508.587L203.523 509.385L211.385 511.785L236.744 530.978L243.227 534.33L249.408 534.651L261.122 532.412L265.177 533.132L281.597 549.739L285.197 556.515L308.322 565.676L318.308 571.517L320.949 578.375L321.615 591.495L320.524 651.149L317.48 690.821L317.688 710.363L319.142 720.167L321.924 724.993L327.798 729.962L352.095 747.435L375.456 772.413L379.655 778.01L384.761 788.893L385.048 788.594L388.449 783.725L387.868 778.472L376.532 760.463L381.924 759.934L394.162 768.351L414.425 772.752L428.906 783.123L431.99 783.338L433.775 781.662L438.269 766.416L443.911 761.782L449.728 761.042L451.964 762.375L457.669 773.467L462.429 778.94L464.991 778.222L476.043 762.827L489.897 756.243L492.386 756.907L494.812 761.293L503.605 766.314L514.2 758.729L534.325 757.851L578.864 761.883L614.02 773.444L631.753 766.465L643.245 765.994L664.184 771.964L665.261 767.288L673.585 761.146L674.831 757.293L675.99 757.744L677.49 755.306L680.677 755.24ZM554.772 548.748L557.432 549.175L560.426 552.341L560.723 548.132L558.475 546.214L555.389 547.059L554.772 548.748Z" fill="#275A67"/>
<g opacity="0.55">
<mask id="mask0_341_8108" style="mask-type:luminance" maskUnits="userSpaceOnUse" x="8" y="193" width="809" height="707">
<path d="M816.472 271.76L74.3215 193.61L8.25568 821.005L750.406 899.155L816.472 271.76Z" fill="white"/>
</mask>
<g mask="url(#mask0_341_8108)">
<mask id="mask1_341_8108" style="mask-type:luminance" maskUnits="userSpaceOnUse" x="96" y="278" width="627" height="567">
<path d="M709.888 831.244L722.33 844.654L708.99 827.275L709.851 831.24L709.888 831.244ZM576.445 651.558L579.048 653.222L580.505 656.738L579.767 651.25L576.599 649.747L576.412 651.518L576.445 651.558ZM555.136 547.032L554.52 548.721L557.18 549.148L560.173 552.314L560.47 548.105L558.223 546.187L555.136 547.032ZM508.937 468.507L507.023 470.718L505.428 474.754L505.941 476.819L506.999 477.186L506.172 475.673L511.991 469.706L515.007 471.266L515.235 472.57L514.038 473.175L515.148 474.79L521.473 473.044L522.822 473.771L527.753 473.815L517.015 470.6L512.497 467.675L508.937 468.507ZM237.287 286.989L230.198 290.081L216.76 289.251L183.53 299.679L160.938 321.902L125.393 383.119L100.138 414.31L96.334 426.485L97.1844 430.559L100.906 435.484L109.443 441.902L114.841 447.918L118.087 461.529L121.198 465.659L148.07 482.635L163.108 485.974L171.846 497.422L182.237 506.705L188.362 508.592L203.23 509.39L211.092 511.79L236.452 530.984L242.935 534.335L249.115 534.657L260.829 532.417L264.884 533.137L281.34 549.748L284.94 556.524L308.066 565.686L318.052 571.526L320.693 578.384L321.358 591.505L320.267 651.158L317.223 690.83L317.432 710.373L318.885 720.176L321.667 725.002L327.541 729.971L351.839 747.444L375.199 772.423L379.399 778.019L384.504 788.902L384.791 788.603L388.192 783.734L387.612 778.482L376.275 760.472L381.668 759.944L393.941 768.364L414.205 772.765L428.686 783.136L431.77 783.351L433.555 781.675L438.012 766.425L443.654 761.792L449.435 761.048L451.708 762.384L457.412 773.476L462.173 778.949L464.734 778.232L475.787 762.836L489.64 756.252L492.129 756.916L494.555 761.303L503.348 766.323L513.944 758.738L534.069 757.86L578.608 761.892L613.763 773.454L631.497 766.474L642.988 766.003L663.928 771.973L665.005 767.298L673.328 761.155L674.575 757.302L675.733 757.753L677.233 755.316L680.421 755.249L682.09 753.634L680.15 751.565L677.368 752.99L676.436 748.652L675.005 749.744L672.712 748.26L672.851 750.76L668.522 754.033L667.407 757.681L663.525 759.831L663.391 753.456L665.239 750.141L663.213 750.988L661.66 749.764L661.949 748.406L659.272 749.184L656.246 748.061L651.78 752.635L645.213 754.941L633.235 752.401L623.92 740.526L621.27 734.8L621.985 733.56L617.786 734.214L615.93 738.99L612.603 721.641L611.263 719.782L608.761 719.592L606.289 710.778L599.983 701.231L599.064 703.364L600.307 705.103L597.991 703.836L598.781 701.543L596.831 694.721L598.088 690.064L594.974 684.582L596.078 678.264L592.936 667.479L584.667 660.613L583.192 656.217L581.405 657.564L583.122 660.011L583.146 662.902L582.098 662.791L576.975 655.891L576.878 652.993L573.615 651.699L571.979 647.798L568.729 644.641L568.244 639.874L567.701 639.123L566.299 640.985L566.198 639.513L563.384 637.425L561.751 632.793L562.937 634.38L564.404 633.987L566.912 637.943L570.607 638.953L571.513 642.851L572.618 642.419L573.3 640.114L571.37 638.997L569.709 633.595L566.904 631.764L562.366 624.523L559.274 616.74L560.327 614.037L562.155 613.681L560.528 612.12L561.002 610.05L559.754 608.018L556.139 607.637L554.087 605.593L551.901 607.958L550.308 607.462L550.487 599.511L551.911 597.797L549.683 594.309L552.969 587.051L554.37 586.248L556.333 587.735L562.696 603.685L564.706 602.654L564.337 599.215L566.71 593.689L565.65 592.298L566.271 586.405L568.445 589.705L567.867 591.727L570.62 588.837L571.031 584.932L571.987 584.887L570.864 583.05L572.653 572.308L571.428 567.975L567.225 563.804L568.894 563.578L568.785 560.788L571.423 559.348L571.385 556.237L570.342 557.808L570.125 555.007L569.505 553.955L568.348 558.695L569.276 559.597L565.986 564.112L563.959 562.875L564.329 556.59L563.158 556.248L561.798 560.491L560.871 557.835L560.021 558.622L559.628 561.652L556.095 556.674L553.863 550.443L553.289 543.401L554.32 540.548L552.189 539.958L551.869 537.439L553.329 531.561L553.415 533.873L556.48 539.131L559.144 537.437L563.543 538.705L566.814 543.399L568.371 543.198L567.317 542.1L566.057 540.87L554.701 526.515L549.448 520.515L541.629 519.435L539.612 517.761L536.655 516.682L533.543 514.636L532.59 514.316L526.68 509.344L526.372 508.799L525.805 506.546L523.925 506.348L523.995 503.249L525.456 503.256L525.951 501.334L521.989 502.16L519.561 498.834L525.676 495.968L526.345 497.245L527.093 496.044L527.322 495.959L528.595 496.02L528.694 495.774L525.929 494.606L519.485 498.168L516.492 495.001L515.214 489.785L516.974 487.302L518.28 483.236L521.17 475.571L518.476 478.943L516.673 485.991L514.223 487.743L511.758 485.108L513.737 484.366L513.277 480.406L510.348 480.097L509.323 474.908L507.334 476.088L507.844 477.494L506.029 480.154L507.835 480.016L512.244 484.318L508.786 487.646L510.98 492.154L507.185 490.695L503.943 492.327L504.417 489.562L503.13 488.586L501.193 493.098L499.913 490.331L497.861 491.065L498.455 489.592L497.11 489.524L498.316 488.481L500.002 489.134L501.435 484.204L498.495 482.615L497.085 483.161L495.978 483.263L494.568 483.115L492.909 480.125L493.278 470.367L489.057 468.79L484.42 471.518L486.289 468.352L485.524 465.895L487.474 465.772L489.141 463.827L485.64 461.667L485.604 464.441L482.913 464.999L481.509 463.06L477.543 460.449L476.43 460.953L477.359 459.077L479.484 460.068L481.378 457.709L482.164 458.925L484.152 457.745L486.066 459.701L488.011 457.896L489.374 459.538L491.368 456.567L492.276 458.016L491.539 459.802L492.991 460.248L492.622 455.42L489.737 453.654L488.248 450.098L483.85 447.77L474.217 447.597L467.51 444.295L464.812 440.063L462.365 439.001L458.176 440.936L458.325 443.693L456.134 444.705L455.982 441.29L457.581 438.607L455.924 438.03L453.811 441.427L450.9 439.914L451.821 438.11L452.049 435.941L453.429 435.684L454.32 434.169L451.465 434.892L452.483 431.819L451.433 429.99L449.64 432.433L448.95 426.146L447.656 429.41L445.964 429.158L449.805 417.682L450.436 421.404L452.429 418.799L451.475 424.036L452.921 424.188L452.822 426.517L455.247 425.018L455.484 423.8L454.333 422.582L455.462 417.072L450.239 413.561L450.246 410.015L447.615 409.665L443.6 404.746L443.491 401.956L445.689 402.261L447.8 399.924L437.636 396.807L432.468 390.341L431.542 387.684L432.28 380.67L434.139 379.331L429.877 373.289L426.083 370.44L423.716 365.146L426.662 357.304L424.443 356.851L424.94 355.953L422.79 354.155L423.121 348.231L419.793 346.857L416.796 343.727L350.935 342.567L351.458 340.722L342.597 328.018L342.455 315.829L341.087 309.032L332.705 294.551L330.487 292.709L248.257 278.969L237.186 286.905L237.287 286.989Z" fill="white"/>
</mask>
<g mask="url(#mask1_341_8108)">
<path d="M-123.504 662.808L271.163 1086.23L274.295 1086.34L-123.397 659.712L-123.504 662.808Z" fill="#DBDADA"/>
<path d="M-122.664 639.574L294.402 1087.03L297.535 1087.14L-122.554 636.442L-122.664 639.574Z" fill="#DBDADA"/>
<path d="M-121.863 616.336L317.672 1087.87L320.804 1087.98L-121.753 613.204L-121.863 616.336Z" fill="#DBDADA"/>
<path d="M-121.025 593.101L340.91 1088.67L344.043 1088.79L-120.914 589.969L-121.025 593.101Z" fill="#DBDADA"/>
<path d="M-120.221 569.863L364.15 1089.48L367.282 1089.59L-120.111 566.731L-120.221 569.863Z" fill="#DBDADA"/>
<path d="M-119.422 546.625L387.382 1090.31L390.514 1090.43L-119.311 543.493L-119.422 546.625Z" fill="#DBDADA"/>
<path d="M-118.582 523.39L410.622 1091.12L413.754 1091.23L-118.471 520.258L-118.582 523.39Z" fill="#DBDADA"/>
<path d="M-117.78 500.153L433.86 1091.92L436.992 1092.03L-117.669 497.021L-117.78 500.153Z" fill="#DBDADA"/>
<path d="M-116.937 476.882L457.094 1092.76L460.227 1092.87L-116.831 473.786L-116.937 476.882Z" fill="#DBDADA"/>
<path d="M-116.135 453.644L480.369 1093.56L483.465 1093.67L-116.025 450.512L-116.135 453.644Z" fill="#DBDADA"/>
<path d="M-115.334 430.406L503.602 1094.4L506.734 1094.51L-115.224 427.273L-115.334 430.406Z" fill="#DBDADA"/>
<path d="M-114.496 407.172L526.84 1095.2L529.973 1095.31L-114.385 404.04L-114.496 407.172Z" fill="#DBDADA"/>
<path d="M-113.694 383.933L550.079 1096L553.211 1096.12L-113.583 380.801L-113.694 383.933Z" fill="#DBDADA"/>
<path d="M-112.892 360.696L573.313 1096.84L576.445 1096.95L-112.781 357.563L-112.892 360.696Z" fill="#DBDADA"/>
<path d="M-112.053 337.461L596.551 1097.64L599.684 1097.76L-111.943 334.329L-112.053 337.461Z" fill="#DBDADA"/>
<path d="M-111.252 314.223L619.789 1098.45L622.921 1098.56L-111.142 311.091L-111.252 314.223Z" fill="#DBDADA"/>
<path d="M-110.41 290.952L643.023 1099.28L646.155 1099.4L-110.303 287.856L-110.41 290.952Z" fill="#DBDADA"/>
<path d="M-109.608 267.715L666.298 1100.09L669.393 1100.2L-109.497 264.583L-109.608 267.715Z" fill="#DBDADA"/>
</g>
<path d="M317.297 701.585L384.662 773.857L378.366 763.873L317.242 698.289L317.297 701.585Z" fill="#DBDADA"/>
<path d="M318.132 678.387L404.121 770.643L407.907 771.48L318.373 675.415L318.129 678.423L318.132 678.387ZM118.12 461.569L121.227 465.735L125.374 468.365L117.819 460.258L118.152 461.609L118.12 461.569Z" fill="#DBDADA"/>
<path d="M319.858 656.087L434.322 778.904L435.058 776.423L320.065 653.075L319.822 656.083L319.858 656.087ZM98.7793 418.883L160.857 485.481L163.144 485.977L171.299 496.706L172.58 498.084L182.237 506.704L184.22 507.315L99.5082 416.474L98.7393 418.915L98.7793 418.883Z" fill="#DBDADA"/>
<path d="M320.563 632.729L442.056 763.086L443.615 761.824L443.875 761.778L320.605 629.553L320.563 632.729ZM107.988 404.682L206.556 510.435L210.807 511.724L109.379 402.927L107.988 404.682Z" fill="#DBDADA"/>
<path d="M321.005 609.088L470.812 769.807L472.138 767.972L321.083 605.916L321.041 609.092L321.005 609.088ZM118.449 391.783L251.309 534.304L253.883 533.807L119.876 390.033L118.485 391.787L118.449 391.783Z" fill="#DBDADA"/>
<path d="M320.988 584.959L483.407 759.215L485.521 758.231L320.8 581.54L320.984 584.995L320.988 584.959ZM128.284 378.233L300.196 562.664L305.004 564.559L129.445 376.235L128.284 378.233Z" fill="#DBDADA"/>
<path d="M136.902 363.385L508.845 762.369L510.66 761.098L138.062 361.387L136.902 363.385Z" fill="#DBDADA"/>
<path d="M145.524 348.501L527.381 758.18L530.319 758.051L146.685 346.503L145.524 348.501Z" fill="#DBDADA"/>
<path d="M154.18 333.657L551.048 759.43L554.342 759.74L155.34 331.659L154.18 333.657Z" fill="#DBDADA"/>
<path d="M163.457 319.499L575.599 761.648L578.572 761.888L578.994 762.042L165.046 317.948L163.457 319.499Z" fill="#DBDADA"/>
<path d="M175.161 307.974L607.049 771.248L611.393 772.693L176.75 306.423L175.161 307.974Z" fill="#DBDADA"/>
<path d="M188.515 298.157L626.806 768.32L629.017 767.456L190.859 297.417L188.515 298.157Z" fill="#DBDADA"/>
<path d="M709.886 831.244L722.329 844.654L717.123 837.855L709.569 829.749L709.886 831.244ZM648.597 767.581L652.714 768.745L638.426 753.423L634.672 752.625L648.633 767.584L648.597 767.581ZM617.9 734.153L617.754 734.503L627.772 745.246L624.035 740.465L621.742 735.508L620.167 733.807L617.9 734.153ZM205.943 292.681L614.506 730.981L613.731 726.878L208.291 291.905L205.947 292.645L205.943 292.681Z" fill="#DBDADA"/>
<path d="M663.688 759.665L668.418 764.733L670.201 763.422L665.668 758.558L663.688 759.665ZM654.522 749.854L663.518 759.538L663.463 756.242L656.038 748.295L654.482 749.886L654.522 749.854ZM225.728 289.83L597.207 688.363L595.082 684.593L595.35 683.086L228.961 290.024L225.764 289.834L225.728 289.83Z" fill="#DBDADA"/>
<path d="M679.073 752.074L681.239 754.422L682.093 753.598L680.154 751.529L679.069 752.11L679.073 752.074ZM676.084 748.871L676.678 749.482L676.48 748.584L676.084 748.871ZM242.265 283.456L570.423 635.498L569.821 633.571L567.016 631.74L562.479 624.499L561.961 623.165L244.084 282.149L242.265 283.456Z" fill="#DBDADA"/>
<path d="M562.486 602.895L563.076 603.542L564.814 602.665L564.766 602.075L560.234 597.211L562.486 602.895ZM551.317 590.935L552.316 588.737L266.462 282.092L262.869 281.495L551.317 590.935Z" fill="#DBDADA"/>
<path d="M570.847 587.728L571.14 584.944L571.284 584.959L293.118 286.544L289.525 285.947L570.847 587.728Z" fill="#DBDADA"/>
<path d="M568.452 558.742L569.381 559.644L568.397 561.003L568.922 561.57L568.89 560.836L570.479 559.979L568.641 557.995L568.452 558.742ZM564.426 556.71L564.433 556.638L564.325 556.626L564.426 556.71ZM555.361 546.982L560.188 552.169L560.399 549.121L557.77 546.322L555.361 546.982ZM504.384 492.3L553.555 545.037L553.426 543.488L553.896 542.149L506.434 491.237L504.388 492.264L504.384 492.3ZM502.611 490.396L504.186 492.097L504.622 489.693L503.336 488.717L502.611 490.396ZM497.291 483.292L496.183 483.395L496.111 483.387L500.546 488.131L501.283 485.65L498.592 482.734L497.334 483.223L497.291 483.292ZM484.941 471.427L493.085 480.18L493.196 477.048L486.89 470.279L484.941 471.427ZM458.386 441.031L458.502 443.054L484.776 471.263L485.973 469.269L477.922 460.671L477.716 460.54L476.603 461.044L477.167 459.861L459.234 440.608L458.35 441.027L458.386 441.031ZM455.282 439.607L456.498 440.905L457.659 438.907L457.299 438.504L456.169 438.129L455.286 439.571L455.282 439.607ZM365.153 342.931L452.257 436.401L452.287 436.112L453.667 435.855L454.108 435.134L453.616 434.606L451.699 435.099L452.299 433.225L450.687 431.52L449.874 432.641L449.604 430.346L448.158 428.804L447.857 429.577L446.166 429.326L446.809 427.383L368.181 342.994L365.117 342.927L365.153 342.931ZM342.653 318.811L342.624 315.957L342.501 315.395L319.806 291.036L316.213 290.438L342.653 318.811Z" fill="#DBDADA"/>
<path d="M517.701 482.48L518.424 483.251L519.29 480.929L518.373 479.919L517.738 482.484L517.701 482.48ZM506.987 470.714L506.968 470.895L508.802 472.916L510.359 471.325L508.355 469.177L507.023 470.718L506.987 470.714ZM492.809 455.732L492.835 455.479L492.284 455.165L492.809 455.732ZM489.064 451.719L488.425 450.153L486.798 449.287L489.064 451.719ZM450.437 410.291L450.46 410.074L450.207 410.048L450.437 410.291ZM443.703 403.075L443.669 402.012L445.866 402.316L445.95 402.215L442.173 398.162L437.926 396.837L443.707 403.039L443.703 403.075ZM387.931 343.246L437.462 396.386L432.646 390.396L431.719 387.739L431.788 387.089L390.991 343.349L387.927 343.282L387.931 343.246Z" fill="#DBDADA"/>
<path d="M410.806 343.681L425.882 359.855L426.744 357.569L426.518 357.289L424.585 356.903L425.118 356.009L422.971 354.174L423.004 353.52L413.87 343.748L410.806 343.681Z" fill="#DBDADA"/>
<mask id="mask2_341_8108" style="mask-type:luminance" maskUnits="userSpaceOnUse" x="96" y="278" width="627" height="567">
<path d="M709.888 831.244L722.33 844.654L708.99 827.275L709.851 831.24L709.888 831.244ZM576.445 651.558L579.048 653.222L580.505 656.738L579.767 651.25L576.599 649.747L576.412 651.518L576.445 651.558ZM555.136 547.032L554.52 548.721L557.18 549.148L560.173 552.314L560.47 548.105L558.223 546.187L555.136 547.032ZM508.937 468.507L507.023 470.718L505.428 474.754L505.941 476.819L506.999 477.186L506.172 475.673L511.991 469.706L515.007 471.266L515.235 472.57L514.038 473.175L515.148 474.79L521.473 473.044L522.822 473.771L527.753 473.815L517.015 470.6L512.497 467.675L508.937 468.507ZM237.287 286.989L230.198 290.081L216.76 289.251L183.53 299.679L160.938 321.902L125.393 383.119L100.138 414.31L96.334 426.485L97.1844 430.559L100.906 435.484L109.443 441.902L114.841 447.918L118.087 461.529L121.198 465.659L148.07 482.635L163.108 485.974L171.846 497.422L182.237 506.705L188.362 508.592L203.23 509.39L211.092 511.79L236.452 530.984L242.935 534.335L249.115 534.657L260.829 532.417L264.884 533.137L281.34 549.748L284.94 556.524L308.066 565.686L318.052 571.526L320.693 578.384L321.358 591.505L320.267 651.158L317.223 690.83L317.432 710.373L318.885 720.176L321.667 725.002L327.541 729.971L351.839 747.444L375.199 772.423L379.399 778.019L384.504 788.902L384.791 788.603L388.192 783.734L387.612 778.482L376.275 760.472L381.668 759.944L393.941 768.364L414.205 772.765L428.686 783.136L431.77 783.351L433.555 781.675L438.012 766.425L443.654 761.792L449.435 761.048L451.708 762.384L457.412 773.476L462.173 778.949L464.734 778.232L475.787 762.836L489.64 756.252L492.129 756.916L494.555 761.303L503.348 766.323L513.944 758.738L534.069 757.86L578.608 761.892L613.763 773.454L631.497 766.474L642.988 766.003L663.928 771.973L665.005 767.298L673.328 761.155L674.575 757.302L675.733 757.753L677.233 755.316L680.421 755.249L682.09 753.634L680.15 751.565L677.368 752.99L676.436 748.652L675.005 749.744L672.712 748.26L672.851 750.76L668.522 754.033L667.407 757.681L663.525 759.831L663.391 753.456L665.239 750.141L663.213 750.988L661.66 749.764L661.949 748.406L659.272 749.184L656.246 748.061L651.78 752.635L645.213 754.941L633.235 752.401L623.92 740.526L621.27 734.8L621.985 733.56L617.786 734.214L615.93 738.99L612.603 721.641L611.263 719.782L608.761 719.592L606.289 710.778L599.983 701.231L599.064 703.364L600.307 705.103L597.991 703.836L598.781 701.543L596.831 694.721L598.088 690.064L594.974 684.582L596.078 678.264L592.936 667.479L584.667 660.613L583.192 656.217L581.405 657.564L583.122 660.011L583.146 662.902L582.098 662.791L576.975 655.891L576.878 652.993L573.615 651.699L571.979 647.798L568.729 644.641L568.244 639.874L567.701 639.123L566.299 640.985L566.198 639.513L563.384 637.425L561.751 632.793L562.937 634.38L564.404 633.987L566.912 637.943L570.607 638.953L571.513 642.851L572.618 642.419L573.3 640.114L571.37 638.997L569.709 633.595L566.904 631.764L562.366 624.523L559.274 616.74L560.327 614.037L562.155 613.681L560.528 612.12L561.002 610.05L559.754 608.018L556.139 607.637L554.087 605.593L551.901 607.958L550.308 607.462L550.487 599.511L551.911 597.797L549.683 594.309L552.969 587.051L554.37 586.248L556.333 587.735L562.696 603.685L564.706 602.654L564.337 599.215L566.71 593.689L565.65 592.298L566.271 586.405L568.445 589.705L567.867 591.727L570.62 588.837L571.031 584.932L571.987 584.887L570.864 583.05L572.653 572.308L571.428 567.975L567.225 563.804L568.894 563.578L568.785 560.788L571.423 559.348L571.385 556.237L570.342 557.808L570.125 555.007L569.505 553.955L568.348 558.695L569.276 559.597L565.986 564.112L563.959 562.875L564.329 556.59L563.158 556.248L561.798 560.491L560.871 557.835L560.021 558.622L559.628 561.652L556.095 556.674L553.863 550.443L553.289 543.401L554.32 540.548L552.189 539.958L551.869 537.439L553.329 531.561L553.415 533.873L556.48 539.131L559.144 537.437L563.543 538.705L566.814 543.399L568.371 543.198L567.317 542.1L566.057 540.87L554.701 526.515L549.448 520.515L541.629 519.435L539.612 517.761L536.655 516.682L533.543 514.636L532.59 514.316L526.68 509.344L526.372 508.799L525.805 506.546L523.925 506.348L523.995 503.249L525.456 503.256L525.951 501.334L521.989 502.16L519.561 498.834L525.676 495.968L526.345 497.245L527.093 496.044L527.322 495.959L528.595 496.02L528.694 495.774L525.929 494.606L519.485 498.168L516.492 495.001L515.214 489.785L516.974 487.302L518.28 483.236L521.17 475.571L518.476 478.943L516.673 485.991L514.223 487.743L511.758 485.108L513.737 484.366L513.277 480.406L510.348 480.097L509.323 474.908L507.334 476.088L507.844 477.494L506.029 480.154L507.835 480.016L512.244 484.318L508.786 487.646L510.98 492.154L507.185 490.695L503.943 492.327L504.417 489.562L503.13 488.586L501.193 493.098L499.913 490.331L497.861 491.065L498.455 489.592L497.11 489.524L498.316 488.481L500.002 489.134L501.435 484.204L498.495 482.615L497.085 483.161L495.978 483.263L494.568 483.115L492.909 480.125L493.278 470.367L489.057 468.79L484.42 471.518L486.289 468.352L485.524 465.895L487.474 465.772L489.141 463.827L485.64 461.667L485.604 464.441L482.913 464.999L481.509 463.06L477.543 460.449L476.43 460.953L477.359 459.077L479.484 460.068L481.378 457.709L482.164 458.925L484.152 457.745L486.066 459.701L488.011 457.896L489.374 459.538L491.368 456.567L492.276 458.016L491.539 459.802L492.991 460.248L492.622 455.42L489.737 453.654L488.248 450.098L483.85 447.77L474.217 447.597L467.51 444.295L464.812 440.063L462.365 439.001L458.176 440.936L458.325 443.693L456.134 444.705L455.982 441.29L457.581 438.607L455.924 438.03L453.811 441.427L450.9 439.914L451.821 438.11L452.049 435.941L453.429 435.684L454.32 434.169L451.465 434.892L452.483 431.819L451.433 429.99L449.64 432.433L448.95 426.146L447.656 429.41L445.964 429.158L449.805 417.682L450.436 421.404L452.429 418.799L451.475 424.036L452.921 424.188L452.822 426.517L455.247 425.018L455.484 423.8L454.333 422.582L455.462 417.072L450.239 413.561L450.246 410.015L447.615 409.665L443.6 404.746L443.491 401.956L445.689 402.261L447.8 399.924L437.636 396.807L432.468 390.341L431.542 387.684L432.28 380.67L434.139 379.331L429.877 373.289L426.083 370.44L423.716 365.146L426.662 357.304L424.443 356.851L424.94 355.953L422.79 354.155L423.121 348.231L419.793 346.857L416.796 343.727L350.935 342.567L351.458 340.722L342.597 328.018L342.455 315.829L341.087 309.032L332.705 294.551L330.487 292.709L248.257 278.969L237.186 286.905L237.287 286.989Z" fill="white"/>
</mask>
<g mask="url(#mask2_341_8108)">
<path d="M129.203 17.4874L932.666 879.415L932.777 876.283L132.335 17.5979L129.203 17.4874Z" fill="#DBDADA"/>
<path d="M152.44 18.2897L933.504 856.181L933.614 853.049L155.572 18.4002L152.44 18.2897Z" fill="#DBDADA"/>
<path d="M175.679 19.0914L934.307 832.942L934.417 829.81L178.811 19.2019L175.679 19.0914Z" fill="#DBDADA"/>
<path d="M198.912 19.9298L935.108 809.705L935.219 806.572L202.045 20.0403L198.912 19.9298Z" fill="#DBDADA"/>
<path d="M222.151 20.7326L935.947 786.471L936.057 783.339L225.283 20.8431L222.151 20.7326Z" fill="#DBDADA"/>
<path d="M245.388 21.5338L936.748 763.232L936.859 760.1L248.521 21.6443L245.388 21.5338Z" fill="#DBDADA"/>
<path d="M268.659 22.3761L937.551 739.994L937.661 736.862L271.755 22.4828L268.659 22.3761Z" fill="#DBDADA"/>
<path d="M291.898 23.1779L938.392 716.724L938.503 713.592L295.03 23.2883L291.898 23.1779Z" fill="#DBDADA"/>
<path d="M315.132 24.0167L939.195 693.486L939.305 690.354L318.264 24.1272L315.132 24.0167Z" fill="#DBDADA"/>
<path d="M338.37 24.8185L940.033 670.252L940.143 667.12L341.502 24.929L338.37 24.8185Z" fill="#DBDADA"/>
<path d="M361.608 25.6198L940.835 647.013L940.945 643.881L364.74 25.7302L361.608 25.6198Z" fill="#DBDADA"/>
<path d="M384.842 26.4581L941.636 623.775L941.747 620.643L387.974 26.5686L384.842 26.4581Z" fill="#DBDADA"/>
<path d="M408.081 27.2604L942.475 600.541L942.586 597.409L411.213 27.3709L408.081 27.2604Z" fill="#DBDADA"/>
<path d="M431.317 28.0621L943.276 577.303L943.386 574.17L434.45 28.1726L431.317 28.0621Z" fill="#DBDADA"/>
<path d="M454.588 28.9039L944.078 554.064L944.189 550.932L457.685 29.0106L454.588 28.9039Z" fill="#DBDADA"/>
<path d="M477.828 29.7057L944.922 530.794L945.028 527.698L480.96 29.8162L477.828 29.7057Z" fill="#DBDADA"/>
<path d="M501.061 30.5446L945.723 507.556L945.833 504.424L504.193 30.655L501.061 30.5446Z" fill="#DBDADA"/>
</g>
<path d="M722.329 844.654L709.025 827.279L709.887 831.244L722.329 844.654ZM522.817 473.807L527.748 473.851L517.01 470.637L512.492 467.712L508.932 468.543L507.018 470.754L505.423 474.79L505.936 476.855L506.994 477.222L506.171 475.673L511.99 469.706L515.042 471.27L515.27 472.574L514.073 473.179L515.183 474.794L521.508 473.048L522.857 473.775L522.817 473.807ZM579.043 653.258L580.5 656.774L579.762 651.286L576.594 649.783L576.407 651.555L579.047 653.222L579.043 653.258ZM680.423 755.213L682.128 753.601L680.189 751.533L677.407 752.958L676.479 748.583L675.048 749.675L672.755 748.191L672.894 750.691L668.564 753.964L667.449 757.612L663.531 759.758L663.398 753.384L665.246 750.069L663.219 750.916L661.667 749.692L661.988 748.373L659.311 749.152L656.285 748.029L651.815 752.639L645.284 754.949L633.27 752.404L623.955 740.53L621.305 734.804L622.02 733.564L617.821 734.218L615.965 738.994L612.638 721.645L611.262 719.782L608.76 719.592L606.288 710.778L599.982 701.231L599.063 703.364L600.302 705.139L597.986 703.872L598.776 701.579L596.826 694.757L598.083 690.1L594.969 684.618L596.073 678.301L592.931 667.515L584.662 660.649L583.187 656.253L581.4 657.6L583.117 660.047L583.141 662.938L582.093 662.828L576.97 655.928L576.873 653.029L573.606 651.771L571.97 647.87L568.72 644.713L568.235 639.947L567.693 639.195L566.29 641.058L566.225 639.589L563.411 637.501L561.779 632.87L562.964 634.457L564.431 634.063L566.939 638.019L570.634 639.03L571.54 642.927L572.646 642.495L573.327 640.19L571.398 639.073L569.737 633.671L566.932 631.84L562.394 624.6L559.302 616.817L560.39 614.116L562.219 613.761L560.628 612.204L561.102 610.134L559.854 608.101L556.238 607.721L554.187 605.677L552.001 608.042L550.408 607.545L550.587 599.595L552.011 597.881L549.782 594.393L553.069 587.135L554.469 586.332L556.433 587.818L562.796 603.769L564.805 602.737L564.436 599.299L566.809 593.773L565.753 592.346L566.374 586.452L568.549 589.752L567.97 591.775L570.724 588.884L571.135 584.98L572.09 584.934L570.968 583.098L572.757 572.356L571.531 568.023L567.328 563.852L568.997 563.625L568.889 560.836L571.526 559.395L571.488 556.284L570.445 557.856L570.229 555.055L569.608 554.003L568.451 558.743L569.38 559.645L566.089 564.16L564.063 562.923L564.432 556.638L563.262 556.295L561.901 560.539L560.975 557.882L560.124 558.67L559.732 561.699L556.198 556.721L553.967 550.491L553.392 543.448L554.424 540.596L552.292 540.006L551.973 537.487L553.433 531.609L553.514 533.957L556.58 539.215L559.244 537.521L563.643 538.789L566.914 543.483L568.467 543.318L567.413 542.22L566.153 540.99L554.797 526.635L549.543 520.635L541.725 519.555L539.707 517.881L536.75 516.802L533.639 514.756L532.686 514.436L526.776 509.464L526.467 508.919L525.901 506.666L524.02 506.468L524.055 503.365L525.516 503.372L526.011 501.451L522.049 502.276L519.621 498.95L525.735 496.084L526.405 497.361L527.153 496.161L527.381 496.075L528.654 496.136L528.753 495.89L525.989 494.722L519.549 498.248L516.556 495.081L515.277 489.865L517.038 487.382L518.343 483.316L521.234 475.651L518.539 479.023L516.737 486.071L514.286 487.823L511.822 485.188L513.801 484.446L513.341 480.486L510.412 480.177L509.387 474.988L507.398 476.168L507.908 477.574L506.092 480.234L507.898 480.096L512.303 484.434L508.846 487.762L511.04 492.27L507.249 490.775L504.006 492.407L504.52 489.61L503.234 488.634L501.297 493.145L499.98 490.375L497.965 491.113L498.555 489.676L497.209 489.608L498.416 488.565L500.102 489.218L501.535 484.287L498.595 482.698L497.185 483.244L496.077 483.347L494.667 483.199L493.008 480.209L493.378 470.451L489.157 468.873L484.52 471.602L486.389 468.436L485.624 465.979L487.574 465.855L489.241 463.911L485.74 461.751L485.74 464.529L483.053 465.05L481.645 463.147L477.679 460.536L476.566 461.041L477.499 459.128L479.624 460.12L481.517 457.76L482.303 458.976L484.292 457.797L486.206 459.753L488.151 457.947L489.513 459.589L491.508 456.619L492.415 458.067L491.679 459.854L493.131 460.299L492.762 455.472L489.877 453.706L488.387 450.149L483.994 447.785L474.325 447.608L467.617 444.306L464.919 440.074L462.472 439.012L458.284 440.947L458.432 443.705L456.242 444.717L456.09 441.301L457.688 438.618L456.031 438.042L453.918 441.438L451.007 439.925L451.924 438.157L452.153 435.988L453.532 435.731L454.423 434.217L451.569 434.94L452.587 431.866L451.537 430.038L449.744 432.481L449.057 426.158L447.763 429.421L446.071 429.17L449.912 417.694L450.543 421.416L452.536 418.811L451.582 424.047L453.029 424.2L452.929 426.529L455.354 425.03L455.592 423.812L454.437 422.63L455.565 417.119L450.342 413.608L450.35 410.063L447.718 409.713L443.703 404.794L443.595 402.004L445.793 402.309L447.907 399.936L437.744 396.818L432.576 390.352L431.649 387.696L432.388 380.682L434.247 379.342L429.985 373.3L426.19 370.452L423.823 365.158L426.769 357.316L424.554 356.827L425.051 355.929L422.901 354.13L423.196 348.203L419.868 346.829L416.867 343.735L351.01 342.539L351.53 340.729L342.668 328.025L342.522 315.873L341.154 309.076L332.809 294.599L330.59 292.756L248.361 279.016L237.289 286.953L230.201 290.045L216.763 289.215L183.532 299.643L160.94 321.866L125.396 383.083L100.177 414.278L96.3729 426.452L97.2233 430.527L100.945 435.451L109.481 441.87L114.88 447.885L118.126 461.497L121.237 465.626L148.109 482.603L163.147 485.941L171.885 497.39L182.276 506.672L188.401 508.56L203.269 509.358L211.131 511.758L236.49 530.951L242.974 534.303L249.154 534.624L260.868 532.385L264.923 533.105L281.343 549.712L284.943 556.488L308.068 565.65L318.055 571.49L320.695 578.348L321.361 591.469L320.27 651.122L317.226 690.794L317.435 710.337L318.888 720.14L321.67 724.966L327.544 729.935L351.841 747.408L375.202 772.386L379.402 777.983L384.507 788.866L384.794 788.567L388.195 783.698L387.614 778.446L376.278 760.436L381.671 759.907L393.908 768.324L414.171 772.725L428.652 783.096L431.737 783.311L433.522 781.635L438.015 766.389L443.657 761.756L449.474 761.016L451.71 762.348L457.415 773.44L462.175 778.913L464.737 778.196L475.789 762.8L489.643 756.216L492.132 756.88L494.558 761.267L503.351 766.287L513.946 758.702L534.071 757.824L578.611 761.856L613.766 773.417L631.499 766.438L642.991 765.967L663.93 771.937L665.007 767.262L673.331 761.119L674.577 757.266L675.736 757.717L677.236 755.279L680.423 755.213ZM554.518 548.721L557.179 549.148L560.172 552.314L560.469 548.105L558.222 546.187L555.135 547.032L554.518 548.721Z" stroke="#62929F" stroke-width="1.85409" stroke-miterlimit="10"/>
</g>
</g>
<circle cx="442.532" cy="427.177" r="34.7421" fill="#CDDC29" fill-opacity="0.2"/>
<circle cx="442.532" cy="427.177" r="35.034" fill="#CDDC29"/>
<path d="M529.033 424.136C526.2 424.136 523.784 423.844 521.784 423.261C519.812 422.65 518.202 421.803 516.952 420.72C515.73 419.637 514.827 418.331 514.244 416.804C513.689 415.276 513.411 413.568 513.411 411.68C513.411 410.791 513.494 409.805 513.661 408.722C513.827 407.611 514.022 406.611 514.244 405.723L518.327 404.89C517.993 405.945 517.743 406.973 517.577 407.972C517.41 408.944 517.327 410.014 517.327 411.18C517.327 412.596 517.507 413.888 517.868 415.054C518.229 416.221 518.868 417.234 519.785 418.095C520.729 418.956 522.006 419.623 523.617 420.095C525.228 420.567 527.283 420.803 529.783 420.803H534.99V405.14C536.129 404.89 537.212 404.695 538.239 404.556C539.295 404.417 540.35 404.348 541.405 404.348C543.099 404.348 544.502 404.556 545.613 404.973C546.751 405.39 547.654 406.014 548.321 406.848C549.015 407.653 549.501 408.653 549.779 409.847C550.056 411.041 550.195 412.43 550.195 414.013V420.803H554.986V424.136H546.446V414.054C546.446 411.749 546.002 410.083 545.113 409.055C544.224 408 542.863 407.472 541.03 407.472C540.725 407.472 540.322 407.486 539.822 407.514C539.35 407.542 538.989 407.584 538.739 407.639V424.136H529.033ZM527.908 432.801C527.186 432.801 526.589 432.537 526.117 432.009C525.645 431.509 525.408 430.898 525.408 430.176C525.408 429.454 525.645 428.829 526.117 428.302C526.589 427.802 527.186 427.552 527.908 427.552C528.63 427.552 529.227 427.802 529.699 428.302C530.171 428.829 530.407 429.454 530.407 430.176C530.407 430.898 530.171 431.509 529.699 432.009C529.227 432.537 528.63 432.801 527.908 432.801ZM534.282 432.842C533.56 432.842 532.949 432.578 532.449 432.051C531.977 431.523 531.741 430.898 531.741 430.176C531.741 429.454 531.977 428.843 532.449 428.343C532.949 427.843 533.56 427.593 534.282 427.593C535.004 427.593 535.587 427.843 536.031 428.343C536.503 428.843 536.74 429.454 536.74 430.176C536.74 430.898 536.503 431.523 536.031 432.051C535.587 432.578 535.004 432.842 534.282 432.842ZM554.135 420.803H560.759C560.037 419.998 559.453 419.026 559.009 417.887C558.565 416.748 558.343 415.471 558.343 414.054C558.343 412.749 558.551 411.513 558.967 410.347C559.384 409.18 560.009 408.153 560.842 407.264C561.675 406.375 562.731 405.667 564.008 405.14C565.286 404.612 566.799 404.348 568.549 404.348C569.354 404.348 570.16 404.404 570.965 404.515C571.77 404.626 572.52 404.792 573.215 405.015L572.798 408.556C572.243 408.333 571.562 408.139 570.757 407.972C569.951 407.778 569.146 407.681 568.341 407.681C566.23 407.681 564.675 408.264 563.675 409.43C562.703 410.569 562.217 412.027 562.217 413.804C562.217 415.971 562.925 417.679 564.341 418.928C565.758 420.178 567.785 420.803 570.424 420.803H575.089V424.136H554.135V420.803ZM584.554 420.803H589.303V424.136H580.805V396.558C580.305 396.475 579.722 396.405 579.055 396.35C578.416 396.266 577.792 396.197 577.181 396.141V393.933C578.236 393.795 579.416 393.697 580.722 393.642C582.055 393.586 583.332 393.586 584.554 393.642V420.803ZM588.471 420.803H594.386V404.973H598.135V420.803H602.884V424.136H588.471V420.803ZM596.094 401.557C595.4 401.557 594.817 401.307 594.344 400.807C593.9 400.307 593.678 399.71 593.678 399.016C593.678 398.349 593.9 397.78 594.344 397.308C594.817 396.808 595.4 396.558 596.094 396.558C596.788 396.558 597.344 396.808 597.76 397.308C598.205 397.78 598.427 398.349 598.427 399.016C598.427 399.71 598.205 400.307 597.76 400.807C597.344 401.307 596.788 401.557 596.094 401.557ZM602.058 420.803H607.974V404.973H611.723C611.723 406.528 611.695 407.903 611.64 409.097C611.612 410.264 611.57 411.277 611.515 412.138C611.459 412.999 611.39 413.721 611.307 414.304C611.223 414.888 611.154 415.36 611.098 415.721C611.709 414.388 612.473 413.055 613.389 411.722C614.306 410.361 615.334 409.139 616.472 408.056C617.611 406.945 618.833 406.056 620.138 405.39C621.443 404.695 622.776 404.348 624.137 404.348C626.581 404.348 628.511 405.14 629.928 406.723C631.372 408.306 632.094 410.68 632.094 413.846V420.803H636.843V424.136H602.058V420.803ZM628.095 420.803V414.388C628.095 413.416 628.012 412.527 627.845 411.722C627.678 410.888 627.401 410.18 627.012 409.597C626.651 409.014 626.165 408.556 625.554 408.222C624.97 407.889 624.248 407.722 623.387 407.722C622.471 407.722 621.457 408.042 620.346 408.681C619.263 409.319 618.194 410.208 617.139 411.347C616.083 412.485 615.07 413.86 614.098 415.471C613.153 417.082 612.362 418.859 611.723 420.803H628.095ZM636.028 420.803H641.735V393.642H645.484V424.136H636.028V420.803ZM657.456 424.136H653.707V396.558C653.207 396.475 652.624 396.405 651.957 396.35C651.318 396.266 650.694 396.197 650.083 396.141V393.933C651.138 393.795 652.318 393.697 653.624 393.642C654.957 393.586 656.234 393.586 657.456 393.642V424.136ZM670.708 420.803H683.914C683.914 417.165 683.039 414.277 681.29 412.138C679.54 410 676.804 408.403 673.083 407.347L673.458 403.39C675.568 403.834 677.499 404.529 679.248 405.473C680.998 406.389 682.498 407.542 683.747 408.93C684.997 410.291 685.955 411.874 686.622 413.68C687.316 415.457 687.663 417.457 687.663 419.678V420.803H692.412V424.136H670.708V420.803ZM690.745 420.803H696.91C696.688 420.442 696.48 419.984 696.286 419.428C696.119 418.873 696.036 418.276 696.036 417.637C696.036 416.665 696.202 415.776 696.535 414.971C696.869 414.166 697.327 413.485 697.91 412.93C698.493 412.346 699.188 411.902 699.993 411.597C700.799 411.263 701.673 411.097 702.618 411.097C705.034 411.097 706.756 411.874 707.783 413.43C708.839 414.957 709.366 417.415 709.366 420.803H714.032C714.032 418.415 713.838 416.318 713.449 414.513C713.06 412.707 712.421 411.194 711.532 409.972C710.672 408.75 709.547 407.833 708.158 407.222C706.77 406.584 705.089 406.264 703.118 406.264C701.784 406.264 700.451 406.375 699.118 406.598C697.785 406.82 696.313 407.139 694.703 407.556L694.994 404.098C696.188 403.737 697.494 403.459 698.91 403.265C700.354 403.043 701.812 402.932 703.284 402.932C705.867 402.932 708.075 403.334 709.908 404.14C711.741 404.917 713.24 406.028 714.407 407.472C715.573 408.889 716.42 410.597 716.948 412.596C717.504 414.596 717.781 416.804 717.781 419.22V420.803H722.739V424.136H690.745V420.803ZM705.659 420.803V418.012C705.659 416.762 705.367 415.832 704.784 415.221C704.228 414.61 703.437 414.304 702.409 414.304C701.493 414.304 700.799 414.61 700.326 415.221C699.854 415.804 699.618 416.443 699.618 417.137C699.618 418.47 699.924 419.414 700.535 419.97C701.146 420.525 702.034 420.803 703.201 420.803H705.659ZM721.053 420.803H727.635C727.08 420.164 726.566 419.289 726.094 418.179C725.649 417.068 725.427 415.707 725.427 414.096C725.427 412.874 725.622 411.68 726.01 410.513C726.427 409.347 727.024 408.306 727.802 407.389C728.607 406.473 729.593 405.737 730.759 405.181C731.954 404.626 733.314 404.348 734.842 404.348C736.314 404.348 737.591 404.598 738.674 405.098C739.758 405.598 740.66 406.278 741.382 407.139C742.104 408 742.646 409 743.007 410.139C743.368 411.277 743.548 412.485 743.548 413.763C743.548 415.29 743.299 416.693 742.799 417.97C742.327 419.22 741.646 420.303 740.757 421.22C739.869 422.136 738.799 422.858 737.55 423.386C736.3 423.886 734.911 424.136 733.384 424.136H721.053V420.803ZM734.217 420.845C736.05 420.845 737.411 420.22 738.3 418.97C739.188 417.693 739.633 416.04 739.633 414.013C739.633 413.207 739.535 412.416 739.341 411.638C739.147 410.833 738.827 410.125 738.383 409.514C737.966 408.903 737.425 408.417 736.758 408.056C736.092 407.667 735.3 407.472 734.384 407.472C733.523 407.472 732.773 407.653 732.134 408.014C731.495 408.375 730.968 408.861 730.551 409.472C730.135 410.055 729.829 410.75 729.635 411.555C729.44 412.333 729.343 413.166 729.343 414.054C729.343 414.86 729.44 415.665 729.635 416.471C729.829 417.276 730.121 418.012 730.509 418.679C730.926 419.317 731.44 419.845 732.051 420.262C732.662 420.65 733.384 420.845 734.217 420.845ZM734.175 400.391C733.481 400.391 732.898 400.141 732.426 399.641C731.981 399.141 731.759 398.544 731.759 397.849C731.759 397.183 731.981 396.614 732.426 396.141C732.898 395.641 733.481 395.392 734.175 395.392C734.87 395.392 735.425 395.641 735.842 396.141C736.286 396.614 736.508 397.183 736.508 397.849C736.508 398.544 736.286 399.141 735.842 399.641C735.425 400.141 734.87 400.391 734.175 400.391ZM772.809 424.136C769.976 424.136 767.56 423.844 765.56 423.261C763.588 422.65 761.977 421.803 760.728 420.72C759.506 419.637 758.603 418.331 758.02 416.804C757.464 415.276 757.187 413.568 757.187 411.68C757.187 410.791 757.27 409.805 757.437 408.722C757.603 407.611 757.798 406.611 758.02 405.723L762.102 404.89C761.769 405.945 761.519 406.973 761.353 407.972C761.186 408.944 761.103 410.014 761.103 411.18C761.103 412.596 761.283 413.888 761.644 415.054C762.005 416.221 762.644 417.234 763.56 418.095C764.505 418.956 765.782 419.623 767.393 420.095C769.004 420.567 771.059 420.803 773.558 420.803H781.64V393.642H785.389V420.803H790.138V424.136H772.809ZM774.891 401.64C774.642 401.612 774.405 401.599 774.183 401.599C773.961 401.571 773.739 401.557 773.517 401.557C773.045 401.557 772.656 401.682 772.35 401.932C772.073 402.154 771.934 402.473 771.934 402.89C771.934 403.307 772.1 403.682 772.434 404.015C772.767 404.348 773.336 404.515 774.142 404.515H775.891V406.889H767.685V404.515C767.99 404.515 768.434 404.529 769.018 404.556C769.601 404.556 770.087 404.626 770.476 404.765C770.115 404.515 769.851 404.237 769.684 403.931C769.545 403.598 769.476 403.168 769.476 402.64C769.476 401.668 769.851 400.904 770.601 400.349C771.351 399.766 772.309 399.474 773.475 399.474C773.753 399.474 774.044 399.488 774.35 399.516C774.683 399.543 775.03 399.585 775.391 399.641L774.891 401.64ZM789.317 420.803H795.024V393.642H798.774V420.803H803.523V424.136H789.317V420.803ZM818.074 424.136C815.713 424.136 813.88 423.775 812.575 423.053C811.269 422.303 810.283 421.345 809.617 420.178C809.228 421.345 808.534 422.303 807.534 423.053C806.562 423.775 805.215 424.136 803.493 424.136H802.702V420.803H804.035C804.562 420.803 805.076 420.72 805.576 420.553C806.076 420.386 806.52 420.095 806.909 419.678C807.298 419.234 807.603 418.651 807.826 417.929C808.076 417.179 808.201 416.248 808.201 415.138C808.201 413.305 808.423 411.722 808.867 410.389C809.339 409.028 809.992 407.903 810.825 407.014C811.658 406.125 812.644 405.459 813.783 405.015C814.949 404.57 816.241 404.348 817.657 404.348C818.879 404.348 819.976 404.542 820.948 404.931C821.948 405.292 822.795 405.876 823.489 406.681C824.183 407.459 824.711 408.472 825.072 409.722C825.461 410.944 825.655 412.416 825.655 414.138V420.803H829.988V424.136H818.074ZM821.906 420.803V413.388C821.906 412.583 821.795 411.819 821.573 411.097C821.378 410.375 821.073 409.75 820.656 409.222C820.268 408.667 819.768 408.236 819.157 407.931C818.573 407.625 817.893 407.472 817.115 407.472C816.227 407.472 815.463 407.639 814.824 407.972C814.213 408.306 813.699 408.764 813.283 409.347C812.894 409.93 812.602 410.611 812.408 411.388C812.241 412.166 812.158 413.013 812.158 413.929C812.158 416.318 812.686 418.068 813.741 419.178C814.824 420.262 816.504 420.803 818.782 420.803H821.906ZM829.145 420.803H834.852V393.642H838.601V424.136H829.145V420.803ZM850.573 424.136H846.824V396.558C846.324 396.475 845.741 396.405 845.074 396.35C844.436 396.266 843.811 396.197 843.2 396.141V393.933C844.255 393.795 845.435 393.697 846.741 393.642C848.074 393.586 849.351 393.586 850.573 393.642V424.136ZM863.825 420.803C864.131 420.803 864.52 420.803 864.992 420.803C865.492 420.803 866.006 420.831 866.533 420.886C867.089 420.914 867.63 420.956 868.158 421.011C868.686 421.067 869.13 421.164 869.491 421.303C868.158 420.331 867.491 418.956 867.491 417.179C867.491 416.29 867.686 415.457 868.075 414.679C868.463 413.874 868.991 413.18 869.658 412.596C870.352 411.985 871.171 411.499 872.115 411.138C873.087 410.777 874.157 410.597 875.323 410.597C875.934 410.597 876.628 410.625 877.406 410.68C878.211 410.736 879.003 410.847 879.781 411.013L879.114 414.304C877.753 414.054 876.42 413.929 875.115 413.929C873.782 413.929 872.824 414.221 872.24 414.804C871.685 415.388 871.407 416.207 871.407 417.262C871.407 418.29 871.838 419.151 872.699 419.845C873.56 420.511 874.879 420.845 876.656 420.845H880.655V424.136H863.825V420.803ZM890.523 420.803H895.272V424.136H886.774V396.558C886.274 396.475 885.69 396.405 885.024 396.35C884.385 396.266 883.76 396.197 883.149 396.141V393.933C884.205 393.795 885.385 393.697 886.69 393.642C888.023 393.586 889.301 393.586 890.523 393.642V420.803ZM894.439 420.803H900.355V404.973H904.104V420.803H908.853V424.136H894.439V420.803ZM902.063 401.557C901.369 401.557 900.785 401.307 900.313 400.807C899.869 400.307 899.647 399.71 899.647 399.016C899.647 398.349 899.869 397.78 900.313 397.308C900.785 396.808 901.369 396.558 902.063 396.558C902.757 396.558 903.313 396.808 903.729 397.308C904.174 397.78 904.396 398.349 904.396 399.016C904.396 399.71 904.174 400.307 903.729 400.807C903.313 401.307 902.757 401.557 902.063 401.557ZM908.027 420.803H913.943V404.973H917.692V420.803H922.441V424.136H908.027V420.803ZM911.36 432.759C910.638 432.759 910.041 432.495 909.568 431.967C909.096 431.468 908.86 430.857 908.86 430.135C908.86 429.412 909.096 428.788 909.568 428.26C910.041 427.76 910.638 427.51 911.36 427.51C912.082 427.51 912.679 427.76 913.151 428.26C913.623 428.788 913.859 429.412 913.859 430.135C913.859 430.857 913.623 431.468 913.151 431.967C912.679 432.495 912.082 432.759 911.36 432.759ZM917.734 432.801C917.011 432.801 916.4 432.537 915.901 432.009C915.428 431.481 915.192 430.857 915.192 430.135C915.192 429.412 915.428 428.801 915.901 428.302C916.4 427.802 917.011 427.552 917.734 427.552C918.456 427.552 919.039 427.802 919.483 428.302C919.955 428.801 920.191 429.412 920.191 430.135C920.191 430.857 919.955 431.481 919.483 432.009C919.039 432.537 918.456 432.801 917.734 432.801ZM921.615 420.803H922.948C923.476 420.803 923.989 420.72 924.489 420.553C924.989 420.386 925.434 420.095 925.822 419.678C926.211 419.234 926.517 418.651 926.739 417.929C926.989 417.179 927.114 416.248 927.114 415.138C927.114 413.305 927.336 411.722 927.78 410.389C928.252 409.028 928.905 407.903 929.738 407.014C930.571 406.125 931.557 405.459 932.696 405.015C933.862 404.57 935.154 404.348 936.57 404.348C937.792 404.348 938.889 404.542 939.861 404.931C940.861 405.292 941.708 405.876 942.402 406.681C943.097 407.459 943.624 408.472 943.985 409.722C944.374 410.944 944.569 412.416 944.569 414.138V424.136H936.987C934.626 424.136 932.793 423.775 931.488 423.053C930.183 422.303 929.197 421.345 928.53 420.178C928.141 421.345 927.447 422.303 926.447 423.053C925.475 423.775 924.128 424.136 922.406 424.136H921.615V420.803ZM940.819 420.803V413.388C940.819 412.583 940.708 411.819 940.486 411.097C940.292 410.375 939.986 409.75 939.57 409.222C939.181 408.667 938.681 408.236 938.07 407.931C937.487 407.625 936.806 407.472 936.029 407.472C935.14 407.472 934.376 407.639 933.737 407.972C933.126 408.306 932.613 408.764 932.196 409.347C931.807 409.93 931.516 410.611 931.321 411.388C931.155 412.166 931.071 413.013 931.071 413.929C931.071 416.318 931.599 418.068 932.654 419.178C933.737 420.262 935.418 420.803 937.695 420.803H940.819Z" fill="white"/>
</svg>
