<svg width="1124" height="1080" viewBox="0 0 1124 1080" fill="none" xmlns="http://www.w3.org/2000/svg">
<path d="M1050.52 929.518L783.17 910.394L516.407 605.583L490.906 479.469L426.951 442.619L333.121 295.185L133.098 238.804L-38.4388 225.46L-452.627 -91.9062L-568.174 -118.205L-784.735 -60.6269L-692.892 58.1129L-896.898 192.783L-1016.64 217.893L-987.144 315.115L-793.099 728.306L-668.389 861.388L-626.75 961.795L-632.329 1100.86L-484.106 1257.04L-235.069 1654.7L-186.861 1542.34L254.424 1585.37L331.724 1465.44L434.525 1411.25L739.336 1358.26L1056.1 1228.96L1111.89 998.653L1050.52 929.518Z" fill="#EEEEEE" fill-opacity="0.09"/>
<path d="M722.583 844.681L709.279 827.305L710.14 831.271L722.583 844.681ZM523.071 473.834L528.002 473.878L517.263 470.663L512.746 467.739L509.186 468.57L507.271 470.781L505.677 474.817L506.19 476.882L507.248 477.249L506.424 475.7L512.244 469.733L515.296 471.297L515.524 472.601L514.327 473.206L515.437 474.821L521.762 473.075L523.111 473.802L523.071 473.834ZM579.297 653.285L580.754 656.801L580.016 651.313L576.848 649.81L576.661 651.581L579.3 653.249L579.297 653.285ZM680.677 755.24L682.382 753.628L680.443 751.56L677.661 752.985L676.733 748.61L675.302 749.702L673.009 748.218L673.147 750.718L668.818 753.991L667.703 757.639L663.785 759.785L663.652 753.411L665.5 750.096L663.473 750.943L661.921 749.719L662.242 748.4L659.565 749.178L656.539 748.056L652.069 752.666L645.538 754.976L633.523 752.431L624.209 740.557L621.559 734.831L622.274 733.59L618.075 734.245L616.219 739.021L612.891 721.672L611.516 719.809L609.013 719.619L606.542 710.804L600.236 701.257L599.317 703.391L600.556 705.166L598.24 703.899L599.03 701.606L597.08 694.784L598.337 690.127L595.223 684.645L596.327 678.327L593.185 667.542L584.916 660.676L583.441 656.28L581.654 657.627L583.371 660.074L583.395 662.965L582.347 662.854L577.224 655.954L577.127 653.056L573.86 651.798L572.224 647.897L568.974 644.74L568.489 639.974L567.946 639.222L566.544 641.085L566.479 639.616L563.665 637.528L562.033 632.896L563.218 634.483L564.685 634.09L567.193 638.046L570.888 639.056L571.794 642.954L572.9 642.522L573.581 640.217L571.651 639.1L569.99 633.698L567.186 631.867L562.647 624.626L559.556 616.843L560.644 614.143L562.473 613.788L560.882 612.231L561.356 610.161L560.108 608.128L556.492 607.748L554.441 605.704L552.254 608.069L550.662 607.572L550.841 599.622L552.264 597.908L550.036 594.419L553.323 587.162L554.723 586.359L556.687 587.845L563.05 603.796L565.059 602.764L564.69 599.326L567.063 593.8L566.007 592.373L566.628 586.479L568.803 589.779L568.224 591.802L570.978 588.911L571.389 585.007L572.344 584.961L571.221 583.125L573.011 572.383L571.785 568.05L567.582 563.879L569.251 563.652L569.143 560.863L571.78 559.422L571.742 556.311L570.699 557.883L570.482 555.082L569.862 554.029L568.705 558.769L569.633 559.671L566.343 564.187L564.317 562.95L564.686 556.665L563.516 556.322L562.155 560.565L561.229 557.909L560.378 558.697L559.986 561.726L556.452 556.748L554.22 550.518L553.646 543.475L554.677 540.623L552.546 540.033L552.227 537.513L553.686 531.636L553.768 533.984L556.834 539.242L559.498 537.548L563.897 538.815L567.168 543.51L568.721 543.345L567.667 542.247L566.407 541.017L555.051 526.661L549.797 520.661L541.978 519.582L539.961 517.907L537.004 516.828L533.893 514.783L532.94 514.463L527.03 509.491L526.721 508.946L526.154 506.693L524.274 506.495L524.309 503.392L525.77 503.399L526.265 501.477L522.303 502.303L519.875 498.977L525.989 496.111L526.659 497.388L527.407 496.187L527.635 496.102L528.908 496.163L529.007 495.917L526.242 494.749L519.803 498.275L516.81 495.108L515.531 489.892L517.292 487.409L518.597 483.343L521.488 475.678L518.793 479.05L516.991 486.098L514.54 487.85L512.076 485.215L514.055 484.473L513.594 480.513L510.666 480.204L509.64 475.015L507.652 476.195L508.162 477.601L506.346 480.261L508.152 480.122L512.557 484.461L509.099 487.789L511.293 492.297L507.503 490.801L504.26 492.434L504.774 489.637L503.488 488.661L501.551 493.172L500.234 490.402L498.219 491.14L498.808 489.703L497.463 489.635L498.67 488.592L500.356 489.245L501.789 484.314L498.849 482.725L497.439 483.271L496.331 483.374L494.921 483.226L493.262 480.236L493.632 470.478L489.411 468.9L484.774 471.629L486.642 468.463L485.877 466.006L487.828 465.882L489.495 463.938L485.994 461.778L485.994 464.556L483.307 465.077L481.899 463.174L477.933 460.563L476.82 461.068L477.752 459.155L479.878 460.147L481.771 457.787L482.557 459.003L484.546 457.823L486.46 459.78L488.405 457.974L489.767 459.616L491.761 456.646L492.669 458.094L491.933 459.881L493.385 460.326L493.015 455.498L490.131 453.732L488.641 450.176L484.247 447.812L474.579 447.635L467.871 444.333L465.173 440.101L462.726 439.039L458.538 440.974L458.686 443.731L456.496 444.744L456.344 441.328L457.942 438.645L456.285 438.068L454.172 441.465L451.261 439.952L452.178 438.184L452.407 436.015L453.786 435.758L454.677 434.244L451.822 434.967L452.841 431.893L451.79 430.065L449.998 432.508L449.311 426.185L448.017 429.448L446.325 429.197L450.166 417.721L450.797 421.443L452.79 418.838L451.836 424.074L453.283 424.227L453.183 426.556L455.608 425.056L455.846 423.839L454.691 422.657L455.819 417.146L450.596 413.635L450.604 410.09L447.972 409.74L443.957 404.821L443.849 402.031L446.047 402.335L448.161 399.963L437.997 396.845L432.83 390.379L431.903 387.723L432.641 380.709L434.501 379.369L430.238 373.327L426.444 370.478L424.077 365.184L427.023 357.343L424.808 356.854L425.305 355.955L423.155 354.157L423.45 348.23L420.122 346.856L417.121 343.761L351.264 342.566L351.783 340.756L342.922 328.052L342.776 315.9L341.408 309.103L333.063 294.625L330.844 292.783L248.615 279.043L237.543 286.98L230.455 290.072L217.017 289.242L183.786 299.67L161.194 321.893L125.65 383.11L100.431 414.305L96.6268 426.479L97.4772 430.553L101.199 435.478L109.735 441.897L115.134 447.912L118.379 461.524L121.49 465.653L148.362 482.63L163.401 485.968L172.139 497.416L182.53 506.699L188.655 508.587L203.523 509.385L211.385 511.785L236.744 530.978L243.227 534.33L249.408 534.651L261.122 532.412L265.177 533.132L281.597 549.739L285.197 556.515L308.322 565.676L318.308 571.517L320.949 578.375L321.615 591.495L320.524 651.149L317.48 690.821L317.688 710.363L319.142 720.167L321.924 724.993L327.798 729.962L352.095 747.435L375.456 772.413L379.655 778.01L384.761 788.893L385.048 788.594L388.449 783.725L387.868 778.472L376.532 760.463L381.924 759.934L394.162 768.351L414.425 772.752L428.906 783.123L431.99 783.338L433.775 781.662L438.269 766.416L443.911 761.782L449.728 761.042L451.964 762.375L457.669 773.467L462.429 778.94L464.991 778.222L476.043 762.827L489.897 756.243L492.386 756.907L494.812 761.293L503.605 766.314L514.2 758.729L534.325 757.851L578.864 761.883L614.02 773.444L631.753 766.465L643.245 765.994L664.184 771.964L665.261 767.288L673.585 761.146L674.831 757.293L675.99 757.744L677.49 755.306L680.677 755.24ZM554.772 548.748L557.432 549.175L560.426 552.341L560.723 548.132L558.475 546.214L555.389 547.059L554.772 548.748Z" fill="#275A67"/>
<g opacity="0.55">
<mask id="mask0_341_9025" style="mask-type:luminance" maskUnits="userSpaceOnUse" x="8" y="193" width="809" height="707">
<path d="M816.472 271.76L74.3215 193.61L8.25568 821.005L750.406 899.155L816.472 271.76Z" fill="white"/>
</mask>
<g mask="url(#mask0_341_9025)">
<mask id="mask1_341_9025" style="mask-type:luminance" maskUnits="userSpaceOnUse" x="96" y="278" width="627" height="567">
<path d="M709.888 831.244L722.33 844.654L708.99 827.275L709.851 831.24L709.888 831.244ZM576.445 651.558L579.048 653.222L580.505 656.738L579.767 651.25L576.599 649.747L576.412 651.518L576.445 651.558ZM555.136 547.032L554.52 548.721L557.18 549.148L560.173 552.314L560.47 548.105L558.223 546.187L555.136 547.032ZM508.937 468.507L507.023 470.718L505.428 474.754L505.941 476.819L506.999 477.186L506.172 475.673L511.991 469.706L515.007 471.266L515.235 472.57L514.038 473.175L515.148 474.79L521.473 473.044L522.822 473.771L527.753 473.815L517.015 470.6L512.497 467.675L508.937 468.507ZM237.287 286.989L230.198 290.081L216.76 289.251L183.53 299.679L160.938 321.902L125.393 383.119L100.138 414.31L96.334 426.485L97.1844 430.559L100.906 435.484L109.443 441.902L114.841 447.918L118.087 461.529L121.198 465.659L148.07 482.635L163.108 485.974L171.846 497.422L182.237 506.705L188.362 508.592L203.23 509.39L211.092 511.79L236.452 530.984L242.935 534.335L249.115 534.657L260.829 532.417L264.884 533.137L281.34 549.748L284.94 556.524L308.066 565.686L318.052 571.526L320.693 578.384L321.358 591.505L320.267 651.158L317.223 690.83L317.432 710.373L318.885 720.176L321.667 725.002L327.541 729.971L351.839 747.444L375.199 772.423L379.399 778.019L384.504 788.902L384.791 788.603L388.192 783.734L387.612 778.482L376.275 760.472L381.668 759.944L393.941 768.364L414.205 772.765L428.686 783.136L431.77 783.351L433.555 781.675L438.012 766.425L443.654 761.792L449.435 761.048L451.708 762.384L457.412 773.476L462.173 778.949L464.734 778.232L475.787 762.836L489.64 756.252L492.129 756.916L494.555 761.303L503.348 766.323L513.944 758.738L534.069 757.86L578.608 761.892L613.763 773.454L631.497 766.474L642.988 766.003L663.928 771.973L665.005 767.298L673.328 761.155L674.575 757.302L675.733 757.753L677.233 755.316L680.421 755.249L682.09 753.634L680.15 751.565L677.368 752.99L676.436 748.652L675.005 749.744L672.712 748.26L672.851 750.76L668.522 754.033L667.407 757.681L663.525 759.831L663.391 753.456L665.239 750.141L663.213 750.988L661.66 749.764L661.949 748.406L659.272 749.184L656.246 748.061L651.78 752.635L645.213 754.941L633.235 752.401L623.92 740.526L621.27 734.8L621.985 733.56L617.786 734.214L615.93 738.99L612.603 721.641L611.263 719.782L608.761 719.592L606.289 710.778L599.983 701.231L599.064 703.364L600.307 705.103L597.991 703.836L598.781 701.543L596.831 694.721L598.088 690.064L594.974 684.582L596.078 678.264L592.936 667.479L584.667 660.613L583.192 656.217L581.405 657.564L583.122 660.011L583.146 662.902L582.098 662.791L576.975 655.891L576.878 652.993L573.615 651.699L571.979 647.798L568.729 644.641L568.244 639.874L567.701 639.123L566.299 640.985L566.198 639.513L563.384 637.425L561.751 632.793L562.937 634.38L564.404 633.987L566.912 637.943L570.607 638.953L571.513 642.851L572.618 642.419L573.3 640.114L571.37 638.997L569.709 633.595L566.904 631.764L562.366 624.523L559.274 616.74L560.327 614.037L562.155 613.681L560.528 612.12L561.002 610.05L559.754 608.018L556.139 607.637L554.087 605.593L551.901 607.958L550.308 607.462L550.487 599.511L551.911 597.797L549.683 594.309L552.969 587.051L554.37 586.248L556.333 587.735L562.696 603.685L564.706 602.654L564.337 599.215L566.71 593.689L565.65 592.298L566.271 586.405L568.445 589.705L567.867 591.727L570.62 588.837L571.031 584.932L571.987 584.887L570.864 583.05L572.653 572.308L571.428 567.975L567.225 563.804L568.894 563.578L568.785 560.788L571.423 559.348L571.385 556.237L570.342 557.808L570.125 555.007L569.505 553.955L568.348 558.695L569.276 559.597L565.986 564.112L563.959 562.875L564.329 556.59L563.158 556.248L561.798 560.491L560.871 557.835L560.021 558.622L559.628 561.652L556.095 556.674L553.863 550.443L553.289 543.401L554.32 540.548L552.189 539.958L551.869 537.439L553.329 531.561L553.415 533.873L556.48 539.131L559.144 537.437L563.543 538.705L566.814 543.399L568.371 543.198L567.317 542.1L566.057 540.87L554.701 526.515L549.448 520.515L541.629 519.435L539.612 517.761L536.655 516.682L533.543 514.636L532.59 514.316L526.68 509.344L526.372 508.799L525.805 506.546L523.925 506.348L523.995 503.249L525.456 503.256L525.951 501.334L521.989 502.16L519.561 498.834L525.676 495.968L526.345 497.245L527.093 496.044L527.322 495.959L528.595 496.02L528.694 495.774L525.929 494.606L519.485 498.168L516.492 495.001L515.214 489.785L516.974 487.302L518.28 483.236L521.17 475.571L518.476 478.943L516.673 485.991L514.223 487.743L511.758 485.108L513.737 484.366L513.277 480.406L510.348 480.097L509.323 474.908L507.334 476.088L507.844 477.494L506.029 480.154L507.835 480.016L512.244 484.318L508.786 487.646L510.98 492.154L507.185 490.695L503.943 492.327L504.417 489.562L503.13 488.586L501.193 493.098L499.913 490.331L497.861 491.065L498.455 489.592L497.11 489.524L498.316 488.481L500.002 489.134L501.435 484.204L498.495 482.615L497.085 483.161L495.978 483.263L494.568 483.115L492.909 480.125L493.278 470.367L489.057 468.79L484.42 471.518L486.289 468.352L485.524 465.895L487.474 465.772L489.141 463.827L485.64 461.667L485.604 464.441L482.913 464.999L481.509 463.06L477.543 460.449L476.43 460.953L477.359 459.077L479.484 460.068L481.378 457.709L482.164 458.925L484.152 457.745L486.066 459.701L488.011 457.896L489.374 459.538L491.368 456.567L492.276 458.016L491.539 459.802L492.991 460.248L492.622 455.42L489.737 453.654L488.248 450.098L483.85 447.77L474.217 447.597L467.51 444.295L464.812 440.063L462.365 439.001L458.176 440.936L458.325 443.693L456.134 444.705L455.982 441.29L457.581 438.607L455.924 438.03L453.811 441.427L450.9 439.914L451.821 438.11L452.049 435.941L453.429 435.684L454.32 434.169L451.465 434.892L452.483 431.819L451.433 429.99L449.64 432.433L448.95 426.146L447.656 429.41L445.964 429.158L449.805 417.682L450.436 421.404L452.429 418.799L451.475 424.036L452.921 424.188L452.822 426.517L455.247 425.018L455.484 423.8L454.333 422.582L455.462 417.072L450.239 413.561L450.246 410.015L447.615 409.665L443.6 404.746L443.491 401.956L445.689 402.261L447.8 399.924L437.636 396.807L432.468 390.341L431.542 387.684L432.28 380.67L434.139 379.331L429.877 373.289L426.083 370.44L423.716 365.146L426.662 357.304L424.443 356.851L424.94 355.953L422.79 354.155L423.121 348.231L419.793 346.857L416.796 343.727L350.935 342.567L351.458 340.722L342.597 328.018L342.455 315.829L341.087 309.032L332.705 294.551L330.487 292.709L248.257 278.969L237.186 286.905L237.287 286.989Z" fill="white"/>
</mask>
<g mask="url(#mask1_341_9025)">
<path d="M-123.504 662.808L271.163 1086.23L274.295 1086.34L-123.397 659.712L-123.504 662.808Z" fill="#DBDADA"/>
<path d="M-122.664 639.574L294.402 1087.03L297.535 1087.14L-122.554 636.442L-122.664 639.574Z" fill="#DBDADA"/>
<path d="M-121.863 616.336L317.672 1087.87L320.804 1087.98L-121.753 613.204L-121.863 616.336Z" fill="#DBDADA"/>
<path d="M-121.025 593.101L340.91 1088.67L344.043 1088.79L-120.914 589.969L-121.025 593.101Z" fill="#DBDADA"/>
<path d="M-120.221 569.863L364.15 1089.48L367.282 1089.59L-120.111 566.731L-120.221 569.863Z" fill="#DBDADA"/>
<path d="M-119.422 546.625L387.382 1090.31L390.514 1090.43L-119.311 543.493L-119.422 546.625Z" fill="#DBDADA"/>
<path d="M-118.582 523.39L410.622 1091.12L413.754 1091.23L-118.471 520.258L-118.582 523.39Z" fill="#DBDADA"/>
<path d="M-117.78 500.153L433.86 1091.92L436.992 1092.03L-117.669 497.021L-117.78 500.153Z" fill="#DBDADA"/>
<path d="M-116.937 476.882L457.094 1092.76L460.227 1092.87L-116.831 473.786L-116.937 476.882Z" fill="#DBDADA"/>
<path d="M-116.135 453.644L480.369 1093.56L483.465 1093.67L-116.025 450.512L-116.135 453.644Z" fill="#DBDADA"/>
<path d="M-115.334 430.406L503.602 1094.4L506.734 1094.51L-115.224 427.273L-115.334 430.406Z" fill="#DBDADA"/>
<path d="M-114.496 407.172L526.84 1095.2L529.973 1095.31L-114.385 404.04L-114.496 407.172Z" fill="#DBDADA"/>
<path d="M-113.694 383.933L550.079 1096L553.211 1096.12L-113.583 380.801L-113.694 383.933Z" fill="#DBDADA"/>
<path d="M-112.892 360.696L573.313 1096.84L576.445 1096.95L-112.781 357.563L-112.892 360.696Z" fill="#DBDADA"/>
<path d="M-112.053 337.461L596.551 1097.64L599.684 1097.76L-111.943 334.329L-112.053 337.461Z" fill="#DBDADA"/>
<path d="M-111.252 314.223L619.789 1098.45L622.921 1098.56L-111.142 311.091L-111.252 314.223Z" fill="#DBDADA"/>
<path d="M-110.41 290.952L643.023 1099.28L646.155 1099.4L-110.303 287.856L-110.41 290.952Z" fill="#DBDADA"/>
<path d="M-109.608 267.715L666.298 1100.09L669.393 1100.2L-109.497 264.583L-109.608 267.715Z" fill="#DBDADA"/>
</g>
<path d="M317.297 701.585L384.662 773.857L378.366 763.873L317.242 698.289L317.297 701.585Z" fill="#DBDADA"/>
<path d="M318.132 678.387L404.121 770.643L407.907 771.48L318.373 675.415L318.129 678.423L318.132 678.387ZM118.12 461.569L121.227 465.735L125.374 468.365L117.819 460.258L118.152 461.609L118.12 461.569Z" fill="#DBDADA"/>
<path d="M319.858 656.087L434.322 778.904L435.058 776.423L320.065 653.075L319.822 656.083L319.858 656.087ZM98.7793 418.883L160.857 485.481L163.144 485.977L171.299 496.706L172.58 498.084L182.237 506.704L184.22 507.315L99.5082 416.474L98.7393 418.915L98.7793 418.883Z" fill="#DBDADA"/>
<path d="M320.563 632.729L442.056 763.086L443.615 761.824L443.875 761.778L320.605 629.553L320.563 632.729ZM107.988 404.682L206.556 510.435L210.807 511.724L109.379 402.927L107.988 404.682Z" fill="#DBDADA"/>
<path d="M321.005 609.088L470.812 769.807L472.138 767.972L321.083 605.916L321.041 609.092L321.005 609.088ZM118.449 391.783L251.309 534.304L253.883 533.807L119.876 390.033L118.485 391.787L118.449 391.783Z" fill="#DBDADA"/>
<path d="M320.988 584.959L483.407 759.215L485.521 758.231L320.8 581.54L320.984 584.995L320.988 584.959ZM128.284 378.233L300.196 562.664L305.004 564.559L129.445 376.235L128.284 378.233Z" fill="#DBDADA"/>
<path d="M136.902 363.385L508.845 762.369L510.66 761.098L138.062 361.387L136.902 363.385Z" fill="#DBDADA"/>
<path d="M145.524 348.501L527.381 758.18L530.319 758.051L146.685 346.503L145.524 348.501Z" fill="#DBDADA"/>
<path d="M154.18 333.657L551.048 759.43L554.342 759.74L155.34 331.659L154.18 333.657Z" fill="#DBDADA"/>
<path d="M163.457 319.499L575.599 761.648L578.572 761.888L578.994 762.042L165.046 317.948L163.457 319.499Z" fill="#DBDADA"/>
<path d="M175.161 307.974L607.049 771.248L611.393 772.693L176.75 306.423L175.161 307.974Z" fill="#DBDADA"/>
<path d="M188.515 298.157L626.806 768.32L629.017 767.456L190.859 297.417L188.515 298.157Z" fill="#DBDADA"/>
<path d="M709.886 831.244L722.329 844.654L717.123 837.855L709.569 829.749L709.886 831.244ZM648.597 767.581L652.714 768.745L638.426 753.423L634.672 752.625L648.633 767.584L648.597 767.581ZM617.9 734.153L617.754 734.503L627.772 745.246L624.035 740.465L621.742 735.508L620.167 733.807L617.9 734.153ZM205.943 292.681L614.506 730.981L613.731 726.878L208.291 291.905L205.947 292.645L205.943 292.681Z" fill="#DBDADA"/>
<path d="M663.688 759.665L668.418 764.733L670.201 763.422L665.668 758.558L663.688 759.665ZM654.522 749.854L663.518 759.538L663.463 756.242L656.038 748.295L654.482 749.886L654.522 749.854ZM225.728 289.83L597.207 688.363L595.082 684.593L595.35 683.086L228.961 290.024L225.764 289.834L225.728 289.83Z" fill="#DBDADA"/>
<path d="M679.073 752.074L681.239 754.422L682.093 753.598L680.154 751.529L679.069 752.11L679.073 752.074ZM676.084 748.871L676.678 749.482L676.48 748.584L676.084 748.871ZM242.265 283.456L570.423 635.498L569.821 633.571L567.016 631.74L562.479 624.499L561.961 623.165L244.084 282.149L242.265 283.456Z" fill="#DBDADA"/>
<path d="M562.486 602.895L563.076 603.542L564.814 602.665L564.766 602.075L560.234 597.211L562.486 602.895ZM551.317 590.935L552.316 588.737L266.462 282.092L262.869 281.495L551.317 590.935Z" fill="#DBDADA"/>
<path d="M570.847 587.728L571.14 584.944L571.284 584.959L293.118 286.544L289.525 285.947L570.847 587.728Z" fill="#DBDADA"/>
<path d="M568.452 558.742L569.381 559.644L568.397 561.003L568.922 561.57L568.89 560.836L570.479 559.979L568.641 557.995L568.452 558.742ZM564.426 556.71L564.433 556.638L564.325 556.626L564.426 556.71ZM555.361 546.982L560.188 552.169L560.399 549.121L557.77 546.322L555.361 546.982ZM504.384 492.3L553.555 545.037L553.426 543.488L553.896 542.149L506.434 491.237L504.388 492.264L504.384 492.3ZM502.611 490.396L504.186 492.097L504.622 489.693L503.336 488.717L502.611 490.396ZM497.291 483.292L496.183 483.395L496.111 483.387L500.546 488.131L501.283 485.65L498.592 482.734L497.334 483.223L497.291 483.292ZM484.941 471.427L493.085 480.18L493.196 477.048L486.89 470.279L484.941 471.427ZM458.386 441.031L458.502 443.054L484.776 471.263L485.973 469.269L477.922 460.671L477.716 460.54L476.603 461.044L477.167 459.861L459.234 440.608L458.35 441.027L458.386 441.031ZM455.282 439.607L456.498 440.905L457.659 438.907L457.299 438.504L456.169 438.129L455.286 439.571L455.282 439.607ZM365.153 342.931L452.257 436.401L452.287 436.112L453.667 435.855L454.108 435.134L453.616 434.606L451.699 435.099L452.299 433.225L450.687 431.52L449.874 432.641L449.604 430.346L448.158 428.804L447.857 429.577L446.166 429.326L446.809 427.383L368.181 342.994L365.117 342.927L365.153 342.931ZM342.653 318.811L342.624 315.957L342.501 315.395L319.806 291.036L316.213 290.438L342.653 318.811Z" fill="#DBDADA"/>
<path d="M517.701 482.48L518.424 483.251L519.29 480.929L518.373 479.919L517.738 482.484L517.701 482.48ZM506.987 470.714L506.968 470.895L508.802 472.916L510.359 471.325L508.355 469.177L507.023 470.718L506.987 470.714ZM492.809 455.732L492.835 455.479L492.284 455.165L492.809 455.732ZM489.064 451.719L488.425 450.153L486.798 449.287L489.064 451.719ZM450.437 410.291L450.46 410.074L450.207 410.048L450.437 410.291ZM443.703 403.075L443.669 402.012L445.866 402.316L445.95 402.215L442.173 398.162L437.926 396.837L443.707 403.039L443.703 403.075ZM387.931 343.246L437.462 396.386L432.646 390.396L431.719 387.739L431.788 387.089L390.991 343.349L387.927 343.282L387.931 343.246Z" fill="#DBDADA"/>
<path d="M410.806 343.681L425.882 359.855L426.744 357.569L426.518 357.289L424.585 356.903L425.118 356.009L422.971 354.174L423.004 353.52L413.87 343.748L410.806 343.681Z" fill="#DBDADA"/>
<mask id="mask2_341_9025" style="mask-type:luminance" maskUnits="userSpaceOnUse" x="96" y="278" width="627" height="567">
<path d="M709.888 831.244L722.33 844.654L708.99 827.275L709.851 831.24L709.888 831.244ZM576.445 651.558L579.048 653.222L580.505 656.738L579.767 651.25L576.599 649.747L576.412 651.518L576.445 651.558ZM555.136 547.032L554.52 548.721L557.18 549.148L560.173 552.314L560.47 548.105L558.223 546.187L555.136 547.032ZM508.937 468.507L507.023 470.718L505.428 474.754L505.941 476.819L506.999 477.186L506.172 475.673L511.991 469.706L515.007 471.266L515.235 472.57L514.038 473.175L515.148 474.79L521.473 473.044L522.822 473.771L527.753 473.815L517.015 470.6L512.497 467.675L508.937 468.507ZM237.287 286.989L230.198 290.081L216.76 289.251L183.53 299.679L160.938 321.902L125.393 383.119L100.138 414.31L96.334 426.485L97.1844 430.559L100.906 435.484L109.443 441.902L114.841 447.918L118.087 461.529L121.198 465.659L148.07 482.635L163.108 485.974L171.846 497.422L182.237 506.705L188.362 508.592L203.23 509.39L211.092 511.79L236.452 530.984L242.935 534.335L249.115 534.657L260.829 532.417L264.884 533.137L281.34 549.748L284.94 556.524L308.066 565.686L318.052 571.526L320.693 578.384L321.358 591.505L320.267 651.158L317.223 690.83L317.432 710.373L318.885 720.176L321.667 725.002L327.541 729.971L351.839 747.444L375.199 772.423L379.399 778.019L384.504 788.902L384.791 788.603L388.192 783.734L387.612 778.482L376.275 760.472L381.668 759.944L393.941 768.364L414.205 772.765L428.686 783.136L431.77 783.351L433.555 781.675L438.012 766.425L443.654 761.792L449.435 761.048L451.708 762.384L457.412 773.476L462.173 778.949L464.734 778.232L475.787 762.836L489.64 756.252L492.129 756.916L494.555 761.303L503.348 766.323L513.944 758.738L534.069 757.86L578.608 761.892L613.763 773.454L631.497 766.474L642.988 766.003L663.928 771.973L665.005 767.298L673.328 761.155L674.575 757.302L675.733 757.753L677.233 755.316L680.421 755.249L682.09 753.634L680.15 751.565L677.368 752.99L676.436 748.652L675.005 749.744L672.712 748.26L672.851 750.76L668.522 754.033L667.407 757.681L663.525 759.831L663.391 753.456L665.239 750.141L663.213 750.988L661.66 749.764L661.949 748.406L659.272 749.184L656.246 748.061L651.78 752.635L645.213 754.941L633.235 752.401L623.92 740.526L621.27 734.8L621.985 733.56L617.786 734.214L615.93 738.99L612.603 721.641L611.263 719.782L608.761 719.592L606.289 710.778L599.983 701.231L599.064 703.364L600.307 705.103L597.991 703.836L598.781 701.543L596.831 694.721L598.088 690.064L594.974 684.582L596.078 678.264L592.936 667.479L584.667 660.613L583.192 656.217L581.405 657.564L583.122 660.011L583.146 662.902L582.098 662.791L576.975 655.891L576.878 652.993L573.615 651.699L571.979 647.798L568.729 644.641L568.244 639.874L567.701 639.123L566.299 640.985L566.198 639.513L563.384 637.425L561.751 632.793L562.937 634.38L564.404 633.987L566.912 637.943L570.607 638.953L571.513 642.851L572.618 642.419L573.3 640.114L571.37 638.997L569.709 633.595L566.904 631.764L562.366 624.523L559.274 616.74L560.327 614.037L562.155 613.681L560.528 612.12L561.002 610.05L559.754 608.018L556.139 607.637L554.087 605.593L551.901 607.958L550.308 607.462L550.487 599.511L551.911 597.797L549.683 594.309L552.969 587.051L554.37 586.248L556.333 587.735L562.696 603.685L564.706 602.654L564.337 599.215L566.71 593.689L565.65 592.298L566.271 586.405L568.445 589.705L567.867 591.727L570.62 588.837L571.031 584.932L571.987 584.887L570.864 583.05L572.653 572.308L571.428 567.975L567.225 563.804L568.894 563.578L568.785 560.788L571.423 559.348L571.385 556.237L570.342 557.808L570.125 555.007L569.505 553.955L568.348 558.695L569.276 559.597L565.986 564.112L563.959 562.875L564.329 556.59L563.158 556.248L561.798 560.491L560.871 557.835L560.021 558.622L559.628 561.652L556.095 556.674L553.863 550.443L553.289 543.401L554.32 540.548L552.189 539.958L551.869 537.439L553.329 531.561L553.415 533.873L556.48 539.131L559.144 537.437L563.543 538.705L566.814 543.399L568.371 543.198L567.317 542.1L566.057 540.87L554.701 526.515L549.448 520.515L541.629 519.435L539.612 517.761L536.655 516.682L533.543 514.636L532.59 514.316L526.68 509.344L526.372 508.799L525.805 506.546L523.925 506.348L523.995 503.249L525.456 503.256L525.951 501.334L521.989 502.16L519.561 498.834L525.676 495.968L526.345 497.245L527.093 496.044L527.322 495.959L528.595 496.02L528.694 495.774L525.929 494.606L519.485 498.168L516.492 495.001L515.214 489.785L516.974 487.302L518.28 483.236L521.17 475.571L518.476 478.943L516.673 485.991L514.223 487.743L511.758 485.108L513.737 484.366L513.277 480.406L510.348 480.097L509.323 474.908L507.334 476.088L507.844 477.494L506.029 480.154L507.835 480.016L512.244 484.318L508.786 487.646L510.98 492.154L507.185 490.695L503.943 492.327L504.417 489.562L503.13 488.586L501.193 493.098L499.913 490.331L497.861 491.065L498.455 489.592L497.11 489.524L498.316 488.481L500.002 489.134L501.435 484.204L498.495 482.615L497.085 483.161L495.978 483.263L494.568 483.115L492.909 480.125L493.278 470.367L489.057 468.79L484.42 471.518L486.289 468.352L485.524 465.895L487.474 465.772L489.141 463.827L485.64 461.667L485.604 464.441L482.913 464.999L481.509 463.06L477.543 460.449L476.43 460.953L477.359 459.077L479.484 460.068L481.378 457.709L482.164 458.925L484.152 457.745L486.066 459.701L488.011 457.896L489.374 459.538L491.368 456.567L492.276 458.016L491.539 459.802L492.991 460.248L492.622 455.42L489.737 453.654L488.248 450.098L483.85 447.77L474.217 447.597L467.51 444.295L464.812 440.063L462.365 439.001L458.176 440.936L458.325 443.693L456.134 444.705L455.982 441.29L457.581 438.607L455.924 438.03L453.811 441.427L450.9 439.914L451.821 438.11L452.049 435.941L453.429 435.684L454.32 434.169L451.465 434.892L452.483 431.819L451.433 429.99L449.64 432.433L448.95 426.146L447.656 429.41L445.964 429.158L449.805 417.682L450.436 421.404L452.429 418.799L451.475 424.036L452.921 424.188L452.822 426.517L455.247 425.018L455.484 423.8L454.333 422.582L455.462 417.072L450.239 413.561L450.246 410.015L447.615 409.665L443.6 404.746L443.491 401.956L445.689 402.261L447.8 399.924L437.636 396.807L432.468 390.341L431.542 387.684L432.28 380.67L434.139 379.331L429.877 373.289L426.083 370.44L423.716 365.146L426.662 357.304L424.443 356.851L424.94 355.953L422.79 354.155L423.121 348.231L419.793 346.857L416.796 343.727L350.935 342.567L351.458 340.722L342.597 328.018L342.455 315.829L341.087 309.032L332.705 294.551L330.487 292.709L248.257 278.969L237.186 286.905L237.287 286.989Z" fill="white"/>
</mask>
<g mask="url(#mask2_341_9025)">
<path d="M129.203 17.4874L932.666 879.415L932.777 876.283L132.335 17.5979L129.203 17.4874Z" fill="#DBDADA"/>
<path d="M152.44 18.2897L933.504 856.181L933.614 853.049L155.572 18.4002L152.44 18.2897Z" fill="#DBDADA"/>
<path d="M175.679 19.0914L934.307 832.942L934.417 829.81L178.811 19.2019L175.679 19.0914Z" fill="#DBDADA"/>
<path d="M198.912 19.9298L935.108 809.705L935.219 806.572L202.045 20.0403L198.912 19.9298Z" fill="#DBDADA"/>
<path d="M222.151 20.7326L935.947 786.471L936.057 783.339L225.283 20.8431L222.151 20.7326Z" fill="#DBDADA"/>
<path d="M245.388 21.5338L936.748 763.232L936.859 760.1L248.521 21.6443L245.388 21.5338Z" fill="#DBDADA"/>
<path d="M268.659 22.3761L937.551 739.994L937.661 736.862L271.755 22.4828L268.659 22.3761Z" fill="#DBDADA"/>
<path d="M291.898 23.1779L938.392 716.724L938.503 713.592L295.03 23.2883L291.898 23.1779Z" fill="#DBDADA"/>
<path d="M315.132 24.0167L939.195 693.486L939.305 690.354L318.264 24.1272L315.132 24.0167Z" fill="#DBDADA"/>
<path d="M338.37 24.8185L940.033 670.252L940.143 667.12L341.502 24.929L338.37 24.8185Z" fill="#DBDADA"/>
<path d="M361.608 25.6198L940.835 647.013L940.945 643.881L364.74 25.7302L361.608 25.6198Z" fill="#DBDADA"/>
<path d="M384.842 26.4581L941.636 623.775L941.747 620.643L387.974 26.5686L384.842 26.4581Z" fill="#DBDADA"/>
<path d="M408.081 27.2604L942.475 600.541L942.586 597.409L411.213 27.3709L408.081 27.2604Z" fill="#DBDADA"/>
<path d="M431.317 28.0621L943.276 577.303L943.386 574.17L434.45 28.1726L431.317 28.0621Z" fill="#DBDADA"/>
<path d="M454.588 28.9039L944.078 554.064L944.189 550.932L457.685 29.0106L454.588 28.9039Z" fill="#DBDADA"/>
<path d="M477.828 29.7057L944.922 530.794L945.028 527.698L480.96 29.8162L477.828 29.7057Z" fill="#DBDADA"/>
<path d="M501.061 30.5446L945.723 507.556L945.833 504.424L504.193 30.655L501.061 30.5446Z" fill="#DBDADA"/>
</g>
<path d="M722.329 844.654L709.025 827.279L709.887 831.244L722.329 844.654ZM522.817 473.807L527.748 473.851L517.01 470.637L512.492 467.712L508.932 468.543L507.018 470.754L505.423 474.79L505.936 476.855L506.994 477.222L506.171 475.673L511.99 469.706L515.042 471.27L515.27 472.574L514.073 473.179L515.183 474.794L521.508 473.048L522.857 473.775L522.817 473.807ZM579.043 653.258L580.5 656.774L579.762 651.286L576.594 649.783L576.407 651.555L579.047 653.222L579.043 653.258ZM680.423 755.213L682.128 753.601L680.189 751.533L677.407 752.958L676.479 748.583L675.048 749.675L672.755 748.191L672.894 750.691L668.564 753.964L667.449 757.612L663.531 759.758L663.398 753.384L665.246 750.069L663.219 750.916L661.667 749.692L661.988 748.373L659.311 749.152L656.285 748.029L651.815 752.639L645.284 754.949L633.27 752.404L623.955 740.53L621.305 734.804L622.02 733.564L617.821 734.218L615.965 738.994L612.638 721.645L611.262 719.782L608.76 719.592L606.288 710.778L599.982 701.231L599.063 703.364L600.302 705.139L597.986 703.872L598.776 701.579L596.826 694.757L598.083 690.1L594.969 684.618L596.073 678.301L592.931 667.515L584.662 660.649L583.187 656.253L581.4 657.6L583.117 660.047L583.141 662.938L582.093 662.828L576.97 655.928L576.873 653.029L573.606 651.771L571.97 647.87L568.72 644.713L568.235 639.947L567.693 639.195L566.29 641.058L566.225 639.589L563.411 637.501L561.779 632.87L562.964 634.457L564.431 634.063L566.939 638.019L570.634 639.03L571.54 642.927L572.646 642.495L573.327 640.19L571.398 639.073L569.737 633.671L566.932 631.84L562.394 624.6L559.302 616.817L560.39 614.116L562.219 613.761L560.628 612.204L561.102 610.134L559.854 608.101L556.238 607.721L554.187 605.677L552.001 608.042L550.408 607.545L550.587 599.595L552.011 597.881L549.782 594.393L553.069 587.135L554.469 586.332L556.433 587.818L562.796 603.769L564.805 602.737L564.436 599.299L566.809 593.773L565.753 592.346L566.374 586.452L568.549 589.752L567.97 591.775L570.724 588.884L571.135 584.98L572.09 584.934L570.968 583.098L572.757 572.356L571.531 568.023L567.328 563.852L568.997 563.625L568.889 560.836L571.526 559.395L571.488 556.284L570.445 557.856L570.229 555.055L569.608 554.003L568.451 558.743L569.38 559.645L566.089 564.16L564.063 562.923L564.432 556.638L563.262 556.295L561.901 560.539L560.975 557.882L560.124 558.67L559.732 561.699L556.198 556.721L553.967 550.491L553.392 543.448L554.424 540.596L552.292 540.006L551.973 537.487L553.433 531.609L553.514 533.957L556.58 539.215L559.244 537.521L563.643 538.789L566.914 543.483L568.467 543.318L567.413 542.22L566.153 540.99L554.797 526.635L549.543 520.635L541.725 519.555L539.707 517.881L536.75 516.802L533.639 514.756L532.686 514.436L526.776 509.464L526.467 508.919L525.901 506.666L524.02 506.468L524.055 503.365L525.516 503.372L526.011 501.451L522.049 502.276L519.621 498.95L525.735 496.084L526.405 497.361L527.153 496.161L527.381 496.075L528.654 496.136L528.753 495.89L525.989 494.722L519.549 498.248L516.556 495.081L515.277 489.865L517.038 487.382L518.343 483.316L521.234 475.651L518.539 479.023L516.737 486.071L514.286 487.823L511.822 485.188L513.801 484.446L513.341 480.486L510.412 480.177L509.387 474.988L507.398 476.168L507.908 477.574L506.092 480.234L507.898 480.096L512.303 484.434L508.846 487.762L511.04 492.27L507.249 490.775L504.006 492.407L504.52 489.61L503.234 488.634L501.297 493.145L499.98 490.375L497.965 491.113L498.555 489.676L497.209 489.608L498.416 488.565L500.102 489.218L501.535 484.287L498.595 482.698L497.185 483.244L496.077 483.347L494.667 483.199L493.008 480.209L493.378 470.451L489.157 468.873L484.52 471.602L486.389 468.436L485.624 465.979L487.574 465.855L489.241 463.911L485.74 461.751L485.74 464.529L483.053 465.05L481.645 463.147L477.679 460.536L476.566 461.041L477.499 459.128L479.624 460.12L481.517 457.76L482.303 458.976L484.292 457.797L486.206 459.753L488.151 457.947L489.513 459.589L491.508 456.619L492.415 458.067L491.679 459.854L493.131 460.299L492.762 455.472L489.877 453.706L488.387 450.149L483.994 447.785L474.325 447.608L467.617 444.306L464.919 440.074L462.472 439.012L458.284 440.947L458.432 443.705L456.242 444.717L456.09 441.301L457.688 438.618L456.031 438.042L453.918 441.438L451.007 439.925L451.924 438.157L452.153 435.988L453.532 435.731L454.423 434.217L451.569 434.94L452.587 431.866L451.537 430.038L449.744 432.481L449.057 426.158L447.763 429.421L446.071 429.17L449.912 417.694L450.543 421.416L452.536 418.811L451.582 424.047L453.029 424.2L452.929 426.529L455.354 425.03L455.592 423.812L454.437 422.63L455.565 417.119L450.342 413.608L450.35 410.063L447.718 409.713L443.703 404.794L443.595 402.004L445.793 402.309L447.907 399.936L437.744 396.818L432.576 390.352L431.649 387.696L432.388 380.682L434.247 379.342L429.985 373.3L426.19 370.452L423.823 365.158L426.769 357.316L424.554 356.827L425.051 355.929L422.901 354.13L423.196 348.203L419.868 346.829L416.867 343.735L351.01 342.539L351.53 340.729L342.668 328.025L342.522 315.873L341.154 309.076L332.809 294.599L330.59 292.756L248.361 279.016L237.289 286.953L230.201 290.045L216.763 289.215L183.532 299.643L160.94 321.866L125.396 383.083L100.177 414.278L96.3729 426.452L97.2233 430.527L100.945 435.451L109.481 441.87L114.88 447.885L118.126 461.497L121.237 465.626L148.109 482.603L163.147 485.941L171.885 497.39L182.276 506.672L188.401 508.56L203.269 509.358L211.131 511.758L236.49 530.951L242.974 534.303L249.154 534.624L260.868 532.385L264.923 533.105L281.343 549.712L284.943 556.488L308.068 565.65L318.055 571.49L320.695 578.348L321.361 591.469L320.27 651.122L317.226 690.794L317.435 710.337L318.888 720.14L321.67 724.966L327.544 729.935L351.841 747.408L375.202 772.386L379.402 777.983L384.507 788.866L384.794 788.567L388.195 783.698L387.614 778.446L376.278 760.436L381.671 759.907L393.908 768.324L414.171 772.725L428.652 783.096L431.737 783.311L433.522 781.635L438.015 766.389L443.657 761.756L449.474 761.016L451.71 762.348L457.415 773.44L462.175 778.913L464.737 778.196L475.789 762.8L489.643 756.216L492.132 756.88L494.558 761.267L503.351 766.287L513.946 758.702L534.071 757.824L578.611 761.856L613.766 773.417L631.499 766.438L642.991 765.967L663.93 771.937L665.007 767.262L673.331 761.119L674.577 757.266L675.736 757.717L677.236 755.279L680.423 755.213ZM554.518 548.721L557.179 549.148L560.172 552.314L560.469 548.105L558.222 546.187L555.135 547.032L554.518 548.721Z" stroke="#62929F" stroke-width="1.85409" stroke-miterlimit="10"/>
</g>
</g>
<circle cx="502.09" cy="506.587" r="34.7421" fill="#CDDC29" fill-opacity="0.2"/>
<circle cx="502.09" cy="506.587" r="35.034" fill="#CDDC29"/>
<path d="M593.825 506.028C590.992 506.028 588.576 505.736 586.576 505.153C584.604 504.542 582.994 503.695 581.744 502.612C580.522 501.529 579.619 500.223 579.036 498.696C578.481 497.169 578.203 495.461 578.203 493.572C578.203 492.683 578.286 491.697 578.453 490.614C578.62 489.503 578.814 488.504 579.036 487.615L583.119 486.782C582.785 487.837 582.535 488.865 582.369 489.864C582.202 490.836 582.119 491.906 582.119 493.072C582.119 494.488 582.299 495.78 582.66 496.946C583.021 498.113 583.66 499.126 584.577 499.987C585.521 500.848 586.798 501.515 588.409 501.987C590.02 502.459 592.075 502.695 594.575 502.695H599.782V487.032C600.921 486.782 602.004 486.587 603.031 486.448C604.087 486.31 605.142 486.24 606.197 486.24C607.891 486.24 609.294 486.448 610.405 486.865C611.543 487.282 612.446 487.906 613.113 488.74C613.807 489.545 614.293 490.545 614.571 491.739C614.848 492.933 614.987 494.322 614.987 495.905V506.028H611.238V495.947C611.238 493.641 610.794 491.975 609.905 490.948C609.016 489.892 607.655 489.365 605.822 489.365C605.517 489.365 605.114 489.378 604.614 489.406C604.142 489.434 603.781 489.476 603.531 489.531V506.028H593.825ZM591.825 514.609C591.103 514.609 590.506 514.346 590.034 513.818C589.562 513.318 589.326 512.707 589.326 511.985C589.326 511.263 589.562 510.638 590.034 510.11C590.506 509.61 591.103 509.36 591.825 509.36C592.547 509.36 593.144 509.61 593.617 510.11C594.089 510.638 594.325 511.263 594.325 511.985C594.325 512.707 594.089 513.318 593.617 513.818C593.144 514.346 592.547 514.609 591.825 514.609ZM598.199 514.651C597.477 514.651 596.866 514.387 596.366 513.86C595.894 513.332 595.658 512.707 595.658 511.985C595.658 511.263 595.894 510.652 596.366 510.152C596.866 509.652 597.477 509.402 598.199 509.402C598.921 509.402 599.504 509.652 599.949 510.152C600.421 510.652 600.657 511.263 600.657 511.985C600.657 512.707 600.421 513.332 599.949 513.86C599.504 514.387 598.921 514.651 598.199 514.651ZM619.035 516.442C618.313 516.442 617.591 516.401 616.869 516.317L617.285 512.568C617.924 512.651 618.535 512.693 619.118 512.693C621.09 512.693 622.52 512.179 623.409 511.152C624.298 510.152 624.742 508.569 624.742 506.403V486.865H628.491V506.194C628.491 507.694 628.339 509.069 628.033 510.319C627.755 511.568 627.255 512.638 626.533 513.526C625.811 514.443 624.839 515.151 623.617 515.651C622.423 516.179 620.896 516.442 619.035 516.442ZM639.623 502.695H644.372V506.028H635.874V478.45C635.374 478.367 634.791 478.297 634.124 478.242C633.486 478.158 632.861 478.089 632.25 478.033V475.826C633.305 475.687 634.485 475.59 635.791 475.534C637.124 475.478 638.401 475.478 639.623 475.534V502.695ZM643.54 502.695H658.87V497.946C658.87 495.141 658.134 493.155 656.662 491.989C655.218 490.795 653.038 490.198 650.122 490.198C649.344 490.198 648.622 490.212 647.956 490.239C647.317 490.267 646.761 490.309 646.289 490.364L646.706 487.032C647.178 486.976 647.719 486.934 648.33 486.907C648.941 486.879 649.691 486.865 650.58 486.865C652.08 486.865 653.552 487.018 654.996 487.323C656.44 487.601 657.717 488.129 658.828 488.906C659.967 489.656 660.883 490.698 661.578 492.031C662.272 493.336 662.619 495.002 662.619 497.03V502.695H667.368V506.028H643.54V502.695ZM652.663 514.359C651.969 514.359 651.385 514.11 650.913 513.61C650.469 513.11 650.247 512.513 650.247 511.818C650.247 511.152 650.469 510.569 650.913 510.069C651.385 509.597 651.969 509.36 652.663 509.36C653.357 509.36 653.913 509.597 654.329 510.069C654.774 510.569 654.996 511.152 654.996 511.818C654.996 512.513 654.774 513.11 654.329 513.61C653.913 514.11 653.357 514.359 652.663 514.359ZM666.525 502.695H672.44V486.865H676.19V502.695H680.939V506.028H666.525V502.695ZM671.357 483.407C670.635 483.407 670.038 483.157 669.566 482.658C669.094 482.13 668.858 481.505 668.858 480.783C668.858 480.061 669.094 479.45 669.566 478.95C670.038 478.422 670.635 478.158 671.357 478.158C672.079 478.158 672.677 478.422 673.149 478.95C673.621 479.45 673.857 480.061 673.857 480.783C673.857 481.505 673.621 482.13 673.149 482.658C672.677 483.157 672.079 483.407 671.357 483.407ZM677.731 483.449C677.009 483.449 676.398 483.185 675.898 482.658C675.426 482.13 675.19 481.505 675.19 480.783C675.19 480.061 675.426 479.45 675.898 478.95C676.398 478.45 677.009 478.2 677.731 478.2C678.453 478.2 679.036 478.45 679.481 478.95C679.953 479.45 680.189 480.061 680.189 480.783C680.189 481.505 679.953 482.13 679.481 482.658C679.036 483.185 678.453 483.449 677.731 483.449ZM680.113 502.695H685.82V475.534H689.569V506.028H680.113V502.695ZM701.541 506.028H697.792V478.45C697.292 478.367 696.709 478.297 696.042 478.242C695.403 478.158 694.779 478.089 694.168 478.033V475.826C695.223 475.687 696.403 475.59 697.709 475.534C699.042 475.478 700.319 475.478 701.541 475.534V506.028ZM725.833 516.359C723.972 516.359 722.389 516.04 721.084 515.401C719.778 514.762 718.723 513.873 717.918 512.735C717.112 511.596 716.529 510.249 716.168 508.694C715.807 507.166 715.626 505.5 715.626 503.695C715.626 503.195 715.654 502.626 715.71 501.987C715.765 501.348 715.849 500.696 715.96 500.029C716.071 499.335 716.196 498.654 716.335 497.988C716.501 497.321 716.668 496.696 716.835 496.113L720.959 495.363C720.459 496.863 720.098 498.266 719.876 499.571C719.653 500.876 719.542 502.14 719.542 503.362C719.542 505.111 719.695 506.597 720.001 507.819C720.334 509.041 720.792 510.027 721.375 510.777C721.959 511.554 722.653 512.124 723.458 512.485C724.264 512.846 725.152 513.026 726.124 513.026C727.374 513.026 728.416 512.776 729.249 512.277C730.11 511.777 730.804 511.055 731.332 510.11C731.859 509.194 732.234 508.083 732.456 506.778C732.706 505.472 732.831 504.014 732.831 502.404V475.534H736.581V502.112V502.695H741.33V506.028H736.372C735.956 509.527 734.886 512.124 733.165 513.818C731.47 515.512 729.027 516.359 725.833 516.359ZM740.485 502.695H746.4V486.865H750.149V502.695H754.899V506.028H740.485V502.695ZM743.817 514.651C743.095 514.651 742.498 514.387 742.026 513.86C741.554 513.36 741.318 512.749 741.318 512.027C741.318 511.305 741.554 510.68 742.026 510.152C742.498 509.652 743.095 509.402 743.817 509.402C744.539 509.402 745.137 509.652 745.609 510.152C746.081 510.68 746.317 511.305 746.317 512.027C746.317 512.749 746.081 513.36 745.609 513.86C745.137 514.387 744.539 514.651 743.817 514.651ZM750.191 514.693C749.469 514.693 748.858 514.429 748.358 513.901C747.886 513.374 747.65 512.749 747.65 512.027C747.65 511.305 747.886 510.694 748.358 510.194C748.858 509.694 749.469 509.444 750.191 509.444C750.913 509.444 751.496 509.694 751.941 510.194C752.413 510.694 752.649 511.305 752.649 512.027C752.649 512.749 752.413 513.374 751.941 513.901C751.496 514.429 750.913 514.693 750.191 514.693ZM754.073 502.695H759.988V486.865H763.737V502.695H768.486V506.028H754.073V502.695ZM761.738 514.401C761.043 514.401 760.46 514.151 759.988 513.651C759.544 513.151 759.321 512.554 759.321 511.86C759.321 511.193 759.544 510.61 759.988 510.11C760.46 509.638 761.043 509.402 761.738 509.402C762.432 509.402 762.987 509.638 763.404 510.11C763.848 510.61 764.07 511.193 764.07 511.86C764.07 512.554 763.848 513.151 763.404 513.651C762.987 514.151 762.432 514.401 761.738 514.401ZM767.66 502.695H782.991V497.946C782.991 495.141 782.255 493.155 780.783 491.989C779.338 490.795 777.158 490.198 774.242 490.198C773.465 490.198 772.743 490.212 772.076 490.239C771.437 490.267 770.882 490.309 770.41 490.364L770.826 487.032C771.298 486.976 771.84 486.934 772.451 486.907C773.062 486.879 773.812 486.865 774.701 486.865C776.2 486.865 777.672 487.018 779.116 487.323C780.56 487.601 781.838 488.129 782.949 488.906C784.088 489.656 785.004 490.698 785.698 492.031C786.393 493.336 786.74 495.002 786.74 497.03V502.695H791.489V506.028H767.66V502.695ZM776.783 514.359C776.089 514.359 775.506 514.11 775.034 513.61C774.589 513.11 774.367 512.513 774.367 511.818C774.367 511.152 774.589 510.569 775.034 510.069C775.506 509.597 776.089 509.36 776.783 509.36C777.478 509.36 778.033 509.597 778.45 510.069C778.894 510.569 779.116 511.152 779.116 511.818C779.116 512.513 778.894 513.11 778.45 513.61C778.033 514.11 777.478 514.359 776.783 514.359ZM790.646 502.695H796.353V475.534H800.102V506.028H790.646V502.695ZM812.074 506.028H808.325V478.45C807.825 478.367 807.241 478.297 806.575 478.242C805.936 478.158 805.311 478.089 804.7 478.033V475.826C805.756 475.687 806.936 475.59 808.241 475.534C809.574 475.478 810.852 475.478 812.074 475.534V506.028ZM825.326 502.695C825.632 502.695 826.02 502.695 826.493 502.695C826.992 502.695 827.506 502.723 828.034 502.778C828.589 502.806 829.131 502.848 829.659 502.903C830.186 502.959 830.631 503.056 830.992 503.195C829.659 502.223 828.992 500.848 828.992 499.071C828.992 498.182 829.186 497.349 829.575 496.571C829.964 495.766 830.492 495.072 831.158 494.488C831.853 493.877 832.672 493.391 833.616 493.03C834.588 492.669 835.657 492.489 836.824 492.489C837.435 492.489 838.129 492.517 838.907 492.572C839.712 492.628 840.504 492.739 841.281 492.905L840.615 496.196C839.254 495.947 837.921 495.822 836.615 495.822C835.282 495.822 834.324 496.113 833.741 496.696C833.186 497.28 832.908 498.099 832.908 499.154C832.908 500.182 833.338 501.043 834.199 501.737C835.06 502.404 836.379 502.737 838.157 502.737H842.156V506.028H825.326V502.695ZM852.023 502.695H856.773V506.028H848.274V478.45C847.774 478.367 847.191 478.297 846.525 478.242C845.886 478.158 845.261 478.089 844.65 478.033V475.826C845.705 475.687 846.886 475.59 848.191 475.534C849.524 475.478 850.802 475.478 852.023 475.534V502.695ZM855.94 502.695H861.856V486.865H865.605V502.695H870.354V506.028H855.94V502.695ZM863.563 483.449C862.869 483.449 862.286 483.199 861.814 482.699C861.369 482.199 861.147 481.602 861.147 480.908C861.147 480.241 861.369 479.672 861.814 479.2C862.286 478.7 862.869 478.45 863.563 478.45C864.258 478.45 864.813 478.7 865.23 479.2C865.674 479.672 865.896 480.241 865.896 480.908C865.896 481.602 865.674 482.199 865.23 482.699C864.813 483.199 864.258 483.449 863.563 483.449ZM869.528 502.695H875.443V486.865H879.192V502.695H883.942V506.028H869.528V502.695ZM872.86 514.651C872.138 514.651 871.541 514.387 871.069 513.86C870.597 513.36 870.361 512.749 870.361 512.027C870.361 511.305 870.597 510.68 871.069 510.152C871.541 509.652 872.138 509.402 872.86 509.402C873.583 509.402 874.18 509.652 874.652 510.152C875.124 510.68 875.36 511.305 875.36 512.027C875.36 512.749 875.124 513.36 874.652 513.86C874.18 514.387 873.583 514.651 872.86 514.651ZM879.234 514.693C878.512 514.693 877.901 514.429 877.401 513.901C876.929 513.374 876.693 512.749 876.693 512.027C876.693 511.305 876.929 510.694 877.401 510.194C877.901 509.694 878.512 509.444 879.234 509.444C879.956 509.444 880.539 509.694 880.984 510.194C881.456 510.694 881.692 511.305 881.692 512.027C881.692 512.749 881.456 513.374 880.984 513.901C880.539 514.429 879.956 514.693 879.234 514.693ZM883.116 502.695H884.449C884.976 502.695 885.49 502.612 885.99 502.445C886.49 502.279 886.934 501.987 887.323 501.57C887.712 501.126 888.017 500.543 888.24 499.821C888.489 499.071 888.614 498.141 888.614 497.03C888.614 495.197 888.837 493.614 889.281 492.281C889.753 490.92 890.406 489.795 891.239 488.906C892.072 488.018 893.058 487.351 894.197 486.907C895.363 486.462 896.654 486.24 898.071 486.24C899.293 486.24 900.39 486.435 901.362 486.823C902.362 487.184 903.209 487.768 903.903 488.573C904.597 489.351 905.125 490.364 905.486 491.614C905.875 492.836 906.069 494.308 906.069 496.03V506.028H898.487C896.127 506.028 894.294 505.667 892.989 504.945C891.683 504.195 890.697 503.237 890.031 502.07C889.642 503.237 888.948 504.195 887.948 504.945C886.976 505.667 885.629 506.028 883.907 506.028H883.116V502.695ZM902.32 502.695V495.28C902.32 494.475 902.209 493.711 901.987 492.989C901.792 492.267 901.487 491.642 901.07 491.114C900.681 490.559 900.182 490.128 899.571 489.823C898.987 489.517 898.307 489.365 897.529 489.365C896.641 489.365 895.877 489.531 895.238 489.864C894.627 490.198 894.113 490.656 893.697 491.239C893.308 491.822 893.016 492.503 892.822 493.28C892.655 494.058 892.572 494.905 892.572 495.822C892.572 498.21 893.1 499.96 894.155 501.07C895.238 502.154 896.918 502.695 899.196 502.695H902.32Z" fill="white"/>
</svg>
