<svg width="1124" height="1080" viewBox="0 0 1124 1080" fill="none" xmlns="http://www.w3.org/2000/svg">
<path d="M1050.52 929.517L783.17 910.393L516.407 605.582L490.906 479.468L426.951 442.618L333.121 295.184L133.098 238.803L-38.4388 225.459L-452.627 -91.9072L-568.174 -118.206L-784.735 -60.6279L-692.892 58.112L-896.898 192.782L-1016.64 217.892L-987.144 315.114L-793.099 728.305L-668.389 861.388L-626.75 961.794L-632.329 1100.85L-484.106 1257.04L-235.069 1654.7L-186.861 1542.34L254.424 1585.37L331.724 1465.44L434.525 1411.24L739.336 1358.26L1056.1 1228.96L1111.89 998.652L1050.52 929.517Z" fill="#EEEEEE" fill-opacity="0.09"/>
<path d="M722.583 844.68L709.279 827.304L710.14 831.27L722.583 844.68ZM523.071 473.833L528.002 473.877L517.263 470.662L512.746 467.738L509.186 468.569L507.271 470.78L505.677 474.816L506.19 476.881L507.248 477.248L506.424 475.699L512.244 469.732L515.296 471.296L515.524 472.6L514.327 473.205L515.437 474.82L521.762 473.074L523.111 473.801L523.071 473.833ZM579.297 653.284L580.754 656.8L580.016 651.312L576.848 649.809L576.661 651.58L579.3 653.248L579.297 653.284ZM680.677 755.239L682.382 753.627L680.443 751.559L677.661 752.984L676.733 748.609L675.302 749.701L673.009 748.217L673.147 750.717L668.818 753.99L667.703 757.638L663.785 759.784L663.652 753.41L665.5 750.095L663.473 750.942L661.921 749.718L662.242 748.399L659.565 749.177L656.539 748.055L652.069 752.665L645.538 754.975L633.523 752.43L624.209 740.556L621.559 734.83L622.274 733.589L618.075 734.244L616.219 739.02L612.891 721.671L611.516 719.808L609.013 719.618L606.542 710.804L600.236 701.256L599.317 703.39L600.556 705.165L598.24 703.898L599.03 701.605L597.08 694.783L598.337 690.126L595.223 684.644L596.327 678.326L593.185 667.541L584.916 660.675L583.441 656.279L581.654 657.626L583.371 660.073L583.395 662.964L582.347 662.853L577.224 655.953L577.127 653.055L573.86 651.797L572.224 647.896L568.974 644.739L568.489 639.973L567.946 639.221L566.544 641.084L566.479 639.615L563.665 637.527L562.033 632.895L563.218 634.482L564.685 634.089L567.193 638.045L570.888 639.055L571.794 642.953L572.9 642.521L573.581 640.216L571.651 639.099L569.99 633.697L567.186 631.866L562.647 624.626L559.556 616.843L560.644 614.142L562.473 613.787L560.882 612.23L561.356 610.16L560.108 608.127L556.492 607.747L554.441 605.703L552.254 608.068L550.662 607.571L550.841 599.621L552.264 597.907L550.036 594.418L553.323 587.161L554.723 586.358L556.687 587.844L563.05 603.795L565.059 602.763L564.69 599.325L567.063 593.799L566.007 592.372L566.628 586.478L568.803 589.778L568.224 591.801L570.978 588.91L571.389 585.006L572.344 584.96L571.221 583.124L573.011 572.382L571.785 568.049L567.582 563.878L569.251 563.651L569.143 560.862L571.78 559.421L571.742 556.31L570.699 557.882L570.482 555.081L569.862 554.028L568.705 558.768L569.633 559.67L566.343 564.186L564.317 562.949L564.686 556.664L563.516 556.321L562.155 560.565L561.229 557.908L560.378 558.696L559.986 561.725L556.452 556.747L554.22 550.517L553.646 543.474L554.677 540.622L552.546 540.032L552.227 537.512L553.686 531.635L553.768 533.983L556.834 539.241L559.498 537.547L563.897 538.815L567.168 543.509L568.721 543.344L567.667 542.246L566.407 541.016L555.051 526.66L549.797 520.66L541.978 519.581L539.961 517.907L537.004 516.828L533.893 514.782L532.94 514.462L527.03 509.49L526.721 508.945L526.154 506.692L524.274 506.494L524.309 503.391L525.77 503.398L526.265 501.476L522.303 502.302L519.875 498.976L525.989 496.11L526.659 497.387L527.407 496.186L527.635 496.101L528.908 496.162L529.007 495.916L526.242 494.748L519.803 498.274L516.81 495.107L515.531 489.891L517.292 487.408L518.597 483.342L521.488 475.677L518.793 479.049L516.991 486.097L514.54 487.849L512.076 485.214L514.055 484.472L513.594 480.512L510.666 480.203L509.64 475.014L507.652 476.194L508.162 477.6L506.346 480.26L508.152 480.121L512.557 484.46L509.099 487.788L511.293 492.296L507.503 490.8L504.26 492.433L504.774 489.636L503.488 488.66L501.551 493.171L500.234 490.401L498.219 491.139L498.808 489.702L497.463 489.634L498.67 488.591L500.356 489.244L501.789 484.313L498.849 482.724L497.439 483.27L496.331 483.373L494.921 483.225L493.262 480.235L493.632 470.477L489.411 468.899L484.774 471.628L486.642 468.462L485.877 466.005L487.828 465.881L489.495 463.937L485.994 461.777L485.994 464.555L483.307 465.076L481.899 463.173L477.933 460.562L476.82 461.067L477.752 459.154L479.878 460.146L481.771 457.786L482.557 459.002L484.546 457.822L486.46 459.779L488.405 457.973L489.767 459.615L491.761 456.645L492.669 458.093L491.933 459.88L493.385 460.325L493.015 455.497L490.131 453.731L488.641 450.175L484.247 447.811L474.579 447.634L467.871 444.332L465.173 440.1L462.726 439.038L458.538 440.973L458.686 443.731L456.496 444.743L456.344 441.327L457.942 438.644L456.285 438.067L454.172 441.464L451.261 439.951L452.178 438.183L452.407 436.014L453.786 435.757L454.677 434.243L451.822 434.966L452.841 431.892L451.79 430.064L449.998 432.507L449.311 426.184L448.017 429.447L446.325 429.196L450.166 417.72L450.797 421.442L452.79 418.837L451.836 424.073L453.283 424.226L453.183 426.555L455.608 425.055L455.846 423.838L454.691 422.656L455.819 417.145L450.596 413.634L450.604 410.089L447.972 409.739L443.957 404.82L443.849 402.03L446.047 402.334L448.161 399.962L437.997 396.844L432.83 390.378L431.903 387.722L432.641 380.708L434.501 379.368L430.238 373.326L426.444 370.477L424.077 365.183L427.023 357.342L424.808 356.853L425.305 355.954L423.155 354.156L423.45 348.229L420.122 346.855L417.121 343.76L351.264 342.565L351.783 340.755L342.922 328.051L342.776 315.899L341.408 309.102L333.063 294.624L330.844 292.782L248.615 279.042L237.543 286.979L230.455 290.071L217.017 289.241L183.786 299.669L161.194 321.892L125.65 383.109L100.431 414.304L96.6268 426.478L97.4772 430.552L101.199 435.477L109.735 441.896L115.134 447.911L118.379 461.523L121.49 465.652L148.362 482.629L163.401 485.967L172.139 497.415L182.53 506.698L188.655 508.586L203.523 509.384L211.385 511.784L236.744 530.977L243.227 534.329L249.408 534.65L261.122 532.411L265.177 533.131L281.597 549.738L285.197 556.514L308.322 565.676L318.308 571.516L320.949 578.374L321.615 591.494L320.524 651.148L317.48 690.82L317.688 710.362L319.142 720.166L321.924 724.992L327.798 729.961L352.095 747.434L375.456 772.412L379.655 778.009L384.761 788.892L385.048 788.593L388.449 783.724L387.868 778.472L376.532 760.462L381.924 759.933L394.162 768.35L414.425 772.751L428.906 783.122L431.99 783.337L433.775 781.661L438.269 766.415L443.911 761.781L449.728 761.042L451.964 762.374L457.669 773.466L462.429 778.939L464.991 778.221L476.043 762.826L489.897 756.242L492.386 756.906L494.812 761.292L503.605 766.313L514.2 758.728L534.325 757.85L578.864 761.882L614.02 773.443L631.753 766.464L643.245 765.993L664.184 771.963L665.261 767.287L673.585 761.145L674.831 757.292L675.99 757.743L677.49 755.305L680.677 755.239ZM554.772 548.747L557.432 549.174L560.426 552.34L560.723 548.131L558.475 546.213L555.389 547.058L554.772 548.747Z" fill="#275A67"/>
<g opacity="0.55">
<mask id="mask0_344_3465" style="mask-type:luminance" maskUnits="userSpaceOnUse" x="8" y="193" width="809" height="707">
<path d="M816.472 271.759L74.3215 193.609L8.25568 821.004L750.406 899.154L816.472 271.759Z" fill="white"/>
</mask>
<g mask="url(#mask0_344_3465)">
<mask id="mask1_344_3465" style="mask-type:luminance" maskUnits="userSpaceOnUse" x="96" y="278" width="627" height="567">
<path d="M709.888 831.244L722.33 844.654L708.99 827.274L709.851 831.24L709.888 831.244ZM576.445 651.558L579.048 653.221L580.505 656.738L579.767 651.25L576.599 649.746L576.412 651.518L576.445 651.558ZM555.136 547.031L554.52 548.721L557.18 549.147L560.173 552.314L560.47 548.105L558.223 546.186L555.136 547.031ZM508.937 468.506L507.023 470.718L505.428 474.753L505.941 476.818L506.999 477.185L506.172 475.673L511.991 469.705L515.007 471.266L515.235 472.569L514.038 473.174L515.148 474.79L521.473 473.043L522.822 473.77L527.753 473.814L517.015 470.6L512.497 467.675L508.937 468.506ZM237.287 286.988L230.198 290.08L216.76 289.25L183.53 299.679L160.938 321.902L125.393 383.118L100.138 414.31L96.334 426.484L97.1844 430.558L100.906 435.483L109.443 441.902L114.841 447.917L118.087 461.529L121.198 465.658L148.07 482.635L163.108 485.973L171.846 497.421L182.237 506.704L188.362 508.592L203.23 509.39L211.092 511.79L236.452 530.983L242.935 534.334L249.115 534.656L260.829 532.417L264.884 533.136L281.34 549.747L284.94 556.524L308.066 565.685L318.052 571.526L320.693 578.384L321.358 591.504L320.267 651.158L317.223 690.829L317.432 710.372L318.885 720.176L321.667 725.002L327.541 729.97L351.839 747.444L375.199 772.422L379.399 778.019L384.504 788.901L384.791 788.603L388.192 783.733L387.612 778.481L376.275 760.472L381.668 759.943L393.941 768.364L414.205 772.764L428.686 783.135L431.77 783.351L433.555 781.674L438.012 766.425L443.654 761.791L449.435 761.047L451.708 762.383L457.412 773.476L462.173 778.948L464.734 778.231L475.787 762.835L489.64 756.252L492.129 756.916L494.555 761.302L503.348 766.322L513.944 758.738L534.069 757.859L578.608 761.892L613.763 773.453L631.497 766.474L642.988 766.002L663.928 771.973L665.005 767.297L673.328 761.155L674.575 757.302L675.733 757.753L677.233 755.315L680.421 755.249L682.09 753.633L680.15 751.565L677.368 752.99L676.436 748.651L675.005 749.743L672.712 748.259L672.851 750.759L668.522 754.032L667.407 757.68L663.525 759.83L663.391 753.455L665.239 750.141L663.213 750.987L661.66 749.764L661.949 748.405L659.272 749.183L656.246 748.06L651.78 752.635L645.213 754.941L633.235 752.4L623.92 740.526L621.27 734.8L621.985 733.559L617.786 734.214L615.93 738.99L612.603 721.641L611.263 719.782L608.761 719.591L606.289 710.777L599.983 701.23L599.064 703.363L600.307 705.102L597.991 703.835L598.781 701.542L596.831 694.72L598.088 690.064L594.974 684.581L596.078 678.264L592.936 667.478L584.667 660.612L583.192 656.216L581.405 657.564L583.122 660.011L583.146 662.901L582.098 662.791L576.975 655.891L576.878 652.993L573.615 651.699L571.979 647.798L568.729 644.641L568.244 639.874L567.701 639.122L566.299 640.985L566.198 639.512L563.384 637.425L561.751 632.793L562.937 634.38L564.404 633.986L566.912 637.942L570.607 638.953L571.513 642.85L572.618 642.418L573.3 640.114L571.37 638.997L569.709 633.594L566.904 631.764L562.366 624.523L559.274 616.74L560.327 614.036L562.155 613.68L560.528 612.12L561.002 610.049L559.754 608.017L556.139 607.636L554.087 605.593L551.901 607.958L550.308 607.461L550.487 599.511L551.911 597.796L549.683 594.308L552.969 587.051L554.37 586.248L556.333 587.734L562.696 603.684L564.706 602.653L564.337 599.215L566.71 593.689L565.65 592.298L566.271 586.404L568.445 589.704L567.867 591.727L570.62 588.836L571.031 584.932L571.987 584.886L570.864 583.05L572.653 572.308L571.428 567.975L567.225 563.804L568.894 563.577L568.785 560.788L571.423 559.347L571.385 556.236L570.342 557.808L570.125 555.007L569.505 553.954L568.348 558.694L569.276 559.596L565.986 564.112L563.959 562.875L564.329 556.59L563.158 556.247L561.798 560.491L560.871 557.834L560.021 558.622L559.628 561.651L556.095 556.673L553.863 550.443L553.289 543.4L554.32 540.548L552.189 539.958L551.869 537.438L553.329 531.561L553.415 533.873L556.48 539.13L559.144 537.437L563.543 538.704L566.814 543.399L568.371 543.197L567.317 542.099L566.057 540.87L554.701 526.514L549.448 520.514L541.629 519.435L539.612 517.76L536.655 516.681L533.543 514.635L532.59 514.316L526.68 509.343L526.372 508.799L525.805 506.546L523.925 506.348L523.995 503.248L525.456 503.256L525.951 501.334L521.989 502.16L519.561 498.833L525.676 495.968L526.345 497.245L527.093 496.044L527.322 495.958L528.595 496.019L528.694 495.774L525.929 494.605L519.485 498.167L516.492 495.001L515.214 489.785L516.974 487.302L518.28 483.235L521.17 475.57L518.476 478.942L516.673 485.991L514.223 487.743L511.758 485.107L513.737 484.365L513.277 480.405L510.348 480.097L509.323 474.908L507.334 476.087L507.844 477.494L506.029 480.154L507.835 480.015L512.244 484.318L508.786 487.646L510.98 492.154L507.185 490.694L503.943 492.327L504.417 489.562L503.13 488.586L501.193 493.097L499.913 490.33L497.861 491.065L498.455 489.592L497.11 489.523L498.316 488.481L500.002 489.133L501.435 484.203L498.495 482.614L497.085 483.16L495.978 483.263L494.568 483.114L492.909 480.125L493.278 470.367L489.057 468.789L484.42 471.518L486.289 468.351L485.524 465.895L487.474 465.771L489.141 463.826L485.64 461.667L485.604 464.441L482.913 464.998L481.509 463.059L477.543 460.448L476.43 460.953L477.359 459.076L479.484 460.068L481.378 457.708L482.164 458.924L484.152 457.745L486.066 459.701L488.011 457.895L489.374 459.537L491.368 456.567L492.276 458.015L491.539 459.802L492.991 460.247L492.622 455.42L489.737 453.654L488.248 450.097L483.85 447.77L474.217 447.596L467.51 444.294L464.812 440.062L462.365 439L458.176 440.935L458.325 443.693L456.134 444.705L455.982 441.289L457.581 438.606L455.924 438.03L453.811 441.426L450.9 439.913L451.821 438.109L452.049 435.94L453.429 435.683L454.32 434.169L451.465 434.891L452.483 431.818L451.433 429.99L449.64 432.433L448.95 426.146L447.656 429.409L445.964 429.158L449.805 417.682L450.436 421.404L452.429 418.799L451.475 424.035L452.921 424.188L452.822 426.517L455.247 425.018L455.484 423.8L454.333 422.582L455.462 417.071L450.239 413.56L450.246 410.015L447.615 409.665L443.6 404.746L443.491 401.956L445.689 402.26L447.8 399.924L437.636 396.806L432.468 390.34L431.542 387.684L432.28 380.67L434.139 379.33L429.877 373.288L426.083 370.44L423.716 365.146L426.662 357.304L424.443 356.851L424.94 355.953L422.79 354.154L423.121 348.231L419.793 346.857L416.796 343.726L350.935 342.567L351.458 340.721L342.597 328.017L342.455 315.829L341.087 309.032L332.705 294.55L330.487 292.708L248.257 278.968L237.186 286.905L237.287 286.988Z" fill="white"/>
</mask>
<g mask="url(#mask1_344_3465)">
<path d="M-123.504 662.808L271.163 1086.23L274.295 1086.34L-123.397 659.712L-123.504 662.808Z" fill="#DBDADA"/>
<path d="M-122.664 639.574L294.402 1087.03L297.535 1087.14L-122.554 636.441L-122.664 639.574Z" fill="#DBDADA"/>
<path d="M-121.863 616.335L317.672 1087.87L320.804 1087.98L-121.753 613.203L-121.863 616.335Z" fill="#DBDADA"/>
<path d="M-121.025 593.101L340.91 1088.67L344.043 1088.78L-120.914 589.969L-121.025 593.101Z" fill="#DBDADA"/>
<path d="M-120.221 569.863L364.15 1089.48L367.282 1089.59L-120.111 566.73L-120.221 569.863Z" fill="#DBDADA"/>
<path d="M-119.422 546.624L387.382 1090.31L390.514 1090.42L-119.311 543.492L-119.422 546.624Z" fill="#DBDADA"/>
<path d="M-118.582 523.39L410.622 1091.12L413.754 1091.23L-118.471 520.258L-118.582 523.39Z" fill="#DBDADA"/>
<path d="M-117.78 500.153L433.86 1091.92L436.992 1092.03L-117.669 497.021L-117.78 500.153Z" fill="#DBDADA"/>
<path d="M-116.937 476.881L457.094 1092.76L460.227 1092.87L-116.831 473.785L-116.937 476.881Z" fill="#DBDADA"/>
<path d="M-116.135 453.644L480.369 1093.56L483.465 1093.67L-116.025 450.512L-116.135 453.644Z" fill="#DBDADA"/>
<path d="M-115.334 430.406L503.602 1094.4L506.734 1094.51L-115.224 427.273L-115.334 430.406Z" fill="#DBDADA"/>
<path d="M-114.496 407.171L526.84 1095.2L529.973 1095.31L-114.385 404.039L-114.496 407.171Z" fill="#DBDADA"/>
<path d="M-113.694 383.933L550.079 1096L553.211 1096.11L-113.583 380.801L-113.694 383.933Z" fill="#DBDADA"/>
<path d="M-112.892 360.696L573.313 1096.84L576.445 1096.95L-112.781 357.563L-112.892 360.696Z" fill="#DBDADA"/>
<path d="M-112.053 337.46L596.551 1097.64L599.684 1097.75L-111.943 334.328L-112.053 337.46Z" fill="#DBDADA"/>
<path d="M-111.252 314.223L619.789 1098.45L622.921 1098.56L-111.142 311.091L-111.252 314.223Z" fill="#DBDADA"/>
<path d="M-110.41 290.952L643.023 1099.28L646.155 1099.4L-110.303 287.856L-110.41 290.952Z" fill="#DBDADA"/>
<path d="M-109.608 267.714L666.298 1100.09L669.393 1100.2L-109.497 264.582L-109.608 267.714Z" fill="#DBDADA"/>
</g>
<path d="M317.297 701.585L384.662 773.857L378.366 763.873L317.242 698.289L317.297 701.585Z" fill="#DBDADA"/>
<path d="M318.132 678.387L404.121 770.642L407.907 771.48L318.373 675.414L318.129 678.423L318.132 678.387ZM118.12 461.569L121.227 465.735L125.374 468.364L117.819 460.258L118.152 461.609L118.12 461.569Z" fill="#DBDADA"/>
<path d="M319.858 656.086L434.322 778.903L435.058 776.422L320.065 653.074L319.822 656.083L319.858 656.086ZM98.7793 418.882L160.857 485.48L163.144 485.977L171.299 496.706L172.58 498.084L182.237 506.704L184.22 507.315L99.5082 416.473L98.7393 418.915L98.7793 418.882Z" fill="#DBDADA"/>
<path d="M320.563 632.728L442.056 763.085L443.615 761.823L443.875 761.777L320.605 629.552L320.563 632.728ZM107.988 404.681L206.556 510.434L210.807 511.723L109.379 402.926L107.988 404.681Z" fill="#DBDADA"/>
<path d="M321.005 609.087L470.812 769.806L472.138 767.971L321.083 605.915L321.041 609.091L321.005 609.087ZM118.449 391.782L251.309 534.303L253.883 533.806L119.876 390.032L118.485 391.786L118.449 391.782Z" fill="#DBDADA"/>
<path d="M320.988 584.959L483.407 759.215L485.521 758.231L320.8 581.54L320.984 584.995L320.988 584.959ZM128.284 378.233L300.196 562.664L305.004 564.559L129.445 376.235L128.284 378.233Z" fill="#DBDADA"/>
<path d="M136.902 363.384L508.845 762.369L510.66 761.098L138.062 361.386L136.902 363.384Z" fill="#DBDADA"/>
<path d="M145.524 348.5L527.381 758.179L530.319 758.05L146.685 346.502L145.524 348.5Z" fill="#DBDADA"/>
<path d="M154.18 333.657L551.048 759.429L554.342 759.739L155.34 331.659L154.18 333.657Z" fill="#DBDADA"/>
<path d="M163.457 319.499L575.599 761.648L578.572 761.888L578.994 762.042L165.046 317.948L163.457 319.499Z" fill="#DBDADA"/>
<path d="M175.161 307.974L607.049 771.248L611.393 772.692L176.75 306.423L175.161 307.974Z" fill="#DBDADA"/>
<path d="M188.515 298.157L626.806 768.32L629.017 767.456L190.859 297.417L188.515 298.157Z" fill="#DBDADA"/>
<path d="M709.886 831.243L722.329 844.653L717.123 837.854L709.569 829.748L709.886 831.243ZM648.597 767.58L652.714 768.744L638.426 753.422L634.672 752.624L648.633 767.583L648.597 767.58ZM617.9 734.152L617.754 734.502L627.772 745.245L624.035 740.464L621.742 735.507L620.167 733.806L617.9 734.152ZM205.943 292.68L614.506 730.98L613.731 726.877L208.291 291.904L205.947 292.644L205.943 292.68Z" fill="#DBDADA"/>
<path d="M663.688 759.665L668.418 764.732L670.201 763.421L665.668 758.557L663.688 759.665ZM654.522 749.853L663.518 759.537L663.463 756.241L656.038 748.295L654.482 749.885L654.522 749.853ZM225.728 289.829L597.207 688.363L595.082 684.593L595.35 683.086L228.961 290.023L225.764 289.833L225.728 289.829Z" fill="#DBDADA"/>
<path d="M679.073 752.073L681.239 754.421L682.093 753.597L680.154 751.528L679.069 752.109L679.073 752.073ZM676.084 748.87L676.678 749.481L676.48 748.583L676.084 748.87ZM242.265 283.455L570.423 635.497L569.821 633.57L567.016 631.739L562.479 624.498L561.961 623.164L244.084 282.148L242.265 283.455Z" fill="#DBDADA"/>
<path d="M562.486 602.895L563.076 603.542L564.814 602.665L564.766 602.075L560.234 597.211L562.486 602.895ZM551.317 590.935L552.316 588.737L266.462 282.092L262.869 281.494L551.317 590.935Z" fill="#DBDADA"/>
<path d="M570.847 587.728L571.14 584.944L571.284 584.959L293.118 286.544L289.525 285.946L570.847 587.728Z" fill="#DBDADA"/>
<path d="M568.452 558.742L569.381 559.644L568.397 561.003L568.922 561.57L568.89 560.835L570.479 559.979L568.641 557.994L568.452 558.742ZM564.426 556.709L564.433 556.637L564.325 556.626L564.426 556.709ZM555.361 546.981L560.188 552.169L560.399 549.121L557.77 546.321L555.361 546.981ZM504.384 492.3L553.555 545.037L553.426 543.488L553.896 542.148L506.434 491.236L504.388 492.264L504.384 492.3ZM502.611 490.395L504.186 492.096L504.622 489.693L503.336 488.717L502.611 490.395ZM497.291 483.291L496.183 483.394L496.111 483.386L500.546 488.131L501.283 485.649L498.592 482.734L497.334 483.223L497.291 483.291ZM484.941 471.426L493.085 480.18L493.196 477.048L486.89 470.279L484.941 471.426ZM458.386 441.03L458.502 443.053L484.776 471.263L485.973 469.268L477.922 460.671L477.716 460.54L476.603 461.044L477.167 459.86L459.234 440.608L458.35 441.027L458.386 441.03ZM455.282 439.607L456.498 440.905L457.659 438.907L457.299 438.503L456.169 438.128L455.286 439.571L455.282 439.607ZM365.153 342.931L452.257 436.4L452.287 436.111L453.667 435.854L454.108 435.133L453.616 434.606L451.699 435.099L452.299 433.224L450.687 431.519L449.874 432.64L449.604 430.345L448.158 428.804L447.857 429.576L446.166 429.325L446.809 427.382L368.181 342.994L365.117 342.927L365.153 342.931ZM342.653 318.811L342.624 315.956L342.501 315.395L319.806 291.035L316.213 290.438L342.653 318.811Z" fill="#DBDADA"/>
<path d="M517.701 482.48L518.424 483.251L519.29 480.929L518.373 479.919L517.738 482.484L517.701 482.48ZM506.987 470.714L506.968 470.895L508.802 472.916L510.359 471.325L508.355 469.177L507.023 470.718L506.987 470.714ZM492.809 455.732L492.835 455.479L492.284 455.165L492.809 455.732ZM489.064 451.719L488.425 450.153L486.798 449.287L489.064 451.719ZM450.437 410.291L450.46 410.074L450.207 410.048L450.437 410.291ZM443.703 403.075L443.669 402.012L445.866 402.316L445.95 402.215L442.173 398.162L437.926 396.837L443.707 403.039L443.703 403.075ZM387.931 343.246L437.462 396.386L432.646 390.396L431.719 387.739L431.788 387.089L390.991 343.349L387.927 343.282L387.931 343.246Z" fill="#DBDADA"/>
<path d="M410.806 343.681L425.882 359.854L426.744 357.569L426.518 357.289L424.585 356.903L425.118 356.008L422.971 354.174L423.004 353.519L413.87 343.748L410.806 343.681Z" fill="#DBDADA"/>
<mask id="mask2_344_3465" style="mask-type:luminance" maskUnits="userSpaceOnUse" x="96" y="278" width="627" height="567">
<path d="M709.888 831.244L722.33 844.654L708.99 827.274L709.851 831.24L709.888 831.244ZM576.445 651.558L579.048 653.221L580.505 656.738L579.767 651.25L576.599 649.746L576.412 651.518L576.445 651.558ZM555.136 547.031L554.52 548.721L557.18 549.147L560.173 552.314L560.47 548.105L558.223 546.186L555.136 547.031ZM508.937 468.506L507.023 470.718L505.428 474.753L505.941 476.818L506.999 477.185L506.172 475.673L511.991 469.705L515.007 471.266L515.235 472.569L514.038 473.174L515.148 474.79L521.473 473.043L522.822 473.77L527.753 473.814L517.015 470.6L512.497 467.675L508.937 468.506ZM237.287 286.988L230.198 290.08L216.76 289.25L183.53 299.679L160.938 321.902L125.393 383.118L100.138 414.31L96.334 426.484L97.1844 430.558L100.906 435.483L109.443 441.902L114.841 447.917L118.087 461.529L121.198 465.658L148.07 482.635L163.108 485.973L171.846 497.421L182.237 506.704L188.362 508.592L203.23 509.39L211.092 511.79L236.452 530.983L242.935 534.334L249.115 534.656L260.829 532.417L264.884 533.136L281.34 549.747L284.94 556.524L308.066 565.685L318.052 571.526L320.693 578.384L321.358 591.504L320.267 651.158L317.223 690.829L317.432 710.372L318.885 720.176L321.667 725.002L327.541 729.97L351.839 747.444L375.199 772.422L379.399 778.019L384.504 788.901L384.791 788.603L388.192 783.733L387.612 778.481L376.275 760.472L381.668 759.943L393.941 768.364L414.205 772.764L428.686 783.135L431.77 783.351L433.555 781.674L438.012 766.425L443.654 761.791L449.435 761.047L451.708 762.383L457.412 773.476L462.173 778.948L464.734 778.231L475.787 762.835L489.64 756.252L492.129 756.916L494.555 761.302L503.348 766.322L513.944 758.738L534.069 757.859L578.608 761.892L613.763 773.453L631.497 766.474L642.988 766.002L663.928 771.973L665.005 767.297L673.328 761.155L674.575 757.302L675.733 757.753L677.233 755.315L680.421 755.249L682.09 753.633L680.15 751.565L677.368 752.99L676.436 748.651L675.005 749.743L672.712 748.259L672.851 750.759L668.522 754.032L667.407 757.68L663.525 759.83L663.391 753.455L665.239 750.141L663.213 750.987L661.66 749.764L661.949 748.405L659.272 749.183L656.246 748.06L651.78 752.635L645.213 754.941L633.235 752.4L623.92 740.526L621.27 734.8L621.985 733.559L617.786 734.214L615.93 738.99L612.603 721.641L611.263 719.782L608.761 719.591L606.289 710.777L599.983 701.23L599.064 703.363L600.307 705.102L597.991 703.835L598.781 701.542L596.831 694.72L598.088 690.064L594.974 684.581L596.078 678.264L592.936 667.478L584.667 660.612L583.192 656.216L581.405 657.564L583.122 660.011L583.146 662.901L582.098 662.791L576.975 655.891L576.878 652.993L573.615 651.699L571.979 647.798L568.729 644.641L568.244 639.874L567.701 639.122L566.299 640.985L566.198 639.512L563.384 637.425L561.751 632.793L562.937 634.38L564.404 633.986L566.912 637.942L570.607 638.953L571.513 642.85L572.618 642.418L573.3 640.114L571.37 638.997L569.709 633.594L566.904 631.764L562.366 624.523L559.274 616.74L560.327 614.036L562.155 613.68L560.528 612.12L561.002 610.049L559.754 608.017L556.139 607.636L554.087 605.593L551.901 607.958L550.308 607.461L550.487 599.511L551.911 597.796L549.683 594.308L552.969 587.051L554.37 586.248L556.333 587.734L562.696 603.684L564.706 602.653L564.337 599.215L566.71 593.689L565.65 592.298L566.271 586.404L568.445 589.704L567.867 591.727L570.62 588.836L571.031 584.932L571.987 584.886L570.864 583.05L572.653 572.308L571.428 567.975L567.225 563.804L568.894 563.577L568.785 560.788L571.423 559.347L571.385 556.236L570.342 557.808L570.125 555.007L569.505 553.954L568.348 558.694L569.276 559.596L565.986 564.112L563.959 562.875L564.329 556.59L563.158 556.247L561.798 560.491L560.871 557.834L560.021 558.622L559.628 561.651L556.095 556.673L553.863 550.443L553.289 543.4L554.32 540.548L552.189 539.958L551.869 537.438L553.329 531.561L553.415 533.873L556.48 539.13L559.144 537.437L563.543 538.704L566.814 543.399L568.371 543.197L567.317 542.099L566.057 540.87L554.701 526.514L549.448 520.514L541.629 519.435L539.612 517.76L536.655 516.681L533.543 514.635L532.59 514.316L526.68 509.343L526.372 508.799L525.805 506.546L523.925 506.348L523.995 503.248L525.456 503.256L525.951 501.334L521.989 502.16L519.561 498.833L525.676 495.968L526.345 497.245L527.093 496.044L527.322 495.958L528.595 496.019L528.694 495.774L525.929 494.605L519.485 498.167L516.492 495.001L515.214 489.785L516.974 487.302L518.28 483.235L521.17 475.57L518.476 478.942L516.673 485.991L514.223 487.743L511.758 485.107L513.737 484.365L513.277 480.405L510.348 480.097L509.323 474.908L507.334 476.087L507.844 477.494L506.029 480.154L507.835 480.015L512.244 484.318L508.786 487.646L510.98 492.154L507.185 490.694L503.943 492.327L504.417 489.562L503.13 488.586L501.193 493.097L499.913 490.33L497.861 491.065L498.455 489.592L497.11 489.523L498.316 488.481L500.002 489.133L501.435 484.203L498.495 482.614L497.085 483.16L495.978 483.263L494.568 483.114L492.909 480.125L493.278 470.367L489.057 468.789L484.42 471.518L486.289 468.351L485.524 465.895L487.474 465.771L489.141 463.826L485.64 461.667L485.604 464.441L482.913 464.998L481.509 463.059L477.543 460.448L476.43 460.953L477.359 459.076L479.484 460.068L481.378 457.708L482.164 458.924L484.152 457.745L486.066 459.701L488.011 457.895L489.374 459.537L491.368 456.567L492.276 458.015L491.539 459.802L492.991 460.247L492.622 455.42L489.737 453.654L488.248 450.097L483.85 447.77L474.217 447.596L467.51 444.294L464.812 440.062L462.365 439L458.176 440.935L458.325 443.693L456.134 444.705L455.982 441.289L457.581 438.606L455.924 438.03L453.811 441.426L450.9 439.913L451.821 438.109L452.049 435.94L453.429 435.683L454.32 434.169L451.465 434.891L452.483 431.818L451.433 429.99L449.64 432.433L448.95 426.146L447.656 429.409L445.964 429.158L449.805 417.682L450.436 421.404L452.429 418.799L451.475 424.035L452.921 424.188L452.822 426.517L455.247 425.018L455.484 423.8L454.333 422.582L455.462 417.071L450.239 413.56L450.246 410.015L447.615 409.665L443.6 404.746L443.491 401.956L445.689 402.26L447.8 399.924L437.636 396.806L432.468 390.34L431.542 387.684L432.28 380.67L434.139 379.33L429.877 373.288L426.083 370.44L423.716 365.146L426.662 357.304L424.443 356.851L424.94 355.953L422.79 354.154L423.121 348.231L419.793 346.857L416.796 343.726L350.935 342.567L351.458 340.721L342.597 328.017L342.455 315.829L341.087 309.032L332.705 294.55L330.487 292.708L248.257 278.968L237.186 286.905L237.287 286.988Z" fill="white"/>
</mask>
<g mask="url(#mask2_344_3465)">
<path d="M129.203 17.4865L932.666 879.414L932.777 876.282L132.335 17.5969L129.203 17.4865Z" fill="#DBDADA"/>
<path d="M152.44 18.2892L933.504 856.18L933.614 853.048L155.572 18.3997L152.44 18.2892Z" fill="#DBDADA"/>
<path d="M175.679 19.0909L934.307 832.942L934.417 829.81L178.811 19.2014L175.679 19.0909Z" fill="#DBDADA"/>
<path d="M198.912 19.9298L935.108 809.705L935.219 806.572L202.045 20.0403L198.912 19.9298Z" fill="#DBDADA"/>
<path d="M222.151 20.7316L935.947 786.47L936.057 783.338L225.283 20.8421L222.151 20.7316Z" fill="#DBDADA"/>
<path d="M245.388 21.5333L936.748 763.232L936.859 760.1L248.521 21.6438L245.388 21.5333Z" fill="#DBDADA"/>
<path d="M268.659 22.3751L937.551 739.993L937.661 736.861L271.755 22.4818L268.659 22.3751Z" fill="#DBDADA"/>
<path d="M291.898 23.1779L938.392 716.724L938.503 713.592L295.03 23.2883L291.898 23.1779Z" fill="#DBDADA"/>
<path d="M315.132 24.0158L939.195 693.485L939.305 690.353L318.264 24.1262L315.132 24.0158Z" fill="#DBDADA"/>
<path d="M338.37 24.8175L940.033 670.251L940.143 667.119L341.502 24.928L338.37 24.8175Z" fill="#DBDADA"/>
<path d="M361.608 25.6193L940.835 647.012L940.945 643.88L364.74 25.7298L361.608 25.6193Z" fill="#DBDADA"/>
<path d="M384.842 26.4581L941.636 623.775L941.747 620.643L387.974 26.5686L384.842 26.4581Z" fill="#DBDADA"/>
<path d="M408.081 27.2599L942.475 600.54L942.586 597.408L411.213 27.3704L408.081 27.2599Z" fill="#DBDADA"/>
<path d="M431.317 28.0616L943.276 577.302L943.386 574.17L434.45 28.1721L431.317 28.0616Z" fill="#DBDADA"/>
<path d="M454.588 28.9035L944.078 554.064L944.189 550.932L457.685 29.0101L454.588 28.9035Z" fill="#DBDADA"/>
<path d="M477.828 29.7052L944.922 530.793L945.028 527.697L480.96 29.8157L477.828 29.7052Z" fill="#DBDADA"/>
<path d="M501.061 30.5441L945.723 507.556L945.833 504.423L504.193 30.6546L501.061 30.5441Z" fill="#DBDADA"/>
</g>
<path d="M722.329 844.654L709.025 827.278L709.887 831.244L722.329 844.654ZM522.817 473.807L527.748 473.851L517.01 470.636L512.492 467.711L508.932 468.543L507.018 470.754L505.423 474.79L505.936 476.854L506.994 477.222L506.171 475.673L511.99 469.705L515.042 471.27L515.27 472.573L514.073 473.178L515.183 474.794L521.508 473.047L522.857 473.774L522.817 473.807ZM579.043 653.257L580.5 656.774L579.762 651.286L576.594 649.783L576.407 651.554L579.047 653.221L579.043 653.257ZM680.423 755.213L682.128 753.601L680.189 751.532L677.407 752.957L676.479 748.583L675.048 749.675L672.755 748.191L672.894 750.691L668.564 753.964L667.449 757.612L663.531 759.758L663.398 753.383L665.246 750.068L663.219 750.915L661.667 749.692L661.988 748.373L659.311 749.151L656.285 748.028L651.815 752.639L645.284 754.949L633.27 752.404L623.955 740.53L621.305 734.804L622.02 733.563L617.821 734.217L615.965 738.994L612.638 721.645L611.262 719.782L608.76 719.591L606.288 710.777L599.982 701.23L599.063 703.363L600.302 705.139L597.986 703.871L598.776 701.578L596.826 694.756L598.083 690.1L594.969 684.618L596.073 678.3L592.931 667.514L584.662 660.648L583.187 656.253L581.4 657.6L583.117 660.047L583.141 662.938L582.093 662.827L576.97 655.927L576.873 653.029L573.606 651.771L571.97 647.87L568.72 644.713L568.235 639.946L567.693 639.195L566.29 641.057L566.225 639.588L563.411 637.501L561.779 632.869L562.964 634.456L564.431 634.062L566.939 638.018L570.634 639.029L571.54 642.926L572.646 642.494L573.327 640.19L571.398 639.073L569.737 633.67L566.932 631.84L562.394 624.599L559.302 616.816L560.39 614.116L562.219 613.76L560.628 612.204L561.102 610.133L559.854 608.101L556.238 607.72L554.187 605.676L552.001 608.042L550.408 607.545L550.587 599.595L552.011 597.88L549.782 594.392L553.069 587.135L554.469 586.332L556.433 587.818L562.796 603.768L564.805 602.737L564.436 599.298L566.809 593.772L565.753 592.345L566.374 586.452L568.549 589.752L567.97 591.774L570.724 588.884L571.135 584.979L572.09 584.934L570.968 583.097L572.757 572.356L571.531 568.023L567.328 563.851L568.997 563.625L568.889 560.835L571.526 559.395L571.488 556.284L570.445 557.855L570.229 555.054L569.608 554.002L568.451 558.742L569.38 559.644L566.089 564.16L564.063 562.923L564.432 556.637L563.262 556.295L561.901 560.538L560.975 557.882L560.124 558.669L559.732 561.699L556.198 556.721L553.967 550.491L553.392 543.448L554.424 540.596L552.292 540.006L551.973 537.486L553.433 531.608L553.514 533.956L556.58 539.214L559.244 537.521L563.643 538.788L566.914 543.483L568.467 543.317L567.413 542.219L566.153 540.99L554.797 526.634L549.543 520.634L541.725 519.555L539.707 517.88L536.75 516.801L533.639 514.755L532.686 514.436L526.776 509.463L526.467 508.919L525.901 506.666L524.02 506.468L524.055 503.364L525.516 503.372L526.011 501.45L522.049 502.276L519.621 498.949L525.735 496.084L526.405 497.361L527.153 496.16L527.381 496.074L528.654 496.135L528.753 495.89L525.989 494.721L519.549 498.247L516.556 495.081L515.277 489.865L517.038 487.382L518.343 483.315L521.234 475.65L518.539 479.022L516.737 486.071L514.286 487.823L511.822 485.187L513.801 484.445L513.341 480.485L510.412 480.177L509.387 474.988L507.398 476.167L507.908 477.574L506.092 480.234L507.898 480.095L512.303 484.434L508.846 487.762L511.04 492.27L507.249 490.774L504.006 492.407L504.52 489.609L503.234 488.633L501.297 493.145L499.98 490.374L497.965 491.112L498.555 489.676L497.209 489.607L498.416 488.564L500.102 489.217L501.535 484.287L498.595 482.698L497.185 483.244L496.077 483.347L494.667 483.198L493.008 480.209L493.378 470.451L489.157 468.873L484.52 471.602L486.389 468.435L485.624 465.979L487.574 465.855L489.241 463.91L485.74 461.75L485.74 464.529L483.053 465.05L481.645 463.147L477.679 460.536L476.566 461.04L477.499 459.128L479.624 460.119L481.517 457.76L482.303 458.976L484.292 457.796L486.206 459.752L488.151 457.947L489.513 459.589L491.508 456.618L492.415 458.067L491.679 459.853L493.131 460.299L492.762 455.471L489.877 453.705L488.387 450.148L483.994 447.785L474.325 447.608L467.617 444.306L464.919 440.074L462.472 439.012L458.284 440.947L458.432 443.704L456.242 444.716L456.09 441.301L457.688 438.618L456.031 438.041L453.918 441.438L451.007 439.925L451.924 438.157L452.153 435.988L453.532 435.731L454.423 434.216L451.569 434.939L452.587 431.866L451.537 430.037L449.744 432.481L449.057 426.157L447.763 429.421L446.071 429.169L449.912 417.693L450.543 421.415L452.536 418.81L451.582 424.047L453.029 424.199L452.929 426.528L455.354 425.029L455.592 423.811L454.437 422.629L455.565 417.119L450.342 413.608L450.35 410.063L447.718 409.712L443.703 404.793L443.595 402.004L445.793 402.308L447.907 399.935L437.744 396.818L432.576 390.352L431.649 387.695L432.388 380.681L434.247 379.342L429.985 373.3L426.19 370.451L423.823 365.157L426.769 357.315L424.554 356.826L425.051 355.928L422.901 354.13L423.196 348.202L419.868 346.828L416.867 343.734L351.01 342.538L351.53 340.729L342.668 328.025L342.522 315.873L341.154 309.076L332.809 294.598L330.59 292.756L248.361 279.016L237.289 286.952L230.201 290.044L216.763 289.214L183.532 299.643L160.94 321.866L125.396 383.082L100.177 414.277L96.3729 426.452L97.2233 430.526L100.945 435.451L109.481 441.87L114.88 447.885L118.126 461.497L121.237 465.626L148.109 482.603L163.147 485.941L171.885 497.389L182.276 506.672L188.401 508.56L203.269 509.358L211.131 511.757L236.49 530.951L242.974 534.302L249.154 534.624L260.868 532.385L264.923 533.104L281.343 549.711L284.943 556.488L308.068 565.649L318.055 571.49L320.695 578.348L321.361 591.468L320.27 651.122L317.226 690.793L317.435 710.336L318.888 720.14L321.67 724.966L327.544 729.934L351.841 747.408L375.202 772.386L379.402 777.982L384.507 788.865L384.794 788.567L388.195 783.697L387.614 778.445L376.278 760.436L381.671 759.907L393.908 768.324L414.171 772.724L428.652 783.096L431.737 783.311L433.522 781.634L438.015 766.388L443.657 761.755L449.474 761.015L451.71 762.347L457.415 773.439L462.175 778.912L464.737 778.195L475.789 762.799L489.643 756.216L492.132 756.88L494.558 761.266L503.351 766.286L513.946 758.702L534.071 757.823L578.611 761.855L613.766 773.417L631.499 766.438L642.991 765.966L663.93 771.936L665.007 767.261L673.331 761.119L674.577 757.266L675.736 757.717L677.236 755.279L680.423 755.213ZM554.518 548.721L557.179 549.147L560.172 552.314L560.469 548.105L558.222 546.186L555.135 547.031L554.518 548.721Z" stroke="#62929F" stroke-width="1.85409" stroke-miterlimit="10"/>
</g>
</g>
<circle cx="596.39" cy="697.667" r="34.7421" fill="#CDDC29" fill-opacity="0.2"/>
<circle cx="596.389" cy="697.667" r="35.034" fill="#CDDC29"/>
<path d="M693.377 699H688.642L677.341 683.768L674.081 686.627V699H670.06V667.107H674.081V682.83C674.974 681.818 675.882 680.805 676.805 679.793C677.728 678.78 678.652 677.768 679.575 676.755L688.196 667.107H692.886L680.245 680.999L693.377 699ZM701.111 675.058V699H697.18V675.058H701.111ZM699.19 666.079C699.786 666.079 700.307 666.288 700.754 666.705C701.23 667.092 701.469 667.717 701.469 668.581C701.469 669.415 701.23 670.04 700.754 670.457C700.307 670.874 699.786 671.082 699.19 671.082C698.535 671.082 697.984 670.874 697.538 670.457C697.091 670.04 696.868 669.415 696.868 668.581C696.868 667.717 697.091 667.092 697.538 666.705C697.984 666.288 698.535 666.079 699.19 666.079ZM720.221 674.611C723.08 674.611 725.239 675.311 726.698 676.71C728.157 678.08 728.887 680.314 728.887 683.411V699H725V683.679C725 681.743 724.569 680.299 723.705 679.346C722.841 678.393 721.486 677.917 719.64 677.917C716.99 677.917 715.158 678.661 714.146 680.15C713.134 681.639 712.627 683.783 712.627 686.582V699H708.696V675.058H711.868L712.449 678.319H712.672C713.208 677.485 713.863 676.8 714.637 676.264C715.441 675.698 716.32 675.281 717.273 675.013C718.226 674.745 719.208 674.611 720.221 674.611ZM744.796 674.611C746.374 674.611 747.789 674.909 749.039 675.504C750.32 676.1 751.407 677.008 752.3 678.229H752.523L753.059 675.058H756.186V699.402C756.186 701.665 755.799 703.556 755.025 705.075C754.251 706.623 753.074 707.785 751.496 708.559C749.918 709.333 747.908 709.72 745.466 709.72C743.739 709.72 742.145 709.586 740.686 709.318C739.257 709.08 737.976 708.708 736.845 708.202V704.584C737.619 704.971 738.468 705.298 739.391 705.566C740.314 705.864 741.312 706.087 742.384 706.236C743.456 706.385 744.558 706.46 745.689 706.46C747.744 706.46 749.352 705.849 750.513 704.628C751.705 703.437 752.3 701.799 752.3 699.715V698.777C752.3 698.419 752.315 697.913 752.345 697.258C752.375 696.573 752.404 696.097 752.434 695.829H752.255C751.422 697.049 750.379 697.958 749.129 698.553C747.908 699.149 746.478 699.447 744.84 699.447C741.743 699.447 739.316 698.36 737.56 696.186C735.832 694.012 734.969 690.975 734.969 687.074C734.969 684.513 735.356 682.309 736.13 680.463C736.934 678.587 738.066 677.142 739.525 676.13C740.984 675.117 742.741 674.611 744.796 674.611ZM745.332 677.917C743.992 677.917 742.845 678.274 741.892 678.989C740.969 679.703 740.255 680.746 739.748 682.115C739.272 683.485 739.034 685.153 739.034 687.118C739.034 690.066 739.57 692.33 740.642 693.908C741.743 695.456 743.337 696.231 745.421 696.231C746.642 696.231 747.684 696.082 748.548 695.784C749.412 695.456 750.126 694.965 750.692 694.31C751.258 693.625 751.675 692.761 751.943 691.719C752.211 690.677 752.345 689.441 752.345 688.012V687.074C752.345 684.9 752.092 683.143 751.585 681.803C751.109 680.463 750.35 679.48 749.307 678.855C748.265 678.229 746.94 677.917 745.332 677.917ZM794.065 699L790.224 689.128H777.583L773.786 699H769.721L782.184 666.973H785.802L798.22 699H794.065ZM785.444 675.906C785.355 675.668 785.206 675.236 784.998 674.611C784.789 673.986 784.581 673.345 784.372 672.69C784.194 672.005 784.045 671.484 783.926 671.127C783.777 671.723 783.613 672.333 783.434 672.958C783.285 673.554 783.122 674.105 782.943 674.611C782.794 675.117 782.66 675.549 782.541 675.906L778.923 685.555H789.018L785.444 675.906ZM805.977 673.316C805.977 674.328 805.947 675.281 805.888 676.174C805.858 677.038 805.813 677.723 805.754 678.229H805.977C806.662 677.217 807.6 676.368 808.791 675.683C809.982 674.998 811.516 674.656 813.392 674.656C816.37 674.656 818.752 675.698 820.539 677.783C822.356 679.837 823.264 682.919 823.264 687.029C823.264 689.769 822.847 692.062 822.013 693.908C821.209 695.754 820.063 697.139 818.574 698.062C817.085 698.985 815.358 699.447 813.392 699.447C811.516 699.447 809.982 699.104 808.791 698.419C807.6 697.734 806.662 696.915 805.977 695.963H805.664L804.86 699H802.046V665.052H805.977V673.316ZM812.722 677.917C811.025 677.917 809.685 678.244 808.702 678.899C807.719 679.525 807.019 680.507 806.603 681.847C806.186 683.158 805.977 684.84 805.977 686.895V687.074C805.977 690.022 806.454 692.285 807.407 693.863C808.389 695.412 810.191 696.186 812.811 696.186C814.956 696.186 816.549 695.397 817.591 693.818C818.663 692.24 819.199 689.962 819.199 686.984C819.199 683.977 818.663 681.713 817.591 680.195C816.549 678.676 814.926 677.917 812.722 677.917ZM838.015 699.447C835.037 699.447 832.655 698.419 830.868 696.365C829.081 694.28 828.188 691.183 828.188 687.074C828.188 682.964 829.081 679.867 830.868 677.783C832.684 675.668 835.082 674.611 838.06 674.611C839.31 674.611 840.397 674.775 841.32 675.102C842.243 675.4 843.047 675.817 843.732 676.353C844.417 676.889 844.998 677.485 845.474 678.14H845.742C845.713 677.753 845.653 677.187 845.564 676.442C845.504 675.668 845.474 675.058 845.474 674.611V665.052H849.405V699H846.234L845.653 695.784H845.474C844.998 696.469 844.417 697.094 843.732 697.66C843.047 698.196 842.229 698.628 841.276 698.955C840.352 699.283 839.266 699.447 838.015 699.447ZM838.64 696.186C841.171 696.186 842.943 695.501 843.956 694.131C844.998 692.732 845.519 690.632 845.519 687.833V687.118C845.519 684.14 845.028 681.862 844.045 680.284C843.062 678.676 841.246 677.872 838.596 677.872C836.481 677.872 834.888 678.721 833.816 680.418C832.774 682.086 832.253 684.334 832.253 687.163C832.253 690.022 832.774 692.24 833.816 693.818C834.888 695.397 836.496 696.186 838.64 696.186ZM877.021 675.058V699H873.805L873.224 695.829H873.045C872.539 696.662 871.884 697.347 871.08 697.883C870.276 698.419 869.397 698.806 868.444 699.045C867.492 699.313 866.494 699.447 865.452 699.447C863.546 699.447 861.938 699.149 860.628 698.553C859.347 697.928 858.379 696.975 857.724 695.695C857.069 694.414 856.741 692.761 856.741 690.736V675.058H860.717V690.468C860.717 692.374 861.149 693.804 862.012 694.757C862.876 695.709 864.216 696.186 866.032 696.186C867.819 696.186 869.219 695.858 870.231 695.203C871.273 694.518 872.003 693.536 872.42 692.255C872.867 690.945 873.09 689.367 873.09 687.52V675.058H877.021ZM888.553 699H884.622V665.052H888.553V699ZM905.205 674.656C908.124 674.656 910.283 675.296 911.682 676.576C913.082 677.857 913.782 679.897 913.782 682.696V699H910.923L910.164 695.605H909.985C909.3 696.469 908.585 697.198 907.841 697.794C907.126 698.36 906.292 698.777 905.339 699.045C904.416 699.313 903.285 699.447 901.945 699.447C900.515 699.447 899.22 699.194 898.059 698.687C896.927 698.181 896.034 697.407 895.378 696.365C894.723 695.293 894.396 693.952 894.396 692.344C894.396 689.962 895.334 688.131 897.21 686.85C899.086 685.54 901.974 684.825 905.876 684.706L909.94 684.572V683.143C909.94 681.148 909.509 679.763 908.645 678.989C907.781 678.214 906.56 677.827 904.982 677.827C903.731 677.827 902.54 678.021 901.409 678.408C900.277 678.765 899.22 679.182 898.237 679.659L897.031 676.71C898.073 676.145 899.309 675.668 900.739 675.281C902.168 674.864 903.657 674.656 905.205 674.656ZM906.367 687.431C903.389 687.55 901.319 688.026 900.158 688.86C899.026 689.694 898.461 690.87 898.461 692.389C898.461 693.729 898.863 694.712 899.667 695.337C900.5 695.963 901.558 696.275 902.838 696.275C904.863 696.275 906.546 695.724 907.886 694.623C909.226 693.491 909.896 691.764 909.896 689.441V687.297L906.367 687.431ZM936.632 699H919.122V696.409L931.986 678.095H919.881V675.058H936.319V678.006L923.633 695.963H936.632V699ZM946.089 675.058V699H942.158V675.058H946.089ZM944.169 666.079C944.764 666.079 945.285 666.288 945.732 666.705C946.208 667.092 946.447 667.717 946.447 668.581C946.447 669.415 946.208 670.04 945.732 670.457C945.285 670.874 944.764 671.082 944.169 671.082C943.513 671.082 942.962 670.874 942.516 670.457C942.069 670.04 941.846 669.415 941.846 668.581C941.846 667.717 942.069 667.092 942.516 666.705C942.962 666.288 943.513 666.079 944.169 666.079ZM969.13 699H951.62V696.409L964.484 678.095H952.379V675.058H968.817V678.006L956.131 695.963H969.13V699ZM993.362 667.107C997.531 667.107 1000.57 667.926 1002.47 669.564C1004.38 671.201 1005.33 673.509 1005.33 676.487C1005.33 677.797 1005.11 679.063 1004.66 680.284C1004.25 681.475 1003.55 682.547 1002.56 683.5C1001.58 684.453 1000.27 685.212 998.633 685.778C996.995 686.314 994.985 686.582 992.603 686.582H988.94V699H984.92V667.107H993.362ZM993.005 670.546H988.94V683.143H992.156C994.181 683.143 995.864 682.934 997.204 682.517C998.544 682.071 999.541 681.371 1000.2 680.418C1000.85 679.465 1001.18 678.214 1001.18 676.666C1001.18 674.611 1000.52 673.077 999.214 672.065C997.904 671.052 995.834 670.546 993.005 670.546ZM1032.24 686.984C1032.24 688.979 1031.98 690.751 1031.44 692.3C1030.93 693.818 1030.19 695.114 1029.21 696.186C1028.25 697.258 1027.08 698.077 1025.68 698.643C1024.31 699.179 1022.78 699.447 1021.08 699.447C1019.5 699.447 1018.04 699.179 1016.7 698.643C1015.36 698.077 1014.2 697.258 1013.22 696.186C1012.23 695.114 1011.46 693.818 1010.89 692.3C1010.36 690.751 1010.09 688.979 1010.09 686.984C1010.09 684.334 1010.54 682.1 1011.43 680.284C1012.32 678.438 1013.6 677.038 1015.27 676.085C1016.94 675.102 1018.92 674.611 1021.21 674.611C1023.39 674.611 1025.29 675.102 1026.93 676.085C1028.6 677.038 1029.89 678.438 1030.82 680.284C1031.77 682.1 1032.24 684.334 1032.24 686.984ZM1014.15 686.984C1014.15 688.86 1014.39 690.498 1014.87 691.898C1015.37 693.268 1016.15 694.325 1017.19 695.069C1018.23 695.814 1019.56 696.186 1021.17 696.186C1022.78 696.186 1024.1 695.814 1025.14 695.069C1026.18 694.325 1026.94 693.268 1027.42 691.898C1027.93 690.498 1028.18 688.86 1028.18 686.984C1028.18 685.078 1027.93 683.455 1027.42 682.115C1026.91 680.775 1026.14 679.748 1025.1 679.033C1024.09 678.289 1022.76 677.917 1021.12 677.917C1018.68 677.917 1016.91 678.721 1015.81 680.329C1014.7 681.937 1014.15 684.155 1014.15 686.984ZM1049.64 674.611C1050.09 674.611 1050.56 674.641 1051.07 674.7C1051.61 674.73 1052.07 674.79 1052.46 674.879L1051.96 678.497C1051.58 678.408 1051.15 678.333 1050.67 678.274C1050.22 678.214 1049.79 678.185 1049.37 678.185C1048.45 678.185 1047.57 678.378 1046.74 678.765C1045.9 679.152 1045.16 679.703 1044.5 680.418C1043.85 681.103 1043.33 681.937 1042.94 682.919C1042.58 683.902 1042.41 685.004 1042.41 686.225V699H1038.47V675.058H1041.69L1042.14 679.435H1042.32C1042.82 678.542 1043.43 677.738 1044.15 677.023C1044.86 676.279 1045.68 675.698 1046.6 675.281C1047.53 674.834 1048.54 674.611 1049.64 674.611ZM1064.92 696.231C1065.52 696.231 1066.13 696.186 1066.75 696.097C1067.38 695.977 1067.89 695.858 1068.27 695.739V698.732C1067.86 698.94 1067.26 699.104 1066.49 699.223C1065.71 699.372 1064.97 699.447 1064.25 699.447C1063 699.447 1061.84 699.238 1060.77 698.821C1059.73 698.375 1058.88 697.615 1058.22 696.543C1057.57 695.471 1057.24 693.967 1057.24 692.032V678.095H1053.84V676.219L1057.28 674.656L1058.85 669.564H1061.17V675.058H1068.09V678.095H1061.17V691.942C1061.17 693.402 1061.51 694.488 1062.2 695.203C1062.91 695.888 1063.82 696.231 1064.92 696.231Z" fill="white"/>
</svg>
