<svg width="1124" height="1080" viewBox="0 0 1124 1080" fill="none" xmlns="http://www.w3.org/2000/svg">
<path d="M1050.52 929.517L783.17 910.393L516.407 605.582L490.906 479.468L426.951 442.618L333.121 295.184L133.098 238.803L-38.4388 225.459L-452.627 -91.9072L-568.174 -118.206L-784.735 -60.6279L-692.892 58.112L-896.898 192.782L-1016.64 217.892L-987.144 315.114L-793.099 728.305L-668.389 861.388L-626.75 961.794L-632.329 1100.85L-484.106 1257.04L-235.069 1654.7L-186.861 1542.34L254.424 1585.37L331.724 1465.44L434.525 1411.24L739.336 1358.26L1056.1 1228.96L1111.89 998.652L1050.52 929.517Z" fill="#EEEEEE" fill-opacity="0.09"/>
<path d="M722.583 844.68L709.279 827.304L710.14 831.27L722.583 844.68ZM523.071 473.833L528.002 473.877L517.263 470.662L512.746 467.738L509.186 468.569L507.271 470.78L505.677 474.816L506.19 476.881L507.248 477.248L506.424 475.699L512.244 469.732L515.296 471.296L515.524 472.6L514.327 473.205L515.437 474.82L521.762 473.074L523.111 473.801L523.071 473.833ZM579.297 653.284L580.754 656.8L580.016 651.312L576.848 649.809L576.661 651.58L579.3 653.248L579.297 653.284ZM680.677 755.239L682.382 753.627L680.443 751.559L677.661 752.984L676.733 748.609L675.302 749.701L673.009 748.217L673.147 750.717L668.818 753.99L667.703 757.638L663.785 759.784L663.652 753.41L665.5 750.095L663.473 750.942L661.921 749.718L662.242 748.399L659.565 749.177L656.539 748.055L652.069 752.665L645.538 754.975L633.523 752.43L624.209 740.556L621.559 734.83L622.274 733.589L618.075 734.244L616.219 739.02L612.891 721.671L611.516 719.808L609.013 719.618L606.542 710.804L600.236 701.256L599.317 703.39L600.556 705.165L598.24 703.898L599.03 701.605L597.08 694.783L598.337 690.126L595.223 684.644L596.327 678.326L593.185 667.541L584.916 660.675L583.441 656.279L581.654 657.626L583.371 660.073L583.395 662.964L582.347 662.853L577.224 655.953L577.127 653.055L573.86 651.797L572.224 647.896L568.974 644.739L568.489 639.973L567.946 639.221L566.544 641.084L566.479 639.615L563.665 637.527L562.033 632.895L563.218 634.482L564.685 634.089L567.193 638.045L570.888 639.055L571.794 642.953L572.9 642.521L573.581 640.216L571.651 639.099L569.99 633.697L567.186 631.866L562.647 624.626L559.556 616.843L560.644 614.142L562.473 613.787L560.882 612.23L561.356 610.16L560.108 608.127L556.492 607.747L554.441 605.703L552.254 608.068L550.662 607.571L550.841 599.621L552.264 597.907L550.036 594.418L553.323 587.161L554.723 586.358L556.687 587.844L563.05 603.795L565.059 602.763L564.69 599.325L567.063 593.799L566.007 592.372L566.628 586.478L568.803 589.778L568.224 591.801L570.978 588.91L571.389 585.006L572.344 584.96L571.221 583.124L573.011 572.382L571.785 568.049L567.582 563.878L569.251 563.651L569.143 560.862L571.78 559.421L571.742 556.31L570.699 557.882L570.482 555.081L569.862 554.028L568.705 558.768L569.633 559.67L566.343 564.186L564.317 562.949L564.686 556.664L563.516 556.321L562.155 560.565L561.229 557.908L560.378 558.696L559.986 561.725L556.452 556.747L554.22 550.517L553.646 543.474L554.677 540.622L552.546 540.032L552.227 537.512L553.686 531.635L553.768 533.983L556.834 539.241L559.498 537.547L563.897 538.815L567.168 543.509L568.721 543.344L567.667 542.246L566.407 541.016L555.051 526.66L549.797 520.66L541.978 519.581L539.961 517.907L537.004 516.828L533.893 514.782L532.94 514.462L527.03 509.49L526.721 508.945L526.154 506.692L524.274 506.494L524.309 503.391L525.77 503.398L526.265 501.476L522.303 502.302L519.875 498.976L525.989 496.11L526.659 497.387L527.407 496.186L527.635 496.101L528.908 496.162L529.007 495.916L526.242 494.748L519.803 498.274L516.81 495.107L515.531 489.891L517.292 487.408L518.597 483.342L521.488 475.677L518.793 479.049L516.991 486.097L514.54 487.849L512.076 485.214L514.055 484.472L513.594 480.512L510.666 480.203L509.64 475.014L507.652 476.194L508.162 477.6L506.346 480.26L508.152 480.121L512.557 484.46L509.099 487.788L511.293 492.296L507.503 490.8L504.26 492.433L504.774 489.636L503.488 488.66L501.551 493.171L500.234 490.401L498.219 491.139L498.808 489.702L497.463 489.634L498.67 488.591L500.356 489.244L501.789 484.313L498.849 482.724L497.439 483.27L496.331 483.373L494.921 483.225L493.262 480.235L493.632 470.477L489.411 468.899L484.774 471.628L486.642 468.462L485.877 466.005L487.828 465.881L489.495 463.937L485.994 461.777L485.994 464.555L483.307 465.076L481.899 463.173L477.933 460.562L476.82 461.067L477.752 459.154L479.878 460.146L481.771 457.786L482.557 459.002L484.546 457.822L486.46 459.779L488.405 457.973L489.767 459.615L491.761 456.645L492.669 458.093L491.933 459.88L493.385 460.325L493.015 455.497L490.131 453.731L488.641 450.175L484.247 447.811L474.579 447.634L467.871 444.332L465.173 440.1L462.726 439.038L458.538 440.973L458.686 443.731L456.496 444.743L456.344 441.327L457.942 438.644L456.285 438.067L454.172 441.464L451.261 439.951L452.178 438.183L452.407 436.014L453.786 435.757L454.677 434.243L451.822 434.966L452.841 431.892L451.79 430.064L449.998 432.507L449.311 426.184L448.017 429.447L446.325 429.196L450.166 417.72L450.797 421.442L452.79 418.837L451.836 424.073L453.283 424.226L453.183 426.555L455.608 425.055L455.846 423.838L454.691 422.656L455.819 417.145L450.596 413.634L450.604 410.089L447.972 409.739L443.957 404.82L443.849 402.03L446.047 402.334L448.161 399.962L437.997 396.844L432.83 390.378L431.903 387.722L432.641 380.708L434.501 379.368L430.238 373.326L426.444 370.477L424.077 365.183L427.023 357.342L424.808 356.853L425.305 355.954L423.155 354.156L423.45 348.229L420.122 346.855L417.121 343.76L351.264 342.565L351.783 340.755L342.922 328.051L342.776 315.899L341.408 309.102L333.063 294.624L330.844 292.782L248.615 279.042L237.543 286.979L230.455 290.071L217.017 289.241L183.786 299.669L161.194 321.892L125.65 383.109L100.431 414.304L96.6268 426.478L97.4772 430.552L101.199 435.477L109.735 441.896L115.134 447.911L118.379 461.523L121.49 465.652L148.362 482.629L163.401 485.967L172.139 497.415L182.53 506.698L188.655 508.586L203.523 509.384L211.385 511.784L236.744 530.977L243.227 534.329L249.408 534.65L261.122 532.411L265.177 533.131L281.597 549.738L285.197 556.514L308.322 565.676L318.308 571.516L320.949 578.374L321.615 591.494L320.524 651.148L317.48 690.82L317.688 710.362L319.142 720.166L321.924 724.992L327.798 729.961L352.095 747.434L375.456 772.412L379.655 778.009L384.761 788.892L385.048 788.593L388.449 783.724L387.868 778.472L376.532 760.462L381.924 759.933L394.162 768.35L414.425 772.751L428.906 783.122L431.99 783.337L433.775 781.661L438.269 766.415L443.911 761.781L449.728 761.042L451.964 762.374L457.669 773.466L462.429 778.939L464.991 778.221L476.043 762.826L489.897 756.242L492.386 756.906L494.812 761.292L503.605 766.313L514.2 758.728L534.325 757.85L578.864 761.882L614.02 773.443L631.753 766.464L643.245 765.993L664.184 771.963L665.261 767.287L673.585 761.145L674.831 757.292L675.99 757.743L677.49 755.305L680.677 755.239ZM554.772 548.747L557.432 549.174L560.426 552.34L560.723 548.131L558.475 546.213L555.389 547.058L554.772 548.747Z" fill="#275A67"/>
<g opacity="0.55">
<mask id="mask0_344_3465" style="mask-type:luminance" maskUnits="userSpaceOnUse" x="8" y="193" width="809" height="707">
<path d="M816.472 271.759L74.3215 193.609L8.25568 821.004L750.406 899.154L816.472 271.759Z" fill="white"/>
</mask>
<g mask="url(#mask0_344_3465)">
<mask id="mask1_344_3465" style="mask-type:luminance" maskUnits="userSpaceOnUse" x="96" y="278" width="627" height="567">
<path d="M709.888 831.244L722.33 844.654L708.99 827.274L709.851 831.24L709.888 831.244ZM576.445 651.558L579.048 653.221L580.505 656.738L579.767 651.25L576.599 649.746L576.412 651.518L576.445 651.558ZM555.136 547.031L554.52 548.721L557.18 549.147L560.173 552.314L560.47 548.105L558.223 546.186L555.136 547.031ZM508.937 468.506L507.023 470.718L505.428 474.753L505.941 476.818L506.999 477.185L506.172 475.673L511.991 469.705L515.007 471.266L515.235 472.569L514.038 473.174L515.148 474.79L521.473 473.043L522.822 473.77L527.753 473.814L517.015 470.6L512.497 467.675L508.937 468.506ZM237.287 286.988L230.198 290.08L216.76 289.25L183.53 299.679L160.938 321.902L125.393 383.118L100.138 414.31L96.334 426.484L97.1844 430.558L100.906 435.483L109.443 441.902L114.841 447.917L118.087 461.529L121.198 465.658L148.07 482.635L163.108 485.973L171.846 497.421L182.237 506.704L188.362 508.592L203.23 509.39L211.092 511.79L236.452 530.983L242.935 534.334L249.115 534.656L260.829 532.417L264.884 533.136L281.34 549.747L284.94 556.524L308.066 565.685L318.052 571.526L320.693 578.384L321.358 591.504L320.267 651.158L317.223 690.829L317.432 710.372L318.885 720.176L321.667 725.002L327.541 729.97L351.839 747.444L375.199 772.422L379.399 778.019L384.504 788.901L384.791 788.603L388.192 783.733L387.612 778.481L376.275 760.472L381.668 759.943L393.941 768.364L414.205 772.764L428.686 783.135L431.77 783.351L433.555 781.674L438.012 766.425L443.654 761.791L449.435 761.047L451.708 762.383L457.412 773.476L462.173 778.948L464.734 778.231L475.787 762.835L489.64 756.252L492.129 756.916L494.555 761.302L503.348 766.322L513.944 758.738L534.069 757.859L578.608 761.892L613.763 773.453L631.497 766.474L642.988 766.002L663.928 771.973L665.005 767.297L673.328 761.155L674.575 757.302L675.733 757.753L677.233 755.315L680.421 755.249L682.09 753.633L680.15 751.565L677.368 752.99L676.436 748.651L675.005 749.743L672.712 748.259L672.851 750.759L668.522 754.032L667.407 757.68L663.525 759.83L663.391 753.455L665.239 750.141L663.213 750.987L661.66 749.764L661.949 748.405L659.272 749.183L656.246 748.06L651.78 752.635L645.213 754.941L633.235 752.4L623.92 740.526L621.27 734.8L621.985 733.559L617.786 734.214L615.93 738.99L612.603 721.641L611.263 719.782L608.761 719.591L606.289 710.777L599.983 701.23L599.064 703.363L600.307 705.102L597.991 703.835L598.781 701.542L596.831 694.72L598.088 690.064L594.974 684.581L596.078 678.264L592.936 667.478L584.667 660.612L583.192 656.216L581.405 657.564L583.122 660.011L583.146 662.901L582.098 662.791L576.975 655.891L576.878 652.993L573.615 651.699L571.979 647.798L568.729 644.641L568.244 639.874L567.701 639.122L566.299 640.985L566.198 639.512L563.384 637.425L561.751 632.793L562.937 634.38L564.404 633.986L566.912 637.942L570.607 638.953L571.513 642.85L572.618 642.418L573.3 640.114L571.37 638.997L569.709 633.594L566.904 631.764L562.366 624.523L559.274 616.74L560.327 614.036L562.155 613.68L560.528 612.12L561.002 610.049L559.754 608.017L556.139 607.636L554.087 605.593L551.901 607.958L550.308 607.461L550.487 599.511L551.911 597.796L549.683 594.308L552.969 587.051L554.37 586.248L556.333 587.734L562.696 603.684L564.706 602.653L564.337 599.215L566.71 593.689L565.65 592.298L566.271 586.404L568.445 589.704L567.867 591.727L570.62 588.836L571.031 584.932L571.987 584.886L570.864 583.05L572.653 572.308L571.428 567.975L567.225 563.804L568.894 563.577L568.785 560.788L571.423 559.347L571.385 556.236L570.342 557.808L570.125 555.007L569.505 553.954L568.348 558.694L569.276 559.596L565.986 564.112L563.959 562.875L564.329 556.59L563.158 556.247L561.798 560.491L560.871 557.834L560.021 558.622L559.628 561.651L556.095 556.673L553.863 550.443L553.289 543.4L554.32 540.548L552.189 539.958L551.869 537.438L553.329 531.561L553.415 533.873L556.48 539.13L559.144 537.437L563.543 538.704L566.814 543.399L568.371 543.197L567.317 542.099L566.057 540.87L554.701 526.514L549.448 520.514L541.629 519.435L539.612 517.76L536.655 516.681L533.543 514.635L532.59 514.316L526.68 509.343L526.372 508.799L525.805 506.546L523.925 506.348L523.995 503.248L525.456 503.256L525.951 501.334L521.989 502.16L519.561 498.833L525.676 495.968L526.345 497.245L527.093 496.044L527.322 495.958L528.595 496.019L528.694 495.774L525.929 494.605L519.485 498.167L516.492 495.001L515.214 489.785L516.974 487.302L518.28 483.235L521.17 475.57L518.476 478.942L516.673 485.991L514.223 487.743L511.758 485.107L513.737 484.365L513.277 480.405L510.348 480.097L509.323 474.908L507.334 476.087L507.844 477.494L506.029 480.154L507.835 480.015L512.244 484.318L508.786 487.646L510.98 492.154L507.185 490.694L503.943 492.327L504.417 489.562L503.13 488.586L501.193 493.097L499.913 490.33L497.861 491.065L498.455 489.592L497.11 489.523L498.316 488.481L500.002 489.133L501.435 484.203L498.495 482.614L497.085 483.16L495.978 483.263L494.568 483.114L492.909 480.125L493.278 470.367L489.057 468.789L484.42 471.518L486.289 468.351L485.524 465.895L487.474 465.771L489.141 463.826L485.64 461.667L485.604 464.441L482.913 464.998L481.509 463.059L477.543 460.448L476.43 460.953L477.359 459.076L479.484 460.068L481.378 457.708L482.164 458.924L484.152 457.745L486.066 459.701L488.011 457.895L489.374 459.537L491.368 456.567L492.276 458.015L491.539 459.802L492.991 460.247L492.622 455.42L489.737 453.654L488.248 450.097L483.85 447.77L474.217 447.596L467.51 444.294L464.812 440.062L462.365 439L458.176 440.935L458.325 443.693L456.134 444.705L455.982 441.289L457.581 438.606L455.924 438.03L453.811 441.426L450.9 439.913L451.821 438.109L452.049 435.94L453.429 435.683L454.32 434.169L451.465 434.891L452.483 431.818L451.433 429.99L449.64 432.433L448.95 426.146L447.656 429.409L445.964 429.158L449.805 417.682L450.436 421.404L452.429 418.799L451.475 424.035L452.921 424.188L452.822 426.517L455.247 425.018L455.484 423.8L454.333 422.582L455.462 417.071L450.239 413.56L450.246 410.015L447.615 409.665L443.6 404.746L443.491 401.956L445.689 402.26L447.8 399.924L437.636 396.806L432.468 390.34L431.542 387.684L432.28 380.67L434.139 379.33L429.877 373.288L426.083 370.44L423.716 365.146L426.662 357.304L424.443 356.851L424.94 355.953L422.79 354.154L423.121 348.231L419.793 346.857L416.796 343.726L350.935 342.567L351.458 340.721L342.597 328.017L342.455 315.829L341.087 309.032L332.705 294.55L330.487 292.708L248.257 278.968L237.186 286.905L237.287 286.988Z" fill="white"/>
</mask>
<g mask="url(#mask1_344_3465)">
<path d="M-123.504 662.808L271.163 1086.23L274.295 1086.34L-123.397 659.712L-123.504 662.808Z" fill="#DBDADA"/>
<path d="M-122.664 639.574L294.402 1087.03L297.535 1087.14L-122.554 636.441L-122.664 639.574Z" fill="#DBDADA"/>
<path d="M-121.863 616.335L317.672 1087.87L320.804 1087.98L-121.753 613.203L-121.863 616.335Z" fill="#DBDADA"/>
<path d="M-121.025 593.101L340.91 1088.67L344.043 1088.78L-120.914 589.969L-121.025 593.101Z" fill="#DBDADA"/>
<path d="M-120.221 569.863L364.15 1089.48L367.282 1089.59L-120.111 566.73L-120.221 569.863Z" fill="#DBDADA"/>
<path d="M-119.422 546.624L387.382 1090.31L390.514 1090.42L-119.311 543.492L-119.422 546.624Z" fill="#DBDADA"/>
<path d="M-118.582 523.39L410.622 1091.12L413.754 1091.23L-118.471 520.258L-118.582 523.39Z" fill="#DBDADA"/>
<path d="M-117.78 500.153L433.86 1091.92L436.992 1092.03L-117.669 497.021L-117.78 500.153Z" fill="#DBDADA"/>
<path d="M-116.937 476.881L457.094 1092.76L460.227 1092.87L-116.831 473.785L-116.937 476.881Z" fill="#DBDADA"/>
<path d="M-116.135 453.644L480.369 1093.56L483.465 1093.67L-116.025 450.512L-116.135 453.644Z" fill="#DBDADA"/>
<path d="M-115.334 430.406L503.602 1094.4L506.734 1094.51L-115.224 427.273L-115.334 430.406Z" fill="#DBDADA"/>
<path d="M-114.496 407.171L526.84 1095.2L529.973 1095.31L-114.385 404.039L-114.496 407.171Z" fill="#DBDADA"/>
<path d="M-113.694 383.933L550.079 1096L553.211 1096.11L-113.583 380.801L-113.694 383.933Z" fill="#DBDADA"/>
<path d="M-112.892 360.696L573.313 1096.84L576.445 1096.95L-112.781 357.563L-112.892 360.696Z" fill="#DBDADA"/>
<path d="M-112.053 337.46L596.551 1097.64L599.684 1097.75L-111.943 334.328L-112.053 337.46Z" fill="#DBDADA"/>
<path d="M-111.252 314.223L619.789 1098.45L622.921 1098.56L-111.142 311.091L-111.252 314.223Z" fill="#DBDADA"/>
<path d="M-110.41 290.952L643.023 1099.28L646.155 1099.4L-110.303 287.856L-110.41 290.952Z" fill="#DBDADA"/>
<path d="M-109.608 267.714L666.298 1100.09L669.393 1100.2L-109.497 264.582L-109.608 267.714Z" fill="#DBDADA"/>
</g>
<path d="M317.297 701.585L384.662 773.857L378.366 763.873L317.242 698.289L317.297 701.585Z" fill="#DBDADA"/>
<path d="M318.132 678.387L404.121 770.642L407.907 771.48L318.373 675.414L318.129 678.423L318.132 678.387ZM118.12 461.569L121.227 465.735L125.374 468.364L117.819 460.258L118.152 461.609L118.12 461.569Z" fill="#DBDADA"/>
<path d="M319.858 656.086L434.322 778.903L435.058 776.422L320.065 653.074L319.822 656.083L319.858 656.086ZM98.7793 418.882L160.857 485.48L163.144 485.977L171.299 496.706L172.58 498.084L182.237 506.704L184.22 507.315L99.5082 416.473L98.7393 418.915L98.7793 418.882Z" fill="#DBDADA"/>
<path d="M320.563 632.728L442.056 763.085L443.615 761.823L443.875 761.777L320.605 629.552L320.563 632.728ZM107.988 404.681L206.556 510.434L210.807 511.723L109.379 402.926L107.988 404.681Z" fill="#DBDADA"/>
<path d="M321.005 609.087L470.812 769.806L472.138 767.971L321.083 605.915L321.041 609.091L321.005 609.087ZM118.449 391.782L251.309 534.303L253.883 533.806L119.876 390.032L118.485 391.786L118.449 391.782Z" fill="#DBDADA"/>
<path d="M320.988 584.959L483.407 759.215L485.521 758.231L320.8 581.54L320.984 584.995L320.988 584.959ZM128.284 378.233L300.196 562.664L305.004 564.559L129.445 376.235L128.284 378.233Z" fill="#DBDADA"/>
<path d="M136.902 363.384L508.845 762.369L510.66 761.098L138.062 361.386L136.902 363.384Z" fill="#DBDADA"/>
<path d="M145.524 348.5L527.381 758.179L530.319 758.05L146.685 346.502L145.524 348.5Z" fill="#DBDADA"/>
<path d="M154.18 333.657L551.048 759.429L554.342 759.739L155.34 331.659L154.18 333.657Z" fill="#DBDADA"/>
<path d="M163.457 319.499L575.599 761.648L578.572 761.888L578.994 762.042L165.046 317.948L163.457 319.499Z" fill="#DBDADA"/>
<path d="M175.161 307.974L607.049 771.248L611.393 772.692L176.75 306.423L175.161 307.974Z" fill="#DBDADA"/>
<path d="M188.515 298.157L626.806 768.32L629.017 767.456L190.859 297.417L188.515 298.157Z" fill="#DBDADA"/>
<path d="M709.886 831.243L722.329 844.653L717.123 837.854L709.569 829.748L709.886 831.243ZM648.597 767.58L652.714 768.744L638.426 753.422L634.672 752.624L648.633 767.583L648.597 767.58ZM617.9 734.152L617.754 734.502L627.772 745.245L624.035 740.464L621.742 735.507L620.167 733.806L617.9 734.152ZM205.943 292.68L614.506 730.98L613.731 726.877L208.291 291.904L205.947 292.644L205.943 292.68Z" fill="#DBDADA"/>
<path d="M663.688 759.665L668.418 764.732L670.201 763.421L665.668 758.557L663.688 759.665ZM654.522 749.853L663.518 759.537L663.463 756.241L656.038 748.295L654.482 749.885L654.522 749.853ZM225.728 289.829L597.207 688.363L595.082 684.593L595.35 683.086L228.961 290.023L225.764 289.833L225.728 289.829Z" fill="#DBDADA"/>
<path d="M679.073 752.073L681.239 754.421L682.093 753.597L680.154 751.528L679.069 752.109L679.073 752.073ZM676.084 748.87L676.678 749.481L676.48 748.583L676.084 748.87ZM242.265 283.455L570.423 635.497L569.821 633.57L567.016 631.739L562.479 624.498L561.961 623.164L244.084 282.148L242.265 283.455Z" fill="#DBDADA"/>
<path d="M562.486 602.895L563.076 603.542L564.814 602.665L564.766 602.075L560.234 597.211L562.486 602.895ZM551.317 590.935L552.316 588.737L266.462 282.092L262.869 281.494L551.317 590.935Z" fill="#DBDADA"/>
<path d="M570.847 587.728L571.14 584.944L571.284 584.959L293.118 286.544L289.525 285.946L570.847 587.728Z" fill="#DBDADA"/>
<path d="M568.452 558.742L569.381 559.644L568.397 561.003L568.922 561.57L568.89 560.835L570.479 559.979L568.641 557.994L568.452 558.742ZM564.426 556.709L564.433 556.637L564.325 556.626L564.426 556.709ZM555.361 546.981L560.188 552.169L560.399 549.121L557.77 546.321L555.361 546.981ZM504.384 492.3L553.555 545.037L553.426 543.488L553.896 542.148L506.434 491.236L504.388 492.264L504.384 492.3ZM502.611 490.395L504.186 492.096L504.622 489.693L503.336 488.717L502.611 490.395ZM497.291 483.291L496.183 483.394L496.111 483.386L500.546 488.131L501.283 485.649L498.592 482.734L497.334 483.223L497.291 483.291ZM484.941 471.426L493.085 480.18L493.196 477.048L486.89 470.279L484.941 471.426ZM458.386 441.03L458.502 443.053L484.776 471.263L485.973 469.268L477.922 460.671L477.716 460.54L476.603 461.044L477.167 459.86L459.234 440.608L458.35 441.027L458.386 441.03ZM455.282 439.607L456.498 440.905L457.659 438.907L457.299 438.503L456.169 438.128L455.286 439.571L455.282 439.607ZM365.153 342.931L452.257 436.4L452.287 436.111L453.667 435.854L454.108 435.133L453.616 434.606L451.699 435.099L452.299 433.224L450.687 431.519L449.874 432.64L449.604 430.345L448.158 428.804L447.857 429.576L446.166 429.325L446.809 427.382L368.181 342.994L365.117 342.927L365.153 342.931ZM342.653 318.811L342.624 315.956L342.501 315.395L319.806 291.035L316.213 290.438L342.653 318.811Z" fill="#DBDADA"/>
<path d="M517.701 482.48L518.424 483.251L519.29 480.929L518.373 479.919L517.738 482.484L517.701 482.48ZM506.987 470.714L506.968 470.895L508.802 472.916L510.359 471.325L508.355 469.177L507.023 470.718L506.987 470.714ZM492.809 455.732L492.835 455.479L492.284 455.165L492.809 455.732ZM489.064 451.719L488.425 450.153L486.798 449.287L489.064 451.719ZM450.437 410.291L450.46 410.074L450.207 410.048L450.437 410.291ZM443.703 403.075L443.669 402.012L445.866 402.316L445.95 402.215L442.173 398.162L437.926 396.837L443.707 403.039L443.703 403.075ZM387.931 343.246L437.462 396.386L432.646 390.396L431.719 387.739L431.788 387.089L390.991 343.349L387.927 343.282L387.931 343.246Z" fill="#DBDADA"/>
<path d="M410.806 343.681L425.882 359.854L426.744 357.569L426.518 357.289L424.585 356.903L425.118 356.008L422.971 354.174L423.004 353.519L413.87 343.748L410.806 343.681Z" fill="#DBDADA"/>
<mask id="mask2_344_3465" style="mask-type:luminance" maskUnits="userSpaceOnUse" x="96" y="278" width="627" height="567">
<path d="M709.888 831.244L722.33 844.654L708.99 827.274L709.851 831.24L709.888 831.244ZM576.445 651.558L579.048 653.221L580.505 656.738L579.767 651.25L576.599 649.746L576.412 651.518L576.445 651.558ZM555.136 547.031L554.52 548.721L557.18 549.147L560.173 552.314L560.47 548.105L558.223 546.186L555.136 547.031ZM508.937 468.506L507.023 470.718L505.428 474.753L505.941 476.818L506.999 477.185L506.172 475.673L511.991 469.705L515.007 471.266L515.235 472.569L514.038 473.174L515.148 474.79L521.473 473.043L522.822 473.77L527.753 473.814L517.015 470.6L512.497 467.675L508.937 468.506ZM237.287 286.988L230.198 290.08L216.76 289.25L183.53 299.679L160.938 321.902L125.393 383.118L100.138 414.31L96.334 426.484L97.1844 430.558L100.906 435.483L109.443 441.902L114.841 447.917L118.087 461.529L121.198 465.658L148.07 482.635L163.108 485.973L171.846 497.421L182.237 506.704L188.362 508.592L203.23 509.39L211.092 511.79L236.452 530.983L242.935 534.334L249.115 534.656L260.829 532.417L264.884 533.136L281.34 549.747L284.94 556.524L308.066 565.685L318.052 571.526L320.693 578.384L321.358 591.504L320.267 651.158L317.223 690.829L317.432 710.372L318.885 720.176L321.667 725.002L327.541 729.97L351.839 747.444L375.199 772.422L379.399 778.019L384.504 788.901L384.791 788.603L388.192 783.733L387.612 778.481L376.275 760.472L381.668 759.943L393.941 768.364L414.205 772.764L428.686 783.135L431.77 783.351L433.555 781.674L438.012 766.425L443.654 761.791L449.435 761.047L451.708 762.383L457.412 773.476L462.173 778.948L464.734 778.231L475.787 762.835L489.64 756.252L492.129 756.916L494.555 761.302L503.348 766.322L513.944 758.738L534.069 757.859L578.608 761.892L613.763 773.453L631.497 766.474L642.988 766.002L663.928 771.973L665.005 767.297L673.328 761.155L674.575 757.302L675.733 757.753L677.233 755.315L680.421 755.249L682.09 753.633L680.15 751.565L677.368 752.99L676.436 748.651L675.005 749.743L672.712 748.259L672.851 750.759L668.522 754.032L667.407 757.68L663.525 759.83L663.391 753.455L665.239 750.141L663.213 750.987L661.66 749.764L661.949 748.405L659.272 749.183L656.246 748.06L651.78 752.635L645.213 754.941L633.235 752.4L623.92 740.526L621.27 734.8L621.985 733.559L617.786 734.214L615.93 738.99L612.603 721.641L611.263 719.782L608.761 719.591L606.289 710.777L599.983 701.23L599.064 703.363L600.307 705.102L597.991 703.835L598.781 701.542L596.831 694.72L598.088 690.064L594.974 684.581L596.078 678.264L592.936 667.478L584.667 660.612L583.192 656.216L581.405 657.564L583.122 660.011L583.146 662.901L582.098 662.791L576.975 655.891L576.878 652.993L573.615 651.699L571.979 647.798L568.729 644.641L568.244 639.874L567.701 639.122L566.299 640.985L566.198 639.512L563.384 637.425L561.751 632.793L562.937 634.38L564.404 633.986L566.912 637.942L570.607 638.953L571.513 642.85L572.618 642.418L573.3 640.114L571.37 638.997L569.709 633.594L566.904 631.764L562.366 624.523L559.274 616.74L560.327 614.036L562.155 613.68L560.528 612.12L561.002 610.049L559.754 608.017L556.139 607.636L554.087 605.593L551.901 607.958L550.308 607.461L550.487 599.511L551.911 597.796L549.683 594.308L552.969 587.051L554.37 586.248L556.333 587.734L562.696 603.684L564.706 602.653L564.337 599.215L566.71 593.689L565.65 592.298L566.271 586.404L568.445 589.704L567.867 591.727L570.62 588.836L571.031 584.932L571.987 584.886L570.864 583.05L572.653 572.308L571.428 567.975L567.225 563.804L568.894 563.577L568.785 560.788L571.423 559.347L571.385 556.236L570.342 557.808L570.125 555.007L569.505 553.954L568.348 558.694L569.276 559.596L565.986 564.112L563.959 562.875L564.329 556.59L563.158 556.247L561.798 560.491L560.871 557.834L560.021 558.622L559.628 561.651L556.095 556.673L553.863 550.443L553.289 543.4L554.32 540.548L552.189 539.958L551.869 537.438L553.329 531.561L553.415 533.873L556.48 539.13L559.144 537.437L563.543 538.704L566.814 543.399L568.371 543.197L567.317 542.099L566.057 540.87L554.701 526.514L549.448 520.514L541.629 519.435L539.612 517.76L536.655 516.681L533.543 514.635L532.59 514.316L526.68 509.343L526.372 508.799L525.805 506.546L523.925 506.348L523.995 503.248L525.456 503.256L525.951 501.334L521.989 502.16L519.561 498.833L525.676 495.968L526.345 497.245L527.093 496.044L527.322 495.958L528.595 496.019L528.694 495.774L525.929 494.605L519.485 498.167L516.492 495.001L515.214 489.785L516.974 487.302L518.28 483.235L521.17 475.57L518.476 478.942L516.673 485.991L514.223 487.743L511.758 485.107L513.737 484.365L513.277 480.405L510.348 480.097L509.323 474.908L507.334 476.087L507.844 477.494L506.029 480.154L507.835 480.015L512.244 484.318L508.786 487.646L510.98 492.154L507.185 490.694L503.943 492.327L504.417 489.562L503.13 488.586L501.193 493.097L499.913 490.33L497.861 491.065L498.455 489.592L497.11 489.523L498.316 488.481L500.002 489.133L501.435 484.203L498.495 482.614L497.085 483.16L495.978 483.263L494.568 483.114L492.909 480.125L493.278 470.367L489.057 468.789L484.42 471.518L486.289 468.351L485.524 465.895L487.474 465.771L489.141 463.826L485.64 461.667L485.604 464.441L482.913 464.998L481.509 463.059L477.543 460.448L476.43 460.953L477.359 459.076L479.484 460.068L481.378 457.708L482.164 458.924L484.152 457.745L486.066 459.701L488.011 457.895L489.374 459.537L491.368 456.567L492.276 458.015L491.539 459.802L492.991 460.247L492.622 455.42L489.737 453.654L488.248 450.097L483.85 447.77L474.217 447.596L467.51 444.294L464.812 440.062L462.365 439L458.176 440.935L458.325 443.693L456.134 444.705L455.982 441.289L457.581 438.606L455.924 438.03L453.811 441.426L450.9 439.913L451.821 438.109L452.049 435.94L453.429 435.683L454.32 434.169L451.465 434.891L452.483 431.818L451.433 429.99L449.64 432.433L448.95 426.146L447.656 429.409L445.964 429.158L449.805 417.682L450.436 421.404L452.429 418.799L451.475 424.035L452.921 424.188L452.822 426.517L455.247 425.018L455.484 423.8L454.333 422.582L455.462 417.071L450.239 413.56L450.246 410.015L447.615 409.665L443.6 404.746L443.491 401.956L445.689 402.26L447.8 399.924L437.636 396.806L432.468 390.34L431.542 387.684L432.28 380.67L434.139 379.33L429.877 373.288L426.083 370.44L423.716 365.146L426.662 357.304L424.443 356.851L424.94 355.953L422.79 354.154L423.121 348.231L419.793 346.857L416.796 343.726L350.935 342.567L351.458 340.721L342.597 328.017L342.455 315.829L341.087 309.032L332.705 294.55L330.487 292.708L248.257 278.968L237.186 286.905L237.287 286.988Z" fill="white"/>
</mask>
<g mask="url(#mask2_344_3465)">
<path d="M129.203 17.4865L932.666 879.414L932.777 876.282L132.335 17.5969L129.203 17.4865Z" fill="#DBDADA"/>
<path d="M152.44 18.2892L933.504 856.18L933.614 853.048L155.572 18.3997L152.44 18.2892Z" fill="#DBDADA"/>
<path d="M175.679 19.0909L934.307 832.942L934.417 829.81L178.811 19.2014L175.679 19.0909Z" fill="#DBDADA"/>
<path d="M198.912 19.9298L935.108 809.705L935.219 806.572L202.045 20.0403L198.912 19.9298Z" fill="#DBDADA"/>
<path d="M222.151 20.7316L935.947 786.47L936.057 783.338L225.283 20.8421L222.151 20.7316Z" fill="#DBDADA"/>
<path d="M245.388 21.5333L936.748 763.232L936.859 760.1L248.521 21.6438L245.388 21.5333Z" fill="#DBDADA"/>
<path d="M268.659 22.3751L937.551 739.993L937.661 736.861L271.755 22.4818L268.659 22.3751Z" fill="#DBDADA"/>
<path d="M291.898 23.1779L938.392 716.724L938.503 713.592L295.03 23.2883L291.898 23.1779Z" fill="#DBDADA"/>
<path d="M315.132 24.0158L939.195 693.485L939.305 690.353L318.264 24.1262L315.132 24.0158Z" fill="#DBDADA"/>
<path d="M338.37 24.8175L940.033 670.251L940.143 667.119L341.502 24.928L338.37 24.8175Z" fill="#DBDADA"/>
<path d="M361.608 25.6193L940.835 647.012L940.945 643.88L364.74 25.7298L361.608 25.6193Z" fill="#DBDADA"/>
<path d="M384.842 26.4581L941.636 623.775L941.747 620.643L387.974 26.5686L384.842 26.4581Z" fill="#DBDADA"/>
<path d="M408.081 27.2599L942.475 600.54L942.586 597.408L411.213 27.3704L408.081 27.2599Z" fill="#DBDADA"/>
<path d="M431.317 28.0616L943.276 577.302L943.386 574.17L434.45 28.1721L431.317 28.0616Z" fill="#DBDADA"/>
<path d="M454.588 28.9035L944.078 554.064L944.189 550.932L457.685 29.0101L454.588 28.9035Z" fill="#DBDADA"/>
<path d="M477.828 29.7052L944.922 530.793L945.028 527.697L480.96 29.8157L477.828 29.7052Z" fill="#DBDADA"/>
<path d="M501.061 30.5441L945.723 507.556L945.833 504.423L504.193 30.6546L501.061 30.5441Z" fill="#DBDADA"/>
</g>
<path d="M722.329 844.654L709.025 827.278L709.887 831.244L722.329 844.654ZM522.817 473.807L527.748 473.851L517.01 470.636L512.492 467.711L508.932 468.543L507.018 470.754L505.423 474.79L505.936 476.854L506.994 477.222L506.171 475.673L511.99 469.705L515.042 471.27L515.27 472.573L514.073 473.178L515.183 474.794L521.508 473.047L522.857 473.774L522.817 473.807ZM579.043 653.257L580.5 656.774L579.762 651.286L576.594 649.783L576.407 651.554L579.047 653.221L579.043 653.257ZM680.423 755.213L682.128 753.601L680.189 751.532L677.407 752.957L676.479 748.583L675.048 749.675L672.755 748.191L672.894 750.691L668.564 753.964L667.449 757.612L663.531 759.758L663.398 753.383L665.246 750.068L663.219 750.915L661.667 749.692L661.988 748.373L659.311 749.151L656.285 748.028L651.815 752.639L645.284 754.949L633.27 752.404L623.955 740.53L621.305 734.804L622.02 733.563L617.821 734.217L615.965 738.994L612.638 721.645L611.262 719.782L608.76 719.591L606.288 710.777L599.982 701.23L599.063 703.363L600.302 705.139L597.986 703.871L598.776 701.578L596.826 694.756L598.083 690.1L594.969 684.618L596.073 678.3L592.931 667.514L584.662 660.648L583.187 656.253L581.4 657.6L583.117 660.047L583.141 662.938L582.093 662.827L576.97 655.927L576.873 653.029L573.606 651.771L571.97 647.87L568.72 644.713L568.235 639.946L567.693 639.195L566.29 641.057L566.225 639.588L563.411 637.501L561.779 632.869L562.964 634.456L564.431 634.062L566.939 638.018L570.634 639.029L571.54 642.926L572.646 642.494L573.327 640.19L571.398 639.073L569.737 633.67L566.932 631.84L562.394 624.599L559.302 616.816L560.39 614.116L562.219 613.76L560.628 612.204L561.102 610.133L559.854 608.101L556.238 607.72L554.187 605.676L552.001 608.042L550.408 607.545L550.587 599.595L552.011 597.88L549.782 594.392L553.069 587.135L554.469 586.332L556.433 587.818L562.796 603.768L564.805 602.737L564.436 599.298L566.809 593.772L565.753 592.345L566.374 586.452L568.549 589.752L567.97 591.774L570.724 588.884L571.135 584.979L572.09 584.934L570.968 583.097L572.757 572.356L571.531 568.023L567.328 563.851L568.997 563.625L568.889 560.835L571.526 559.395L571.488 556.284L570.445 557.855L570.229 555.054L569.608 554.002L568.451 558.742L569.38 559.644L566.089 564.16L564.063 562.923L564.432 556.637L563.262 556.295L561.901 560.538L560.975 557.882L560.124 558.669L559.732 561.699L556.198 556.721L553.967 550.491L553.392 543.448L554.424 540.596L552.292 540.006L551.973 537.486L553.433 531.608L553.514 533.956L556.58 539.214L559.244 537.521L563.643 538.788L566.914 543.483L568.467 543.317L567.413 542.219L566.153 540.99L554.797 526.634L549.543 520.634L541.725 519.555L539.707 517.88L536.75 516.801L533.639 514.755L532.686 514.436L526.776 509.463L526.467 508.919L525.901 506.666L524.02 506.468L524.055 503.364L525.516 503.372L526.011 501.45L522.049 502.276L519.621 498.949L525.735 496.084L526.405 497.361L527.153 496.16L527.381 496.074L528.654 496.135L528.753 495.89L525.989 494.721L519.549 498.247L516.556 495.081L515.277 489.865L517.038 487.382L518.343 483.315L521.234 475.65L518.539 479.022L516.737 486.071L514.286 487.823L511.822 485.187L513.801 484.445L513.341 480.485L510.412 480.177L509.387 474.988L507.398 476.167L507.908 477.574L506.092 480.234L507.898 480.095L512.303 484.434L508.846 487.762L511.04 492.27L507.249 490.774L504.006 492.407L504.52 489.609L503.234 488.633L501.297 493.145L499.98 490.374L497.965 491.112L498.555 489.676L497.209 489.607L498.416 488.564L500.102 489.217L501.535 484.287L498.595 482.698L497.185 483.244L496.077 483.347L494.667 483.198L493.008 480.209L493.378 470.451L489.157 468.873L484.52 471.602L486.389 468.435L485.624 465.979L487.574 465.855L489.241 463.91L485.74 461.75L485.74 464.529L483.053 465.05L481.645 463.147L477.679 460.536L476.566 461.04L477.499 459.128L479.624 460.119L481.517 457.76L482.303 458.976L484.292 457.796L486.206 459.752L488.151 457.947L489.513 459.589L491.508 456.618L492.415 458.067L491.679 459.853L493.131 460.299L492.762 455.471L489.877 453.705L488.387 450.148L483.994 447.785L474.325 447.608L467.617 444.306L464.919 440.074L462.472 439.012L458.284 440.947L458.432 443.704L456.242 444.716L456.09 441.301L457.688 438.618L456.031 438.041L453.918 441.438L451.007 439.925L451.924 438.157L452.153 435.988L453.532 435.731L454.423 434.216L451.569 434.939L452.587 431.866L451.537 430.037L449.744 432.481L449.057 426.157L447.763 429.421L446.071 429.169L449.912 417.693L450.543 421.415L452.536 418.81L451.582 424.047L453.029 424.199L452.929 426.528L455.354 425.029L455.592 423.811L454.437 422.629L455.565 417.119L450.342 413.608L450.35 410.063L447.718 409.712L443.703 404.793L443.595 402.004L445.793 402.308L447.907 399.935L437.744 396.818L432.576 390.352L431.649 387.695L432.388 380.681L434.247 379.342L429.985 373.3L426.19 370.451L423.823 365.157L426.769 357.315L424.554 356.826L425.051 355.928L422.901 354.13L423.196 348.202L419.868 346.828L416.867 343.734L351.01 342.538L351.53 340.729L342.668 328.025L342.522 315.873L341.154 309.076L332.809 294.598L330.59 292.756L248.361 279.016L237.289 286.952L230.201 290.044L216.763 289.214L183.532 299.643L160.94 321.866L125.396 383.082L100.177 414.277L96.3729 426.452L97.2233 430.526L100.945 435.451L109.481 441.87L114.88 447.885L118.126 461.497L121.237 465.626L148.109 482.603L163.147 485.941L171.885 497.389L182.276 506.672L188.401 508.56L203.269 509.358L211.131 511.757L236.49 530.951L242.974 534.302L249.154 534.624L260.868 532.385L264.923 533.104L281.343 549.711L284.943 556.488L308.068 565.649L318.055 571.49L320.695 578.348L321.361 591.468L320.27 651.122L317.226 690.793L317.435 710.336L318.888 720.14L321.67 724.966L327.544 729.934L351.841 747.408L375.202 772.386L379.402 777.982L384.507 788.865L384.794 788.567L388.195 783.697L387.614 778.445L376.278 760.436L381.671 759.907L393.908 768.324L414.171 772.724L428.652 783.096L431.737 783.311L433.522 781.634L438.015 766.388L443.657 761.755L449.474 761.015L451.71 762.347L457.415 773.439L462.175 778.912L464.737 778.195L475.789 762.799L489.643 756.216L492.132 756.88L494.558 761.266L503.351 766.286L513.946 758.702L534.071 757.823L578.611 761.855L613.766 773.417L631.499 766.438L642.991 765.966L663.93 771.936L665.007 767.261L673.331 761.119L674.577 757.266L675.736 757.717L677.236 755.279L680.423 755.213ZM554.518 548.721L557.179 549.147L560.172 552.314L560.469 548.105L558.222 546.186L555.135 547.031L554.518 548.721Z" stroke="#62929F" stroke-width="1.85409" stroke-miterlimit="10"/>
</g>
</g>
<circle cx="596.39" cy="697.667" r="34.7421" fill="#CDDC29" fill-opacity="0.2"/>
<circle cx="596.389" cy="697.667" r="35.034" fill="#CDDC29"/>
<path d="M689.627 699.288C689.627 700.896 689.463 702.37 689.136 703.71C688.838 705.05 688.302 706.197 687.528 707.15C686.753 708.132 685.711 708.892 684.401 709.428C683.12 709.994 681.482 710.276 679.487 710.276C678.713 710.276 677.939 710.232 677.165 710.142L677.611 706.122C678.296 706.212 678.951 706.256 679.577 706.256C681.691 706.256 683.225 705.705 684.177 704.604C685.13 703.532 685.607 701.834 685.607 699.511V678.562H689.627V695.536H695.613V699.109H689.627V699.288ZM687.528 674.899C686.783 674.899 686.158 674.631 685.652 674.095C685.175 673.559 684.937 672.919 684.937 672.174C684.937 671.46 685.175 670.849 685.652 670.343C686.158 669.807 686.783 669.539 687.528 669.539C688.272 669.539 688.868 669.807 689.314 670.343C689.791 670.849 690.029 671.46 690.029 672.174C690.029 672.919 689.791 673.559 689.314 674.095C688.868 674.631 688.272 674.899 687.528 674.899ZM694.861 695.536H701.203V678.562H705.224V699.109H694.861V695.536ZM698.077 708.4C697.302 708.4 696.662 708.117 696.156 707.552C695.65 707.016 695.397 706.361 695.397 705.586C695.397 704.812 695.65 704.142 696.156 703.576C696.662 703.04 697.302 702.772 698.077 702.772C698.851 702.772 699.491 703.04 699.997 703.576C700.504 704.142 700.757 704.812 700.757 705.586C700.757 706.361 700.504 707.016 699.997 707.552C699.491 708.117 698.851 708.4 698.077 708.4ZM704.911 708.445C704.137 708.445 703.482 708.162 702.946 707.596C702.439 707.031 702.186 706.361 702.186 705.586C702.186 704.812 702.439 704.157 702.946 703.621C703.482 703.085 704.137 702.817 704.911 702.817C705.685 702.817 706.311 703.085 706.787 703.621C707.293 704.157 707.546 704.812 707.546 705.586C707.546 706.361 707.293 707.031 706.787 707.596C706.311 708.162 705.685 708.445 704.911 708.445ZM721.82 699.288C721.82 700.896 721.656 702.37 721.328 703.71C721.031 705.05 720.494 706.197 719.72 707.15C718.946 708.132 717.904 708.892 716.593 709.428C715.313 709.994 713.675 710.276 711.68 710.276C710.906 710.276 710.131 710.232 709.357 710.142L709.804 706.122C710.489 706.212 711.144 706.256 711.769 706.256C713.884 706.256 715.417 705.705 716.37 704.604C717.323 703.532 717.799 701.834 717.799 699.511V678.562H721.82V695.536H727.805V699.109H721.82V699.288ZM719.72 674.899C718.976 674.899 718.35 674.631 717.844 674.095C717.368 673.559 717.129 672.919 717.129 672.174C717.129 671.46 717.368 670.849 717.844 670.343C718.35 669.807 718.976 669.539 719.72 669.539C720.465 669.539 721.06 669.807 721.507 670.343C721.983 670.849 722.222 671.46 722.222 672.174C722.222 672.919 721.983 673.559 721.507 674.095C721.06 674.631 720.465 674.899 719.72 674.899ZM726.919 695.491H728.438C731.803 695.491 735.123 694.762 738.399 693.302C737.535 692.26 736.761 691.367 736.076 690.622C735.391 689.878 734.691 689.223 733.977 688.657C733.292 688.061 732.532 687.525 731.699 687.049C730.895 686.543 729.927 686.022 728.795 685.486L729.376 681.287C731.103 680.155 732.905 679.232 734.781 678.517C736.687 677.773 738.563 677.401 740.409 677.401C741.958 677.401 743.298 677.609 744.429 678.026C745.591 678.413 746.558 678.964 747.333 679.679C748.107 680.364 748.688 681.182 749.075 682.135C749.462 683.059 749.655 684.056 749.655 685.128C749.655 686.409 749.268 687.764 748.494 689.193C747.72 690.622 746.573 691.992 745.055 693.302C745.948 693.987 746.916 694.523 747.958 694.911C749.03 695.298 750.206 695.491 751.487 695.491H752.067V699.109H751.219C749.194 699.109 747.362 698.826 745.725 698.261C744.116 697.695 742.628 696.906 741.258 695.893C739.292 696.936 737.267 697.74 735.183 698.305C733.098 698.841 731.058 699.109 729.063 699.109H726.919V695.491ZM741.928 691.248C742.91 690.384 743.744 689.461 744.429 688.478C745.114 687.466 745.457 686.483 745.457 685.53C745.457 684.19 744.965 683.133 743.982 682.359C743 681.584 741.69 681.197 740.052 681.197C738.652 681.197 737.357 681.45 736.166 681.957C735.004 682.463 733.858 683.103 732.726 683.877C734.423 684.294 736.017 685.128 737.506 686.379C739.024 687.63 740.498 689.253 741.928 691.248ZM751.173 695.536H757.292V666.412H761.312V699.109H751.173V695.536ZM774.149 699.109H770.129V669.539C769.593 669.45 768.968 669.375 768.253 669.316C767.568 669.226 766.898 669.152 766.243 669.092V666.725C767.375 666.576 768.64 666.472 770.04 666.412C771.469 666.353 772.839 666.353 774.149 666.412V699.109ZM788.359 695.536H802.519C802.519 691.635 801.581 688.538 799.705 686.245C797.829 683.952 794.896 682.24 790.905 681.108L791.307 676.865C793.57 677.341 795.64 678.085 797.516 679.098C799.392 680.081 801 681.316 802.34 682.805C803.68 684.265 804.708 685.962 805.422 687.898C806.167 689.803 806.539 691.948 806.539 694.33V695.536H811.631V699.109H788.359V695.536ZM809.844 695.536H816.186V678.562H820.207V695.536H825.299V699.109H809.844V695.536ZM818.063 708.088C817.318 708.088 816.693 707.82 816.186 707.284C815.71 706.748 815.472 706.107 815.472 705.363C815.472 704.648 815.71 704.023 816.186 703.487C816.693 702.981 817.318 702.728 818.063 702.728C818.807 702.728 819.403 702.981 819.849 703.487C820.326 704.023 820.564 704.648 820.564 705.363C820.564 706.107 820.326 706.748 819.849 707.284C819.403 707.82 818.807 708.088 818.063 708.088ZM824.413 695.536H831.515C830.741 694.672 830.116 693.63 829.639 692.409C829.163 691.188 828.925 689.818 828.925 688.3C828.925 686.9 829.148 685.575 829.595 684.324C830.041 683.073 830.711 681.972 831.605 681.019C832.498 680.066 833.63 679.306 835 678.741C836.369 678.175 837.992 677.892 839.868 677.892C840.732 677.892 841.596 677.951 842.459 678.071C843.323 678.19 844.127 678.368 844.871 678.607L844.425 682.403C843.829 682.165 843.099 681.957 842.236 681.778C841.372 681.57 840.509 681.465 839.645 681.465C837.382 681.465 835.714 682.091 834.642 683.341C833.6 684.562 833.079 686.126 833.079 688.032C833.079 690.354 833.838 692.186 835.357 693.526C836.876 694.866 839.049 695.536 841.878 695.536H846.881V699.109H824.413V695.536ZM876.942 699.109C873.905 699.109 871.314 698.797 869.17 698.171C867.055 697.516 865.328 696.608 863.988 695.447C862.678 694.285 861.71 692.886 861.085 691.248C860.489 689.61 860.191 687.779 860.191 685.754C860.191 684.801 860.281 683.743 860.459 682.582C860.638 681.391 860.847 680.319 861.085 679.366L865.462 678.473C865.105 679.604 864.837 680.706 864.658 681.778C864.48 682.82 864.39 683.967 864.39 685.218C864.39 686.736 864.584 688.121 864.971 689.372C865.358 690.622 866.043 691.709 867.026 692.632C868.038 693.556 869.408 694.27 871.135 694.777C872.862 695.283 875.066 695.536 877.746 695.536H886.412V666.412H890.432V695.536H895.524V699.109H876.942ZM879.175 674.988C878.907 674.959 878.654 674.944 878.416 674.944C878.178 674.914 877.94 674.899 877.701 674.899C877.195 674.899 876.778 675.033 876.451 675.301C876.153 675.539 876.004 675.882 876.004 676.329C876.004 676.775 876.183 677.177 876.54 677.535C876.897 677.892 877.508 678.071 878.371 678.071H880.248V680.617H871.448V678.071C871.775 678.071 872.252 678.085 872.877 678.115C873.503 678.115 874.024 678.19 874.441 678.339C874.053 678.071 873.771 677.773 873.592 677.445C873.443 677.088 873.369 676.626 873.369 676.06C873.369 675.018 873.771 674.199 874.575 673.604C875.379 672.978 876.406 672.666 877.657 672.666C877.955 672.666 878.267 672.681 878.595 672.71C878.952 672.74 879.324 672.785 879.711 672.844L879.175 674.988ZM894.644 695.536H900.763V666.412H904.783V695.536H909.876V699.109H894.644V695.536ZM925.478 699.109C922.947 699.109 920.981 698.722 919.581 697.948C918.182 697.144 917.125 696.117 916.41 694.866C915.993 696.117 915.249 697.144 914.177 697.948C913.134 698.722 911.69 699.109 909.844 699.109H908.995V695.536H910.424C910.99 695.536 911.541 695.447 912.077 695.268C912.613 695.089 913.09 694.777 913.507 694.33C913.923 693.853 914.251 693.228 914.489 692.454C914.757 691.65 914.891 690.652 914.891 689.461C914.891 687.496 915.13 685.798 915.606 684.369C916.112 682.91 916.812 681.704 917.705 680.751C918.599 679.798 919.656 679.083 920.877 678.607C922.128 678.13 923.512 677.892 925.031 677.892C926.341 677.892 927.518 678.1 928.56 678.517C929.632 678.904 930.54 679.53 931.285 680.393C932.029 681.227 932.595 682.314 932.982 683.654C933.399 684.964 933.607 686.543 933.607 688.389V695.536H938.253V699.109H925.478ZM929.587 695.536V687.585C929.587 686.721 929.468 685.902 929.23 685.128C929.021 684.354 928.694 683.684 928.247 683.118C927.83 682.523 927.294 682.061 926.639 681.733C926.014 681.406 925.284 681.242 924.45 681.242C923.497 681.242 922.678 681.421 921.994 681.778C921.338 682.135 920.788 682.627 920.341 683.252C919.924 683.877 919.611 684.607 919.403 685.441C919.224 686.275 919.135 687.183 919.135 688.166C919.135 690.727 919.701 692.603 920.832 693.794C921.994 694.955 923.795 695.536 926.237 695.536H929.587ZM937.349 695.536H943.469V666.412H947.489V699.109H937.349V695.536ZM960.326 699.109H956.306V669.539C955.769 669.45 955.144 669.375 954.429 669.316C953.745 669.226 953.075 669.152 952.419 669.092V666.725C953.551 666.576 954.817 666.472 956.216 666.412C957.646 666.353 959.015 666.353 960.326 666.412V699.109ZM974.535 695.536C974.863 695.536 975.28 695.536 975.786 695.536C976.322 695.536 976.873 695.566 977.439 695.625C978.034 695.655 978.615 695.7 979.181 695.759C979.747 695.819 980.223 695.923 980.61 696.072C979.181 695.03 978.466 693.556 978.466 691.65C978.466 690.697 978.675 689.803 979.092 688.97C979.509 688.106 980.074 687.362 980.789 686.736C981.533 686.081 982.412 685.56 983.424 685.173C984.467 684.786 985.613 684.592 986.864 684.592C987.519 684.592 988.264 684.622 989.097 684.681C989.961 684.741 990.81 684.86 991.643 685.039L990.929 688.568C989.47 688.3 988.04 688.166 986.641 688.166C985.211 688.166 984.184 688.478 983.558 689.104C982.963 689.729 982.665 690.607 982.665 691.739C982.665 692.841 983.127 693.764 984.05 694.509C984.973 695.223 986.387 695.581 988.293 695.581H992.581V699.109H974.535V695.536ZM1003.16 695.536H1008.25V699.109H999.142V669.539C998.606 669.45 997.98 669.375 997.266 669.316C996.581 669.226 995.911 669.152 995.256 669.092V666.725C996.387 666.576 997.653 666.472 999.052 666.412C1000.48 666.353 1001.85 666.353 1003.16 666.412V695.536ZM1007.36 695.536H1013.7V678.562H1017.72V695.536H1022.82V699.109H1007.36V695.536ZM1015.54 674.899C1014.79 674.899 1014.17 674.631 1013.66 674.095C1013.18 673.559 1012.94 672.919 1012.94 672.174C1012.94 671.46 1013.18 670.849 1013.66 670.343C1014.17 669.807 1014.79 669.539 1015.54 669.539C1016.28 669.539 1016.88 669.807 1017.32 670.343C1017.8 670.849 1018.04 671.46 1018.04 672.174C1018.04 672.919 1017.8 673.559 1017.32 674.095C1016.88 674.631 1016.28 674.899 1015.54 674.899ZM1021.93 695.536H1028.27V678.562H1032.29V695.536H1037.39V699.109H1021.93V695.536ZM1025.5 708.356C1024.73 708.356 1024.09 708.073 1023.58 707.507C1023.08 706.971 1022.82 706.316 1022.82 705.542C1022.82 704.767 1023.08 704.097 1023.58 703.532C1024.09 702.996 1024.73 702.728 1025.5 702.728C1026.28 702.728 1026.92 702.996 1027.43 703.532C1027.93 704.097 1028.18 704.767 1028.18 705.542C1028.18 706.316 1027.93 706.971 1027.43 707.507C1026.92 708.073 1026.28 708.356 1025.5 708.356ZM1032.34 708.4C1031.56 708.4 1030.91 708.117 1030.37 707.552C1029.87 706.986 1029.61 706.316 1029.61 705.542C1029.61 704.767 1029.87 704.112 1030.37 703.576C1030.91 703.04 1031.56 702.772 1032.34 702.772C1033.11 702.772 1033.74 703.04 1034.21 703.576C1034.72 704.112 1034.97 704.767 1034.97 705.542C1034.97 706.316 1034.72 706.986 1034.21 707.552C1033.74 708.117 1033.11 708.4 1032.34 708.4ZM1036.5 695.536H1037.93C1038.5 695.536 1039.05 695.447 1039.58 695.268C1040.12 695.089 1040.6 694.777 1041.01 694.33C1041.43 693.853 1041.76 693.228 1041.99 692.454C1042.26 691.65 1042.4 690.652 1042.4 689.461C1042.4 687.496 1042.64 685.798 1043.11 684.369C1043.62 682.91 1044.32 681.704 1045.21 680.751C1046.1 679.798 1047.16 679.083 1048.38 678.607C1049.63 678.13 1051.02 677.892 1052.54 677.892C1053.85 677.892 1055.02 678.1 1056.07 678.517C1057.14 678.904 1058.05 679.53 1058.79 680.393C1059.53 681.227 1060.1 682.314 1060.49 683.654C1060.9 684.964 1061.11 686.543 1061.11 688.389V699.109H1052.98C1050.45 699.109 1048.49 698.722 1047.09 697.948C1045.69 697.144 1044.63 696.117 1043.92 694.866C1043.5 696.117 1042.75 697.144 1041.68 697.948C1040.64 698.722 1039.2 699.109 1037.35 699.109H1036.5V695.536ZM1057.09 695.536V687.585C1057.09 686.721 1056.97 685.902 1056.74 685.128C1056.53 684.354 1056.2 683.684 1055.75 683.118C1055.34 682.523 1054.8 682.061 1054.14 681.733C1053.52 681.406 1052.79 681.242 1051.96 681.242C1051 681.242 1050.18 681.421 1049.5 681.778C1048.84 682.135 1048.29 682.627 1047.85 683.252C1047.43 683.877 1047.12 684.607 1046.91 685.441C1046.73 686.275 1046.64 687.183 1046.64 688.166C1046.64 690.727 1047.21 692.603 1048.34 693.794C1049.5 694.955 1051.3 695.536 1053.74 695.536H1057.09Z" fill="white"/>
</svg>
