<svg width="986" height="1042" viewBox="0 0 986 1042" fill="none" xmlns="http://www.w3.org/2000/svg">
<path d="M2286.52 1192.52L2019.17 1173.39L1752.41 868.582L1726.91 742.468L1662.95 705.618L1569.12 558.184L1369.1 501.803L1197.56 488.459L783.373 171.093L667.826 144.794L451.265 202.372L543.108 321.112L339.102 455.782L219.365 480.892L248.856 578.114L442.901 991.305L567.611 1124.39L609.25 1224.79L603.671 1363.85L751.894 1520.04L1000.93 1917.7L1049.14 1805.34L1490.42 1848.37L1567.72 1728.44L1670.53 1674.24L1975.34 1621.26L2292.1 1491.96L2347.89 1261.65L2286.52 1192.52Z" fill="#EEEEEE" fill-opacity="0.09"/>
<g opacity="0.5">
<g opacity="0.33">
<mask id="mask0_344_4378" style="mask-type:luminance" maskUnits="userSpaceOnUse" x="465" y="987" width="686" height="760">
<path d="M1150.62 1047.08L532.206 987.666L465.042 1686.73L1083.46 1746.15L1150.62 1047.08Z" fill="white"/>
</mask>
<g mask="url(#mask0_344_4378)">
<path d="M898.223 1072L896.646 1082.58L897.451 1091.7L909.272 1101.61L912.19 1115.82L917.983 1129.71L920.204 1146.18L934.356 1179.33L943.009 1184.29L984.01 1187.18L992.959 1189.89L998.184 1195.51L995.489 1203.98L994.24 1219.48L997.749 1226.3L1008.42 1230.29L1024.96 1226.43L1043.62 1231.03L1044.42 1235.63L1041.14 1253.53L1045.35 1291.81L1043.18 1298.57L1036.15 1308.38L1037.24 1328.63L1031.48 1353.18L1033.07 1357.5L1046.47 1376.36L1058.56 1397.22L1046.77 1401.21L1029.86 1411.76L1014.76 1407.59L1008.18 1408.16L998.852 1412.35L985.593 1412.83L972.909 1423.59L954.001 1432.02L923.864 1458.15L917.074 1461.3L910.432 1460.42L906.443 1457.36L893.518 1430.61L887.907 1424.83L883.614 1424.1L867.625 1431.73L855.539 1430.85L841.986 1435.63L836.524 1431.22L833.102 1420.16L829.671 1415.87L825.567 1413.99L818.967 1414.76L814.898 1418.78L812.709 1424.89L815.596 1438.18L815.056 1445.06L806.894 1458.32L802.627 1468.57L779.982 1473.4L768.015 1485.02L768.416 1489.18L770.295 1491.28L780.854 1494.74L783.54 1499.28L782.228 1514.61L784.576 1526.01L783.457 1538.91L787.139 1543.51L797.729 1549.97L803.506 1559.02L808.047 1562.18L815.595 1562.38L822.127 1559.4L830.307 1533.44L837.621 1520.65L842.1 1519.04L855.529 1519.29L857.868 1517.88L862.309 1515.82L868.982 1516.38L874.207 1522.01L874.7 1526.46L870.372 1546.5L876.403 1559.57L872.362 1572.88L870.05 1576.94L865.569 1578.99L851.789 1577.39L845.257 1578.28L833.767 1586.19L831.595 1586.3L826.005 1580.72L823.814 1609.77L825.383 1618.45L828.243 1622.85L832.381 1624.37L851.893 1625.49L857.947 1629.15L865.939 1655.98L861.074 1674.53L857.975 1680.12L847.499 1685.8L841.546 1694.84L840.51 1689.37L839.764 1688.38L837.073 1684.72L837.21 1683.29L836.292 1681.6L835.236 1680.5L833.706 1682.67L832.687 1681.62L833.808 1678.28L832.477 1677.55L831.141 1675.62L831.662 1673.11L829.59 1670.51L828.163 1664.53L828.388 1662.18L827.983 1658.06L825.65 1655.68L826.188 1652.16L822.17 1648.97L820.414 1645.16L813.849 1644.73L810.845 1642.24L810.418 1637.52L805.511 1631.08L809.514 1616.93L804.991 1615.65L801.733 1612.9L798.461 1604.86L802.453 1596.23L802.006 1591.3L793.222 1587.3L790.202 1579.56L791.422 1575.19L790.228 1570.95L787.873 1569.21L786.335 1565.21L781.808 1562.74L782.728 1561.5L781.495 1555.58L783.145 1547.57L779.676 1543.67L773.122 1541.88L765.165 1535.51L764.412 1532.52L767.389 1535.29L768.535 1529.19L765.497 1519.97L761.441 1515.1L755.411 1516.6L752.504 1515.6L752.966 1517.89L756.176 1519.48L755.299 1520.27L751.418 1517.74L750.279 1513.34L746.205 1511.15L745.485 1505.32L741.734 1503.51L743.044 1499.88L741.917 1496.61L725.636 1484.79L717.034 1481.8L713.569 1475.78L711.664 1475.6L712.174 1471.97L705.523 1472.01L701.393 1467.49L700.008 1463.15L695.262 1461.29L689.756 1461.93L689.892 1463.42L687.701 1463.73L681.706 1459.03L678.377 1459.51L682.756 1461.85L683.51 1464.01L675.837 1460.11L661.146 1448.41L656.178 1442.6L657.925 1441.09L654.859 1438.83L655.477 1435.73L652.673 1436.58L650.666 1434.55L647.839 1430.63L648.541 1429.58L651.388 1431.61L650.316 1428.19L647.414 1428.39L643.255 1422.5L638.707 1413.58L640.281 1411.37L639.848 1409.2L635.705 1406.48L635.209 1408.32L636.893 1411.2L635.237 1410.52L633.087 1404.15L635.642 1405.48L636.655 1404.93L635.139 1403.63L636.009 1402.91L634.084 1402.52L632.472 1403.05L626.642 1397.89L627.487 1394.08L625.107 1391.77L621.37 1391.49L617.918 1385.76L618.451 1382.28L614.796 1375.33L610.041 1372.31L607.788 1359.92L605.428 1357.81L601.933 1350.43L602.309 1348.18L604.855 1347.11L608.66 1344.59L610.86 1339.19L607.39 1336.14L607.817 1333.78L607.107 1331.59L609.731 1331.36L607.15 1327.39L607.899 1326.26L606.182 1326.21L605.463 1327.02L603.254 1325.01L600.996 1307.26L597.074 1298.07L587.951 1285.5L586.994 1280.05L588.163 1278.72L586.766 1274.5L588.542 1272.27L592.537 1271.53L589.417 1276.92L590.876 1278.82L592.278 1276.31L594.588 1276.85L595.354 1268.88L598.921 1269.26L598.281 1266.76L600.056 1260.36L599.132 1258.31L597.296 1266.58L595.612 1265.78L598.072 1260.17L597.247 1255.85L604.128 1243.82L604.204 1238.86L605.525 1236.78L607.97 1236.34L608.993 1232.35L605.602 1232.23L605.105 1234.9L604.159 1234.33L602.122 1232.61L603.676 1226.44L603.643 1215.94L598.412 1206.63L597.424 1201.49L594.108 1197.25L596.755 1194.7L594.058 1194.44L592.776 1195.28L580.868 1174.2L584.606 1175.72L588.415 1182.33L587.845 1183.68L591.302 1184.37L592.821 1182.31L588.377 1175.64L588.352 1171.31L581.681 1171.15L582.667 1169.64L580.082 1169.88L579.305 1170.88L575.282 1164.41L577.58 1159.67L575.764 1148.56L575.097 1146.34L573.07 1148.26L568.362 1141L568.216 1137.11L567.287 1135.94L566.651 1135.47L563.96 1128.89L563.967 1121.32L578.895 1120.56L587.939 1118.1L590.279 1119.17L596.235 1129.27L603.149 1134.82L612.794 1146.95L617.583 1150.86L622.072 1151.65L636.361 1148.78L640.93 1149.98L641.89 1161.24L643.884 1162.99L674.506 1154.33L688.372 1153.78L691.378 1157.91L691.95 1167.37L683.704 1187.36L683.824 1189.85L685.495 1192.06L696.986 1195.8L702.925 1201.5L704.038 1208.25L701.321 1219.44L703.077 1224.09L716.897 1226.1L723.758 1223.04L737.561 1211.47L757.151 1218.44L761.871 1218.49L775.391 1199.45L803.137 1179.46L818.442 1164.35L825.724 1159.4L842.383 1153.12L844.072 1150.96L843.031 1146.37L827.677 1137.41L825.504 1135.44L825.043 1131.07L835.707 1123.01L870.325 1106.91L873.548 1102.54L875.724 1096.14L875.505 1086.75L872.454 1079.33L874.3 1072.62L883.815 1069.85L898.41 1072.14L898.223 1072Z" fill="#DEDCD9"/>
<mask id="mask1_344_4378" style="mask-type:luminance" maskUnits="userSpaceOnUse" x="563" y="1069" width="496" height="626">
<path d="M874.114 1072.49L872.268 1079.2L875.319 1086.62L875.538 1096.01L873.365 1102.36L870.142 1106.74L835.485 1122.83L824.82 1130.89L825.281 1135.26L827.454 1137.23L842.809 1146.19L843.85 1150.78L842.161 1152.94L825.501 1159.22L818.22 1164.17L802.915 1179.28L775.209 1199.27L761.688 1218.32L756.969 1218.26L737.375 1211.34L723.571 1222.9L716.71 1225.97L702.89 1223.96L701.135 1219.3L703.852 1208.11L702.699 1201.36L696.764 1195.62L685.272 1191.88L683.602 1189.67L683.481 1187.18L691.724 1167.23L691.152 1157.77L688.146 1153.63L674.28 1154.18L643.658 1162.85L641.664 1161.1L640.704 1149.84L636.135 1148.64L621.846 1151.51L617.357 1150.72L612.568 1146.81L602.923 1134.68L596.009 1129.13L590.053 1119.03L587.673 1117.96L578.629 1120.41L563.701 1121.18L563.695 1128.75L566.385 1135.33L567.061 1135.8L567.99 1136.97L568.136 1140.86L572.844 1148.12L574.871 1146.19L575.538 1148.42L577.393 1159.53L575.096 1164.27L579.118 1170.75L579.896 1169.74L582.48 1169.51L581.495 1171.01L588.166 1171.17L588.19 1175.5L592.634 1182.17L591.076 1184.23L587.619 1183.53L588.189 1182.19L584.38 1175.58L580.642 1174.06L592.51 1195.13L593.796 1194.26L596.493 1194.52L593.843 1197.1L597.158 1201.35L598.146 1206.49L603.377 1215.8L603.41 1226.29L601.856 1232.47L603.893 1234.19L604.839 1234.76L605.336 1232.08L608.728 1232.21L607.704 1236.19L605.259 1236.64L603.938 1238.71L603.863 1243.67L596.981 1255.7L597.811 1259.99L595.35 1265.6L596.995 1266.39L598.831 1258.12L599.755 1260.17L597.939 1266.56L598.58 1269.07L595.049 1268.73L594.283 1276.7L591.973 1276.16L590.57 1278.67L589.112 1276.77L592.231 1271.38L588.237 1272.12L586.461 1274.35L587.818 1278.56L586.649 1279.89L587.606 1285.35L596.729 1297.92L600.651 1307.1L602.909 1324.86L605.118 1326.87L605.836 1326.06L607.554 1326.11L606.805 1327.23L609.386 1331.21L606.761 1331.43L607.472 1333.62L607.045 1335.99L610.515 1339.04L608.355 1344.44L604.51 1346.95L601.964 1348.03L601.588 1350.28L605.083 1357.66L607.443 1359.77L609.696 1372.16L614.451 1375.17L618.106 1382.13L617.533 1385.6L620.986 1391.34L624.722 1391.62L627.103 1393.93L626.257 1397.73L632.087 1402.89L633.699 1402.37L635.624 1402.75L634.754 1403.47L636.27 1404.78L635.257 1405.32L632.702 1403.99L634.852 1410.37L636.509 1411.05L634.824 1408.16L635.32 1406.33L639.463 1409.05L639.896 1411.21L638.322 1413.42L642.87 1422.35L647.029 1428.23L649.931 1428.03L651.004 1431.46L648.156 1429.42L647.454 1430.48L650.281 1434.39L652.248 1436.42L655.053 1435.57L654.434 1438.67L657.501 1440.93L655.754 1442.44L660.722 1448.25L675.413 1459.95L683.086 1463.85L682.335 1461.65L677.956 1459.31L681.289 1458.79L687.284 1463.49L689.476 1463.18L689.339 1461.69L694.845 1461.05L699.591 1462.91L700.976 1467.25L705.106 1471.77L711.757 1471.73L711.248 1475.36L713.152 1475.54L716.618 1481.56L725.219 1484.55L741.501 1496.37L742.628 1499.64L741.317 1503.27L745.068 1505.08L745.789 1510.91L749.862 1513.1L751.002 1517.5L754.882 1520.03L755.759 1519.24L752.549 1517.65L752.088 1515.36L754.995 1516.36L761.024 1514.86L765.081 1519.73L768.119 1528.95L766.972 1535.05L764.035 1532.28L764.788 1535.28L772.744 1541.65L779.299 1543.44L782.768 1547.34L781.118 1555.35L782.35 1561.27L781.431 1562.5L785.958 1564.98L787.496 1568.97L789.851 1570.72L791.045 1574.96L789.825 1579.32L792.845 1587.06L801.629 1591.07L802.076 1596L798.084 1604.62L801.356 1612.66L804.654 1615.42L809.176 1616.7L805.174 1630.85L810.081 1637.28L810.508 1642.01L813.551 1644.5L820.116 1644.93L821.872 1648.75L825.89 1651.94L825.352 1655.45L827.685 1657.83L828.09 1661.96L827.865 1664.3L829.292 1670.28L831.365 1672.88L830.843 1675.39L832.179 1677.32L833.51 1678.05L832.389 1681.39L833.409 1682.45L834.939 1680.27L835.994 1681.37L836.873 1683.06L836.736 1684.49L839.427 1688.15L840.212 1689.15L841.249 1694.61L847.202 1685.57L857.677 1679.89L860.776 1674.31L865.641 1655.75L857.649 1628.92L851.599 1625.22L832.087 1624.1L827.949 1622.58L825.089 1618.19L823.52 1609.51L825.711 1580.45L831.301 1586.03L833.474 1585.92L844.963 1578.02L851.495 1577.12L865.275 1578.73L869.756 1576.67L872.068 1572.61L876.109 1559.31L870.078 1546.23L874.406 1526.19L873.913 1521.74L868.648 1516.11L861.976 1515.55L857.534 1517.6L855.2 1518.98L841.77 1518.73L837.292 1520.34L829.977 1533.13L821.797 1559.09L815.265 1562.07L807.718 1561.86L803.176 1558.71L797.399 1549.66L786.809 1543.2L783.123 1538.64L784.243 1525.74L781.894 1514.34L783.207 1499.01L780.481 1494.47L769.922 1491.01L768.042 1488.91L767.641 1484.74L779.608 1473.12L802.254 1468.29L806.525 1458.01L814.686 1444.74L815.227 1437.87L812.339 1424.58L814.529 1418.46L818.598 1414.45L825.198 1413.68L829.302 1415.56L832.733 1419.85L836.155 1430.91L841.617 1435.32L855.169 1430.53L867.256 1431.41L883.244 1423.78L887.538 1424.51L893.148 1430.3L906.073 1457.04L910.063 1460.11L916.705 1460.99L923.494 1457.84L953.631 1431.7L972.539 1423.27L985.223 1412.52L998.483 1412.03L1007.77 1407.84L1014.39 1407.27L1029.49 1411.45L1046.4 1400.9L1058.23 1396.91L1046.14 1376.05L1032.74 1357.19L1031.15 1352.87L1036.92 1328.32L1035.86 1308.08L1042.89 1298.26L1045.06 1291.5L1040.85 1253.22L1044.09 1235.32L1043.29 1230.72L1024.63 1226.12L1008.09 1229.98L997.419 1225.99L993.95 1219.17L995.198 1203.67L997.894 1195.21L992.669 1189.58L983.72 1186.88L942.718 1183.98L934.07 1178.98L919.918 1145.83L917.696 1129.36L911.904 1115.47L908.985 1101.26L897.165 1091.36L896.36 1082.23L897.937 1071.65L883.342 1069.37L873.831 1072.1L874.114 1072.49Z" fill="white"/>
</mask>
<g mask="url(#mask1_344_4378)">
</g>
<mask id="mask2_344_4378" style="mask-type:luminance" maskUnits="userSpaceOnUse" x="563" y="1069" width="496" height="626">
<path d="M874.114 1072.49L872.268 1079.2L875.319 1086.62L875.538 1096.01L873.365 1102.36L870.142 1106.74L835.485 1122.83L824.82 1130.89L825.281 1135.26L827.454 1137.23L842.809 1146.19L843.85 1150.78L842.161 1152.94L825.501 1159.22L818.22 1164.17L802.915 1179.28L775.209 1199.27L761.688 1218.32L756.969 1218.26L737.375 1211.34L723.571 1222.9L716.71 1225.97L702.89 1223.96L701.135 1219.3L703.852 1208.11L702.699 1201.36L696.764 1195.62L685.272 1191.88L683.602 1189.67L683.481 1187.18L691.724 1167.23L691.152 1157.77L688.146 1153.63L674.28 1154.18L643.658 1162.85L641.664 1161.1L640.704 1149.84L636.135 1148.64L621.846 1151.51L617.357 1150.72L612.568 1146.81L602.923 1134.68L596.009 1129.13L590.053 1119.03L587.673 1117.96L578.629 1120.41L563.701 1121.18L563.695 1128.75L566.385 1135.33L567.061 1135.8L567.99 1136.97L568.136 1140.86L572.844 1148.12L574.871 1146.19L575.538 1148.42L577.393 1159.53L575.096 1164.27L579.118 1170.75L579.896 1169.74L582.48 1169.51L581.495 1171.01L588.166 1171.17L588.19 1175.5L592.634 1182.17L591.076 1184.23L587.619 1183.53L588.189 1182.19L584.38 1175.58L580.642 1174.06L592.51 1195.13L593.796 1194.26L596.493 1194.52L593.843 1197.1L597.158 1201.35L598.146 1206.49L603.377 1215.8L603.41 1226.29L601.856 1232.47L603.893 1234.19L604.839 1234.76L605.336 1232.08L608.728 1232.21L607.704 1236.19L605.259 1236.64L603.938 1238.71L603.863 1243.67L596.981 1255.7L597.811 1259.99L595.35 1265.6L596.995 1266.39L598.831 1258.12L599.755 1260.17L597.939 1266.56L598.58 1269.07L595.049 1268.73L594.283 1276.7L591.973 1276.16L590.57 1278.67L589.112 1276.77L592.231 1271.38L588.237 1272.12L586.461 1274.35L587.818 1278.56L586.649 1279.89L587.606 1285.35L596.729 1297.92L600.651 1307.1L602.909 1324.86L605.118 1326.87L605.836 1326.06L607.554 1326.11L606.805 1327.23L609.386 1331.21L606.761 1331.43L607.472 1333.62L607.045 1335.99L610.515 1339.04L608.355 1344.44L604.51 1346.95L601.964 1348.03L601.588 1350.28L605.083 1357.66L607.443 1359.77L609.696 1372.16L614.451 1375.17L618.106 1382.13L617.533 1385.6L620.986 1391.34L624.722 1391.62L627.103 1393.93L626.257 1397.73L632.087 1402.89L633.699 1402.37L635.624 1402.75L634.754 1403.47L636.27 1404.78L635.257 1405.32L632.702 1403.99L634.852 1410.37L636.509 1411.05L634.824 1408.16L635.32 1406.33L639.463 1409.05L639.896 1411.21L638.322 1413.42L642.87 1422.35L647.029 1428.23L649.931 1428.03L651.004 1431.46L648.156 1429.42L647.454 1430.48L650.281 1434.39L652.248 1436.42L655.053 1435.57L654.434 1438.67L657.501 1440.93L655.754 1442.44L660.722 1448.25L675.413 1459.95L683.086 1463.85L682.335 1461.65L677.956 1459.31L681.289 1458.79L687.284 1463.49L689.476 1463.18L689.339 1461.69L694.845 1461.05L699.591 1462.91L700.976 1467.25L705.106 1471.77L711.757 1471.73L711.248 1475.36L713.152 1475.54L716.618 1481.56L725.219 1484.55L741.501 1496.37L742.628 1499.64L741.317 1503.27L745.068 1505.08L745.789 1510.91L749.862 1513.1L751.002 1517.5L754.882 1520.03L755.759 1519.24L752.549 1517.65L752.088 1515.36L754.995 1516.36L761.024 1514.86L765.081 1519.73L768.119 1528.95L766.972 1535.05L764.035 1532.28L764.788 1535.28L772.744 1541.65L779.299 1543.44L782.768 1547.34L781.118 1555.35L782.35 1561.27L781.431 1562.5L785.958 1564.98L787.496 1568.97L789.851 1570.72L791.045 1574.96L789.825 1579.32L792.845 1587.06L801.629 1591.07L802.076 1596L798.084 1604.62L801.356 1612.66L804.654 1615.42L809.176 1616.7L805.174 1630.85L810.081 1637.28L810.508 1642.01L813.551 1644.5L820.116 1644.93L821.872 1648.75L825.89 1651.94L825.352 1655.45L827.685 1657.83L828.09 1661.96L827.865 1664.3L829.292 1670.28L831.365 1672.88L830.843 1675.39L832.179 1677.32L833.51 1678.05L832.389 1681.39L833.409 1682.45L834.939 1680.27L835.994 1681.37L836.873 1683.06L836.736 1684.49L839.427 1688.15L840.212 1689.15L841.249 1694.61L847.202 1685.57L857.677 1679.89L860.776 1674.31L865.641 1655.75L857.649 1628.92L851.599 1625.22L832.087 1624.1L827.949 1622.58L825.089 1618.19L823.52 1609.51L825.711 1580.45L831.301 1586.03L833.474 1585.92L844.963 1578.02L851.495 1577.12L865.275 1578.73L869.756 1576.67L872.068 1572.61L876.109 1559.31L870.078 1546.23L874.406 1526.19L873.913 1521.74L868.648 1516.11L861.976 1515.55L857.534 1517.6L855.2 1518.98L841.77 1518.73L837.292 1520.34L829.977 1533.13L821.797 1559.09L815.265 1562.07L807.718 1561.86L803.176 1558.71L797.399 1549.66L786.809 1543.2L783.123 1538.64L784.243 1525.74L781.894 1514.34L783.207 1499.01L780.481 1494.47L769.922 1491.01L768.042 1488.91L767.641 1484.74L779.608 1473.12L802.254 1468.29L806.525 1458.01L814.686 1444.74L815.227 1437.87L812.339 1424.58L814.529 1418.46L818.598 1414.45L825.198 1413.68L829.302 1415.56L832.733 1419.85L836.155 1430.91L841.617 1435.32L855.169 1430.53L867.256 1431.41L883.244 1423.78L887.538 1424.51L893.148 1430.3L906.073 1457.04L910.063 1460.11L916.705 1460.99L923.494 1457.84L953.631 1431.7L972.539 1423.27L985.223 1412.52L998.483 1412.03L1007.77 1407.84L1014.39 1407.27L1029.49 1411.45L1046.4 1400.9L1058.23 1396.91L1046.14 1376.05L1032.74 1357.19L1031.15 1352.87L1036.92 1328.32L1035.86 1308.08L1042.89 1298.26L1045.06 1291.5L1040.85 1253.22L1044.09 1235.32L1043.29 1230.72L1024.63 1226.12L1008.09 1229.98L997.419 1225.99L993.95 1219.17L995.198 1203.67L997.894 1195.21L992.669 1189.58L983.72 1186.88L942.718 1183.98L934.07 1178.98L919.918 1145.83L917.696 1129.36L911.904 1115.47L908.985 1101.26L897.165 1091.36L896.36 1082.23L897.937 1071.65L883.342 1069.37L873.831 1072.1L874.114 1072.49Z" fill="white"/>
</mask>
<g mask="url(#mask2_344_4378)">
</g>
<mask id="mask3_344_4378" style="mask-type:luminance" maskUnits="userSpaceOnUse" x="563" y="1069" width="496" height="626">
<path d="M874.114 1072.49L872.268 1079.2L875.319 1086.62L875.538 1096.01L873.365 1102.36L870.142 1106.74L835.485 1122.83L824.82 1130.89L825.281 1135.26L827.454 1137.23L842.809 1146.19L843.85 1150.78L842.161 1152.94L825.501 1159.22L818.22 1164.17L802.915 1179.28L775.209 1199.27L761.688 1218.32L756.969 1218.26L737.375 1211.34L723.571 1222.9L716.71 1225.97L702.89 1223.96L701.135 1219.3L703.852 1208.11L702.699 1201.36L696.764 1195.62L685.272 1191.88L683.602 1189.67L683.481 1187.18L691.724 1167.23L691.152 1157.77L688.146 1153.63L674.28 1154.18L643.658 1162.85L641.664 1161.1L640.704 1149.84L636.135 1148.64L621.846 1151.51L617.357 1150.72L612.568 1146.81L602.923 1134.68L596.009 1129.13L590.053 1119.03L587.673 1117.96L578.629 1120.41L563.701 1121.18L563.695 1128.75L566.385 1135.33L567.061 1135.8L567.99 1136.97L568.136 1140.86L572.844 1148.12L574.871 1146.19L575.538 1148.42L577.393 1159.53L575.096 1164.27L579.118 1170.75L579.896 1169.74L582.48 1169.51L581.495 1171.01L588.166 1171.17L588.19 1175.5L592.634 1182.17L591.076 1184.23L587.619 1183.53L588.189 1182.19L584.38 1175.58L580.642 1174.06L592.51 1195.13L593.796 1194.26L596.493 1194.52L593.843 1197.1L597.158 1201.35L598.146 1206.49L603.377 1215.8L603.41 1226.29L601.856 1232.47L603.893 1234.19L604.839 1234.76L605.336 1232.08L608.728 1232.21L607.704 1236.19L605.259 1236.64L603.938 1238.71L603.863 1243.67L596.981 1255.7L597.811 1259.99L595.35 1265.6L596.995 1266.39L598.831 1258.12L599.755 1260.17L597.939 1266.56L598.58 1269.07L595.049 1268.73L594.283 1276.7L591.973 1276.16L590.57 1278.67L589.112 1276.77L592.231 1271.38L588.237 1272.12L586.461 1274.35L587.818 1278.56L586.649 1279.89L587.606 1285.35L596.729 1297.92L600.651 1307.1L602.909 1324.86L605.118 1326.87L605.836 1326.06L607.554 1326.11L606.805 1327.23L609.386 1331.21L606.761 1331.43L607.472 1333.62L607.045 1335.99L610.515 1339.04L608.355 1344.44L604.51 1346.95L601.964 1348.03L601.588 1350.28L605.083 1357.66L607.443 1359.77L609.696 1372.16L614.451 1375.17L618.106 1382.13L617.533 1385.6L620.986 1391.34L624.722 1391.62L627.103 1393.93L626.257 1397.73L632.087 1402.89L633.699 1402.37L635.624 1402.75L634.754 1403.47L636.27 1404.78L635.257 1405.32L632.702 1403.99L634.852 1410.37L636.509 1411.05L634.824 1408.16L635.32 1406.33L639.463 1409.05L639.896 1411.21L638.322 1413.42L642.87 1422.35L647.029 1428.23L649.931 1428.03L651.004 1431.46L648.156 1429.42L647.454 1430.48L650.281 1434.39L652.248 1436.42L655.053 1435.57L654.434 1438.67L657.501 1440.93L655.754 1442.44L660.722 1448.25L675.413 1459.95L683.086 1463.85L682.335 1461.65L677.956 1459.31L681.289 1458.79L687.284 1463.49L689.476 1463.18L689.339 1461.69L694.845 1461.05L699.591 1462.91L700.976 1467.25L705.106 1471.77L711.757 1471.73L711.248 1475.36L713.152 1475.54L716.618 1481.56L725.219 1484.55L741.501 1496.37L742.628 1499.64L741.317 1503.27L745.068 1505.08L745.789 1510.91L749.862 1513.1L751.002 1517.5L754.882 1520.03L755.759 1519.24L752.549 1517.65L752.088 1515.36L754.995 1516.36L761.024 1514.86L765.081 1519.73L768.119 1528.95L766.972 1535.05L764.035 1532.28L764.788 1535.28L772.744 1541.65L779.299 1543.44L782.768 1547.34L781.118 1555.35L782.35 1561.27L781.431 1562.5L785.958 1564.98L787.496 1568.97L789.851 1570.72L791.045 1574.96L789.825 1579.32L792.845 1587.06L801.629 1591.07L802.076 1596L798.084 1604.62L801.356 1612.66L804.654 1615.42L809.176 1616.7L805.174 1630.85L810.081 1637.28L810.508 1642.01L813.551 1644.5L820.116 1644.93L821.872 1648.75L825.89 1651.94L825.352 1655.45L827.685 1657.83L828.09 1661.96L827.865 1664.3L829.292 1670.28L831.365 1672.88L830.843 1675.39L832.179 1677.32L833.51 1678.05L832.389 1681.39L833.409 1682.45L834.939 1680.27L835.994 1681.37L836.873 1683.06L836.736 1684.49L839.427 1688.15L840.212 1689.15L841.249 1694.61L847.202 1685.57L857.677 1679.89L860.776 1674.31L865.641 1655.75L857.649 1628.92L851.599 1625.22L832.087 1624.1L827.949 1622.58L825.089 1618.19L823.52 1609.51L825.711 1580.45L831.301 1586.03L833.474 1585.92L844.963 1578.02L851.495 1577.12L865.275 1578.73L869.756 1576.67L872.068 1572.61L876.109 1559.31L870.078 1546.23L874.406 1526.19L873.913 1521.74L868.648 1516.11L861.976 1515.55L857.534 1517.6L855.2 1518.98L841.77 1518.73L837.292 1520.34L829.977 1533.13L821.797 1559.09L815.265 1562.07L807.718 1561.86L803.176 1558.71L797.399 1549.66L786.809 1543.2L783.123 1538.64L784.243 1525.74L781.894 1514.34L783.207 1499.01L780.481 1494.47L769.922 1491.01L768.042 1488.91L767.641 1484.74L779.608 1473.12L802.254 1468.29L806.525 1458.01L814.686 1444.74L815.227 1437.87L812.339 1424.58L814.529 1418.46L818.598 1414.45L825.198 1413.68L829.302 1415.56L832.733 1419.85L836.155 1430.91L841.617 1435.32L855.169 1430.53L867.256 1431.41L883.244 1423.78L887.538 1424.51L893.148 1430.3L906.073 1457.04L910.063 1460.11L916.705 1460.99L923.494 1457.84L953.631 1431.7L972.539 1423.27L985.223 1412.52L998.483 1412.03L1007.77 1407.84L1014.39 1407.27L1029.49 1411.45L1046.4 1400.9L1058.23 1396.91L1046.14 1376.05L1032.74 1357.19L1031.15 1352.87L1036.92 1328.32L1035.86 1308.08L1042.89 1298.26L1045.06 1291.5L1040.85 1253.22L1044.09 1235.32L1043.29 1230.72L1024.63 1226.12L1008.09 1229.98L997.419 1225.99L993.95 1219.17L995.198 1203.67L997.894 1195.21L992.669 1189.58L983.72 1186.88L942.718 1183.98L934.07 1178.98L919.918 1145.83L917.696 1129.36L911.904 1115.47L908.985 1101.26L897.165 1091.36L896.36 1082.23L897.937 1071.65L883.342 1069.37L873.831 1072.1L874.114 1072.49Z" fill="white"/>
</mask>
<g mask="url(#mask3_344_4378)">
</g>
<path d="M562.764 1120.93L563.128 1120.88M898.223 1072L896.646 1082.58L897.451 1091.7L909.272 1101.61L912.19 1115.82L917.983 1129.71L920.204 1146.18L934.356 1179.33L943.009 1184.29L984.01 1187.18L992.959 1189.89L998.184 1195.51L995.489 1203.98L994.24 1219.48L997.749 1226.3L1008.42 1230.29L1024.96 1226.43L1043.62 1231.03L1044.42 1235.63L1041.14 1253.53L1045.35 1291.81L1043.18 1298.57L1036.15 1308.38L1037.24 1328.63L1031.48 1353.18L1033.07 1357.5L1046.47 1376.36L1058.56 1397.22L1046.77 1401.21L1029.86 1411.76L1014.76 1407.59L1008.18 1408.16L998.852 1412.35L985.593 1412.83L972.909 1423.59L954.001 1432.02L923.864 1458.15L917.074 1461.3L910.432 1460.42L906.443 1457.36L893.518 1430.61L887.907 1424.83L883.614 1424.1L867.625 1431.73L855.539 1430.85L841.986 1435.63L836.524 1431.22L833.102 1420.16L829.671 1415.87L825.567 1413.99L818.967 1414.76L814.898 1418.78L812.709 1424.89L815.596 1438.18L815.056 1445.06L806.894 1458.32L802.627 1468.57L779.982 1473.4L768.015 1485.02L768.416 1489.18L770.295 1491.28L780.854 1494.74L783.54 1499.28L782.228 1514.61L784.576 1526.01L783.457 1538.91L787.139 1543.51L797.729 1549.97L803.506 1559.02L808.047 1562.18L815.595 1562.38L822.127 1559.4L830.306 1533.44L837.621 1520.65L842.1 1519.04L855.529 1519.29L857.868 1517.88L862.309 1515.82L868.982 1516.38L874.207 1522.01L874.7 1526.46L870.372 1546.5L876.403 1559.57L872.362 1572.88L870.05 1576.94L865.569 1578.99L851.789 1577.39L845.257 1578.28L833.767 1586.19L831.595 1586.3L826.005 1580.72L823.814 1609.77L825.383 1618.45L828.243 1622.85L832.381 1624.37L851.893 1625.49L857.947 1629.15L865.939 1655.98L861.074 1674.53L857.975 1680.12L847.499 1685.8L841.546 1694.84L840.51 1689.37L839.764 1688.38L837.073 1684.72L837.21 1683.29L836.292 1681.6L835.236 1680.5L833.706 1682.67L832.687 1681.62L833.808 1678.28L832.477 1677.55L831.141 1675.62L831.662 1673.11L829.59 1670.51L828.163 1664.53L828.388 1662.18L827.983 1658.06L825.65 1655.68L826.188 1652.16L822.17 1648.97L820.414 1645.16L813.849 1644.73L810.845 1642.24L810.418 1637.52L805.511 1631.08L809.514 1616.93L804.991 1615.65L801.733 1612.9L798.461 1604.86L802.453 1596.23L802.006 1591.3L793.222 1587.3L790.202 1579.56L791.422 1575.19L790.228 1570.95L787.873 1569.21L786.335 1565.21L781.808 1562.74L782.728 1561.5L781.495 1555.58L783.145 1547.57L779.676 1543.67L773.122 1541.88L765.165 1535.51L764.412 1532.52L767.389 1535.29L768.535 1529.19L765.497 1519.97L761.441 1515.1L755.411 1516.6L752.504 1515.6L752.966 1517.89L756.176 1519.48L755.299 1520.27L751.418 1517.74L750.279 1513.34L746.205 1511.15L745.485 1505.32L741.734 1503.51L743.044 1499.88L741.917 1496.61L725.636 1484.79L717.034 1481.8L713.569 1475.78L711.664 1475.6L712.174 1471.97L705.523 1472.01L701.393 1467.49L700.008 1463.15L695.262 1461.29L689.756 1461.93L689.892 1463.42L687.701 1463.73L681.706 1459.03L678.377 1459.51L682.756 1461.85L683.51 1464.01L675.837 1460.11L661.146 1448.41L656.178 1442.6L657.925 1441.09L654.859 1438.83L655.477 1435.73L652.673 1436.58L650.666 1434.55L647.839 1430.63L648.541 1429.58L651.388 1431.61L650.316 1428.19L647.414 1428.39L643.255 1422.5L638.707 1413.58L640.281 1411.37L639.848 1409.2L635.705 1406.48L635.209 1408.32L636.893 1411.2L635.237 1410.52L633.087 1404.15L635.642 1405.48L636.655 1404.93L635.139 1403.63L636.009 1402.91L634.084 1402.52L632.472 1403.05L626.642 1397.89L627.487 1394.08L625.107 1391.77L621.37 1391.49L617.918 1385.76L618.451 1382.28L614.796 1375.33L610.041 1372.31L607.788 1359.92L605.428 1357.81L601.933 1350.43L602.309 1348.18L604.855 1347.11L608.66 1344.59L610.86 1339.19L607.39 1336.14L607.817 1333.78L607.107 1331.59L609.731 1331.36L607.15 1327.39L607.899 1326.26L606.182 1326.21L605.463 1327.02L603.254 1325.01L600.996 1307.26L597.074 1298.07L587.951 1285.5L586.994 1280.05L588.163 1278.72L586.766 1274.5L588.542 1272.27L592.537 1271.53L589.417 1276.92L590.876 1278.82L592.278 1276.31L594.588 1276.85L595.354 1268.88L598.921 1269.26L598.281 1266.76L600.056 1260.36L599.132 1258.31L597.296 1266.58L595.612 1265.78L598.072 1260.17L597.247 1255.85L604.128 1243.82L604.204 1238.86L605.525 1236.78L607.97 1236.34L608.993 1232.35L605.602 1232.23L605.105 1234.9L604.159 1234.33L602.122 1232.61L603.676 1226.44L603.643 1215.94L598.412 1206.63L597.424 1201.49L594.108 1197.25L596.755 1194.7L594.058 1194.44L592.776 1195.28L580.868 1174.2L584.606 1175.72L588.415 1182.33L587.845 1183.68L591.302 1184.37L592.821 1182.31L588.377 1175.64L588.352 1171.31L581.681 1171.15L582.667 1169.64L580.082 1169.88L579.305 1170.88L575.282 1164.41L577.58 1159.67L575.764 1148.56L575.097 1146.34L573.07 1148.26L568.362 1141L568.216 1137.11L567.287 1135.94L566.651 1135.47L563.96 1128.89L563.967 1121.32L578.895 1120.56L587.939 1118.1L590.279 1119.17L596.235 1129.27L603.149 1134.82L612.794 1146.95L617.583 1150.86L622.072 1151.65L636.361 1148.78L640.93 1149.98L641.89 1161.24L643.884 1162.99L674.506 1154.33L688.372 1153.78L691.378 1157.91L691.95 1167.37L683.704 1187.36L683.824 1189.85L685.495 1192.06L696.986 1195.8L702.925 1201.5L704.038 1208.25L701.321 1219.44L703.077 1224.09L716.897 1226.1L723.758 1223.04L737.561 1211.47L757.151 1218.44L761.871 1218.49L775.391 1199.45L803.137 1179.46L818.442 1164.35L825.724 1159.4L842.383 1153.12L844.072 1150.96L843.031 1146.37L827.677 1137.41L825.504 1135.44L825.043 1131.07L835.707 1123.01L870.325 1106.91L873.548 1102.54L875.724 1096.14L875.505 1086.75L872.454 1079.33L874.3 1072.62L883.815 1069.85L898.41 1072.14L898.223 1072Z" stroke="#00AFA9" stroke-width="1.29971" stroke-linecap="round" stroke-linejoin="round"/>
</g>
</g>
</g>
<path d="M261.093 478.622L276.663 483.465L284.335 489.424L290.392 496.705L293.96 501.751L312.954 526.764L318.229 528.751L323.8 527.802L333.861 523.622L347.331 520.532L361.019 518.065L376.818 520.346L390.968 525.917L417.156 528.253L421.989 526.527L429.973 508.006L433.839 503.478L438.705 501.3L447.555 492.516L449.922 491.289L454.71 494.226L456.079 499.26L454.584 521.301L455.475 534.757L457.184 542.851L459.464 547.876L470.103 558.799L477.486 562.537L487.625 565.95L518.714 569.714L526.091 564.386L528.528 564.264L533.245 568.145L535.639 569.613L540.676 568.7L542.979 569.365L545.371 576.941L549.295 580.268L554.586 580.019L565.52 574.311L575.909 571.332L580.916 572.844L585.186 576.615L588.639 580.666L595.875 582.307L608.376 584.569L613.098 585.339L628.268 589.431L637.266 596.438L641.222 601.361L648.312 603.446L650.591 604.413L654.626 611.846L657.022 613.277L664.227 616.356L668.514 621.418L671.656 629.126L678.383 657.888L679.563 662.907L679.958 665.744L684.183 677.743L695.596 684.399L698.093 685.496L707.152 691.18L708.193 693.496L707.26 700.899L693.574 713.494L683.921 724.911L676.642 748.719L670.521 756L668.818 752.914L665.088 748.501L662.721 747.186L658.039 747.405L625.951 753.467L605.811 754.959L598.889 753.683L591.496 748.048L586.848 744.249L579.896 739.822L572.674 737.993L565.47 735.406L562.575 725.934L558.67 722.343L556.387 722.437L555.084 724.654L556.028 729.276L557.582 733.868L555.123 735.809L536.32 728.032L531.24 729.018L526.09 732.957L521.338 737.154L516.516 740.776L514.238 740.796L511.964 739.754L511.379 737.434L512.726 730.062L512.292 727.754L505.337 723.365L500.836 720.146L500.41 717.724L501.04 712.84L497.989 709.008L481.508 708.232L476.864 707.43L474.377 705.689L471.054 700.927L463.615 687.777L461.915 682.605L459.492 672.903L456.125 668.214L453.77 667.241L449 668.63L431.024 678.742L425.694 680.013L418.294 679.043L411.11 673.651L398.978 668.496L394.225 669.658L391.872 670.696L386.813 673.922L376.913 678.492L372.043 680.215L366.927 682.678L361.937 683.974L352.376 686.028L349.273 690.5L349.557 692.797L352.026 694.272L361.587 692.217L366.323 692.798L370.71 697.033L373.692 709.925L371.077 737.307L373.166 745.391L376.217 750.246L381.112 754.292L395.743 758.495L400.455 761.427L401.551 765.036L400.73 770.437L391.005 787.387L390.472 794.516L392.514 799.676L397.665 809.43L400.097 819.019L400.914 823.822L406.934 818.392L411.636 817.909L423.913 825.692L430.739 829.274L432.986 831.187L434.628 838.138L436.679 843.184L443.309 848.876L454.681 859.133L460.124 871.071L465.502 890.477L467.781 891.444L477.496 891.904L480.929 896.219L480.137 903.254L479.817 905.506L477.172 920.102L477.702 951.587L478.034 961.361L477.337 966.126L474.48 970.844L469.551 973.358L461.657 973.413L454.592 972.013L449.834 973.251L448.156 975.401L444.556 980.936L442.118 983.106L434.857 985.863L417.531 987.262L414.617 991.748L412.889 1001.67L407.978 992.769L408.403 990.639L405.826 991.622L404.115 986.601L395.624 981.946L396.637 980.58L394.287 975.473L396.852 975.665L396.716 971.899L393.914 970.817L395.185 972.088L392.778 973.843L388.71 968.38L390.972 966.539L395.111 967.493L392.393 968.845L396.062 969.992L397.165 966.395L400.716 963.55L398.632 958.956L402.757 949.439L398.362 940.728L400.822 936.246L399.069 928.225L384.832 912.14L380.701 901.438L380.983 896.642L372.726 889.88L372.868 884.428L370.006 883.645L369.379 877.302L366.137 872.47L359.673 869.635L352.894 859.835L351.679 859.858L353.267 864.491L352.125 865.05L350.239 864.909L348.626 862.134L345.872 861.928L342.504 859.286L343.089 856.03L341.597 857.208L340.239 855.589L338.479 849.692L335.553 848.753L340.575 840.935L342.582 833.878L341.887 827.946L336.416 824.503L327.92 823.982L327.049 823.462L319.876 817.425L316.587 806.103L307.226 790.762L300.645 773.239L292.608 759.476L286.431 752.793L283.319 746.719L277.966 743.74L272.521 730.815L272.045 725.507L262.869 715.301L256.978 711.902L256.102 709.409L246.722 699.908L245.42 693.476L248.543 690.257L247.593 686.734L240.61 675.098L232.797 671.025L224.906 661.901L224.383 657.727L218.942 650.341L217.755 640.845L213.259 635.009L212.123 628.893L209.024 623.161L206.416 620.5L200.743 618.749L200.18 611.045L192.563 604.861L190.582 599.896L180.434 594.586L179.847 592.797L186.556 590.833L186.349 589.035L180.213 587.893L178.149 586.07L174.154 586.227L168.962 581.097L167.243 581.765L164.497 579.929L164.513 580.727L166.071 583.233L162.692 581.236L155.3 585.235L148.397 584.72L146.752 585.924L146.061 582.99L149.185 581.289L144.079 581.59L142.292 585.705L141.48 584.392L143.442 580.973L141.717 581.224L140.033 583.45L136.922 582.952L138.262 586.845L135.338 586.892L136.708 581.76L132.581 581.148L133.565 580.16L132.239 577.595L131.482 579.094L129.276 578.17L125.773 582.915L127.567 586.312L125.488 586.725L123.301 591.114L120.942 586.651L121.577 582.716L119.96 582.026L117.645 583.56L117.674 581.134L123.715 573.392L126.665 574.523L125.387 571.317L127.23 570.014L129.595 562.224L128.552 561.957L138.803 536.967L142.345 531.693L141.555 520.937L139.23 514.998L145.214 497.351L145.36 488.296L155.257 488.846L160.289 486.984L167.922 489.413L183.994 491.6L189.897 491.283L197.01 484.417L207.022 481.903L225.51 478.657L232.704 479.346L242.871 477.299L253.224 476.82L261.223 478.404L261.093 478.622ZM113.559 592.548L115.026 594.744L111.235 596.244L109.866 595.269L109.93 596.449L113.301 599.053L119.217 598.054L118.88 600.532L122.465 603.835L115.142 604.881L110.044 601.01L109.061 594.374L113.554 592.624L113.559 592.548ZM129.945 599.159L132.633 599.739L134.445 604.426L131.312 605.747L129.085 601.029L127.713 601.116L127.524 603.644L125.69 603.317L126.426 600.565L129.945 599.159ZM328.311 864.447L330.351 866.079L328.06 866.287L324.012 862.077L323.978 856.954L325.388 862.446L328.604 860.524L328.314 864.409L328.311 864.447ZM320.233 870.519L324.453 875.462L319.69 875.751L317.76 872.649L320.195 870.517L320.233 870.519ZM363.868 877.459L365.133 878.805L364.345 880.719L362.439 878.301L363.905 877.462L363.868 877.459ZM362.611 880.058L365.45 887.25L362.308 884.626L362.649 880.061L362.611 880.058ZM356.414 881.264L358.135 884.124L355.504 885.824L354.18 883.753L356.414 881.264ZM367.482 887.971L370.241 890.643L366.167 890.338L367.482 887.971ZM369.952 892.48L371.926 892.969L373.075 896.886L374.748 896.328L373.95 898.885L373.3 897.433L369.462 897.526L370.734 894.207L368.671 892.877L369.915 892.477L369.952 892.48ZM355.966 896.404L358.787 898.246L360.085 897.622L362.999 905.843L360.837 905.834L361.105 902.25L354.874 898.826L356.003 896.407L355.966 896.404ZM380.069 949.489L383.745 952.078L383.747 954.088L379.201 951.966L380.11 949.454L380.069 949.489Z" fill="#275A67"/>
<mask id="mask4_344_4378" style="mask-type:luminance" maskUnits="userSpaceOnUse" x="108" y="476" width="601" height="526">
<path d="M379.129 951.921L383.674 954.044L383.673 952.033L379.997 949.445L379.089 951.956L379.129 951.921ZM354.805 898.744L361.036 902.168L360.768 905.752L362.929 905.761L360.016 897.54L358.718 898.164L355.896 896.322L354.767 898.741L354.805 898.744ZM368.677 892.801L370.74 894.131L369.468 897.45L373.306 897.357L373.956 898.809L374.754 896.251L373.081 896.809L371.933 892.892L369.921 892.4L368.677 892.801ZM366.098 890.256L370.172 890.56L367.413 887.889L366.098 890.256ZM354.145 883.711L355.47 885.783L358.101 884.083L356.38 881.223L354.145 883.711ZM362.236 884.581L365.378 887.206L362.539 880.014L362.198 884.578L362.236 884.581ZM362.37 878.219L364.275 880.637L365.063 878.723L363.798 877.377L362.332 878.216L362.37 878.219ZM317.763 872.61L319.694 875.713L324.457 875.424L320.236 870.481L317.801 872.613L317.763 872.61ZM323.975 862.074L328.023 866.283L330.276 866.072L328.236 864.44L328.526 860.555L325.348 862.48L323.938 856.988L323.972 862.111L323.975 862.074ZM126.392 600.523L125.655 603.275L127.49 603.602L127.678 601.075L129.051 600.988L131.277 605.706L134.411 604.385L132.599 599.697L129.914 599.08L126.395 600.486L126.392 600.523ZM109.029 594.295L110.013 600.931L115.11 604.801L122.433 603.755L118.849 600.453L119.148 597.972L113.232 598.971L109.861 596.367L109.797 595.187L111.166 596.162L114.954 594.7L113.487 592.504L108.994 594.254L109.029 594.295ZM447.558 492.477L438.708 501.261L433.842 503.439L429.976 507.967L421.992 526.489L417.16 528.214L390.933 525.875L376.786 520.266L360.987 517.986L347.299 520.453L333.83 523.543L323.731 527.72L318.16 528.669L312.884 526.682L293.89 501.669L290.322 496.623L284.266 489.342L276.594 483.383L261.024 478.54L253.028 476.918L242.674 477.397L232.507 479.444L225.314 478.755L206.788 481.998L196.776 484.513L189.663 491.378L183.794 491.736L167.723 489.549L160.09 487.12L155.058 488.982L145.16 488.432L145.015 497.487L139.031 515.134L141.356 521.073L142.146 531.829L138.603 537.103L128.353 562.093L129.395 562.36L127.03 570.149L125.188 571.453L126.466 574.659L123.478 573.525L117.437 581.267L117.408 583.693L119.722 582.159L121.34 582.849L120.705 586.784L123.064 591.247L125.251 586.858L127.33 586.445L125.536 583.048L129.004 578.263L131.211 579.186L131.967 577.687L133.293 580.252L132.309 581.241L136.436 581.852L135.066 586.985L138.028 586.941L136.688 583.047L139.799 583.545L141.483 581.319L143.208 581.069L141.246 584.488L142.058 585.8L143.845 581.685L148.913 581.381L145.789 583.082L146.48 586.017L148.128 584.774L155.031 585.29L162.421 581.328L165.799 583.326L164.241 580.82L164.225 580.022L166.971 581.858L168.69 581.19L173.885 586.282L177.88 586.125L179.944 587.948L186.079 589.089L186.286 590.888L179.577 592.852L180.164 594.641L190.313 599.951L192.294 604.916L199.911 611.099L200.474 618.804L206.146 620.555L208.755 623.216L211.854 628.947L212.99 635.064L217.485 640.9L218.673 650.395L224.114 657.782L224.637 661.955L232.528 671.08L240.344 675.115L247.326 686.751L248.277 690.274L245.151 693.53L246.453 699.962L255.833 709.464L256.709 711.957L262.6 715.355L271.776 725.562L272.252 730.87L277.696 743.795L283.05 746.774L286.162 752.848L292.338 759.531L300.379 773.256L306.959 790.779L316.32 806.12L319.609 817.442L326.783 823.479L327.616 823.996L336.112 824.517L341.583 827.96L342.275 833.929L340.268 840.987L335.284 848.808L338.21 849.747L339.969 855.644L341.331 857.225L342.86 856.05L342.275 859.306L345.644 861.948L348.397 862.153L350.013 864.891L351.9 865.032L353.036 864.548L351.41 859.913L352.625 859.89L359.403 869.69L365.868 872.525L369.11 877.357L369.774 883.703L372.636 884.486L372.495 889.937L380.752 896.699L380.469 901.496L384.639 912.201L398.875 928.286L400.625 936.344L398.166 940.826L402.56 949.537L398.435 959.054L400.52 963.648L396.966 966.53L395.863 970.127L392.193 968.981L394.949 967.632L390.81 966.677L388.548 968.519L392.616 973.982L395.023 972.227L393.753 970.956L396.555 972.038L396.688 975.841L394.123 975.649L396.475 980.718L395.463 982.084L403.953 986.739L405.624 991.795L408.201 990.812L407.738 992.94L412.649 1001.84L414.377 991.918L417.291 987.432L434.617 986.034L441.879 983.276L444.317 981.107L447.916 975.572L449.632 973.424L454.39 972.187L461.455 973.587L469.349 973.532L474.316 971.02L477.172 966.302L477.87 961.537L477.538 951.764L477.007 920.278L479.653 905.682L479.973 903.43L480.764 896.396L477.369 892.083L467.655 891.623L465.375 890.656L459.997 871.25L454.552 859.35L443.18 849.093L436.55 843.401L434.499 838.354L432.856 831.404L430.647 829.494L423.821 825.911L411.582 818.131L406.88 818.614L400.86 824.044L400.002 819.276L397.571 809.688L392.42 799.933L390.378 794.774L390.91 787.644L400.636 770.695L401.456 765.294L400.361 761.684L395.648 758.753L381.017 754.549L376.123 750.504L373.071 745.648L370.982 737.564L373.597 710.183L370.615 697.291L366.266 693.059L361.53 692.477L351.969 694.532L349.5 693.058L349.216 690.761L352.32 686.289L361.883 684.196L366.873 682.9L371.988 680.437L376.859 678.715L386.759 674.144L391.817 670.919L394.171 669.881L398.923 668.718L411.056 673.873L418.242 679.228L425.643 680.198L430.972 678.927L448.949 668.815L453.718 667.426L456.073 668.399L459.44 673.088L461.864 682.79L463.564 687.962L471.002 701.112L474.326 705.874L476.813 707.615L481.457 708.417L497.937 709.193L500.989 713.025L500.359 717.909L500.822 720.333L505.323 723.552L512.278 727.941L512.713 730.25L511.366 737.622L511.951 739.941L514.225 740.984L516.54 740.967L521.362 737.344L526.111 733.185L531.299 729.248L536.379 728.263L555.219 736.043L557.678 734.102L556.087 729.507L555.143 724.885L556.446 722.668L558.732 722.536L562.636 726.128L565.532 735.599L572.736 738.186L579.958 740.015L586.91 744.442L591.558 748.241L598.951 753.876L605.873 755.152L626.013 753.66L658.101 747.599L662.783 747.38L665.15 748.694L668.879 753.108L670.58 756.231L676.703 748.913L683.98 725.142L693.633 713.725L707.319 701.13L708.252 693.727L707.176 691.37L698.118 685.686L695.62 684.589L684.207 677.933L679.982 665.934L679.55 663.095L678.369 658.076L671.642 629.313L668.501 621.606L664.211 616.582L656.968 613.499L654.572 612.068L650.537 604.636L648.258 603.669L641.168 601.584L637.212 596.661L628.214 589.654L613.044 585.561L608.322 584.791L595.821 582.53L588.585 580.889L585.132 576.838L580.862 573.067L575.854 571.555L565.466 574.534L554.532 580.241L549.241 580.491L545.317 577.163L542.924 569.588L540.622 568.922L535.585 569.836L533.191 568.367L528.474 564.487L526.037 564.608L518.66 569.937L487.571 566.172L477.432 562.76L470.012 559.019L459.41 548.099L457.13 543.073L455.421 534.98L454.53 521.523L456.025 499.482L454.656 494.449L449.868 491.512L447.498 492.776L447.558 492.477Z" fill="white"/>
</mask>
<g mask="url(#mask4_344_4378)">
<path d="M-210.298 824.963L317.154 1357.49L320.795 1357.5L-210.292 821.322L-210.298 824.963Z" fill="#BABABA"/>
<path d="M-210.174 797.925L344.19 1357.61L347.831 1357.62L-210.168 794.284L-210.174 797.925Z" fill="#BABABA"/>
<path d="M-210.051 770.89L371.227 1357.74L374.868 1357.75L-210.044 767.249L-210.051 770.89Z" fill="#BABABA"/>
<path d="M-209.928 743.853L398.263 1357.86L401.904 1357.87L-209.921 740.212L-209.928 743.853Z" fill="#BABABA"/>
<path d="M-209.804 716.817L425.337 1357.99L428.976 1358.03L-209.798 713.176L-209.804 716.817Z" fill="#BABABA"/>
<path d="M-209.679 689.742L452.374 1358.11L456.012 1358.16L-209.634 686.104L-209.679 689.742Z" fill="#BABABA"/>
<path d="M-209.555 662.706L479.407 1358.27L483.048 1358.28L-209.511 659.067L-209.555 662.706Z" fill="#BABABA"/>
<path d="M-209.393 635.671L506.444 1358.4L510.086 1358.4L-209.387 632.03L-209.393 635.671Z" fill="#BABABA"/>
<path d="M-209.27 608.636L533.481 1358.52L537.122 1358.53L-209.263 604.995L-209.27 608.636Z" fill="#BABABA"/>
<path d="M-209.147 581.598L560.517 1358.64L564.158 1358.65L-209.14 577.957L-209.147 581.598Z" fill="#BABABA"/>
<path d="M-209.024 554.562L587.553 1358.77L591.194 1358.77L-209.018 550.921L-209.024 554.562Z" fill="#BABABA"/>
<path d="M-208.901 527.525L614.59 1358.89L618.265 1358.94L-208.894 523.884L-208.901 527.525Z" fill="#BABABA"/>
<path d="M-208.777 500.49L641.664 1359.02L645.302 1359.06L-208.771 496.849L-208.777 500.49Z" fill="#BABABA"/>
<path d="M-208.65 473.415L668.698 1359.18L672.339 1359.18L-208.606 469.776L-208.65 473.415Z" fill="#BABABA"/>
<path d="M-208.527 446.378L695.735 1359.3L699.376 1359.31L-208.482 442.74L-208.527 446.378Z" fill="#BABABA"/>
<path d="M-208.365 419.343L722.771 1359.42L726.412 1359.43L-208.359 415.702L-208.365 419.343Z" fill="#BABABA"/>
<path d="M-208.242 392.308L749.808 1359.55L753.449 1359.55L-208.236 388.667L-208.242 392.308Z" fill="#BABABA"/>
</g>
<path d="M389.066 968.178L393.933 973.094L395.017 972.302L393.708 971.029L396.548 972.113L396.687 975.841L414.144 993.494L414.408 991.997L415.14 990.838L394.155 969.621L392.227 969.022L393.132 968.596L391.436 966.914L390.841 966.756L389.066 968.178Z" fill="#BABABA"/>
<path d="M401.041 953.105L433.81 986.164L434.689 986.078L436.64 985.352L402.182 950.535L401.082 953.07L401.041 953.105ZM319.671 870.933L324.152 875.44L324.453 875.463L320.198 870.479L319.671 870.933Z" fill="#BABABA"/>
<path d="M380.422 901.607L382.646 907.387L448.992 974.363L449.663 973.503L451.328 973.058L380.431 901.493L380.419 901.644L380.422 901.607ZM368.676 892.801L370.739 894.131L370.41 894.979L372.774 897.356L373.308 897.32L373.763 898.34L374.01 898.586L374.756 896.214L373.083 896.772L371.934 892.855L369.961 892.366L368.717 892.766L368.676 892.801ZM366.097 890.257L369.568 890.516L367.239 888.18L366.06 890.254L366.097 890.257ZM362.235 884.582L365.377 887.206L364.805 885.722L362.336 883.224L362.235 884.582Z" fill="#BABABA"/>
<path d="M341.118 838.244L473.245 971.661L474.349 971.099L475.086 969.864L341.898 835.419L341.078 838.279L341.118 838.244ZM319.18 816.083L325.635 822.597L326.777 823.555L327.611 824.072L330.931 824.32L317.672 810.888L319.183 816.046L319.18 816.083Z" fill="#BABABA"/>
<path d="M286.193 752.927L292.37 759.609L295.562 765.12L477.531 948.805L477.467 945.083L285.2 750.994L286.193 752.927ZM277.731 743.836L278.605 744.318L277.477 743.172L277.769 743.838L277.731 743.836ZM133.101 601.101L132.558 599.733L131.513 599.503L133.101 601.101ZM120.664 586.82L122.659 590.572L123.154 591.064L124.361 588.613L120.939 585.171L120.664 586.82ZM117.367 583.728L118.682 582.878L117.412 581.607L117.367 583.728Z" fill="#BABABA"/>
<path d="M247.398 686.795L248.32 690.202L477.093 921.158L477.079 920.322L477.524 917.928L245.648 683.82L247.439 686.761L247.398 686.795ZM232.562 671.121L233.474 671.606L229.488 667.591L232.559 671.159L232.562 671.121ZM146.552 586.061L147.801 585.092L145.861 583.126L146.552 586.061ZM127.621 568.336L141.13 581.976L141.592 581.366L143.318 581.116L142.229 583.007L143.04 583.826L143.958 581.695L144.491 581.659L128.514 565.519L127.661 568.301L127.621 568.336Z" fill="#BABABA"/>
<path d="M475.1 891.989L480.709 897.643L480.802 896.398L477.444 892.088L475.138 891.992L475.1 891.989ZM404.558 820.754L462.193 878.924L460.789 873.85L406.506 819.041L404.595 820.757L404.558 820.754ZM192.363 604.997L199.981 611.18L200.229 614.461L399.126 815.266L397.862 810.354L190.995 601.481L192.398 605.037L192.363 604.997ZM179.647 592.932L180.015 594.098L181.073 595.163L188.631 599.104L181.859 592.263L179.65 592.895L179.647 592.932ZM134.231 547.89L167.704 581.685L168.759 581.27L173.952 586.4L175.931 586.32L135.296 545.314L134.231 547.89Z" fill="#BABABA"/>
<path d="M141.941 528.476L393.818 782.741L395.127 780.45L141.665 524.549L141.941 528.476Z" fill="#BABABA"/>
<path d="M400.783 762.626L400.477 761.655L398.736 760.577L400.746 762.623L400.783 762.626ZM143.297 502.707L371.541 733.13L371.867 729.778L144.223 499.97L143.297 502.707Z" fill="#BABABA"/>
<path d="M358.792 693.069L373.147 707.57L372.063 702.785L361.834 692.462L361.683 692.451L358.792 693.069ZM156.26 488.617L352.267 686.474L352.441 686.184L355.062 685.621L158.95 487.642L156.298 488.619L156.26 488.617Z" fill="#BABABA"/>
<path d="M186.226 491.69L372.885 680.125L375.572 679.188L189.655 491.491L186.226 491.69Z" fill="#BABABA"/>
<path d="M206.858 482.08L204.268 482.721L391.137 671.399L391.971 670.892L393.58 670.178L207.203 482.03L206.858 482.08Z" fill="#BABABA"/>
<path d="M428.035 679.656L229.565 479.225L428.075 679.621L428.035 679.656Z" fill="#BABABA"/>
<path d="M426.567 680.002L429.504 679.273L231.558 479.45L227.53 479.035L426.567 680.002Z" fill="#BABABA"/>
<path d="M445.938 670.525L254.516 477.296L445.935 670.563L445.938 670.525Z" fill="#BABABA"/>
<path d="M511.45 737.515L511.766 738.866L513.354 740.464L514.306 740.914L516.621 740.898L517.064 740.551L511.88 735.309L511.447 737.552L511.45 737.515ZM463.683 687.896L466.796 693.439L481.576 708.351L485.394 708.522L463.032 685.951L463.683 687.896ZM252.451 477.028L444.788 671.197L447.124 669.893L256.798 477.732L253.098 477L252.489 477.03L252.451 477.028Z" fill="#BABABA"/>
<path d="M327.914 526.06L530.021 730.101L531.348 729.1L532.464 728.88L330.499 524.963L327.914 526.06Z" fill="#BABABA"/>
<path d="M565.584 735.414L566.028 735.561L565.464 734.988L565.587 735.377L565.584 735.414ZM349.028 520.165L556.072 729.204L555.157 724.697L352.064 519.634L348.987 520.2L349.028 520.165Z" fill="#BABABA"/>
<path d="M609.971 754.624L378.589 521.008L610.008 754.626L609.971 754.624Z" fill="#BABABA"/>
<path d="M608.292 754.764L611.685 754.525L381.537 522.177L376.784 520.304L375.959 520.167L608.292 754.764Z" fill="#BABABA"/>
<path d="M632.686 752.186L635.725 751.617L414.184 527.954L410.226 527.62L632.686 752.186Z" fill="#BABABA"/>
<path d="M426.222 516.601L655.35 747.886L658.157 747.375L658.424 747.357L473.213 560.358L470.105 558.798L459.504 547.878L458.361 545.403L427.322 514.066L426.222 516.601Z" fill="#BABABA"/>
<path d="M678.22 743.829L679.073 741.048L508.109 568.465L503.974 567.966L678.179 743.864L678.22 743.829ZM438.704 501.298L438.194 501.525L454.806 518.319L455.062 514.886L440.14 499.85L438.704 501.298Z" fill="#BABABA"/>
<path d="M527.345 564.364L685.082 723.592L686.746 721.63L536.101 569.532L535.637 569.649L533.243 568.18L528.526 564.3L527.345 564.364Z" fill="#BABABA"/>
<path d="M565.52 574.311L564.61 574.812L698.01 709.462L699.886 707.706L567.263 573.834L565.52 574.311Z" fill="#BABABA"/>
<path d="M707.551 691.929L707.192 691.144L706.068 690.453L707.551 691.929ZM679.757 663.869L679.604 662.871L678.74 659.203L604.034 583.788L599.617 583.003L679.754 663.907L679.757 663.869Z" fill="#BABABA"/>
<path d="M671.344 628.229L668.812 622.009L662.462 615.617L657.02 613.314L655.82 612.617L671.341 628.267L671.344 628.229ZM654.061 610.779L650.592 604.412L648.312 603.445L646.196 602.832L654.061 610.779Z" fill="#BABABA"/>
<circle cx="177.178" cy="607.984" r="34.7421" fill="#CDDC29" fill-opacity="0.2"/>
<circle cx="177.178" cy="607.983" r="35.034" fill="#CDDC29"/>
<path d="M23.6194 640H19.2453L3.33186 615.297H3.16522C3.193 615.797 3.22077 616.352 3.24854 616.963C3.30409 617.574 3.34574 618.24 3.37352 618.963C3.40129 619.657 3.42906 620.379 3.45683 621.129C3.48461 621.879 3.49849 622.628 3.49849 623.378V640H0.0408536V610.256H4.37332L20.2451 634.876H20.4118C20.384 634.543 20.3562 634.085 20.3284 633.501C20.3007 632.89 20.2729 632.224 20.2451 631.502C20.2173 630.752 20.1896 629.988 20.1618 629.211C20.134 628.433 20.1201 627.711 20.1201 627.044V610.256H23.6194V640ZM39.8148 617.255C41.731 617.255 43.3696 617.671 44.7304 618.504C46.119 619.337 47.1744 620.518 47.8965 622.045C48.6463 623.545 49.0212 625.309 49.0212 627.336V629.544H33.7326C33.7882 632.071 34.4269 634.001 35.6489 635.334C36.8987 636.64 38.6344 637.292 40.8562 637.292C42.2726 637.292 43.5223 637.167 44.6055 636.917C45.7163 636.64 46.855 636.251 48.0214 635.751V638.959C46.8828 639.458 45.758 639.819 44.6471 640.042C43.5362 640.292 42.217 640.417 40.6896 640.417C38.5789 640.417 36.7043 639.986 35.0657 639.125C33.4549 638.264 32.1913 636.987 31.2748 635.293C30.3861 633.571 29.9417 631.474 29.9417 629.002C29.9417 626.558 30.3444 624.461 31.1498 622.712C31.983 620.962 33.1355 619.615 34.6075 618.671C36.1072 617.727 37.8429 617.255 39.8148 617.255ZM39.7731 620.254C38.0234 620.254 36.6348 620.823 35.6073 621.962C34.6075 623.073 34.0104 624.628 33.816 626.628H45.1887C45.1887 625.35 44.9943 624.239 44.6055 623.295C44.2166 622.351 43.6195 621.615 42.8141 621.087C42.0365 620.532 41.0228 620.254 39.7731 620.254ZM74.1184 628.794C74.1184 630.655 73.8684 632.307 73.3685 633.751C72.8964 635.168 72.2021 636.376 71.2856 637.376C70.3969 638.375 69.2999 639.139 67.9946 639.667C66.7171 640.167 65.2868 640.417 63.7038 640.417C62.2319 640.417 60.8711 640.167 59.6213 639.667C58.3716 639.139 57.2884 638.375 56.372 637.376C55.4555 636.376 54.7334 635.168 54.2057 633.751C53.7058 632.307 53.4559 630.655 53.4559 628.794C53.4559 626.322 53.8725 624.239 54.7056 622.545C55.5388 620.823 56.733 619.518 58.2882 618.629C59.8435 617.713 61.6903 617.255 63.8288 617.255C65.8562 617.255 67.6336 617.713 69.1611 618.629C70.7163 619.518 71.9244 620.823 72.7853 622.545C73.674 624.239 74.1184 626.322 74.1184 628.794ZM57.2468 628.794C57.2468 630.544 57.469 632.071 57.9133 633.376C58.3854 634.654 59.1075 635.64 60.0796 636.334C61.0516 637.028 62.2874 637.376 63.7871 637.376C65.2868 637.376 66.5227 637.028 67.4947 636.334C68.4668 635.64 69.1749 634.654 69.6193 633.376C70.0914 632.071 70.3275 630.544 70.3275 628.794C70.3275 627.017 70.0914 625.503 69.6193 624.253C69.1472 623.003 68.4251 622.045 67.4531 621.379C66.5088 620.684 65.273 620.337 63.7455 620.337C61.4682 620.337 59.8157 621.087 58.7881 622.587C57.7606 624.087 57.2468 626.156 57.2468 628.794ZM104.423 617.255C106.951 617.255 108.839 617.907 110.089 619.213C111.339 620.49 111.964 622.573 111.964 625.461V640H108.339V625.628C108.339 623.878 107.964 622.559 107.215 621.67C106.493 620.782 105.354 620.337 103.799 620.337C101.632 620.337 100.077 620.962 99.1329 622.212C98.2164 623.462 97.7582 625.281 97.7582 627.669V640H94.1339V625.628C94.1339 624.461 93.9673 623.489 93.634 622.712C93.3007 621.906 92.8008 621.309 92.1343 620.921C91.4678 620.532 90.6068 620.337 89.5515 620.337C88.0518 620.337 86.8715 620.657 86.0105 621.295C85.1496 621.906 84.5247 622.809 84.1359 624.003C83.7749 625.197 83.5943 626.669 83.5943 628.419V640H79.9284V617.671H82.8862L83.4277 620.712H83.636C84.1081 619.935 84.6775 619.296 85.344 618.796C86.0383 618.268 86.802 617.879 87.6352 617.63C88.4684 617.38 89.3293 617.255 90.218 617.255C91.9399 617.255 93.3702 617.56 94.5088 618.171C95.6753 618.782 96.5223 619.726 97.05 621.004H97.2583C98.0081 619.726 99.0218 618.782 100.299 618.171C101.605 617.56 102.979 617.255 104.423 617.255ZM7.91427 654.256C11.8024 654.256 14.6351 655.02 16.4126 656.547C18.19 658.075 19.0787 660.227 19.0787 663.004C19.0787 664.226 18.8704 665.407 18.4538 666.545C18.065 667.656 17.4124 668.656 16.4959 669.545C15.5794 670.433 14.3574 671.141 12.8299 671.669C11.3025 672.169 9.42785 672.419 7.20608 672.419H3.7901V684H0.0408536V654.256H7.91427ZM7.581 657.464H3.7901V669.211H6.7895C8.678 669.211 10.2471 669.017 11.4969 668.628C12.7466 668.212 13.677 667.559 14.288 666.67C14.899 665.781 15.2045 664.615 15.2045 663.171C15.2045 661.255 14.5935 659.824 13.3715 658.88C12.1495 657.936 10.2194 657.464 7.581 657.464ZM44.1765 672.794C44.1765 674.655 43.9266 676.307 43.4267 677.751C42.9545 679.168 42.2602 680.376 41.3437 681.376C40.455 682.375 39.358 683.139 38.0527 683.667C36.7752 684.167 35.3449 684.417 33.7619 684.417C32.29 684.417 30.9292 684.167 29.6794 683.667C28.4297 683.139 27.3466 682.375 26.4301 681.376C25.5136 680.376 24.7915 679.168 24.2638 677.751C23.7639 676.307 23.514 674.655 23.514 672.794C23.514 670.322 23.9306 668.239 24.7637 666.545C25.5969 664.823 26.7911 663.518 28.3464 662.629C29.9016 661.713 31.7484 661.255 33.8869 661.255C35.9143 661.255 37.6917 661.713 39.2192 662.629C40.7744 663.518 41.9825 664.823 42.8434 666.545C43.7321 668.239 44.1765 670.322 44.1765 672.794ZM27.3049 672.794C27.3049 674.544 27.5271 676.071 27.9714 677.376C28.4436 678.654 29.1656 679.64 30.1377 680.334C31.1097 681.028 32.3455 681.376 33.8452 681.376C35.3449 681.376 36.5808 681.028 37.5528 680.334C38.5249 679.64 39.2331 678.654 39.6774 677.376C40.1495 676.071 40.3856 674.544 40.3856 672.794C40.3856 671.017 40.1495 669.503 39.6774 668.253C39.2053 667.003 38.4832 666.045 37.5112 665.379C36.5669 664.684 35.3311 664.337 33.8036 664.337C31.5263 664.337 29.8738 665.087 28.8463 666.587C27.8187 668.087 27.3049 670.156 27.3049 672.794ZM60.4011 661.255C60.8177 661.255 61.262 661.282 61.7342 661.338C62.2341 661.366 62.6645 661.421 63.0256 661.505L62.5673 664.879C62.2063 664.796 61.8036 664.726 61.3592 664.671C60.9427 664.615 60.54 664.587 60.1512 664.587C59.2902 664.587 58.4709 664.768 57.6933 665.129C56.9157 665.49 56.2214 666.004 55.6104 666.67C54.9994 667.309 54.5134 668.087 54.1524 669.003C53.8191 669.919 53.6525 670.947 53.6525 672.086V684H49.9865V661.671H52.9859L53.4025 665.754H53.5691C54.0413 664.921 54.6106 664.171 55.2771 663.504C55.9437 662.81 56.7074 662.268 57.5683 661.879C58.4293 661.463 59.3735 661.255 60.4011 661.255ZM74.6518 681.417C75.2073 681.417 75.7766 681.376 76.3598 681.292C76.943 681.181 77.4151 681.07 77.7762 680.959V683.75C77.3874 683.944 76.8319 684.097 76.1098 684.208C75.3878 684.347 74.6935 684.417 74.0269 684.417C72.8605 684.417 71.7774 684.222 70.7776 683.833C69.8056 683.417 69.0141 682.709 68.4031 681.709C67.7921 680.709 67.4866 679.306 67.4866 677.501V664.504H64.3206V662.754L67.5282 661.296L68.9863 656.547H71.1525V661.671H77.6095V664.504H71.1525V677.418C71.1525 678.779 71.4719 679.793 72.1107 680.459C72.7772 681.098 73.6242 681.417 74.6518 681.417Z" fill="white"/>
</svg>
