<svg width="1593" height="1042" viewBox="0 0 1593 1042" fill="none" xmlns="http://www.w3.org/2000/svg">
<g clip-path="url(#clip0_344_4377)">
<path d="M2893.52 1192.52L2626.17 1173.39L2359.41 868.582L2333.91 742.468L2269.95 705.618L2176.12 558.184L1976.1 501.803L1804.56 488.459L1390.37 171.093L1274.83 144.794L1058.27 202.372L1150.11 321.112L946.102 455.782L826.365 480.892L855.856 578.114L1049.9 991.305L1174.61 1124.39L1216.25 1224.79L1210.67 1363.85L1358.89 1520.04L1607.93 1917.7L1656.14 1805.34L2097.42 1848.37L2174.72 1728.44L2277.53 1674.24L2582.34 1621.26L2899.1 1491.96L2954.89 1261.65L2893.52 1192.52Z" fill="#EEEEEE" fill-opacity="0.09"/>
<g opacity="0.5">
<g opacity="0.33">
<mask id="mask0_344_4377" style="mask-type:luminance" maskUnits="userSpaceOnUse" x="1072" y="987" width="686" height="760">
<path d="M1757.62 1047.08L1139.21 987.666L1072.04 1686.73L1690.46 1746.15L1757.62 1047.08Z" fill="white"/>
</mask>
<g mask="url(#mask0_344_4377)">
<path d="M1505.22 1072L1503.65 1082.58L1504.45 1091.7L1516.27 1101.61L1519.19 1115.82L1524.98 1129.71L1527.2 1146.18L1541.36 1179.33L1550.01 1184.29L1591.01 1187.18L1599.96 1189.89L1605.18 1195.51L1602.49 1203.98L1601.24 1219.48L1604.75 1226.3L1615.42 1230.29L1631.96 1226.43L1650.62 1231.03L1651.42 1235.63L1648.14 1253.53L1652.35 1291.81L1650.18 1298.57L1643.15 1308.38L1644.24 1328.63L1638.48 1353.18L1640.07 1357.5L1653.47 1376.36L1665.56 1397.22L1653.77 1401.21L1636.86 1411.76L1621.76 1407.59L1615.18 1408.16L1605.85 1412.35L1592.59 1412.83L1579.91 1423.59L1561 1432.02L1530.86 1458.15L1524.07 1461.3L1517.43 1460.42L1513.44 1457.36L1500.52 1430.61L1494.91 1424.83L1490.61 1424.1L1474.63 1431.73L1462.54 1430.85L1448.99 1435.63L1443.52 1431.22L1440.1 1420.16L1436.67 1415.87L1432.57 1413.99L1425.97 1414.76L1421.9 1418.78L1419.71 1424.89L1422.6 1438.18L1422.06 1445.06L1413.89 1458.32L1409.63 1468.57L1386.98 1473.4L1375.01 1485.02L1375.42 1489.18L1377.3 1491.28L1387.85 1494.74L1390.54 1499.28L1389.23 1514.61L1391.58 1526.01L1390.46 1538.91L1394.14 1543.51L1404.73 1549.97L1410.51 1559.02L1415.05 1562.18L1422.6 1562.38L1429.13 1559.4L1437.31 1533.44L1444.62 1520.65L1449.1 1519.04L1462.53 1519.29L1464.87 1517.88L1469.31 1515.82L1475.98 1516.38L1481.21 1522.01L1481.7 1526.46L1477.37 1546.5L1483.4 1559.57L1479.36 1572.88L1477.05 1576.94L1472.57 1578.99L1458.79 1577.39L1452.26 1578.28L1440.77 1586.19L1438.59 1586.3L1433.01 1580.72L1430.81 1609.77L1432.38 1618.45L1435.24 1622.85L1439.38 1624.37L1458.89 1625.49L1464.95 1629.15L1472.94 1655.98L1468.07 1674.53L1464.97 1680.12L1454.5 1685.8L1448.55 1694.84L1447.51 1689.37L1446.76 1688.38L1444.07 1684.72L1444.21 1683.29L1443.29 1681.6L1442.24 1680.5L1440.71 1682.67L1439.69 1681.62L1440.81 1678.28L1439.48 1677.55L1438.14 1675.62L1438.66 1673.11L1436.59 1670.51L1435.16 1664.53L1435.39 1662.18L1434.98 1658.06L1432.65 1655.68L1433.19 1652.16L1429.17 1648.97L1427.41 1645.16L1420.85 1644.73L1417.85 1642.24L1417.42 1637.52L1412.51 1631.08L1416.51 1616.93L1411.99 1615.65L1408.73 1612.9L1405.46 1604.86L1409.45 1596.23L1409.01 1591.3L1400.22 1587.3L1397.2 1579.56L1398.42 1575.19L1397.23 1570.95L1394.87 1569.21L1393.33 1565.21L1388.81 1562.74L1389.73 1561.5L1388.49 1555.58L1390.15 1547.57L1386.68 1543.67L1380.12 1541.88L1372.17 1535.51L1371.41 1532.52L1374.39 1535.29L1375.54 1529.19L1372.5 1519.97L1368.44 1515.1L1362.41 1516.6L1359.5 1515.6L1359.97 1517.89L1363.18 1519.48L1362.3 1520.27L1358.42 1517.74L1357.28 1513.34L1353.21 1511.15L1352.48 1505.32L1348.73 1503.51L1350.04 1499.88L1348.92 1496.61L1332.64 1484.79L1324.03 1481.8L1320.57 1475.78L1318.66 1475.6L1319.17 1471.97L1312.52 1472.01L1308.39 1467.49L1307.01 1463.15L1302.26 1461.29L1296.76 1461.93L1296.89 1463.42L1294.7 1463.73L1288.71 1459.03L1285.38 1459.51L1289.76 1461.85L1290.51 1464.01L1282.84 1460.11L1268.15 1448.41L1263.18 1442.6L1264.93 1441.09L1261.86 1438.83L1262.48 1435.73L1259.67 1436.58L1257.67 1434.55L1254.84 1430.63L1255.54 1429.58L1258.39 1431.61L1257.32 1428.19L1254.41 1428.39L1250.25 1422.5L1245.71 1413.58L1247.28 1411.37L1246.85 1409.2L1242.71 1406.48L1242.21 1408.32L1243.89 1411.2L1242.24 1410.52L1240.09 1404.15L1242.64 1405.48L1243.66 1404.93L1242.14 1403.63L1243.01 1402.91L1241.08 1402.52L1239.47 1403.05L1233.64 1397.89L1234.49 1394.08L1232.11 1391.77L1228.37 1391.49L1224.92 1385.76L1225.45 1382.28L1221.8 1375.33L1217.04 1372.31L1214.79 1359.92L1212.43 1357.81L1208.93 1350.43L1209.31 1348.18L1211.85 1347.11L1215.66 1344.59L1217.86 1339.19L1214.39 1336.14L1214.82 1333.78L1214.11 1331.59L1216.73 1331.36L1214.15 1327.39L1214.9 1326.26L1213.18 1326.21L1212.46 1327.02L1210.25 1325.01L1208 1307.26L1204.07 1298.07L1194.95 1285.5L1193.99 1280.05L1195.16 1278.72L1193.77 1274.5L1195.54 1272.27L1199.54 1271.53L1196.42 1276.92L1197.88 1278.82L1199.28 1276.31L1201.59 1276.85L1202.35 1268.88L1205.92 1269.26L1205.28 1266.76L1207.06 1260.36L1206.13 1258.31L1204.3 1266.58L1202.61 1265.78L1205.07 1260.17L1204.25 1255.85L1211.13 1243.82L1211.2 1238.86L1212.52 1236.78L1214.97 1236.34L1215.99 1232.35L1212.6 1232.23L1212.1 1234.9L1211.16 1234.33L1209.12 1232.61L1210.68 1226.44L1210.64 1215.94L1205.41 1206.63L1204.42 1201.49L1201.11 1197.25L1203.76 1194.7L1201.06 1194.44L1199.78 1195.28L1187.87 1174.2L1191.61 1175.72L1195.41 1182.33L1194.85 1183.68L1198.3 1184.37L1199.82 1182.31L1195.38 1175.64L1195.35 1171.31L1188.68 1171.15L1189.67 1169.64L1187.08 1169.88L1186.3 1170.88L1182.28 1164.41L1184.58 1159.67L1182.76 1148.56L1182.1 1146.34L1180.07 1148.26L1175.36 1141L1175.22 1137.11L1174.29 1135.94L1173.65 1135.47L1170.96 1128.89L1170.97 1121.32L1185.89 1120.56L1194.94 1118.1L1197.28 1119.17L1203.24 1129.27L1210.15 1134.82L1219.79 1146.95L1224.58 1150.86L1229.07 1151.65L1243.36 1148.78L1247.93 1149.98L1248.89 1161.24L1250.88 1162.99L1281.51 1154.33L1295.37 1153.78L1298.38 1157.91L1298.95 1167.37L1290.7 1187.36L1290.82 1189.85L1292.49 1192.06L1303.99 1195.8L1309.93 1201.5L1311.04 1208.25L1308.32 1219.44L1310.08 1224.09L1323.9 1226.1L1330.76 1223.04L1344.56 1211.47L1364.15 1218.44L1368.87 1218.49L1382.39 1199.45L1410.14 1179.46L1425.44 1164.35L1432.72 1159.4L1449.38 1153.12L1451.07 1150.96L1450.03 1146.37L1434.68 1137.41L1432.5 1135.44L1432.04 1131.07L1442.71 1123.01L1477.32 1106.91L1480.55 1102.54L1482.72 1096.14L1482.51 1086.75L1479.45 1079.33L1481.3 1072.62L1490.82 1069.85L1505.41 1072.14L1505.22 1072Z" fill="#DEDCD9"/>
<mask id="mask1_344_4377" style="mask-type:luminance" maskUnits="userSpaceOnUse" x="1170" y="1069" width="496" height="626">
<path d="M1481.11 1072.49L1479.27 1079.2L1482.32 1086.62L1482.54 1096.01L1480.37 1102.36L1477.14 1106.74L1442.48 1122.83L1431.82 1130.89L1432.28 1135.26L1434.45 1137.23L1449.81 1146.19L1450.85 1150.78L1449.16 1152.94L1432.5 1159.22L1425.22 1164.17L1409.92 1179.28L1382.21 1199.27L1368.69 1218.32L1363.97 1218.26L1344.37 1211.34L1330.57 1222.9L1323.71 1225.97L1309.89 1223.96L1308.13 1219.3L1310.85 1208.11L1309.7 1201.36L1303.76 1195.62L1292.27 1191.88L1290.6 1189.67L1290.48 1187.18L1298.72 1167.23L1298.15 1157.77L1295.15 1153.63L1281.28 1154.18L1250.66 1162.85L1248.66 1161.1L1247.7 1149.84L1243.14 1148.64L1228.85 1151.51L1224.36 1150.72L1219.57 1146.81L1209.92 1134.68L1203.01 1129.13L1197.05 1119.03L1194.67 1117.96L1185.63 1120.41L1170.7 1121.18L1170.69 1128.75L1173.39 1135.33L1174.06 1135.8L1174.99 1136.97L1175.14 1140.86L1179.84 1148.12L1181.87 1146.19L1182.54 1148.42L1184.39 1159.53L1182.1 1164.27L1186.12 1170.75L1186.9 1169.74L1189.48 1169.51L1188.49 1171.01L1195.17 1171.17L1195.19 1175.5L1199.63 1182.17L1198.08 1184.23L1194.62 1183.53L1195.19 1182.19L1191.38 1175.58L1187.64 1174.06L1199.51 1195.13L1200.8 1194.26L1203.49 1194.52L1200.84 1197.1L1204.16 1201.35L1205.15 1206.49L1210.38 1215.8L1210.41 1226.29L1208.86 1232.47L1210.89 1234.19L1211.84 1234.76L1212.34 1232.08L1215.73 1232.21L1214.7 1236.19L1212.26 1236.64L1210.94 1238.71L1210.86 1243.67L1203.98 1255.7L1204.81 1259.99L1202.35 1265.6L1203.99 1266.39L1205.83 1258.12L1206.75 1260.17L1204.94 1266.56L1205.58 1269.07L1202.05 1268.73L1201.28 1276.7L1198.97 1276.16L1197.57 1278.67L1196.11 1276.77L1199.23 1271.38L1195.24 1272.12L1193.46 1274.35L1194.82 1278.56L1193.65 1279.89L1194.61 1285.35L1203.73 1297.92L1207.65 1307.1L1209.91 1324.86L1212.12 1326.87L1212.84 1326.06L1214.55 1326.11L1213.8 1327.23L1216.39 1331.21L1213.76 1331.43L1214.47 1333.62L1214.04 1335.99L1217.51 1339.04L1215.35 1344.44L1211.51 1346.95L1208.96 1348.03L1208.59 1350.28L1212.08 1357.66L1214.44 1359.77L1216.7 1372.16L1221.45 1375.17L1225.11 1382.13L1224.53 1385.6L1227.99 1391.34L1231.72 1391.62L1234.1 1393.93L1233.26 1397.73L1239.09 1402.89L1240.7 1402.37L1242.62 1402.75L1241.75 1403.47L1243.27 1404.78L1242.26 1405.32L1239.7 1403.99L1241.85 1410.37L1243.51 1411.05L1241.82 1408.16L1242.32 1406.33L1246.46 1409.05L1246.9 1411.21L1245.32 1413.42L1249.87 1422.35L1254.03 1428.23L1256.93 1428.03L1258 1431.46L1255.16 1429.42L1254.45 1430.48L1257.28 1434.39L1259.25 1436.42L1262.05 1435.57L1261.43 1438.67L1264.5 1440.93L1262.75 1442.44L1267.72 1448.25L1282.41 1459.95L1290.09 1463.85L1289.34 1461.65L1284.96 1459.31L1288.29 1458.79L1294.28 1463.49L1296.48 1463.18L1296.34 1461.69L1301.85 1461.05L1306.59 1462.91L1307.98 1467.25L1312.11 1471.77L1318.76 1471.73L1318.25 1475.36L1320.15 1475.54L1323.62 1481.56L1332.22 1484.55L1348.5 1496.37L1349.63 1499.64L1348.32 1503.27L1352.07 1505.08L1352.79 1510.91L1356.86 1513.1L1358 1517.5L1361.88 1520.03L1362.76 1519.24L1359.55 1517.65L1359.09 1515.36L1361.99 1516.36L1368.02 1514.86L1372.08 1519.73L1375.12 1528.95L1373.97 1535.05L1371.03 1532.28L1371.79 1535.28L1379.74 1541.65L1386.3 1543.44L1389.77 1547.34L1388.12 1555.35L1389.35 1561.27L1388.43 1562.5L1392.96 1564.98L1394.5 1568.97L1396.85 1570.72L1398.04 1574.96L1396.82 1579.32L1399.84 1587.06L1408.63 1591.07L1409.08 1596L1405.08 1604.62L1408.36 1612.66L1411.65 1615.42L1416.18 1616.7L1412.17 1630.85L1417.08 1637.28L1417.51 1642.01L1420.55 1644.5L1427.12 1644.93L1428.87 1648.75L1432.89 1651.94L1432.35 1655.45L1434.69 1657.83L1435.09 1661.96L1434.87 1664.3L1436.29 1670.28L1438.36 1672.88L1437.84 1675.39L1439.18 1677.32L1440.51 1678.05L1439.39 1681.39L1440.41 1682.45L1441.94 1680.27L1442.99 1681.37L1443.87 1683.06L1443.74 1684.49L1446.43 1688.15L1447.21 1689.15L1448.25 1694.61L1454.2 1685.57L1464.68 1679.89L1467.78 1674.31L1472.64 1655.75L1464.65 1628.92L1458.6 1625.22L1439.09 1624.1L1434.95 1622.58L1432.09 1618.19L1430.52 1609.51L1432.71 1580.45L1438.3 1586.03L1440.47 1585.92L1451.96 1578.02L1458.5 1577.12L1472.27 1578.73L1476.76 1576.67L1479.07 1572.61L1483.11 1559.31L1477.08 1546.23L1481.41 1526.19L1480.91 1521.74L1475.65 1516.11L1468.98 1515.55L1464.53 1517.6L1462.2 1518.98L1448.77 1518.73L1444.29 1520.34L1436.98 1533.13L1428.8 1559.09L1422.27 1562.07L1414.72 1561.86L1410.18 1558.71L1404.4 1549.66L1393.81 1543.2L1390.12 1538.64L1391.24 1525.74L1388.89 1514.34L1390.21 1499.01L1387.48 1494.47L1376.92 1491.01L1375.04 1488.91L1374.64 1484.74L1386.61 1473.12L1409.25 1468.29L1413.52 1458.01L1421.69 1444.74L1422.23 1437.87L1419.34 1424.58L1421.53 1418.46L1425.6 1414.45L1432.2 1413.68L1436.3 1415.56L1439.73 1419.85L1443.15 1430.91L1448.62 1435.32L1462.17 1430.53L1474.26 1431.41L1490.24 1423.78L1494.54 1424.51L1500.15 1430.3L1513.07 1457.04L1517.06 1460.11L1523.71 1460.99L1530.49 1457.84L1560.63 1431.7L1579.54 1423.27L1592.22 1412.52L1605.48 1412.03L1614.77 1407.84L1621.39 1407.27L1636.49 1411.45L1653.4 1400.9L1665.23 1396.91L1653.14 1376.05L1639.74 1357.19L1638.15 1352.87L1643.92 1328.32L1642.86 1308.08L1649.89 1298.26L1652.06 1291.5L1647.85 1253.22L1651.09 1235.32L1650.29 1230.72L1631.63 1226.12L1615.09 1229.98L1604.42 1225.99L1600.95 1219.17L1602.2 1203.67L1604.89 1195.21L1599.67 1189.58L1590.72 1186.88L1549.72 1183.98L1541.07 1178.98L1526.92 1145.83L1524.7 1129.36L1518.9 1115.47L1515.99 1101.26L1504.16 1091.36L1503.36 1082.23L1504.94 1071.65L1490.34 1069.37L1480.83 1072.1L1481.11 1072.49Z" fill="white"/>
</mask>
<g mask="url(#mask1_344_4377)">
</g>
<mask id="mask2_344_4377" style="mask-type:luminance" maskUnits="userSpaceOnUse" x="1170" y="1069" width="496" height="626">
<path d="M1481.11 1072.49L1479.27 1079.2L1482.32 1086.62L1482.54 1096.01L1480.37 1102.36L1477.14 1106.74L1442.48 1122.83L1431.82 1130.89L1432.28 1135.26L1434.45 1137.23L1449.81 1146.19L1450.85 1150.78L1449.16 1152.94L1432.5 1159.22L1425.22 1164.17L1409.92 1179.28L1382.21 1199.27L1368.69 1218.32L1363.97 1218.26L1344.37 1211.34L1330.57 1222.9L1323.71 1225.97L1309.89 1223.96L1308.13 1219.3L1310.85 1208.11L1309.7 1201.36L1303.76 1195.62L1292.27 1191.88L1290.6 1189.67L1290.48 1187.18L1298.72 1167.23L1298.15 1157.77L1295.15 1153.63L1281.28 1154.18L1250.66 1162.85L1248.66 1161.1L1247.7 1149.84L1243.14 1148.64L1228.85 1151.51L1224.36 1150.72L1219.57 1146.81L1209.92 1134.68L1203.01 1129.13L1197.05 1119.03L1194.67 1117.96L1185.63 1120.41L1170.7 1121.18L1170.69 1128.75L1173.39 1135.33L1174.06 1135.8L1174.99 1136.97L1175.14 1140.86L1179.84 1148.12L1181.87 1146.19L1182.54 1148.42L1184.39 1159.53L1182.1 1164.27L1186.12 1170.75L1186.9 1169.74L1189.48 1169.51L1188.49 1171.01L1195.17 1171.17L1195.19 1175.5L1199.63 1182.17L1198.08 1184.23L1194.62 1183.53L1195.19 1182.19L1191.38 1175.58L1187.64 1174.06L1199.51 1195.13L1200.8 1194.26L1203.49 1194.52L1200.84 1197.1L1204.16 1201.35L1205.15 1206.49L1210.38 1215.8L1210.41 1226.29L1208.86 1232.47L1210.89 1234.19L1211.84 1234.76L1212.34 1232.08L1215.73 1232.21L1214.7 1236.19L1212.26 1236.64L1210.94 1238.71L1210.86 1243.67L1203.98 1255.7L1204.81 1259.99L1202.35 1265.6L1203.99 1266.39L1205.83 1258.12L1206.75 1260.17L1204.94 1266.56L1205.58 1269.07L1202.05 1268.73L1201.28 1276.7L1198.97 1276.16L1197.57 1278.67L1196.11 1276.77L1199.23 1271.38L1195.24 1272.12L1193.46 1274.35L1194.82 1278.56L1193.65 1279.89L1194.61 1285.35L1203.73 1297.92L1207.65 1307.1L1209.91 1324.86L1212.12 1326.87L1212.84 1326.06L1214.55 1326.11L1213.8 1327.23L1216.39 1331.21L1213.76 1331.43L1214.47 1333.62L1214.04 1335.99L1217.51 1339.04L1215.35 1344.44L1211.51 1346.95L1208.96 1348.03L1208.59 1350.28L1212.08 1357.66L1214.44 1359.77L1216.7 1372.16L1221.45 1375.17L1225.11 1382.13L1224.53 1385.6L1227.99 1391.34L1231.72 1391.62L1234.1 1393.93L1233.26 1397.73L1239.09 1402.89L1240.7 1402.37L1242.62 1402.75L1241.75 1403.47L1243.27 1404.78L1242.26 1405.32L1239.7 1403.99L1241.85 1410.37L1243.51 1411.05L1241.82 1408.16L1242.32 1406.33L1246.46 1409.05L1246.9 1411.21L1245.32 1413.42L1249.87 1422.35L1254.03 1428.23L1256.93 1428.03L1258 1431.46L1255.16 1429.42L1254.45 1430.48L1257.28 1434.39L1259.25 1436.42L1262.05 1435.57L1261.43 1438.67L1264.5 1440.93L1262.75 1442.44L1267.72 1448.25L1282.41 1459.95L1290.09 1463.85L1289.34 1461.65L1284.96 1459.31L1288.29 1458.79L1294.28 1463.49L1296.48 1463.18L1296.34 1461.69L1301.85 1461.05L1306.59 1462.91L1307.98 1467.25L1312.11 1471.77L1318.76 1471.73L1318.25 1475.36L1320.15 1475.54L1323.62 1481.56L1332.22 1484.55L1348.5 1496.37L1349.63 1499.64L1348.32 1503.27L1352.07 1505.08L1352.79 1510.91L1356.86 1513.1L1358 1517.5L1361.88 1520.03L1362.76 1519.24L1359.55 1517.65L1359.09 1515.36L1361.99 1516.36L1368.02 1514.86L1372.08 1519.73L1375.12 1528.95L1373.97 1535.05L1371.03 1532.28L1371.79 1535.28L1379.74 1541.65L1386.3 1543.44L1389.77 1547.34L1388.12 1555.35L1389.35 1561.27L1388.43 1562.5L1392.96 1564.98L1394.5 1568.97L1396.85 1570.72L1398.04 1574.96L1396.82 1579.32L1399.84 1587.06L1408.63 1591.07L1409.08 1596L1405.08 1604.62L1408.36 1612.66L1411.65 1615.42L1416.18 1616.7L1412.17 1630.85L1417.08 1637.28L1417.51 1642.01L1420.55 1644.5L1427.12 1644.93L1428.87 1648.75L1432.89 1651.94L1432.35 1655.45L1434.69 1657.83L1435.09 1661.96L1434.87 1664.3L1436.29 1670.28L1438.36 1672.88L1437.84 1675.39L1439.18 1677.32L1440.51 1678.05L1439.39 1681.39L1440.41 1682.45L1441.94 1680.27L1442.99 1681.37L1443.87 1683.06L1443.74 1684.49L1446.43 1688.15L1447.21 1689.15L1448.25 1694.61L1454.2 1685.57L1464.68 1679.89L1467.78 1674.31L1472.64 1655.75L1464.65 1628.92L1458.6 1625.22L1439.09 1624.1L1434.95 1622.58L1432.09 1618.19L1430.52 1609.51L1432.71 1580.45L1438.3 1586.03L1440.47 1585.92L1451.96 1578.02L1458.5 1577.12L1472.27 1578.73L1476.76 1576.67L1479.07 1572.61L1483.11 1559.31L1477.08 1546.23L1481.41 1526.19L1480.91 1521.74L1475.65 1516.11L1468.98 1515.55L1464.53 1517.6L1462.2 1518.98L1448.77 1518.73L1444.29 1520.34L1436.98 1533.13L1428.8 1559.09L1422.27 1562.07L1414.72 1561.86L1410.18 1558.71L1404.4 1549.66L1393.81 1543.2L1390.12 1538.64L1391.24 1525.74L1388.89 1514.34L1390.21 1499.01L1387.48 1494.47L1376.92 1491.01L1375.04 1488.91L1374.64 1484.74L1386.61 1473.12L1409.25 1468.29L1413.52 1458.01L1421.69 1444.74L1422.23 1437.87L1419.34 1424.58L1421.53 1418.46L1425.6 1414.45L1432.2 1413.68L1436.3 1415.56L1439.73 1419.85L1443.15 1430.91L1448.62 1435.32L1462.17 1430.53L1474.26 1431.41L1490.24 1423.78L1494.54 1424.51L1500.15 1430.3L1513.07 1457.04L1517.06 1460.11L1523.71 1460.99L1530.49 1457.84L1560.63 1431.7L1579.54 1423.27L1592.22 1412.52L1605.48 1412.03L1614.77 1407.84L1621.39 1407.27L1636.49 1411.45L1653.4 1400.9L1665.23 1396.91L1653.14 1376.05L1639.74 1357.19L1638.15 1352.87L1643.92 1328.32L1642.86 1308.08L1649.89 1298.26L1652.06 1291.5L1647.85 1253.22L1651.09 1235.32L1650.29 1230.72L1631.63 1226.12L1615.09 1229.98L1604.42 1225.99L1600.95 1219.17L1602.2 1203.67L1604.89 1195.21L1599.67 1189.58L1590.72 1186.88L1549.72 1183.98L1541.07 1178.98L1526.92 1145.83L1524.7 1129.36L1518.9 1115.47L1515.99 1101.26L1504.16 1091.36L1503.36 1082.23L1504.94 1071.65L1490.34 1069.37L1480.83 1072.1L1481.11 1072.49Z" fill="white"/>
</mask>
<g mask="url(#mask2_344_4377)">
</g>
<mask id="mask3_344_4377" style="mask-type:luminance" maskUnits="userSpaceOnUse" x="1170" y="1069" width="496" height="626">
<path d="M1481.11 1072.49L1479.27 1079.2L1482.32 1086.62L1482.54 1096.01L1480.37 1102.36L1477.14 1106.74L1442.48 1122.83L1431.82 1130.89L1432.28 1135.26L1434.45 1137.23L1449.81 1146.19L1450.85 1150.78L1449.16 1152.94L1432.5 1159.22L1425.22 1164.17L1409.92 1179.28L1382.21 1199.27L1368.69 1218.32L1363.97 1218.26L1344.37 1211.34L1330.57 1222.9L1323.71 1225.97L1309.89 1223.96L1308.13 1219.3L1310.85 1208.11L1309.7 1201.36L1303.76 1195.62L1292.27 1191.88L1290.6 1189.67L1290.48 1187.18L1298.72 1167.23L1298.15 1157.77L1295.15 1153.63L1281.28 1154.18L1250.66 1162.85L1248.66 1161.1L1247.7 1149.84L1243.14 1148.64L1228.85 1151.51L1224.36 1150.72L1219.57 1146.81L1209.92 1134.68L1203.01 1129.13L1197.05 1119.03L1194.67 1117.96L1185.63 1120.41L1170.7 1121.18L1170.69 1128.75L1173.39 1135.33L1174.06 1135.8L1174.99 1136.97L1175.14 1140.86L1179.84 1148.12L1181.87 1146.19L1182.54 1148.42L1184.39 1159.53L1182.1 1164.27L1186.12 1170.75L1186.9 1169.74L1189.48 1169.51L1188.49 1171.01L1195.17 1171.17L1195.19 1175.5L1199.63 1182.17L1198.08 1184.23L1194.62 1183.53L1195.19 1182.19L1191.38 1175.58L1187.64 1174.06L1199.51 1195.13L1200.8 1194.26L1203.49 1194.52L1200.84 1197.1L1204.16 1201.35L1205.15 1206.49L1210.38 1215.8L1210.41 1226.29L1208.86 1232.47L1210.89 1234.19L1211.84 1234.76L1212.34 1232.08L1215.73 1232.21L1214.7 1236.19L1212.26 1236.64L1210.94 1238.71L1210.86 1243.67L1203.98 1255.7L1204.81 1259.99L1202.35 1265.6L1203.99 1266.39L1205.83 1258.12L1206.75 1260.17L1204.94 1266.56L1205.58 1269.07L1202.05 1268.73L1201.28 1276.7L1198.97 1276.16L1197.57 1278.67L1196.11 1276.77L1199.23 1271.38L1195.24 1272.12L1193.46 1274.35L1194.82 1278.56L1193.65 1279.89L1194.61 1285.35L1203.73 1297.92L1207.65 1307.1L1209.91 1324.86L1212.12 1326.87L1212.84 1326.06L1214.55 1326.11L1213.8 1327.23L1216.39 1331.21L1213.76 1331.43L1214.47 1333.62L1214.04 1335.99L1217.51 1339.04L1215.35 1344.44L1211.51 1346.95L1208.96 1348.03L1208.59 1350.28L1212.08 1357.66L1214.44 1359.77L1216.7 1372.16L1221.45 1375.17L1225.11 1382.13L1224.53 1385.6L1227.99 1391.34L1231.72 1391.62L1234.1 1393.93L1233.26 1397.73L1239.09 1402.89L1240.7 1402.37L1242.62 1402.75L1241.75 1403.47L1243.27 1404.78L1242.26 1405.32L1239.7 1403.99L1241.85 1410.37L1243.51 1411.05L1241.82 1408.16L1242.32 1406.33L1246.46 1409.05L1246.9 1411.21L1245.32 1413.42L1249.87 1422.35L1254.03 1428.23L1256.93 1428.03L1258 1431.46L1255.16 1429.42L1254.45 1430.48L1257.28 1434.39L1259.25 1436.42L1262.05 1435.57L1261.43 1438.67L1264.5 1440.93L1262.75 1442.44L1267.72 1448.25L1282.41 1459.95L1290.09 1463.85L1289.34 1461.65L1284.96 1459.31L1288.29 1458.79L1294.28 1463.49L1296.48 1463.18L1296.34 1461.69L1301.85 1461.05L1306.59 1462.91L1307.98 1467.25L1312.11 1471.77L1318.76 1471.73L1318.25 1475.36L1320.15 1475.54L1323.62 1481.56L1332.22 1484.55L1348.5 1496.37L1349.63 1499.64L1348.32 1503.27L1352.07 1505.08L1352.79 1510.91L1356.86 1513.1L1358 1517.5L1361.88 1520.03L1362.76 1519.24L1359.55 1517.65L1359.09 1515.36L1361.99 1516.36L1368.02 1514.86L1372.08 1519.73L1375.12 1528.95L1373.97 1535.05L1371.03 1532.28L1371.79 1535.28L1379.74 1541.65L1386.3 1543.44L1389.77 1547.34L1388.12 1555.35L1389.35 1561.27L1388.43 1562.5L1392.96 1564.98L1394.5 1568.97L1396.85 1570.72L1398.04 1574.96L1396.82 1579.32L1399.84 1587.06L1408.63 1591.07L1409.08 1596L1405.08 1604.62L1408.36 1612.66L1411.65 1615.42L1416.18 1616.7L1412.17 1630.85L1417.08 1637.28L1417.51 1642.01L1420.55 1644.5L1427.12 1644.93L1428.87 1648.75L1432.89 1651.94L1432.35 1655.45L1434.69 1657.83L1435.09 1661.96L1434.87 1664.3L1436.29 1670.28L1438.36 1672.88L1437.84 1675.39L1439.18 1677.32L1440.51 1678.05L1439.39 1681.39L1440.41 1682.45L1441.94 1680.27L1442.99 1681.37L1443.87 1683.06L1443.74 1684.49L1446.43 1688.15L1447.21 1689.15L1448.25 1694.61L1454.2 1685.57L1464.68 1679.89L1467.78 1674.31L1472.64 1655.75L1464.65 1628.92L1458.6 1625.22L1439.09 1624.1L1434.95 1622.58L1432.09 1618.19L1430.52 1609.51L1432.71 1580.45L1438.3 1586.03L1440.47 1585.92L1451.96 1578.02L1458.5 1577.12L1472.27 1578.73L1476.76 1576.67L1479.07 1572.61L1483.11 1559.31L1477.08 1546.23L1481.41 1526.19L1480.91 1521.74L1475.65 1516.11L1468.98 1515.55L1464.53 1517.6L1462.2 1518.98L1448.77 1518.73L1444.29 1520.34L1436.98 1533.13L1428.8 1559.09L1422.27 1562.07L1414.72 1561.86L1410.18 1558.71L1404.4 1549.66L1393.81 1543.2L1390.12 1538.64L1391.24 1525.74L1388.89 1514.34L1390.21 1499.01L1387.48 1494.47L1376.92 1491.01L1375.04 1488.91L1374.64 1484.74L1386.61 1473.12L1409.25 1468.29L1413.52 1458.01L1421.69 1444.74L1422.23 1437.87L1419.34 1424.58L1421.53 1418.46L1425.6 1414.45L1432.2 1413.68L1436.3 1415.56L1439.73 1419.85L1443.15 1430.91L1448.62 1435.32L1462.17 1430.53L1474.26 1431.41L1490.24 1423.78L1494.54 1424.51L1500.15 1430.3L1513.07 1457.04L1517.06 1460.11L1523.71 1460.99L1530.49 1457.84L1560.63 1431.7L1579.54 1423.27L1592.22 1412.52L1605.48 1412.03L1614.77 1407.84L1621.39 1407.27L1636.49 1411.45L1653.4 1400.9L1665.23 1396.91L1653.14 1376.05L1639.74 1357.19L1638.15 1352.87L1643.92 1328.32L1642.86 1308.08L1649.89 1298.26L1652.06 1291.5L1647.85 1253.22L1651.09 1235.32L1650.29 1230.72L1631.63 1226.12L1615.09 1229.98L1604.42 1225.99L1600.95 1219.17L1602.2 1203.67L1604.89 1195.21L1599.67 1189.58L1590.72 1186.88L1549.72 1183.98L1541.07 1178.98L1526.92 1145.83L1524.7 1129.36L1518.9 1115.47L1515.99 1101.26L1504.16 1091.36L1503.36 1082.23L1504.94 1071.65L1490.34 1069.37L1480.83 1072.1L1481.11 1072.49Z" fill="white"/>
</mask>
<g mask="url(#mask3_344_4377)">
</g>
<path d="M1169.76 1120.93L1170.13 1120.88M1505.22 1072L1503.65 1082.58L1504.45 1091.7L1516.27 1101.61L1519.19 1115.82L1524.98 1129.71L1527.2 1146.18L1541.36 1179.33L1550.01 1184.29L1591.01 1187.18L1599.96 1189.89L1605.18 1195.51L1602.49 1203.98L1601.24 1219.48L1604.75 1226.3L1615.42 1230.29L1631.96 1226.43L1650.62 1231.03L1651.42 1235.63L1648.14 1253.53L1652.35 1291.81L1650.18 1298.57L1643.15 1308.38L1644.24 1328.63L1638.48 1353.18L1640.07 1357.5L1653.47 1376.36L1665.56 1397.22L1653.77 1401.21L1636.86 1411.76L1621.76 1407.59L1615.18 1408.16L1605.85 1412.35L1592.59 1412.83L1579.91 1423.59L1561 1432.02L1530.86 1458.15L1524.07 1461.3L1517.43 1460.42L1513.44 1457.36L1500.52 1430.61L1494.91 1424.83L1490.61 1424.1L1474.63 1431.73L1462.54 1430.85L1448.99 1435.63L1443.52 1431.22L1440.1 1420.16L1436.67 1415.87L1432.57 1413.99L1425.97 1414.76L1421.9 1418.78L1419.71 1424.89L1422.6 1438.18L1422.06 1445.06L1413.89 1458.32L1409.63 1468.57L1386.98 1473.4L1375.01 1485.02L1375.42 1489.18L1377.3 1491.28L1387.85 1494.74L1390.54 1499.28L1389.23 1514.61L1391.58 1526.01L1390.46 1538.91L1394.14 1543.51L1404.73 1549.97L1410.51 1559.02L1415.05 1562.18L1422.6 1562.38L1429.13 1559.4L1437.31 1533.44L1444.62 1520.65L1449.1 1519.04L1462.53 1519.29L1464.87 1517.88L1469.31 1515.82L1475.98 1516.38L1481.21 1522.01L1481.7 1526.46L1477.37 1546.5L1483.4 1559.57L1479.36 1572.88L1477.05 1576.94L1472.57 1578.99L1458.79 1577.39L1452.26 1578.28L1440.77 1586.19L1438.59 1586.3L1433.01 1580.72L1430.81 1609.77L1432.38 1618.45L1435.24 1622.85L1439.38 1624.37L1458.89 1625.49L1464.95 1629.15L1472.94 1655.98L1468.07 1674.53L1464.97 1680.12L1454.5 1685.8L1448.55 1694.84L1447.51 1689.37L1446.76 1688.38L1444.07 1684.72L1444.21 1683.29L1443.29 1681.6L1442.24 1680.5L1440.71 1682.67L1439.69 1681.62L1440.81 1678.28L1439.48 1677.55L1438.14 1675.62L1438.66 1673.11L1436.59 1670.51L1435.16 1664.53L1435.39 1662.18L1434.98 1658.06L1432.65 1655.68L1433.19 1652.16L1429.17 1648.97L1427.41 1645.16L1420.85 1644.73L1417.85 1642.24L1417.42 1637.52L1412.51 1631.08L1416.51 1616.93L1411.99 1615.65L1408.73 1612.9L1405.46 1604.86L1409.45 1596.23L1409.01 1591.3L1400.22 1587.3L1397.2 1579.56L1398.42 1575.19L1397.23 1570.95L1394.87 1569.21L1393.33 1565.21L1388.81 1562.74L1389.73 1561.5L1388.49 1555.58L1390.15 1547.57L1386.68 1543.67L1380.12 1541.88L1372.17 1535.51L1371.41 1532.52L1374.39 1535.29L1375.54 1529.19L1372.5 1519.97L1368.44 1515.1L1362.41 1516.6L1359.5 1515.6L1359.97 1517.89L1363.18 1519.48L1362.3 1520.27L1358.42 1517.74L1357.28 1513.34L1353.21 1511.15L1352.48 1505.32L1348.73 1503.51L1350.04 1499.88L1348.92 1496.61L1332.64 1484.79L1324.03 1481.8L1320.57 1475.78L1318.66 1475.6L1319.17 1471.97L1312.52 1472.01L1308.39 1467.49L1307.01 1463.15L1302.26 1461.29L1296.76 1461.93L1296.89 1463.42L1294.7 1463.73L1288.71 1459.03L1285.38 1459.51L1289.76 1461.85L1290.51 1464.01L1282.84 1460.11L1268.15 1448.41L1263.18 1442.6L1264.93 1441.09L1261.86 1438.83L1262.48 1435.73L1259.67 1436.58L1257.67 1434.55L1254.84 1430.63L1255.54 1429.58L1258.39 1431.61L1257.32 1428.19L1254.41 1428.39L1250.25 1422.5L1245.71 1413.58L1247.28 1411.37L1246.85 1409.2L1242.71 1406.48L1242.21 1408.32L1243.89 1411.2L1242.24 1410.52L1240.09 1404.15L1242.64 1405.48L1243.66 1404.93L1242.14 1403.63L1243.01 1402.91L1241.08 1402.52L1239.47 1403.05L1233.64 1397.89L1234.49 1394.08L1232.11 1391.77L1228.37 1391.49L1224.92 1385.76L1225.45 1382.28L1221.8 1375.33L1217.04 1372.31L1214.79 1359.92L1212.43 1357.81L1208.93 1350.43L1209.31 1348.18L1211.85 1347.11L1215.66 1344.59L1217.86 1339.19L1214.39 1336.14L1214.82 1333.78L1214.11 1331.59L1216.73 1331.36L1214.15 1327.39L1214.9 1326.26L1213.18 1326.21L1212.46 1327.02L1210.25 1325.01L1208 1307.26L1204.07 1298.07L1194.95 1285.5L1193.99 1280.05L1195.16 1278.72L1193.77 1274.5L1195.54 1272.27L1199.54 1271.53L1196.42 1276.92L1197.88 1278.82L1199.28 1276.31L1201.59 1276.85L1202.35 1268.88L1205.92 1269.26L1205.28 1266.76L1207.06 1260.36L1206.13 1258.31L1204.3 1266.58L1202.61 1265.78L1205.07 1260.17L1204.25 1255.85L1211.13 1243.82L1211.2 1238.86L1212.52 1236.78L1214.97 1236.34L1215.99 1232.35L1212.6 1232.23L1212.1 1234.9L1211.16 1234.33L1209.12 1232.61L1210.68 1226.44L1210.64 1215.94L1205.41 1206.63L1204.42 1201.49L1201.11 1197.25L1203.76 1194.7L1201.06 1194.44L1199.78 1195.28L1187.87 1174.2L1191.61 1175.72L1195.41 1182.33L1194.85 1183.68L1198.3 1184.37L1199.82 1182.31L1195.38 1175.64L1195.35 1171.31L1188.68 1171.15L1189.67 1169.64L1187.08 1169.88L1186.3 1170.88L1182.28 1164.41L1184.58 1159.67L1182.76 1148.56L1182.1 1146.34L1180.07 1148.26L1175.36 1141L1175.22 1137.11L1174.29 1135.94L1173.65 1135.47L1170.96 1128.89L1170.97 1121.32L1185.89 1120.56L1194.94 1118.1L1197.28 1119.17L1203.24 1129.27L1210.15 1134.82L1219.79 1146.95L1224.58 1150.86L1229.07 1151.65L1243.36 1148.78L1247.93 1149.98L1248.89 1161.24L1250.88 1162.99L1281.51 1154.33L1295.37 1153.78L1298.38 1157.91L1298.95 1167.37L1290.7 1187.36L1290.82 1189.85L1292.49 1192.06L1303.99 1195.8L1309.93 1201.5L1311.04 1208.25L1308.32 1219.44L1310.08 1224.09L1323.9 1226.1L1330.76 1223.04L1344.56 1211.47L1364.15 1218.44L1368.87 1218.49L1382.39 1199.45L1410.14 1179.46L1425.44 1164.35L1432.72 1159.4L1449.38 1153.12L1451.07 1150.96L1450.03 1146.37L1434.68 1137.41L1432.5 1135.44L1432.04 1131.07L1442.71 1123.01L1477.32 1106.91L1480.55 1102.54L1482.72 1096.14L1482.51 1086.75L1479.45 1079.33L1481.3 1072.62L1490.82 1069.85L1505.41 1072.14L1505.22 1072Z" stroke="#00AFA9" stroke-width="1.29971" stroke-linecap="round" stroke-linejoin="round"/>
</g>
</g>
</g>
<path d="M868.093 478.622L883.663 483.465L891.335 489.424L897.392 496.705L900.96 501.751L919.954 526.764L925.229 528.751L930.8 527.802L940.861 523.622L954.331 520.532L968.019 518.065L983.818 520.346L997.968 525.917L1024.16 528.253L1028.99 526.527L1036.97 508.006L1040.84 503.478L1045.71 501.3L1054.55 492.516L1056.92 491.289L1061.71 494.226L1063.08 499.26L1061.58 521.301L1062.47 534.757L1064.18 542.851L1066.46 547.876L1077.1 558.799L1084.49 562.537L1094.62 565.95L1125.71 569.714L1133.09 564.386L1135.53 564.264L1140.25 568.145L1142.64 569.613L1147.68 568.7L1149.98 569.365L1152.37 576.941L1156.3 580.268L1161.59 580.019L1172.52 574.311L1182.91 571.332L1187.92 572.844L1192.19 576.615L1195.64 580.666L1202.88 582.307L1215.38 584.569L1220.1 585.339L1235.27 589.431L1244.27 596.438L1248.22 601.361L1255.31 603.446L1257.59 604.413L1261.63 611.846L1264.02 613.277L1271.23 616.356L1275.51 621.418L1278.66 629.126L1285.38 657.888L1286.56 662.907L1286.96 665.744L1291.18 677.743L1302.6 684.399L1305.09 685.496L1314.15 691.18L1315.19 693.496L1314.26 700.899L1300.57 713.494L1290.92 724.911L1283.64 748.719L1277.52 756L1275.82 752.914L1272.09 748.501L1269.72 747.186L1265.04 747.405L1232.95 753.467L1212.81 754.959L1205.89 753.683L1198.5 748.048L1193.85 744.249L1186.9 739.822L1179.67 737.993L1172.47 735.406L1169.57 725.934L1165.67 722.343L1163.39 722.437L1162.08 724.654L1163.03 729.276L1164.58 733.868L1162.12 735.809L1143.32 728.032L1138.24 729.018L1133.09 732.957L1128.34 737.154L1123.52 740.776L1121.24 740.796L1118.96 739.754L1118.38 737.434L1119.73 730.062L1119.29 727.754L1112.34 723.365L1107.84 720.146L1107.41 717.724L1108.04 712.84L1104.99 709.008L1088.51 708.232L1083.86 707.43L1081.38 705.689L1078.05 700.927L1070.62 687.777L1068.92 682.605L1066.49 672.903L1063.12 668.214L1060.77 667.241L1056 668.63L1038.02 678.742L1032.69 680.013L1025.29 679.043L1018.11 673.651L1005.98 668.496L1001.23 669.658L998.872 670.696L993.813 673.922L983.913 678.492L979.043 680.215L973.927 682.678L968.937 683.974L959.376 686.028L956.273 690.5L956.557 692.797L959.026 694.272L968.587 692.217L973.323 692.798L977.71 697.033L980.692 709.925L978.077 737.307L980.166 745.391L983.217 750.246L988.112 754.292L1002.74 758.495L1007.46 761.427L1008.55 765.036L1007.73 770.437L998.005 787.387L997.472 794.516L999.514 799.676L1004.67 809.43L1007.1 819.019L1007.91 823.822L1013.93 818.392L1018.64 817.909L1030.91 825.692L1037.74 829.274L1039.99 831.187L1041.63 838.138L1043.68 843.184L1050.31 848.876L1061.68 859.133L1067.12 871.071L1072.5 890.477L1074.78 891.444L1084.5 891.904L1087.93 896.219L1087.14 903.254L1086.82 905.506L1084.17 920.102L1084.7 951.587L1085.03 961.361L1084.34 966.126L1081.48 970.844L1076.55 973.358L1068.66 973.413L1061.59 972.013L1056.83 973.251L1055.16 975.401L1051.56 980.936L1049.12 983.106L1041.86 985.863L1024.53 987.262L1021.62 991.748L1019.89 1001.67L1014.98 992.769L1015.4 990.639L1012.83 991.622L1011.11 986.601L1002.62 981.946L1003.64 980.58L1001.29 975.473L1003.85 975.665L1003.72 971.899L1000.91 970.817L1002.18 972.088L999.778 973.843L995.71 968.38L997.972 966.539L1002.11 967.493L999.393 968.845L1003.06 969.992L1004.17 966.395L1007.72 963.55L1005.63 958.956L1009.76 949.439L1005.36 940.728L1007.82 936.246L1006.07 928.225L991.832 912.14L987.701 901.438L987.983 896.642L979.726 889.88L979.868 884.428L977.006 883.645L976.379 877.302L973.137 872.47L966.673 869.635L959.894 859.835L958.679 859.858L960.267 864.491L959.125 865.05L957.239 864.909L955.626 862.134L952.872 861.928L949.504 859.286L950.089 856.03L948.597 857.208L947.239 855.589L945.479 849.692L942.553 848.753L947.575 840.935L949.582 833.878L948.887 827.946L943.416 824.503L934.92 823.982L934.049 823.462L926.876 817.425L923.587 806.103L914.226 790.762L907.645 773.239L899.608 759.476L893.431 752.793L890.319 746.719L884.966 743.74L879.521 730.815L879.045 725.507L869.869 715.301L863.978 711.902L863.102 709.409L853.722 699.908L852.42 693.476L855.543 690.257L854.593 686.734L847.61 675.098L839.797 671.025L831.906 661.901L831.383 657.727L825.942 650.341L824.755 640.845L820.259 635.009L819.123 628.893L816.024 623.161L813.416 620.5L807.743 618.749L807.18 611.045L799.563 604.861L797.582 599.896L787.434 594.586L786.847 592.797L793.556 590.833L793.349 589.035L787.213 587.893L785.149 586.07L781.154 586.227L775.962 581.097L774.243 581.765L771.497 579.929L771.513 580.727L773.071 583.233L769.692 581.236L762.3 585.235L755.397 584.72L753.752 585.924L753.061 582.99L756.185 581.289L751.079 581.59L749.292 585.705L748.48 584.392L750.442 580.973L748.717 581.224L747.033 583.45L743.922 582.952L745.262 586.845L742.338 586.892L743.708 581.76L739.581 581.148L740.565 580.16L739.239 577.595L738.482 579.094L736.276 578.17L732.773 582.915L734.567 586.312L732.488 586.725L730.301 591.114L727.942 586.651L728.577 582.716L726.96 582.026L724.645 583.56L724.674 581.134L730.715 573.392L733.665 574.523L732.387 571.317L734.23 570.014L736.595 562.224L735.552 561.957L745.803 536.967L749.345 531.693L748.555 520.937L746.23 514.998L752.214 497.351L752.36 488.296L762.257 488.846L767.289 486.984L774.922 489.413L790.994 491.6L796.897 491.283L804.01 484.417L814.022 481.903L832.51 478.657L839.704 479.346L849.871 477.299L860.224 476.82L868.223 478.404L868.093 478.622ZM720.559 592.548L722.026 594.744L718.235 596.244L716.866 595.269L716.93 596.449L720.301 599.053L726.217 598.054L725.88 600.532L729.465 603.835L722.142 604.881L717.044 601.01L716.061 594.374L720.554 592.624L720.559 592.548ZM736.945 599.159L739.633 599.739L741.445 604.426L738.312 605.747L736.085 601.029L734.713 601.116L734.524 603.644L732.69 603.317L733.426 600.565L736.945 599.159ZM935.311 864.447L937.351 866.079L935.06 866.287L931.012 862.077L930.978 856.954L932.388 862.446L935.604 860.524L935.314 864.409L935.311 864.447ZM927.233 870.519L931.453 875.462L926.69 875.751L924.76 872.649L927.195 870.517L927.233 870.519ZM970.868 877.459L972.133 878.805L971.345 880.719L969.439 878.301L970.905 877.462L970.868 877.459ZM969.611 880.058L972.45 887.25L969.308 884.626L969.649 880.061L969.611 880.058ZM963.414 881.264L965.135 884.124L962.504 885.824L961.18 883.753L963.414 881.264ZM974.482 887.971L977.241 890.643L973.167 890.338L974.482 887.971ZM976.952 892.48L978.926 892.969L980.075 896.886L981.748 896.328L980.95 898.885L980.3 897.433L976.462 897.526L977.734 894.207L975.671 892.877L976.915 892.477L976.952 892.48ZM962.966 896.404L965.787 898.246L967.085 897.622L969.999 905.843L967.837 905.834L968.105 902.25L961.874 898.826L963.003 896.407L962.966 896.404ZM987.069 949.489L990.745 952.078L990.747 954.088L986.201 951.966L987.11 949.454L987.069 949.489Z" fill="#275A67"/>
<mask id="mask4_344_4377" style="mask-type:luminance" maskUnits="userSpaceOnUse" x="715" y="476" width="601" height="526">
<path d="M986.129 951.921L990.674 954.044L990.673 952.033L986.997 949.445L986.089 951.956L986.129 951.921ZM961.805 898.744L968.036 902.168L967.768 905.752L969.929 905.761L967.016 897.54L965.718 898.164L962.896 896.322L961.767 898.741L961.805 898.744ZM975.677 892.801L977.74 894.131L976.468 897.45L980.306 897.357L980.956 898.809L981.754 896.251L980.081 896.809L978.933 892.892L976.921 892.4L975.677 892.801ZM973.098 890.256L977.172 890.56L974.413 887.889L973.098 890.256ZM961.145 883.711L962.47 885.783L965.101 884.083L963.38 881.223L961.145 883.711ZM969.236 884.581L972.378 887.206L969.539 880.014L969.198 884.578L969.236 884.581ZM969.37 878.219L971.275 880.637L972.063 878.723L970.798 877.377L969.332 878.216L969.37 878.219ZM924.763 872.61L926.694 875.713L931.457 875.424L927.236 870.481L924.801 872.613L924.763 872.61ZM930.975 862.074L935.023 866.283L937.276 866.072L935.236 864.44L935.526 860.555L932.348 862.48L930.938 856.988L930.972 862.111L930.975 862.074ZM733.392 600.523L732.655 603.275L734.49 603.602L734.678 601.075L736.051 600.988L738.277 605.706L741.411 604.385L739.599 599.697L736.914 599.08L733.395 600.486L733.392 600.523ZM716.029 594.295L717.013 600.931L722.11 604.801L729.433 603.755L725.849 600.453L726.148 597.972L720.232 598.971L716.861 596.367L716.797 595.187L718.166 596.162L721.954 594.7L720.487 592.504L715.994 594.254L716.029 594.295ZM1054.56 492.477L1045.71 501.261L1040.84 503.439L1036.98 507.967L1028.99 526.489L1024.16 528.214L997.933 525.875L983.786 520.266L967.987 517.986L954.299 520.453L940.83 523.543L930.731 527.72L925.16 528.669L919.884 526.682L900.89 501.669L897.322 496.623L891.266 489.342L883.594 483.383L868.024 478.54L860.028 476.918L849.674 477.397L839.507 479.444L832.314 478.755L813.788 481.998L803.776 484.513L796.663 491.378L790.794 491.736L774.723 489.549L767.09 487.12L762.058 488.982L752.16 488.432L752.015 497.487L746.031 515.134L748.356 521.073L749.146 531.829L745.603 537.103L735.353 562.093L736.395 562.36L734.03 570.149L732.188 571.453L733.466 574.659L730.478 573.525L724.437 581.267L724.408 583.693L726.722 582.159L728.34 582.849L727.705 586.784L730.064 591.247L732.251 586.858L734.33 586.445L732.536 583.048L736.004 578.263L738.211 579.186L738.967 577.687L740.293 580.252L739.309 581.241L743.436 581.852L742.066 586.985L745.028 586.941L743.688 583.047L746.799 583.545L748.483 581.319L750.208 581.069L748.246 584.488L749.058 585.8L750.845 581.685L755.913 581.381L752.789 583.082L753.48 586.017L755.128 584.774L762.031 585.29L769.421 581.328L772.799 583.326L771.241 580.82L771.225 580.022L773.971 581.858L775.69 581.19L780.885 586.282L784.88 586.125L786.944 587.948L793.079 589.089L793.286 590.888L786.577 592.852L787.164 594.641L797.313 599.951L799.294 604.916L806.911 611.099L807.474 618.804L813.146 620.555L815.755 623.216L818.854 628.947L819.99 635.064L824.485 640.9L825.673 650.395L831.114 657.782L831.637 661.955L839.528 671.08L847.344 675.115L854.326 686.751L855.277 690.274L852.151 693.53L853.453 699.962L862.833 709.464L863.709 711.957L869.6 715.355L878.776 725.562L879.252 730.87L884.696 743.795L890.05 746.774L893.162 752.848L899.338 759.531L907.379 773.256L913.959 790.779L923.32 806.12L926.609 817.442L933.783 823.479L934.616 823.996L943.112 824.517L948.583 827.96L949.275 833.929L947.268 840.987L942.284 848.808L945.21 849.747L946.969 855.644L948.331 857.225L949.86 856.05L949.275 859.306L952.644 861.948L955.397 862.153L957.013 864.891L958.9 865.032L960.036 864.548L958.41 859.913L959.625 859.89L966.403 869.69L972.868 872.525L976.11 877.357L976.774 883.703L979.636 884.486L979.495 889.937L987.752 896.699L987.469 901.496L991.639 912.201L1005.88 928.286L1007.62 936.344L1005.17 940.826L1009.56 949.537L1005.44 959.054L1007.52 963.648L1003.97 966.53L1002.86 970.127L999.193 968.981L1001.95 967.632L997.81 966.677L995.548 968.519L999.616 973.982L1002.02 972.227L1000.75 970.956L1003.55 972.038L1003.69 975.841L1001.12 975.649L1003.48 980.718L1002.46 982.084L1010.95 986.739L1012.62 991.795L1015.2 990.812L1014.74 992.94L1019.65 1001.84L1021.38 991.918L1024.29 987.432L1041.62 986.034L1048.88 983.276L1051.32 981.107L1054.92 975.572L1056.63 973.424L1061.39 972.187L1068.45 973.587L1076.35 973.532L1081.32 971.02L1084.17 966.302L1084.87 961.537L1084.54 951.764L1084.01 920.278L1086.65 905.682L1086.97 903.43L1087.76 896.396L1084.37 892.083L1074.65 891.623L1072.38 890.656L1067 871.25L1061.55 859.35L1050.18 849.093L1043.55 843.401L1041.5 838.354L1039.86 831.404L1037.65 829.494L1030.82 825.911L1018.58 818.131L1013.88 818.614L1007.86 824.044L1007 819.276L1004.57 809.688L999.42 799.933L997.378 794.774L997.91 787.644L1007.64 770.695L1008.46 765.294L1007.36 761.684L1002.65 758.753L988.017 754.549L983.123 750.504L980.071 745.648L977.982 737.564L980.597 710.183L977.615 697.291L973.266 693.059L968.53 692.477L958.969 694.532L956.5 693.058L956.216 690.761L959.32 686.289L968.883 684.196L973.873 682.9L978.988 680.437L983.859 678.715L993.759 674.144L998.817 670.919L1001.17 669.881L1005.92 668.718L1018.06 673.873L1025.24 679.228L1032.64 680.198L1037.97 678.927L1055.95 668.815L1060.72 667.426L1063.07 668.399L1066.44 673.088L1068.86 682.79L1070.56 687.962L1078 701.112L1081.33 705.874L1083.81 707.615L1088.46 708.417L1104.94 709.193L1107.99 713.025L1107.36 717.909L1107.82 720.333L1112.32 723.552L1119.28 727.941L1119.71 730.25L1118.37 737.622L1118.95 739.941L1121.22 740.984L1123.54 740.967L1128.36 737.344L1133.11 733.185L1138.3 729.248L1143.38 728.263L1162.22 736.043L1164.68 734.102L1163.09 729.507L1162.14 724.885L1163.45 722.668L1165.73 722.536L1169.64 726.128L1172.53 735.599L1179.74 738.186L1186.96 740.015L1193.91 744.442L1198.56 748.241L1205.95 753.876L1212.87 755.152L1233.01 753.66L1265.1 747.599L1269.78 747.38L1272.15 748.694L1275.88 753.108L1277.58 756.231L1283.7 748.913L1290.98 725.142L1300.63 713.725L1314.32 701.13L1315.25 693.727L1314.18 691.37L1305.12 685.686L1302.62 684.589L1291.21 677.933L1286.98 665.934L1286.55 663.095L1285.37 658.076L1278.64 629.313L1275.5 621.606L1271.21 616.582L1263.97 613.499L1261.57 612.068L1257.54 604.636L1255.26 603.669L1248.17 601.584L1244.21 596.661L1235.21 589.654L1220.04 585.561L1215.32 584.791L1202.82 582.53L1195.59 580.889L1192.13 576.838L1187.86 573.067L1182.85 571.555L1172.47 574.534L1161.53 580.241L1156.24 580.491L1152.32 577.163L1149.92 569.588L1147.62 568.922L1142.58 569.836L1140.19 568.367L1135.47 564.487L1133.04 564.608L1125.66 569.937L1094.57 566.172L1084.43 562.76L1077.01 559.019L1066.41 548.099L1064.13 543.073L1062.42 534.98L1061.53 521.523L1063.02 499.482L1061.66 494.449L1056.87 491.512L1054.5 492.776L1054.56 492.477Z" fill="white"/>
</mask>
<g mask="url(#mask4_344_4377)">
<path d="M396.702 824.963L924.154 1357.49L927.795 1357.5L396.708 821.322L396.702 824.963Z" fill="#BABABA"/>
<path d="M396.826 797.925L951.19 1357.61L954.831 1357.62L396.832 794.284L396.826 797.925Z" fill="#BABABA"/>
<path d="M396.949 770.89L978.227 1357.74L981.868 1357.75L396.956 767.249L396.949 770.89Z" fill="#BABABA"/>
<path d="M397.072 743.853L1005.26 1357.86L1008.9 1357.87L397.079 740.212L397.072 743.853Z" fill="#BABABA"/>
<path d="M397.196 716.817L1032.34 1357.99L1035.98 1358.03L397.202 713.176L397.196 716.817Z" fill="#BABABA"/>
<path d="M397.321 689.742L1059.37 1358.11L1063.01 1358.16L397.366 686.104L397.321 689.742Z" fill="#BABABA"/>
<path d="M397.445 662.706L1086.41 1358.27L1090.05 1358.28L397.489 659.067L397.445 662.706Z" fill="#BABABA"/>
<path d="M397.607 635.671L1113.44 1358.4L1117.09 1358.4L397.613 632.03L397.607 635.671Z" fill="#BABABA"/>
<path d="M397.73 608.636L1140.48 1358.52L1144.12 1358.53L397.737 604.995L397.73 608.636Z" fill="#BABABA"/>
<path d="M397.853 581.598L1167.52 1358.64L1171.16 1358.65L397.86 577.957L397.853 581.598Z" fill="#BABABA"/>
<path d="M397.976 554.562L1194.55 1358.77L1198.19 1358.77L397.982 550.921L397.976 554.562Z" fill="#BABABA"/>
<path d="M398.099 527.525L1221.59 1358.89L1225.27 1358.94L398.106 523.884L398.099 527.525Z" fill="#BABABA"/>
<path d="M398.223 500.49L1248.66 1359.02L1252.3 1359.06L398.229 496.849L398.223 500.49Z" fill="#BABABA"/>
<path d="M398.35 473.415L1275.7 1359.18L1279.34 1359.18L398.394 469.776L398.35 473.415Z" fill="#BABABA"/>
<path d="M398.473 446.378L1302.73 1359.3L1306.38 1359.31L398.518 442.74L398.473 446.378Z" fill="#BABABA"/>
<path d="M398.635 419.343L1329.77 1359.42L1333.41 1359.43L398.641 415.702L398.635 419.343Z" fill="#BABABA"/>
<path d="M398.758 392.308L1356.81 1359.55L1360.45 1359.55L398.764 388.667L398.758 392.308Z" fill="#BABABA"/>
</g>
<path d="M996.066 968.178L1000.93 973.094L1002.02 972.302L1000.71 971.029L1003.55 972.113L1003.69 975.841L1021.14 993.494L1021.41 991.997L1022.14 990.838L1001.16 969.621L999.227 969.022L1000.13 968.596L998.436 966.914L997.841 966.756L996.066 968.178Z" fill="#BABABA"/>
<path d="M1008.04 953.105L1040.81 986.164L1041.69 986.078L1043.64 985.352L1009.18 950.535L1008.08 953.07L1008.04 953.105ZM926.671 870.933L931.152 875.44L931.453 875.463L927.198 870.479L926.671 870.933Z" fill="#BABABA"/>
<path d="M987.422 901.607L989.646 907.387L1055.99 974.363L1056.66 973.503L1058.33 973.058L987.431 901.493L987.419 901.644L987.422 901.607ZM975.676 892.801L977.739 894.131L977.41 894.979L979.774 897.356L980.308 897.32L980.763 898.34L981.01 898.586L981.756 896.214L980.083 896.772L978.934 892.855L976.961 892.366L975.717 892.766L975.676 892.801ZM973.097 890.257L976.568 890.516L974.239 888.18L973.06 890.254L973.097 890.257ZM969.235 884.582L972.377 887.206L971.805 885.722L969.336 883.224L969.235 884.582Z" fill="#BABABA"/>
<path d="M948.118 838.244L1080.24 971.661L1081.35 971.099L1082.09 969.864L948.898 835.419L948.078 838.279L948.118 838.244ZM926.18 816.083L932.635 822.597L933.777 823.555L934.611 824.072L937.931 824.32L924.672 810.888L926.183 816.046L926.18 816.083Z" fill="#BABABA"/>
<path d="M893.193 752.927L899.37 759.609L902.562 765.12L1084.53 948.805L1084.47 945.083L892.2 750.994L893.193 752.927ZM884.731 743.836L885.605 744.318L884.477 743.172L884.769 743.838L884.731 743.836ZM740.101 601.101L739.558 599.733L738.513 599.503L740.101 601.101ZM727.664 586.82L729.659 590.572L730.154 591.064L731.361 588.613L727.939 585.171L727.664 586.82ZM724.367 583.728L725.682 582.878L724.412 581.607L724.367 583.728Z" fill="#BABABA"/>
<path d="M854.398 686.795L855.32 690.202L1084.09 921.158L1084.08 920.322L1084.52 917.928L852.648 683.82L854.439 686.761L854.398 686.795ZM839.562 671.121L840.474 671.606L836.488 667.591L839.559 671.159L839.562 671.121ZM753.552 586.061L754.801 585.092L752.861 583.126L753.552 586.061ZM734.621 568.336L748.13 581.976L748.592 581.366L750.318 581.116L749.229 583.007L750.04 583.826L750.958 581.695L751.491 581.659L735.514 565.519L734.661 568.301L734.621 568.336Z" fill="#BABABA"/>
<path d="M1082.1 891.989L1087.71 897.643L1087.8 896.398L1084.44 892.088L1082.14 891.992L1082.1 891.989ZM1011.56 820.754L1069.19 878.924L1067.79 873.85L1013.51 819.041L1011.6 820.757L1011.56 820.754ZM799.363 604.997L806.981 611.18L807.229 614.461L1006.13 815.266L1004.86 810.354L797.995 601.481L799.398 605.037L799.363 604.997ZM786.647 592.932L787.015 594.098L788.073 595.163L795.631 599.104L788.859 592.263L786.65 592.895L786.647 592.932ZM741.231 547.89L774.704 581.685L775.759 581.27L780.952 586.4L782.931 586.32L742.296 545.314L741.231 547.89Z" fill="#BABABA"/>
<path d="M748.941 528.476L1000.82 782.741L1002.13 780.45L748.665 524.549L748.941 528.476Z" fill="#BABABA"/>
<path d="M1007.78 762.626L1007.48 761.655L1005.74 760.577L1007.75 762.623L1007.78 762.626ZM750.297 502.707L978.541 733.13L978.867 729.778L751.223 499.97L750.297 502.707Z" fill="#BABABA"/>
<path d="M965.792 693.069L980.147 707.57L979.063 702.785L968.834 692.462L968.683 692.451L965.792 693.069ZM763.26 488.617L959.267 686.474L959.441 686.184L962.062 685.621L765.95 487.642L763.298 488.619L763.26 488.617Z" fill="#BABABA"/>
<path d="M793.226 491.69L979.885 680.125L982.572 679.188L796.655 491.491L793.226 491.69Z" fill="#BABABA"/>
<path d="M813.858 482.08L811.268 482.721L998.137 671.399L998.971 670.892L1000.58 670.178L814.203 482.03L813.858 482.08Z" fill="#BABABA"/>
<path d="M1035.03 679.656L836.565 479.225L1035.08 679.621L1035.03 679.656Z" fill="#BABABA"/>
<path d="M1033.57 680.002L1036.5 679.273L838.558 479.45L834.53 479.035L1033.57 680.002Z" fill="#BABABA"/>
<path d="M1052.94 670.525L861.516 477.296L1052.93 670.563L1052.94 670.525Z" fill="#BABABA"/>
<path d="M1118.45 737.515L1118.77 738.866L1120.35 740.464L1121.31 740.914L1123.62 740.898L1124.06 740.551L1118.88 735.309L1118.45 737.552L1118.45 737.515ZM1070.68 687.896L1073.8 693.439L1088.58 708.351L1092.39 708.522L1070.03 685.951L1070.68 687.896ZM859.451 477.028L1051.79 671.197L1054.12 669.893L863.798 477.732L860.098 477L859.489 477.03L859.451 477.028Z" fill="#BABABA"/>
<path d="M934.914 526.06L1137.02 730.101L1138.35 729.1L1139.46 728.88L937.499 524.963L934.914 526.06Z" fill="#BABABA"/>
<path d="M1172.58 735.414L1173.03 735.561L1172.46 734.988L1172.59 735.377L1172.58 735.414ZM956.028 520.165L1163.07 729.204L1162.16 724.697L959.064 519.634L955.987 520.2L956.028 520.165Z" fill="#BABABA"/>
<path d="M1216.97 754.624L985.589 521.008L1217.01 754.626L1216.97 754.624Z" fill="#BABABA"/>
<path d="M1215.29 754.764L1218.69 754.525L988.537 522.177L983.784 520.304L982.959 520.167L1215.29 754.764Z" fill="#BABABA"/>
<path d="M1239.69 752.186L1242.73 751.617L1021.18 527.954L1017.23 527.62L1239.69 752.186Z" fill="#BABABA"/>
<path d="M1033.22 516.601L1262.35 747.886L1265.16 747.375L1265.42 747.357L1080.21 560.358L1077.11 558.798L1066.5 547.878L1065.36 545.403L1034.32 514.066L1033.22 516.601Z" fill="#BABABA"/>
<path d="M1285.22 743.829L1286.07 741.048L1115.11 568.465L1110.97 567.966L1285.18 743.864L1285.22 743.829ZM1045.7 501.298L1045.19 501.525L1061.81 518.319L1062.06 514.886L1047.14 499.85L1045.7 501.298Z" fill="#BABABA"/>
<path d="M1134.35 564.364L1292.08 723.592L1293.75 721.63L1143.1 569.532L1142.64 569.649L1140.24 568.18L1135.53 564.3L1134.35 564.364Z" fill="#BABABA"/>
<path d="M1172.52 574.311L1171.61 574.812L1305.01 709.462L1306.89 707.706L1174.26 573.834L1172.52 574.311Z" fill="#BABABA"/>
<path d="M1314.55 691.929L1314.19 691.144L1313.07 690.453L1314.55 691.929ZM1286.76 663.869L1286.6 662.871L1285.74 659.203L1211.03 583.788L1206.62 583.003L1286.75 663.907L1286.76 663.869Z" fill="#BABABA"/>
<path d="M1278.34 628.229L1275.81 622.009L1269.46 615.617L1264.02 613.314L1262.82 612.617L1278.34 628.267L1278.34 628.229ZM1261.06 610.779L1257.59 604.412L1255.31 603.445L1253.2 602.832L1261.06 610.779Z" fill="#BABABA"/>
<circle cx="784.178" cy="607.984" r="34.7421" fill="#CDDC29" fill-opacity="0.2"/>
<circle cx="784.178" cy="607.983" r="35.034" fill="#CDDC29"/>
<path d="M563.581 631.69V624.275C563.581 623.469 563.47 622.705 563.247 621.983C563.053 621.261 562.747 620.636 562.331 620.109C561.942 619.553 561.442 619.123 560.831 618.817C560.248 618.512 559.568 618.359 558.79 618.359C557.901 618.359 557.137 618.526 556.499 618.859C555.888 619.192 555.374 619.651 554.957 620.234C554.569 620.817 554.277 621.497 554.083 622.275C553.916 623.053 553.833 623.9 553.833 624.816C553.833 627.205 554.36 628.954 555.416 630.065C556.499 631.148 558.179 631.69 560.456 631.69H563.581ZM543.876 641.188C544.765 641.188 545.57 641.077 546.292 640.855C547.014 640.66 547.639 640.313 548.167 639.813C548.722 639.313 549.139 638.661 549.417 637.855C549.722 637.05 549.875 636.05 549.875 634.856V626.024C549.875 624.191 550.097 622.608 550.542 621.275C551.014 619.914 551.666 618.79 552.499 617.901C553.333 617.012 554.319 616.346 555.457 615.901C556.624 615.457 557.915 615.235 559.331 615.235C560.553 615.235 561.65 615.429 562.622 615.818C563.622 616.179 564.469 616.762 565.164 617.568C565.858 618.345 566.386 619.359 566.747 620.609C567.135 621.831 567.33 623.303 567.33 625.024V635.022H559.748C558.165 635.022 556.888 634.884 555.915 634.606C554.971 634.328 554.221 633.912 553.666 633.356C553.694 633.495 553.721 633.634 553.749 633.773C553.777 633.912 553.791 634.05 553.791 634.189C553.819 634.3 553.833 634.425 553.833 634.564C553.833 636.425 553.555 638.036 552.999 639.397C552.444 640.757 551.694 641.868 550.75 642.729C549.833 643.618 548.75 644.271 547.501 644.687C546.251 645.132 544.932 645.354 543.543 645.354L543.876 641.188ZM576.947 645.395C576.142 645.395 575.239 645.354 574.239 645.27C573.267 645.187 572.448 645.09 571.781 644.979L571.49 640.855C572.434 641.077 573.392 641.257 574.364 641.396C575.364 641.563 576.35 641.646 577.322 641.646C582.543 641.646 585.195 639.438 585.279 635.022H581.863C580.113 635.022 578.627 634.759 577.405 634.231C576.183 633.676 575.184 632.967 574.406 632.106C573.656 631.218 573.101 630.218 572.74 629.107C572.406 627.968 572.24 626.802 572.24 625.608C572.24 624.219 572.462 622.9 572.906 621.65C573.378 620.4 574.045 619.303 574.906 618.359C575.795 617.387 576.864 616.623 578.113 616.068C579.391 615.512 580.835 615.235 582.446 615.235C583.696 615.235 584.82 615.29 585.82 615.401C586.82 615.512 587.889 615.665 589.028 615.86V631.69H593.777V635.022H588.986C588.931 636.217 588.695 637.425 588.278 638.647C587.862 639.869 587.195 640.98 586.279 641.979C585.362 642.979 584.14 643.798 582.613 644.437C581.085 645.076 579.197 645.395 576.947 645.395ZM585.279 631.69V618.651C585.057 618.595 584.793 618.554 584.487 618.526C584.182 618.47 583.862 618.442 583.529 618.442C583.224 618.415 582.932 618.401 582.654 618.401C582.377 618.373 582.154 618.359 581.988 618.359C581.377 618.359 580.724 618.498 580.03 618.776C579.335 619.026 578.711 619.414 578.155 619.942C577.6 620.47 577.128 621.136 576.739 621.942C576.378 622.747 576.197 623.691 576.197 624.775C576.197 627.052 576.725 628.774 577.78 629.94C578.863 631.107 580.405 631.69 582.404 631.69H585.279ZM592.931 631.69H598.846V615.86H602.596V631.69H607.345V635.022H592.931V631.69ZM596.263 643.646C595.541 643.646 594.944 643.382 594.472 642.854C594 642.354 593.764 641.743 593.764 641.021C593.764 640.299 594 639.674 594.472 639.147C594.944 638.647 595.541 638.397 596.263 638.397C596.986 638.397 597.583 638.647 598.055 639.147C598.527 639.674 598.763 640.299 598.763 641.021C598.763 641.743 598.527 642.354 598.055 642.854C597.583 643.382 596.986 643.646 596.263 643.646ZM602.637 643.687C601.915 643.687 601.304 643.424 600.804 642.896C600.332 642.368 600.096 641.743 600.096 641.021C600.096 640.299 600.332 639.688 600.804 639.188C601.304 638.688 601.915 638.438 602.637 638.438C603.359 638.438 603.942 638.688 604.387 639.188C604.859 639.688 605.095 640.299 605.095 641.021C605.095 641.743 604.859 642.368 604.387 642.896C603.942 643.424 603.359 643.687 602.637 643.687ZM606.519 631.69H612.434V615.86H616.183V635.022H606.519V631.69ZM614.35 612.444C613.656 612.444 613.073 612.194 612.601 611.694C612.156 611.194 611.934 610.597 611.934 609.903C611.934 609.236 612.156 608.667 612.601 608.195C613.073 607.695 613.656 607.445 614.35 607.445C615.045 607.445 615.6 607.695 616.017 608.195C616.461 608.667 616.683 609.236 616.683 609.903C616.683 610.597 616.461 611.194 616.017 611.694C615.6 612.194 615.045 612.444 614.35 612.444ZM628.995 631.69C629.3 631.69 629.689 631.69 630.161 631.69C630.661 631.69 631.175 631.718 631.702 631.773C632.258 631.801 632.799 631.843 633.327 631.898C633.855 631.954 634.299 632.051 634.66 632.19C633.327 631.218 632.66 629.843 632.66 628.066C632.66 627.177 632.855 626.344 633.244 625.566C633.632 624.761 634.16 624.066 634.827 623.483C635.521 622.872 636.34 622.386 637.285 622.025C638.257 621.664 639.326 621.484 640.492 621.484C641.103 621.484 641.797 621.511 642.575 621.567C643.381 621.622 644.172 621.733 644.95 621.9L644.283 625.191C642.922 624.941 641.589 624.816 640.284 624.816C638.951 624.816 637.993 625.108 637.409 625.691C636.854 626.274 636.576 627.094 636.576 628.149C636.576 629.176 637.007 630.037 637.868 630.732C638.729 631.398 640.048 631.731 641.825 631.731H645.824V635.022H628.995V631.69ZM655.692 631.69H660.441V635.022H651.943V607.445C651.443 607.361 650.86 607.292 650.193 607.236C649.554 607.153 648.929 607.084 648.318 607.028V604.82C649.374 604.681 650.554 604.584 651.859 604.529C653.192 604.473 654.47 604.473 655.692 604.529V631.69ZM659.608 631.69H665.524V615.86H669.273V631.69H674.022V635.022H659.608V631.69ZM667.232 612.444C666.538 612.444 665.954 612.194 665.482 611.694C665.038 611.194 664.816 610.597 664.816 609.903C664.816 609.236 665.038 608.667 665.482 608.195C665.954 607.695 666.538 607.445 667.232 607.445C667.926 607.445 668.482 607.695 668.898 608.195C669.343 608.667 669.565 609.236 669.565 609.903C669.565 610.597 669.343 611.194 668.898 611.694C668.482 612.194 667.926 612.444 667.232 612.444ZM673.196 631.69H679.112V615.86H682.861V631.69H687.61V635.022H673.196V631.69ZM676.529 643.646C675.807 643.646 675.21 643.382 674.738 642.854C674.265 642.354 674.029 641.743 674.029 641.021C674.029 640.299 674.265 639.674 674.738 639.147C675.21 638.647 675.807 638.397 676.529 638.397C677.251 638.397 677.848 638.647 678.32 639.147C678.792 639.674 679.028 640.299 679.028 641.021C679.028 641.743 678.792 642.354 678.32 642.854C677.848 643.382 677.251 643.646 676.529 643.646ZM682.903 643.687C682.181 643.687 681.57 643.424 681.07 642.896C680.598 642.368 680.361 641.743 680.361 641.021C680.361 640.299 680.598 639.688 681.07 639.188C681.57 638.688 682.181 638.438 682.903 638.438C683.625 638.438 684.208 638.688 684.652 639.188C685.124 639.688 685.36 640.299 685.36 641.021C685.36 641.743 685.124 642.368 684.652 642.896C684.208 643.424 683.625 643.687 682.903 643.687ZM686.784 631.69H688.117C688.645 631.69 689.159 631.606 689.658 631.44C690.158 631.273 690.603 630.982 690.991 630.565C691.38 630.121 691.686 629.537 691.908 628.815C692.158 628.066 692.283 627.135 692.283 626.024C692.283 624.191 692.505 622.608 692.949 621.275C693.422 619.914 694.074 618.79 694.907 617.901C695.741 617.012 696.726 616.346 697.865 615.901C699.032 615.457 700.323 615.235 701.739 615.235C702.961 615.235 704.058 615.429 705.03 615.818C706.03 616.179 706.877 616.762 707.571 617.568C708.266 618.345 708.793 619.359 709.154 620.609C709.543 621.831 709.738 623.303 709.738 625.024V635.022H702.156C699.795 635.022 697.962 634.661 696.657 633.939C695.352 633.189 694.366 632.231 693.699 631.065C693.31 632.231 692.616 633.189 691.616 633.939C690.644 634.661 689.297 635.022 687.576 635.022H686.784V631.69ZM705.988 631.69V624.275C705.988 623.469 705.877 622.705 705.655 621.983C705.461 621.261 705.155 620.636 704.739 620.109C704.35 619.553 703.85 619.123 703.239 618.817C702.656 618.512 701.975 618.359 701.198 618.359C700.309 618.359 699.545 618.526 698.907 618.859C698.296 619.192 697.782 619.651 697.365 620.234C696.976 620.817 696.685 621.497 696.49 622.275C696.324 623.053 696.24 623.9 696.24 624.816C696.24 627.205 696.768 628.954 697.823 630.065C698.907 631.148 700.587 631.69 702.864 631.69H705.988Z" fill="white"/>
</g>
<defs>
<clipPath id="clip0_344_4377">
<rect width="3772" height="1953" fill="white"/>
</clipPath>
</defs>
</svg>
