<svg width="919" height="1080" viewBox="0 0 919 1080" fill="none" xmlns="http://www.w3.org/2000/svg">
<path d="M2087.52 665.517L1820.17 646.393L1553.41 341.582L1527.91 215.468L1463.95 178.618L1370.12 31.1843L1170.1 -25.1965L998.561 -38.5414L584.373 -355.907L468.826 -382.206L252.265 -324.628L344.108 -205.888L140.102 -71.2175L20.3647 -46.1076L49.8564 51.1142L243.901 464.305L368.611 597.388L410.25 697.794L404.671 836.854L552.894 993.043L801.931 1390.7L850.139 1278.34L1291.42 1321.37L1368.72 1201.44L1471.53 1147.24L1776.34 1094.26L2093.1 964.957L2148.89 734.652L2087.52 665.517Z" fill="#EEEEEE" fill-opacity="0.09"/>
<path d="M309.328 543.442L306.564 541.581L305.549 543.45L303.433 542.554L302.402 541.222L299.041 538.161L300.223 535.384L297.139 536.632L293.992 531.987L288.426 528.329L288.935 527.377L287.031 526.359L283.564 527.751L272.425 519.074L274.339 517.506L272.527 516.63L274.317 511.478L270.036 513.8L271.419 514.952L270.092 518.843L264.956 518.28L256.545 511.972L252.877 505.52L250.461 505.997L249.318 503.841L247.202 503.421L246.939 500.849L242.18 502.695L238.989 501.587L238.746 504.089L240.414 504.58L239.267 507.36L234.66 507.514L232.656 504.515L229.064 504.774L223.481 496.486L218.944 493.206L219.876 487.654L221.923 489.057L222.741 485.642L219.107 481.132L217.852 476.686L214.668 474.013L216.349 464.087L219.251 459.592L236.511 458.142L243.753 455.346L246.153 453.165L249.74 447.628L251.423 445.465L256.174 444.231L263.227 445.609L271.132 445.515L276.042 442.964L278.857 438.258L279.532 433.471L279.19 423.744L278.525 392.343L281.078 377.745L281.406 375.487L282.17 368.459L278.724 364.167L269.05 363.763L266.767 362.821L261.31 343.476L255.806 331.618L244.399 321.425L237.78 315.787L235.713 310.774L234.088 303.818L231.835 301.958L225.033 298.452L212.773 290.718L208.072 291.241L202.109 296.68L201.249 291.922L198.784 282.387L193.606 272.697L191.548 267.548L192.046 260.433L201.674 243.471L202.46 238.079L201.382 234.497L196.65 231.579L182.026 227.458L177.132 223.44L174.1 218.597L171.973 210.55L174.46 183.25L171.443 170.408L167.04 166.185L162.347 165.619L152.802 167.744L150.317 166.276L150.035 163.975L153.107 159.492L162.651 157.367L167.612 156.046L172.721 153.577L177.575 151.84L187.428 147.252L192.456 143.994L194.775 142.965L199.523 141.765L211.629 146.833L218.848 152.172L226.237 153.131L231.537 151.833L249.442 141.645L254.17 140.239L256.555 141.189L259.94 145.852L262.398 155.488L264.115 160.647L271.611 173.699L274.921 178.459L277.424 180.165L282.066 180.967L298.528 181.675L301.566 185.462L300.951 190.355L301.429 192.772L305.906 195.945L312.854 200.277L313.305 202.59L312.01 209.921L312.599 212.209L314.841 213.251L317.159 213.209L321.94 209.594L326.659 205.396L331.839 201.434L336.88 200.425L355.714 208.108L358.165 206.168L356.58 201.563L355.642 196.97L356.921 194.744L359.21 194.632L363.111 198.241L366.063 207.639L373.272 210.186L380.503 211.951L387.447 216.352L392.086 220.115L399.492 225.705L406.419 226.938L426.514 225.347L458.472 219.171L463.151 218.954L465.51 220.276L469.221 224.655L470.946 227.738L473.03 232.513L473.753 240.667L471.466 248.065L466.492 254.935L466.519 259.907L470.112 264.516L472.477 265.26L482.461 262.69L484.725 263.427L485.815 265.852L485.469 278.595L479.664 311.961L486.013 341.922L484.425 372.928L486.361 377.864L490.331 382.431L495.116 384.604L499.842 384.696L528.519 374.785L553.15 373.579L560.551 369.976L572.369 355.789L582.374 351.96L602.8 351.481L638.903 358.567L660.062 364.165L664.205 367.723L665.042 373.774L663.304 408.378L668.625 414.572L684.841 418.803L689.16 422.271L698.802 455.288L711.289 465.625L710.041 475.207L701.028 488.229L703.902 499.222L699.589 514.173L699.701 541.791L684.257 539.179L674.401 542.338L672.612 549.43L676.023 557.124L676.491 566.996L674.384 573.76L671.161 578.471L635.222 596.318L624.225 605.082L624.825 609.652L627.168 611.688L643.529 620.662L644.758 625.48L643.032 627.777L625.684 634.871L618.191 640.271L602.548 656.575L573.961 678.34L560.313 698.732L555.339 698.793L534.567 692.03L520.414 704.556L513.296 708.008L498.743 706.276L496.733 701.437L499.294 689.632L497.914 682.591L491.514 676.73L479.34 673.122L477.524 670.85L477.334 668.215L485.451 647.062L484.58 637.128L481.336 632.884L466.768 633.806L434.819 643.761L432.697 641.978L431.377 630.175L426.553 629.054L411.609 632.436L406.858 631.729L401.756 627.764L391.291 615.287L383.888 609.663L377.402 599.2L374.92 598.175L365.497 600.989L349.819 602.208L349.2 602.301L348.823 602.343L346.86 592.435L342.818 588.407L343.452 585.183L340.506 586.407L338.503 585.348L338.105 587.635L340.674 588.871L339.534 590.084L336.918 588.54L337.207 583.93L335.485 579.826L335.87 578.219L333.504 576.998L331.363 574.5L328.454 565.955L328.427 560.983L325.298 557.53L322.491 557.265L319.829 552.483L312.453 547.44L310.665 544.285L309.328 543.442Z" fill="#00AFA9"/>
<mask id="mask0_346_3669" style="mask-type:luminance" maskUnits="userSpaceOnUse" x="150" y="140" width="562" height="569">
<path d="M249.408 141.643L231.537 151.833L226.237 153.131L218.848 152.172L211.627 146.866L199.489 141.762L194.775 142.965L192.456 143.994L187.428 147.252L177.575 151.84L172.721 153.577L167.612 156.046L162.651 157.367L153.107 159.492L150.035 163.975L150.317 166.276L152.802 167.744L162.347 165.619L167.04 166.185L171.409 170.406L174.46 183.25L171.973 210.55L174.1 218.597L177.132 223.44L182.026 227.458L196.65 231.579L201.382 234.497L202.46 238.079L201.674 243.471L192.045 260.433L191.548 267.548L193.606 272.697L198.784 282.387L201.249 291.922L202.106 296.714L208.072 291.241L212.739 290.716L224.999 298.45L231.835 301.958L234.088 303.818L235.713 310.774L237.78 315.787L244.399 321.425L255.806 331.618L261.31 343.476L266.767 362.821L269.05 363.763L278.724 364.167L282.169 368.459L281.406 375.487L281.078 377.745L278.525 392.343L279.19 423.744L279.532 433.471L278.857 438.258L276.042 442.964L271.132 445.515L263.229 445.575L256.174 444.231L251.423 445.465L249.74 447.628L246.153 453.165L243.753 455.346L236.511 458.142L219.251 459.592L216.349 464.087L214.668 474.013L217.849 476.72L219.107 481.132L222.741 485.642L221.923 489.057L219.876 487.654L218.944 493.206L223.481 496.486L229.064 504.774L232.623 504.512L234.66 507.514L239.267 507.36L240.414 504.58L238.746 504.089L238.989 501.587L242.18 502.695L246.939 500.849L247.202 503.421L249.318 503.841L250.46 505.997L252.877 505.52L256.545 511.972L264.956 518.28L270.092 518.843L271.419 514.952L270.036 513.8L274.317 511.478L272.527 516.63L274.339 517.506L272.425 519.074L283.564 527.751L287.031 526.359L288.935 527.377L288.426 528.329L293.992 531.987L297.137 536.666L300.223 535.384L299.041 538.161L302.402 541.222L303.433 542.554L305.549 543.45L306.564 541.581L309.328 543.442L310.665 544.285L312.453 547.44L319.829 552.483L322.491 557.265L325.298 557.53L328.427 560.983L328.454 565.955L331.329 574.497L333.504 576.998L335.87 578.219L335.485 579.826L337.207 583.93L336.916 588.574L339.534 590.084L340.674 588.871L338.105 587.635L338.503 585.348L340.506 586.407L343.452 585.183L342.818 588.407L346.86 592.435L348.823 602.343L349.166 602.299L349.819 602.208L365.497 600.989L374.92 598.175L377.402 599.2L383.888 609.663L391.291 615.287L401.756 627.764L406.858 631.729L411.609 632.436L426.553 629.054L431.377 630.175L432.697 641.978L434.819 643.761L466.766 633.84L481.302 632.881L484.58 637.128L485.451 647.062L477.332 668.249L477.524 670.85L479.34 673.122L491.514 676.73L497.914 682.591L499.26 689.63L496.732 701.437L498.709 706.273L513.296 708.008L520.414 704.556L534.567 692.03L555.339 698.793L560.313 698.732L573.961 678.34L602.548 656.575L618.191 640.271L625.684 634.871L643.032 627.777L644.758 625.48L643.529 620.662L627.168 611.688L624.825 609.652L624.225 605.082L635.221 596.318L671.127 578.469L674.384 573.76L676.491 566.996L676.023 557.124L672.612 549.43L674.368 542.335L684.257 539.179L699.701 541.791L699.589 514.173L703.902 499.222L701.028 488.229L710.041 475.207L711.255 465.623L698.802 455.288L689.16 422.271L684.841 418.803L668.625 414.572L663.304 408.378L665.042 373.774L664.205 367.723L660.062 364.165L638.903 358.567L602.8 351.481L582.374 351.96L572.369 355.789L560.517 369.974L553.15 373.579L528.519 374.785L499.842 384.696L495.116 384.604L490.331 382.431L486.361 377.864L484.425 372.928L486.013 341.922L479.664 311.961L485.469 278.595L485.815 265.852L484.691 263.424L482.461 262.69L472.477 265.26L470.112 264.516L466.519 259.907L466.492 254.935L471.466 248.065L473.753 240.667L473.03 232.513L470.946 227.738L469.221 224.655L465.51 220.276L463.151 218.954L458.472 219.171L426.481 225.344L406.419 226.938L399.492 225.705L392.086 220.115L387.447 216.352L380.503 211.951L373.272 210.186L366.063 207.639L363.111 198.241L359.21 194.632L356.921 194.744L355.608 196.968L356.58 201.563L358.165 206.168L355.714 208.108L336.88 200.425L331.839 201.434L326.659 205.396L321.94 209.594L317.159 213.209L314.841 213.251L312.599 212.209L312.01 209.921L313.305 202.59L312.854 200.277L305.906 195.945L301.429 192.772L300.951 190.355L301.566 185.462L298.528 181.675L282.066 180.967L277.423 180.165L274.921 178.459L271.611 173.699L264.114 160.647L262.398 155.488L259.94 145.852L256.555 141.189L254.17 140.239L249.408 141.643Z" fill="white"/>
</mask>
<g mask="url(#mask0_346_3669)">
<g opacity="0.55">
<mask id="mask1_346_3669" style="mask-type:luminance" maskUnits="userSpaceOnUse" x="-274" y="-280" width="1409" height="1408">
<path d="M1134.45 -187.703L-181.159 -279.663L-273.119 1035.94L1042.49 1127.9L1134.45 -187.703Z" fill="white"/>
</mask>
<g mask="url(#mask1_346_3669)">
<path d="M-185.858 700.81L153.986 1040.67L157.63 1040.66L-185.878 697.2L-185.858 700.81Z" fill="#DBDADA"/>
<path d="M-185.88 673.844L180.951 1040.65L184.592 1040.67L-185.866 670.236L-185.88 673.844Z" fill="#DBDADA"/>
<path d="M-185.868 646.882L207.947 1040.67L211.557 1040.65L-185.886 643.238L-185.868 646.882Z" fill="#DBDADA"/>
<path d="M-185.854 619.918L234.914 1040.64L238.555 1040.66L-185.872 616.274L-185.854 619.918Z" fill="#DBDADA"/>
<path d="M-185.875 592.92L261.875 1040.66L265.517 1040.67L-185.861 589.312L-185.875 592.92Z" fill="#DBDADA"/>
<path d="M-185.864 565.481L-185.863 565.958L288.871 1040.67L292.481 1040.65L-185.881 562.313L-185.864 565.481Z" fill="#DBDADA"/>
<path d="M-185.885 538.992L315.836 1040.65L319.478 1040.66L-185.869 535.351L-185.885 538.992Z" fill="#DBDADA"/>
<path d="M-185.882 510.7L-185.871 511.995L342.799 1040.66L344.093 1040.65L346.443 1040.64L-185.891 508.385L-185.882 510.7Z" fill="#DBDADA"/>
<path d="M-185.857 485.033L369.765 1040.64L373.406 1040.66L-185.875 481.389L-185.857 485.033Z" fill="#DBDADA"/>
<path d="M-185.88 458.068L396.761 1040.65L400.369 1040.67L-185.864 454.427L-185.88 458.068Z" fill="#DBDADA"/>
<path d="M-185.867 431.105L423.724 1040.67L427.368 1040.65L-185.885 427.461L-185.867 431.105Z" fill="#DBDADA"/>
<path d="M-185.887 404.106L450.689 1040.64L454.33 1040.66L-185.873 400.498L-185.887 404.106Z" fill="#DBDADA"/>
<path d="M-185.874 377.143L477.686 1040.66L477.891 1040.64L481.296 1040.64L-185.892 373.499L-185.874 377.143Z" fill="#DBDADA"/>
<path d="M-185.863 350.18L504.648 1040.67L508.292 1040.65L-185.88 346.536L-185.863 350.18Z" fill="#DBDADA"/>
<path d="M-185.882 323.181L531.613 1040.65L535.255 1040.66L-185.868 319.573L-185.882 323.181Z" fill="#DBDADA"/>
<path d="M-185.869 296.219L558.577 1040.66L562.221 1040.64L-185.886 292.575L-185.869 296.219Z" fill="#DBDADA"/>
<path d="M-185.891 269.253L585.575 1040.64L589.182 1040.66L-185.875 265.611L-185.891 269.253Z" fill="#DBDADA"/>
<path d="M-185.872 241.712L-185.879 242.291L612.538 1040.65L616.182 1040.64L-185.896 238.646L-185.872 241.712Z" fill="#DBDADA"/>
<path d="M-185.865 215.294L639.502 1040.63L643.144 1040.65L-185.885 211.684L-185.865 215.294Z" fill="#DBDADA"/>
<path d="M668.304 1040.64L-185.896 186.523L668.268 1040.67L668.304 1040.64Z" fill="#DBDADA"/>
<path d="M-185.876 186.73L-185.885 188.329L666.5 1040.65L669.769 1040.64L670.108 1040.66L-185.869 184.688L-185.876 186.73Z" fill="#DBDADA"/>
<path d="M-185.874 161.365L693.461 1040.66L697.105 1040.64L-185.892 157.721L-185.874 161.365Z" fill="#DBDADA"/>
<path d="M722.23 1040.66L-185.869 132.564L722.266 1040.63L722.23 1040.66Z" fill="#DBDADA"/>
<path d="M-185.893 134.368L720.427 1040.64L724.069 1040.65L-185.879 130.76L-185.893 134.368Z" fill="#DBDADA"/>
<path d="M-185.88 107.406L747.424 1040.65L751.035 1040.63L-185.898 103.762L-185.88 107.406Z" fill="#DBDADA"/>
<path d="M776.192 1040.65L-185.876 78.6025L776.194 1040.62L776.192 1040.65Z" fill="#DBDADA"/>
<path d="M-185.902 80.4395L774.39 1040.63L777.997 1040.64L-185.886 76.7979L-185.902 80.4395Z" fill="#DBDADA"/>
<path d="M-185.887 53.4427L801.352 1040.64L804.994 1040.66L-185.874 49.835L-185.887 53.4427Z" fill="#DBDADA"/>
<path d="M-185.876 26.481L828.314 1040.66L831.958 1040.64L-185.894 22.8369L-185.876 26.481Z" fill="#DBDADA"/>
<path d="M-185.898 -0.485278L855.313 1040.64L858.921 1040.65L-185.881 -4.12695L-185.898 -0.485278Z" fill="#DBDADA"/>
<path d="M-185.886 -27.4478L882.276 1040.65L885.92 1040.63L-185.903 -31.0918L-185.886 -27.4478Z" fill="#DBDADA"/>
<path d="M-185.904 -54.4469L909.242 1040.63L912.883 1040.64L-185.89 -58.0547L-185.904 -54.4469Z" fill="#DBDADA"/>
<path d="M938.044 1040.63L-185.901 -83.2158L938.008 1040.66L938.044 1040.63Z" fill="#DBDADA"/>
<path d="M-185.892 -81.4091L936.238 1040.64L939.846 1040.66L-185.876 -85.0508L-185.892 -81.4091Z" fill="#DBDADA"/>
<path d="M-185.88 -108.373L963.201 1040.65L966.811 1040.63L-185.898 -112.017L-185.88 -108.373Z" fill="#DBDADA"/>
<path d="M991.97 1040.62L-185.876 -137.174L992.004 1040.62L991.97 1040.62Z" fill="#DBDADA"/>
<path d="M-185.904 -136.768L-185.9 -135.372L990.166 1040.63L992.718 1040.64L993.807 1040.65L-185.886 -138.979L-185.904 -136.768Z" fill="#DBDADA"/>
<path d="M-185.887 -162.333L1017.13 1040.65L1020.77 1040.63L-185.905 -165.977L-185.887 -162.333Z" fill="#DBDADA"/>
<path d="M-185.896 -192.397L-185.908 -189.3L1044.13 1040.62L1047.23 1040.64L1047.23 1040.09L-185.351 -192.393L-185.896 -192.397Z" fill="#DBDADA"/>
<path d="M-162.03 -192.396L1047.23 1016.77L1047.21 1013.13L-158.386 -192.414L-162.03 -192.396Z" fill="#DBDADA"/>
<path d="M-135.032 -192.416L1047.2 989.805L1047.22 986.164L-131.424 -192.402L-135.032 -192.416Z" fill="#DBDADA"/>
<path d="M-107.524 -192.4L-108.068 -192.404L1047.22 962.809L1047.2 962.536L1047.2 959.199L-104.424 -192.421L-107.524 -192.4Z" fill="#DBDADA"/>
<path d="M-81.1068 -192.391L1047.2 935.845L1047.21 932.203L-77.4629 -192.409L-81.1068 -192.391Z" fill="#DBDADA"/>
<path d="M1047.2 907.043L-52.3022 -192.42L1047.23 907.046L1047.2 907.043Z" fill="#DBDADA"/>
<path d="M-54.1426 -192.412L1047.21 908.882L1047.22 905.241L-50.5009 -192.396L-54.1426 -192.412Z" fill="#DBDADA"/>
<path d="M-26.2589 -192.404L-27.1444 -192.398L1047.22 881.885L1047.2 880.794L1047.2 878.275L-23.5343 -192.418L-26.2589 -192.404Z" fill="#DBDADA"/>
<path d="M-0.179175 -192.421L1047.2 854.919L1047.22 851.277L3.46252 -192.405L-0.179175 -192.421Z" fill="#DBDADA"/>
<path d="M26.7823 -192.408L1047.21 827.957L1047.22 827.379L1047.2 824.313L30.4263 -192.425L26.7823 -192.408Z" fill="#DBDADA"/>
<path d="M53.7794 -192.393L1047.19 800.958L1047.21 797.35L57.3896 -192.413L53.7794 -192.393Z" fill="#DBDADA"/>
<path d="M1047.2 772.19L82.5498 -192.425L1047.2 772.156L1047.2 772.19Z" fill="#DBDADA"/>
<path d="M84.2523 -192.408L80.7461 -192.415L1047.21 773.995L1047.22 772.362L1047.22 770.387L84.3878 -192.399L84.2523 -192.408Z" fill="#DBDADA"/>
<path d="M107.708 -192.404L1047.22 747.031L1047.2 743.387L111.352 -192.421L107.708 -192.404Z" fill="#DBDADA"/>
<path d="M134.673 -192.425L1047.2 720.067L1047.21 716.425L138.314 -192.409L134.673 -192.425Z" fill="#DBDADA"/>
<path d="M161.67 -192.41L1047.21 693.071L1047.19 689.461L165.28 -192.43L161.67 -192.41Z" fill="#DBDADA"/>
<path d="M188.633 -192.398L1047.19 666.105L1047.21 662.464L192.277 -192.416L188.633 -192.398Z" fill="#DBDADA"/>
<path d="M1047.2 637.304L217.437 -192.427L1047.23 637.306L1047.2 637.304Z" fill="#DBDADA"/>
<path d="M216.855 -192.399L215.597 -192.419L1047.2 639.143L1047.22 635.501L219.238 -192.403L216.855 -192.399Z" fill="#DBDADA"/>
<path d="M242.595 -192.406L1047.22 612.179L1047.21 610.239L1047.2 608.535L246.205 -192.426L242.595 -192.406Z" fill="#DBDADA"/>
<path d="M1047.22 583.379L271.362 -192.402L1047.19 583.376L1047.22 583.379Z" fill="#DBDADA"/>
<path d="M269.56 -192.427L1047.2 585.181L1047.21 581.573L273.202 -192.411L269.56 -192.427Z" fill="#DBDADA"/>
<path d="M1047.2 556.413L298.362 -192.422L1047.24 556.382L1047.2 556.413Z" fill="#DBDADA"/>
<path d="M296.521 -192.414L1047.21 558.219L1047.21 557.164L1047.19 554.575L300.165 -192.431L296.521 -192.414Z" fill="#DBDADA"/>
<path d="M323.519 -192.4L1047.19 531.253L1047.2 527.611L327.129 -192.42L323.519 -192.4Z" fill="#DBDADA"/>
<path d="M350.482 -192.421L1047.2 504.257L1047.21 500.649L354.124 -192.405L350.482 -192.421Z" fill="#DBDADA"/>
<path d="M377.446 -192.409L1047.21 477.294L1047.19 473.65L381.09 -192.426L377.446 -192.409Z" fill="#DBDADA"/>
<path d="M1047.22 448.492L406.248 -192.404L1047.21 448.526L1047.22 448.492Z" fill="#DBDADA"/>
<path d="M404.411 -192.431L1047.19 450.329L1047.2 447.708L1047.21 446.687L408.053 -192.415L404.411 -192.431Z" fill="#DBDADA"/>
<path d="M431.408 -192.416L1047.2 423.332L1047.19 419.722L435.018 -192.436L431.408 -192.416Z" fill="#DBDADA"/>
<path d="M1047.21 394.565L460.177 -192.413L1047.17 394.563L1047.21 394.565Z" fill="#DBDADA"/>
<path d="M458.373 -192.438L1047.18 396.367L1047.2 392.725L462.015 -192.421L458.373 -192.438Z" fill="#DBDADA"/>
<path d="M1047.19 367.599L487.175 -192.434L1047.22 367.567L1047.19 367.599Z" fill="#DBDADA"/>
<path d="M485.336 -192.427L1047.2 369.403L1047.21 365.761L488.978 -192.411L485.336 -192.427Z" fill="#DBDADA"/>
<path d="M512.333 -192.412L1047.21 342.441L1047.19 338.797L515.943 -192.432L512.333 -192.412Z" fill="#DBDADA"/>
<path d="M539.978 -192.418L539.298 -192.432L1047.19 315.443L1047.18 315.136L1047.2 311.836L542.94 -192.416L539.978 -192.418Z" fill="#DBDADA"/>
<path d="M1047.19 286.674L568.065 -192.431L1047.19 286.641L1047.19 286.674Z" fill="#DBDADA"/>
<path d="M566.261 -192.42L1047.2 288.48L1047.18 284.836L569.905 -192.438L566.261 -192.42Z" fill="#DBDADA"/>
<path d="M593.227 -192.442L1047.18 261.515L1047.2 257.874L596.868 -192.425L593.227 -192.442Z" fill="#DBDADA"/>
<path d="M621.04 -192.439L620.222 -192.428L1047.19 234.518L1047.21 230.91L623.83 -192.414L621.04 -192.439Z" fill="#DBDADA"/>
<path d="M647.185 -192.415L1047.21 207.556L1047.19 203.912L650.829 -192.432L647.185 -192.415Z" fill="#DBDADA"/>
<path d="M674.15 -192.437L1047.18 180.59L1047.2 176.949L677.792 -192.42L674.15 -192.437Z" fill="#DBDADA"/>
<path d="M701.146 -192.421L1047.2 153.595L1047.18 149.984L704.756 -192.441L701.146 -192.421Z" fill="#DBDADA"/>
</g>
</g>
</g>
<circle cx="223.855" cy="492.927" r="34.7421" fill="#CDDC29" fill-opacity="0.2"/>
<circle cx="223.855" cy="492.929" r="35.034" fill="#CDDC29"/>
<path d="M50.7893 520.878L58.5377 506.256H62.5786L52.6639 524.461V536H48.9147V524.627L39 506.256H43.0825L50.7893 520.878ZM72.5183 513.296C75.24 513.296 77.2535 513.893 78.5588 515.088C79.8641 516.282 80.5167 518.184 80.5167 520.795V536H77.8506L77.1424 532.834H76.9758C76.337 533.639 75.6705 534.32 74.9762 534.875C74.3096 535.403 73.532 535.792 72.6433 536.042C71.7824 536.292 70.727 536.417 69.4773 536.417C68.1442 536.417 66.9361 536.181 65.853 535.708C64.7977 535.236 63.9645 534.514 63.3535 533.542C62.7425 532.542 62.437 531.293 62.437 529.793C62.437 527.571 63.3118 525.863 65.0615 524.669C66.8111 523.447 69.505 522.78 73.1432 522.669L76.9341 522.544V521.211C76.9341 519.351 76.5314 518.059 75.726 517.337C74.9206 516.615 73.782 516.254 72.31 516.254C71.1436 516.254 70.0327 516.434 68.9774 516.796C67.922 517.129 66.9361 517.518 66.0196 517.962L64.8949 515.213C65.8669 514.685 67.0194 514.24 68.3525 513.879C69.6856 513.491 71.0742 513.296 72.5183 513.296ZM73.6014 525.211C70.8242 525.322 68.8941 525.766 67.8109 526.544C66.7556 527.321 66.2279 528.418 66.2279 529.835C66.2279 531.084 66.6028 532.001 67.3527 532.584C68.1303 533.167 69.1162 533.459 70.3104 533.459C72.1989 533.459 73.7681 532.945 75.0178 531.917C76.2676 530.862 76.8924 529.251 76.8924 527.085V525.086L73.6014 525.211ZM98.1609 513.255C100.827 513.255 102.841 513.907 104.201 515.213C105.562 516.49 106.243 518.573 106.243 521.461V536H102.618V521.711C102.618 519.906 102.216 518.559 101.41 517.67C100.605 516.782 99.3413 516.337 97.6194 516.337C95.1477 516.337 93.4397 517.032 92.4954 518.42C91.5512 519.809 91.079 521.808 91.079 524.419V536H87.4131V513.671H90.3708L90.9124 516.712H91.1207C91.6206 515.935 92.2316 515.296 92.9537 514.796C93.7035 514.268 94.5228 513.879 95.4115 513.63C96.3002 513.38 97.2167 513.255 98.1609 513.255ZM116.831 512.046C116.831 512.991 116.803 513.879 116.747 514.713C116.72 515.518 116.678 516.157 116.622 516.629H116.831C117.469 515.685 118.344 514.893 119.455 514.254C120.566 513.616 121.996 513.296 123.746 513.296C126.523 513.296 128.745 514.268 130.411 516.212C132.105 518.129 132.952 521.003 132.952 524.836C132.952 527.391 132.564 529.529 131.786 531.251C131.036 532.973 129.967 534.264 128.578 535.125C127.19 535.986 125.579 536.417 123.746 536.417C121.996 536.417 120.566 536.097 119.455 535.458C118.344 534.82 117.469 534.056 116.831 533.167H116.539L115.789 536H113.165V504.34H116.831V512.046ZM123.121 516.337C121.538 516.337 120.288 516.643 119.372 517.254C118.455 517.837 117.803 518.753 117.414 520.003C117.025 521.225 116.831 522.794 116.831 524.711V524.877C116.831 527.627 117.275 529.737 118.164 531.209C119.08 532.653 120.76 533.376 123.204 533.376C125.204 533.376 126.69 532.64 127.662 531.168C128.662 529.696 129.162 527.571 129.162 524.794C129.162 521.989 128.662 519.878 127.662 518.462C126.69 517.045 125.176 516.337 123.121 516.337ZM157.457 513.671V536H154.458L153.916 533.042H153.75C153.278 533.82 152.667 534.459 151.917 534.959C151.167 535.458 150.348 535.819 149.459 536.042C148.57 536.292 147.64 536.417 146.668 536.417C144.89 536.417 143.391 536.139 142.169 535.583C140.974 535 140.072 534.111 139.461 532.917C138.85 531.723 138.544 530.182 138.544 528.293V513.671H142.252V528.043C142.252 529.821 142.655 531.154 143.46 532.042C144.265 532.931 145.515 533.376 147.209 533.376C148.876 533.376 150.181 533.07 151.125 532.459C152.097 531.82 152.778 530.904 153.166 529.71C153.583 528.488 153.791 527.016 153.791 525.294V513.671H157.457ZM55.7883 553.13C54.2053 553.13 52.775 553.408 51.4975 553.964C50.22 554.491 49.1368 555.283 48.2481 556.338C47.3594 557.366 46.679 558.629 46.2069 560.129C45.7348 561.601 45.4987 563.267 45.4987 565.128C45.4987 567.572 45.8736 569.697 46.6235 571.502C47.4011 573.307 48.5397 574.696 50.0394 575.668C51.5669 576.64 53.4693 577.126 55.7466 577.126C57.0519 577.126 58.2878 577.014 59.4542 576.792C60.6207 576.57 61.7593 576.292 62.8702 575.959V579.208C61.7593 579.625 60.6068 579.931 59.4126 580.125C58.2461 580.319 56.8436 580.417 55.2051 580.417C52.1779 580.417 49.6506 579.792 47.6233 578.542C45.5959 577.292 44.0684 575.515 43.0409 573.21C42.0411 570.905 41.5412 568.197 41.5412 565.086C41.5412 562.837 41.8466 560.782 42.4576 558.921C43.0964 557.06 44.0129 555.449 45.2071 554.089C46.4291 552.728 47.9288 551.686 49.7062 550.964C51.4836 550.214 53.5249 549.839 55.8299 549.839C57.3574 549.839 58.8293 549.992 60.2457 550.298C61.6621 550.603 62.9257 551.034 64.0366 551.589L62.5369 554.755C61.6204 554.338 60.5929 553.964 59.4542 553.63C58.3433 553.297 57.1214 553.13 55.7883 553.13ZM88.2749 568.794C88.2749 570.655 88.025 572.307 87.5251 573.751C87.0529 575.168 86.3586 576.376 85.4422 577.376C84.5534 578.375 83.4564 579.139 82.1511 579.667C80.8736 580.167 79.4434 580.417 77.8603 580.417C76.3884 580.417 75.0276 580.167 73.7778 579.667C72.5281 579.139 71.445 578.375 70.5285 577.376C69.612 576.376 68.8899 575.168 68.3623 573.751C67.8624 572.307 67.6124 570.655 67.6124 568.794C67.6124 566.322 68.029 564.239 68.8622 562.545C69.6953 560.823 70.8895 559.518 72.4448 558.629C74 557.713 75.8469 557.255 77.9853 557.255C80.0127 557.255 81.7901 557.713 83.3176 558.629C84.8728 559.518 86.0809 560.823 86.9419 562.545C87.8306 564.239 88.2749 566.322 88.2749 568.794ZM71.4033 568.794C71.4033 570.544 71.6255 572.071 72.0698 573.376C72.542 574.654 73.264 575.64 74.2361 576.334C75.2081 577.028 76.444 577.376 77.9437 577.376C79.4434 577.376 80.6792 577.028 81.6512 576.334C82.6233 575.64 83.3315 574.654 83.7758 573.376C84.2479 572.071 84.484 570.544 84.484 568.794C84.484 567.017 84.2479 565.503 83.7758 564.253C83.3037 563.003 82.5816 562.045 81.6096 561.379C80.6653 560.684 79.4295 560.337 77.902 560.337C75.6247 560.337 73.9722 561.087 72.9447 562.587C71.9171 564.087 71.4033 566.156 71.4033 568.794ZM118.58 557.255C121.107 557.255 122.996 557.907 124.246 559.213C125.495 560.49 126.12 562.573 126.12 565.461V580H122.496V565.628C122.496 563.878 122.121 562.559 121.371 561.67C120.649 560.782 119.51 560.337 117.955 560.337C115.789 560.337 114.234 560.962 113.289 562.212C112.373 563.462 111.915 565.281 111.915 567.669V580H108.29V565.628C108.29 564.461 108.124 563.489 107.791 562.712C107.457 561.906 106.957 561.309 106.291 560.921C105.624 560.532 104.763 560.337 103.708 560.337C102.208 560.337 101.028 560.657 100.167 561.295C99.3061 561.906 98.6812 562.809 98.2924 564.003C97.9314 565.197 97.7509 566.669 97.7509 568.419V580H94.0849V557.671H97.0427L97.5842 560.712H97.7925C98.2647 559.935 98.834 559.296 99.5005 558.796C100.195 558.268 100.959 557.879 101.792 557.63C102.625 557.38 103.486 557.255 104.375 557.255C106.096 557.255 107.527 557.56 108.665 558.171C109.832 558.782 110.679 559.726 111.207 561.004H111.415C112.165 559.726 113.178 558.782 114.456 558.171C115.761 557.56 117.136 557.255 118.58 557.255ZM157.513 557.255C160.04 557.255 161.928 557.907 163.178 559.213C164.428 560.49 165.053 562.573 165.053 565.461V580H161.428V565.628C161.428 563.878 161.054 562.559 160.304 561.67C159.582 560.782 158.443 560.337 156.888 560.337C154.722 560.337 153.166 560.962 152.222 562.212C151.306 563.462 150.847 565.281 150.847 567.669V580H147.223V565.628C147.223 564.461 147.056 563.489 146.723 562.712C146.39 561.906 145.89 561.309 145.223 560.921C144.557 560.532 143.696 560.337 142.641 560.337C141.141 560.337 139.961 560.657 139.1 561.295C138.239 561.906 137.614 562.809 137.225 564.003C136.864 565.197 136.683 566.669 136.683 568.419V580H133.018V557.671H135.975L136.517 560.712H136.725C137.197 559.935 137.767 559.296 138.433 558.796C139.127 558.268 139.891 557.879 140.724 557.63C141.557 557.38 142.418 557.255 143.307 557.255C145.029 557.255 146.459 557.56 147.598 558.171C148.764 558.782 149.611 559.726 150.139 561.004H150.347C151.097 559.726 152.111 558.782 153.388 558.171C154.694 557.56 156.068 557.255 157.513 557.255ZM180.573 557.255C182.49 557.255 184.128 557.671 185.489 558.504C186.878 559.337 187.933 560.518 188.655 562.045C189.405 563.545 189.78 565.309 189.78 567.336V569.544H174.491C174.547 572.071 175.186 574.001 176.408 575.334C177.657 576.64 179.393 577.292 181.615 577.292C183.031 577.292 184.281 577.167 185.364 576.917C186.475 576.64 187.614 576.251 188.78 575.751V578.959C187.641 579.458 186.517 579.819 185.406 580.042C184.295 580.292 182.976 580.417 181.448 580.417C179.338 580.417 177.463 579.986 175.824 579.125C174.214 578.264 172.95 576.987 172.033 575.293C171.145 573.571 170.7 571.474 170.7 569.002C170.7 566.558 171.103 564.461 171.908 562.712C172.742 560.962 173.894 559.615 175.366 558.671C176.866 557.727 178.602 557.255 180.573 557.255ZM180.532 560.254C178.782 560.254 177.393 560.823 176.366 561.962C175.366 563.073 174.769 564.628 174.575 566.628H185.947C185.947 565.35 185.753 564.239 185.364 563.295C184.975 562.351 184.378 561.615 183.573 561.087C182.795 560.532 181.781 560.254 180.532 560.254ZM205.879 557.255C206.295 557.255 206.74 557.282 207.212 557.338C207.712 557.366 208.142 557.421 208.503 557.505L208.045 560.879C207.684 560.796 207.281 560.726 206.837 560.671C206.42 560.615 206.018 560.587 205.629 560.587C204.768 560.587 203.949 560.768 203.171 561.129C202.393 561.49 201.699 562.004 201.088 562.67C200.477 563.309 199.991 564.087 199.63 565.003C199.297 565.919 199.13 566.947 199.13 568.086V580H195.464V557.671H198.464L198.88 561.754H199.047C199.519 560.921 200.088 560.171 200.755 559.504C201.421 558.81 202.185 558.268 203.046 557.879C203.907 557.463 204.851 557.255 205.879 557.255ZM220.816 580.417C218.844 580.417 217.08 580.014 215.525 579.208C213.998 578.403 212.789 577.153 211.901 575.459C211.04 573.765 210.609 571.599 210.609 568.961C210.609 566.211 211.068 563.975 211.984 562.254C212.901 560.532 214.136 559.268 215.692 558.463C217.275 557.657 219.066 557.255 221.066 557.255C222.204 557.255 223.301 557.38 224.357 557.63C225.412 557.852 226.273 558.129 226.939 558.463L225.815 561.504C225.148 561.254 224.37 561.018 223.482 560.796C222.593 560.573 221.76 560.462 220.982 560.462C219.483 560.462 218.247 560.782 217.275 561.42C216.303 562.059 215.581 563.003 215.108 564.253C214.636 565.503 214.4 567.058 214.4 568.919C214.4 570.696 214.636 572.21 215.108 573.46C215.581 574.709 216.289 575.654 217.233 576.292C218.177 576.931 219.358 577.251 220.774 577.251C221.996 577.251 223.065 577.126 223.982 576.876C224.926 576.626 225.787 576.32 226.564 575.959V579.208C225.815 579.597 224.981 579.889 224.065 580.083C223.176 580.305 222.093 580.417 220.816 580.417ZM235.541 557.671V580H231.875V557.671H235.541ZM233.749 549.298C234.305 549.298 234.791 549.492 235.207 549.881C235.652 550.242 235.874 550.825 235.874 551.631C235.874 552.408 235.652 552.992 235.207 553.38C234.791 553.769 234.305 553.964 233.749 553.964C233.138 553.964 232.624 553.769 232.208 553.38C231.791 552.992 231.583 552.408 231.583 551.631C231.583 550.825 231.791 550.242 232.208 549.881C232.624 549.492 233.138 549.298 233.749 549.298ZM251.071 557.296C253.793 557.296 255.806 557.893 257.112 559.088C258.417 560.282 259.07 562.184 259.07 564.795V580H256.404L255.695 576.834H255.529C254.89 577.639 254.223 578.32 253.529 578.875C252.863 579.403 252.085 579.792 251.196 580.042C250.335 580.292 249.28 580.417 248.03 580.417C246.697 580.417 245.489 580.181 244.406 579.708C243.351 579.236 242.517 578.514 241.906 577.542C241.295 576.542 240.99 575.293 240.99 573.793C240.99 571.571 241.865 569.863 243.614 568.669C245.364 567.447 248.058 566.78 251.696 566.669L255.487 566.544V565.211C255.487 563.351 255.084 562.059 254.279 561.337C253.474 560.615 252.335 560.254 250.863 560.254C249.697 560.254 248.586 560.434 247.53 560.796C246.475 561.129 245.489 561.518 244.573 561.962L243.448 559.213C244.42 558.685 245.572 558.24 246.905 557.879C248.238 557.491 249.627 557.296 251.071 557.296ZM252.154 569.211C249.377 569.322 247.447 569.766 246.364 570.544C245.309 571.321 244.781 572.418 244.781 573.835C244.781 575.084 245.156 576.001 245.906 576.584C246.683 577.167 247.669 577.459 248.863 577.459C250.752 577.459 252.321 576.945 253.571 575.917C254.821 574.862 255.445 573.251 255.445 571.085V569.086L252.154 569.211ZM269.632 580H265.966V548.34H269.632V580ZM50.9143 594.256C54.8024 594.256 57.6351 595.02 59.4126 596.547C61.19 598.075 62.0787 600.227 62.0787 603.004C62.0787 604.226 61.8704 605.407 61.4538 606.545C61.065 607.656 60.4124 608.656 59.4959 609.545C58.5794 610.433 57.3574 611.141 55.8299 611.669C54.3025 612.169 52.4279 612.419 50.2061 612.419H46.7901V624H43.0409V594.256H50.9143ZM50.581 597.464H46.7901V609.211H49.7895C51.678 609.211 53.2471 609.017 54.4969 608.628C55.7466 608.212 56.677 607.559 57.288 606.67C57.899 605.781 58.2045 604.615 58.2045 603.171C58.2045 601.255 57.5935 599.824 56.3715 598.88C55.1495 597.936 53.2194 597.464 50.581 597.464ZM87.1765 612.794C87.1765 614.655 86.9266 616.307 86.4267 617.751C85.9545 619.168 85.2602 620.376 84.3437 621.376C83.455 622.375 82.358 623.139 81.0527 623.667C79.7752 624.167 78.3449 624.417 76.7619 624.417C75.29 624.417 73.9292 624.167 72.6794 623.667C71.4297 623.139 70.3466 622.375 69.4301 621.376C68.5136 620.376 67.7915 619.168 67.2638 617.751C66.7639 616.307 66.514 614.655 66.514 612.794C66.514 610.322 66.9306 608.239 67.7637 606.545C68.5969 604.823 69.7911 603.518 71.3464 602.629C72.9016 601.713 74.7484 601.255 76.8869 601.255C78.9143 601.255 80.6917 601.713 82.2192 602.629C83.7744 603.518 84.9825 604.823 85.8434 606.545C86.7321 608.239 87.1765 610.322 87.1765 612.794ZM70.3049 612.794C70.3049 614.544 70.5271 616.071 70.9714 617.376C71.4436 618.654 72.1656 619.64 73.1377 620.334C74.1097 621.028 75.3455 621.376 76.8452 621.376C78.3449 621.376 79.5808 621.028 80.5528 620.334C81.5249 619.64 82.2331 618.654 82.6774 617.376C83.1495 616.071 83.3856 614.544 83.3856 612.794C83.3856 611.017 83.1495 609.503 82.6774 608.253C82.2053 607.003 81.4832 606.045 80.5112 605.379C79.5669 604.684 78.3311 604.337 76.8036 604.337C74.5263 604.337 72.8738 605.087 71.8463 606.587C70.8187 608.087 70.3049 610.156 70.3049 612.794ZM103.401 601.255C103.818 601.255 104.262 601.282 104.734 601.338C105.234 601.366 105.665 601.421 106.026 601.505L105.567 604.879C105.206 604.796 104.804 604.726 104.359 604.671C103.943 604.615 103.54 604.587 103.151 604.587C102.29 604.587 101.471 604.768 100.693 605.129C99.9157 605.49 99.2214 606.004 98.6104 606.67C97.9994 607.309 97.5134 608.087 97.1524 609.003C96.8191 609.919 96.6525 610.947 96.6525 612.086V624H92.9865V601.671H95.9859L96.4025 605.754H96.5691C97.0413 604.921 97.6106 604.171 98.2771 603.504C98.9437 602.81 99.7074 602.268 100.568 601.879C101.429 601.463 102.374 601.255 103.401 601.255ZM117.652 621.417C118.207 621.417 118.777 621.376 119.36 621.292C119.943 621.181 120.415 621.07 120.776 620.959V623.75C120.387 623.944 119.832 624.097 119.11 624.208C118.388 624.347 117.693 624.417 117.027 624.417C115.861 624.417 114.777 624.222 113.778 623.833C112.806 623.417 112.014 622.709 111.403 621.709C110.792 620.709 110.487 619.306 110.487 617.501V604.504H107.321V602.754L110.528 601.296L111.986 596.547H114.153V601.671H120.61V604.504H114.153V617.418C114.153 618.779 114.472 619.793 115.111 620.459C115.777 621.098 116.624 621.417 117.652 621.417Z" fill="white"/>
</svg>
