<svg width="919" height="1080" viewBox="0 0 919 1080" fill="none" xmlns="http://www.w3.org/2000/svg">
<path d="M2087.52 665.517L1820.17 646.393L1553.41 341.582L1527.91 215.468L1463.95 178.618L1370.12 31.1843L1170.1 -25.1965L998.561 -38.5414L584.373 -355.907L468.826 -382.206L252.265 -324.628L344.108 -205.888L140.102 -71.2175L20.3647 -46.1076L49.8564 51.1142L243.901 464.305L368.611 597.388L410.25 697.794L404.671 836.854L552.894 993.043L801.931 1390.7L850.139 1278.34L1291.42 1321.37L1368.72 1201.44L1471.53 1147.24L1776.34 1094.26L2093.1 964.957L2148.89 734.652L2087.52 665.517Z" fill="#EEEEEE" fill-opacity="0.09"/>
<path d="M309.328 543.442L306.564 541.581L305.549 543.45L303.433 542.554L302.402 541.222L299.041 538.161L300.223 535.384L297.139 536.632L293.992 531.987L288.426 528.329L288.935 527.377L287.031 526.359L283.564 527.751L272.425 519.074L274.339 517.506L272.527 516.63L274.317 511.478L270.036 513.8L271.419 514.952L270.092 518.843L264.956 518.28L256.545 511.972L252.877 505.52L250.461 505.997L249.318 503.841L247.202 503.421L246.939 500.849L242.18 502.695L238.989 501.587L238.746 504.089L240.414 504.58L239.267 507.36L234.66 507.514L232.656 504.515L229.064 504.774L223.481 496.486L218.944 493.206L219.876 487.654L221.923 489.057L222.741 485.642L219.107 481.132L217.852 476.686L214.668 474.013L216.349 464.087L219.251 459.592L236.511 458.142L243.753 455.346L246.153 453.165L249.74 447.628L251.423 445.465L256.174 444.231L263.227 445.609L271.132 445.515L276.042 442.964L278.857 438.258L279.532 433.471L279.19 423.744L278.525 392.343L281.078 377.745L281.406 375.487L282.17 368.459L278.724 364.167L269.05 363.763L266.767 362.821L261.31 343.476L255.806 331.618L244.399 321.425L237.78 315.787L235.713 310.774L234.088 303.818L231.835 301.958L225.033 298.452L212.773 290.718L208.072 291.241L202.109 296.68L201.249 291.922L198.784 282.387L193.606 272.697L191.548 267.548L192.046 260.433L201.674 243.471L202.46 238.079L201.382 234.497L196.65 231.579L182.026 227.458L177.132 223.44L174.1 218.597L171.973 210.55L174.46 183.25L171.443 170.408L167.04 166.185L162.347 165.619L152.802 167.744L150.317 166.276L150.035 163.975L153.107 159.492L162.651 157.367L167.612 156.046L172.721 153.577L177.575 151.84L187.428 147.252L192.456 143.994L194.775 142.965L199.523 141.765L211.629 146.833L218.848 152.172L226.237 153.131L231.537 151.833L249.442 141.645L254.17 140.239L256.555 141.189L259.94 145.852L262.398 155.488L264.115 160.647L271.611 173.699L274.921 178.459L277.424 180.165L282.066 180.967L298.528 181.675L301.566 185.462L300.951 190.355L301.429 192.772L305.906 195.945L312.854 200.277L313.305 202.59L312.01 209.921L312.599 212.209L314.841 213.251L317.159 213.209L321.94 209.594L326.659 205.396L331.839 201.434L336.88 200.425L355.714 208.108L358.165 206.168L356.58 201.563L355.642 196.97L356.921 194.744L359.21 194.632L363.111 198.241L366.063 207.639L373.272 210.186L380.503 211.951L387.447 216.352L392.086 220.115L399.492 225.705L406.419 226.938L426.514 225.347L458.472 219.171L463.151 218.954L465.51 220.276L469.221 224.655L470.946 227.738L473.03 232.513L473.753 240.667L471.466 248.065L466.492 254.935L466.519 259.907L470.112 264.516L472.477 265.26L482.461 262.69L484.725 263.427L485.815 265.852L485.469 278.595L479.664 311.961L486.013 341.922L484.425 372.928L486.361 377.864L490.331 382.431L495.116 384.604L499.842 384.696L528.519 374.785L553.15 373.579L560.551 369.976L572.369 355.789L582.374 351.96L602.8 351.481L638.903 358.567L660.062 364.165L664.205 367.723L665.042 373.774L663.304 408.378L668.625 414.572L684.841 418.803L689.16 422.271L698.802 455.288L711.289 465.625L710.041 475.207L701.028 488.229L703.902 499.222L699.589 514.173L699.701 541.791L684.257 539.179L674.401 542.338L672.612 549.43L676.023 557.124L676.491 566.996L674.384 573.76L671.161 578.471L635.222 596.318L624.225 605.082L624.825 609.652L627.168 611.688L643.529 620.662L644.758 625.48L643.032 627.777L625.684 634.871L618.191 640.271L602.548 656.575L573.961 678.34L560.313 698.732L555.339 698.793L534.567 692.03L520.414 704.556L513.296 708.008L498.743 706.276L496.733 701.437L499.294 689.632L497.914 682.591L491.514 676.73L479.34 673.122L477.524 670.85L477.334 668.215L485.451 647.062L484.58 637.128L481.336 632.884L466.768 633.806L434.819 643.761L432.697 641.978L431.377 630.175L426.553 629.054L411.609 632.436L406.858 631.729L401.756 627.764L391.291 615.287L383.888 609.663L377.402 599.2L374.92 598.175L365.497 600.989L349.819 602.208L349.2 602.301L348.823 602.343L346.86 592.435L342.818 588.407L343.452 585.183L340.506 586.407L338.503 585.348L338.105 587.635L340.674 588.871L339.534 590.084L336.918 588.54L337.207 583.93L335.485 579.826L335.87 578.219L333.504 576.998L331.363 574.5L328.454 565.955L328.427 560.983L325.298 557.53L322.491 557.265L319.829 552.483L312.453 547.44L310.665 544.285L309.328 543.442Z" fill="#00AFA9"/>
<mask id="mask0_346_3669" style="mask-type:luminance" maskUnits="userSpaceOnUse" x="150" y="140" width="562" height="569">
<path d="M249.408 141.643L231.537 151.833L226.237 153.131L218.848 152.172L211.627 146.866L199.489 141.762L194.775 142.965L192.456 143.994L187.428 147.252L177.575 151.84L172.721 153.577L167.612 156.046L162.651 157.367L153.107 159.492L150.035 163.975L150.317 166.276L152.802 167.744L162.347 165.619L167.04 166.185L171.409 170.406L174.46 183.25L171.973 210.55L174.1 218.597L177.132 223.44L182.026 227.458L196.65 231.579L201.382 234.497L202.46 238.079L201.674 243.471L192.045 260.433L191.548 267.548L193.606 272.697L198.784 282.387L201.249 291.922L202.106 296.714L208.072 291.241L212.739 290.716L224.999 298.45L231.835 301.958L234.088 303.818L235.713 310.774L237.78 315.787L244.399 321.425L255.806 331.618L261.31 343.476L266.767 362.821L269.05 363.763L278.724 364.167L282.169 368.459L281.406 375.487L281.078 377.745L278.525 392.343L279.19 423.744L279.532 433.471L278.857 438.258L276.042 442.964L271.132 445.515L263.229 445.575L256.174 444.231L251.423 445.465L249.74 447.628L246.153 453.165L243.753 455.346L236.511 458.142L219.251 459.592L216.349 464.087L214.668 474.013L217.849 476.72L219.107 481.132L222.741 485.642L221.923 489.057L219.876 487.654L218.944 493.206L223.481 496.486L229.064 504.774L232.623 504.512L234.66 507.514L239.267 507.36L240.414 504.58L238.746 504.089L238.989 501.587L242.18 502.695L246.939 500.849L247.202 503.421L249.318 503.841L250.46 505.997L252.877 505.52L256.545 511.972L264.956 518.28L270.092 518.843L271.419 514.952L270.036 513.8L274.317 511.478L272.527 516.63L274.339 517.506L272.425 519.074L283.564 527.751L287.031 526.359L288.935 527.377L288.426 528.329L293.992 531.987L297.137 536.666L300.223 535.384L299.041 538.161L302.402 541.222L303.433 542.554L305.549 543.45L306.564 541.581L309.328 543.442L310.665 544.285L312.453 547.44L319.829 552.483L322.491 557.265L325.298 557.53L328.427 560.983L328.454 565.955L331.329 574.497L333.504 576.998L335.87 578.219L335.485 579.826L337.207 583.93L336.916 588.574L339.534 590.084L340.674 588.871L338.105 587.635L338.503 585.348L340.506 586.407L343.452 585.183L342.818 588.407L346.86 592.435L348.823 602.343L349.166 602.299L349.819 602.208L365.497 600.989L374.92 598.175L377.402 599.2L383.888 609.663L391.291 615.287L401.756 627.764L406.858 631.729L411.609 632.436L426.553 629.054L431.377 630.175L432.697 641.978L434.819 643.761L466.766 633.84L481.302 632.881L484.58 637.128L485.451 647.062L477.332 668.249L477.524 670.85L479.34 673.122L491.514 676.73L497.914 682.591L499.26 689.63L496.732 701.437L498.709 706.273L513.296 708.008L520.414 704.556L534.567 692.03L555.339 698.793L560.313 698.732L573.961 678.34L602.548 656.575L618.191 640.271L625.684 634.871L643.032 627.777L644.758 625.48L643.529 620.662L627.168 611.688L624.825 609.652L624.225 605.082L635.221 596.318L671.127 578.469L674.384 573.76L676.491 566.996L676.023 557.124L672.612 549.43L674.368 542.335L684.257 539.179L699.701 541.791L699.589 514.173L703.902 499.222L701.028 488.229L710.041 475.207L711.255 465.623L698.802 455.288L689.16 422.271L684.841 418.803L668.625 414.572L663.304 408.378L665.042 373.774L664.205 367.723L660.062 364.165L638.903 358.567L602.8 351.481L582.374 351.96L572.369 355.789L560.517 369.974L553.15 373.579L528.519 374.785L499.842 384.696L495.116 384.604L490.331 382.431L486.361 377.864L484.425 372.928L486.013 341.922L479.664 311.961L485.469 278.595L485.815 265.852L484.691 263.424L482.461 262.69L472.477 265.26L470.112 264.516L466.519 259.907L466.492 254.935L471.466 248.065L473.753 240.667L473.03 232.513L470.946 227.738L469.221 224.655L465.51 220.276L463.151 218.954L458.472 219.171L426.481 225.344L406.419 226.938L399.492 225.705L392.086 220.115L387.447 216.352L380.503 211.951L373.272 210.186L366.063 207.639L363.111 198.241L359.21 194.632L356.921 194.744L355.608 196.968L356.58 201.563L358.165 206.168L355.714 208.108L336.88 200.425L331.839 201.434L326.659 205.396L321.94 209.594L317.159 213.209L314.841 213.251L312.599 212.209L312.01 209.921L313.305 202.59L312.854 200.277L305.906 195.945L301.429 192.772L300.951 190.355L301.566 185.462L298.528 181.675L282.066 180.967L277.423 180.165L274.921 178.459L271.611 173.699L264.114 160.647L262.398 155.488L259.94 145.852L256.555 141.189L254.17 140.239L249.408 141.643Z" fill="white"/>
</mask>
<g mask="url(#mask0_346_3669)">
<g opacity="0.55">
<mask id="mask1_346_3669" style="mask-type:luminance" maskUnits="userSpaceOnUse" x="-274" y="-280" width="1409" height="1408">
<path d="M1134.45 -187.703L-181.159 -279.663L-273.119 1035.94L1042.49 1127.9L1134.45 -187.703Z" fill="white"/>
</mask>
<g mask="url(#mask1_346_3669)">
<path d="M-185.858 700.81L153.986 1040.67L157.63 1040.66L-185.878 697.2L-185.858 700.81Z" fill="#DBDADA"/>
<path d="M-185.88 673.844L180.951 1040.65L184.592 1040.67L-185.866 670.236L-185.88 673.844Z" fill="#DBDADA"/>
<path d="M-185.868 646.882L207.947 1040.67L211.557 1040.65L-185.886 643.238L-185.868 646.882Z" fill="#DBDADA"/>
<path d="M-185.854 619.918L234.914 1040.64L238.555 1040.66L-185.872 616.274L-185.854 619.918Z" fill="#DBDADA"/>
<path d="M-185.875 592.92L261.875 1040.66L265.517 1040.67L-185.861 589.312L-185.875 592.92Z" fill="#DBDADA"/>
<path d="M-185.864 565.481L-185.863 565.958L288.871 1040.67L292.481 1040.65L-185.881 562.313L-185.864 565.481Z" fill="#DBDADA"/>
<path d="M-185.885 538.992L315.836 1040.65L319.478 1040.66L-185.869 535.351L-185.885 538.992Z" fill="#DBDADA"/>
<path d="M-185.882 510.7L-185.871 511.995L342.799 1040.66L344.093 1040.65L346.443 1040.64L-185.891 508.385L-185.882 510.7Z" fill="#DBDADA"/>
<path d="M-185.857 485.033L369.765 1040.64L373.406 1040.66L-185.875 481.389L-185.857 485.033Z" fill="#DBDADA"/>
<path d="M-185.88 458.068L396.761 1040.65L400.369 1040.67L-185.864 454.427L-185.88 458.068Z" fill="#DBDADA"/>
<path d="M-185.867 431.105L423.724 1040.67L427.368 1040.65L-185.885 427.461L-185.867 431.105Z" fill="#DBDADA"/>
<path d="M-185.887 404.106L450.689 1040.64L454.33 1040.66L-185.873 400.498L-185.887 404.106Z" fill="#DBDADA"/>
<path d="M-185.874 377.143L477.686 1040.66L477.891 1040.64L481.296 1040.64L-185.892 373.499L-185.874 377.143Z" fill="#DBDADA"/>
<path d="M-185.863 350.18L504.648 1040.67L508.292 1040.65L-185.88 346.536L-185.863 350.18Z" fill="#DBDADA"/>
<path d="M-185.882 323.181L531.613 1040.65L535.255 1040.66L-185.868 319.573L-185.882 323.181Z" fill="#DBDADA"/>
<path d="M-185.869 296.219L558.577 1040.66L562.221 1040.64L-185.886 292.575L-185.869 296.219Z" fill="#DBDADA"/>
<path d="M-185.891 269.253L585.575 1040.64L589.182 1040.66L-185.875 265.611L-185.891 269.253Z" fill="#DBDADA"/>
<path d="M-185.872 241.712L-185.879 242.291L612.538 1040.65L616.182 1040.64L-185.896 238.646L-185.872 241.712Z" fill="#DBDADA"/>
<path d="M-185.865 215.294L639.502 1040.63L643.144 1040.65L-185.885 211.684L-185.865 215.294Z" fill="#DBDADA"/>
<path d="M668.304 1040.64L-185.896 186.523L668.268 1040.67L668.304 1040.64Z" fill="#DBDADA"/>
<path d="M-185.876 186.73L-185.885 188.329L666.5 1040.65L669.769 1040.64L670.108 1040.66L-185.869 184.688L-185.876 186.73Z" fill="#DBDADA"/>
<path d="M-185.874 161.365L693.461 1040.66L697.105 1040.64L-185.892 157.721L-185.874 161.365Z" fill="#DBDADA"/>
<path d="M722.23 1040.66L-185.869 132.564L722.266 1040.63L722.23 1040.66Z" fill="#DBDADA"/>
<path d="M-185.893 134.368L720.427 1040.64L724.069 1040.65L-185.879 130.76L-185.893 134.368Z" fill="#DBDADA"/>
<path d="M-185.88 107.406L747.424 1040.65L751.035 1040.63L-185.898 103.762L-185.88 107.406Z" fill="#DBDADA"/>
<path d="M776.192 1040.65L-185.876 78.6025L776.194 1040.62L776.192 1040.65Z" fill="#DBDADA"/>
<path d="M-185.902 80.4395L774.39 1040.63L777.997 1040.64L-185.886 76.7979L-185.902 80.4395Z" fill="#DBDADA"/>
<path d="M-185.887 53.4427L801.352 1040.64L804.994 1040.66L-185.874 49.835L-185.887 53.4427Z" fill="#DBDADA"/>
<path d="M-185.876 26.481L828.314 1040.66L831.958 1040.64L-185.894 22.8369L-185.876 26.481Z" fill="#DBDADA"/>
<path d="M-185.898 -0.485278L855.313 1040.64L858.921 1040.65L-185.881 -4.12695L-185.898 -0.485278Z" fill="#DBDADA"/>
<path d="M-185.886 -27.4478L882.276 1040.65L885.92 1040.63L-185.903 -31.0918L-185.886 -27.4478Z" fill="#DBDADA"/>
<path d="M-185.904 -54.4469L909.242 1040.63L912.883 1040.64L-185.89 -58.0547L-185.904 -54.4469Z" fill="#DBDADA"/>
<path d="M938.044 1040.63L-185.901 -83.2158L938.008 1040.66L938.044 1040.63Z" fill="#DBDADA"/>
<path d="M-185.892 -81.4091L936.238 1040.64L939.846 1040.66L-185.876 -85.0508L-185.892 -81.4091Z" fill="#DBDADA"/>
<path d="M-185.88 -108.373L963.201 1040.65L966.811 1040.63L-185.898 -112.017L-185.88 -108.373Z" fill="#DBDADA"/>
<path d="M991.97 1040.62L-185.876 -137.174L992.004 1040.62L991.97 1040.62Z" fill="#DBDADA"/>
<path d="M-185.904 -136.768L-185.9 -135.372L990.166 1040.63L992.718 1040.64L993.807 1040.65L-185.886 -138.979L-185.904 -136.768Z" fill="#DBDADA"/>
<path d="M-185.887 -162.333L1017.13 1040.65L1020.77 1040.63L-185.905 -165.977L-185.887 -162.333Z" fill="#DBDADA"/>
<path d="M-185.896 -192.397L-185.908 -189.3L1044.13 1040.62L1047.23 1040.64L1047.23 1040.09L-185.351 -192.393L-185.896 -192.397Z" fill="#DBDADA"/>
<path d="M-162.03 -192.396L1047.23 1016.77L1047.21 1013.13L-158.386 -192.414L-162.03 -192.396Z" fill="#DBDADA"/>
<path d="M-135.032 -192.416L1047.2 989.805L1047.22 986.164L-131.424 -192.402L-135.032 -192.416Z" fill="#DBDADA"/>
<path d="M-107.524 -192.4L-108.068 -192.404L1047.22 962.809L1047.2 962.536L1047.2 959.199L-104.424 -192.421L-107.524 -192.4Z" fill="#DBDADA"/>
<path d="M-81.1068 -192.391L1047.2 935.845L1047.21 932.203L-77.4629 -192.409L-81.1068 -192.391Z" fill="#DBDADA"/>
<path d="M1047.2 907.043L-52.3022 -192.42L1047.23 907.046L1047.2 907.043Z" fill="#DBDADA"/>
<path d="M-54.1426 -192.412L1047.21 908.882L1047.22 905.241L-50.5009 -192.396L-54.1426 -192.412Z" fill="#DBDADA"/>
<path d="M-26.2589 -192.404L-27.1444 -192.398L1047.22 881.885L1047.2 880.794L1047.2 878.275L-23.5343 -192.418L-26.2589 -192.404Z" fill="#DBDADA"/>
<path d="M-0.179175 -192.421L1047.2 854.919L1047.22 851.277L3.46252 -192.405L-0.179175 -192.421Z" fill="#DBDADA"/>
<path d="M26.7823 -192.408L1047.21 827.957L1047.22 827.379L1047.2 824.313L30.4263 -192.425L26.7823 -192.408Z" fill="#DBDADA"/>
<path d="M53.7794 -192.393L1047.19 800.958L1047.21 797.35L57.3896 -192.413L53.7794 -192.393Z" fill="#DBDADA"/>
<path d="M1047.2 772.19L82.5498 -192.425L1047.2 772.156L1047.2 772.19Z" fill="#DBDADA"/>
<path d="M84.2523 -192.408L80.7461 -192.415L1047.21 773.995L1047.22 772.362L1047.22 770.387L84.3878 -192.399L84.2523 -192.408Z" fill="#DBDADA"/>
<path d="M107.708 -192.404L1047.22 747.031L1047.2 743.387L111.352 -192.421L107.708 -192.404Z" fill="#DBDADA"/>
<path d="M134.673 -192.425L1047.2 720.067L1047.21 716.425L138.314 -192.409L134.673 -192.425Z" fill="#DBDADA"/>
<path d="M161.67 -192.41L1047.21 693.071L1047.19 689.461L165.28 -192.43L161.67 -192.41Z" fill="#DBDADA"/>
<path d="M188.633 -192.398L1047.19 666.105L1047.21 662.464L192.277 -192.416L188.633 -192.398Z" fill="#DBDADA"/>
<path d="M1047.2 637.304L217.437 -192.427L1047.23 637.306L1047.2 637.304Z" fill="#DBDADA"/>
<path d="M216.855 -192.399L215.597 -192.419L1047.2 639.143L1047.22 635.501L219.238 -192.403L216.855 -192.399Z" fill="#DBDADA"/>
<path d="M242.595 -192.406L1047.22 612.179L1047.21 610.239L1047.2 608.535L246.205 -192.426L242.595 -192.406Z" fill="#DBDADA"/>
<path d="M1047.22 583.379L271.362 -192.402L1047.19 583.376L1047.22 583.379Z" fill="#DBDADA"/>
<path d="M269.56 -192.427L1047.2 585.181L1047.21 581.573L273.202 -192.411L269.56 -192.427Z" fill="#DBDADA"/>
<path d="M1047.2 556.413L298.362 -192.422L1047.24 556.382L1047.2 556.413Z" fill="#DBDADA"/>
<path d="M296.521 -192.414L1047.21 558.219L1047.21 557.164L1047.19 554.575L300.165 -192.431L296.521 -192.414Z" fill="#DBDADA"/>
<path d="M323.519 -192.4L1047.19 531.253L1047.2 527.611L327.129 -192.42L323.519 -192.4Z" fill="#DBDADA"/>
<path d="M350.482 -192.421L1047.2 504.257L1047.21 500.649L354.124 -192.405L350.482 -192.421Z" fill="#DBDADA"/>
<path d="M377.446 -192.409L1047.21 477.294L1047.19 473.65L381.09 -192.426L377.446 -192.409Z" fill="#DBDADA"/>
<path d="M1047.22 448.492L406.248 -192.404L1047.21 448.526L1047.22 448.492Z" fill="#DBDADA"/>
<path d="M404.411 -192.431L1047.19 450.329L1047.2 447.708L1047.21 446.687L408.053 -192.415L404.411 -192.431Z" fill="#DBDADA"/>
<path d="M431.408 -192.416L1047.2 423.332L1047.19 419.722L435.018 -192.436L431.408 -192.416Z" fill="#DBDADA"/>
<path d="M1047.21 394.565L460.177 -192.413L1047.17 394.563L1047.21 394.565Z" fill="#DBDADA"/>
<path d="M458.373 -192.438L1047.18 396.367L1047.2 392.725L462.015 -192.421L458.373 -192.438Z" fill="#DBDADA"/>
<path d="M1047.19 367.599L487.175 -192.434L1047.22 367.567L1047.19 367.599Z" fill="#DBDADA"/>
<path d="M485.336 -192.427L1047.2 369.403L1047.21 365.761L488.978 -192.411L485.336 -192.427Z" fill="#DBDADA"/>
<path d="M512.333 -192.412L1047.21 342.441L1047.19 338.797L515.943 -192.432L512.333 -192.412Z" fill="#DBDADA"/>
<path d="M539.978 -192.418L539.298 -192.432L1047.19 315.443L1047.18 315.136L1047.2 311.836L542.94 -192.416L539.978 -192.418Z" fill="#DBDADA"/>
<path d="M1047.19 286.674L568.065 -192.431L1047.19 286.641L1047.19 286.674Z" fill="#DBDADA"/>
<path d="M566.261 -192.42L1047.2 288.48L1047.18 284.836L569.905 -192.438L566.261 -192.42Z" fill="#DBDADA"/>
<path d="M593.227 -192.442L1047.18 261.515L1047.2 257.874L596.868 -192.425L593.227 -192.442Z" fill="#DBDADA"/>
<path d="M621.04 -192.439L620.222 -192.428L1047.19 234.518L1047.21 230.91L623.83 -192.414L621.04 -192.439Z" fill="#DBDADA"/>
<path d="M647.185 -192.415L1047.21 207.556L1047.19 203.912L650.829 -192.432L647.185 -192.415Z" fill="#DBDADA"/>
<path d="M674.15 -192.437L1047.18 180.59L1047.2 176.949L677.792 -192.42L674.15 -192.437Z" fill="#DBDADA"/>
<path d="M701.146 -192.421L1047.2 153.595L1047.18 149.984L704.756 -192.441L701.146 -192.421Z" fill="#DBDADA"/>
</g>
</g>
</g>
<circle cx="223.855" cy="492.927" r="34.7421" fill="#CDDC29" fill-opacity="0.2"/>
<circle cx="223.855" cy="492.929" r="35.034" fill="#CDDC29"/>
<path d="M26.4101 524.793C27.3266 523.988 28.0903 523.099 28.7013 522.127C29.34 521.155 29.6594 520.225 29.6594 519.336C29.6594 518.086 29.2012 517.1 28.2847 516.378C27.3682 515.656 26.1462 515.295 24.6188 515.295C23.3135 515.295 22.1054 515.531 20.9945 516.003C19.9114 516.475 18.8422 517.072 17.7868 517.795C19.3698 518.183 20.8695 518.989 22.2859 520.211C23.7023 521.405 25.077 522.932 26.4101 524.793ZM24.8687 542.373C22.6747 542.373 20.8418 542.234 19.3698 541.956C17.9257 541.679 16.7592 541.262 15.8705 540.707C15.0096 540.179 14.3847 539.498 13.9959 538.665C13.6349 537.86 13.4544 536.93 13.4544 535.874C13.4544 534.902 13.746 533.958 14.3292 533.041C14.9402 532.153 15.7178 531.306 16.662 530.5C17.6063 529.695 18.6339 528.959 19.7448 528.292C20.8834 527.598 21.9804 527.001 23.0358 526.501C22.2304 525.529 21.5083 524.696 20.8695 524.002C20.2308 523.307 19.592 522.696 18.9532 522.169C18.3145 521.641 17.6063 521.155 16.8287 520.711C16.0788 520.266 15.1762 519.794 14.1209 519.294L14.6624 515.378C16.2732 514.323 17.9535 513.462 19.7031 512.796C21.4805 512.101 23.2302 511.754 24.952 511.754C26.3962 511.754 27.6459 511.948 28.7013 512.337C29.7844 512.698 30.687 513.212 31.4091 513.879C32.1312 514.517 32.6727 515.281 33.0338 516.17C33.3948 517.031 33.5753 517.961 33.5753 518.961C33.5753 520.155 33.2143 521.433 32.4922 522.794C31.7701 524.127 30.6453 525.362 29.1179 526.501C29.951 527.14 30.8814 527.654 31.909 528.042C32.9643 528.431 34.0891 528.626 35.2833 528.626H35.8249V532H35.0333C33.1448 532 31.4646 531.75 29.9927 531.25C28.5485 530.75 27.1183 529.945 25.7019 528.834C24.5077 529.362 23.3968 529.917 22.3692 530.5C21.3694 531.056 20.4946 531.625 19.7448 532.208C18.9949 532.792 18.4117 533.361 17.9951 533.916C17.5785 534.499 17.3702 535.069 17.3702 535.624C17.3702 536.874 17.9951 537.749 19.2449 538.249C20.5224 538.776 22.3553 539.04 24.7438 539.04C25.2437 539.04 25.7852 539.026 26.3684 538.999C26.9516 538.971 27.5349 538.929 28.1181 538.874C28.7291 538.846 29.3262 538.79 29.9094 538.707C30.5204 538.651 31.0758 538.582 31.5757 538.499L31.2841 541.79C30.2843 541.984 29.229 542.123 28.1181 542.206C27.035 542.317 25.9518 542.373 24.8687 542.373ZM34.9767 528.667H40.8922V512.837H44.6414V528.667H49.3905V532H34.9767V528.667ZM42.6418 540.373C41.9475 540.373 41.3643 540.123 40.8922 539.623C40.4478 539.124 40.2257 538.526 40.2257 537.832C40.2257 537.166 40.4478 536.582 40.8922 536.083C41.3643 535.61 41.9475 535.374 42.6418 535.374C43.3361 535.374 43.8916 535.61 44.3082 536.083C44.7525 536.582 44.9747 537.166 44.9747 537.832C44.9747 538.526 44.7525 539.124 44.3082 539.623C43.8916 540.123 43.3361 540.373 42.6418 540.373ZM48.5645 528.667H54.48V512.837H58.2292V528.667H62.9782V532H48.5645V528.667ZM56.1879 509.421C55.4936 509.421 54.9104 509.171 54.4383 508.671C53.9939 508.171 53.7718 507.574 53.7718 506.88C53.7718 506.214 53.9939 505.644 54.4383 505.172C54.9104 504.672 55.4936 504.422 56.1879 504.422C56.8822 504.422 57.4377 504.672 57.8543 505.172C58.2986 505.644 58.5208 506.214 58.5208 506.88C58.5208 507.574 58.2986 508.171 57.8543 508.671C57.4377 509.171 56.8822 509.421 56.1879 509.421ZM62.2772 528.667H68.1927V512.837H71.9419V532H62.2772V528.667ZM65.2766 540.665C64.5545 540.665 63.9574 540.401 63.4853 539.873C63.0132 539.374 62.7771 538.763 62.7771 538.04C62.7771 537.318 63.0132 536.694 63.4853 536.166C63.9574 535.666 64.5545 535.416 65.2766 535.416C65.9987 535.416 66.5958 535.666 67.0679 536.166C67.54 536.694 67.7761 537.318 67.7761 538.04C67.7761 538.763 67.54 539.374 67.0679 539.873C66.5958 540.401 65.9987 540.665 65.2766 540.665ZM71.6503 540.707C70.9282 540.707 70.3173 540.443 69.8174 539.915C69.3452 539.387 69.1092 538.763 69.1092 538.04C69.1092 537.318 69.3452 536.707 69.8174 536.207C70.3173 535.708 70.9282 535.458 71.6503 535.458C72.3724 535.458 72.9556 535.708 73.4 536.207C73.8721 536.707 74.1082 537.318 74.1082 538.04C74.1082 538.763 73.8721 539.387 73.4 539.915C72.9556 540.443 72.3724 540.707 71.6503 540.707ZM86.7436 528.667C87.0491 528.667 87.4379 528.667 87.9101 528.667C88.41 528.667 88.9238 528.695 89.4514 528.751C90.0069 528.778 90.5484 528.82 91.0761 528.876C91.6038 528.931 92.0481 529.028 92.4092 529.167C91.0761 528.195 90.4096 526.82 90.4096 525.043C90.4096 524.154 90.604 523.321 90.9928 522.544C91.3816 521.738 91.9093 521.044 92.5758 520.461C93.2701 519.85 94.0894 519.364 95.0336 519.003C96.0057 518.642 97.0749 518.461 98.2413 518.461C98.8523 518.461 99.5466 518.489 100.324 518.544C101.13 518.6 101.921 518.711 102.699 518.878L102.032 522.169C100.671 521.919 99.3383 521.794 98.033 521.794C96.7 521.794 95.7418 522.085 95.1586 522.669C94.6032 523.252 94.3255 524.071 94.3255 525.126C94.3255 526.154 94.7559 527.015 95.6169 527.709C96.4778 528.376 97.797 528.709 99.5744 528.709H103.574V532H86.7436V528.667ZM113.441 528.667H118.19V532H109.692V504.422C109.192 504.339 108.609 504.269 107.942 504.214C107.303 504.131 106.679 504.061 106.068 504.006V501.798C107.123 501.659 108.303 501.562 109.609 501.506C110.942 501.451 112.219 501.451 113.441 501.506V528.667ZM117.358 528.667H123.273V512.837H127.022V528.667H131.771V532H117.358V528.667ZM124.981 509.421C124.287 509.421 123.704 509.171 123.231 508.671C122.787 508.171 122.565 507.574 122.565 506.88C122.565 506.214 122.787 505.644 123.231 505.172C123.704 504.672 124.287 504.422 124.981 504.422C125.675 504.422 126.231 504.672 126.647 505.172C127.092 505.644 127.314 506.214 127.314 506.88C127.314 507.574 127.092 508.171 126.647 508.671C126.231 509.171 125.675 509.421 124.981 509.421ZM130.945 528.667H136.861V512.837H140.61V528.667H145.359V532H130.945V528.667ZM134.278 540.623C133.556 540.623 132.959 540.359 132.487 539.832C132.015 539.332 131.779 538.721 131.779 537.999C131.779 537.277 132.015 536.652 132.487 536.124C132.959 535.624 133.556 535.374 134.278 535.374C135 535.374 135.597 535.624 136.069 536.124C136.541 536.652 136.778 537.277 136.778 537.999C136.778 538.721 136.541 539.332 136.069 539.832C135.597 540.359 135 540.623 134.278 540.623ZM140.652 540.665C139.93 540.665 139.319 540.401 138.819 539.873C138.347 539.346 138.111 538.721 138.111 537.999C138.111 537.277 138.347 536.666 138.819 536.166C139.319 535.666 139.93 535.416 140.652 535.416C141.374 535.416 141.957 535.666 142.401 536.166C142.874 536.666 143.11 537.277 143.11 537.999C143.11 538.721 142.874 539.346 142.401 539.873C141.957 540.401 141.374 540.665 140.652 540.665ZM144.533 528.667H145.866C146.394 528.667 146.908 528.584 147.408 528.417C147.907 528.251 148.352 527.959 148.741 527.543C149.129 527.098 149.435 526.515 149.657 525.793C149.907 525.043 150.032 524.113 150.032 523.002C150.032 521.169 150.254 519.586 150.699 518.253C151.171 516.892 151.823 515.767 152.656 514.878C153.49 513.99 154.476 513.323 155.614 512.879C156.781 512.434 158.072 512.212 159.488 512.212C160.71 512.212 161.807 512.407 162.779 512.796C163.779 513.157 164.626 513.74 165.321 514.545C166.015 515.323 166.543 516.336 166.904 517.586C167.292 518.808 167.487 520.28 167.487 522.002V532H159.905C157.544 532 155.711 531.639 154.406 530.917C153.101 530.167 152.115 529.209 151.448 528.042C151.06 529.209 150.365 530.167 149.365 530.917C148.393 531.639 147.046 532 145.325 532H144.533V528.667ZM163.738 528.667V521.252C163.738 520.447 163.626 519.683 163.404 518.961C163.21 518.239 162.904 517.614 162.488 517.086C162.099 516.531 161.599 516.1 160.988 515.795C160.405 515.489 159.724 515.337 158.947 515.337C158.058 515.337 157.294 515.503 156.656 515.837C156.045 516.17 155.531 516.628 155.114 517.211C154.726 517.795 154.434 518.475 154.239 519.253C154.073 520.03 153.99 520.877 153.99 521.794C153.99 524.182 154.517 525.932 155.573 527.043C156.656 528.126 158.336 528.667 160.613 528.667H163.738ZM58.9367 576C56.104 576 53.6878 575.708 51.6882 575.125C49.7164 574.514 48.1056 573.667 46.8558 572.584C45.6339 571.501 44.7313 570.196 44.1481 568.668C43.5926 567.141 43.3149 565.433 43.3149 563.544C43.3149 562.655 43.3982 561.67 43.5648 560.586C43.7315 559.476 43.9259 558.476 44.1481 557.587L48.2306 556.754C47.8973 557.809 47.6474 558.837 47.4807 559.837C47.3141 560.809 47.2308 561.878 47.2308 563.044C47.2308 564.461 47.4113 565.752 47.7723 566.918C48.1334 568.085 48.7721 569.099 49.6886 569.96C50.6329 570.82 51.9104 571.487 53.5212 571.959C55.132 572.431 57.1871 572.667 59.6866 572.667H64.8939V557.004C66.0325 556.754 67.1157 556.559 68.1432 556.421C69.1986 556.282 70.2539 556.212 71.3093 556.212C73.0034 556.212 74.4059 556.421 75.5167 556.837C76.6554 557.254 77.558 557.879 78.2245 558.712C78.9188 559.517 79.4049 560.517 79.6826 561.711C79.9603 562.905 80.0992 564.294 80.0992 565.877V576H76.3499V565.919C76.3499 563.614 75.9056 561.947 75.0168 560.92C74.1281 559.864 72.7673 559.337 70.9343 559.337C70.6288 559.337 70.2261 559.351 69.7262 559.378C69.2541 559.406 68.8931 559.448 68.6431 559.503V576H58.9367ZM56.9372 584.582C56.2151 584.582 55.618 584.318 55.1458 583.79C54.6737 583.29 54.4377 582.679 54.4377 581.957C54.4377 581.235 54.6737 580.61 55.1458 580.083C55.618 579.583 56.2151 579.333 56.9372 579.333C57.6592 579.333 58.2563 579.583 58.7285 580.083C59.2006 580.61 59.4366 581.235 59.4366 581.957C59.4366 582.679 59.2006 583.29 58.7285 583.79C58.2563 584.318 57.6592 584.582 56.9372 584.582ZM63.3109 584.623C62.5888 584.623 61.9778 584.359 61.4779 583.832C61.0058 583.304 60.7697 582.679 60.7697 581.957C60.7697 581.235 61.0058 580.624 61.4779 580.124C61.9778 579.624 62.5888 579.374 63.3109 579.374C64.0329 579.374 64.6162 579.624 65.0605 580.124C65.5326 580.624 65.7687 581.235 65.7687 581.957C65.7687 582.679 65.5326 583.304 65.0605 583.832C64.6162 584.359 64.0329 584.623 63.3109 584.623ZM84.1468 586.415C83.4248 586.415 82.7027 586.373 81.9806 586.29L82.3972 582.54C83.036 582.624 83.6469 582.665 84.2302 582.665C86.202 582.665 87.6322 582.152 88.521 581.124C89.4097 580.124 89.854 578.541 89.854 576.375V556.837H93.6033V576.167C93.6033 577.666 93.4505 579.041 93.145 580.291C92.8673 581.541 92.3674 582.61 91.6453 583.498C90.9233 584.415 89.9512 585.123 88.7292 585.623C87.535 586.151 86.0076 586.415 84.1468 586.415ZM104.735 572.667H109.484V576H100.986V548.422C100.486 548.339 99.9028 548.269 99.2363 548.214C98.5975 548.131 97.9726 548.061 97.3616 548.006V545.798C98.417 545.659 99.5973 545.562 100.903 545.506C102.236 545.451 103.513 545.451 104.735 545.506V572.667ZM108.652 572.667H123.982V567.918C123.982 565.113 123.246 563.128 121.774 561.961C120.33 560.767 118.15 560.17 115.234 560.17C114.456 560.17 113.734 560.184 113.067 560.212C112.429 560.239 111.873 560.281 111.401 560.336L111.818 557.004C112.29 556.948 112.831 556.907 113.442 556.879C114.053 556.851 114.803 556.837 115.692 556.837C117.192 556.837 118.664 556.99 120.108 557.295C121.552 557.573 122.829 558.101 123.94 558.878C125.079 559.628 125.995 560.67 126.69 562.003C127.384 563.308 127.731 564.974 127.731 567.002V572.667H132.48V576H108.652V572.667ZM117.775 584.332C117.081 584.332 116.497 584.082 116.025 583.582C115.581 583.082 115.359 582.485 115.359 581.791C115.359 581.124 115.581 580.541 116.025 580.041C116.497 579.569 117.081 579.333 117.775 579.333C118.469 579.333 119.025 579.569 119.441 580.041C119.886 580.541 120.108 581.124 120.108 581.791C120.108 582.485 119.886 583.082 119.441 583.582C119.025 584.082 118.469 584.332 117.775 584.332ZM131.637 572.667H137.552V556.837H141.302V572.667H146.051V576H131.637V572.667ZM136.469 553.38C135.747 553.38 135.15 553.13 134.678 552.63C134.206 552.102 133.97 551.477 133.97 550.755C133.97 550.033 134.206 549.422 134.678 548.922C135.15 548.394 135.747 548.131 136.469 548.131C137.191 548.131 137.788 548.394 138.261 548.922C138.733 549.422 138.969 550.033 138.969 550.755C138.969 551.477 138.733 552.102 138.261 552.63C137.788 553.13 137.191 553.38 136.469 553.38ZM142.843 553.421C142.121 553.421 141.51 553.157 141.01 552.63C140.538 552.102 140.302 551.477 140.302 550.755C140.302 550.033 140.538 549.422 141.01 548.922C141.51 548.422 142.121 548.172 142.843 548.172C143.565 548.172 144.148 548.422 144.593 548.922C145.065 549.422 145.301 550.033 145.301 550.755C145.301 551.477 145.065 552.102 144.593 552.63C144.148 553.157 143.565 553.421 142.843 553.421ZM145.225 572.667H150.932V545.506H154.681V576H145.225V572.667ZM166.653 576H162.904V548.422C162.404 548.339 161.821 548.269 161.154 548.214C160.515 548.131 159.891 548.061 159.28 548.006V545.798C160.335 545.659 161.515 545.562 162.82 545.506C164.154 545.451 165.431 545.451 166.653 545.506V576Z" fill="white"/>
</svg>
