<svg width="919" height="1080" viewBox="0 0 919 1080" fill="none" xmlns="http://www.w3.org/2000/svg">
<path d="M2087.52 665.517L1820.17 646.393L1553.41 341.582L1527.91 215.468L1463.95 178.618L1370.12 31.1843L1170.1 -25.1965L998.561 -38.5414L584.373 -355.907L468.826 -382.206L252.265 -324.628L344.108 -205.888L140.102 -71.2175L20.3647 -46.1076L49.8564 51.1142L243.901 464.305L368.611 597.388L410.25 697.794L404.671 836.854L552.894 993.043L801.931 1390.7L850.139 1278.34L1291.42 1321.37L1368.72 1201.44L1471.53 1147.24L1776.34 1094.26L2093.1 964.957L2148.89 734.652L2087.52 665.517Z" fill="#EEEEEE" fill-opacity="0.09"/>
<path d="M309.328 543.442L306.564 541.581L305.549 543.45L303.433 542.554L302.402 541.222L299.041 538.161L300.223 535.384L297.139 536.632L293.992 531.987L288.426 528.329L288.935 527.377L287.031 526.359L283.564 527.751L272.425 519.074L274.339 517.506L272.527 516.63L274.317 511.478L270.036 513.8L271.419 514.952L270.092 518.843L264.956 518.28L256.545 511.972L252.877 505.52L250.461 505.997L249.318 503.841L247.202 503.421L246.939 500.849L242.18 502.695L238.989 501.587L238.746 504.089L240.414 504.58L239.267 507.36L234.66 507.514L232.656 504.515L229.064 504.774L223.481 496.486L218.944 493.206L219.876 487.654L221.923 489.057L222.741 485.642L219.107 481.132L217.852 476.686L214.668 474.013L216.349 464.087L219.251 459.592L236.511 458.142L243.753 455.346L246.153 453.165L249.74 447.628L251.423 445.465L256.174 444.231L263.227 445.609L271.132 445.515L276.042 442.964L278.857 438.258L279.532 433.471L279.19 423.744L278.525 392.343L281.078 377.745L281.406 375.487L282.17 368.459L278.724 364.167L269.05 363.763L266.767 362.821L261.31 343.476L255.806 331.618L244.399 321.425L237.78 315.787L235.713 310.774L234.088 303.818L231.835 301.958L225.033 298.452L212.773 290.718L208.072 291.241L202.109 296.68L201.249 291.922L198.784 282.387L193.606 272.697L191.548 267.548L192.046 260.433L201.674 243.471L202.46 238.079L201.382 234.497L196.65 231.579L182.026 227.458L177.132 223.44L174.1 218.597L171.973 210.55L174.46 183.25L171.443 170.408L167.04 166.185L162.347 165.619L152.802 167.744L150.317 166.276L150.035 163.975L153.107 159.492L162.651 157.367L167.612 156.046L172.721 153.577L177.575 151.84L187.428 147.252L192.456 143.994L194.775 142.965L199.523 141.765L211.629 146.833L218.848 152.172L226.237 153.131L231.537 151.833L249.442 141.645L254.17 140.239L256.555 141.189L259.94 145.852L262.398 155.488L264.115 160.647L271.611 173.699L274.921 178.459L277.424 180.165L282.066 180.967L298.528 181.675L301.566 185.462L300.951 190.355L301.429 192.772L305.906 195.945L312.854 200.277L313.305 202.59L312.01 209.921L312.599 212.209L314.841 213.251L317.159 213.209L321.94 209.594L326.659 205.396L331.839 201.434L336.88 200.425L355.714 208.108L358.165 206.168L356.58 201.563L355.642 196.97L356.921 194.744L359.21 194.632L363.111 198.241L366.063 207.639L373.272 210.186L380.503 211.951L387.447 216.352L392.086 220.115L399.492 225.705L406.419 226.938L426.514 225.347L458.472 219.171L463.151 218.954L465.51 220.276L469.221 224.655L470.946 227.738L473.03 232.513L473.753 240.667L471.466 248.065L466.492 254.935L466.519 259.907L470.112 264.516L472.477 265.26L482.461 262.69L484.725 263.427L485.815 265.852L485.469 278.595L479.664 311.961L486.013 341.922L484.425 372.928L486.361 377.864L490.331 382.431L495.116 384.604L499.842 384.696L528.519 374.785L553.15 373.579L560.551 369.976L572.369 355.789L582.374 351.96L602.8 351.481L638.903 358.567L660.062 364.165L664.205 367.723L665.042 373.774L663.304 408.378L668.625 414.572L684.841 418.803L689.16 422.271L698.802 455.288L711.289 465.625L710.041 475.207L701.028 488.229L703.902 499.222L699.589 514.173L699.701 541.791L684.257 539.179L674.401 542.338L672.612 549.43L676.023 557.124L676.491 566.996L674.384 573.76L671.161 578.471L635.222 596.318L624.225 605.082L624.825 609.652L627.168 611.688L643.529 620.662L644.758 625.48L643.032 627.777L625.684 634.871L618.191 640.271L602.548 656.575L573.961 678.34L560.313 698.732L555.339 698.793L534.567 692.03L520.414 704.556L513.296 708.008L498.743 706.276L496.733 701.437L499.294 689.632L497.914 682.591L491.514 676.73L479.34 673.122L477.524 670.85L477.334 668.215L485.451 647.062L484.58 637.128L481.336 632.884L466.768 633.806L434.819 643.761L432.697 641.978L431.377 630.175L426.553 629.054L411.609 632.436L406.858 631.729L401.756 627.764L391.291 615.287L383.888 609.663L377.402 599.2L374.92 598.175L365.497 600.989L349.819 602.208L349.2 602.301L348.823 602.343L346.86 592.435L342.818 588.407L343.452 585.183L340.506 586.407L338.503 585.348L338.105 587.635L340.674 588.871L339.534 590.084L336.918 588.54L337.207 583.93L335.485 579.826L335.87 578.219L333.504 576.998L331.363 574.5L328.454 565.955L328.427 560.983L325.298 557.53L322.491 557.265L319.829 552.483L312.453 547.44L310.665 544.285L309.328 543.442Z" fill="#00AFA9"/>
<mask id="mask0_346_4505" style="mask-type:luminance" maskUnits="userSpaceOnUse" x="150" y="140" width="562" height="569">
<path d="M249.408 141.643L231.537 151.833L226.237 153.131L218.848 152.172L211.627 146.866L199.489 141.762L194.775 142.965L192.456 143.994L187.428 147.252L177.575 151.84L172.721 153.577L167.612 156.046L162.651 157.367L153.107 159.492L150.035 163.975L150.317 166.276L152.802 167.744L162.347 165.619L167.04 166.185L171.409 170.406L174.46 183.25L171.973 210.55L174.1 218.597L177.132 223.44L182.026 227.458L196.65 231.579L201.382 234.497L202.46 238.079L201.674 243.471L192.045 260.433L191.548 267.548L193.606 272.697L198.784 282.387L201.249 291.922L202.106 296.714L208.072 291.241L212.739 290.716L224.999 298.45L231.835 301.958L234.088 303.818L235.713 310.774L237.78 315.787L244.399 321.425L255.806 331.618L261.31 343.476L266.767 362.821L269.05 363.763L278.724 364.167L282.169 368.459L281.406 375.487L281.078 377.745L278.525 392.343L279.19 423.744L279.532 433.471L278.857 438.258L276.042 442.964L271.132 445.515L263.229 445.575L256.174 444.231L251.423 445.465L249.74 447.628L246.153 453.165L243.753 455.346L236.511 458.142L219.251 459.592L216.349 464.087L214.668 474.013L217.849 476.72L219.107 481.132L222.741 485.642L221.923 489.057L219.876 487.654L218.944 493.206L223.481 496.486L229.064 504.774L232.623 504.512L234.66 507.514L239.267 507.36L240.414 504.58L238.746 504.089L238.989 501.587L242.18 502.695L246.939 500.849L247.202 503.421L249.318 503.841L250.46 505.997L252.877 505.52L256.545 511.972L264.956 518.28L270.092 518.843L271.419 514.952L270.036 513.8L274.317 511.478L272.527 516.63L274.339 517.506L272.425 519.074L283.564 527.751L287.031 526.359L288.935 527.377L288.426 528.329L293.992 531.987L297.137 536.666L300.223 535.384L299.041 538.161L302.402 541.222L303.433 542.554L305.549 543.45L306.564 541.581L309.328 543.442L310.665 544.285L312.453 547.44L319.829 552.483L322.491 557.265L325.298 557.53L328.427 560.983L328.454 565.955L331.329 574.497L333.504 576.998L335.87 578.219L335.485 579.826L337.207 583.93L336.916 588.574L339.534 590.084L340.674 588.871L338.105 587.635L338.503 585.348L340.506 586.407L343.452 585.183L342.818 588.407L346.86 592.435L348.823 602.343L349.166 602.299L349.819 602.208L365.497 600.989L374.92 598.175L377.402 599.2L383.888 609.663L391.291 615.287L401.756 627.764L406.858 631.729L411.609 632.436L426.553 629.054L431.377 630.175L432.697 641.978L434.819 643.761L466.766 633.84L481.302 632.881L484.58 637.128L485.451 647.062L477.332 668.249L477.524 670.85L479.34 673.122L491.514 676.73L497.914 682.591L499.26 689.63L496.732 701.437L498.709 706.273L513.296 708.008L520.414 704.556L534.567 692.03L555.339 698.793L560.313 698.732L573.961 678.34L602.548 656.575L618.191 640.271L625.684 634.871L643.032 627.777L644.758 625.48L643.529 620.662L627.168 611.688L624.825 609.652L624.225 605.082L635.221 596.318L671.127 578.469L674.384 573.76L676.491 566.996L676.023 557.124L672.612 549.43L674.368 542.335L684.257 539.179L699.701 541.791L699.589 514.173L703.902 499.222L701.028 488.229L710.041 475.207L711.255 465.623L698.802 455.288L689.16 422.271L684.841 418.803L668.625 414.572L663.304 408.378L665.042 373.774L664.205 367.723L660.062 364.165L638.903 358.567L602.8 351.481L582.374 351.96L572.369 355.789L560.517 369.974L553.15 373.579L528.519 374.785L499.842 384.696L495.116 384.604L490.331 382.431L486.361 377.864L484.425 372.928L486.013 341.922L479.664 311.961L485.469 278.595L485.815 265.852L484.691 263.424L482.461 262.69L472.477 265.26L470.112 264.516L466.519 259.907L466.492 254.935L471.466 248.065L473.753 240.667L473.03 232.513L470.946 227.738L469.221 224.655L465.51 220.276L463.151 218.954L458.472 219.171L426.481 225.344L406.419 226.938L399.492 225.705L392.086 220.115L387.447 216.352L380.503 211.951L373.272 210.186L366.063 207.639L363.111 198.241L359.21 194.632L356.921 194.744L355.608 196.968L356.58 201.563L358.165 206.168L355.714 208.108L336.88 200.425L331.839 201.434L326.659 205.396L321.94 209.594L317.159 213.209L314.841 213.251L312.599 212.209L312.01 209.921L313.305 202.59L312.854 200.277L305.906 195.945L301.429 192.772L300.951 190.355L301.566 185.462L298.528 181.675L282.066 180.967L277.423 180.165L274.921 178.459L271.611 173.699L264.114 160.647L262.398 155.488L259.94 145.852L256.555 141.189L254.17 140.239L249.408 141.643Z" fill="white"/>
</mask>
<g mask="url(#mask0_346_4505)">
<g opacity="0.55">
<mask id="mask1_346_4505" style="mask-type:luminance" maskUnits="userSpaceOnUse" x="-274" y="-280" width="1409" height="1408">
<path d="M1134.45 -187.703L-181.159 -279.663L-273.119 1035.94L1042.49 1127.9L1134.45 -187.703Z" fill="white"/>
</mask>
<g mask="url(#mask1_346_4505)">
<path d="M-185.858 700.81L153.986 1040.67L157.63 1040.66L-185.878 697.2L-185.858 700.81Z" fill="#DBDADA"/>
<path d="M-185.88 673.844L180.951 1040.65L184.592 1040.67L-185.866 670.236L-185.88 673.844Z" fill="#DBDADA"/>
<path d="M-185.868 646.882L207.947 1040.67L211.557 1040.65L-185.886 643.238L-185.868 646.882Z" fill="#DBDADA"/>
<path d="M-185.854 619.918L234.914 1040.64L238.555 1040.66L-185.872 616.274L-185.854 619.918Z" fill="#DBDADA"/>
<path d="M-185.875 592.92L261.875 1040.66L265.517 1040.67L-185.861 589.312L-185.875 592.92Z" fill="#DBDADA"/>
<path d="M-185.864 565.481L-185.863 565.958L288.871 1040.67L292.481 1040.65L-185.881 562.313L-185.864 565.481Z" fill="#DBDADA"/>
<path d="M-185.885 538.992L315.836 1040.65L319.478 1040.66L-185.869 535.351L-185.885 538.992Z" fill="#DBDADA"/>
<path d="M-185.882 510.7L-185.871 511.995L342.799 1040.66L344.093 1040.65L346.443 1040.64L-185.891 508.385L-185.882 510.7Z" fill="#DBDADA"/>
<path d="M-185.857 485.033L369.765 1040.64L373.406 1040.66L-185.875 481.389L-185.857 485.033Z" fill="#DBDADA"/>
<path d="M-185.88 458.068L396.761 1040.65L400.369 1040.67L-185.864 454.427L-185.88 458.068Z" fill="#DBDADA"/>
<path d="M-185.867 431.105L423.724 1040.67L427.368 1040.65L-185.885 427.461L-185.867 431.105Z" fill="#DBDADA"/>
<path d="M-185.887 404.106L450.689 1040.64L454.33 1040.66L-185.873 400.498L-185.887 404.106Z" fill="#DBDADA"/>
<path d="M-185.874 377.143L477.686 1040.66L477.891 1040.64L481.296 1040.64L-185.892 373.499L-185.874 377.143Z" fill="#DBDADA"/>
<path d="M-185.863 350.18L504.648 1040.67L508.292 1040.65L-185.88 346.536L-185.863 350.18Z" fill="#DBDADA"/>
<path d="M-185.882 323.181L531.613 1040.65L535.255 1040.66L-185.868 319.573L-185.882 323.181Z" fill="#DBDADA"/>
<path d="M-185.869 296.219L558.577 1040.66L562.221 1040.64L-185.886 292.575L-185.869 296.219Z" fill="#DBDADA"/>
<path d="M-185.891 269.253L585.575 1040.64L589.182 1040.66L-185.875 265.611L-185.891 269.253Z" fill="#DBDADA"/>
<path d="M-185.872 241.712L-185.879 242.291L612.538 1040.65L616.182 1040.64L-185.896 238.646L-185.872 241.712Z" fill="#DBDADA"/>
<path d="M-185.865 215.294L639.502 1040.63L643.144 1040.65L-185.885 211.684L-185.865 215.294Z" fill="#DBDADA"/>
<path d="M668.304 1040.64L-185.896 186.523L668.268 1040.67L668.304 1040.64Z" fill="#DBDADA"/>
<path d="M-185.876 186.73L-185.885 188.329L666.5 1040.65L669.769 1040.64L670.108 1040.66L-185.869 184.688L-185.876 186.73Z" fill="#DBDADA"/>
<path d="M-185.874 161.365L693.461 1040.66L697.105 1040.64L-185.892 157.721L-185.874 161.365Z" fill="#DBDADA"/>
<path d="M722.23 1040.66L-185.869 132.564L722.266 1040.63L722.23 1040.66Z" fill="#DBDADA"/>
<path d="M-185.893 134.368L720.427 1040.64L724.069 1040.65L-185.879 130.76L-185.893 134.368Z" fill="#DBDADA"/>
<path d="M-185.88 107.406L747.424 1040.65L751.035 1040.63L-185.898 103.762L-185.88 107.406Z" fill="#DBDADA"/>
<path d="M776.192 1040.65L-185.876 78.6025L776.194 1040.62L776.192 1040.65Z" fill="#DBDADA"/>
<path d="M-185.902 80.4395L774.39 1040.63L777.997 1040.64L-185.886 76.7979L-185.902 80.4395Z" fill="#DBDADA"/>
<path d="M-185.887 53.4427L801.352 1040.64L804.994 1040.66L-185.874 49.835L-185.887 53.4427Z" fill="#DBDADA"/>
<path d="M-185.876 26.481L828.314 1040.66L831.958 1040.64L-185.894 22.8369L-185.876 26.481Z" fill="#DBDADA"/>
<path d="M-185.898 -0.485278L855.313 1040.64L858.921 1040.65L-185.881 -4.12695L-185.898 -0.485278Z" fill="#DBDADA"/>
<path d="M-185.886 -27.4478L882.276 1040.65L885.92 1040.63L-185.903 -31.0918L-185.886 -27.4478Z" fill="#DBDADA"/>
<path d="M-185.904 -54.4469L909.242 1040.63L912.883 1040.64L-185.89 -58.0547L-185.904 -54.4469Z" fill="#DBDADA"/>
<path d="M938.044 1040.63L-185.901 -83.2158L938.008 1040.66L938.044 1040.63Z" fill="#DBDADA"/>
<path d="M-185.892 -81.4091L936.238 1040.64L939.846 1040.66L-185.876 -85.0508L-185.892 -81.4091Z" fill="#DBDADA"/>
<path d="M-185.88 -108.373L963.201 1040.65L966.811 1040.63L-185.898 -112.017L-185.88 -108.373Z" fill="#DBDADA"/>
<path d="M991.97 1040.62L-185.876 -137.174L992.004 1040.62L991.97 1040.62Z" fill="#DBDADA"/>
<path d="M-185.904 -136.768L-185.9 -135.372L990.166 1040.63L992.718 1040.64L993.807 1040.65L-185.886 -138.979L-185.904 -136.768Z" fill="#DBDADA"/>
<path d="M-185.887 -162.333L1017.13 1040.65L1020.77 1040.63L-185.905 -165.977L-185.887 -162.333Z" fill="#DBDADA"/>
<path d="M-185.896 -192.397L-185.908 -189.3L1044.13 1040.62L1047.23 1040.64L1047.23 1040.09L-185.351 -192.393L-185.896 -192.397Z" fill="#DBDADA"/>
<path d="M-162.03 -192.396L1047.23 1016.77L1047.21 1013.13L-158.386 -192.414L-162.03 -192.396Z" fill="#DBDADA"/>
<path d="M-135.032 -192.416L1047.2 989.805L1047.22 986.164L-131.424 -192.402L-135.032 -192.416Z" fill="#DBDADA"/>
<path d="M-107.524 -192.4L-108.068 -192.404L1047.22 962.809L1047.2 962.536L1047.2 959.199L-104.424 -192.421L-107.524 -192.4Z" fill="#DBDADA"/>
<path d="M-81.1068 -192.391L1047.2 935.845L1047.21 932.203L-77.4629 -192.409L-81.1068 -192.391Z" fill="#DBDADA"/>
<path d="M1047.2 907.043L-52.3022 -192.42L1047.23 907.046L1047.2 907.043Z" fill="#DBDADA"/>
<path d="M-54.1426 -192.412L1047.21 908.882L1047.22 905.241L-50.5009 -192.396L-54.1426 -192.412Z" fill="#DBDADA"/>
<path d="M-26.2589 -192.404L-27.1444 -192.398L1047.22 881.885L1047.2 880.794L1047.2 878.275L-23.5343 -192.418L-26.2589 -192.404Z" fill="#DBDADA"/>
<path d="M-0.179175 -192.421L1047.2 854.919L1047.22 851.277L3.46252 -192.405L-0.179175 -192.421Z" fill="#DBDADA"/>
<path d="M26.7823 -192.408L1047.21 827.957L1047.22 827.379L1047.2 824.313L30.4263 -192.425L26.7823 -192.408Z" fill="#DBDADA"/>
<path d="M53.7794 -192.393L1047.19 800.958L1047.21 797.35L57.3896 -192.413L53.7794 -192.393Z" fill="#DBDADA"/>
<path d="M1047.2 772.19L82.5498 -192.425L1047.2 772.156L1047.2 772.19Z" fill="#DBDADA"/>
<path d="M84.2523 -192.408L80.7461 -192.415L1047.21 773.995L1047.22 772.362L1047.22 770.387L84.3878 -192.399L84.2523 -192.408Z" fill="#DBDADA"/>
<path d="M107.708 -192.404L1047.22 747.031L1047.2 743.387L111.352 -192.421L107.708 -192.404Z" fill="#DBDADA"/>
<path d="M134.673 -192.425L1047.2 720.067L1047.21 716.425L138.314 -192.409L134.673 -192.425Z" fill="#DBDADA"/>
<path d="M161.67 -192.41L1047.21 693.071L1047.19 689.461L165.28 -192.43L161.67 -192.41Z" fill="#DBDADA"/>
<path d="M188.633 -192.398L1047.19 666.105L1047.21 662.464L192.277 -192.416L188.633 -192.398Z" fill="#DBDADA"/>
<path d="M1047.2 637.304L217.437 -192.427L1047.23 637.306L1047.2 637.304Z" fill="#DBDADA"/>
<path d="M216.855 -192.399L215.597 -192.419L1047.2 639.143L1047.22 635.501L219.238 -192.403L216.855 -192.399Z" fill="#DBDADA"/>
<path d="M242.595 -192.406L1047.22 612.179L1047.21 610.239L1047.2 608.535L246.205 -192.426L242.595 -192.406Z" fill="#DBDADA"/>
<path d="M1047.22 583.379L271.362 -192.402L1047.19 583.376L1047.22 583.379Z" fill="#DBDADA"/>
<path d="M269.56 -192.427L1047.2 585.181L1047.21 581.573L273.202 -192.411L269.56 -192.427Z" fill="#DBDADA"/>
<path d="M1047.2 556.413L298.362 -192.422L1047.24 556.382L1047.2 556.413Z" fill="#DBDADA"/>
<path d="M296.521 -192.414L1047.21 558.219L1047.21 557.164L1047.19 554.575L300.165 -192.431L296.521 -192.414Z" fill="#DBDADA"/>
<path d="M323.519 -192.4L1047.19 531.253L1047.2 527.611L327.129 -192.42L323.519 -192.4Z" fill="#DBDADA"/>
<path d="M350.482 -192.421L1047.2 504.257L1047.21 500.649L354.124 -192.405L350.482 -192.421Z" fill="#DBDADA"/>
<path d="M377.446 -192.409L1047.21 477.294L1047.19 473.65L381.09 -192.426L377.446 -192.409Z" fill="#DBDADA"/>
<path d="M1047.22 448.492L406.248 -192.404L1047.21 448.526L1047.22 448.492Z" fill="#DBDADA"/>
<path d="M404.411 -192.431L1047.19 450.329L1047.2 447.708L1047.21 446.687L408.053 -192.415L404.411 -192.431Z" fill="#DBDADA"/>
<path d="M431.408 -192.416L1047.2 423.332L1047.19 419.722L435.018 -192.436L431.408 -192.416Z" fill="#DBDADA"/>
<path d="M1047.21 394.565L460.177 -192.413L1047.17 394.563L1047.21 394.565Z" fill="#DBDADA"/>
<path d="M458.373 -192.438L1047.18 396.367L1047.2 392.725L462.015 -192.421L458.373 -192.438Z" fill="#DBDADA"/>
<path d="M1047.19 367.599L487.175 -192.434L1047.22 367.567L1047.19 367.599Z" fill="#DBDADA"/>
<path d="M485.336 -192.427L1047.2 369.403L1047.21 365.761L488.978 -192.411L485.336 -192.427Z" fill="#DBDADA"/>
<path d="M512.333 -192.412L1047.21 342.441L1047.19 338.797L515.943 -192.432L512.333 -192.412Z" fill="#DBDADA"/>
<path d="M539.978 -192.418L539.298 -192.432L1047.19 315.443L1047.18 315.136L1047.2 311.836L542.94 -192.416L539.978 -192.418Z" fill="#DBDADA"/>
<path d="M1047.19 286.674L568.065 -192.431L1047.19 286.641L1047.19 286.674Z" fill="#DBDADA"/>
<path d="M566.261 -192.42L1047.2 288.48L1047.18 284.836L569.905 -192.438L566.261 -192.42Z" fill="#DBDADA"/>
<path d="M593.227 -192.442L1047.18 261.515L1047.2 257.874L596.868 -192.425L593.227 -192.442Z" fill="#DBDADA"/>
<path d="M621.04 -192.439L620.222 -192.428L1047.19 234.518L1047.21 230.91L623.83 -192.414L621.04 -192.439Z" fill="#DBDADA"/>
<path d="M647.185 -192.415L1047.21 207.556L1047.19 203.912L650.829 -192.432L647.185 -192.415Z" fill="#DBDADA"/>
<path d="M674.15 -192.437L1047.18 180.59L1047.2 176.949L677.792 -192.42L674.15 -192.437Z" fill="#DBDADA"/>
<path d="M701.146 -192.421L1047.2 153.595L1047.18 149.984L704.756 -192.441L701.146 -192.421Z" fill="#DBDADA"/>
</g>
</g>
</g>
<circle cx="333.045" cy="567.374" r="34.7421" fill="#CDDC29" fill-opacity="0.2"/>
<circle cx="333.045" cy="567.376" r="35.034" fill="#CDDC29"/>
<path d="M96.8585 633H92.4428L81.9032 618.795L78.8622 621.461V633H75.1129V603.256H78.8622V617.92C79.6953 616.975 80.5424 616.031 81.4033 615.087C82.2643 614.143 83.1252 613.198 83.9861 612.254L92.0262 603.256H96.4003L84.611 616.212L96.8585 633ZM104.071 610.671V633H100.405V610.671H104.071ZM102.28 602.298C102.835 602.298 103.321 602.492 103.738 602.881C104.182 603.242 104.405 603.825 104.405 604.631C104.405 605.408 104.182 605.992 103.738 606.38C103.321 606.769 102.835 606.964 102.28 606.964C101.669 606.964 101.155 606.769 100.739 606.38C100.322 605.992 100.114 605.408 100.114 604.631C100.114 603.825 100.322 603.242 100.739 602.881C101.155 602.492 101.669 602.298 102.28 602.298ZM121.893 610.255C124.559 610.255 126.573 610.907 127.934 612.213C129.295 613.49 129.975 615.573 129.975 618.461V633H126.351V618.711C126.351 616.906 125.948 615.559 125.143 614.67C124.337 613.782 123.074 613.337 121.352 613.337C118.88 613.337 117.172 614.032 116.228 615.42C115.283 616.809 114.811 618.808 114.811 621.419V633H111.145V610.671H114.103L114.645 613.712H114.853C115.353 612.935 115.964 612.296 116.686 611.796C117.436 611.268 118.255 610.879 119.144 610.63C120.032 610.38 120.949 610.255 121.893 610.255ZM144.812 610.255C146.284 610.255 147.603 610.532 148.77 611.088C149.964 611.643 150.978 612.49 151.811 613.629H152.019L152.519 610.671H155.435V633.375C155.435 635.486 155.074 637.249 154.352 638.666C153.63 640.11 152.533 641.193 151.061 641.915C149.589 642.637 147.714 642.998 145.437 642.998C143.826 642.998 142.34 642.873 140.98 642.623C139.646 642.401 138.452 642.054 137.397 641.582V638.207C138.119 638.568 138.911 638.874 139.771 639.124C140.632 639.401 141.563 639.61 142.563 639.749C143.562 639.888 144.59 639.957 145.645 639.957C147.562 639.957 149.061 639.388 150.144 638.249C151.255 637.138 151.811 635.611 151.811 633.667V632.792C151.811 632.458 151.825 631.986 151.852 631.375C151.88 630.737 151.908 630.292 151.936 630.042H151.769C150.991 631.181 150.019 632.028 148.853 632.583C147.714 633.139 146.381 633.417 144.854 633.417C141.965 633.417 139.702 632.403 138.063 630.376C136.453 628.348 135.647 625.515 135.647 621.877C135.647 619.489 136.008 617.434 136.73 615.712C137.48 613.962 138.536 612.615 139.896 611.671C141.257 610.727 142.896 610.255 144.812 610.255ZM145.312 613.337C144.062 613.337 142.993 613.671 142.104 614.337C141.243 615.004 140.577 615.976 140.105 617.253C139.66 618.531 139.438 620.086 139.438 621.919C139.438 624.668 139.938 626.779 140.938 628.251C141.965 629.695 143.451 630.417 145.395 630.417C146.534 630.417 147.506 630.278 148.311 630.001C149.117 629.695 149.783 629.237 150.311 628.626C150.839 627.987 151.227 627.182 151.477 626.21C151.727 625.238 151.852 624.085 151.852 622.752V621.877C151.852 619.85 151.616 618.211 151.144 616.962C150.7 615.712 149.992 614.795 149.02 614.212C148.048 613.629 146.812 613.337 145.312 613.337ZM175.848 633H172.099V603.256H188.72V606.547H175.848V617.087H187.929V620.378H175.848V633ZM201.657 610.296C204.379 610.296 206.393 610.893 207.698 612.088C209.003 613.282 209.656 615.184 209.656 617.795V633H206.99L206.282 629.834H206.115C205.476 630.639 204.81 631.32 204.115 631.875C203.449 632.403 202.671 632.792 201.782 633.042C200.921 633.292 199.866 633.417 198.616 633.417C197.283 633.417 196.075 633.181 194.992 632.708C193.937 632.236 193.104 631.514 192.493 630.542C191.882 629.542 191.576 628.293 191.576 626.793C191.576 624.571 192.451 622.863 194.201 621.669C195.95 620.447 198.644 619.78 202.282 619.669L206.073 619.544V618.211C206.073 616.351 205.671 615.059 204.865 614.337C204.06 613.615 202.921 613.254 201.449 613.254C200.283 613.254 199.172 613.434 198.116 613.796C197.061 614.129 196.075 614.518 195.159 614.962L194.034 612.213C195.006 611.685 196.159 611.24 197.492 610.879C198.825 610.491 200.213 610.296 201.657 610.296ZM202.741 622.211C199.963 622.322 198.033 622.766 196.95 623.544C195.895 624.321 195.367 625.418 195.367 626.835C195.367 628.084 195.742 629.001 196.492 629.584C197.269 630.167 198.255 630.459 199.45 630.459C201.338 630.459 202.907 629.945 204.157 628.917C205.407 627.862 206.032 626.251 206.032 624.085V622.086L202.741 622.211ZM220.218 610.63C220.218 611.157 220.19 611.699 220.135 612.254C220.107 612.81 220.065 613.31 220.01 613.754H220.26C220.732 612.976 221.329 612.337 222.051 611.838C222.773 611.338 223.579 610.963 224.467 610.713C225.356 610.435 226.272 610.296 227.217 610.296C229.022 610.296 230.522 610.588 231.716 611.171C232.938 611.727 233.854 612.601 234.465 613.796C235.076 614.99 235.382 616.545 235.382 618.461V633H231.758V618.711C231.758 616.906 231.355 615.559 230.549 614.67C229.744 613.782 228.48 613.337 226.759 613.337C225.092 613.337 223.787 613.657 222.843 614.295C221.898 614.906 221.218 615.823 220.801 617.045C220.413 618.239 220.218 619.711 220.218 621.461V633H216.552V601.34H220.218V610.63ZM250.219 633.417C247.442 633.417 245.22 632.458 243.554 630.542C241.887 628.598 241.054 625.71 241.054 621.877C241.054 618.045 241.887 615.156 243.554 613.212C245.248 611.24 247.483 610.255 250.261 610.255C251.427 610.255 252.441 610.407 253.302 610.713C254.163 610.991 254.912 611.379 255.551 611.879C256.19 612.379 256.732 612.935 257.176 613.546H257.426C257.398 613.185 257.343 612.657 257.259 611.963C257.204 611.24 257.176 610.671 257.176 610.255V601.34H260.842V633H257.884L257.343 630.001H257.176C256.732 630.639 256.19 631.223 255.551 631.75C254.912 632.25 254.149 632.653 253.26 632.958C252.399 633.264 251.385 633.417 250.219 633.417ZM250.802 630.376C253.163 630.376 254.815 629.737 255.76 628.459C256.732 627.154 257.218 625.196 257.218 622.585V621.919C257.218 619.142 256.759 617.017 255.843 615.545C254.926 614.045 253.232 613.296 250.761 613.296C248.789 613.296 247.303 614.087 246.303 615.67C245.331 617.225 244.845 619.322 244.845 621.961C244.845 624.627 245.331 626.696 246.303 628.168C247.303 629.64 248.803 630.376 250.802 630.376ZM74.4142 677H63.6663V674.834L67.1656 674.042V650.255L63.6663 649.422V647.256H74.4142V649.422L70.9149 650.255V674.042L74.4142 674.834V677ZM90.4054 654.255C93.0715 654.255 95.085 654.907 96.4459 656.213C97.8067 657.49 98.4871 659.573 98.4871 662.461V677H94.8629V662.711C94.8629 660.906 94.4602 659.559 93.6548 658.67C92.8494 657.782 91.5857 657.337 89.8639 657.337C87.3921 657.337 85.6841 658.032 84.7399 659.42C83.7956 660.809 83.3235 662.808 83.3235 665.419V677H79.6576V654.671H82.6153L83.1569 657.712H83.3652C83.8651 656.935 84.4761 656.296 85.1981 655.796C85.948 655.268 86.7673 654.879 87.656 654.63C88.5447 654.38 89.4612 654.255 90.4054 654.255ZM113.324 677.417C110.547 677.417 108.325 676.458 106.659 674.542C104.993 672.598 104.159 669.71 104.159 665.877C104.159 662.045 104.993 659.156 106.659 657.212C108.353 655.24 110.589 654.255 113.366 654.255C114.532 654.255 115.546 654.407 116.407 654.713C117.268 654.991 118.018 655.379 118.657 655.879C119.295 656.379 119.837 656.935 120.281 657.546H120.531C120.503 657.185 120.448 656.657 120.365 655.963C120.309 655.24 120.281 654.671 120.281 654.255V645.34H123.947V677H120.989L120.448 674.001H120.281C119.837 674.639 119.295 675.223 118.657 675.75C118.018 676.25 117.254 676.653 116.365 676.958C115.504 677.264 114.491 677.417 113.324 677.417ZM113.908 674.376C116.268 674.376 117.921 673.737 118.865 672.459C119.837 671.154 120.323 669.196 120.323 666.585V665.919C120.323 663.142 119.865 661.017 118.948 659.545C118.032 658.045 116.338 657.296 113.866 657.296C111.894 657.296 110.408 658.087 109.408 659.67C108.436 661.225 107.95 663.322 107.95 665.961C107.95 668.627 108.436 670.696 109.408 672.168C110.408 673.64 111.908 674.376 113.908 674.376ZM149.702 654.671V677H146.702L146.161 674.042H145.994C145.522 674.82 144.911 675.459 144.161 675.959C143.411 676.458 142.592 676.819 141.703 677.042C140.815 677.292 139.884 677.417 138.912 677.417C137.135 677.417 135.635 677.139 134.413 676.583C133.219 676 132.316 675.111 131.705 673.917C131.094 672.723 130.789 671.182 130.789 669.293V654.671H134.496V669.043C134.496 670.821 134.899 672.154 135.705 673.042C136.51 673.931 137.76 674.376 139.454 674.376C141.12 674.376 142.425 674.07 143.37 673.459C144.342 672.82 145.022 671.904 145.411 670.71C145.828 669.488 146.036 668.016 146.036 666.294V654.671H149.702ZM171.329 670.835C171.329 672.279 170.968 673.487 170.246 674.459C169.524 675.431 168.496 676.167 167.163 676.667C165.83 677.167 164.247 677.417 162.414 677.417C160.859 677.417 159.512 677.292 158.374 677.042C157.263 676.792 156.277 676.445 155.416 676V672.668C156.304 673.112 157.374 673.528 158.623 673.917C159.901 674.278 161.192 674.459 162.498 674.459C164.358 674.459 165.705 674.167 166.539 673.584C167.372 672.973 167.788 672.168 167.788 671.168C167.788 670.612 167.636 670.112 167.33 669.668C167.025 669.224 166.469 668.779 165.664 668.335C164.886 667.891 163.761 667.391 162.289 666.835C160.845 666.28 159.609 665.724 158.582 665.169C157.554 664.614 156.763 663.947 156.207 663.169C155.652 662.392 155.374 661.392 155.374 660.17C155.374 658.282 156.138 656.824 157.665 655.796C159.221 654.768 161.248 654.255 163.747 654.255C165.108 654.255 166.372 654.393 167.538 654.671C168.733 654.921 169.843 655.282 170.871 655.754L169.621 658.67C169.01 658.393 168.358 658.157 167.663 657.962C166.997 657.74 166.316 657.573 165.622 657.462C164.928 657.323 164.22 657.254 163.497 657.254C161.998 657.254 160.845 657.504 160.04 658.004C159.262 658.476 158.873 659.129 158.873 659.962C158.873 660.573 159.054 661.1 159.415 661.545C159.776 661.961 160.373 662.378 161.206 662.795C162.067 663.183 163.206 663.655 164.622 664.211C166.039 664.739 167.247 665.28 168.247 665.836C169.246 666.391 170.01 667.071 170.538 667.877C171.065 668.654 171.329 669.64 171.329 670.835ZM184.181 674.417C184.737 674.417 185.306 674.376 185.889 674.292C186.473 674.181 186.945 674.07 187.306 673.959V676.75C186.917 676.944 186.362 677.097 185.64 677.208C184.917 677.347 184.223 677.417 183.557 677.417C182.39 677.417 181.307 677.222 180.307 676.833C179.335 676.417 178.544 675.709 177.933 674.709C177.322 673.709 177.016 672.306 177.016 670.501V657.504H173.85V655.754L177.058 654.296L178.516 649.547H180.682V654.671H187.139V657.504H180.682V670.418C180.682 671.779 181.002 672.793 181.64 673.459C182.307 674.098 183.154 674.417 184.181 674.417ZM202.192 654.255C202.608 654.255 203.052 654.282 203.525 654.338C204.024 654.366 204.455 654.421 204.816 654.505L204.358 657.879C203.997 657.796 203.594 657.726 203.15 657.671C202.733 657.615 202.33 657.587 201.942 657.587C201.081 657.587 200.261 657.768 199.484 658.129C198.706 658.49 198.012 659.004 197.401 659.67C196.79 660.309 196.304 661.087 195.943 662.003C195.61 662.919 195.443 663.947 195.443 665.086V677H191.777V654.671H194.776L195.193 658.754H195.36C195.832 657.921 196.401 657.171 197.068 656.504C197.734 655.81 198.498 655.268 199.359 654.879C200.22 654.463 201.164 654.255 202.192 654.255ZM212.651 654.671V677H208.985V654.671H212.651ZM210.86 646.298C211.415 646.298 211.901 646.492 212.318 646.881C212.762 647.242 212.985 647.825 212.985 648.631C212.985 649.408 212.762 649.992 212.318 650.38C211.901 650.769 211.415 650.964 210.86 650.964C210.249 650.964 209.735 650.769 209.319 650.38C208.902 649.992 208.694 649.408 208.694 648.631C208.694 647.825 208.902 647.242 209.319 646.881C209.735 646.492 210.249 646.298 210.86 646.298ZM228.182 654.296C230.904 654.296 232.917 654.893 234.223 656.088C235.528 657.282 236.18 659.184 236.18 661.795V677H233.514L232.806 673.834H232.639C232.001 674.639 231.334 675.32 230.64 675.875C229.973 676.403 229.196 676.792 228.307 677.042C227.446 677.292 226.391 677.417 225.141 677.417C223.808 677.417 222.6 677.181 221.517 676.708C220.461 676.236 219.628 675.514 219.017 674.542C218.406 673.542 218.101 672.293 218.101 670.793C218.101 668.571 218.976 666.863 220.725 665.669C222.475 664.447 225.169 663.78 228.807 663.669L232.598 663.544V662.211C232.598 660.351 232.195 659.059 231.39 658.337C230.584 657.615 229.446 657.254 227.974 657.254C226.807 657.254 225.696 657.434 224.641 657.796C223.586 658.129 222.6 658.518 221.683 658.962L220.559 656.213C221.531 655.685 222.683 655.24 224.016 654.879C225.349 654.491 226.738 654.296 228.182 654.296ZM229.265 666.211C226.488 666.322 224.558 666.766 223.475 667.544C222.419 668.321 221.892 669.418 221.892 670.835C221.892 672.084 222.267 673.001 223.016 673.584C223.794 674.167 224.78 674.459 225.974 674.459C227.863 674.459 229.432 673.945 230.682 672.917C231.931 671.862 232.556 670.251 232.556 668.085V666.086L229.265 666.211ZM246.743 677H243.077V645.34H246.743V677ZM271.262 647.256C275.15 647.256 277.983 648.02 279.761 649.547C281.538 651.075 282.427 653.227 282.427 656.004C282.427 657.226 282.218 658.407 281.802 659.545C281.413 660.656 280.76 661.656 279.844 662.545C278.927 663.433 277.705 664.141 276.178 664.669C274.65 665.169 272.776 665.419 270.554 665.419H267.138V677H263.389V647.256H271.262ZM270.929 650.464H267.138V662.211H270.137C272.026 662.211 273.595 662.017 274.845 661.628C276.095 661.212 277.025 660.559 277.636 659.67C278.247 658.781 278.552 657.615 278.552 656.171C278.552 654.255 277.941 652.824 276.719 651.88C275.498 650.936 273.567 650.464 270.929 650.464ZM307.524 665.794C307.524 667.655 307.275 669.307 306.775 670.751C306.303 672.168 305.608 673.376 304.692 674.376C303.803 675.375 302.706 676.139 301.401 676.667C300.123 677.167 298.693 677.417 297.11 677.417C295.638 677.417 294.277 677.167 293.027 676.667C291.778 676.139 290.695 675.375 289.778 674.376C288.862 673.376 288.139 672.168 287.612 670.751C287.112 669.307 286.862 667.655 286.862 665.794C286.862 663.322 287.279 661.239 288.112 659.545C288.945 657.823 290.139 656.518 291.694 655.629C293.25 654.713 295.096 654.255 297.235 654.255C299.262 654.255 301.04 654.713 302.567 655.629C304.122 656.518 305.33 657.823 306.191 659.545C307.08 661.239 307.524 663.322 307.524 665.794ZM290.653 665.794C290.653 667.544 290.875 669.071 291.319 670.376C291.792 671.654 292.514 672.64 293.486 673.334C294.458 674.028 295.694 674.376 297.193 674.376C298.693 674.376 299.929 674.028 300.901 673.334C301.873 672.64 302.581 671.654 303.025 670.376C303.498 669.071 303.734 667.544 303.734 665.794C303.734 664.017 303.498 662.503 303.025 661.253C302.553 660.003 301.831 659.045 300.859 658.379C299.915 657.684 298.679 657.337 297.152 657.337C294.874 657.337 293.222 658.087 292.194 659.587C291.167 661.087 290.653 663.156 290.653 665.794ZM323.749 654.255C324.166 654.255 324.61 654.282 325.082 654.338C325.582 654.366 326.013 654.421 326.374 654.505L325.915 657.879C325.554 657.796 325.152 657.726 324.707 657.671C324.291 657.615 323.888 657.587 323.499 657.587C322.638 657.587 321.819 657.768 321.041 658.129C320.264 658.49 319.569 659.004 318.958 659.67C318.347 660.309 317.861 661.087 317.5 662.003C317.167 662.919 317 663.947 317 665.086V677H313.335V654.671H316.334L316.75 658.754H316.917C317.389 657.921 317.959 657.171 318.625 656.504C319.292 655.81 320.055 655.268 320.916 654.879C321.777 654.463 322.722 654.255 323.749 654.255ZM338 674.417C338.555 674.417 339.125 674.376 339.708 674.292C340.291 674.181 340.763 674.07 341.124 673.959V676.75C340.735 676.944 340.18 677.097 339.458 677.208C338.736 677.347 338.041 677.417 337.375 677.417C336.208 677.417 335.125 677.222 334.126 676.833C333.154 676.417 332.362 675.709 331.751 674.709C331.14 673.709 330.835 672.306 330.835 670.501V657.504H327.669V655.754L330.876 654.296L332.334 649.547H334.501V654.671H340.958V657.504H334.501V670.418C334.501 671.779 334.82 672.793 335.459 673.459C336.125 674.098 336.972 674.417 338 674.417ZM69.2069 698.671V721H65.541V698.671H69.2069ZM67.4156 690.298C67.971 690.298 68.457 690.492 68.8736 690.881C69.318 691.242 69.5401 691.825 69.5401 692.631C69.5401 693.408 69.318 693.992 68.8736 694.38C68.457 694.769 67.971 694.964 67.4156 694.964C66.8046 694.964 66.2908 694.769 65.8742 694.38C65.4576 693.992 65.2493 693.408 65.2493 692.631C65.2493 691.825 65.4576 691.242 65.8742 690.881C66.2908 690.492 66.8046 690.298 67.4156 690.298ZM87.0288 698.255C89.6949 698.255 91.7084 698.907 93.0693 700.213C94.4301 701.49 95.1105 703.573 95.1105 706.461V721H91.4863V706.711C91.4863 704.906 91.0836 703.559 90.2782 702.67C89.4728 701.782 88.2091 701.337 86.4873 701.337C84.0155 701.337 82.3075 702.032 81.3633 703.42C80.419 704.809 79.9469 706.808 79.9469 709.419V721H76.281V698.671H79.2387L79.7803 701.712H79.9886C80.4885 700.935 81.0995 700.296 81.8215 699.796C82.5714 699.268 83.3907 698.879 84.2794 698.63C85.1681 698.38 86.0846 698.255 87.0288 698.255ZM119.353 705.878L127.101 691.256H131.142L121.228 709.461V721H117.478V709.627L107.564 691.256H111.646L119.353 705.878ZM141.082 698.296C143.804 698.296 145.817 698.893 147.123 700.088C148.428 701.282 149.08 703.184 149.08 705.795V721H146.414L145.706 717.834H145.54C144.901 718.639 144.234 719.32 143.54 719.875C142.873 720.403 142.096 720.792 141.207 721.042C140.346 721.292 139.291 721.417 138.041 721.417C136.708 721.417 135.5 721.181 134.417 720.708C133.361 720.236 132.528 719.514 131.917 718.542C131.306 717.542 131.001 716.293 131.001 714.793C131.001 712.571 131.876 710.863 133.625 709.669C135.375 708.447 138.069 707.78 141.707 707.669L145.498 707.544V706.211C145.498 704.351 145.095 703.059 144.29 702.337C143.484 701.615 142.346 701.254 140.874 701.254C139.707 701.254 138.596 701.434 137.541 701.796C136.486 702.129 135.5 702.518 134.583 702.962L133.459 700.213C134.431 699.685 135.583 699.24 136.916 698.879C138.249 698.491 139.638 698.296 141.082 698.296ZM142.165 710.211C139.388 710.322 137.458 710.766 136.375 711.544C135.319 712.321 134.792 713.418 134.792 714.835C134.792 716.084 135.167 717.001 135.916 717.584C136.694 718.167 137.68 718.459 138.874 718.459C140.763 718.459 142.332 717.945 143.582 716.917C144.831 715.862 145.456 714.251 145.456 712.085V710.086L142.165 710.211ZM166.725 698.255C169.391 698.255 171.404 698.907 172.765 700.213C174.126 701.49 174.806 703.573 174.806 706.461V721H171.182V706.711C171.182 704.906 170.779 703.559 169.974 702.67C169.169 701.782 167.905 701.337 166.183 701.337C163.711 701.337 162.003 702.032 161.059 703.42C160.115 704.809 159.643 706.808 159.643 709.419V721H155.977V698.671H158.935L159.476 701.712H159.684C160.184 700.935 160.795 700.296 161.517 699.796C162.267 699.268 163.087 698.879 163.975 698.63C164.864 698.38 165.78 698.255 166.725 698.255ZM185.394 697.046C185.394 697.991 185.367 698.879 185.311 699.713C185.283 700.518 185.242 701.157 185.186 701.629H185.394C186.033 700.685 186.908 699.893 188.019 699.254C189.13 698.616 190.56 698.296 192.31 698.296C195.087 698.296 197.309 699.268 198.975 701.212C200.669 703.129 201.516 706.003 201.516 709.836C201.516 712.391 201.127 714.529 200.35 716.251C199.6 717.973 198.531 719.264 197.142 720.125C195.753 720.986 194.143 721.417 192.31 721.417C190.56 721.417 189.13 721.097 188.019 720.458C186.908 719.82 186.033 719.056 185.394 718.167H185.103L184.353 721H181.729V689.34H185.394V697.046ZM191.685 701.337C190.102 701.337 188.852 701.643 187.936 702.254C187.019 702.837 186.366 703.753 185.978 705.003C185.589 706.225 185.394 707.794 185.394 709.711V709.877C185.394 712.627 185.839 714.737 186.728 716.209C187.644 717.653 189.324 718.376 191.768 718.376C193.768 718.376 195.254 717.64 196.226 716.168C197.225 714.696 197.725 712.571 197.725 709.794C197.725 706.989 197.225 704.878 196.226 703.462C195.254 702.045 193.74 701.337 191.685 701.337ZM226.021 698.671V721H223.022L222.48 718.042H222.313C221.841 718.82 221.23 719.459 220.48 719.959C219.731 720.458 218.911 720.819 218.023 721.042C217.134 721.292 216.204 721.417 215.232 721.417C213.454 721.417 211.954 721.139 210.732 720.583C209.538 720 208.636 719.111 208.025 717.917C207.414 716.723 207.108 715.182 207.108 713.293V698.671H210.816V713.043C210.816 714.821 211.218 716.154 212.024 717.042C212.829 717.931 214.079 718.376 215.773 718.376C217.439 718.376 218.745 718.07 219.689 717.459C220.661 716.82 221.341 715.904 221.73 714.71C222.147 713.488 222.355 712.016 222.355 710.294V698.671H226.021Z" fill="white"/>
</svg>
