<svg width="923" height="1080" viewBox="0 0 923 1080" fill="none" xmlns="http://www.w3.org/2000/svg">
<path d="M2091.52 665.517L1824.17 646.393L1557.41 341.582L1531.91 215.468L1467.95 178.618L1374.12 31.1843L1174.1 -25.1965L1002.56 -38.5414L588.373 -355.907L472.826 -382.206L256.265 -324.628L348.108 -205.888L144.102 -71.2175L24.3647 -46.1076L53.8564 51.1142L247.901 464.305L372.611 597.388L414.25 697.794L408.671 836.854L556.894 993.043L805.931 1390.7L854.139 1278.34L1295.42 1321.37L1372.72 1201.44L1475.53 1147.24L1780.34 1094.26L2097.1 964.957L2152.89 734.652L2091.52 665.517Z" fill="#EEEEEE" fill-opacity="0.09"/>
<path d="M313.328 543.442L310.564 541.581L309.549 543.45L307.433 542.554L306.402 541.222L303.041 538.161L304.223 535.384L301.139 536.632L297.992 531.987L292.426 528.329L292.935 527.377L291.031 526.359L287.564 527.751L276.425 519.074L278.339 517.506L276.527 516.63L278.317 511.478L274.036 513.8L275.419 514.952L274.092 518.843L268.956 518.28L260.545 511.972L256.877 505.52L254.461 505.997L253.318 503.841L251.202 503.421L250.939 500.849L246.18 502.695L242.989 501.587L242.746 504.089L244.414 504.58L243.267 507.36L238.66 507.514L236.656 504.515L233.064 504.774L227.481 496.486L222.944 493.206L223.876 487.654L225.923 489.057L226.741 485.642L223.107 481.132L221.852 476.686L218.668 474.013L220.349 464.087L223.251 459.592L240.511 458.142L247.753 455.346L250.153 453.165L253.74 447.628L255.423 445.465L260.174 444.231L267.227 445.609L275.132 445.515L280.042 442.964L282.857 438.258L283.532 433.471L283.19 423.744L282.525 392.343L285.078 377.745L285.406 375.487L286.17 368.459L282.724 364.167L273.05 363.763L270.767 362.821L265.31 343.476L259.806 331.618L248.399 321.425L241.78 315.787L239.713 310.774L238.088 303.818L235.835 301.958L229.033 298.452L216.773 290.718L212.072 291.241L206.109 296.68L205.249 291.922L202.784 282.387L197.606 272.697L195.548 267.548L196.046 260.433L205.674 243.471L206.46 238.079L205.382 234.497L200.65 231.579L186.026 227.458L181.132 223.44L178.1 218.597L175.973 210.55L178.46 183.25L175.443 170.408L171.04 166.185L166.347 165.619L156.802 167.744L154.317 166.276L154.035 163.975L157.107 159.492L166.651 157.367L171.612 156.046L176.721 153.577L181.575 151.84L191.428 147.252L196.456 143.994L198.775 142.965L203.523 141.765L215.629 146.833L222.848 152.172L230.237 153.131L235.537 151.833L253.442 141.645L258.17 140.239L260.555 141.189L263.94 145.852L266.398 155.488L268.115 160.647L275.611 173.699L278.921 178.459L281.424 180.165L286.066 180.967L302.528 181.675L305.566 185.462L304.951 190.355L305.429 192.772L309.906 195.945L316.854 200.277L317.305 202.59L316.01 209.921L316.599 212.209L318.841 213.251L321.159 213.209L325.94 209.594L330.659 205.396L335.839 201.434L340.88 200.425L359.714 208.108L362.165 206.168L360.58 201.563L359.642 196.97L360.921 194.744L363.21 194.632L367.111 198.241L370.063 207.639L377.272 210.186L384.503 211.951L391.447 216.352L396.086 220.115L403.492 225.705L410.419 226.938L430.514 225.347L462.472 219.171L467.151 218.954L469.51 220.276L473.221 224.655L474.946 227.738L477.03 232.513L477.753 240.667L475.466 248.065L470.492 254.935L470.519 259.907L474.112 264.516L476.477 265.26L486.461 262.69L488.725 263.427L489.815 265.852L489.469 278.595L483.664 311.961L490.013 341.922L488.425 372.928L490.361 377.864L494.331 382.431L499.116 384.604L503.842 384.696L532.519 374.785L557.15 373.579L564.551 369.976L576.369 355.789L586.374 351.96L606.8 351.481L642.903 358.567L664.062 364.165L668.205 367.723L669.042 373.774L667.304 408.378L672.625 414.572L688.841 418.803L693.16 422.271L702.802 455.288L715.289 465.625L714.041 475.207L705.028 488.229L707.902 499.222L703.589 514.173L703.701 541.791L688.257 539.179L678.401 542.338L676.612 549.43L680.023 557.124L680.491 566.996L678.384 573.76L675.161 578.471L639.222 596.318L628.225 605.082L628.825 609.652L631.168 611.688L647.529 620.662L648.758 625.48L647.032 627.777L629.684 634.871L622.191 640.271L606.548 656.575L577.961 678.34L564.313 698.732L559.339 698.793L538.567 692.03L524.414 704.556L517.296 708.008L502.743 706.276L500.733 701.437L503.294 689.632L501.914 682.591L495.514 676.73L483.34 673.122L481.524 670.85L481.334 668.215L489.451 647.062L488.58 637.128L485.336 632.884L470.768 633.806L438.819 643.761L436.697 641.978L435.377 630.175L430.553 629.054L415.609 632.436L410.858 631.729L405.756 627.764L395.291 615.287L387.888 609.663L381.402 599.2L378.92 598.175L369.497 600.989L353.819 602.208L353.2 602.301L352.823 602.343L350.86 592.435L346.818 588.407L347.452 585.183L344.506 586.407L342.503 585.348L342.105 587.635L344.674 588.871L343.534 590.084L340.918 588.54L341.207 583.93L339.485 579.826L339.87 578.219L337.504 576.998L335.363 574.5L332.454 565.955L332.427 560.983L329.298 557.53L326.491 557.265L323.829 552.483L316.453 547.44L314.665 544.285L313.328 543.442Z" fill="#00AFA9"/>
<mask id="mask0_346_4505" style="mask-type:luminance" maskUnits="userSpaceOnUse" x="154" y="140" width="562" height="569">
<path d="M253.408 141.643L235.537 151.833L230.237 153.131L222.848 152.172L215.627 146.866L203.489 141.762L198.775 142.965L196.456 143.994L191.428 147.252L181.575 151.84L176.721 153.577L171.612 156.046L166.651 157.367L157.107 159.492L154.035 163.975L154.317 166.276L156.802 167.744L166.347 165.619L171.04 166.185L175.409 170.406L178.46 183.25L175.973 210.55L178.1 218.597L181.132 223.44L186.026 227.458L200.65 231.579L205.382 234.497L206.46 238.079L205.674 243.471L196.045 260.433L195.548 267.548L197.606 272.697L202.784 282.387L205.249 291.922L206.106 296.714L212.072 291.241L216.739 290.716L228.999 298.45L235.835 301.958L238.088 303.818L239.713 310.774L241.78 315.787L248.399 321.425L259.806 331.618L265.31 343.476L270.767 362.821L273.05 363.763L282.724 364.167L286.169 368.459L285.406 375.487L285.078 377.745L282.525 392.343L283.19 423.744L283.532 433.471L282.857 438.258L280.042 442.964L275.132 445.515L267.229 445.575L260.174 444.231L255.423 445.465L253.74 447.628L250.153 453.165L247.753 455.346L240.511 458.142L223.251 459.592L220.349 464.087L218.668 474.013L221.849 476.72L223.107 481.132L226.741 485.642L225.923 489.057L223.876 487.654L222.944 493.206L227.481 496.486L233.064 504.774L236.623 504.512L238.66 507.514L243.267 507.36L244.414 504.58L242.746 504.089L242.989 501.587L246.18 502.695L250.939 500.849L251.202 503.421L253.318 503.841L254.46 505.997L256.877 505.52L260.545 511.972L268.956 518.28L274.092 518.843L275.419 514.952L274.036 513.8L278.317 511.478L276.527 516.63L278.339 517.506L276.425 519.074L287.564 527.751L291.031 526.359L292.935 527.377L292.426 528.329L297.992 531.987L301.137 536.666L304.223 535.384L303.041 538.161L306.402 541.222L307.433 542.554L309.549 543.45L310.564 541.581L313.328 543.442L314.665 544.285L316.453 547.44L323.829 552.483L326.491 557.265L329.298 557.53L332.427 560.983L332.454 565.955L335.329 574.497L337.504 576.998L339.87 578.219L339.485 579.826L341.207 583.93L340.916 588.574L343.534 590.084L344.674 588.871L342.105 587.635L342.503 585.348L344.506 586.407L347.452 585.183L346.818 588.407L350.86 592.435L352.823 602.343L353.166 602.299L353.819 602.208L369.497 600.989L378.92 598.175L381.402 599.2L387.888 609.663L395.291 615.287L405.756 627.764L410.858 631.729L415.609 632.436L430.553 629.054L435.377 630.175L436.697 641.978L438.819 643.761L470.766 633.84L485.302 632.881L488.58 637.128L489.451 647.062L481.332 668.249L481.524 670.85L483.34 673.122L495.514 676.73L501.914 682.591L503.26 689.63L500.732 701.437L502.709 706.273L517.296 708.008L524.414 704.556L538.567 692.03L559.339 698.793L564.313 698.732L577.961 678.34L606.548 656.575L622.191 640.271L629.684 634.871L647.032 627.777L648.758 625.48L647.529 620.662L631.168 611.688L628.825 609.652L628.225 605.082L639.221 596.318L675.127 578.469L678.384 573.76L680.491 566.996L680.023 557.124L676.612 549.43L678.368 542.335L688.257 539.179L703.701 541.791L703.589 514.173L707.902 499.222L705.028 488.229L714.041 475.207L715.255 465.623L702.802 455.288L693.16 422.271L688.841 418.803L672.625 414.572L667.304 408.378L669.042 373.774L668.205 367.723L664.062 364.165L642.903 358.567L606.8 351.481L586.374 351.96L576.369 355.789L564.517 369.974L557.15 373.579L532.519 374.785L503.842 384.696L499.116 384.604L494.331 382.431L490.361 377.864L488.425 372.928L490.013 341.922L483.664 311.961L489.469 278.595L489.815 265.852L488.691 263.424L486.461 262.69L476.477 265.26L474.112 264.516L470.519 259.907L470.492 254.935L475.466 248.065L477.753 240.667L477.03 232.513L474.946 227.738L473.221 224.655L469.51 220.276L467.151 218.954L462.472 219.171L430.481 225.344L410.419 226.938L403.492 225.705L396.086 220.115L391.447 216.352L384.503 211.951L377.272 210.186L370.063 207.639L367.111 198.241L363.21 194.632L360.921 194.744L359.608 196.968L360.58 201.563L362.165 206.168L359.714 208.108L340.88 200.425L335.839 201.434L330.659 205.396L325.94 209.594L321.159 213.209L318.841 213.251L316.599 212.209L316.01 209.921L317.305 202.59L316.854 200.277L309.906 195.945L305.429 192.772L304.951 190.355L305.566 185.462L302.528 181.675L286.066 180.967L281.423 180.165L278.921 178.459L275.611 173.699L268.114 160.647L266.398 155.488L263.94 145.852L260.555 141.189L258.17 140.239L253.408 141.643Z" fill="white"/>
</mask>
<g mask="url(#mask0_346_4505)">
<g opacity="0.55">
<mask id="mask1_346_4505" style="mask-type:luminance" maskUnits="userSpaceOnUse" x="-270" y="-280" width="1409" height="1408">
<path d="M1138.45 -187.703L-177.159 -279.663L-269.119 1035.94L1046.49 1127.9L1138.45 -187.703Z" fill="white"/>
</mask>
<g mask="url(#mask1_346_4505)">
<path d="M-181.858 700.81L157.986 1040.67L161.63 1040.66L-181.878 697.2L-181.858 700.81Z" fill="#DBDADA"/>
<path d="M-181.88 673.844L184.951 1040.65L188.592 1040.67L-181.866 670.236L-181.88 673.844Z" fill="#DBDADA"/>
<path d="M-181.868 646.882L211.947 1040.67L215.557 1040.65L-181.886 643.238L-181.868 646.882Z" fill="#DBDADA"/>
<path d="M-181.854 619.918L238.914 1040.64L242.555 1040.66L-181.872 616.274L-181.854 619.918Z" fill="#DBDADA"/>
<path d="M-181.875 592.92L265.875 1040.66L269.517 1040.67L-181.861 589.312L-181.875 592.92Z" fill="#DBDADA"/>
<path d="M-181.864 565.481L-181.863 565.958L292.871 1040.67L296.481 1040.65L-181.881 562.313L-181.864 565.481Z" fill="#DBDADA"/>
<path d="M-181.885 538.992L319.836 1040.65L323.478 1040.66L-181.869 535.351L-181.885 538.992Z" fill="#DBDADA"/>
<path d="M-181.882 510.7L-181.871 511.995L346.799 1040.66L348.093 1040.65L350.443 1040.64L-181.891 508.385L-181.882 510.7Z" fill="#DBDADA"/>
<path d="M-181.857 485.033L373.765 1040.64L377.406 1040.66L-181.875 481.389L-181.857 485.033Z" fill="#DBDADA"/>
<path d="M-181.88 458.068L400.761 1040.65L404.369 1040.67L-181.864 454.427L-181.88 458.068Z" fill="#DBDADA"/>
<path d="M-181.867 431.105L427.724 1040.67L431.368 1040.65L-181.885 427.461L-181.867 431.105Z" fill="#DBDADA"/>
<path d="M-181.887 404.106L454.689 1040.64L458.33 1040.66L-181.873 400.498L-181.887 404.106Z" fill="#DBDADA"/>
<path d="M-181.874 377.143L481.686 1040.66L481.891 1040.64L485.296 1040.64L-181.892 373.499L-181.874 377.143Z" fill="#DBDADA"/>
<path d="M-181.863 350.18L508.648 1040.67L512.292 1040.65L-181.88 346.536L-181.863 350.18Z" fill="#DBDADA"/>
<path d="M-181.882 323.181L535.613 1040.65L539.255 1040.66L-181.868 319.573L-181.882 323.181Z" fill="#DBDADA"/>
<path d="M-181.869 296.219L562.577 1040.66L566.221 1040.64L-181.886 292.575L-181.869 296.219Z" fill="#DBDADA"/>
<path d="M-181.891 269.253L589.575 1040.64L593.182 1040.66L-181.875 265.611L-181.891 269.253Z" fill="#DBDADA"/>
<path d="M-181.872 241.712L-181.879 242.291L616.538 1040.65L620.182 1040.64L-181.896 238.646L-181.872 241.712Z" fill="#DBDADA"/>
<path d="M-181.865 215.294L643.502 1040.63L647.144 1040.65L-181.885 211.684L-181.865 215.294Z" fill="#DBDADA"/>
<path d="M672.304 1040.64L-181.896 186.523L672.268 1040.67L672.304 1040.64Z" fill="#DBDADA"/>
<path d="M-181.876 186.73L-181.885 188.329L670.5 1040.65L673.769 1040.64L674.108 1040.66L-181.869 184.688L-181.876 186.73Z" fill="#DBDADA"/>
<path d="M-181.874 161.365L697.461 1040.66L701.105 1040.64L-181.892 157.721L-181.874 161.365Z" fill="#DBDADA"/>
<path d="M726.23 1040.66L-181.869 132.564L726.266 1040.63L726.23 1040.66Z" fill="#DBDADA"/>
<path d="M-181.893 134.368L724.427 1040.64L728.069 1040.65L-181.879 130.76L-181.893 134.368Z" fill="#DBDADA"/>
<path d="M-181.88 107.406L751.424 1040.65L755.035 1040.63L-181.898 103.762L-181.88 107.406Z" fill="#DBDADA"/>
<path d="M780.192 1040.65L-181.876 78.6025L780.194 1040.62L780.192 1040.65Z" fill="#DBDADA"/>
<path d="M-181.902 80.4395L778.39 1040.63L781.997 1040.64L-181.886 76.7979L-181.902 80.4395Z" fill="#DBDADA"/>
<path d="M-181.887 53.4427L805.352 1040.64L808.994 1040.66L-181.874 49.835L-181.887 53.4427Z" fill="#DBDADA"/>
<path d="M-181.876 26.481L832.314 1040.66L835.958 1040.64L-181.894 22.8369L-181.876 26.481Z" fill="#DBDADA"/>
<path d="M-181.898 -0.485278L859.313 1040.64L862.921 1040.65L-181.881 -4.12695L-181.898 -0.485278Z" fill="#DBDADA"/>
<path d="M-181.886 -27.4478L886.276 1040.65L889.92 1040.63L-181.903 -31.0918L-181.886 -27.4478Z" fill="#DBDADA"/>
<path d="M-181.904 -54.4469L913.242 1040.63L916.883 1040.64L-181.89 -58.0547L-181.904 -54.4469Z" fill="#DBDADA"/>
<path d="M942.044 1040.63L-181.901 -83.2158L942.008 1040.66L942.044 1040.63Z" fill="#DBDADA"/>
<path d="M-181.892 -81.4091L940.238 1040.64L943.846 1040.66L-181.876 -85.0508L-181.892 -81.4091Z" fill="#DBDADA"/>
<path d="M-181.88 -108.373L967.201 1040.65L970.811 1040.63L-181.898 -112.017L-181.88 -108.373Z" fill="#DBDADA"/>
<path d="M995.97 1040.62L-181.876 -137.174L996.004 1040.62L995.97 1040.62Z" fill="#DBDADA"/>
<path d="M-181.904 -136.768L-181.9 -135.372L994.166 1040.63L996.718 1040.64L997.807 1040.65L-181.886 -138.979L-181.904 -136.768Z" fill="#DBDADA"/>
<path d="M-181.887 -162.333L1021.13 1040.65L1024.77 1040.63L-181.905 -165.977L-181.887 -162.333Z" fill="#DBDADA"/>
<path d="M-181.896 -192.397L-181.908 -189.3L1048.13 1040.62L1051.23 1040.64L1051.23 1040.09L-181.351 -192.393L-181.896 -192.397Z" fill="#DBDADA"/>
<path d="M-158.03 -192.396L1051.23 1016.77L1051.21 1013.13L-154.386 -192.414L-158.03 -192.396Z" fill="#DBDADA"/>
<path d="M-131.032 -192.416L1051.2 989.805L1051.22 986.164L-127.424 -192.402L-131.032 -192.416Z" fill="#DBDADA"/>
<path d="M-103.524 -192.4L-104.068 -192.404L1051.22 962.809L1051.2 962.536L1051.2 959.199L-100.424 -192.421L-103.524 -192.4Z" fill="#DBDADA"/>
<path d="M-77.1068 -192.391L1051.2 935.845L1051.21 932.203L-73.4629 -192.409L-77.1068 -192.391Z" fill="#DBDADA"/>
<path d="M1051.2 907.043L-48.3022 -192.42L1051.23 907.046L1051.2 907.043Z" fill="#DBDADA"/>
<path d="M-50.1426 -192.412L1051.21 908.882L1051.22 905.241L-46.5009 -192.396L-50.1426 -192.412Z" fill="#DBDADA"/>
<path d="M-22.2589 -192.404L-23.1444 -192.398L1051.22 881.885L1051.2 880.794L1051.2 878.275L-19.5343 -192.418L-22.2589 -192.404Z" fill="#DBDADA"/>
<path d="M3.82083 -192.421L1051.2 854.919L1051.22 851.277L7.46252 -192.405L3.82083 -192.421Z" fill="#DBDADA"/>
<path d="M30.7823 -192.408L1051.21 827.957L1051.22 827.379L1051.2 824.313L34.4263 -192.425L30.7823 -192.408Z" fill="#DBDADA"/>
<path d="M57.7794 -192.393L1051.19 800.958L1051.21 797.35L61.3896 -192.413L57.7794 -192.393Z" fill="#DBDADA"/>
<path d="M1051.2 772.19L86.5498 -192.425L1051.2 772.156L1051.2 772.19Z" fill="#DBDADA"/>
<path d="M88.2523 -192.408L84.7461 -192.415L1051.21 773.995L1051.22 772.362L1051.22 770.387L88.3878 -192.399L88.2523 -192.408Z" fill="#DBDADA"/>
<path d="M111.708 -192.404L1051.22 747.031L1051.2 743.387L115.352 -192.421L111.708 -192.404Z" fill="#DBDADA"/>
<path d="M138.673 -192.425L1051.2 720.067L1051.21 716.425L142.314 -192.409L138.673 -192.425Z" fill="#DBDADA"/>
<path d="M165.67 -192.41L1051.21 693.071L1051.19 689.461L169.28 -192.43L165.67 -192.41Z" fill="#DBDADA"/>
<path d="M192.633 -192.398L1051.19 666.105L1051.21 662.464L196.277 -192.416L192.633 -192.398Z" fill="#DBDADA"/>
<path d="M1051.2 637.304L221.437 -192.427L1051.23 637.306L1051.2 637.304Z" fill="#DBDADA"/>
<path d="M220.855 -192.399L219.597 -192.419L1051.2 639.143L1051.22 635.501L223.238 -192.403L220.855 -192.399Z" fill="#DBDADA"/>
<path d="M246.595 -192.406L1051.22 612.179L1051.21 610.239L1051.2 608.535L250.205 -192.426L246.595 -192.406Z" fill="#DBDADA"/>
<path d="M1051.22 583.379L275.362 -192.402L1051.19 583.376L1051.22 583.379Z" fill="#DBDADA"/>
<path d="M273.56 -192.427L1051.2 585.181L1051.21 581.573L277.202 -192.411L273.56 -192.427Z" fill="#DBDADA"/>
<path d="M1051.2 556.413L302.362 -192.422L1051.24 556.382L1051.2 556.413Z" fill="#DBDADA"/>
<path d="M300.521 -192.414L1051.21 558.219L1051.21 557.164L1051.19 554.575L304.165 -192.431L300.521 -192.414Z" fill="#DBDADA"/>
<path d="M327.519 -192.4L1051.19 531.253L1051.2 527.611L331.129 -192.42L327.519 -192.4Z" fill="#DBDADA"/>
<path d="M354.482 -192.421L1051.2 504.257L1051.21 500.649L358.124 -192.405L354.482 -192.421Z" fill="#DBDADA"/>
<path d="M381.446 -192.409L1051.21 477.294L1051.19 473.65L385.09 -192.426L381.446 -192.409Z" fill="#DBDADA"/>
<path d="M1051.22 448.492L410.248 -192.404L1051.21 448.526L1051.22 448.492Z" fill="#DBDADA"/>
<path d="M408.411 -192.431L1051.19 450.329L1051.2 447.708L1051.21 446.687L412.053 -192.415L408.411 -192.431Z" fill="#DBDADA"/>
<path d="M435.408 -192.416L1051.2 423.332L1051.19 419.722L439.018 -192.436L435.408 -192.416Z" fill="#DBDADA"/>
<path d="M1051.21 394.565L464.177 -192.413L1051.17 394.563L1051.21 394.565Z" fill="#DBDADA"/>
<path d="M462.373 -192.438L1051.18 396.367L1051.2 392.725L466.015 -192.421L462.373 -192.438Z" fill="#DBDADA"/>
<path d="M1051.19 367.599L491.175 -192.434L1051.22 367.567L1051.19 367.599Z" fill="#DBDADA"/>
<path d="M489.336 -192.427L1051.2 369.403L1051.21 365.761L492.978 -192.411L489.336 -192.427Z" fill="#DBDADA"/>
<path d="M516.333 -192.412L1051.21 342.441L1051.19 338.797L519.943 -192.432L516.333 -192.412Z" fill="#DBDADA"/>
<path d="M543.978 -192.418L543.298 -192.432L1051.19 315.443L1051.18 315.136L1051.2 311.836L546.94 -192.416L543.978 -192.418Z" fill="#DBDADA"/>
<path d="M1051.19 286.674L572.065 -192.431L1051.19 286.641L1051.19 286.674Z" fill="#DBDADA"/>
<path d="M570.261 -192.42L1051.2 288.48L1051.18 284.836L573.905 -192.438L570.261 -192.42Z" fill="#DBDADA"/>
<path d="M597.227 -192.442L1051.18 261.515L1051.2 257.874L600.868 -192.425L597.227 -192.442Z" fill="#DBDADA"/>
<path d="M625.04 -192.439L624.222 -192.428L1051.19 234.518L1051.21 230.91L627.83 -192.414L625.04 -192.439Z" fill="#DBDADA"/>
<path d="M651.185 -192.415L1051.21 207.556L1051.19 203.912L654.829 -192.432L651.185 -192.415Z" fill="#DBDADA"/>
<path d="M678.15 -192.437L1051.18 180.59L1051.2 176.949L681.792 -192.42L678.15 -192.437Z" fill="#DBDADA"/>
<path d="M705.146 -192.421L1051.2 153.595L1051.18 149.984L708.756 -192.441L705.146 -192.421Z" fill="#DBDADA"/>
</g>
</g>
</g>
<circle cx="337.045" cy="567.374" r="34.7421" fill="#CDDC29" fill-opacity="0.2"/>
<circle cx="337.045" cy="567.376" r="35.034" fill="#CDDC29"/>
<path d="M0.469366 628.315H13.675C13.675 624.677 12.8002 621.788 11.0506 619.65C9.30092 617.511 6.56536 615.915 2.84389 614.859L3.21881 610.902C5.3295 611.346 7.25967 612.04 9.00931 612.985C10.759 613.901 12.2587 615.054 13.5084 616.442C14.7582 617.803 15.7163 619.386 16.3828 621.191C17.0771 622.969 17.4243 624.968 17.4243 627.19V628.315H22.1733V631.647H0.469366V628.315ZM20.506 628.315H26.6714C26.4493 627.954 26.241 627.496 26.0466 626.94C25.8799 626.385 25.7966 625.788 25.7966 625.149C25.7966 624.177 25.9633 623.288 26.2965 622.483C26.6298 621.677 27.088 620.997 27.6712 620.441C28.2545 619.858 28.9488 619.414 29.7542 619.108C30.5596 618.775 31.4344 618.608 32.3786 618.608C34.7948 618.608 36.5167 619.386 37.5443 620.941C38.5996 622.469 39.1273 624.927 39.1273 628.315H43.793C43.793 625.926 43.5986 623.83 43.2098 622.024C42.821 620.219 42.1822 618.706 41.2935 617.484C40.4326 616.262 39.3078 615.345 37.9192 614.734C36.5306 614.095 34.8504 613.776 32.8785 613.776C31.5455 613.776 30.2124 613.887 28.8793 614.109C27.5463 614.332 26.0743 614.651 24.4636 615.067L24.7552 611.61C25.9494 611.249 27.2547 610.971 28.671 610.777C30.1152 610.554 31.5732 610.443 33.0452 610.443C35.628 610.443 37.8359 610.846 39.6688 611.651C41.5018 612.429 43.0015 613.54 44.1679 614.984C45.3344 616.401 46.1814 618.109 46.7091 620.108C47.2645 622.108 47.5423 624.316 47.5423 626.732V628.315H52.4996V631.647H20.506V628.315ZM35.4197 628.315V625.524C35.4197 624.274 35.1281 623.344 34.5449 622.733C33.9894 622.122 33.1979 621.816 32.1703 621.816C31.2539 621.816 30.5596 622.122 30.0874 622.733C29.6153 623.316 29.3792 623.955 29.3792 624.649C29.3792 625.982 29.6847 626.926 30.2957 627.482C30.9067 628.037 31.7954 628.315 32.9619 628.315H35.4197ZM50.8141 628.315H57.3961C56.8406 627.676 56.3268 626.801 55.8547 625.69C55.4104 624.579 55.1882 623.219 55.1882 621.608C55.1882 620.386 55.3826 619.192 55.7714 618.025C56.188 616.859 56.7851 615.817 57.5627 614.901C58.3681 613.984 59.354 613.248 60.5204 612.693C61.7146 612.137 63.0755 611.86 64.6029 611.86C66.0749 611.86 67.3524 612.11 68.4355 612.61C69.5186 613.11 70.4212 613.79 71.1433 614.651C71.8654 615.512 72.4069 616.512 72.768 617.65C73.129 618.789 73.3095 619.997 73.3095 621.275C73.3095 622.802 73.0596 624.205 72.5597 625.482C72.0875 626.732 71.4071 627.815 70.5184 628.731C69.6297 629.648 68.5605 630.37 67.3107 630.898C66.061 631.398 64.6724 631.647 63.1449 631.647H50.8141V628.315ZM63.9781 628.356C65.811 628.356 67.1719 627.732 68.0606 626.482C68.9493 625.204 69.3936 623.552 69.3936 621.524C69.3936 620.719 69.2964 619.928 69.102 619.15C68.9076 618.345 68.5883 617.636 68.1439 617.025C67.7273 616.414 67.1858 615.928 66.5192 615.567C65.8527 615.179 65.0612 614.984 64.1447 614.984C63.2838 614.984 62.5339 615.165 61.8952 615.526C61.2564 615.887 60.7287 616.373 60.3121 616.984C59.8956 617.567 59.5901 618.261 59.3957 619.067C59.2013 619.844 59.1041 620.677 59.1041 621.566C59.1041 622.372 59.2013 623.177 59.3957 623.982C59.5901 624.788 59.8817 625.524 60.2705 626.19C60.6871 626.829 61.2009 627.357 61.8118 627.773C62.4228 628.162 63.1449 628.356 63.9781 628.356ZM63.9364 607.902C63.2421 607.902 62.6589 607.652 62.1868 607.152C61.7424 606.652 61.5202 606.055 61.5202 605.361C61.5202 604.695 61.7424 604.125 62.1868 603.653C62.6589 603.153 63.2421 602.903 63.9364 602.903C64.6307 602.903 65.1862 603.153 65.6027 603.653C66.0471 604.125 66.2693 604.695 66.2693 605.361C66.2693 606.055 66.0471 606.652 65.6027 607.152C65.1862 607.652 64.6307 607.902 63.9364 607.902ZM102.57 631.647C99.7368 631.647 97.3206 631.356 95.321 630.773C93.3492 630.162 91.7384 629.315 90.4887 628.231C89.2667 627.148 88.3641 625.843 87.7809 624.316C87.2255 622.788 86.9477 621.08 86.9477 619.192C86.9477 618.303 87.031 617.317 87.1977 616.234C87.3643 615.123 87.5587 614.123 87.7809 613.234L91.8634 612.401C91.5301 613.457 91.2802 614.484 91.1136 615.484C90.9469 616.456 90.8636 617.525 90.8636 618.692C90.8636 620.108 91.0441 621.4 91.4052 622.566C91.7662 623.732 92.405 624.746 93.3214 625.607C94.2657 626.468 95.5432 627.134 97.154 627.607C98.7648 628.079 100.82 628.315 103.319 628.315H111.401V601.154H115.15V628.315H119.899V631.647H102.57ZM104.653 609.152C104.403 609.124 104.166 609.11 103.944 609.11C103.722 609.083 103.5 609.069 103.278 609.069C102.806 609.069 102.417 609.194 102.111 609.444C101.834 609.666 101.695 609.985 101.695 610.402C101.695 610.818 101.861 611.193 102.195 611.527C102.528 611.86 103.097 612.026 103.903 612.026H105.652V614.401H97.4456V612.026C97.7511 612.026 98.1955 612.04 98.7787 612.068C99.3619 612.068 99.8479 612.137 100.237 612.276C99.8757 612.026 99.6118 611.749 99.4452 611.443C99.3064 611.11 99.2369 610.679 99.2369 610.152C99.2369 609.18 99.6118 608.416 100.362 607.861C101.112 607.277 102.07 606.986 103.236 606.986C103.514 606.986 103.805 607 104.111 607.027C104.444 607.055 104.791 607.097 105.152 607.152L104.653 609.152ZM119.078 628.315H124.785V601.154H128.535V628.315H133.284V631.647H119.078V628.315ZM147.835 631.647C145.474 631.647 143.641 631.286 142.336 630.564C141.03 629.814 140.044 628.856 139.378 627.69C138.989 628.856 138.295 629.814 137.295 630.564C136.323 631.286 134.976 631.647 133.254 631.647H132.463V628.315H133.796C134.323 628.315 134.837 628.231 135.337 628.065C135.837 627.898 136.281 627.607 136.67 627.19C137.059 626.746 137.364 626.162 137.587 625.44C137.837 624.691 137.962 623.76 137.962 622.649C137.962 620.816 138.184 619.233 138.628 617.9C139.1 616.539 139.753 615.415 140.586 614.526C141.419 613.637 142.405 612.971 143.544 612.526C144.71 612.082 146.002 611.86 147.418 611.86C148.64 611.86 149.737 612.054 150.709 612.443C151.709 612.804 152.556 613.387 153.25 614.193C153.944 614.97 154.472 615.984 154.833 617.234C155.222 618.456 155.416 619.928 155.416 621.649V628.315H159.749V631.647H147.835ZM151.667 628.315V620.9C151.667 620.094 151.556 619.33 151.334 618.608C151.139 617.886 150.834 617.261 150.417 616.734C150.029 616.178 149.529 615.748 148.918 615.442C148.334 615.137 147.654 614.984 146.876 614.984C145.988 614.984 145.224 615.151 144.585 615.484C143.974 615.817 143.46 616.276 143.044 616.859C142.655 617.442 142.363 618.122 142.169 618.9C142.002 619.678 141.919 620.525 141.919 621.441C141.919 623.83 142.447 625.579 143.502 626.69C144.585 627.773 146.265 628.315 148.543 628.315H151.667ZM158.906 628.315H164.613V601.154H168.362V631.647H158.906V628.315ZM180.334 631.647H176.585V604.07C176.085 603.986 175.502 603.917 174.835 603.861C174.197 603.778 173.572 603.709 172.961 603.653V601.445C174.016 601.306 175.196 601.209 176.502 601.154C177.835 601.098 179.112 601.098 180.334 601.154V631.647ZM193.586 628.315C193.892 628.315 194.281 628.315 194.753 628.315C195.253 628.315 195.767 628.343 196.294 628.398C196.85 628.426 197.391 628.468 197.919 628.523C198.447 628.579 198.891 628.676 199.252 628.815C197.919 627.843 197.252 626.468 197.252 624.691C197.252 623.802 197.447 622.969 197.836 622.191C198.224 621.386 198.752 620.691 199.419 620.108C200.113 619.497 200.932 619.011 201.876 618.65C202.848 618.289 203.918 618.109 205.084 618.109C205.695 618.109 206.389 618.136 207.167 618.192C207.972 618.247 208.764 618.358 209.542 618.525L208.875 621.816C207.514 621.566 206.181 621.441 204.876 621.441C203.543 621.441 202.585 621.733 202.001 622.316C201.446 622.899 201.168 623.719 201.168 624.774C201.168 625.801 201.599 626.662 202.46 627.357C203.321 628.023 204.64 628.356 206.417 628.356H210.416V631.647H193.586V628.315ZM220.284 628.315H225.033V631.647H216.535V604.07C216.035 603.986 215.452 603.917 214.785 603.861C214.146 603.778 213.521 603.709 212.91 603.653V601.445C213.966 601.306 215.146 601.209 216.451 601.154C217.784 601.098 219.062 601.098 220.284 601.154V628.315ZM224.2 628.315H230.116V612.485H233.865V628.315H238.614V631.647H224.2V628.315ZM231.824 609.069C231.13 609.069 230.546 608.819 230.074 608.319C229.63 607.819 229.408 607.222 229.408 606.528C229.408 605.861 229.63 605.292 230.074 604.82C230.546 604.32 231.13 604.07 231.824 604.07C232.518 604.07 233.074 604.32 233.49 604.82C233.935 605.292 234.157 605.861 234.157 606.528C234.157 607.222 233.935 607.819 233.49 608.319C233.074 608.819 232.518 609.069 231.824 609.069ZM237.788 628.315H243.704V612.485H247.453V628.315H252.202V631.647H237.788V628.315ZM241.121 640.271C240.399 640.271 239.802 640.007 239.33 639.479C238.857 638.979 238.621 638.368 238.621 637.646C238.621 636.924 238.857 636.299 239.33 635.772C239.802 635.272 240.399 635.022 241.121 635.022C241.843 635.022 242.44 635.272 242.912 635.772C243.384 636.299 243.62 636.924 243.62 637.646C243.62 638.368 243.384 638.979 242.912 639.479C242.44 640.007 241.843 640.271 241.121 640.271ZM247.495 640.312C246.772 640.312 246.161 640.049 245.662 639.521C245.189 638.993 244.953 638.368 244.953 637.646C244.953 636.924 245.189 636.313 245.662 635.813C246.161 635.313 246.772 635.063 247.495 635.063C248.217 635.063 248.8 635.313 249.244 635.813C249.716 636.313 249.952 636.924 249.952 637.646C249.952 638.368 249.716 638.993 249.244 639.521C248.8 640.049 248.217 640.312 247.495 640.312ZM251.376 628.315H252.709C253.237 628.315 253.75 628.231 254.25 628.065C254.75 627.898 255.195 627.607 255.583 627.19C255.972 626.746 256.278 626.162 256.5 625.44C256.75 624.691 256.875 623.76 256.875 622.649C256.875 620.816 257.097 619.233 257.541 617.9C258.013 616.539 258.666 615.415 259.499 614.526C260.332 613.637 261.318 612.971 262.457 612.526C263.623 612.082 264.915 611.86 266.331 611.86C267.553 611.86 268.65 612.054 269.622 612.443C270.622 612.804 271.469 613.387 272.163 614.193C272.858 614.97 273.385 615.984 273.746 617.234C274.135 618.456 274.33 619.928 274.33 621.649V631.647H266.748C264.387 631.647 262.554 631.286 261.249 630.564C259.944 629.814 258.958 628.856 258.291 627.69C257.902 628.856 257.208 629.814 256.208 630.564C255.236 631.286 253.889 631.647 252.167 631.647H251.376V628.315ZM270.58 628.315V620.9C270.58 620.094 270.469 619.33 270.247 618.608C270.053 617.886 269.747 617.261 269.331 616.734C268.942 616.178 268.442 615.748 267.831 615.442C267.248 615.137 266.567 614.984 265.79 614.984C264.901 614.984 264.137 615.151 263.498 615.484C262.887 615.817 262.374 616.276 261.957 616.859C261.568 617.442 261.277 618.122 261.082 618.9C260.916 619.678 260.832 620.525 260.832 621.441C260.832 623.83 261.36 625.579 262.415 626.69C263.498 627.773 265.179 628.315 267.456 628.315H270.58ZM56.8115 668.441C57.728 667.635 58.4918 666.746 59.1027 665.774C59.7415 664.802 60.0609 663.872 60.0609 662.983C60.0609 661.734 59.6026 660.748 58.6862 660.026C57.7697 659.304 56.5477 658.942 55.0202 658.942C53.7149 658.942 52.5069 659.179 51.396 659.651C50.3128 660.123 49.2436 660.72 48.1883 661.442C49.7713 661.831 51.271 662.636 52.6874 663.858C54.1038 665.052 55.4785 666.58 56.8115 668.441ZM55.2702 686.02C53.0762 686.02 51.2432 685.882 49.7713 685.604C48.3271 685.326 47.1607 684.909 46.272 684.354C45.4111 683.826 44.7862 683.146 44.3974 682.313C44.0363 681.507 43.8558 680.577 43.8558 679.522C43.8558 678.55 44.1474 677.605 44.7306 676.689C45.3416 675.8 46.1192 674.953 47.0635 674.148C48.0078 673.342 49.0353 672.606 50.1462 671.94C51.2849 671.246 52.3819 670.648 53.4372 670.149C52.6318 669.177 51.9098 668.343 51.271 667.649C50.6322 666.955 49.9935 666.344 49.3547 665.816C48.7159 665.288 48.0078 664.802 47.2301 664.358C46.4803 663.914 45.5777 663.442 44.5223 662.942L45.0639 659.026C46.6747 657.97 48.3549 657.11 50.1046 656.443C51.882 655.749 53.6316 655.402 55.3535 655.402C56.7977 655.402 58.0474 655.596 59.1027 655.985C60.1859 656.346 61.0885 656.86 61.8105 657.526C62.5326 658.165 63.0742 658.929 63.4352 659.817C63.7962 660.678 63.9768 661.609 63.9768 662.608C63.9768 663.803 63.6157 665.08 62.8937 666.441C62.1716 667.774 61.0468 669.01 59.5193 670.149C60.3525 670.787 61.2829 671.301 62.3104 671.69C63.3658 672.079 64.4906 672.273 65.6848 672.273H66.2263V675.647H65.4348C63.5463 675.647 61.8661 675.398 60.3942 674.898C58.95 674.398 57.5197 673.592 56.1034 672.481C54.9091 673.009 53.7983 673.565 52.7707 674.148C51.7709 674.703 50.8961 675.273 50.1462 675.856C49.3964 676.439 48.8132 677.008 48.3966 677.564C47.98 678.147 47.7717 678.716 47.7717 679.272C47.7717 680.521 48.3966 681.396 49.6463 681.896C50.9238 682.424 52.7568 682.688 55.1452 682.688C55.6451 682.688 56.1867 682.674 56.7699 682.646C57.3531 682.618 57.9363 682.577 58.5195 682.521C59.1305 682.493 59.7276 682.438 60.3108 682.354C60.9218 682.299 61.4773 682.229 61.9772 682.146L61.6856 685.437C60.6858 685.632 59.6304 685.77 58.5195 685.854C57.4364 685.965 56.3533 686.02 55.2702 686.02ZM65.3782 672.315H71.2937V656.485H75.0429V672.315H79.7919V675.647H65.3782V672.315ZM73.0433 684.021C72.349 684.021 71.7658 683.771 71.2937 683.271C70.8493 682.771 70.6271 682.174 70.6271 681.48C70.6271 680.813 70.8493 680.23 71.2937 679.73C71.7658 679.258 72.349 679.022 73.0433 679.022C73.7376 679.022 74.293 679.258 74.7096 679.73C75.154 680.23 75.3762 680.813 75.3762 681.48C75.3762 682.174 75.154 682.771 74.7096 683.271C74.293 683.771 73.7376 684.021 73.0433 684.021ZM78.9659 672.315H84.8814V656.485H88.6307V672.315H93.3797V675.647H78.9659V672.315ZM86.5894 653.069C85.8951 653.069 85.3119 652.819 84.8398 652.319C84.3954 651.819 84.1732 651.222 84.1732 650.528C84.1732 649.861 84.3954 649.292 84.8398 648.82C85.3119 648.32 85.8951 648.07 86.5894 648.07C87.2837 648.07 87.8391 648.32 88.2557 648.82C88.7001 649.292 88.9223 649.861 88.9223 650.528C88.9223 651.222 88.7001 651.819 88.2557 652.319C87.8391 652.819 87.2837 653.069 86.5894 653.069ZM92.5537 672.315H98.4692V656.485H102.218V672.315H106.967V675.647H92.5537V672.315ZM95.8864 684.271C95.1643 684.271 94.5672 684.007 94.0951 683.479C93.6229 682.979 93.3869 682.368 93.3869 681.646C93.3869 680.924 93.6229 680.299 94.0951 679.772C94.5672 679.272 95.1643 679.022 95.8864 679.022C96.6084 679.022 97.2055 679.272 97.6777 679.772C98.1498 680.299 98.3859 680.924 98.3859 681.646C98.3859 682.368 98.1498 682.979 97.6777 683.479C97.2055 684.007 96.6084 684.271 95.8864 684.271ZM102.26 684.312C101.538 684.312 100.927 684.049 100.427 683.521C99.955 682.993 99.7189 682.368 99.7189 681.646C99.7189 680.924 99.955 680.313 100.427 679.813C100.927 679.313 101.538 679.063 102.26 679.063C102.982 679.063 103.565 679.313 104.01 679.813C104.482 680.313 104.718 680.924 104.718 681.646C104.718 682.368 104.482 682.993 104.01 683.521C103.565 684.049 102.982 684.312 102.26 684.312ZM106.141 672.315H112.057V656.485H115.806V675.647H106.141V672.315ZM111.265 683.979C110.571 683.979 109.988 683.729 109.516 683.229C109.071 682.729 108.849 682.132 108.849 681.438C108.849 680.771 109.071 680.188 109.516 679.688C109.988 679.216 110.571 678.98 111.265 678.98C111.96 678.98 112.515 679.216 112.932 679.688C113.376 680.188 113.598 680.771 113.598 681.438C113.598 682.132 113.376 682.729 112.932 683.229C112.515 683.729 111.96 683.979 111.265 683.979ZM145.072 675.647C142.24 675.647 139.823 675.356 137.824 674.773C135.852 674.162 134.241 673.315 132.992 672.231C131.77 671.148 130.867 669.843 130.284 668.316C129.728 666.788 129.451 665.08 129.451 663.192C129.451 662.303 129.534 661.317 129.701 660.234C129.867 659.123 130.062 658.123 130.284 657.234L134.366 656.401C134.033 657.457 133.783 658.484 133.616 659.484C133.45 660.456 133.366 661.525 133.366 662.692C133.366 664.108 133.547 665.4 133.908 666.566C134.269 667.732 134.908 668.746 135.824 669.607C136.769 670.468 138.046 671.134 139.657 671.607C141.268 672.079 143.323 672.315 145.822 672.315H151.03V656.651C152.168 656.401 153.251 656.207 154.279 656.068C155.334 655.929 156.39 655.86 157.445 655.86C159.139 655.86 160.542 656.068 161.652 656.485C162.791 656.901 163.694 657.526 164.36 658.359C165.055 659.165 165.541 660.164 165.818 661.359C166.096 662.553 166.235 663.941 166.235 665.524V672.315H171.026V675.647H162.486V665.566C162.486 663.261 162.041 661.595 161.153 660.567C160.264 659.512 158.903 658.984 157.07 658.984C156.765 658.984 156.362 658.998 155.862 659.026C155.39 659.054 155.029 659.095 154.779 659.151V675.647H145.072ZM143.948 684.312C143.226 684.312 142.628 684.049 142.156 683.521C141.684 683.021 141.448 682.41 141.448 681.688C141.448 680.966 141.684 680.341 142.156 679.813C142.628 679.313 143.226 679.063 143.948 679.063C144.67 679.063 145.267 679.313 145.739 679.813C146.211 680.341 146.447 680.966 146.447 681.688C146.447 682.41 146.211 683.021 145.739 683.521C145.267 684.049 144.67 684.312 143.948 684.312ZM150.321 684.354C149.599 684.354 148.988 684.09 148.488 683.563C148.016 683.035 147.78 682.41 147.78 681.688C147.78 680.966 148.016 680.355 148.488 679.855C148.988 679.355 149.599 679.105 150.321 679.105C151.043 679.105 151.627 679.355 152.071 679.855C152.543 680.355 152.779 680.966 152.779 681.688C152.779 682.41 152.543 683.035 152.071 683.563C151.627 684.09 151.043 684.354 150.321 684.354ZM170.175 672.315H176.798C176.076 671.509 175.493 670.537 175.049 669.399C174.604 668.26 174.382 666.983 174.382 665.566C174.382 664.261 174.591 663.025 175.007 661.859C175.424 660.692 176.049 659.665 176.882 658.776C177.715 657.887 178.77 657.179 180.048 656.651C181.325 656.124 182.839 655.86 184.589 655.86C185.394 655.86 186.199 655.915 187.005 656.026C187.81 656.137 188.56 656.304 189.254 656.526L188.838 660.067C188.282 659.845 187.602 659.651 186.796 659.484C185.991 659.29 185.186 659.192 184.38 659.192C182.27 659.192 180.714 659.776 179.715 660.942C178.743 662.081 178.256 663.539 178.256 665.316C178.256 667.482 178.965 669.19 180.381 670.44C181.797 671.69 183.825 672.315 186.463 672.315H191.129V675.647H170.175V672.315ZM200.594 672.315H205.343V675.647H196.845V648.07C196.345 647.986 195.761 647.917 195.095 647.861C194.456 647.778 193.831 647.709 193.22 647.653V645.445C194.276 645.306 195.456 645.209 196.761 645.154C198.094 645.098 199.372 645.098 200.594 645.154V672.315ZM204.51 672.315H210.426V656.485H214.175V672.315H218.924V675.647H204.51V672.315ZM212.134 653.069C211.439 653.069 210.856 652.819 210.384 652.319C209.94 651.819 209.718 651.222 209.718 650.528C209.718 649.861 209.94 649.292 210.384 648.82C210.856 648.32 211.439 648.07 212.134 648.07C212.828 648.07 213.384 648.32 213.8 648.82C214.244 649.292 214.467 649.861 214.467 650.528C214.467 651.222 214.244 651.819 213.8 652.319C213.384 652.819 212.828 653.069 212.134 653.069ZM218.098 672.315H224.014V656.485H227.763C227.763 658.04 227.735 659.415 227.679 660.609C227.652 661.775 227.61 662.789 227.555 663.65C227.499 664.511 227.43 665.233 227.346 665.816C227.263 666.399 227.193 666.871 227.138 667.232C227.749 665.899 228.513 664.566 229.429 663.233C230.346 661.872 231.373 660.65 232.512 659.567C233.651 658.456 234.872 657.568 236.178 656.901C237.483 656.207 238.816 655.86 240.177 655.86C242.621 655.86 244.551 656.651 245.967 658.234C247.412 659.817 248.134 662.192 248.134 665.358V672.315H252.883V675.647H218.098V672.315ZM244.135 672.315V665.899C244.135 664.927 244.051 664.039 243.885 663.233C243.718 662.4 243.44 661.692 243.051 661.109C242.69 660.526 242.204 660.067 241.593 659.734C241.01 659.401 240.288 659.234 239.427 659.234C238.511 659.234 237.497 659.553 236.386 660.192C235.303 660.831 234.234 661.72 233.178 662.858C232.123 663.997 231.109 665.372 230.137 666.983C229.193 668.593 228.402 670.371 227.763 672.315H244.135ZM252.067 672.315H257.775V645.154H261.524V675.647H252.067V672.315ZM273.496 675.647H269.747V648.07C269.247 647.986 268.663 647.917 267.997 647.861C267.358 647.778 266.733 647.709 266.122 647.653V645.445C267.178 645.306 268.358 645.209 269.663 645.154C270.996 645.098 272.274 645.098 273.496 645.154V675.647Z" fill="white"/>
</svg>
