<svg width="88" height="87" viewBox="0 0 88 87" fill="none" xmlns="http://www.w3.org/2000/svg">
<path d="M7.31218 47.7805C7.31218 47.7805 7.32207 47.8705 7.33207 47.9105H81.3321C80.8421 47.7005 80.6221 47.6005 80.4021 47.5105C68.7921 42.7705 57.1821 38.0505 45.5821 33.2805C44.7321 32.9305 44.0421 32.9505 43.2221 33.2805C35.3221 36.5005 27.4021 39.6805 19.4821 42.8705C15.4321 44.5005 11.3722 46.1305 7.31218 47.7605V47.7805ZM84.9921 83.2205H86.8122V86.0405H1.40214V83.2704C1.96214 83.2404 2.53218 83.2205 3.19218 83.1905V50.9604H1.33207C1.33207 50.0804 1.2721 49.2805 1.3621 48.5005C1.3921 48.2505 1.77218 47.9405 2.06218 47.8205C7.28218 45.6905 12.5221 43.5905 17.7521 41.4805C26.0121 38.1505 34.2721 34.8205 42.5321 31.4805C42.7321 31.4005 42.9221 31.3105 43.2121 31.1905C41.3121 30.1805 40.1922 28.7005 40.4522 26.5605C40.7022 24.4705 42.0322 23.2205 44.0622 22.6805C44.0922 22.3605 44.1222 22.0605 44.1622 21.7205H45.9921C45.9921 22.4205 46.0221 23.0605 45.9921 23.7005C45.9521 24.3505 45.5122 24.5504 44.9122 24.5804C43.5622 24.6604 42.6322 25.4305 42.4422 26.5405C42.2122 27.9105 43.0222 29.1805 44.2922 29.4205C45.7222 29.6905 46.9621 28.8705 47.2621 27.4405C47.2921 27.3205 47.2622 27.1905 47.2922 27.0705C47.4222 26.4605 47.8421 26.0605 48.4021 26.2805C48.7521 26.4205 49.1922 26.9705 49.1722 27.3205C49.1122 28.8805 48.3221 30.0605 46.9821 30.8605C46.6921 31.0305 46.3821 31.1605 45.9821 31.3605C49.1021 32.6405 52.1422 33.8905 55.1822 35.1305C65.4022 39.2905 75.6121 43.4705 85.8421 47.6005C86.6621 47.9305 87.0222 48.3304 86.9122 49.2104C86.8422 49.7504 86.9021 50.3105 86.9021 50.9405H85.0121V83.2305L84.9921 83.2205Z" stroke="white" stroke-width="1.15" stroke-miterlimit="10"/>
<path d="M38.3108 7.28052H51.7307C51.7307 9.54052 51.8108 11.7505 51.6908 13.9605C51.6408 14.9705 50.8407 15.6005 49.8607 15.8505C49.5007 15.9405 49.1207 15.9705 48.7507 15.9805C46.2307 15.9805 43.7108 16.0005 41.1908 15.9805C39.2608 15.9605 38.3008 14.9405 38.3008 12.9905C38.3008 11.1205 38.3008 9.25052 38.3008 7.28052" fill="white"/>
<path d="M41.2812 17.6704H48.6312C48.5112 18.9104 47.7712 19.8404 46.6412 19.9704C45.5912 20.0904 44.5212 20.1004 43.4712 19.9704C42.3112 19.8304 41.6413 18.9804 41.2812 17.6604" fill="white"/>
<path d="M40.4305 3.50046C40.4305 4.19046 40.4405 4.88046 40.4305 5.57046C40.4105 6.25046 40.1004 6.77046 39.3304 6.75046C38.6304 6.73046 38.3105 6.25042 38.3105 5.59042C38.3105 4.14042 38.3105 2.70047 38.3105 1.26047C38.3105 0.660465 38.6105 0.220458 39.3005 0.190458C40.0505 0.150458 40.3805 0.600446 40.4205 1.24045C40.4705 1.99045 40.4305 2.75046 40.4305 3.50046Z" fill="white"/>
<path d="M51.7508 3.49041C51.7508 4.21041 51.7508 4.94039 51.7508 5.66039C51.7608 6.30039 51.4108 6.72041 50.7808 6.75041C50.0608 6.79041 49.7109 6.3304 49.7009 5.6704C49.6909 4.1904 49.6909 2.71041 49.7009 1.24041C49.7009 0.630405 50.0208 0.200376 50.7208 0.210376C51.4508 0.220376 51.7608 0.660371 51.7508 1.33037C51.7508 2.05037 51.7508 2.78041 51.7508 3.50041V3.49041Z" fill="white"/>
<path d="M48.6307 5.48046H41.5508C41.8508 4.34046 42.5707 3.60045 43.5807 3.53045C44.5607 3.46045 45.5508 3.44045 46.5308 3.53045C47.5908 3.64045 48.2807 4.33045 48.6307 5.47045" fill="white"/>
<path d="M62.0804 67.0605C62.0804 62.7405 62.0804 58.4204 62.0804 54.0904C62.0804 53.4204 61.9205 52.8504 61.1905 52.8304C60.4105 52.8204 60.1904 53.4205 60.2204 54.1205C60.2204 54.2105 60.2204 54.3104 60.2204 54.4004C60.2204 62.8004 60.2204 71.1904 60.2204 79.5904C60.2204 79.9004 60.2004 80.2205 60.2704 80.5105C60.4404 81.1705 61.2804 81.4805 61.7204 81.0005C61.9504 80.7505 62.0605 80.2904 62.0605 79.9204C62.0805 75.6304 62.0804 71.3404 62.0804 67.0504M26.1104 66.9505V77.3205C26.1104 78.2805 26.1104 79.2305 26.1104 80.1905C26.1104 80.7705 26.3605 81.1605 26.9505 81.2005C27.5905 81.2405 27.9004 80.8505 27.9604 80.2505C27.9804 80.0705 27.9704 79.8805 27.9704 79.7005C27.9704 71.2105 27.9704 62.7204 27.9704 54.2304C27.9704 53.5104 27.8404 52.8304 27.0004 52.8404C26.1404 52.8504 26.0904 53.5704 26.1004 54.2704C26.1104 58.5004 26.1004 62.7304 26.1004 66.9604M79.1404 66.9904C79.1404 62.6705 79.1404 58.3504 79.1404 54.0304C79.1404 53.3904 78.9504 52.8704 78.2804 52.8404C77.5504 52.8104 77.3004 53.3604 77.3004 54.0304C77.3004 54.1504 77.3004 54.2804 77.3004 54.4004C77.3004 62.8604 77.3004 71.3104 77.3004 79.7704C77.3004 80.0704 77.2704 80.4604 77.4305 80.6604C77.6505 80.9204 78.0504 81.1904 78.3704 81.1704C78.6304 81.1604 78.9204 80.7805 79.1004 80.5005C79.2104 80.3205 79.1404 80.0204 79.1404 79.7704C79.1404 75.5104 79.1404 71.2505 79.1404 66.9904ZM70.6104 66.9704C70.6104 62.6504 70.6104 58.3305 70.6104 54.0005C70.6104 53.3405 70.3804 52.8604 69.7104 52.8404C69.0404 52.8204 68.7604 53.3204 68.7504 53.9604C68.7504 54.0804 68.7504 54.2104 68.7504 54.3304C68.7504 62.7604 68.7504 71.1904 68.7504 79.6104C68.7504 79.9504 68.7504 80.3004 68.8504 80.6104C69.0404 81.2204 69.8404 81.4605 70.2504 81.0105C70.4804 80.7505 70.5804 80.3005 70.5804 79.9305C70.6004 75.6105 70.5904 71.2904 70.5904 66.9704M53.5304 66.9904C53.5304 62.7304 53.5304 58.4704 53.5304 54.2104C53.5304 53.5304 53.4304 52.8704 52.6404 52.8504C51.8004 52.8204 51.6504 53.4804 51.6504 54.2104C51.6504 62.7604 51.6504 71.3105 51.6504 79.8705C51.6504 80.5305 51.7104 81.1904 52.5504 81.2104C53.4504 81.2404 53.5304 80.5805 53.5304 79.8705C53.5204 75.5805 53.5304 71.2905 53.5304 67.0005M34.6104 67.0804V70.5105C34.6104 73.7205 34.6104 76.9304 34.6104 80.1404C34.6104 80.8004 34.8805 81.2404 35.5705 81.2204C36.2205 81.2104 36.4604 80.7604 36.4704 80.1604C36.4704 80.0704 36.4704 79.9705 36.4704 79.8805C36.4704 71.3605 36.4704 62.8405 36.4704 54.3205C36.4704 54.0505 36.5304 53.7005 36.3904 53.5105C36.1704 53.2205 35.7704 52.8405 35.5104 52.8805C35.1804 52.9305 34.8704 53.3404 34.6504 53.6604C34.5304 53.8304 34.6204 54.1404 34.6204 54.3904C34.6204 58.6204 34.6204 62.8504 34.6204 67.0804M17.5605 67.0804V69.0304C17.5605 72.7304 17.5605 76.4404 17.5605 80.1404C17.5605 80.7504 17.7604 81.1904 18.4104 81.2304C19.1104 81.2704 19.3804 80.8104 19.4104 80.1704C19.4104 80.0204 19.4104 79.8604 19.4104 79.7104C19.4104 71.2804 19.4104 62.8505 19.4104 54.4305C19.4104 54.1305 19.4605 53.7504 19.3105 53.5304C19.1105 53.2404 18.7005 52.8504 18.4405 52.8904C18.1205 52.9404 17.7804 53.3404 17.5904 53.6704C17.4504 53.9004 17.5504 54.2704 17.5504 54.5804C17.5504 58.7504 17.5504 62.9104 17.5504 67.0804M9.02042 67.0005C9.02042 71.2005 9.02042 75.4004 9.02042 79.5904C9.02042 79.9004 8.94047 80.2505 9.07047 80.5005C9.21047 80.7905 9.54045 81.1604 9.80045 81.1704C10.1104 81.1804 10.5304 80.9204 10.7304 80.6504C10.9004 80.4204 10.8604 80.0004 10.8704 79.6704C10.8704 75.4104 10.8704 71.1504 10.8704 66.8904C10.8704 62.6304 10.8704 58.6805 10.8704 54.5705C10.8704 54.3905 10.8704 54.2005 10.8704 54.0105C10.8704 53.3405 10.6104 52.8004 9.8804 52.8304C9.2104 52.8604 9.02042 53.3804 9.02042 54.0204C9.03042 58.3404 9.02042 62.6604 9.02042 66.9804M45.0004 67.0705C45.0004 62.8405 45.0004 58.6105 45.0004 54.3805C45.0004 54.1005 45.0905 53.7505 44.9505 53.5605C44.7205 53.2505 44.3504 52.8804 44.0204 52.8604C43.7504 52.8404 43.3905 53.2605 43.1905 53.5605C43.0605 53.7605 43.1404 54.1005 43.1404 54.3805C43.1404 59.0105 43.1404 63.6404 43.1404 68.2704C43.1404 72.1604 43.1404 76.0505 43.1404 79.9405C43.1404 80.9005 43.5804 81.3604 44.3004 81.1704C44.9504 81.0004 45.0004 80.4905 45.0004 79.9405C45.0004 75.6505 45.0004 71.3605 45.0004 67.0705Z" fill="white"/>
</svg>
