<svg width="211" height="73" viewBox="0 0 211 73" fill="none" xmlns="http://www.w3.org/2000/svg">
<path d="M62.4837 52.2972C62.4337 52.1072 62.1838 51.3872 62.1338 50.6372C62.0538 49.3572 64.4138 49.2672 65.8738 49.3572C63.0338 47.2672 58.8338 45.0472 55.0638 43.7572C53.7338 43.3172 50.1438 42.7572 47.6538 42.6972L44.4538 42.6272C43.8738 42.6272 43.7937 42.8872 43.9737 43.3372C44.5437 44.8472 44.7737 48.1272 45.1137 50.3172C45.2737 51.3772 45.5338 51.6272 46.6238 51.6372C50.9438 51.6772 62.5437 52.4972 62.4837 52.2872V52.2972ZM8.76377 68.1872C7.25377 68.0772 5.54376 67.9372 4.19376 67.6972C3.14376 67.5172 2.30378 67.2872 1.96378 66.9672C0.873783 65.9672 0.993771 62.8272 1.01377 61.2272C1.01377 60.8372 2.02374 60.8372 2.04374 60.4272C2.19374 57.9472 2.36377 55.2072 2.63377 52.6672C2.96377 49.6172 9.29373 49.4972 13.1637 48.2872C15.9237 47.4272 18.1937 45.5672 21.7337 44.0172C25.6337 42.3072 29.0338 40.7472 33.1438 40.7472C39.8038 40.7472 49.7137 39.9572 55.9237 41.9172C61.8637 43.7872 67.2737 47.1572 72.9137 49.7972C79.7337 50.5172 87.3038 51.8872 94.2138 53.5772C96.4538 54.1272 97.4237 55.1472 98.1137 56.4672C98.8637 57.8972 99.2138 59.2472 99.5638 60.0572C100.114 60.0972 100.134 59.9672 100.304 60.2772C100.484 60.6072 100.384 61.0572 100.424 61.5972C100.514 62.8272 100.494 64.4572 100.184 65.5672C99.8838 66.6272 99.6038 67.1472 99.0738 67.5372C98.6738 67.8372 98.1837 68.0672 97.6137 68.0872L95.0838 68.1672C93.5738 67.8872 93.8538 67.6972 93.9538 65.7972C93.9738 65.5072 93.9737 65.2272 93.9737 64.9372C93.9737 59.6572 89.6437 55.3672 84.3037 55.3672C78.9637 55.3672 74.6338 59.6472 74.6338 64.9372C74.6338 65.4772 74.6438 65.9972 74.6838 66.5172C74.9138 69.7272 75.2138 69.1672 72.2738 69.3172L31.7038 69.2772C29.5438 68.9872 29.6638 69.2472 29.8938 66.5672C29.9338 66.0372 29.9538 65.4972 29.9538 64.9472C29.9538 59.6672 25.6237 55.3772 20.2837 55.3772C14.9437 55.3772 10.6137 59.6572 10.6137 64.9472C10.6137 65.3972 10.6237 65.8472 10.6637 66.2972C10.8337 68.4972 10.2138 68.3172 8.76377 68.2072V68.1872ZM28.7937 50.9972L28.1838 44.0772C28.8338 43.7972 29.3638 43.5872 29.6438 43.5072C31.3238 43.0172 33.0738 42.7172 34.7738 42.6872L40.4638 42.6172C40.7838 42.6172 41.1838 42.7972 41.2538 42.9872C41.7138 44.1572 41.8237 45.7572 42.4137 50.5872C42.5737 51.9072 42.4938 51.5472 41.0138 51.5272C37.3638 51.4872 32.9337 51.2072 28.8037 50.9872L28.7937 50.9972ZM27.1938 44.5172L27.6938 50.9372C26.2338 50.8572 24.8338 50.7972 23.5238 50.7472C23.0438 50.7272 22.7938 50.5472 22.5938 50.2472C22.3038 49.8272 21.8538 48.8572 21.6938 48.3972C21.5738 48.0472 21.5938 47.8872 21.9038 47.4672C22.3138 46.9172 25.0438 45.5072 27.1938 44.5172Z" stroke="white" stroke-width="1.19" stroke-miterlimit="10"/>
<path d="M84.3438 57.5771C80.2338 57.5771 76.8938 60.8872 76.8938 64.9772C76.8938 69.0672 80.2338 72.3772 84.3438 72.3772C88.4538 72.3772 91.7938 69.0672 91.7938 64.9772C91.7938 60.8872 88.4538 57.5771 84.3438 57.5771Z" fill="white"/>
<path d="M20.2337 57.5771C16.1237 57.5771 12.7837 60.8872 12.7837 64.9772C12.7837 69.0672 16.1237 72.3772 20.2337 72.3772C24.3437 72.3772 27.6837 69.0672 27.6837 64.9772C27.6837 60.8872 24.3437 57.5771 20.2337 57.5771Z" fill="white"/>
<path d="M171.604 52.2972C171.554 52.1072 171.304 51.3872 171.254 50.6372C171.174 49.3572 173.534 49.2672 174.994 49.3572C172.154 47.2672 167.954 45.0472 164.184 43.7572C162.854 43.3172 159.264 42.7572 156.774 42.6972L153.574 42.6272C152.994 42.6272 152.914 42.8872 153.094 43.3372C153.664 44.8472 153.894 48.1272 154.234 50.3172C154.394 51.3772 154.654 51.6272 155.744 51.6372C160.064 51.6772 171.664 52.4972 171.604 52.2872V52.2972ZM117.884 68.1872C116.374 68.0772 114.664 67.9372 113.314 67.6972C112.264 67.5172 111.424 67.2872 111.084 66.9672C109.994 65.9672 110.114 62.8272 110.134 61.2272C110.134 60.8372 111.144 60.8372 111.164 60.4272C111.314 57.9472 111.484 55.2072 111.754 52.6672C112.084 49.6172 118.414 49.4972 122.284 48.2872C125.044 47.4272 127.314 45.5672 130.854 44.0172C134.754 42.3072 138.154 40.7472 142.264 40.7472C148.924 40.7472 158.834 39.9572 165.034 41.9172C170.974 43.7872 176.384 47.1572 182.024 49.7972C188.844 50.5172 196.414 51.8872 203.324 53.5772C205.564 54.1272 206.534 55.1472 207.224 56.4672C207.974 57.8972 208.324 59.2472 208.674 60.0572C209.224 60.0972 209.244 59.9672 209.414 60.2772C209.594 60.6072 209.494 61.0572 209.534 61.5972C209.624 62.8272 209.604 64.4572 209.294 65.5672C208.994 66.6272 208.714 67.1472 208.184 67.5372C207.784 67.8372 207.294 68.0672 206.724 68.0872L204.194 68.1672C202.684 67.8872 202.964 67.6972 203.064 65.7972C203.084 65.5072 203.084 65.2272 203.084 64.9372C203.084 59.6572 198.754 55.3672 193.414 55.3672C188.074 55.3672 183.744 59.6472 183.744 64.9372C183.744 65.4772 183.754 65.9972 183.794 66.5172C184.024 69.7272 184.324 69.1672 181.384 69.3172L140.814 69.2772C138.654 68.9872 138.774 69.2472 139.004 66.5672C139.044 66.0372 139.064 65.4972 139.064 64.9472C139.064 59.6672 134.734 55.3772 129.394 55.3772C124.054 55.3772 119.724 59.6572 119.724 64.9472C119.724 65.3972 119.734 65.8472 119.774 66.2972C119.944 68.4972 119.324 68.3172 117.874 68.2072L117.884 68.1872ZM137.914 50.9972L137.304 44.0772C137.954 43.7972 138.484 43.5872 138.764 43.5072C140.444 43.0172 142.194 42.7172 143.894 42.6872L149.584 42.6172C149.904 42.6172 150.304 42.7972 150.374 42.9872C150.834 44.1572 150.944 45.7572 151.534 50.5872C151.694 51.9072 151.614 51.5472 150.134 51.5272C146.484 51.4872 142.054 51.2072 137.924 50.9872L137.914 50.9972ZM136.314 44.5172L136.814 50.9372C135.354 50.8572 133.954 50.7972 132.644 50.7472C132.164 50.7272 131.914 50.5472 131.714 50.2472C131.424 49.8272 130.974 48.8572 130.814 48.3972C130.694 48.0472 130.714 47.8872 131.024 47.4672C131.434 46.9172 134.164 45.5072 136.314 44.5172Z" stroke="white" stroke-width="1.19" stroke-miterlimit="10"/>
<path d="M193.474 57.5771C189.364 57.5771 186.024 60.8872 186.024 64.9772C186.024 69.0672 189.364 72.3772 193.474 72.3772C197.584 72.3772 200.924 69.0672 200.924 64.9772C200.924 60.8872 197.584 57.5771 193.474 57.5771Z" fill="white"/>
<path d="M129.354 57.5771C125.244 57.5771 121.904 60.8872 121.904 64.9772C121.904 69.0672 125.244 72.3772 129.354 72.3772C133.464 72.3772 136.804 69.0672 136.804 64.9772C136.804 60.8872 133.464 57.5771 129.354 57.5771Z" fill="white"/>
<path d="M115.164 12.7074C115.114 12.5174 114.864 11.7974 114.814 11.0474C114.734 9.7674 117.094 9.67737 118.554 9.76737C115.714 7.67737 111.514 5.45739 107.744 4.16739C106.414 3.72739 102.824 3.16739 100.334 3.10739L97.1337 3.03739C96.5537 3.03739 96.4737 3.29741 96.6537 3.74741C97.2237 5.25741 97.4537 8.53739 97.7937 10.7274C97.9537 11.7874 98.2137 12.0374 99.3037 12.0474C103.624 12.0874 115.224 12.9074 115.164 12.6974V12.7074ZM61.4437 28.5974C59.9337 28.4874 58.2237 28.3474 56.8737 28.1074C55.8237 27.9274 54.9837 27.6974 54.6437 27.3774C53.5537 26.3774 53.6737 23.2374 53.6937 21.6374C53.6937 21.2474 54.7037 21.2474 54.7237 20.8374C54.8737 18.3574 55.0437 15.6174 55.3137 13.0774C55.6437 10.0274 61.9737 9.90736 65.8437 8.69736C68.6037 7.83736 70.8737 5.9774 74.4137 4.4274C78.3137 2.7174 81.7137 1.15738 85.8237 1.15738C92.4837 1.15738 102.394 0.367365 108.594 2.32736C114.534 4.19736 119.944 7.56737 125.584 10.2074C132.404 10.9274 139.974 12.2974 146.884 13.9874C149.124 14.5374 150.094 15.5574 150.784 16.8774C151.534 18.3074 151.884 19.6574 152.234 20.4674C152.784 20.5074 152.804 20.3774 152.974 20.6874C153.154 21.0174 153.054 21.4674 153.094 22.0074C153.184 23.2374 153.164 24.8674 152.854 25.9774C152.554 27.0374 152.274 27.5574 151.744 27.9474C151.344 28.2474 150.854 28.4774 150.284 28.4974L147.754 28.5774C146.244 28.2974 146.524 28.1074 146.624 26.2074C146.644 25.9174 146.644 25.6374 146.644 25.3474C146.644 20.0674 142.314 15.7774 136.974 15.7774C131.634 15.7774 127.304 20.0574 127.304 25.3474C127.304 25.8874 127.314 26.4074 127.354 26.9274C127.584 30.1374 127.884 29.5774 124.944 29.7274L84.3737 29.6874C82.2137 29.3974 82.3337 29.6574 82.5637 26.9774C82.6037 26.4474 82.6237 25.9074 82.6237 25.3574C82.6237 20.0774 78.2937 15.7874 72.9537 15.7874C67.6137 15.7874 63.2837 20.0674 63.2837 25.3574C63.2837 25.8074 63.2937 26.2574 63.3337 26.7074C63.5037 28.9074 62.8837 28.7274 61.4337 28.6174L61.4437 28.5974ZM81.4737 11.4074L80.8637 4.4874C81.5137 4.2074 82.0437 3.99739 82.3237 3.91739C84.0037 3.42739 85.7537 3.12738 87.4537 3.09738L93.1437 3.02738C93.4637 3.02738 93.8637 3.20737 93.9337 3.39737C94.3937 4.56737 94.5037 6.16741 95.0937 10.9974C95.2537 12.3174 95.1737 11.9574 93.6937 11.9374C90.0437 11.8974 85.6137 11.6174 81.4837 11.3974L81.4737 11.4074ZM79.8737 4.9274L80.3737 11.3474C78.9137 11.2674 77.5137 11.2074 76.2037 11.1574C75.7237 11.1374 75.4737 10.9574 75.2737 10.6574C74.9837 10.2374 74.5337 9.26741 74.3737 8.80741C74.2537 8.45741 74.2737 8.29741 74.5837 7.87741C74.9937 7.32741 77.7237 5.9174 79.8737 4.9274Z" stroke="white" stroke-width="1.19" stroke-miterlimit="10"/>
<path d="M137.034 17.9976C132.924 17.9976 129.584 21.3075 129.584 25.3975C129.584 29.4875 132.924 32.7975 137.034 32.7975C141.144 32.7975 144.484 29.4875 144.484 25.3975C144.484 21.3075 141.144 17.9976 137.034 17.9976Z" fill="white"/>
<path d="M72.9138 17.9976C68.8038 17.9976 65.4639 21.3075 65.4639 25.3975C65.4639 29.4875 68.8038 32.7975 72.9138 32.7975C77.0238 32.7975 80.3638 29.4875 80.3638 25.3975C80.3638 21.3075 77.0238 17.9976 72.9138 17.9976Z" fill="white"/>
<path d="M154.724 57.6276L157.814 57.6776C158.294 57.6776 158.684 57.3276 158.694 56.8876C158.704 56.4476 158.324 56.0776 157.844 56.0676L154.754 56.0176C154.274 56.0176 153.884 56.3676 153.874 56.8076C153.864 57.2476 154.244 57.6176 154.724 57.6276Z" fill="white"/>
<path d="M45.7838 57.6276L48.8738 57.6776C49.3538 57.6776 49.7438 57.3276 49.7538 56.8876C49.7638 56.4476 49.3838 56.0776 48.9038 56.0676L45.8138 56.0176C45.3338 56.0176 44.9438 56.3676 44.9338 56.8076C44.9238 57.2476 45.3038 57.6176 45.7838 57.6276Z" fill="white"/>
<path d="M99.4037 17.6974L102.494 17.7474C102.974 17.7474 103.364 17.3974 103.374 16.9574C103.384 16.5174 103.004 16.1474 102.524 16.1374L99.4337 16.0874C98.9537 16.0874 98.5637 16.4374 98.5537 16.8774C98.5437 17.3174 98.9237 17.6874 99.4037 17.6974Z" fill="white"/>
</svg>
