<svg width="93" height="115" viewBox="0 0 93 115" fill="none" xmlns="http://www.w3.org/2000/svg">
<path d="M86.8 12.1199H70.07C67.13 12.1199 64.73 9.71997 64.73 6.77997C64.73 3.83997 67.13 1.43994 70.07 1.43994H86.8C89.74 1.43994 92.14 3.83997 92.14 6.77997C92.14 9.71997 89.74 12.1199 86.8 12.1199Z" fill="white"/>
<path d="M90.67 8.89014H79.88V113.76H90.67V8.89014Z" fill="white"/>
<path d="M28.86 84.43L50.72 70.16L72.85 84.52L68.08 99.31L50.72 107.48L33.45 99.31M43.73 39.9901L33.8 30.11L47.77 16.33M57.18 39.46L66.45 30.1L52.89 16.2M50.39 10.03C48.42 10.03 46.82 11.64 46.82 13.63C46.82 15.62 48.42 17.23 50.39 17.23C52.36 17.23 53.96 15.62 53.96 13.63C53.96 11.64 52.36 10.03 50.39 10.03ZM50.39 10.03V6.34003H64.35M42.04 46.26L41.7 45.7401C40.37 43.7301 38.23 43.7301 36.9 45.7401L36.73 46C35.4 48.01 33.25 48.01 31.93 46L31.41 45.22C30.09 43.21 27.94 43.21 26.61 45.22C25.28 47.23 23.13 47.23 21.81 45.22C21.66 44.99 21.49 44.78 21.31 44.6M8.42001 40.64H15.92C18.94 40.64 21.4 43.12 21.4 46.17C21.4 49.22 18.95 51.7 15.92 51.7H10.69V114.02M10.69 114.02L1 113.97V46.53C1 43.3 3.6 40.67 6.81 40.68H10.69M10.69 114.02H55.39M50.8 63.37L74.28 79.43L68.07 99.31L50.8 107.48M50.71 69.35L28.85 84.43M50.8 69.35L72.84 84.52M33.98 74.44V59.45H66.9V73.9M41.52 59.2401V51.12H59.36V58.95M46.75 39.14C46.75 37.09 48.4 35.42 50.44 35.42C52.48 35.42 54.13 37.09 54.13 39.14M91.52 113.68V5.66003C91.52 3.09003 89.45 1 86.9 1H70.11C66.92 1 64.34 3.61002 64.34 6.83002C64.34 10.05 66.93 12.66 70.11 12.66H80V113.65L91.52 113.68ZM14.3 45.96C14.3 46.94 15.08 47.72 16.05 47.72C17.02 47.72 17.8 46.93 17.8 45.96C17.8 44.99 17.02 44.2 16.05 44.2C15.08 44.2 14.3 44.99 14.3 45.96ZM50.71 107.48V63.37L27.23 79.43L33.44 99.31L50.71 107.48ZM41.36 103.02V114H35.42V100.4L41.36 103.02ZM60.34 103.02V114H66.28V100.4L60.34 103.02ZM46.8 45.04V39.32H54.22V45.17L46.8 45.03V45.04Z" stroke="white" stroke-width="1.91" stroke-miterlimit="10"/>
<path d="M41.3499 114.08H35.4099V101.13L41.3499 103.08V114.08Z" fill="white"/>
<path d="M60.3601 114.08H66.3101V101.13L60.3601 103.08V114.08Z" fill="white"/>
</svg>
