<svg width="80" height="75" viewBox="0 0 80 75" fill="none" xmlns="http://www.w3.org/2000/svg">
<path d="M0.980469 35.2255C1.19047 35.0555 1.42047 34.9155 1.61047 34.7255C4.37047 31.9955 7.11048 29.2456 9.87048 26.5156C10.1105 26.2756 10.4005 26.0355 10.7205 25.9155C14.3305 24.5755 17.9505 23.2656 21.5605 21.9456C21.6805 21.9056 21.8005 21.8856 22.0305 21.8256C22.0305 22.8456 22.0505 23.8155 22.0105 24.7855C22.0105 24.9355 21.7005 25.1356 21.4905 25.2156C19.5605 25.9356 17.6205 26.6355 15.6805 27.3455C15.4505 27.4255 15.2304 27.5255 14.8304 27.6855C15.9704 28.1055 16.9405 28.4756 17.9205 28.8356C25.0405 31.4256 32.1505 34.0255 39.2705 36.6055C39.5005 36.6855 39.8105 36.7156 40.0405 36.6356C48.0405 33.7356 56.0305 30.8255 64.0205 27.9155C64.1605 27.8655 64.2805 27.7955 64.5605 27.6755C64.0005 27.4655 63.5805 27.2856 63.1405 27.1356C61.4405 26.5156 59.7405 25.8755 58.0305 25.2855C57.5605 25.1255 57.3305 24.9256 57.3705 24.3856C57.4205 23.5656 57.3805 22.7355 57.3805 21.8055C59.0105 22.3955 60.5406 22.9456 62.0706 23.5056C64.2206 24.2856 66.3705 25.0755 68.5205 25.8755C68.8205 25.9855 69.1305 26.1355 69.3505 26.3555C72.2905 29.2655 75.2205 32.1855 78.1405 35.0955C78.2105 35.1655 78.2605 35.2456 78.3705 35.3856C77.6805 35.6456 77.0205 35.9056 76.3705 36.1456C74.1705 36.9456 71.9805 37.7755 69.7705 38.5355C69.2105 38.7255 69.0605 38.9855 69.0605 39.5555C69.0805 47.0955 69.0605 54.6255 69.0905 62.1655C69.0905 62.8255 68.9105 63.1155 68.2805 63.3455C58.9805 66.7155 49.7005 70.1155 40.4005 73.4755C39.9905 73.6255 39.4405 73.6355 39.0405 73.4855C29.6705 70.0955 20.3106 66.6656 10.9506 63.2556C10.5706 63.1156 10.3106 63.0055 10.3206 62.4955C10.3406 55.5655 10.3305 48.6356 10.3405 41.6956C10.3405 41.6256 10.3605 41.5455 10.3905 41.3655C10.7005 41.4655 11.0005 41.5456 11.2905 41.6556C17.5805 43.9456 23.8705 46.2355 30.1505 48.5555C30.7905 48.7955 31.1705 48.6856 31.6405 48.2056C34.0605 45.7456 36.5204 43.3155 38.9604 40.8755C39.1504 40.6855 39.2806 40.4256 39.4406 40.1956C39.5206 40.2456 39.5905 40.2956 39.6705 40.3356V70.4755C41.4605 69.8255 43.1305 69.2255 44.8105 68.6155C51.6705 66.1155 58.5205 63.6155 65.3805 61.1255C65.7705 60.9855 66.0605 60.8756 66.0605 60.3256C66.0405 53.6456 66.0405 46.9655 66.0405 40.2855C66.0405 40.1855 66.0205 40.0855 66.0005 39.9155C64.3905 40.4955 62.8105 41.0656 61.2305 41.6456C57.4005 43.0456 53.5705 44.4255 49.7505 45.8555C49.2105 46.0555 48.9005 45.9656 48.5105 45.5656C45.6405 42.6356 42.7405 39.7155 39.8005 36.7355C39.5205 37.0055 39.3205 37.1855 39.1305 37.3755C36.3805 40.1155 33.6205 42.8455 30.8905 45.6055C30.5105 45.9855 30.2204 46.0455 29.7104 45.8555C20.1404 42.3555 10.5605 38.8756 0.990479 35.3856V35.2355L0.980469 35.2255Z" stroke="white" stroke-width="1.15" stroke-miterlimit="10"/>
<path d="M60.921 60.2056C60.921 59.3356 60.901 58.6056 60.941 57.8756C60.941 57.6756 61.101 57.3856 61.271 57.3056C61.951 57.0056 62.6709 56.7756 63.4709 56.4856C63.4709 57.3856 63.491 58.1756 63.451 58.9756C63.451 59.1256 63.271 59.3356 63.131 59.3956C62.441 59.6756 61.731 59.9156 60.921 60.2056Z" fill="white"/>
<path d="M57.171 61.5656C57.161 61.2956 57.141 61.1455 57.141 60.9955C57.121 59.3555 57.971 58.3355 59.691 57.9355C59.691 58.7455 59.711 59.5356 59.681 60.3256C59.681 60.4756 59.521 60.6956 59.371 60.7556C58.681 61.0356 57.971 61.2755 57.171 61.5555" fill="white"/>
<path d="M53.3722 62.9456C53.3722 62.0656 53.3422 61.3156 53.3922 60.5656C53.4022 60.3756 53.5922 60.1156 53.7722 60.0356C54.4322 59.7456 55.1222 59.5256 55.9122 59.2356C55.9122 60.1356 55.9222 60.9556 55.9022 61.7656C55.9022 61.8956 55.7422 62.0756 55.6122 62.1256C54.9222 62.3956 54.2122 62.6456 53.3822 62.9356" fill="white"/>
<path d="M39.7518 27.6756C39.9618 27.6156 40.1319 27.5756 40.2919 27.5256C44.2219 26.0956 48.1419 24.6656 52.0719 23.2556C52.5819 23.0756 52.6018 22.7655 52.6018 22.3455C52.6018 17.5355 52.6018 12.7156 52.6018 7.9056C52.6018 7.6856 52.5819 7.4656 52.5619 7.1556C48.2419 8.7256 44.0018 10.2756 39.7518 11.8256V27.6856V27.6756ZM54.9918 5.48556V18.5556C54.9918 20.3656 54.9718 22.1856 55.0018 23.9956C55.0018 24.4956 54.8918 24.7556 54.3918 24.9256C49.6818 26.6256 44.9818 28.3455 40.2719 30.0355C39.9319 30.1555 39.4718 30.1555 39.1318 30.0355C34.4418 28.3555 29.7718 26.6256 25.0818 24.9456C24.5518 24.7556 24.4219 24.5055 24.4219 23.9755C24.4419 18.0555 24.4419 12.1356 24.4219 6.20559C24.4219 5.62559 24.6018 5.39559 25.1418 5.20559C29.7818 3.53559 34.4119 1.8356 39.0419 0.1556C39.3519 0.0456003 39.7619 -0.0644461 40.0519 0.0455539C45.0219 1.82555 49.9818 3.64555 55.0018 5.47555" fill="white"/>
</svg>
