<svg width="171" height="54" viewBox="0 0 171 54" fill="none" xmlns="http://www.w3.org/2000/svg">
<path d="M39.2714 38.2338C39.2314 38.1338 39.1914 38.0338 39.1514 37.9338H37.4913C37.4513 38.0238 37.4113 38.1038 37.3713 38.1938C37.6813 38.3738 37.9914 38.6938 38.3014 38.6938C38.6214 38.6938 38.9514 38.3938 39.2814 38.2238M33.5614 31.2438C33.9814 31.9138 34.3014 32.4438 34.7614 33.1938V31.2438H33.5614ZM56.8713 37.9238C56.8713 37.7738 56.8613 37.6238 56.8513 37.4738C56.4613 37.2438 56.0414 36.7837 55.7014 36.8438C55.3414 36.9038 55.0613 37.4638 54.7513 37.7938C55.0913 38.1038 55.4214 38.6238 55.7814 38.6638C56.1214 38.6938 56.5013 38.1938 56.8613 37.9238M86.1714 37.7738C85.5214 37.3038 85.1414 36.8138 84.8014 36.8438C84.4414 36.8638 83.9014 37.3338 83.8114 37.7038C83.6814 38.2738 84.1213 38.7938 84.7513 38.7038C85.1513 38.6438 85.5114 38.2338 86.1714 37.7838M107.811 38.8938C107.951 38.8938 108.091 38.8838 108.231 38.8738C108.471 38.4938 108.941 38.0838 108.891 37.7438C108.841 37.3838 108.331 36.8938 107.961 36.8238C107.351 36.7138 106.911 37.2238 107.011 37.8138C107.081 38.2038 107.531 38.5338 107.821 38.8838M113.561 38.8838H114.011C114.271 38.5038 114.761 38.1038 114.711 37.7638C114.671 37.4038 114.161 36.9138 113.781 36.8238C113.221 36.6938 112.761 37.1638 112.861 37.7438C112.931 38.1438 113.321 38.5038 113.561 38.8738M132.611 37.8038C131.981 37.3238 131.611 36.8238 131.261 36.8338C130.901 36.8438 130.351 37.3038 130.261 37.6638C130.111 38.2338 130.541 38.7638 131.171 38.6838C131.581 38.6338 131.941 38.2338 132.611 37.8038ZM125.121 38.8638C125.271 38.8638 125.421 38.8738 125.571 38.8838C125.831 38.5138 126.231 38.1738 126.311 37.7738C126.421 37.1938 125.981 36.7138 125.421 36.8238C125.031 36.9038 124.521 37.3738 124.461 37.7338C124.411 38.0738 124.881 38.4938 125.131 38.8738M62.6714 37.9738V37.5638C62.3114 37.3038 61.9213 36.8138 61.5813 36.8438C61.2113 36.8737 60.6813 37.3538 60.6013 37.7138C60.4713 38.2938 60.9314 38.7938 61.5514 38.6938C61.9514 38.6338 62.3014 38.2238 62.6714 37.9638M78.7814 38.8838C78.9314 38.8838 79.0813 38.8738 79.2213 38.8638C79.4513 38.4738 79.9113 38.0538 79.8513 37.7138C79.7913 37.3538 79.2214 36.8138 78.9114 36.8438C78.5714 36.8638 78.0514 37.4338 78.0214 37.7938C77.9914 38.1338 78.5014 38.5138 78.7714 38.8838M90.7313 36.6238C90.5913 36.6238 90.4514 36.6238 90.3114 36.6338C90.0714 37.0138 89.6114 37.4138 89.6514 37.7538C89.7014 38.1138 90.1914 38.6038 90.5614 38.6838C91.1714 38.8038 91.6114 38.3038 91.5114 37.7038C91.4414 37.3138 91.0013 36.9838 90.7313 36.6238ZM102.391 36.6238C102.241 36.6238 102.101 36.6238 101.951 36.6238C101.691 37.0038 101.211 37.4038 101.251 37.7438C101.291 38.1038 101.831 38.6438 102.171 38.6538C102.491 38.6538 103.031 38.1038 103.081 37.7538C103.121 37.4138 102.651 37.0138 102.401 36.6338M45.2714 37.9238C45.2714 37.7838 45.2714 37.6538 45.2614 37.5138C44.8814 37.2638 44.5313 36.8638 44.1213 36.8138C43.4913 36.7338 43.0514 37.2338 43.2014 37.8138C43.2914 38.1738 43.8314 38.6338 44.1814 38.6538C44.5314 38.6738 44.9014 38.1838 45.2614 37.9138M68.4913 37.9138C68.4913 37.7738 68.4813 37.6338 68.4713 37.4938C68.0913 37.2538 67.7214 36.8538 67.3114 36.8038C66.6814 36.7338 66.2414 37.2438 66.3914 37.8238C66.4814 38.1838 67.0414 38.6338 67.4114 38.6538C67.7614 38.6738 68.1313 38.1738 68.4913 37.9138ZM72.9114 38.8738C73.0614 38.8738 73.2113 38.8738 73.3613 38.8738C73.6113 38.5138 74.0213 38.1738 74.0813 37.7738C74.1813 37.1538 73.7213 36.6838 73.1213 36.8238C72.7513 36.9038 72.2813 37.4138 72.2413 37.7738C72.2013 38.1138 72.6714 38.5038 72.9114 38.8738ZM51.0414 37.9838C51.0414 37.8338 51.0414 37.6838 51.0414 37.5338C50.6714 37.2738 50.2714 36.7938 49.9314 36.8338C49.5714 36.8738 49.0214 37.4038 49.0114 37.7338C49.0114 38.0538 49.5514 38.6038 49.9014 38.6538C50.2414 38.7038 50.6514 38.2238 51.0314 37.9838M96.5913 36.6238C96.4413 36.6238 96.2914 36.6238 96.1414 36.6138C95.8814 36.9838 95.4014 37.3838 95.4414 37.7238C95.4814 38.0838 96.0113 38.3938 96.3313 38.7238C96.6613 38.4038 97.2113 38.1238 97.2614 37.7638C97.3114 37.4238 96.8413 37.0138 96.6013 36.6338M120.701 38.0038C120.701 37.8638 120.701 37.7138 120.711 37.5738C120.351 37.3138 119.971 36.8238 119.631 36.8538C119.271 36.8838 118.751 37.3438 118.651 37.7038C118.491 38.3038 118.941 38.7838 119.571 38.7038C119.971 38.6538 120.321 38.2538 120.691 38.0138M14.4813 29.6838H16.3014V27.2238H14.4813V29.6838ZM18.1714 29.7038H19.9514V27.2138H18.1714V29.7038ZM23.6514 27.2738H21.8413V29.7138H23.6514V27.2738ZM31.0414 27.2438H29.2513V29.7038H31.0414V27.2438ZM21.8014 21.7738C22.3514 21.7738 22.7913 21.8238 23.2213 21.7538C23.4113 21.7138 23.6913 21.4438 23.7113 21.2538C23.7713 20.5738 23.7313 19.8938 23.7313 19.2138H21.8014V21.7738ZM29.2513 21.6938H31.0514V19.1838H29.2513V21.6938ZM36.5813 21.7138H38.4314V19.1938H36.5813V21.7138ZM36.5813 33.7738H38.4014V31.2638H36.5813V33.7738ZM23.6514 23.2338H21.8214V25.7538H23.6514V23.2338ZM31.0614 23.2338H29.2513V25.7438H31.0614V23.2338ZM38.3914 23.2338H36.5913V25.7638H38.3914V23.2338ZM38.4314 27.2838H36.5714V29.7638H38.4314V27.2838ZM34.7213 27.2838H32.8914V29.7738H34.7213V27.2838ZM32.9214 25.7438H34.7014V23.2138H32.9214V25.7438ZM14.4713 21.7238H16.2914V19.1938H14.4713V21.7238ZM18.1614 21.7438H19.9514V19.2038H18.1614V21.7438ZM34.7413 19.2138H32.9214V21.7038H34.7413V19.2138ZM14.4913 25.7538H16.3014V23.2238H14.4913V25.7538ZM18.1313 25.7538H19.9713V23.2238H18.1313V25.7538ZM27.3813 27.2638H25.5414V29.7038H27.3813V27.2638ZM25.4913 25.7438H27.3713V23.2338H25.4913V25.7438ZM25.5414 21.7038H27.3914V19.2138H25.5414V21.7038ZM132.861 33.1538C132.921 33.1738 132.981 33.1938 133.041 33.2238C133.491 32.4238 134.001 31.6538 134.391 30.8238C134.761 30.0438 135.241 29.7138 136.161 29.7538C137.971 29.8338 139.791 29.7838 141.611 29.7738C141.951 29.7738 142.281 29.7438 142.581 29.7238V28.0338H132.871V33.1438L132.861 33.1538ZM22.7714 4.60376H30.1814V1.22375H22.7714V4.60376ZM72.5414 10.6838H82.2513V4.00378H72.5414V10.6838ZM76.5314 28.0338H66.8613V34.7338H76.5314V28.0338ZM87.5114 28.0338H77.8214V34.7238H87.5114V28.0338ZM88.8413 34.7238H98.5414V28.0338H88.8413V34.7238ZM99.8613 34.7038H109.561V28.0138H99.8613V34.7038ZM71.2113 4.00378H61.5214V10.7138H71.2113V4.00378ZM83.5414 10.6838H93.2313V4.00378H83.5414V10.6838ZM131.571 28.0338H121.881V34.7238H131.571V28.0338ZM115.271 4.00378H105.591V10.7138H115.271V4.00378ZM116.581 10.6738H126.261V4.00378H116.581V10.6738ZM44.7714 34.7238H54.4613V28.0038H44.7714V34.7238ZM104.281 4.0238H94.5114V10.6838H104.281V4.0238ZM120.581 28.0338H110.861V34.7238H120.581V28.0338ZM65.5314 28.0238H55.7014C55.7014 30.1438 55.6813 32.2138 55.7413 34.2738C55.7413 34.4538 56.2414 34.7538 56.5214 34.7638C58.8214 34.8038 61.1114 34.7838 63.4114 34.7838H65.5314V28.0238ZM111.531 18.7138H121.241V12.0138H111.531V18.7138ZM110.281 11.9938H100.581V18.7038H110.281V11.9938ZM66.2113 12.0138H56.4913V18.7238H66.2113V12.0138ZM49.9514 26.7238H59.6414V20.0138H49.9514V26.7238ZM81.6814 20.0338H71.9913V26.7338H81.6814V20.0338ZM82.9813 26.7338H92.6814V20.0338H82.9813V26.7338ZM103.751 20.0138H94.0414V26.7238H103.751V20.0138ZM105.021 26.7138H114.731V20.0238H105.021V26.7138ZM88.2213 12.0138H78.5414V18.7338H88.2213V12.0138ZM136.761 20.0238H127.081V26.7538H136.761V20.0238ZM60.9913 26.7238H70.7014V20.0238H60.9913V26.7238ZM67.5214 18.7338H77.2113V11.9938H67.5214V18.7338ZM122.581 18.7238H132.321V12.0138H122.581V18.7238ZM116.041 26.7338H125.741V20.0138H116.041V26.7338ZM89.5214 18.7238H99.2413V11.9838H89.5214V18.7238ZM40.2914 35.3838H43.4414V26.8738H48.5813V18.8038H55.1414V10.7338H60.1213V2.75378H127.681V10.6938H133.691V18.7838H138.171V26.7938H144.011V29.7738H170.611C169.731 33.3938 168.461 36.6738 166.711 39.7738C166.591 39.9938 166.221 40.1638 165.951 40.1938C165.251 40.2538 164.541 40.2138 163.841 40.2138C112.391 40.2138 60.9513 40.2038 9.50134 40.2538C7.10134 40.2538 5.36138 39.3738 4.29138 37.3738C3.01138 35.0038 1.95141 32.5137 0.691406 29.8438H12.0314C12.0514 29.4037 12.0813 29.0738 12.0813 28.7338C12.0813 25.4738 12.0813 22.2138 12.0813 18.9538C12.0813 17.3438 12.3813 17.0438 13.9713 17.0438H15.2513C15.2513 16.0838 15.2713 15.2038 15.2513 14.3238C15.2313 13.5838 15.5614 13.2938 16.2914 13.3038C18.2014 13.3238 20.1213 13.3038 22.1313 13.3038V0.0637817H30.7213V13.3038C31.6713 13.3038 32.5213 13.3038 33.3713 13.3038C34.4313 13.3038 35.4814 13.3238 36.5314 13.2938C37.3314 13.2638 37.7214 13.5438 37.6614 14.4038C37.6114 15.2238 37.6514 16.0638 37.6514 17.0338C38.0414 17.0338 38.3813 17.0338 38.7113 17.0338C39.8413 17.0538 40.2814 17.4738 40.2914 18.6038C40.3114 20.6538 40.2914 22.6938 40.2914 24.7438V35.3938V35.3838Z" fill="white"/>
<path d="M7.52148 41.1437H166.031C166.031 41.1437 161.502 52.7337 151.442 52.7337H24.3314C10.2414 52.7337 7.52148 41.1437 7.52148 41.1437Z" stroke="white" stroke-width="1.15" stroke-miterlimit="10"/>
</svg>
