<svg width="111" height="83" viewBox="0 0 111 83" fill="none" xmlns="http://www.w3.org/2000/svg">
<path d="M1.58008 49.8753H14.7802C15.6302 49.8753 16.5001 49.9954 17.3301 49.8554C19.5901 49.4754 21.1801 50.3754 22.6101 52.0554C23.8701 53.5354 25.1402 55.3554 26.8202 56.0354C28.5402 56.7354 30.7501 56.2653 32.7401 56.2653C57.8601 56.2653 82.9801 56.2554 108.1 56.2454C108.47 56.2454 108.83 56.2753 109.46 56.3153C105.72 61.7253 102.1 66.9653 98.3501 72.3953C101.44 73.1853 104.4 73.9354 107.52 74.7254C106.79 76.9454 106.11 79.1154 105.32 81.2354C105.23 81.4754 104.55 81.6253 104.14 81.6253C97.5101 81.6453 90.8801 81.6453 84.2501 81.6453C59.5101 81.6453 34.7802 81.6453 10.0402 81.6453H8.34009C8.90009 80.4953 9.32013 79.4853 9.88013 78.5653C10.5101 77.5353 10.5201 76.6153 10.1301 75.4653C7.37013 67.3853 4.69011 59.2754 1.99011 51.1754C1.87011 50.8254 1.7701 50.4653 1.6001 49.8953L1.58008 49.8753Z" stroke="white" stroke-width="1.15" stroke-miterlimit="10"/>
<path d="M38.1301 51.6555C35.1901 51.6555 32.3102 51.6854 29.4402 51.6254C29.0602 51.6254 28.6302 51.2255 28.3202 50.9055C25.8202 48.4355 23.3101 45.9555 20.8601 43.4255C20.1501 42.6955 19.4402 42.3255 18.4202 42.4055C17.4102 42.4855 16.4001 42.4255 15.2201 42.4255V28.6055H8.33008V10.1455H22.1001C22.1001 8.79546 22.0501 7.57549 22.1301 6.36549C22.1501 6.00549 22.4401 5.43548 22.7301 5.35548C27.7501 3.86548 32.7902 2.43545 37.8202 1.00545C37.8902 0.985447 37.9901 1.02549 38.1501 1.04549V17.0255H33.7002V21.5855H38.1401V51.6555H38.1301Z" stroke="white" stroke-width="1.15" stroke-miterlimit="10"/>
<path d="M43.7297 51.6252C43.2697 45.9052 47.4797 39.7353 53.3097 37.4953C54.0197 37.2253 54.7497 36.8853 55.4897 36.8353C56.7897 36.7453 56.9297 36.0753 56.6097 34.9453H53.4997V30.7453H56.6497C56.6997 30.0153 56.7397 29.3953 56.7897 28.6653H60.8597C60.9097 29.2653 60.9697 29.9153 61.0297 30.6453H90.3797C90.4297 30.0053 90.4697 29.3853 90.5297 28.6653H94.5796C94.6396 29.2653 94.7097 29.9253 94.7997 30.7053H97.9596V34.8752H94.8397C94.5697 36.0052 94.5997 36.5553 95.8997 36.8353C102.35 38.2253 107.14 43.7053 107.76 50.2253C107.8 50.6753 107.76 51.1353 107.76 51.6653H77.2397C77.4997 50.1453 77.5697 48.6553 78.0097 47.2853C79.7897 41.7553 83.5596 38.2153 89.2096 36.8453C90.4196 36.5553 90.6497 36.0953 90.3397 34.9853H61.0597C60.7797 36.0453 60.9097 36.5753 62.1697 36.8453C68.5797 38.2153 73.3797 43.7252 74.0097 50.2552C74.0497 50.6752 74.0097 51.1053 74.0097 51.6353H43.7096L43.7297 51.6252Z" fill="white"/>
<path d="M25.0797 20.4253H29.1998V16.4253H25.0797V20.4253ZM18.6798 20.3953H22.7798V16.3953H18.6798V20.3953ZM12.2598 20.4253H16.3098V16.3752H12.2598V20.4253Z" stroke="white" stroke-width="1.15" stroke-miterlimit="10"/>
</svg>
