<svg width="91" height="80" viewBox="0 0 91 80" fill="none" xmlns="http://www.w3.org/2000/svg">
<path d="M42.1597 73.0844C46.3297 73.0844 49.7397 69.6844 49.7597 65.5144C49.7797 61.3244 46.3597 57.9044 42.1597 57.9044C37.9797 57.9044 34.5798 61.2844 34.5698 65.4644C34.5598 69.6644 37.9597 73.0844 42.1597 73.0844ZM19.1197 6.97441C16.7997 7.67441 14.5297 8.37438 12.2497 9.06438C9.6197 9.86438 6.98968 10.6544 4.34968 11.4444C2.90968 11.8744 1.52969 11.1844 1.10969 9.8344C0.679687 8.4444 1.41972 7.08438 2.88972 6.63438C8.48972 4.93438 14.0798 3.23443 19.6798 1.55443C21.3798 1.04443 22.5497 1.6644 23.1597 3.3344C28.3197 17.3744 33.4797 31.4244 38.6497 45.4644C39.3597 47.4044 40.0797 49.3444 40.7797 51.2844C40.8997 51.6144 41.0297 51.7344 41.3997 51.7244C47.3297 51.5544 51.6697 54.1644 54.5197 59.3244C54.6197 59.5044 54.7098 59.6844 54.8198 59.9144C55.5898 59.6144 56.3497 59.3344 57.0897 59.0344C66.6797 55.2444 76.2697 51.4444 85.8697 47.6544C87.5697 46.9844 89.0997 47.7244 89.4997 49.4044C89.7797 50.5844 89.1197 51.7644 87.8697 52.2544C84.9397 53.4244 81.9998 54.5744 79.0698 55.7344C71.5398 58.7144 63.9997 61.6944 56.4697 64.6644C56.1097 64.8044 55.9697 64.9644 55.9797 65.3744C56.0397 72.4744 50.7197 78.4444 43.6597 79.2244C36.2497 80.0444 29.4897 74.7744 28.4697 67.3744C27.6797 61.6744 30.4597 56.1444 35.5297 53.3944C35.9597 53.1544 36.0797 52.9644 35.8997 52.4744C30.3597 37.4544 24.8297 22.4244 19.2997 7.39439C19.2597 7.27439 19.1997 7.15441 19.1297 6.97441H19.1197Z" stroke="white" stroke-width="1.15" stroke-miterlimit="10"/>
<path d="M50.0198 33.7146C56.2598 31.3746 62.4398 29.0546 68.6998 26.7046C71.0498 32.9346 73.3797 39.1046 75.7297 45.3546C69.4797 47.7046 63.2898 50.0346 57.0398 52.3846C54.6898 46.1446 52.3598 39.9546 50.0098 33.7146" fill="white"/>
<path d="M56.7007 10.3345C58.4007 14.8545 60.0907 19.3245 61.8007 23.8845C57.2907 25.5845 52.8006 27.2645 48.2406 28.9845C46.5306 24.4545 44.8406 19.9744 43.1406 15.4344C47.6806 13.7244 52.1707 12.0445 56.7007 10.3345Z" fill="white"/>
<path d="M44.6302 65.5144C44.6302 66.8844 43.5402 67.9944 42.1702 68.0044C40.8002 68.0144 39.6502 66.8544 39.6602 65.4944C39.6802 64.1444 40.8002 63.0344 42.1602 63.0344C43.5202 63.0344 44.6302 64.1444 44.6302 65.5144Z" stroke="white" stroke-width="1.15" stroke-miterlimit="10"/>
</svg>
