<svg width="117" height="75" viewBox="0 0 117 75" fill="none" xmlns="http://www.w3.org/2000/svg">
<path d="M29.8413 50.0919H26.0213C22.6213 50.0919 19.2313 50.0919 15.8313 50.0919C13.3913 50.0919 12.0413 48.8519 11.6713 46.4719C10.7013 40.1219 9.71134 33.7719 8.67134 27.4319C8.03134 23.5219 11.0713 19.4419 15.0113 19.0119C17.8413 18.7019 20.4414 19.0619 22.4414 21.3919C23.6314 22.7719 24.1113 24.3819 24.2313 26.1719C24.5913 31.4119 24.9813 36.6519 25.3713 41.8819C25.3813 42.0719 25.4213 42.2619 25.4713 42.5819C27.5813 42.5819 29.6613 42.5819 31.7513 42.5819C34.9113 42.5919 36.0513 43.5619 36.6113 46.6919C37.9613 54.1819 39.3113 61.6619 40.6513 69.1519C41.0213 71.2219 39.7514 73.1619 37.8214 73.5319C35.8914 73.9019 33.9013 72.5819 33.5113 70.5419C32.7613 66.5919 32.0813 62.6319 31.3713 58.6719C30.8713 55.8819 30.3713 53.0819 29.8413 50.0919Z" stroke="white" stroke-width="1.15" stroke-miterlimit="10"/>
<path d="M100.99 42.5818C103.12 42.5818 105.2 42.5818 107.29 42.5818C110.37 42.5818 111.57 43.6118 112.12 46.6118C113.43 53.7818 114.78 60.9518 116.04 68.1318C116.22 69.1318 116.13 70.2818 115.81 71.2518C115.32 72.7518 113.74 73.6818 112.43 73.5518C110.69 73.3918 109.37 72.3018 109.04 70.5718C108.29 66.6618 107.61 62.7418 106.9 58.8218C106.39 55.9518 105.88 53.0919 105.36 50.1619C104.96 50.1419 104.62 50.1019 104.27 50.1019C99.92 50.1019 95.5799 50.1018 91.2299 50.0918C88.9499 50.0918 87.55 48.8218 87.2 46.5918C86.22 40.2418 85.24 33.8819 84.2 27.5419C83.52 23.4119 86.59 19.4519 90.77 18.9719C96.31 18.3419 99.28 21.7019 99.7 25.4719C99.86 26.8819 99.8999 28.3119 99.9899 29.7319C100.25 33.4819 100.5 37.2218 100.77 40.9618C100.81 41.4618 100.91 41.9618 101 42.5718L100.99 42.5818Z" stroke="white" stroke-width="1.15" stroke-miterlimit="10"/>
<path d="M63.1399 42.5818C65.3699 42.5818 67.4999 42.5818 69.6299 42.5818C72.5599 42.5918 73.8199 43.7418 74.3399 46.6418C75.6299 53.9418 76.9799 61.2318 78.2499 68.5318C78.3999 69.3918 78.4 70.3718 78.16 71.2018C77.72 72.7318 76.1999 73.6618 74.7099 73.5618C72.9499 73.4418 71.6099 72.4218 71.2499 70.6818C70.5599 67.2818 69.9799 63.8618 69.3699 60.4418C68.7999 57.2618 68.22 54.0818 67.7 50.8818C67.57 50.1118 67.14 50.0818 66.54 50.0918C62.23 50.1018 57.9299 50.0918 53.6199 50.0918C51.1199 50.0918 49.81 49.0118 49.41 46.5618C48.39 40.2518 47.38 33.9418 46.4 27.6318C45.69 23.0918 48.87 19.2818 53.45 18.9318C58.75 18.5318 61.2799 21.9318 61.7299 24.6918C62.0099 26.4018 62.0799 28.1518 62.2099 29.8818C62.4799 33.7018 62.7199 37.5318 62.9699 41.3518C62.9899 41.7018 63.0599 42.0518 63.1399 42.5818Z" stroke="white" stroke-width="1.15" stroke-miterlimit="10"/>
<path d="M19.2905 57.7318C17.0805 57.7318 14.8505 57.9318 12.6605 57.6918C8.19052 57.2018 4.56047 53.5718 3.86047 49.1518C2.82047 42.5618 1.81053 35.9718 0.790528 29.3818C0.780528 29.3018 0.770499 29.2218 0.760499 29.1418C0.520499 27.0618 1.23054 25.8318 2.80054 25.6118C4.43054 25.3918 5.40047 26.4218 5.73047 28.5518C6.75047 35.1018 7.78047 41.6518 8.86047 48.1818C9.36047 51.1918 11.5306 52.9418 14.5706 52.9518C17.9306 52.9518 21.2905 52.9518 24.6505 52.9518C26.3405 52.9518 27.3104 53.7918 27.3304 55.2518C27.3504 56.8118 26.3005 57.8518 24.6105 57.8818C22.8305 57.9118 21.0505 57.8818 19.2705 57.8818C19.2705 57.8218 19.2705 57.7618 19.2705 57.7118" fill="white"/>
<path d="M94.7908 57.7518C92.6608 57.7518 90.5008 57.9618 88.4008 57.7118C83.6008 57.1418 80.0707 53.4018 79.3607 48.5618C78.4007 42.0018 77.3607 35.4518 76.3407 28.9018C76.0907 27.2718 76.8808 25.8918 78.3008 25.6318C79.8608 25.3418 80.9608 26.2518 81.2408 28.0918C82.2708 34.7218 83.3008 41.3518 84.3108 47.9818C84.7808 51.0718 86.9407 52.9518 90.0907 52.9618C93.4507 52.9618 96.8108 52.9618 100.181 52.9618C101.841 52.9618 102.941 53.9318 102.971 55.3718C103.001 56.7918 101.871 57.8618 100.251 57.8918C98.4308 57.9218 96.6108 57.8918 94.7908 57.8918V57.7418" fill="white"/>
<path d="M57.0001 57.7319C54.8301 57.7319 52.6401 57.9319 50.4901 57.6919C45.8801 57.1719 42.2901 53.4219 41.6001 48.8119C40.6201 42.2519 39.5701 35.7119 38.5901 29.1619C38.5001 28.5519 38.4901 27.8819 38.6501 27.2919C38.9501 26.1519 40.0202 25.5019 41.1902 25.5919C42.3302 25.6819 43.2302 26.5419 43.4502 27.8319C43.8002 29.9719 44.1102 32.1219 44.4402 34.2619C45.1602 38.9819 45.8501 43.7019 46.6201 48.4119C47.0601 51.1119 49.2801 52.9219 52.0501 52.9419C55.4901 52.9619 58.9301 52.9419 62.3701 52.9419C64.0801 52.9419 65.1101 53.8419 65.1401 55.3419C65.1701 56.8619 64.0801 57.8619 62.3501 57.8819C60.5701 57.9019 58.7901 57.8819 57.0101 57.8819C57.0101 57.8219 57.0101 57.7719 57.0101 57.7119" fill="white"/>
<path d="M91.9809 0.691772C96.5009 0.691772 100.021 4.21176 100.011 8.74176C100.011 13.2118 96.3609 16.8518 91.9409 16.8018C87.5709 16.7518 83.9509 13.1318 83.9009 8.76178C83.8509 4.35178 87.5109 0.701772 91.9809 0.691772Z" stroke="white" stroke-width="1.15" stroke-miterlimit="10"/>
<path d="M54.1296 0.691794C58.6296 0.681794 62.2196 4.21183 62.2296 8.66183C62.2396 13.1118 58.6696 16.7518 54.2396 16.8018C49.8696 16.8518 46.1396 13.1618 46.1096 8.77181C46.0796 4.33181 49.6796 0.701794 54.1296 0.691794Z" stroke="white" stroke-width="1.15" stroke-miterlimit="10"/>
<path d="M16.5599 0.691857C21.0799 0.731857 24.5599 4.28185 24.5199 8.81185C24.4799 13.2219 20.8799 16.8118 16.4999 16.8018C12.0999 16.8018 8.41992 13.1019 8.41992 8.69186C8.41992 4.27186 12.0999 0.651857 16.5599 0.691857Z" stroke="white" stroke-width="1.15" stroke-miterlimit="10"/>
</svg>
