<svg width="146" height="67" viewBox="0 0 146 67" fill="none" xmlns="http://www.w3.org/2000/svg">
<path d="M73.96 66.01C74.09 66.01 74.22 66 74.3 65.99C73.89 65.82 73.45 65.64 72.94 65.44C73.29 64.96 73.53 64.56 73.84 64.22C74.34 63.67 74.83 63.07 75.44 62.67C76.17 62.18 76.58 61.59 76.66 60.75C76.86 58.52 76.77 56.29 76.46 54.07C76.33 53.16 76.09 52.29 75.46 51.57C75.27 51.35 75.17 51.03 75.08 50.74C74.82 49.94 74.36 49.26 73.87 48.55C73.38 49.09 73.08 49.63 73.15 50.33C73.18 50.66 73.15 51.01 73.12 51.34C73.05 52.01 72.76 52.41 72.32 52.47C71.88 52.53 71.56 52.28 71.29 51.61C71.1 51.13 70.95 50.64 70.76 50.17C70.71 50.05 70.59 49.91 70.48 49.89C70.06 49.8 69.64 49.74 69.21 49.7C68.44 49.63 68.24 49.83 68.15 50.58C68.09 51.06 68.02 51.55 67.84 51.99C67.75 52.2 67.4 52.42 67.17 52.43C66.94 52.43 66.67 52.21 66.47 52.02C66.35 51.9 66.3 51.68 66.27 51.49C66.18 50.9 66.11 50.3 66.05 49.7C66.01 49.32 65.82 49.06 65.46 48.95C64.44 48.65 63.72 47.95 63.03 47.18C62.63 46.73 62.18 46.32 61.71 45.95C61.06 45.43 60.32 45.34 59.54 45.61C59.22 45.72 58.9 45.85 58.57 45.92C55.8 46.52 53.05 46.29 50.33 45.61C49.29 45.35 48.27 45.04 47.25 44.76C46.81 46.17 46.41 47.51 45.97 48.85C45.77 49.46 45.68 50.06 45.76 50.71C45.81 51.11 45.76 51.53 45.72 51.94C45.65 52.52 45.5 53.1 45.44 53.68C45.18 56.32 45.49 58.92 45.91 61.53C46 62.08 46.07 62.63 46.07 63.18C46.07 63.58 45.79 63.67 45.46 63.45C44.8 63.02 44.8 63.02 44.45 63.76C44.3 64.08 44.16 64.41 43.95 64.69C43.76 64.96 43.53 65.26 43.25 65.4C41.94 66.04 40.57 66.08 39.22 65.52C38.57 65.25 38.47 64.75 38.99 64.28C39.57 63.75 40.21 63.26 40.89 62.86C41.59 62.44 42.11 61.92 42.26 61.12C42.44 60.17 42.62 59.21 42.67 58.25C42.74 56.84 42.69 55.43 42.69 54.02C42.69 53.93 42.64 53.83 42.61 53.74C42.37 53.1 42.04 52.48 41.91 51.82C41.72 50.89 41.53 49.97 40.99 49.18C40.13 47.92 39.21 46.7 38.31 45.46C38.29 45.44 38.23 45.45 38.21 45.45C38.11 46.37 38.01 47.27 37.91 48.18C37.82 49.05 37.73 49.92 37.66 50.8C37.63 51.21 37.69 51.63 37.61 52.03C37.29 53.59 37.11 55.16 37.28 56.76C37.47 58.45 37.68 60.14 37.88 61.83C37.93 62.25 37.98 62.68 37.98 63.1C37.98 63.25 37.89 63.48 37.77 63.54C37.66 63.6 37.43 63.52 37.3 63.43C36.7 63.01 36.71 63 36.38 63.69C36.22 64.03 36.07 64.39 35.85 64.7C35.66 64.97 35.44 65.28 35.15 65.42C33.82 66.07 32.45 66.12 31.09 65.54C30.45 65.27 30.35 64.81 30.86 64.33C31.41 63.81 32.01 63.31 32.68 62.95C33.58 62.46 34.07 61.76 34.26 60.8C34.6 59.09 34.67 57.36 34.58 55.62C34.55 55.11 34.59 54.6 34.59 54.08C34.59 53.98 34.57 53.88 34.53 53.79C34.29 53.18 33.92 52.6 33.83 51.97C33.61 50.5 33.03 49.21 32.15 48.04C30.88 46.36 29.61 44.68 28.27 43.06C26.75 41.21 25.42 39.28 24.79 36.94C24.36 35.38 23.68 33.94 22.76 32.61C21.46 30.74 20.17 28.86 18.87 26.99C18.26 26.11 17.63 25.23 17 24.37C16.7 23.96 16.35 23.6 15.78 23.58C15.31 23.57 14.84 23.56 14.37 23.57C13.34 23.6 12.31 23.64 11.28 23.69C10.38 23.73 9.48998 23.77 8.59998 23.83C8.12998 23.86 7.66 23.92 7.19 23.98C6.87 24.02 6.53999 24.04 6.23999 24.14C4.97999 24.54 3.71998 24.74 2.41998 24.29C1.90998 24.11 1.55999 23.81 1.42999 23.27C1.30999 22.74 1.15 22.23 1 21.71V21.09C1.29 20.79 1.54001 20.42 1.89001 20.2C4.03001 18.82 5.57 16.92 6.87 14.78C7.21 14.22 7.38001 13.6 7.39001 12.97C7.35001 12.94 7.34002 12.92 7.33002 12.92C7.21002 12.91 7.09998 12.9 6.97998 12.89C5.61998 12.75 4.49 12.22 3.69 11.06C3.55 10.85 3.55001 10.72 3.76001 10.54C4.50001 9.90001 5.37002 9.55001 6.33002 9.70001C7.28002 9.85001 8.22002 10.15 9.15002 10.4C9.83002 10.58 9.80001 10.59 10.14 10C10.44 9.48 10.72 8.90002 11.15 8.52002C11.7 8.03002 11.73 7.47001 11.68 6.85001C11.62 6.02001 11.27 5.3 10.8 4.62C10.68 4.45 10.55 4.27001 10.4 4.07001C10.49 4.07001 10.53 4.07 10.57 4.09C12 4.79 13.05 5.81001 13.48 7.39001C13.52 7.52001 13.67 7.72001 13.78 7.73001C14.6 7.80001 15.32 8.11999 16.03 8.48999C16.16 8.55999 16.41 8.55 16.54 8.47C17.35 7.96 17.85 7.22 18.12 6.31C18.44 5.21 18.32 4.1 18.1 3C19.92 5.26 20.37 7.65 18.65 10.28C19.95 11.02 21.13 11.89 22.47 12.41C25.24 13.49 28.07 14.41 30.9 15.35C32.01 15.72 33.17 15.88 34.35 15.78C35.25 15.7 36.15 15.61 37.05 15.63C38.97 15.68 40.88 15.77 42.8 15.88C44.79 15.99 46.78 16.18 48.77 16.26C52.51 16.41 56.24 16.56 59.98 16.59C62.15 16.6 64.31 16.33 66.48 16.26C68.89 16.18 71.3 16.19 73.7 16.17C75.75 16.15 77.81 16.14 79.86 16.17C81.22 16.19 82.53 16.44 83.76 17.06C86.57 18.47 87.91 20.9 88.07 23.88C88.22 26.57 88.01 29.28 87.97 31.98C87.95 33.49 87.77 35.03 88.02 36.5C88.42 38.86 89.12 41.16 89.7 43.49V44.72C89.67 44.8 89.63 44.88 89.62 44.97C89.4 46.34 89 47.66 88.43 48.92C88.26 49.3 88.03 49.65 87.87 49.93C87.57 48.76 87.26 47.59 86.97 46.42C86.77 45.61 86.47 44.8 86.44 43.98C86.36 41.66 86.35 39.34 86.39 37.02C86.44 33.79 86.55 30.56 86.22 27.33C86.13 26.46 85.91 25.6 85.75 24.74L85.61 24.76C85.53 25.69 85.47 26.62 85.36 27.55C84.94 31.47 84.03 35.26 82.37 38.86C82.3 39.01 82.28 39.2 82.32 39.36C82.62 40.69 82.89 42.03 83.25 43.34C83.53 44.35 83.81 45.41 84.33 46.3C85.18 47.74 85.51 49.25 85.3 50.85C85.19 51.73 85.15 52.59 85.25 53.46C85.51 55.72 85.68 57.99 86.48 60.15C86.75 60.88 86.48 61.57 86.37 62.27C86.35 62.41 86.15 62.54 86 62.61C85.95 62.63 85.79 62.46 85.7 62.35C85.62 62.25 85.55 62.14 85.49 62.04C84.98 62.23 84.87 62.61 84.81 63.08C84.74 63.67 84.6 64.26 84.43 64.84C84.3 65.3 83.96 65.61 83.46 65.7C82.93 65.8 82.41 65.91 81.77 66.04M79.51 48.3C79.51 49.19 79.53 50.11 79.51 51.02C79.5 51.45 79.32 51.9 79.37 52.32C79.66 55.04 79.9 57.78 80.74 60.42C80.92 60.98 80.66 61.68 80.56 62.31C80.54 62.44 80.32 62.53 80.16 62.67C79.99 62.42 79.86 62.22 79.71 62C79.31 62.22 79.08 62.46 79.05 62.95C79 63.58 78.82 64.21 78.64 64.83C78.51 65.28 78.18 65.57 77.7 65.66C77.18 65.76 76.66 65.87 76.07 66H80.22C79.87 65.88 79.57 65.81 79.29 65.69C78.81 65.49 78.79 65.41 79.08 64.99C79.22 64.78 79.36 64.57 79.52 64.39C80.02 63.84 80.45 63.15 81.07 62.79C82.1 62.19 82.53 61.36 82.52 60.27C82.49 58.38 82.45 56.49 82.34 54.6C82.27 53.5 82.04 52.42 81.26 51.54C81.12 51.38 81.03 51.16 80.97 50.95C80.69 49.94 80.08 49.11 79.53 48.31L79.51 48.3Z" stroke="white" stroke-width="1.15" stroke-miterlimit="10"/>
<mask id="path-2-inside-1_402_18669" fill="white">
<path d="M116.45 57.9C116.35 58.82 116.13 59.58 116.21 60.31C116.4 61.91 115.78 63.29 115.23 64.69C114.91 65.49 112.83 65.78 112.3 65.12C112.2 64.99 112.16 64.69 112.24 64.55C112.57 64 112.9 63.44 113.33 62.97C114.78 61.38 115.09 59.58 114.54 57.55C114.41 57.06 114.38 56.54 114.32 56.02C114.24 55.29 114.21 54.55 114.1 53.83C113.98 53.04 113.6 52.5 112.8 52.11C111.09 51.28 109.96 49.79 109 48.2C108.82 47.9 108.71 47.52 108.66 47.16C108.36 44.78 107.41 42.63 106.44 40.5C105.39 40.71 105.26 40.58 105.44 39.52C105.66 38.23 104.68 37.34 103.45 37.74C102.35 38.1 101.28 38.56 100.17 38.9C99.5796 39.08 98.9496 39.13 98.4796 38.44C98.7796 38.1 99.0796 37.74 99.4996 37.27C99.0896 37.31 98.8596 37.31 98.6296 37.35C97.5296 37.54 97.1996 37.26 97.5496 36.19C97.7696 35.53 98.2196 34.85 98.7596 34.43C99.7696 33.64 100.5 32.72 100.86 31.5C101.12 30.62 101.61 29.96 102.63 29.77C102.49 29.05 102.36 28.36 102.17 27.4C102.78 27.77 103.13 27.98 103.48 28.19C104.25 26.51 108.01 24.57 110.13 24.82C109.19 25.17 108.32 25.49 107.45 25.81C107.46 25.85 107.47 25.89 107.49 25.92C108.71 25.82 109.92 25.72 111.14 25.62C111.15 25.73 111.16 25.85 111.17 25.96C110.86 25.98 110.55 26 110.24 26.03C108.36 26.2 106.75 26.98 105.46 28.33C104.75 29.08 104.89 29.34 105.61 30.07C106.39 30.86 106.99 31.84 107.73 32.67C109.25 34.37 110.32 36.48 112.36 37.72C113.48 38.4 114.66 38.52 115.91 38.35C118.17 38.05 120.41 38.19 122.55 38.94C124.29 39.55 125.95 38.96 127.65 38.87C128.35 38.84 129.06 38.83 129.75 38.91C131.45 39.12 133.16 39.31 134.84 39.67C135.65 39.84 136.37 40.38 137.15 40.73C138.82 41.48 140.46 42.3 142.18 42.93C143.2 43.3 143.6 42.91 144.13 41.93C144.57 41.11 145.17 40.38 145.69 39.61C145.79 39.67 145.89 39.73 145.99 39.79C145.91 40.09 145.78 40.38 145.77 40.68C145.73 41.45 145.99 42.18 145.45 42.98C144.99 43.66 145.18 43.77 144.19 44.13C143.84 44.25 143.56 44.55 143.16 44.82C143.16 44.8 143.26 45.01 143.42 45.32C143.12 45.24 142.92 45.19 142.7 45.14C142.75 45.48 142.8 45.77 142.85 46.1C142.21 45.86 141.65 45.65 141.12 45.45C141.12 45.77 141.15 46.15 141.12 46.53C140.97 48.31 140.6 50.11 140.71 51.87C140.8 53.3 141.71 54.54 142.73 55.61C143.06 55.96 143.31 56.46 143.42 56.93C143.88 58.91 144.27 60.91 144.69 62.91C144.72 63.05 144.77 63.19 144.85 63.44C143.97 63.22 143.9 63.74 143.92 64.33C143.92 64.42 143.92 64.51 143.93 64.61C143.95 66.13 143.12 66.75 141.63 66.33C140.4 65.99 140.38 65.95 141.09 64.82C141.82 63.65 142.18 62.37 142.22 61.01C142.23 60.67 142.06 60.31 141.94 59.97C141.3 58.26 140.17 56.92 138.62 55.81C138.08 57.46 137.6 59.13 137.76 60.92C137.8 61.41 137.86 61.9 137.85 62.39C137.85 62.62 137.72 63.03 137.63 63.04C136.42 63.11 136.65 64.17 136.45 64.83C136.07 66.09 135.05 66.48 133.94 65.67C133.74 65.53 133.51 65.43 133.24 65.29C133.68 63.15 135.78 61.62 135.75 59.01C135.23 59.71 134.82 60.26 134.34 60.92C134.11 60.51 133.9 60.15 133.7 59.79C133.58 59.96 133.44 60.18 133.1 60.68C132.57 58.38 130.87 56.77 131.21 54.33C128.81 54.93 126.55 54.52 124.35 53.85C123.1 53.47 121.89 52.93 120.68 52.41C119.78 52.02 119.45 52.21 119.38 53.18C119.31 54.15 119.16 55.12 119.06 56.09C119.03 56.36 118.94 56.69 119.06 56.91C119.53 57.81 119.11 58.68 119.09 59.57C119.05 60.99 119.23 62.41 119.33 63.9C118.91 63.92 118.59 64.08 118.57 64.85C118.55 65.49 118.11 66.18 117.7 66.73C117.53 66.97 116.94 67.01 116.57 66.96C116.11 66.9 115.68 66.66 115.24 66.49C115.43 66.13 115.58 65.74 115.81 65.41C116.43 64.52 117.48 63.97 117.51 62.64C117.54 61.23 117.25 59.08 116.5 57.86"/>
</mask>
<path d="M116.45 57.9C116.35 58.82 116.13 59.58 116.21 60.31C116.4 61.91 115.78 63.29 115.23 64.69C114.91 65.49 112.83 65.78 112.3 65.12C112.2 64.99 112.16 64.69 112.24 64.55C112.57 64 112.9 63.44 113.33 62.97C114.78 61.38 115.09 59.58 114.54 57.55C114.41 57.06 114.38 56.54 114.32 56.02C114.24 55.29 114.21 54.55 114.1 53.83C113.98 53.04 113.6 52.5 112.8 52.11C111.09 51.28 109.96 49.79 109 48.2C108.82 47.9 108.71 47.52 108.66 47.16C108.36 44.78 107.41 42.63 106.44 40.5C105.39 40.71 105.26 40.58 105.44 39.52C105.66 38.23 104.68 37.34 103.45 37.74C102.35 38.1 101.28 38.56 100.17 38.9C99.5796 39.08 98.9496 39.13 98.4796 38.44C98.7796 38.1 99.0796 37.74 99.4996 37.27C99.0896 37.31 98.8596 37.31 98.6296 37.35C97.5296 37.54 97.1996 37.26 97.5496 36.19C97.7696 35.53 98.2196 34.85 98.7596 34.43C99.7696 33.64 100.5 32.72 100.86 31.5C101.12 30.62 101.61 29.96 102.63 29.77C102.49 29.05 102.36 28.36 102.17 27.4C102.78 27.77 103.13 27.98 103.48 28.19C104.25 26.51 108.01 24.57 110.13 24.82C109.19 25.17 108.32 25.49 107.45 25.81C107.46 25.85 107.47 25.89 107.49 25.92C108.71 25.82 109.92 25.72 111.14 25.62C111.15 25.73 111.16 25.85 111.17 25.96C110.86 25.98 110.55 26 110.24 26.03C108.36 26.2 106.75 26.98 105.46 28.33C104.75 29.08 104.89 29.34 105.61 30.07C106.39 30.86 106.99 31.84 107.73 32.67C109.25 34.37 110.32 36.48 112.36 37.72C113.48 38.4 114.66 38.52 115.91 38.35C118.17 38.05 120.41 38.19 122.55 38.94C124.29 39.55 125.95 38.96 127.65 38.87C128.35 38.84 129.06 38.83 129.75 38.91C131.45 39.12 133.16 39.31 134.84 39.67C135.65 39.84 136.37 40.38 137.15 40.73C138.82 41.48 140.46 42.3 142.18 42.93C143.2 43.3 143.6 42.91 144.13 41.93C144.57 41.11 145.17 40.38 145.69 39.61C145.79 39.67 145.89 39.73 145.99 39.79C145.91 40.09 145.78 40.38 145.77 40.68C145.73 41.45 145.99 42.18 145.45 42.98C144.99 43.66 145.18 43.77 144.19 44.13C143.84 44.25 143.56 44.55 143.16 44.82C143.16 44.8 143.26 45.01 143.42 45.32C143.12 45.24 142.92 45.19 142.7 45.14C142.75 45.48 142.8 45.77 142.85 46.1C142.21 45.86 141.65 45.65 141.12 45.45C141.12 45.77 141.15 46.15 141.12 46.53C140.97 48.31 140.6 50.11 140.71 51.87C140.8 53.3 141.71 54.54 142.73 55.61C143.06 55.96 143.31 56.46 143.42 56.93C143.88 58.91 144.27 60.91 144.69 62.91C144.72 63.05 144.77 63.19 144.85 63.44C143.97 63.22 143.9 63.74 143.92 64.33C143.92 64.42 143.92 64.51 143.93 64.61C143.95 66.13 143.12 66.75 141.63 66.33C140.4 65.99 140.38 65.95 141.09 64.82C141.82 63.65 142.18 62.37 142.22 61.01C142.23 60.67 142.06 60.31 141.94 59.97C141.3 58.26 140.17 56.92 138.62 55.81C138.08 57.46 137.6 59.13 137.76 60.92C137.8 61.41 137.86 61.9 137.85 62.39C137.85 62.62 137.72 63.03 137.63 63.04C136.42 63.11 136.65 64.17 136.45 64.83C136.07 66.09 135.05 66.48 133.94 65.67C133.74 65.53 133.51 65.43 133.24 65.29C133.68 63.15 135.78 61.62 135.75 59.01C135.23 59.71 134.82 60.26 134.34 60.92C134.11 60.51 133.9 60.15 133.7 59.79C133.58 59.96 133.44 60.18 133.1 60.68C132.57 58.38 130.87 56.77 131.21 54.33C128.81 54.93 126.55 54.52 124.35 53.85C123.1 53.47 121.89 52.93 120.68 52.41C119.78 52.02 119.45 52.21 119.38 53.18C119.31 54.15 119.16 55.12 119.06 56.09C119.03 56.36 118.94 56.69 119.06 56.91C119.53 57.81 119.11 58.68 119.09 59.57C119.05 60.99 119.23 62.41 119.33 63.9C118.91 63.92 118.59 64.08 118.57 64.85C118.55 65.49 118.11 66.18 117.7 66.73C117.53 66.97 116.94 67.01 116.57 66.96C116.11 66.9 115.68 66.66 115.24 66.49C115.43 66.13 115.58 65.74 115.81 65.41C116.43 64.52 117.48 63.97 117.51 62.64C117.54 61.23 117.25 59.08 116.5 57.86" fill="white"/>
<path d="M116.21 60.31L115.216 60.4189L115.217 60.4279L116.21 60.31ZM115.23 64.69L116.158 65.0614L116.16 65.0557L115.23 64.69ZM112.3 65.12L111.507 65.7297L111.513 65.738L111.52 65.7461L112.3 65.12ZM112.24 64.55L111.382 64.0355L111.377 64.0446L111.371 64.0539L112.24 64.55ZM113.33 62.97L114.067 63.645L114.069 63.6438L113.33 62.97ZM114.54 57.55L113.573 57.8065L113.574 57.8115L114.54 57.55ZM114.32 56.02L113.326 56.129L113.326 56.1346L114.32 56.02ZM114.1 53.83L113.111 53.9802L113.111 53.981L114.1 53.83ZM112.8 52.11L113.238 51.2111L113.236 51.2104L112.8 52.11ZM109 48.2L108.142 48.7145L108.144 48.7169L109 48.2ZM108.66 47.16L107.667 47.2851L107.669 47.2976L108.66 47.16ZM106.44 40.5L107.35 40.0856L107.021 39.3639L106.244 39.5194L106.44 40.5ZM105.44 39.52L104.454 39.3519L104.454 39.3526L105.44 39.52ZM103.45 37.74L103.14 36.789L103.139 36.7896L103.45 37.74ZM100.17 38.9L100.461 39.8565L100.462 39.8561L100.17 38.9ZM98.4796 38.44L97.7298 37.7784L97.2158 38.3609L97.6531 39.003L98.4796 38.44ZM99.4996 37.27L100.245 37.9364L101.952 36.026L99.4025 36.2747L99.4996 37.27ZM98.6296 37.35L98.7999 38.3354L98.801 38.3352L98.6296 37.35ZM97.5496 36.19L96.6009 35.8738L96.5992 35.8791L97.5496 36.19ZM98.7596 34.43L99.3736 35.2193L99.3757 35.2177L98.7596 34.43ZM100.86 31.5L99.9006 31.2167L99.9005 31.217L100.86 31.5ZM102.63 29.77L102.813 30.7531L103.804 30.5685L103.611 29.5792L102.63 29.77ZM102.17 27.4L102.688 26.545L100.748 25.3682L101.189 27.5941L102.17 27.4ZM103.48 28.19L102.965 29.0475L103.923 29.6223L104.389 28.6067L103.48 28.19ZM110.13 24.82L110.479 25.7572L110.247 23.8269L110.13 24.82ZM107.45 25.81L107.104 24.8715L106.262 25.1814L106.48 26.0525L107.45 25.81ZM107.49 25.92L106.658 26.4747L106.984 26.9648L107.571 26.9167L107.49 25.92ZM111.14 25.62L112.136 25.5295L112.046 24.5424L111.058 24.6233L111.14 25.62ZM111.17 25.96L111.234 26.9579L112.258 26.8918L112.166 25.8695L111.17 25.96ZM110.24 26.03L110.33 27.026L110.336 27.0254L110.24 26.03ZM105.46 28.33L104.737 27.6392L104.733 27.6425L105.46 28.33ZM105.61 30.07L104.898 30.7722L104.898 30.7726L105.61 30.07ZM107.73 32.67L106.983 33.3355L106.984 33.3366L107.73 32.67ZM112.36 37.72L111.84 38.5745L111.841 38.5748L112.36 37.72ZM115.91 38.35L115.778 37.3587L115.775 37.3591L115.91 38.35ZM122.55 38.94L122.88 37.9963L122.88 37.9963L122.55 38.94ZM127.65 38.87L127.607 37.8709L127.597 37.8714L127.65 38.87ZM129.75 38.91L129.872 37.9175L129.865 37.9167L129.75 38.91ZM134.84 39.67L134.63 40.6478L134.634 40.6487L134.84 39.67ZM137.15 40.73L137.559 39.8178L137.559 39.8177L137.15 40.73ZM142.18 42.93L141.836 43.869L141.839 43.8701L142.18 42.93ZM144.13 41.93L145.009 42.4057L145.011 42.4028L144.13 41.93ZM145.69 39.61L146.204 38.7525L145.391 38.2649L144.861 39.0504L145.69 39.61ZM145.99 39.79L146.956 40.0477L147.15 39.32L146.504 38.9325L145.99 39.79ZM145.77 40.68L146.768 40.7319L146.769 40.7226L146.769 40.7133L145.77 40.68ZM145.45 42.98L146.278 43.5403L146.278 43.5395L145.45 42.98ZM144.19 44.13L144.514 45.076L144.523 45.073L144.531 45.0698L144.19 44.13ZM143.16 44.82H142.16V46.7015L143.719 45.6489L143.16 44.82ZM143.42 45.32L143.162 46.2862L145.344 46.8681L144.308 44.8614L143.42 45.32ZM142.7 45.14L142.921 44.1649L141.498 43.8414L141.71 45.2855L142.7 45.14ZM142.85 46.1L142.498 47.0363L144.094 47.6345L143.838 45.9502L142.85 46.1ZM141.12 45.45L141.473 44.5144L140.12 44.0038V45.45H141.12ZM141.12 46.53L142.116 46.614L142.117 46.6087L141.12 46.53ZM140.71 51.87L139.712 51.9324L139.712 51.9328L140.71 51.87ZM142.73 55.61L143.457 54.924L143.453 54.92L142.73 55.61ZM143.42 56.93L144.394 56.7037L144.393 56.7021L143.42 56.93ZM144.69 62.91L143.711 63.1155L143.712 63.1195L144.69 62.91ZM144.85 63.44L144.607 64.4101L146.349 64.8457L145.802 63.1352L144.85 63.44ZM143.92 64.33H144.92V64.3131L144.919 64.2961L143.92 64.33ZM143.93 64.61L144.93 64.5969L144.929 64.5536L144.925 64.5105L143.93 64.61ZM141.63 66.33L141.901 65.3675L141.896 65.3662L141.63 66.33ZM141.09 64.82L141.936 65.352L141.938 65.3494L141.09 64.82ZM141.94 59.97L142.883 59.6372L142.879 59.6283L142.876 59.6195L141.94 59.97ZM138.62 55.81L139.202 54.997L138.093 54.2031L137.669 55.499L138.62 55.81ZM137.76 60.92L138.756 60.8387L138.756 60.831L137.76 60.92ZM137.85 62.39L136.85 62.3696L136.85 62.3798V62.39H137.85ZM137.63 63.04L137.687 64.0383L137.714 64.0368L137.74 64.0339L137.63 63.04ZM136.45 64.83L135.493 64.54L135.492 64.5413L136.45 64.83ZM133.94 65.67L134.529 64.8622L134.521 64.8564L134.513 64.8508L133.94 65.67ZM133.24 65.29L132.26 65.0886L132.108 65.8296L132.779 66.1778L133.24 65.29ZM135.75 59.01L136.75 58.9985L136.715 56.0329L134.947 58.4137L135.75 59.01ZM134.34 60.92L133.467 61.4093L134.231 62.7699L135.148 61.5082L134.34 60.92ZM133.7 59.79L134.574 59.3044L133.801 57.9128L132.883 59.2133L133.7 59.79ZM133.1 60.68L132.125 60.9045L132.639 63.1354L133.927 61.2423L133.1 60.68ZM131.21 54.33L132.2 54.468L132.405 53.0005L130.967 53.3599L131.21 54.33ZM124.35 53.85L124.641 52.8934L124.64 52.8932L124.35 53.85ZM120.68 52.41L120.282 53.3276L120.285 53.3288L120.68 52.41ZM119.06 56.09L120.054 56.2004L120.054 56.1925L119.06 56.09ZM119.06 56.91L119.946 56.4471L119.942 56.4391L119.938 56.4312L119.06 56.91ZM119.09 59.57L120.089 59.5982L120.089 59.5925L119.09 59.57ZM119.33 63.9L119.377 64.8989L120.396 64.8504L120.327 63.833L119.33 63.9ZM118.57 64.85L119.569 64.8812L119.569 64.876L118.57 64.85ZM117.7 66.73L116.898 66.1324L116.891 66.1421L116.884 66.152L117.7 66.73ZM116.57 66.96L116.704 65.969L116.699 65.9684L116.57 66.96ZM115.24 66.49L114.355 66.0232L113.83 67.0176L114.879 67.4228L115.24 66.49ZM115.81 65.41L116.63 65.9818L116.63 65.9816L115.81 65.41ZM117.51 62.64L118.509 62.6626L118.509 62.6613L117.51 62.64ZM115.456 57.7919C115.407 58.2338 115.339 58.5747 115.273 59.0326C115.212 59.45 115.161 59.9244 115.216 60.4189L117.204 60.2011C117.178 59.9656 117.197 59.695 117.252 59.3199C117.3 58.9853 117.392 58.4862 117.444 58.0081L115.456 57.7919ZM115.217 60.4279C115.371 61.725 114.881 62.8438 114.299 64.3244L116.16 65.0557C116.679 63.7362 117.429 62.095 117.203 60.1921L115.217 60.4279ZM114.301 64.3186C114.348 64.2015 114.399 64.2229 114.249 64.3007C114.121 64.3675 113.927 64.4302 113.701 64.4627C113.475 64.4951 113.27 64.4898 113.126 64.462C112.957 64.4292 112.999 64.3934 113.079 64.4939L111.52 65.7461C111.866 66.1766 112.366 66.3521 112.746 66.4255C113.151 66.5039 113.585 66.4999 113.986 66.4423C114.386 66.3848 114.805 66.2662 115.173 66.0743C115.521 65.8934 115.951 65.5786 116.158 65.0614L114.301 64.3186ZM113.092 64.5103C113.154 64.5906 113.177 64.655 113.183 64.6732C113.192 64.6976 113.194 64.7139 113.196 64.7246C113.197 64.7344 113.199 64.7588 113.194 64.7982C113.19 64.8294 113.176 64.9267 113.108 65.0462L111.371 64.0539C111.175 64.3977 111.187 64.7642 111.209 64.953C111.232 65.1564 111.303 65.4651 111.507 65.7297L113.092 64.5103ZM113.097 65.0645C113.441 64.4917 113.719 64.0262 114.067 63.645L112.592 62.295C112.081 62.8538 111.698 63.5083 111.382 64.0355L113.097 65.0645ZM114.069 63.6438C115.779 61.7685 116.132 59.6034 115.505 57.2885L113.574 57.8115C114.047 59.5567 113.781 60.9915 112.591 62.2962L114.069 63.6438ZM115.506 57.2936C115.401 56.8965 115.382 56.5045 115.313 55.9054L113.326 56.1346C113.377 56.5755 113.418 57.2236 113.573 57.8065L115.506 57.2936ZM115.314 55.9111C115.246 55.2909 115.2 54.4091 115.088 53.679L113.111 53.981C113.22 54.691 113.234 55.2892 113.326 56.129L115.314 55.9111ZM115.088 53.6798C115.009 53.1594 114.835 52.6639 114.507 52.2234C114.181 51.7846 113.747 51.4593 113.238 51.2111L112.361 53.0089C112.652 53.1507 112.808 53.2905 112.902 53.4166C112.995 53.5411 113.07 53.7106 113.111 53.9802L115.088 53.6798ZM113.236 51.2104C111.796 50.5115 110.791 49.2327 109.856 47.6831L108.144 48.7169C109.128 50.3473 110.383 52.0485 112.363 53.0096L113.236 51.2104ZM109.857 47.6855C109.767 47.5356 109.688 47.2961 109.65 47.0224L107.669 47.2976C107.731 47.7439 107.872 48.2644 108.142 48.7145L109.857 47.6855ZM109.652 47.0349C109.33 44.4836 108.314 42.2035 107.35 40.0856L105.53 40.9144C106.505 43.0565 107.389 45.0765 107.667 47.2851L109.652 47.0349ZM106.244 39.5194C106.122 39.5437 106.026 39.5605 105.95 39.5713C105.871 39.5822 105.828 39.5845 105.81 39.5845C105.79 39.5847 105.825 39.5817 105.89 39.6005C105.964 39.6217 106.075 39.6705 106.179 39.7729C106.283 39.8749 106.333 39.9838 106.355 40.0548C106.375 40.1178 106.373 40.1512 106.372 40.1291C106.372 40.1093 106.373 40.0652 106.382 39.9855C106.39 39.9074 106.405 39.8102 106.426 39.6874L104.454 39.3526C104.408 39.6215 104.367 39.9098 104.373 40.1706C104.378 40.4165 104.426 40.8541 104.778 41.1997C105.131 41.5472 105.572 41.5858 105.82 41.5845C106.082 41.5832 106.369 41.5339 106.636 41.4806L106.244 39.5194ZM106.425 39.6881C106.584 38.7579 106.321 37.8495 105.657 37.2526C104.987 36.6503 104.05 36.4931 103.14 36.789L103.759 38.691C104.079 38.5869 104.247 38.6747 104.32 38.7399C104.398 38.8105 104.515 38.9922 104.454 39.3519L106.425 39.6881ZM103.139 36.7896C102.565 36.9773 102 37.1908 101.464 37.3904C100.92 37.593 100.4 37.7835 99.8767 37.9438L100.462 39.8561C101.049 39.6765 101.619 39.467 102.162 39.2646C102.714 39.0592 103.234 38.8627 103.761 38.6904L103.139 36.7896ZM99.8778 37.9435C99.633 38.0182 99.5102 38.0215 99.4536 38.0115C99.4352 38.0082 99.4252 38.0039 99.4135 37.9961C99.4 37.9871 99.3611 37.9577 99.3061 37.877L97.6531 39.003C98.0284 39.5539 98.5307 39.8794 99.1056 39.981C99.6291 40.0735 100.116 39.9618 100.461 39.8565L99.8778 37.9435ZM99.2295 39.1016C99.5691 38.7167 99.8107 38.4227 100.245 37.9364L98.754 36.6037C98.3486 37.0573 97.9901 37.4833 97.7298 37.7784L99.2295 39.1016ZM99.4025 36.2747C99.2135 36.2932 99.0717 36.302 98.9246 36.3126C98.7844 36.3228 98.6264 36.3356 98.4583 36.3648L98.801 38.3352C98.8629 38.3244 98.9349 38.3172 99.0697 38.3074C99.1976 38.2981 99.3758 38.2869 99.5967 38.2653L99.4025 36.2747ZM98.4594 36.3646C98.3451 36.3843 98.2527 36.3959 98.179 36.4013C98.1043 36.4069 98.0594 36.4054 98.0374 36.4034C98.0147 36.4014 98.0323 36.4002 98.0737 36.4162C98.119 36.4338 98.1903 36.4713 98.2604 36.5429C98.2945 36.5777 98.3236 36.6159 98.3473 36.6556C98.3708 36.695 98.3866 36.732 98.397 36.7636C98.4173 36.8249 98.416 36.8615 98.416 36.8557C98.4161 36.8498 98.4173 36.8185 98.4303 36.7543C98.4432 36.6912 98.4651 36.6079 98.5001 36.5009L96.5992 35.8791C96.4982 36.1878 96.4181 36.5192 96.4161 36.8431C96.4139 37.1793 96.4983 37.6019 96.8314 37.9421C97.1512 38.2688 97.5543 38.368 97.8578 38.3953C98.1639 38.423 98.4892 38.3891 98.7999 38.3354L98.4594 36.3646ZM98.4983 36.5062C98.6642 36.0086 99.009 35.5029 99.3736 35.2193L98.1457 33.6406C97.4303 34.1971 96.8751 35.0515 96.6009 35.8738L98.4983 36.5062ZM99.3757 35.2177C100.507 34.3329 101.386 33.2495 101.819 31.783L99.9005 31.217C99.6133 32.1905 99.0324 32.9471 98.1436 33.6423L99.3757 35.2177ZM101.819 31.7833C101.921 31.4354 102.047 31.2101 102.186 31.0633C102.312 30.9304 102.494 30.8126 102.813 30.7531L102.447 28.7869C101.746 28.9175 101.172 29.2247 100.733 29.6892C100.307 30.1399 100.058 30.6846 99.9006 31.2167L101.819 31.7833ZM103.611 29.5792C103.473 28.8664 103.341 28.1671 103.151 27.2058L101.189 27.5941C101.378 28.5529 101.507 29.2337 101.648 29.9609L103.611 29.5792ZM101.651 28.255C102.263 28.6262 102.615 28.8372 102.965 29.0475L103.994 27.3325C103.645 27.1229 103.296 26.9138 102.688 26.545L101.651 28.255ZM104.389 28.6067C104.494 28.3779 104.748 28.0548 105.188 27.6857C105.614 27.3281 106.157 26.9758 106.753 26.6721C107.987 26.0424 109.243 25.7224 110.013 25.8131L110.247 23.8269C108.896 23.6676 107.212 24.1926 105.844 24.8905C105.138 25.2504 104.464 25.6826 103.903 26.1533C103.355 26.6127 102.851 27.1621 102.571 27.7733L104.389 28.6067ZM109.781 23.8829C108.843 24.2321 107.975 24.5514 107.104 24.8715L107.795 26.7485C108.665 26.4286 109.536 26.108 110.479 25.7572L109.781 23.8829ZM106.48 26.0525C106.483 26.0649 106.497 26.1231 106.517 26.1847C106.538 26.2479 106.579 26.3573 106.658 26.4747L108.322 25.3653C108.38 25.4527 108.406 25.5272 108.415 25.5528C108.423 25.5769 108.427 25.5951 108.42 25.5675L106.48 26.0525ZM107.571 26.9167C108.182 26.8667 108.789 26.8166 109.397 26.7666C110.004 26.7166 110.612 26.6666 111.221 26.6167L111.058 24.6233C110.448 24.6734 109.84 24.7234 109.233 24.7734C108.625 24.8234 108.018 24.8734 107.408 24.9234L107.571 26.9167ZM110.144 25.7105C110.149 25.7632 110.153 25.8186 110.158 25.8765C110.163 25.9336 110.169 25.9932 110.174 26.0505L112.166 25.8695C112.161 25.8168 112.156 25.7614 112.151 25.7035C112.146 25.6464 112.141 25.5868 112.136 25.5295L110.144 25.7105ZM111.105 24.9621C110.798 24.9819 110.472 25.0029 110.143 25.0347L110.336 27.0254C110.627 26.9971 110.921 26.9781 111.234 26.9579L111.105 24.9621ZM110.15 25.0341C108.029 25.2259 106.194 26.1143 104.737 27.6392L106.183 29.0209C107.306 27.8458 108.691 27.1741 110.33 27.0259L110.15 25.0341ZM104.733 27.6425C104.39 28.0058 103.897 28.5814 104.009 29.351C104.061 29.7095 104.23 29.9909 104.38 30.1927C104.53 30.3931 104.718 30.59 104.898 30.7722L106.322 29.3678C106.141 29.185 106.042 29.0757 105.985 28.9985C105.928 28.9229 105.972 28.9556 105.988 29.064C105.996 29.1218 105.993 29.1785 105.983 29.2265C105.974 29.2709 105.961 29.2925 105.964 29.2869C105.968 29.2802 105.983 29.2542 106.021 29.2056C106.058 29.1575 106.112 29.096 106.186 29.0175L104.733 27.6425ZM104.898 30.7726C105.238 31.117 105.549 31.513 105.888 31.96C106.216 32.3915 106.58 32.8837 106.983 33.3355L108.476 32.0045C108.139 31.6264 107.833 31.2136 107.481 30.75C107.14 30.302 106.761 29.8131 106.321 29.3674L104.898 30.7726ZM106.984 33.3366C107.727 34.1678 108.284 35.0061 109.067 35.9903C109.807 36.9197 110.672 37.8642 111.84 38.5745L112.879 36.8655C112.008 36.3359 111.317 35.6053 110.632 34.7447C109.991 33.9389 109.252 32.8722 108.475 32.0035L106.984 33.3366ZM111.841 38.5748C113.211 39.4065 114.639 39.532 116.044 39.3409L115.775 37.3591C114.68 37.508 113.749 37.3935 112.879 36.8652L111.841 38.5748ZM116.041 39.3413C118.175 39.0581 120.253 39.1946 122.219 39.8837L122.88 37.9963C120.567 37.1854 118.165 37.0419 115.778 37.3587L116.041 39.3413ZM122.219 39.8837C123.285 40.2575 124.301 40.2517 125.212 40.1628C125.66 40.119 126.111 40.0515 126.517 39.9952C126.936 39.9373 127.323 39.8887 127.703 39.8686L127.597 37.8714C127.127 37.8963 126.668 37.9552 126.243 38.0141C125.806 38.0747 125.414 38.1335 125.017 38.1722C124.238 38.2483 123.554 38.2325 122.88 37.9963L122.219 39.8837ZM127.692 39.8691C128.38 39.8396 129.025 39.8327 129.634 39.9034L129.865 37.9167C129.094 37.8273 128.32 37.8404 127.607 37.8709L127.692 39.8691ZM129.627 39.9025C131.347 40.1149 133.004 40.2993 134.63 40.6478L135.049 38.6922C133.315 38.3207 131.552 38.1251 129.872 37.9175L129.627 39.9025ZM134.634 40.6487C134.898 40.704 135.18 40.8271 135.539 41.0168C135.857 41.1845 136.313 41.4506 136.74 41.6424L137.559 39.8177C137.206 39.6594 136.913 39.4805 136.473 39.2482C136.075 39.038 135.591 38.806 135.045 38.6913L134.634 40.6487ZM136.74 41.6422C138.359 42.3694 140.071 43.2228 141.836 43.869L142.524 41.991C140.848 41.3772 139.28 40.5906 137.559 39.8178L136.74 41.6422ZM141.839 43.8701C142.487 44.1051 143.189 44.1862 143.847 43.797C144.407 43.466 144.751 42.8833 145.009 42.4057L143.25 41.4543C143.126 41.684 143.03 41.8395 142.948 41.9471C142.868 42.053 142.828 42.0763 142.829 42.0755C142.844 42.0668 142.859 42.0677 142.841 42.0677C142.806 42.0676 142.709 42.0584 142.521 41.9899L141.839 43.8701ZM145.011 42.4028C145.422 41.6367 145.924 41.0503 146.518 40.1697L144.861 39.0504C144.416 39.7097 143.717 40.5832 143.248 41.4572L145.011 42.4028ZM145.175 40.4675C145.225 40.4975 145.275 40.5275 145.325 40.5575C145.375 40.5875 145.425 40.6175 145.475 40.6475L146.504 38.9325C146.454 38.9025 146.404 38.8725 146.354 38.8425C146.304 38.8125 146.254 38.7825 146.204 38.7525L145.175 40.4675ZM145.023 39.5323C144.983 39.6832 144.964 39.7156 144.895 39.9507C144.843 40.1253 144.779 40.3691 144.77 40.6467L146.769 40.7133C146.77 40.6909 146.776 40.6397 146.812 40.5193C146.83 40.4594 146.916 40.1968 146.956 40.0477L145.023 39.5323ZM144.771 40.6281C144.758 40.8794 144.77 41.1171 144.78 41.3061C144.791 41.5103 144.8 41.6554 144.797 41.799C144.792 42.0486 144.752 42.2258 144.621 42.4205L146.278 43.5395C146.687 42.9342 146.787 42.3464 146.797 41.8386C146.802 41.6034 146.787 41.3716 146.777 41.1973C146.767 41.0079 146.761 40.8656 146.768 40.7319L144.771 40.6281ZM144.621 42.4197C144.48 42.6284 144.388 42.7959 144.325 42.9081C144.255 43.0335 144.25 43.0355 144.256 43.0277C144.307 42.9678 144.333 43.0136 143.848 43.1902L144.531 45.0698C145.036 44.8864 145.462 44.6973 145.781 44.3223C145.921 44.157 146.016 43.9815 146.071 43.8838C146.133 43.7728 146.189 43.6716 146.278 43.5403L144.621 42.4197ZM143.865 43.1841C143.533 43.2978 143.272 43.4841 143.09 43.6209C142.873 43.7851 142.773 43.8745 142.6 43.9912L143.719 45.6489C143.946 45.4955 144.186 45.3 144.296 45.2166C144.443 45.1059 144.496 45.0822 144.514 45.076L143.865 43.1841ZM144.16 44.82C144.16 44.8633 144.157 44.9496 144.132 45.055C144.109 45.1478 144.043 45.3638 143.839 45.5525C143.593 45.7804 143.283 45.845 143.024 45.8094C142.811 45.7801 142.665 45.6902 142.606 45.6506C142.483 45.5689 142.409 45.479 142.395 45.4622C142.368 45.4296 142.349 45.4025 142.34 45.3894C142.322 45.3625 142.309 45.3418 142.307 45.3373C142.305 45.3333 142.303 45.3303 142.302 45.3287C142.301 45.327 142.3 45.326 142.3 45.3259C142.3 45.3258 142.301 45.3274 142.303 45.3313C142.305 45.3352 142.308 45.3403 142.311 45.3469C142.318 45.3603 142.327 45.3772 142.338 45.3985C142.38 45.4813 142.449 45.6195 142.531 45.7787L144.308 44.8614C144.23 44.7105 144.17 44.5887 144.122 44.494C144.1 44.4519 144.076 44.404 144.055 44.3663C144.05 44.3567 144.024 44.3079 143.988 44.2566C143.978 44.2414 143.957 44.2124 143.929 44.1785C143.914 44.1603 143.839 44.0694 143.716 43.9873C143.656 43.9474 143.509 43.8573 143.296 43.828C143.037 43.7924 142.727 43.857 142.48 44.0851C142.276 44.274 142.21 44.4903 142.188 44.5835C142.162 44.6893 142.16 44.7761 142.16 44.82H144.16ZM143.677 44.3538C143.369 44.2717 143.157 44.2184 142.921 44.1649L142.478 46.1151C142.682 46.1616 142.87 46.2083 143.162 46.2862L143.677 44.3538ZM141.71 45.2855C141.758 45.6079 141.818 45.9649 141.861 46.2498L143.838 45.9502C143.782 45.5752 143.742 45.3521 143.689 44.9945L141.71 45.2855ZM143.201 45.1637C142.561 44.9236 142.002 44.714 141.473 44.5144L140.767 46.3856C141.298 46.5861 141.859 46.7964 142.498 47.0363L143.201 45.1637ZM140.12 45.45C140.12 45.8845 140.149 46.1166 140.123 46.4513L142.117 46.6087C142.15 46.1834 142.12 45.6556 142.12 45.45H140.12ZM140.123 46.446C140.049 47.3269 139.927 48.1518 139.823 49.0989C139.724 50.0095 139.651 50.9666 139.712 51.9324L141.708 51.8076C141.658 51.0134 141.716 50.1905 141.811 49.3161C141.903 48.4782 142.04 47.5131 142.116 46.614L140.123 46.446ZM139.712 51.9328C139.825 53.7388 140.96 55.2024 142.006 56.3L143.453 54.92C142.46 53.8776 141.774 52.8611 141.708 51.8072L139.712 51.9328ZM142.002 56.296C142.196 56.5019 142.371 56.8372 142.446 57.1579L144.393 56.7021C144.248 56.0828 143.923 55.4181 143.457 54.924L142.002 56.296ZM142.446 57.1563C142.902 59.1227 143.287 61.0965 143.711 63.1155L145.668 62.7045C145.252 60.7235 144.857 58.6973 144.394 56.7037L142.446 57.1563ZM143.712 63.1195C143.756 63.3234 143.832 63.5426 143.897 63.7448L145.802 63.1352C145.707 62.8374 145.684 62.7766 145.667 62.7005L143.712 63.1195ZM145.092 62.4699C144.793 62.3951 144.459 62.355 144.127 62.4242C143.759 62.5006 143.446 62.7003 143.231 63.0028C143.038 63.2749 142.97 63.5669 142.942 63.776C142.913 63.9898 142.915 64.2007 142.92 64.3639L144.919 64.2961C144.915 64.1644 144.918 64.089 144.924 64.0463C144.93 63.9987 144.931 64.0639 144.863 64.1597C144.825 64.2128 144.772 64.2665 144.705 64.31C144.638 64.353 144.576 64.3735 144.534 64.3823C144.461 64.3975 144.466 64.3749 144.607 64.4101L145.092 62.4699ZM142.92 64.33C142.92 64.4159 142.919 64.5531 142.935 64.7095L144.925 64.5105C144.92 64.4669 144.92 64.4241 144.92 64.33H142.92ZM142.93 64.6232C142.938 65.2328 142.771 65.3785 142.747 65.3966C142.716 65.42 142.511 65.5396 141.901 65.3675L141.358 67.2925C142.238 67.5405 143.193 67.5601 143.945 66.9984C144.703 66.4315 144.942 65.5072 144.93 64.5969L142.93 64.6232ZM141.896 65.3662C141.82 65.3451 141.751 65.3259 141.687 65.3077C141.623 65.2896 141.567 65.2731 141.517 65.2578C141.467 65.2425 141.426 65.229 141.391 65.2169C141.357 65.2048 141.332 65.1954 141.316 65.1885C141.299 65.1814 141.296 65.179 141.301 65.1819C141.306 65.1846 141.326 65.1961 141.354 65.2184C141.382 65.2411 141.423 65.2779 141.464 65.3316C141.484 65.3585 141.505 65.389 141.523 65.4231C141.542 65.4572 141.559 65.4935 141.573 65.5314C141.586 65.5694 141.597 65.6072 141.604 65.6441C141.611 65.681 141.615 65.7155 141.616 65.747C141.619 65.8096 141.613 65.8583 141.607 65.8885C141.602 65.9183 141.596 65.9351 141.595 65.9361C141.595 65.9373 141.598 65.9291 141.607 65.9093C141.616 65.8898 141.629 65.8633 141.649 65.8281C141.668 65.793 141.691 65.7523 141.719 65.7044C141.747 65.6567 141.78 65.6039 141.816 65.5448C141.853 65.4857 141.892 65.4219 141.936 65.352L140.243 64.288C140.075 64.5553 139.906 64.8255 139.796 65.0604C139.704 65.2569 139.51 65.7084 139.692 66.2111C139.879 66.7301 140.333 66.9444 140.537 67.0306C140.774 67.1306 141.076 67.2144 141.363 67.2939L141.896 65.3662ZM141.938 65.3494C142.768 64.0189 143.174 62.5641 143.219 61.0394L141.22 60.9806C141.185 62.1759 140.871 63.2812 140.241 64.2907L141.938 65.3494ZM143.219 61.0394C143.229 60.702 143.15 60.4004 143.08 60.184C143.024 60.0094 142.912 59.7203 142.883 59.6372L140.997 60.3028C141.031 60.4004 141.07 60.5024 141.099 60.58C141.131 60.6645 141.156 60.733 141.176 60.796C141.196 60.8584 141.208 60.9038 141.214 60.9374C141.221 60.9706 141.22 60.9832 141.22 60.9806L143.219 61.0394ZM142.876 59.6195C142.154 57.6904 140.882 56.2001 139.202 54.997L138.037 56.623C139.457 57.6399 140.445 58.8296 141.003 60.3205L142.876 59.6195ZM137.669 55.499C137.128 57.1515 136.584 58.9955 136.764 61.009L138.756 60.831C138.616 59.2646 139.031 57.7685 139.57 56.121L137.669 55.499ZM136.763 61.0014C136.807 61.5459 136.858 61.9472 136.85 62.3696L138.849 62.4104C138.861 61.8528 138.792 61.2741 138.756 60.8387L136.763 61.0014ZM136.85 62.39C136.85 62.3636 136.852 62.3656 136.846 62.399C136.84 62.4277 136.832 62.4589 136.824 62.484C136.813 62.5163 136.813 62.5067 136.834 62.4701C136.843 62.4542 136.878 62.3943 136.945 62.3245C136.98 62.2881 137.039 62.233 137.125 62.1807C137.211 62.1281 137.345 62.0655 137.519 62.0461L137.74 64.0339C138.096 63.9943 138.313 63.7875 138.385 63.7128C138.476 63.6178 138.536 63.5224 138.57 63.463C138.641 63.3396 138.69 63.2112 138.723 63.111C138.786 62.9192 138.85 62.6481 138.85 62.39H136.85ZM137.572 62.0417C137.121 62.0678 136.696 62.1938 136.344 62.4709C135.993 62.7475 135.812 63.0988 135.712 63.3975C135.618 63.6795 135.581 63.9679 135.557 64.1511C135.527 64.3753 135.513 64.4711 135.493 64.54L137.407 65.12C137.486 64.8589 137.518 64.5747 137.54 64.4124C137.566 64.209 137.585 64.1043 137.61 64.03C137.629 63.9725 137.629 64.0044 137.582 64.0419C137.533 64.08 137.533 64.0473 137.687 64.0383L137.572 62.0417ZM135.492 64.5413C135.361 64.9766 135.183 65.0668 135.139 65.082C135.104 65.0942 134.913 65.1425 134.529 64.8622L133.35 66.4778C134.076 67.0075 134.95 67.2658 135.797 66.9706C136.637 66.6782 137.158 65.9434 137.407 65.1188L135.492 64.5413ZM134.513 64.8508C134.241 64.6601 133.887 64.4992 133.7 64.4023L132.779 66.1778C133.132 66.3608 133.239 66.3999 133.366 66.4893L134.513 64.8508ZM134.219 65.4914C134.396 64.6314 134.899 63.9077 135.532 62.8346C136.127 61.8266 136.768 60.5913 136.75 58.9985L134.75 59.0215C134.761 60.0388 134.367 60.8735 133.81 61.8179C133.291 62.6973 132.523 63.8086 132.26 65.0886L134.219 65.4914ZM134.947 58.4137C134.428 59.112 134.015 59.6668 133.531 60.3318L135.148 61.5082C135.625 60.8532 136.031 60.308 136.552 59.6063L134.947 58.4137ZM135.212 60.4308C134.963 59.9874 134.78 59.6763 134.574 59.3044L132.825 60.2757C133.019 60.6237 133.256 61.0326 133.467 61.4093L135.212 60.4308ZM132.883 59.2133C132.76 59.3877 132.589 59.6527 132.273 60.1177L133.927 61.2423C134.29 60.7073 134.4 60.5323 134.517 60.3667L132.883 59.2133ZM134.074 60.4554C133.779 59.177 133.139 58.0311 132.74 57.1464C132.317 56.2086 132.069 55.4068 132.2 54.468L130.219 54.192C130.01 55.6932 130.442 56.9164 130.917 57.9686C131.415 59.0739 131.89 59.883 132.125 60.9045L134.074 60.4554ZM130.967 53.3599C128.827 53.8949 126.775 53.5433 124.641 52.8934L124.058 54.8066C126.324 55.4967 128.792 55.9651 131.452 55.3002L130.967 53.3599ZM124.64 52.8932C123.456 52.5333 122.307 52.0209 121.074 51.4913L120.285 53.3288C121.472 53.8391 122.743 54.4067 124.059 54.8068L124.64 52.8932ZM121.077 51.4925C120.817 51.3795 120.532 51.2785 120.243 51.2388C119.948 51.198 119.57 51.2117 119.211 51.4233C118.849 51.6366 118.654 51.963 118.548 52.2484C118.446 52.5242 118.403 52.825 118.382 53.108L120.377 53.252C120.384 53.1564 120.393 53.0836 120.403 53.0293C120.413 52.9743 120.421 52.9484 120.424 52.9428C120.426 52.9375 120.416 52.9644 120.386 53.0057C120.352 53.0502 120.3 53.1031 120.226 53.1467C120.152 53.1901 120.082 53.2094 120.032 53.2166C119.984 53.2233 119.96 53.2187 119.97 53.22C119.98 53.2213 120.01 53.2267 120.066 53.2445C120.121 53.262 120.192 53.2886 120.282 53.3276L121.077 51.4925ZM118.382 53.108C118.313 54.0714 118.173 54.9361 118.065 55.9874L120.054 56.1925C120.146 55.3039 120.307 54.2286 120.377 53.252L118.382 53.108ZM118.066 55.9796C118.061 56.0231 118.054 56.0679 118.041 56.1537C118.03 56.2278 118.015 56.3311 118.006 56.4407C117.991 56.6331 117.978 57.015 118.182 57.3889L119.938 56.4312C119.983 56.5151 119.995 56.583 119.998 56.6073C120 56.63 119.998 56.631 120 56.5968C120.003 56.5626 120.009 56.5191 120.019 56.4485C120.028 56.3896 120.043 56.2919 120.054 56.2004L118.066 55.9796ZM118.173 57.3729C118.278 57.5731 118.303 57.7867 118.264 58.1339C118.243 58.3238 118.211 58.4999 118.172 58.7496C118.135 58.9794 118.096 59.2551 118.09 59.5475L120.089 59.5925C120.093 59.4399 120.114 59.2731 120.147 59.0614C120.178 58.8695 120.225 58.605 120.252 58.3536C120.311 57.8184 120.312 57.147 119.946 56.4471L118.173 57.3729ZM118.09 59.5419C118.048 61.0248 118.237 62.5566 118.332 63.967L120.327 63.833C120.222 62.2634 120.051 60.9552 120.089 59.5982L118.09 59.5419ZM119.282 62.9011C118.982 62.9154 118.483 62.9856 118.083 63.3964C117.693 63.7973 117.583 64.3318 117.57 64.824L119.569 64.876C119.573 64.7471 119.588 64.6917 119.591 64.6831C119.591 64.6803 119.575 64.7306 119.516 64.7911C119.456 64.8533 119.391 64.8845 119.353 64.8971C119.324 64.9067 119.324 64.9014 119.377 64.8989L119.282 62.9011ZM117.57 64.8188C117.567 64.9326 117.52 65.1143 117.39 65.3696C117.264 65.6176 117.089 65.8756 116.898 66.1324L118.501 67.3277C118.72 67.0344 118.971 66.6724 119.172 66.2779C119.369 65.8907 119.553 65.4075 119.569 64.8812L117.57 64.8188ZM116.884 66.152C116.937 66.0762 116.993 66.0281 117.031 66.0006C117.069 65.9734 117.097 65.9604 117.107 65.9562C117.123 65.9494 117.109 65.9573 117.055 65.9659C117.005 65.9737 116.942 65.9786 116.874 65.9789C116.806 65.9792 116.746 65.9748 116.704 65.969L116.436 67.951C116.708 67.9878 117.046 67.9917 117.365 67.9417C117.525 67.9164 117.714 67.8725 117.9 67.7922C118.077 67.7158 118.328 67.5736 118.516 67.308L116.884 66.152ZM116.699 65.9684C116.593 65.9546 116.463 65.916 116.271 65.8389C116.176 65.8003 116.08 65.7587 115.966 65.709C115.856 65.6616 115.731 65.6076 115.6 65.5572L114.879 67.4228C114.969 67.4574 115.062 67.4971 115.171 67.5444C115.275 67.5894 115.398 67.6434 115.523 67.6936C115.772 67.794 116.086 67.9054 116.44 67.9516L116.699 65.9684ZM116.124 66.9568C116.227 66.7612 116.336 66.5241 116.408 66.3786C116.491 66.208 116.56 66.083 116.63 65.9818L114.989 64.8382C114.83 65.0671 114.708 65.302 114.612 65.4989C114.503 65.7209 114.442 65.8588 114.355 66.0232L116.124 66.9568ZM116.63 65.9816C116.741 65.8232 116.879 65.6667 117.06 65.4745C117.227 65.2979 117.452 65.0678 117.651 64.8279C118.078 64.3122 118.488 63.6317 118.509 62.6626L116.51 62.6175C116.502 62.9783 116.371 63.2378 116.111 63.5521C115.966 63.7273 115.811 63.8846 115.605 64.103C115.414 64.3059 115.189 64.5518 114.989 64.8384L116.63 65.9816ZM118.509 62.6613C118.526 61.8866 118.455 60.9277 118.28 59.9944C118.108 59.076 117.819 58.0965 117.352 57.3363L115.648 58.3837C115.93 58.8435 116.162 59.549 116.314 60.3631C116.464 61.1623 116.523 61.9834 116.51 62.6187L118.509 62.6613Z" fill="white" mask="url(#path-2-inside-1_402_18669)"/>
</svg>
