<svg width="63" height="74" viewBox="0 0 63 74" fill="none" xmlns="http://www.w3.org/2000/svg">
<path d="M50.0309 23.578C50.0309 23.578 57.8409 22.088 61.5609 17.918M24.8309 30.858C24.8309 30.858 50.3809 36.238 61.3809 26.448M30.5109 57.068C30.5109 57.068 53.9309 60.768 61.3809 51.268M61.3809 43.598V65.448C61.3809 65.448 56.7709 73.098 40.0909 73.098C24.8309 73.098 18.4409 68.368 16.3109 65.448M16.3109 16.298V9.37804C16.3109 9.37804 15.9509 1.36802 39.7309 1.00802C39.7309 1.00802 56.2309 0.45804 61.5609 8.46804V35.408" stroke="white" stroke-width="1.59" stroke-miterlimit="10" stroke-linecap="round"/>
<path d="M47.8718 24.0981C47.8718 24.4519 47.5857 24.738 47.2318 24.738C46.8779 24.738 46.5918 24.4519 46.5918 24.0981C46.5918 23.7442 46.878 23.458 47.2318 23.458C47.5857 23.458 47.8718 23.7442 47.8718 24.0981Z" fill="#00AFA9" stroke="white"/>
<path d="M62.0417 39.708C62.0417 40.0619 61.7556 40.3481 61.4017 40.3481C61.0479 40.3481 60.7617 40.0619 60.7617 39.708C60.7617 39.3542 61.0479 39.0681 61.4017 39.0681C61.7556 39.0681 62.0417 39.3542 62.0417 39.708Z" fill="#00AFA9" stroke="white"/>
<path d="M16.3207 8.95804C16.3207 8.95804 15.6108 14.568 38.6808 14.828C38.6808 14.828 56.0707 15.008 61.5707 9.70804M31.9407 8.67804C31.9407 9.56804 30.0308 10.278 27.6808 10.278C25.3308 10.278 23.4208 9.55804 23.4208 8.67804C23.4208 7.79804 25.3308 7.07803 27.6808 7.07803C30.0308 7.07803 31.9407 7.79804 31.9407 8.67804Z" stroke="white" stroke-width="1.59" stroke-miterlimit="10" stroke-linecap="round"/>
<mask id="path-5-inside-1_402_18677" fill="white">
<path d="M11.3313 43.218C10.0413 45.518 9.16127 47.9481 9.16127 50.5981C9.16127 51.6881 9.44126 52.7881 9.71126 53.8481C9.95126 54.8181 9.81128 55.488 9.10128 55.768C8.36128 56.058 7.65124 55.678 7.38124 54.668C7.02124 53.368 6.80125 52.028 6.51125 50.708C6.72125 47.548 7.65126 44.678 9.21126 41.998C9.63126 41.278 10.3112 41.078 10.9412 41.438C11.5612 41.798 11.7413 42.488 11.3313 43.208M26.9013 41.3781C24.9813 37.6681 22.8513 34.058 20.7213 30.448C18.4513 26.598 16.1413 22.788 14.9813 18.398C14.8513 17.898 14.4013 17.478 14.0913 17.018C13.7913 17.488 13.3713 17.918 13.2213 18.428C12.2613 21.638 10.8813 24.648 9.29128 27.578C7.19128 31.458 5.01127 35.298 3.03127 39.238C1.21127 42.848 0.0112395 46.658 0.00123951 51.278C-0.0487605 55.028 1.41129 58.608 4.86129 61.188C8.79129 64.1381 13.2512 64.858 18.0112 64.008C24.6912 62.808 29.0813 57.548 29.1513 50.778C29.1813 47.448 28.4113 44.288 26.9113 41.368"/>
</mask>
<path d="M11.3313 43.218C10.0413 45.518 9.16127 47.9481 9.16127 50.5981C9.16127 51.6881 9.44126 52.7881 9.71126 53.8481C9.95126 54.8181 9.81128 55.488 9.10128 55.768C8.36128 56.058 7.65124 55.678 7.38124 54.668C7.02124 53.368 6.80125 52.028 6.51125 50.708C6.72125 47.548 7.65126 44.678 9.21126 41.998C9.63126 41.278 10.3112 41.078 10.9412 41.438C11.5612 41.798 11.7413 42.488 11.3313 43.208M26.9013 41.3781C24.9813 37.6681 22.8513 34.058 20.7213 30.448C18.4513 26.598 16.1413 22.788 14.9813 18.398C14.8513 17.898 14.4013 17.478 14.0913 17.018C13.7913 17.488 13.3713 17.918 13.2213 18.428C12.2613 21.638 10.8813 24.648 9.29128 27.578C7.19128 31.458 5.01127 35.298 3.03127 39.238C1.21127 42.848 0.0112395 46.658 0.00123951 51.278C-0.0487605 55.028 1.41129 58.608 4.86129 61.188C8.79129 64.1381 13.2512 64.858 18.0112 64.008C24.6912 62.808 29.0813 57.548 29.1513 50.778C29.1813 47.448 28.4113 44.288 26.9113 41.368" fill="white"/>
<path d="M9.71126 53.8481L10.682 53.6079L10.6803 53.6012L9.71126 53.8481ZM9.10128 55.768L9.46615 56.6991L9.46814 56.6983L9.10128 55.768ZM7.38124 54.668L8.34736 54.4098L8.34497 54.4011L7.38124 54.668ZM6.51125 50.708L5.51345 50.6417L5.50402 50.7837L5.53454 50.9226L6.51125 50.708ZM9.21126 41.998L8.34748 41.4942L8.34702 41.495L9.21126 41.998ZM10.9412 41.438L11.4434 40.5732L11.4374 40.5698L10.9412 41.438ZM20.7213 30.448L19.8599 30.9559L19.86 30.9562L20.7213 30.448ZM14.9813 18.398L14.0135 18.6497L14.0145 18.6535L14.9813 18.398ZM14.0913 17.018L14.9205 16.4592L14.0686 15.195L13.2483 16.48L14.0913 17.018ZM13.2213 18.428L14.1794 18.7146L14.1806 18.7102L13.2213 18.428ZM9.29128 27.578L8.41235 27.1011L8.41183 27.102L9.29128 27.578ZM3.03127 39.238L3.92421 39.6882L3.92479 39.6871L3.03127 39.238ZM0.00123951 51.278L1.00121 51.2914L1.00124 51.2802L0.00123951 51.278ZM4.86129 61.188L5.46161 60.3883L5.46017 60.3872L4.86129 61.188ZM18.0112 64.008L18.187 64.9925L18.1881 64.9923L18.0112 64.008ZM29.1513 50.778L30.1512 50.7884L30.1512 50.7871L29.1513 50.778ZM10.4591 42.7289C9.11888 45.1184 8.16127 47.7191 8.16127 50.5981H10.1613C10.1613 48.177 10.9636 45.9177 12.2034 43.7072L10.4591 42.7289ZM8.16127 50.5981C8.16127 51.8352 8.4782 53.0584 8.7422 54.0949L10.6803 53.6012C10.4043 52.5177 10.1613 51.5409 10.1613 50.5981H8.16127ZM8.74053 54.0882C8.84305 54.5026 8.82449 54.7109 8.80198 54.7887C8.79434 54.815 8.79029 54.8132 8.79787 54.805C8.80429 54.7981 8.79365 54.8144 8.73441 54.8378L9.46814 56.6983C10.0959 56.4507 10.5386 55.9819 10.7231 55.3449C10.888 54.7752 10.8195 54.1635 10.682 53.6079L8.74053 54.0882ZM8.7364 54.837C8.67159 54.8624 8.63342 54.8633 8.61896 54.8624C8.60666 54.8616 8.59784 54.8592 8.58517 54.8515C8.56056 54.8365 8.43631 54.7426 8.34732 54.4098L6.41517 54.9263C6.59618 55.6034 6.96195 56.2046 7.54485 56.5596C8.14767 56.9267 8.84238 56.9435 9.46615 56.6991L8.7364 54.837ZM8.34497 54.4011C7.99337 53.1315 7.79431 51.8879 7.48796 50.4935L5.53454 50.9226C5.80819 52.1682 6.04911 53.6046 6.41751 54.9349L8.34497 54.4011ZM7.50905 50.7743C7.70819 47.7777 8.58821 45.0562 10.0755 42.5011L8.34702 41.495C6.71431 44.2999 5.73431 47.3183 5.51345 50.6417L7.50905 50.7743ZM10.075 42.5019C10.1881 42.3082 10.2826 42.2717 10.2983 42.2668C10.3085 42.2635 10.3191 42.262 10.3355 42.2641C10.3532 42.2664 10.39 42.2748 10.4451 42.3063L11.4374 40.5698C10.9091 40.2679 10.294 40.171 9.69675 40.3593C9.1099 40.5444 8.65447 40.9679 8.34748 41.4942L10.075 42.5019ZM10.4391 42.3028C10.5373 42.3598 10.5461 42.4043 10.5483 42.4138C10.5522 42.4307 10.5683 42.5271 10.4623 42.7132L12.2002 43.7029C12.5043 43.169 12.6353 42.5604 12.4967 41.9623C12.3564 41.3568 11.9652 40.8763 11.4434 40.5733L10.4391 42.3028ZM27.7894 40.9184C25.8545 37.1797 23.7101 33.5458 21.5825 29.9399L19.86 30.9562C21.9924 34.5702 24.108 38.1564 26.0131 41.8377L27.7894 40.9184ZM21.5827 29.9401C19.295 26.0601 17.0661 22.3735 15.9481 18.1426L14.0145 18.6535C15.2165 23.2026 17.6076 27.136 19.8599 30.9559L21.5827 29.9401ZM15.9491 18.1464C15.8337 17.7027 15.5917 17.3454 15.4059 17.0959C15.168 16.7763 15.0684 16.6786 14.9205 16.4592L13.262 17.5769C13.4241 17.8175 13.7045 18.1598 13.8016 18.2902C13.9509 18.4907 13.9988 18.5934 14.0135 18.6497L15.9491 18.1464ZM13.2483 16.48C13.1063 16.7026 13 16.8218 12.7812 17.134C12.6031 17.388 12.384 17.7309 12.2619 18.1459L14.1806 18.7102C14.2086 18.6152 14.2744 18.4881 14.4188 18.2821C14.5225 18.1342 14.7763 17.8035 14.9342 17.5561L13.2483 16.48ZM12.2632 18.1415C11.3292 21.2646 9.98185 24.2089 8.41235 27.1011L10.1702 28.055C11.7807 25.0872 13.1933 22.0115 14.1793 18.7146L12.2632 18.1415ZM8.41183 27.102C6.32483 30.958 4.12673 34.8311 2.13775 38.789L3.92479 39.6871C5.89581 35.7649 8.05773 31.958 10.1707 28.054L8.41183 27.102ZM2.13833 38.7879C0.265345 42.503 -0.988348 46.4663 -0.998758 51.2759L1.00124 51.2802C1.01083 46.8498 2.15719 43.1931 3.92421 39.6882L2.13833 38.7879ZM-0.998672 51.2647C-1.05254 55.3048 0.53321 59.2001 4.2624 61.9889L5.46017 60.3872C2.28936 58.016 0.955019 54.7513 1.00115 51.2914L-0.998672 51.2647ZM4.26096 61.9878C8.45214 65.1339 13.2064 65.8819 18.187 64.9925L17.8355 63.0236C13.2961 63.8342 9.13043 63.1422 5.46161 60.3883L4.26096 61.9878ZM18.1881 64.9923C25.3459 63.7064 30.0763 58.0332 30.1512 50.7884L28.1513 50.7677C28.0862 57.0629 24.0366 61.9096 17.8344 63.0238L18.1881 64.9923ZM30.1512 50.7871C30.1827 47.292 29.3734 43.9724 27.8008 40.9111L26.0218 41.825C27.4492 44.6037 28.1798 47.6041 28.1513 50.769L30.1512 50.7871Z" fill="white" mask="url(#path-5-inside-1_402_18677)"/>
</svg>
