<svg width="79" height="79" viewBox="0 0 79 79" fill="none" xmlns="http://www.w3.org/2000/svg">
<path d="M20.0406 20.29V31.97M78.9905 35.78H1.56055C1.56055 35.78 8.72053 56.22 27.9505 57.97V64.84C27.9505 64.84 19.2805 63.56 18.6405 71.37C18.0005 79.18 27.9505 77.9 27.9505 77.9H79.0005M27.9205 17.07C27.9205 17.07 27.2405 18.82 26.7505 20.85C26.2905 22.75 25.7405 26.94 26.9005 31.97" stroke="white" stroke-width="1.59" stroke-miterlimit="10"/>
<mask id="path-2-inside-1_402_18688" fill="white">
<path d="M51.9215 24.75C51.9915 24.54 52.9715 21.52 50.2215 19.38C47.3615 17.16 49.0515 13.81 49.3815 12.98C49.1915 14.52 49.1915 16.87 51.1615 18.27C53.1315 19.67 53.4315 22.31 51.9215 24.75ZM56.2115 16.37C54.9415 14.54 54.8615 13.27 55.0915 12.33C54.1515 13.58 54.1015 15.14 54.2715 16.37C54.7915 16.89 55.3815 17.72 55.6615 18.42C55.9015 19 55.9715 19.62 55.9315 20.22C55.8615 19.62 55.6915 19.05 55.3815 18.55C55.0715 18.03 54.5115 17.49 53.9115 16.88C53.3715 16.3 52.7715 15.64 52.2015 14.76C49.7815 10.62 51.7615 7.22999 53.9515 4.23999C47.2715 8.45999 45.4315 12.54 45.0915 15.29C44.7515 18.05 45.7715 20.74 47.9515 22.85C51.3115 26.1 50.7015 29.15 50.0115 30.73C52.0315 29.4 56.4115 26.11 57.3715 22.05C57.8315 20.1 57.4415 18.18 56.2015 16.37"/>
</mask>
<path d="M51.9215 24.75C51.9915 24.54 52.9715 21.52 50.2215 19.38C47.3615 17.16 49.0515 13.81 49.3815 12.98C49.1915 14.52 49.1915 16.87 51.1615 18.27C53.1315 19.67 53.4315 22.31 51.9215 24.75ZM56.2115 16.37C54.9415 14.54 54.8615 13.27 55.0915 12.33C54.1515 13.58 54.1015 15.14 54.2715 16.37C54.7915 16.89 55.3815 17.72 55.6615 18.42C55.9015 19 55.9715 19.62 55.9315 20.22C55.8615 19.62 55.6915 19.05 55.3815 18.55C55.0715 18.03 54.5115 17.49 53.9115 16.88C53.3715 16.3 52.7715 15.64 52.2015 14.76C49.7815 10.62 51.7615 7.22999 53.9515 4.23999C47.2715 8.45999 45.4315 12.54 45.0915 15.29C44.7515 18.05 45.7715 20.74 47.9515 22.85C51.3115 26.1 50.7015 29.15 50.0115 30.73C52.0315 29.4 56.4115 26.11 57.3715 22.05C57.8315 20.1 57.4415 18.18 56.2015 16.37" fill="white"/>
<path d="M51.9215 24.75L50.9728 24.4338L52.7718 25.2762L51.9215 24.75ZM50.2215 19.38L50.8356 18.5908L50.8347 18.5901L50.2215 19.38ZM49.3815 12.98L50.374 13.1025L48.4523 12.6106L49.3815 12.98ZM55.0915 12.33L56.0628 12.5677L54.2923 11.729L55.0915 12.33ZM54.2715 16.37L53.2809 16.5069L53.3269 16.8396L53.5644 17.0771L54.2715 16.37ZM55.6615 18.42L54.733 18.7914L54.7375 18.8024L55.6615 18.42ZM55.9315 20.22L54.9382 20.3359L56.9293 20.2865L55.9315 20.22ZM55.3815 18.55L54.5226 19.0621L54.527 19.0695L54.5316 19.0769L55.3815 18.55ZM53.9115 16.88L53.1796 17.5614L53.189 17.5715L53.1986 17.5812L53.9115 16.88ZM52.2015 14.76L51.3382 15.2647L51.3497 15.2844L51.3622 15.3037L52.2015 14.76ZM53.9515 4.23999L54.7582 4.83089L53.4174 3.39456L53.9515 4.23999ZM45.0915 15.29L44.099 15.1673L44.099 15.1677L45.0915 15.29ZM47.9515 22.85L47.256 23.5686L47.2562 23.5688L47.9515 22.85ZM50.0115 30.73L49.0951 30.3298L47.746 33.4189L50.5614 31.5652L50.0115 30.73ZM57.3715 22.05L58.3447 22.2801L58.3448 22.2796L57.3715 22.05ZM52.8702 25.0662C52.9516 24.8218 54.1473 21.1679 50.8356 18.5908L49.6074 20.1692C51.7957 21.8721 51.0313 24.2582 50.9728 24.4338L52.8702 25.0662ZM50.8347 18.5901C49.7352 17.7366 49.5172 16.7128 49.6015 15.7456C49.6916 14.7116 50.1161 13.8389 50.3107 13.3495L48.4523 12.6106C48.3169 12.9511 47.7314 14.1684 47.609 15.5719C47.4808 17.0423 47.8478 18.8034 49.6083 20.17L50.8347 18.5901ZM48.389 12.8576C48.1947 14.4324 48.1151 17.3318 50.5822 19.0851L51.7408 17.4549C50.2679 16.4082 50.1883 14.6076 50.374 13.1025L48.389 12.8576ZM50.5822 19.0851C52.0032 20.0949 52.3875 22.0966 51.0711 24.2238L52.7718 25.2762C54.4754 22.5234 54.2598 19.2451 51.7408 17.4549L50.5822 19.0851ZM57.033 15.7999C55.8926 14.1565 55.9139 13.1765 56.0628 12.5677L54.1201 12.0923C53.8091 13.3635 53.9904 14.9235 55.3899 16.9401L57.033 15.7999ZM54.2923 11.729C53.1178 13.2908 53.0968 15.1745 53.2809 16.5069L55.2621 16.2331C55.1062 15.1055 55.1852 13.8692 55.8907 12.931L54.2923 11.729ZM53.5644 17.0771C54.0081 17.5208 54.5126 18.2404 54.733 18.7914L56.59 18.0486C56.2504 17.1996 55.5749 16.2592 54.9786 15.6629L53.5644 17.0771ZM54.7375 18.8024C54.9071 19.2124 54.9657 19.6734 54.9337 20.1535L56.9293 20.2865C56.9773 19.5667 56.8959 18.7877 56.5855 18.0377L54.7375 18.8024ZM56.9248 20.1041C56.8418 19.3934 56.6355 18.6748 56.2314 18.023L54.5316 19.0769C54.7475 19.4251 54.8811 19.8466 54.9382 20.3359L56.9248 20.1041ZM56.2404 18.0379C55.8516 17.3857 55.1713 16.7347 54.6244 16.1788L53.1986 17.5812C53.8517 18.2453 54.2914 18.6743 54.5226 19.0621L56.2404 18.0379ZM54.6434 16.1986C54.1098 15.6254 53.5605 15.0187 53.0408 14.2164L51.3622 15.3037C51.9825 16.2614 52.6332 16.9746 53.1796 17.5614L54.6434 16.1986ZM53.0648 14.2554C51.9946 12.4246 51.9139 10.8182 52.3136 9.32775C52.728 7.78236 53.6707 6.3157 54.7582 4.83089L53.1447 3.64909C52.0423 5.15428 50.8999 6.87763 50.3818 8.80975C49.849 10.7968 49.9883 12.9555 51.3382 15.2647L53.0648 14.2554ZM53.4174 3.39456C46.5501 7.73285 44.4844 12.0501 44.099 15.1673L46.0839 15.4127C46.3785 13.0299 47.9928 9.18713 54.4856 5.08542L53.4174 3.39456ZM44.099 15.1677C43.7167 18.2713 44.875 21.264 47.256 23.5686L48.647 22.1315C46.668 20.216 45.7863 17.8287 46.084 15.4123L44.099 15.1677ZM47.2562 23.5688C48.7929 25.0552 49.3606 26.4296 49.5089 27.5478C49.6594 28.6822 49.3909 29.6524 49.0951 30.3298L50.9279 31.1302C51.3221 30.2276 51.7036 28.8828 51.4916 27.2847C51.2774 25.6704 50.47 23.8949 48.6467 22.1312L47.2562 23.5688ZM50.5614 31.5652C51.6041 30.8787 53.2675 29.6795 54.8029 28.114C56.3263 26.5607 57.8041 24.566 58.3447 22.2801L56.3983 21.8199C55.9788 23.5939 54.7867 25.2743 53.3751 26.7135C51.9755 28.1405 50.4389 29.2513 49.4616 29.8948L50.5614 31.5652ZM58.3448 22.2796C58.8753 20.0306 58.4104 17.825 57.0264 15.8048L55.3765 16.9352C56.4725 18.535 56.7877 20.1693 56.3982 21.8204L58.3448 22.2796Z" fill="white" mask="url(#path-2-inside-1_402_18688)"/>
<mask id="path-4-inside-2_402_18688" fill="white">
<path d="M42.3812 8.76999C42.1612 8.76999 41.9412 8.65 41.8312 8.44C41.6712 8.14 41.7812 7.76 42.0812 7.59C42.2812 7.48 42.4912 7.36999 42.7012 7.26999C43.0112 7.11999 43.3812 7.23999 43.5412 7.54999C43.6912 7.85999 43.5712 8.22998 43.2612 8.38998C43.0612 8.48998 42.8712 8.59 42.6812 8.69C42.5912 8.74 42.4812 8.76001 42.3812 8.76001"/>
</mask>
<path d="M42.3812 8.76999C42.1612 8.76999 41.9412 8.65 41.8312 8.44C41.6712 8.14 41.7812 7.76 42.0812 7.59C42.2812 7.48 42.4912 7.36999 42.7012 7.26999C43.0112 7.11999 43.3812 7.23999 43.5412 7.54999C43.6912 7.85999 43.5712 8.22998 43.2612 8.38998C43.0612 8.48998 42.8712 8.59 42.6812 8.69C42.5912 8.74 42.4812 8.76001 42.3812 8.76001" fill="white"/>
<path d="M41.8312 8.44L42.717 7.97598L42.7135 7.96941L41.8312 8.44ZM42.0812 7.59L41.5992 6.71371L41.5881 6.71997L42.0812 7.59ZM42.7012 7.26999L43.1311 8.17287L43.1367 8.17015L42.7012 7.26999ZM43.5412 7.54999L44.4413 7.11443L44.4357 7.10281L44.4298 7.09134L43.5412 7.54999ZM43.2612 8.38998L43.7084 9.28448L43.7198 9.2786L43.2612 8.38998ZM42.6812 8.69L42.2154 7.80508L42.2054 7.81035L42.1955 7.81584L42.6812 8.69ZM42.3812 7.76999C42.509 7.76999 42.6435 7.83562 42.717 7.97599L40.9453 8.90401C41.2389 9.46439 41.8133 9.76999 42.3812 9.76999V7.76999ZM42.7135 7.96941C42.8105 8.15135 42.7426 8.36456 42.5742 8.46002L41.5881 6.71997C40.8197 7.15543 40.5318 8.12866 40.9488 8.91059L42.7135 7.96941ZM42.5631 8.46621C42.7515 8.36256 42.9436 8.26215 43.1311 8.17285L42.2712 6.36713C42.0387 6.47783 41.8108 6.59743 41.5992 6.71378L42.5631 8.46621ZM43.1367 8.17015C42.9629 8.25423 42.7434 8.18473 42.6526 8.00863L44.4298 7.09134C44.0189 6.29524 43.0594 5.98575 42.2656 6.36983L43.1367 8.17015ZM42.641 7.98555C42.5569 7.81176 42.6265 7.59224 42.8025 7.50136L43.7198 9.2786C44.5159 8.86773 44.8254 7.90822 44.4413 7.11443L42.641 7.98555ZM42.814 7.49556C42.6032 7.60095 42.4041 7.70576 42.2154 7.80508L43.1469 9.57492C43.3382 9.47424 43.5192 9.37902 43.7084 9.28441L42.814 7.49556ZM42.1955 7.81584C42.2504 7.78534 42.2951 7.77258 42.3205 7.76702C42.3465 7.7613 42.3664 7.76001 42.3812 7.76001V9.76001C42.5959 9.76001 42.8865 9.71991 43.1668 9.56416L42.1955 7.81584Z" fill="white" mask="url(#path-4-inside-2_402_18688)"/>
<path d="M40.1001 9.73312L40.1 9.7331L40.0958 9.73624C34.8478 13.5697 31.7107 19.7193 31.7107 26.19C31.7107 26.2539 31.6546 26.31 31.5907 26.31C31.5221 26.31 31.4707 26.2591 31.4707 26.19C31.4707 19.6415 34.6428 13.4124 39.9527 9.53593C40.0137 9.49338 40.0888 9.51161 40.1238 9.56061C40.1676 9.62184 40.1495 9.69784 40.1001 9.73312Z" fill="white" stroke="white"/>
<path d="M11.2605 20.24V31.87M2.56055 31.87V20.24H26.6006C26.6006 20.24 31.8306 1 52.6606 1C52.6606 1 72.3805 1.00001 76.9805 21.51L77.1906 25L76.9805 31.86" stroke="white" stroke-width="1.59" stroke-miterlimit="10"/>
</svg>
