<svg width="79" height="79" viewBox="0 0 79 79" fill="none" xmlns="http://www.w3.org/2000/svg">
<path d="M13.5096 14.5234C13.8696 14.7434 14.0996 14.9334 14.3696 15.0534C16.9296 16.1734 19.5096 17.2434 22.0496 18.3934C22.8496 18.7534 23.1596 18.5034 23.4696 17.7734C25.4096 13.3134 27.9296 9.19344 30.9296 5.36344C31.1696 5.06344 31.3896 4.74344 31.6196 4.43344C24.4696 5.86344 18.5396 9.28344 13.4996 14.5234M65.8696 14.7834C60.6096 9.32344 54.7096 5.87344 47.6496 4.36344C51.1596 8.83344 53.9996 13.6534 56.3396 19.0334C59.5296 17.6134 62.5796 16.2634 65.8696 14.7934M75.4296 37.5734C74.9996 29.9234 72.4996 23.2334 68.0396 17.3734C64.4396 19.0034 61.0096 20.5534 57.4896 22.1434C59.1896 27.0734 60.0596 32.2234 60.2196 37.5634H75.4296V37.5734ZM19.0096 37.5934C19.1396 32.2034 20.0696 26.9834 21.8196 21.8634C21.3596 21.6734 21.0096 21.5534 20.6696 21.4034C17.8696 20.1734 15.0496 18.9834 12.2896 17.6734C11.4696 17.2834 11.0896 17.3134 10.5496 18.0534C7.4796 22.3334 5.38961 27.0334 4.36961 32.1834C4.01961 33.9334 3.89959 35.7334 3.65959 37.6034H19.0096V37.5934ZM53.0296 19.8534C52.8396 19.3734 52.7096 18.9834 52.5396 18.6134C50.4496 14.0434 47.6596 9.93344 44.6096 5.95344C42.9096 3.73344 40.9596 2.90344 38.2896 3.27344C37.4196 3.39344 36.7396 3.61344 36.1296 4.29344C32.2596 8.60344 29.0796 13.3634 26.6696 18.6334C26.5196 18.9534 26.4196 19.3034 26.2596 19.7434C35.2496 22.1234 44.0796 22.2334 53.0296 19.8634M25.0796 22.8234C24.8996 23.2734 24.6896 23.7134 24.5496 24.1634C23.2596 28.1034 22.5696 32.1534 22.3296 36.2934C22.2496 37.6334 22.2596 37.6734 23.6596 37.6734C34.2596 37.6734 44.8596 37.6734 55.4596 37.6734C55.8996 37.6734 56.3396 37.6334 56.8696 37.6134C56.8696 36.9434 56.8996 36.3834 56.8696 35.8234C56.5996 31.8434 55.8896 27.9534 54.6896 24.1434C54.4096 23.2534 54.1196 23.0434 53.1196 23.2134C49.4796 23.8534 45.8196 24.5434 42.1496 24.8034C36.4496 25.2134 30.8296 24.4134 25.0896 22.8334M14.0796 73.1834C15.3796 71.9534 16.4196 70.9734 17.4596 69.9934C18.6696 68.8534 19.0896 68.8034 20.5396 69.6834C27.2396 73.7534 34.4696 75.6434 42.3296 75.0234C51.0196 74.3434 58.4596 70.9234 64.7296 64.9134C64.8696 64.7834 64.9496 64.6034 65.2296 64.1934C64.6496 64.5134 64.3496 64.6734 64.0596 64.8434C53.1496 71.1034 39.3396 69.6134 30.0496 61.1634C28.3396 59.6034 28.3296 59.0034 29.9596 57.3934C30.9996 56.3734 32.0196 55.3334 33.2196 54.1334C32.6896 54.0534 32.4096 53.9634 32.1296 53.9634C26.5196 53.9634 20.9096 53.9634 15.2996 53.9434C14.3496 53.9434 14.0396 54.3534 14.0296 55.2434C13.9996 60.7734 13.9496 66.3134 13.9096 71.8434C13.9096 72.1634 13.9796 72.4934 14.0596 73.1634M32.9396 59.1434C38.5696 64.5534 49.5096 67.6834 59.6296 63.3834C68.5496 59.5934 76.1196 48.8434 75.2496 41.0334C75.0496 41.0034 74.8296 40.9534 74.6196 40.9534C70.1096 40.9534 65.5996 40.9734 61.0896 40.9234C60.1596 40.9234 60.0596 41.3634 60.0096 42.0934C59.5696 48.4734 57.7996 54.5134 55.1796 60.3134C55.1196 60.4534 55.0196 60.5734 54.8796 60.7934C53.9696 60.3734 53.0596 59.9434 52.1496 59.5234C53.1996 56.4934 54.3996 53.5534 55.2096 50.5134C56.0196 47.4634 56.4396 44.3034 57.0696 41.0434H22.4196C22.5396 42.5134 22.6596 43.9534 22.7896 45.4534C21.7496 45.6334 20.7896 45.7934 19.6296 45.9934C19.4696 44.5934 19.3496 43.2234 19.1296 41.8634C19.0796 41.5334 18.6896 40.9834 18.4596 40.9834C13.6096 40.9334 8.76963 40.9434 3.76963 40.9434C3.87963 45.6734 5.09961 50.0334 6.99961 54.3834C6.04961 54.8334 5.1096 55.2734 3.8596 55.8634C3.0196 53.2234 2.04962 50.7234 1.43962 48.1434C-3.80038 26.1034 10.7596 4.32344 33.1896 0.543441C54.4996 -3.04656 74.7696 11.5334 78.2296 32.9534C81.6996 54.3834 67.4296 74.2834 45.9796 77.8634C36.9196 79.3734 28.3396 77.8134 20.3296 73.3234C19.5296 72.8734 19.0196 72.8334 18.4096 73.5534C17.8496 74.2134 17.1496 74.7534 16.5196 75.3634C15.4996 76.3334 14.3196 76.5434 13.0596 76.0034C11.7296 75.4334 10.7796 74.4834 10.7096 72.9434C10.6496 71.6534 10.6896 70.3634 10.6896 69.0734C10.6996 64.4834 10.7196 59.9034 10.7396 55.3134C10.7596 52.3034 12.3896 50.6434 15.3596 50.6434C21.0496 50.6434 26.7296 50.6334 32.4196 50.6434C34.7796 50.6434 36.5796 52.3634 36.3296 54.5234C36.2396 55.3134 35.7296 56.1234 35.2196 56.7834C34.5596 57.6434 33.7096 58.3534 32.9496 59.1334" fill="#06B2E1"/>
</svg>
