<svg width="79" height="73" viewBox="0 0 79 73" fill="none" xmlns="http://www.w3.org/2000/svg">
<path d="M64.2423 10.3548C62.9731 8.93088 61.7736 7.57659 60.5277 6.17588C59.305 7.55338 58.09 8.9154 56.8131 10.3548C57.231 10.3548 57.5715 10.3548 57.9043 10.3548C58.3376 10.3625 58.5853 10.5947 58.5853 11.0203C58.5853 15.4933 58.5853 19.9664 58.5853 24.4316C58.5853 24.4471 58.5853 24.4548 58.5698 24.5013H57.3161V11.6472C56.6738 11.6472 56.0702 11.6472 55.4743 11.6472C55.1647 11.6472 54.9171 11.5621 54.7855 11.2602C54.654 10.9662 54.7468 10.7185 54.9558 10.4864C56.6274 8.61359 58.2912 6.73307 59.9627 4.86029C60.3497 4.42692 60.7289 4.43466 61.1236 4.87577C62.7874 6.74081 64.4435 8.61359 66.0996 10.4786C66.3163 10.7185 66.4169 10.9739 66.2699 11.2835C66.1306 11.5775 65.8752 11.6549 65.5733 11.6472C64.9852 11.6394 64.3971 11.6472 63.7625 11.6472V20.005H62.4701V19.6258C62.4701 16.8167 62.4701 14.0152 62.4701 11.2061C62.4701 10.5638 62.6713 10.3625 63.2981 10.3548C63.5767 10.3548 63.8631 10.3548 64.2423 10.3548Z" fill="#06B2E1"/>
<path d="M69.1565 36.1404C68.4987 36.1404 67.9028 36.1404 67.3147 36.1404C67.0051 36.1404 66.7575 36.063 66.6182 35.7689C66.4789 35.4594 66.5872 35.204 66.7962 34.9641C68.4523 33.1068 70.0929 31.2495 71.749 29.3922C72.1746 28.9201 72.5461 28.9124 72.964 29.3922C74.6123 31.2495 76.2607 33.1068 77.9168 34.9641C78.1335 35.204 78.2418 35.4516 78.1025 35.7689C77.9632 36.0862 77.6923 36.1559 77.375 36.1481C76.8024 36.1404 76.222 36.1481 75.6029 36.1481V45.7983H74.3028V35.7302C74.3028 35.0569 74.4885 34.8712 75.1618 34.8712H76.0827C74.8135 33.4473 73.6063 32.0853 72.3681 30.6923C71.1299 32.0853 69.9227 33.4395 68.6535 34.8712C69.0869 34.8712 69.4274 34.8635 69.7679 34.8712C70.178 34.879 70.4257 35.1189 70.4257 35.529C70.4257 39.3442 70.4257 43.1594 70.4257 46.9669C70.4257 47.0056 70.4102 47.0443 70.3947 47.0985H69.1565V36.1558V36.1404Z" fill="#06B2E1"/>
<path d="M11.1545 18.1632C9.91628 19.5562 8.70904 20.9182 7.43989 22.3421C7.86552 22.3421 8.19057 22.3421 8.52333 22.3421C8.96444 22.3499 9.21209 22.582 9.21209 23.0077C9.21209 26.4205 9.21209 29.8255 9.21209 33.2693H7.93518V23.6268C7.29286 23.6268 6.69697 23.6268 6.09335 23.6268C5.7838 23.6268 5.53615 23.5416 5.40459 23.2476C5.27303 22.9535 5.35817 22.7059 5.56712 22.4737C7.23869 20.6009 8.9025 18.7204 10.5741 16.8476C10.961 16.4142 11.348 16.4142 11.7349 16.8476C13.4065 18.7204 15.0703 20.6009 16.7341 22.4737C16.9431 22.7059 17.0205 22.9535 16.8889 23.2476C16.7496 23.5416 16.502 23.6268 16.1924 23.619C15.6043 23.6113 15.0162 23.619 14.3816 23.619V30.0422H13.0815V29.6707C13.0815 27.4961 13.0815 25.3216 13.0815 23.147C13.0815 22.5356 13.2904 22.3344 13.9095 22.3344C14.1881 22.3344 14.4744 22.3344 14.8614 22.3344C13.6 20.9182 12.4004 19.5639 11.1545 18.1555" fill="#06B2E1"/>
<path d="M31.2053 17.4513H45.019C45.019 16.5226 44.9803 15.6404 45.0344 14.7582C45.0809 14.0075 44.8487 13.7444 44.0594 13.7599C41.3198 13.8063 38.5803 13.7754 35.8485 13.7754C34.533 13.7754 33.2173 13.7521 31.9095 13.7986C31.6696 13.8063 31.2594 14.0927 31.244 14.2706C31.1821 15.2999 31.213 16.3292 31.213 17.4513M26.7632 69.6415H49.4456V19.9664H26.7632V69.6415ZM36.901 6.0366V2.1827C36.901 1.87315 36.8855 1.5636 36.901 1.26179C36.9474 0.487911 37.3808 0.0158466 38.0773 0.000369103C38.8048 -0.0151084 39.3078 0.456956 39.3232 1.26953C39.3542 2.46903 39.331 3.67628 39.331 4.87579V6.0366C40.3448 6.0366 41.3044 6.0366 42.2717 6.0366C43.5641 6.0366 43.8968 6.36937 43.9046 7.66948C43.9046 8.67552 43.92 9.68156 43.9046 10.6876C43.8968 11.1906 44.0903 11.3996 44.5933 11.3763C45.0964 11.3531 45.5994 11.3609 46.1024 11.3763C47.0156 11.415 47.4103 11.802 47.418 12.7384C47.4335 14.2706 47.418 15.8029 47.418 17.4822C48.3544 17.4822 49.2056 17.4822 50.0646 17.4822C51.6201 17.4822 51.9452 17.8073 51.9452 19.3318C51.9452 35.7225 51.9452 52.1054 51.9452 68.4961C51.9452 69.2906 52.3321 69.6879 53.106 69.6879C54.1043 69.6879 55.1026 69.6879 56.2247 69.6879C56.2247 68.4652 56.2557 67.3276 56.217 66.1977C56.1937 65.5786 56.3872 65.3542 57.0218 65.3697C59.0339 65.4084 58.6082 65.2226 58.6546 66.9406C58.6701 67.6139 58.6933 68.2872 58.6546 68.9527C58.616 69.5564 58.8713 69.7343 59.4363 69.7034C60.1328 69.6647 60.837 69.6956 61.5335 69.6956C62.3022 69.6956 62.6891 69.3216 62.6943 68.5735C62.6943 65.7489 62.6943 62.9242 62.6943 60.0996C62.6943 57.2749 62.6633 54.6747 62.7175 51.9584C62.733 51.1304 62.4621 50.9137 61.6728 50.9369C59.8929 50.9911 58.1052 50.9524 56.2789 50.9524V48.5147C57.0218 48.5147 57.7338 48.5147 58.4535 48.5147C60.1328 48.5147 61.8121 48.5147 63.4837 48.5147C64.6832 48.5147 65.0779 48.9171 65.0779 50.1321C65.0779 56.2844 65.0779 62.4367 65.0779 68.589C65.0779 69.3165 65.4467 69.6802 66.1845 69.6802C67.0512 69.6802 67.918 69.6647 68.7847 69.6802C69.7907 69.6956 70.3711 70.16 70.3711 70.9106C70.3711 71.6613 69.7985 72.0947 68.777 72.0947C48.1996 72.0947 27.6223 72.0947 7.03715 72.0947C5.24949 72.0947 3.46184 72.0947 1.66645 72.0947C0.683623 72.0947 0.172863 71.6845 0.165124 70.9261C0.157386 70.1677 0.675854 69.6879 1.63546 69.6879C4.70775 69.6724 7.78781 69.6802 10.8601 69.6802H11.9977C11.9977 68.5194 12.0364 67.4359 11.9822 66.3602C11.9435 65.6096 12.1757 65.3232 12.965 65.3542C14.6366 65.4161 14.358 65.2381 14.3812 66.8091C14.389 67.5365 14.4044 68.264 14.3812 68.9914C14.3657 69.479 14.5283 69.7111 15.0467 69.6879C15.7742 69.657 16.5016 69.657 17.2291 69.6879C17.7708 69.7111 17.8946 69.4557 17.8869 68.9837C17.8714 68.0086 17.9023 67.0258 17.8869 66.0507C17.8714 65.5399 18.0803 65.3697 18.5756 65.3697C20.6496 65.3852 20.2317 65.2304 20.2704 66.9639C20.2859 67.6604 20.2936 68.3646 20.2704 69.0611C20.2627 69.5331 20.4639 69.7034 20.9282 69.6879C21.8181 69.6647 22.7159 69.657 23.6136 69.6879C24.1166 69.7034 24.3101 69.5254 24.3023 69.0146C24.2791 67.8693 24.3023 66.724 24.3023 65.5786C24.3023 50.1708 24.3023 34.7629 24.3023 19.355C24.3023 17.8073 24.6196 17.5054 26.1596 17.4822C27.0109 17.4668 28.1407 17.7067 28.636 17.2578C29.0694 16.8709 28.7985 15.6868 28.8217 14.8511C28.8372 14.1778 28.8217 13.5122 28.8217 12.839C28.8372 11.7633 29.201 11.3841 30.2921 11.3763C33.6198 11.3686 36.9474 11.3763 40.2751 11.3763C41.1057 11.3763 41.5236 10.9739 41.5288 10.1691C41.5288 9.02376 40.9509 8.4511 39.7953 8.4511C37.8374 8.4511 35.8795 8.47431 33.9216 8.43562C33.4805 8.42788 32.931 8.28084 32.6524 7.97903C32.4125 7.72365 32.3042 7.08134 32.4667 6.77178C32.637 6.43128 33.1632 6.10625 33.5578 6.0753C34.6335 5.98243 35.717 6.04434 36.9087 6.04434" fill="#06B2E1"/>
<path d="M5.15723 66.2674V61.1598C5.15723 54.2491 5.15723 47.3461 5.15723 40.4431C5.15723 38.965 5.49004 38.64 6.99136 38.64C11.1316 38.64 15.2641 38.6555 19.4043 38.6245C20.1008 38.6245 20.3407 38.8257 20.3175 39.5222C20.2633 41.395 20.4336 41.0545 18.8162 41.0622C15.3801 41.0854 11.9364 41.0932 8.50038 41.0545C7.75746 41.0467 7.56402 41.2634 7.56402 41.9986C7.58723 49.66 7.57946 57.3214 7.57946 64.9827C7.57946 66.4763 7.65688 66.2442 6.25616 66.2674C5.93114 66.2674 5.59834 66.2674 5.15723 66.2674Z" fill="#06B2E1"/>
<path d="M74.6586 72.1179C74.0705 72.1179 73.4823 72.1334 72.8942 72.1179C72.2054 72.0947 71.7875 71.7232 71.7334 71.0422C71.6792 70.3689 72.0042 69.8272 72.6852 69.7963C73.9931 69.7266 75.3087 69.7189 76.6165 69.7963C77.2898 69.835 77.638 70.3689 77.5761 71.0499C77.5142 71.7232 77.104 72.1024 76.4153 72.1256C75.8271 72.1411 75.239 72.1256 74.6509 72.1256" fill="#06B2E1"/>
<path d="M58.6009 55.6111H56.2793V60.324H58.6009V55.6111Z" fill="#06B2E1"/>
<path d="M14.3273 45.7983V50.4803C14.2267 50.5345 14.1802 50.5732 14.1261 50.5809C12.7021 50.6583 11.9876 49.985 11.9824 48.5611C11.9824 47.8336 11.9979 47.1062 11.9824 46.3865C11.9824 45.9609 12.1527 45.7829 12.5861 45.7983C13.1355 45.8216 13.6927 45.7983 14.3195 45.7983" fill="#06B2E1"/>
<path d="M20.2093 50.5654H17.8799C17.8799 49.9463 17.8799 49.3195 17.8799 48.7004C17.8799 48.3676 17.8799 48.0271 17.8799 47.6944C17.8876 45.5662 17.9882 45.4888 20.2093 45.9145V50.5654Z" fill="#06B2E1"/>
<path d="M14.3118 60.3704C13.654 60.3704 13.0504 60.3937 12.4468 60.355C12.292 60.3395 12.0212 60.1228 12.0212 59.9912C11.9902 58.5441 11.9979 57.1047 11.9979 55.6188H14.3118V60.3782V60.3704Z" fill="#06B2E1"/>
<path d="M20.2012 55.6111H17.9492V60.3317H20.2012V55.6111Z" fill="#06B2E1"/>
<path d="M45.337 32.3019H30.8887V34.6313H45.337V32.3019Z" fill="#06B2E1"/>
<path d="M45.3214 39.8163H30.8809V42.1379H45.3214V39.8163Z" fill="#06B2E1"/>
<path d="M45.3291 54.783H30.8809V57.1124H45.3291V54.783Z" fill="#06B2E1"/>
<path d="M45.3215 62.2974H30.8887V64.619H45.3215V62.2974Z" fill="#06B2E1"/>
<path d="M45.3985 27.1247H30.8419C30.8419 26.4514 30.7877 25.7937 30.8806 25.1513C30.9038 24.9966 31.3759 24.8031 31.6467 24.8031C34.6029 24.7799 37.5668 24.7876 40.5231 24.7876C41.916 24.7876 43.3168 24.8031 44.7098 24.7876C45.1896 24.7876 45.4372 24.9192 45.4062 25.4531C45.3675 25.9794 45.4062 26.5056 45.4062 27.1402" fill="#06B2E1"/>
<path d="M30.8964 49.598C30.7365 48.0297 31.3969 47.248 32.8776 47.2532C36.6773 47.2532 40.4693 47.2532 44.269 47.2532C45.0223 47.2532 45.3989 47.6324 45.3989 48.3908V49.5903H30.8964V49.598Z" fill="#06B2E1"/>
</svg>
