<svg width="79" height="78" viewBox="0 0 79 78" fill="none" xmlns="http://www.w3.org/2000/svg">
<path d="M75.386 54.6307H67.6888V75.3223H75.386V54.6307ZM65.0097 75.3572C65.0271 75.1565 65.0446 75.0256 65.0446 74.8947C65.0446 68.0702 65.0446 61.2545 65.0271 54.43C65.0271 54.1246 64.7653 53.7319 64.5122 53.5399C58.6128 49.1764 50.4007 48.8448 44.1261 52.7021C43.5065 53.0861 42.8868 53.278 42.1538 53.2693C38.9859 53.2344 35.818 53.2344 32.6501 53.2693C30.0059 53.2955 28.1994 55.5994 28.8103 58.1041C29.2466 59.8931 30.7825 61.0538 32.7723 61.0625C38.0259 61.0712 43.2796 61.0625 48.5245 61.0625H49.3884V63.6544C44.702 63.6544 40.0768 63.6544 35.4428 63.6544C33.5228 63.6544 31.5243 63.9686 29.7004 63.5409C27.8852 63.1133 26.2358 61.9439 24.5166 61.0974C24.2024 60.9403 23.8883 60.7832 23.5741 60.6261C18.8179 58.2437 14.053 55.8612 9.2968 53.4788C7.55141 52.6061 5.87585 52.7283 4.37482 53.9762C2.89124 55.2067 2.39379 56.8299 2.83887 58.7149C3.22285 60.3643 4.44463 61.2545 5.84094 62.0137C12.805 65.7838 19.7517 69.5713 26.6896 73.3762C29.1157 74.7114 31.6902 75.3572 34.4479 75.3572C44.3268 75.3485 54.2057 75.3572 64.0933 75.3572H65.0097ZM26.2184 59.0029C26.2184 57.8335 26.0613 56.7601 26.2446 55.7565C26.8031 52.7981 29.4386 50.6861 32.432 50.6687C35.5213 50.6512 38.6019 50.6774 41.6912 50.6512C42.1189 50.6512 42.5901 50.5029 42.9741 50.3022C51.0029 45.9736 58.7612 46.4361 66.2925 51.5501C66.6416 51.7857 67.1216 51.9516 67.5405 51.9603C70.4902 51.9952 73.4399 51.9777 76.3896 51.9777C77.6201 51.9777 78.0303 52.3966 78.0303 53.6359C78.0303 61.1585 78.0303 68.6898 78.0303 76.2125C78.0303 77.5651 77.6463 77.9579 76.3111 77.9579C62.156 77.9579 48.0008 77.9579 33.837 77.9579C30.992 77.9579 28.3303 77.251 25.8344 75.8983C18.495 71.9101 11.1644 67.9131 3.84246 63.8987C1.11092 62.4064 -0.329022 59.5178 0.107326 56.5681C0.569854 53.4526 2.79524 51.0701 5.90203 50.4418C7.5427 50.1102 9.11355 50.4418 10.6146 51.201C15.4842 53.662 20.3713 56.0969 25.2497 58.5404C25.5377 58.68 25.8257 58.8197 26.2184 59.0029Z" fill="#06B2E1"/>
<path d="M29.6051 2.62681C29.6225 2.74026 29.6138 2.82753 29.6487 2.89735C30.8268 5.26235 31.9963 7.63608 33.218 9.98363C33.3227 10.1931 33.7155 10.3676 33.9773 10.3676C37.3546 10.3938 40.7406 10.3676 44.118 10.3938C44.5892 10.3938 44.8423 10.2454 45.0431 9.82655C45.9681 7.90662 46.9368 6.00414 47.888 4.09294C48.1237 3.62168 48.3506 3.1417 48.6036 2.61809H29.6138L29.6051 2.62681ZM47.6437 10.4811C55.0529 11.6854 60.3501 16.4765 62.0082 23.4493C62.2526 24.4704 62.4184 25.5351 62.4184 26.5736C62.462 32.665 62.4359 38.7564 62.4359 44.8391V45.4238H59.844V44.5598C59.844 38.8175 59.8614 33.0839 59.844 27.3415C59.8091 20.5956 55.4281 15.0104 48.8916 13.4133C47.7222 13.1253 46.4917 13.0119 45.2787 12.9944C41.1421 12.9421 36.9968 12.9682 32.8515 12.977C25.5994 12.9857 19.8134 17.7855 18.4869 24.9154C18.3124 25.8405 18.2775 26.8005 18.2775 27.743C18.26 35.0474 18.2688 42.3606 18.2688 49.6651V50.6076H15.6769V49.7262C15.6769 42.4479 15.8078 35.1609 15.642 27.8826C15.4587 19.6705 21.1923 11.8337 30.4778 10.4811C30.3294 10.1756 30.1985 9.88763 30.0589 9.6171C28.8284 7.1561 27.5891 4.6951 26.3674 2.22537C25.6867 0.855241 26.219 0 27.7375 0C35.2863 0 42.8438 0 50.3927 0C51.9024 0 52.4348 0.855241 51.7541 2.22537C50.5236 4.6951 49.2931 7.1561 48.0538 9.62583C47.9229 9.88763 47.8008 10.1582 47.6437 10.4898" fill="#06B2E1"/>
<path d="M23.4601 32.4643H20.938C20.9118 32.281 20.8682 32.0977 20.8682 31.9232C20.9205 29.6804 20.8682 27.4376 21.0689 25.2122C21.2783 22.9083 22.7968 20.3164 24.4287 18.955C24.9873 19.5571 25.5458 20.168 26.1567 20.8225C26.0432 20.9534 25.8687 21.1541 25.6942 21.3549C24.1844 23.109 23.4863 25.1598 23.4688 27.455C23.4514 29.0957 23.4688 30.7451 23.4688 32.4555" fill="#06B2E1"/>
<path d="M29.6225 15.8743C29.8669 16.8343 30.0763 17.611 30.2858 18.4139C29.5353 18.728 28.8196 19.0248 27.9818 19.3738C27.5717 18.667 27.1528 17.9339 26.6641 17.0961C27.6677 16.6859 28.5927 16.3019 29.6225 15.8743Z" fill="#06B2E1"/>
<path d="M72.7676 68.9255H70.3066V71.4476H72.7676V68.9255Z" fill="#06B2E1"/>
<path d="M36.83 27.3241C36.83 28.7989 36.7689 30.2825 36.8474 31.7574C36.9347 33.5551 35.6955 35.0562 33.7756 35.4314C31.8207 35.8154 29.8135 34.6373 29.351 32.7959C29.2986 32.569 29.2725 32.3246 29.2725 32.0977C29.2812 31.5392 29.6652 31.1465 30.1713 31.1203C30.66 31.1028 31.0964 31.4432 31.14 31.9668C31.2011 32.761 31.6375 33.2322 32.3531 33.4679C33.1385 33.7209 33.9152 33.6249 34.4825 33.014C34.753 32.7173 34.9275 32.2112 34.9275 31.7923C34.9624 28.6593 34.9537 25.5263 34.945 22.3933C34.945 21.861 35.0933 21.4508 35.6431 21.3112C36.3151 21.1367 36.83 21.5643 36.8387 22.3061C36.8387 23.9817 36.8387 25.6572 36.8387 27.3328" fill="#06B2E1"/>
<path d="M37.7814 26.4776C37.7814 25.0987 37.7814 23.7199 37.7814 22.341C37.7814 21.6603 38.1043 21.3025 38.7065 21.2938C39.3348 21.2938 39.6665 21.6428 39.6665 22.3584C39.6665 24.9591 39.6665 27.5597 39.6665 30.1603C39.6665 30.9283 39.9108 31.2861 40.6177 31.5305C41.3159 31.7748 42.014 31.7486 42.686 31.4519C43.1049 31.2687 43.3841 30.9807 43.4627 30.492C43.5499 29.8985 44.0125 29.5407 44.5099 29.6105C45.0423 29.6891 45.3652 30.108 45.339 30.7189C45.3041 31.4694 44.955 32.0628 44.4139 32.569C42.8867 33.9827 40.0592 33.9304 38.593 32.4555C38.0607 31.9145 37.7727 31.2774 37.7814 30.5007C37.7989 29.1655 37.7814 27.8215 37.7814 26.4863" fill="#06B2E1"/>
<path d="M49.1271 31.5741C49.0572 32.9879 48.8565 34.5238 48.1496 35.9463C47.0064 38.2589 45.069 39.2625 42.5557 39.2625C42.0146 39.2625 41.587 38.8524 41.5608 38.3637C41.5346 37.875 41.936 37.3862 42.4597 37.3862C45.8108 37.3862 46.8493 35.0649 47.1198 32.4642C47.1809 31.897 47.1984 31.321 47.2333 30.7538C47.2769 30.1603 47.6609 29.7851 48.2194 29.8025C48.7431 29.82 49.1009 30.1952 49.1183 30.7712C49.1271 30.9894 49.1183 31.2076 49.1183 31.5741" fill="#06B2E1"/>
<path d="M38.7327 35.4314C38.7589 34.9078 39.169 34.5238 39.7014 34.5326C40.225 34.55 40.6265 34.9602 40.6177 35.4925C40.6177 36.0423 40.1639 36.4525 39.6141 36.4176C39.0905 36.3914 38.7065 35.9551 38.7327 35.4314Z" fill="#06B2E1"/>
<path d="M43.454 35.4838C43.454 36.0161 43.0525 36.4176 42.5289 36.4263C41.9704 36.4263 41.5602 36.0074 41.5777 35.4489C41.5951 34.9253 42.0053 34.5326 42.5376 34.5413C43.07 34.55 43.4627 34.9602 43.4627 35.4838" fill="#06B2E1"/>
</svg>
