<svg width="79" height="79" viewBox="0 0 79 79" fill="none" xmlns="http://www.w3.org/2000/svg">
<path d="M72.886 68.5663C72.7837 68.4469 72.6473 68.2764 72.5023 68.1229C71.6069 67.2104 71.4449 66.1615 71.9309 64.9932C72.2379 64.2684 72.5364 63.5521 72.8349 62.8272C73.2953 61.7186 74.1055 61.1132 75.3335 61.1047C75.5722 61.1047 75.8025 61.1047 76.0754 61.1047V55.9028H75.3164C74.1652 55.9028 73.3636 55.3315 72.886 54.3167C72.5023 53.481 72.1612 52.6282 71.8371 51.7754C71.4619 50.7777 71.641 49.8653 72.3403 49.0551C72.5279 48.8334 72.7325 48.6287 72.869 48.4838C71.641 47.2473 70.4642 46.0705 69.2533 44.851C69.0998 44.996 68.9036 45.1751 68.7075 45.3541C67.8803 46.079 66.9423 46.2666 65.919 45.8743C65.0577 45.5503 64.2049 45.2177 63.3777 44.8254C62.397 44.3649 61.8342 43.5804 61.8257 42.4548C61.8257 42.1904 61.8257 41.9346 61.8257 41.6617H56.6494C56.6409 41.8493 56.6238 41.9772 56.6238 42.1136C56.5897 43.7254 56.0866 44.4332 54.5687 45.0386C53.9632 45.2774 53.3748 45.5417 52.7779 45.789C51.584 46.3007 50.5095 46.1387 49.58 45.2092C49.4351 45.0642 49.2645 44.9448 49.2133 44.9022C47.9854 46.1387 46.8171 47.3155 45.6147 48.5264C45.6573 48.5691 45.7597 48.697 45.8705 48.8078C46.9024 49.8994 47.0473 50.8118 46.4333 52.2104C46.2543 52.6026 46.0411 52.9864 45.9302 53.4042C45.4441 55.1524 44.3782 56.0819 42.5106 55.9369C42.468 55.9369 42.4254 55.9966 42.3998 56.0137V61.0876C44.3185 61.1899 45.0604 61.5566 45.555 62.6737C45.9302 63.5094 46.2798 64.3622 46.6039 65.2235C46.9962 66.2468 46.8086 67.1849 46.0837 68.012C45.9046 68.2082 45.7256 68.4043 45.6573 68.4811C46.8853 69.709 48.0706 70.9029 49.2901 72.1309C50.4328 70.6812 51.891 70.6812 53.4772 71.551C53.6648 71.6533 53.8609 71.7557 54.0741 71.8068C55.8564 72.2758 56.82 73.3503 56.6665 75.2605C56.6665 75.2946 56.7347 75.3373 56.7603 75.3714H61.8172C61.8257 75.1752 61.8428 75.0217 61.8428 74.8682C61.8769 73.2992 62.4056 72.5658 63.8638 72.003C64.546 71.7386 65.2112 71.4401 65.8848 71.1672C66.9423 70.7494 67.8974 70.9285 68.7416 71.6789C68.9377 71.858 69.1339 72.0371 69.2874 72.182C70.5068 70.9626 71.6922 69.7858 72.9031 68.5749M76.4506 63.7141C75.5893 63.4583 75.2396 63.987 74.8474 64.8398C74.3784 65.8545 74.4722 66.4856 75.3079 67.236C76.5529 68.3531 76.4932 68.8563 75.3079 70.0416C73.7388 71.6107 72.1697 73.1798 70.6006 74.7489C69.6541 75.6954 68.9974 75.7551 68.1447 74.7489C67.3431 73.8023 66.6353 73.5379 65.4414 74.169C64.691 74.5612 64.3669 74.9023 64.4522 75.7039C64.4863 76.0536 64.4693 76.4117 64.4437 76.7614C64.3925 77.4947 63.9235 77.9893 63.1986 77.9979C60.5721 78.0149 57.9456 78.0149 55.3191 77.9979C54.5857 77.9979 54.1253 77.5033 54.057 76.7784C54.057 76.7273 54.057 76.6676 54.057 76.6164C54.0315 75.9512 54.2446 75.0814 53.9035 74.6636C53.5027 74.1604 52.6415 74.0155 51.9507 73.7767C51.7631 73.7085 51.4391 73.7852 51.277 73.9217C50.8592 74.2542 50.501 74.6806 50.1002 75.0388C49.4777 75.5846 48.787 75.6187 48.2071 75.0473C46.3566 73.2224 44.5146 71.389 42.6982 69.5299C42.161 68.9842 42.1951 68.2934 42.6982 67.705C42.7153 67.688 42.7324 67.6539 42.7494 67.6453C44.2844 66.7414 44.1565 65.5305 43.3293 64.2428C43.1843 64.0211 42.8944 63.8079 42.6386 63.7653C42.1354 63.6885 41.6152 63.7397 41.1036 63.7141C40.2679 63.68 39.7733 63.2195 39.7647 62.4094C39.7477 59.8085 39.7477 57.2075 39.7647 54.6151C39.7647 53.8391 40.2679 53.3786 41.0439 53.3275C41.0695 53.3275 41.1036 53.3275 41.1206 53.3275C42.92 53.805 43.6107 52.7305 43.9859 51.2467C44.0371 51.0335 43.9944 50.7265 43.8665 50.5645C43.534 50.1467 43.1076 49.7885 42.7494 49.3877C42.1781 48.7481 42.161 48.0489 42.7579 47.4349C44.5402 45.6185 46.3395 43.8192 48.1559 42.0369C48.7955 41.4059 49.6056 41.3462 50.1429 42.071C51.115 43.3843 52.1298 43.4781 53.4601 42.6679C53.878 42.4206 54.057 42.2245 54.04 41.764C54.0229 41.2779 54.04 40.7919 54.057 40.3058C54.0997 39.5212 54.5602 39.0352 55.3362 39.0266C57.9371 39.0096 60.538 39.0096 63.1304 39.0266C63.9491 39.0266 64.546 39.5554 64.4096 40.357C64.1367 41.9943 64.7848 42.8214 66.3368 43.2137C66.8058 43.3331 67.0702 43.3416 67.3772 42.992C67.6074 42.7276 67.8718 42.4974 68.1276 42.2501C69.0742 41.3376 69.6626 41.3462 70.6091 42.2842C72.2379 43.9044 73.8667 45.5332 75.4869 47.162C76.4165 48.1 76.4761 48.7652 75.4614 49.618C74.4892 50.4366 74.2845 51.1615 74.9156 52.3297C75.2908 53.029 75.5807 53.4213 76.3823 53.2934C76.5955 53.2592 76.8173 53.2934 77.0304 53.2934C78.3693 53.3189 78.7274 53.6942 78.7274 55.0671C78.7274 57.3696 78.7274 59.672 78.7274 61.966C78.7274 63.3048 78.3437 63.6885 76.9878 63.6885H76.442" fill="#06B2E1"/>
<path d="M11.1719 65.0274C12.9627 64.8312 13.8836 65.7266 14.5062 67.219C15.1457 68.7369 14.9155 69.9904 13.8069 70.9541C14.4379 71.5936 14.9922 72.165 15.5892 72.779C16.621 71.5254 17.9001 71.4572 19.401 72.0712C20.9189 72.6937 21.6864 73.7085 21.5414 75.3543H24.1509C23.9633 73.6062 24.8246 72.6767 26.3254 72.0456C27.8519 71.406 29.1054 71.6022 30.1202 72.8046C30.7598 72.1906 31.3397 71.6278 31.911 71.0735C29.7365 68.2593 30.9048 65.4623 34.4778 64.9336V62.4691C30.9559 62.1024 29.7962 59.2883 31.911 56.3292C31.3397 55.7579 30.7769 55.1865 30.1543 54.564C29.0713 55.8346 27.8178 55.9966 26.2913 55.3656C24.7478 54.726 23.9462 53.7198 24.1083 52.0483H21.6011C21.1065 55.6299 18.3265 56.7897 15.5209 54.6748C14.9325 55.2633 14.3612 55.8517 13.7472 56.4656C15.0093 57.5231 15.069 58.7937 14.4465 60.3031C13.8154 61.8295 12.8006 62.5714 11.1548 62.4264V65.0359L11.1719 65.0274ZM15.5551 51.17C16.152 51.6731 16.7063 52.1421 17.2776 52.6026C17.4908 52.7732 17.7722 53.0717 17.9684 53.029C18.4544 52.9352 19.0173 52.7817 18.8979 52.0569C18.8979 52.0057 18.8979 51.946 18.8979 51.8948C18.8467 49.3792 19.3925 49.3621 21.4647 49.4048C22.7353 49.4304 24.0059 49.4048 25.2851 49.4133C26.2572 49.4218 26.7092 49.8908 26.7348 50.863C26.7433 51.2382 26.7518 51.622 26.7348 51.9972C26.7177 52.3894 26.7348 52.705 27.2208 52.8755C27.6557 53.029 27.9798 53.0972 28.2783 52.6794C28.2953 52.6623 28.3209 52.6453 28.338 52.6197C30.197 50.8801 30.2652 50.8801 32.0389 52.6538C32.9002 53.5151 33.7701 54.3678 34.6228 55.2377C35.3903 56.0137 35.3903 56.6277 34.6569 57.4207C34.4181 57.6766 34.1623 57.9239 33.915 58.1712C33.6507 58.4355 33.3693 58.6317 33.591 59.1177C33.7956 59.5868 34.06 59.7999 34.5631 59.7573C34.7763 59.7403 34.998 59.7658 35.2112 59.7744C36.8912 59.8255 37.147 60.0984 37.147 61.8125C37.147 63.2195 37.147 64.6266 37.147 66.0336C37.147 67.1166 36.7036 67.5686 35.6376 67.5857C35.288 67.5857 34.9298 67.5857 34.5802 67.5857C34.1964 67.5857 33.8809 67.5601 33.6848 68.0462C33.4886 68.5322 33.5654 68.8136 33.915 69.1718C35.6888 71.0308 35.6802 71.099 33.8553 72.924C32.994 73.7852 32.1413 74.6551 31.2715 75.5078C30.5296 76.2241 29.907 76.2156 29.1481 75.5078C28.8752 75.2435 28.6364 74.9279 28.3294 74.7233C28.0821 74.5613 27.741 74.4333 27.4596 74.4589C27.0247 74.5016 26.7603 74.783 26.7945 75.2946C26.82 75.7807 26.7945 76.2668 26.7518 76.7529C26.6921 77.4862 26.2316 77.9638 25.4897 77.9723C23.733 77.9979 21.9678 77.9979 20.2111 77.9723C19.4863 77.9638 19.0173 77.4606 18.9746 76.7358C18.949 76.3009 18.9576 75.866 18.9746 75.4396C18.9917 75.0132 18.9746 74.6977 18.4459 74.5016C17.9769 74.331 17.7211 74.4248 17.397 74.7403C15.5295 76.5226 15.4698 76.5226 13.6449 74.6977C12.7836 73.8364 11.9138 72.9836 11.061 72.1138C10.3361 71.3719 10.3361 70.7494 11.0354 69.9905C11.2912 69.7176 11.6153 69.4788 11.82 69.1718C11.9905 68.9245 12.1269 68.5919 12.1014 68.3105C12.0587 67.8244 11.7176 67.5857 11.1974 67.6198C10.7625 67.6454 10.3276 67.6112 9.90124 67.5857C9.06553 67.5345 8.59651 67.0825 8.58799 66.2554C8.57093 64.5498 8.57093 62.8443 8.58799 61.1388C8.59651 60.2775 9.09112 59.8255 9.96946 59.7999C10.3532 59.7914 10.7284 59.7914 11.1036 59.7999C11.513 59.8085 11.8455 59.8255 12.0502 59.2968C12.2549 58.7852 12.1014 58.5208 11.7773 58.1797C10.0462 56.3548 10.0547 56.278 11.8455 54.4872C12.7068 53.6259 13.5596 52.7476 14.4379 51.9119C14.7193 51.6475 15.086 51.477 15.5892 51.1529" fill="#06B2E1"/>
<path d="M47.2172 20.8202C44.6589 17.9463 42.237 15.2175 39.7299 12.4034C37.2569 15.1834 34.818 17.9208 32.2341 20.8202C33.0784 20.8202 33.7606 20.8116 34.4428 20.8202C35.3211 20.8372 35.8157 21.3062 35.8157 22.1675C35.8157 31.1812 35.8158 40.1949 35.8072 49.2086C35.8072 49.2342 35.7987 49.2598 35.7731 49.345H33.2404V23.4125C31.9442 23.4125 30.7333 23.3955 29.5224 23.4125C28.8913 23.4211 28.3967 23.2335 28.1409 22.6365C27.8851 22.0481 28.0641 21.545 28.482 21.0845C31.8504 17.3068 35.2018 13.5205 38.5702 9.74277C39.3462 8.87295 40.1222 8.88148 40.9067 9.76835C44.2581 13.529 47.5924 17.2982 50.9352 21.0589C51.3701 21.545 51.5833 22.0567 51.2849 22.6792C51.0034 23.2761 50.5003 23.4296 49.8778 23.4211C48.6925 23.404 47.5071 23.4211 46.228 23.4211V40.2717H43.6185V39.5042C43.6185 33.8504 43.6185 28.188 43.6185 22.5342C43.6185 21.2295 44.0193 20.8287 45.2899 20.8287C45.8613 20.8287 46.4241 20.8287 47.2001 20.8287" fill="#06B2E1"/>
<path d="M60.5633 14.3136C59.233 14.3136 58.0476 14.2966 56.8538 14.3136C56.2313 14.3222 55.7281 14.1601 55.4552 13.5632C55.1653 12.9407 55.387 12.429 55.8219 11.9429C59.1562 8.20785 62.4735 4.4557 65.7993 0.720598C66.652 -0.234495 67.4024 -0.243023 68.2467 0.712071C71.5724 4.44717 74.8982 8.19932 78.224 11.9344C78.6589 12.4205 78.8891 12.9236 78.5992 13.5547C78.3093 14.1942 77.772 14.3307 77.1239 14.3222C75.9642 14.2966 74.7959 14.3222 73.5509 14.3222V33.7651H70.9243V13.4523C70.9243 12.0964 71.3081 11.7212 72.6555 11.7127C73.2097 11.7127 73.7726 11.7127 74.5145 11.7127C71.9562 8.83889 69.5258 6.10153 67.0272 3.28741C64.5372 6.093 62.0983 8.82184 59.54 11.7127C60.4098 11.7127 61.1005 11.6956 61.7913 11.7127C62.6099 11.7383 63.1131 12.2073 63.1131 13.0345C63.1216 20.7179 63.1131 28.4098 63.1131 36.0932C63.1131 36.1699 63.0789 36.2467 63.0534 36.3575H60.5548V14.3136H60.5633Z" fill="#06B2E1"/>
<path d="M12.4418 22.7901C9.94323 25.6042 7.51286 28.3416 4.95457 31.2154C5.80733 31.2154 6.47249 31.2069 7.13764 31.2154C8.01599 31.2324 8.52764 31.7015 8.52764 32.5542C8.53617 39.4275 8.52764 46.3008 8.52764 53.2422H5.9523V33.8078C4.6561 33.8078 3.44518 33.7993 2.24279 33.8078C1.62027 33.8163 1.11714 33.6372 0.852785 33.0403C0.588429 32.4519 0.767509 31.9488 1.18536 31.4883C4.55377 27.7105 7.90513 23.9243 11.2735 20.1465C12.0496 19.2767 12.8256 19.2767 13.6101 20.1551C16.9785 23.9328 20.3299 27.7191 23.6983 31.5053C24.1076 31.9743 24.2782 32.4775 24.0053 33.0659C23.7324 33.6628 23.2293 33.8248 22.6067 33.8163C21.4214 33.7993 20.2275 33.8163 18.9569 33.8163V46.7698H16.3389V46.0193C16.3389 41.6361 16.3389 37.2529 16.3389 32.8698C16.3389 31.6418 16.7568 31.2324 18.0018 31.2324C18.5647 31.2324 19.136 31.2324 19.9205 31.2324C17.3878 28.3757 14.9575 25.6469 12.4418 22.8072" fill="#06B2E1"/>
<path d="M67.0195 58.5122C67.0195 54.257 63.4635 50.7009 59.2082 50.7095C54.97 50.7265 51.4652 54.2143 51.4225 58.4611C51.3799 62.7078 54.9359 66.2894 59.1912 66.3065C63.455 66.3235 67.0025 62.7846 67.011 58.5122M59.2423 48.1171C64.9985 48.1171 69.6119 52.7646 69.6119 58.5549C69.6119 64.2684 64.9559 68.9074 59.2338 68.9074C53.4265 68.9074 48.8131 64.2599 48.8301 58.4184C48.8387 52.7305 53.5118 48.1085 59.2509 48.1171" fill="#06B2E1"/>
<path d="M26.734 63.7397C26.7511 61.6419 25.0029 59.8511 22.8881 59.8085C20.8073 59.7659 18.9824 61.5311 18.9398 63.6289C18.8886 65.7437 20.688 67.5857 22.8284 67.6027C24.9177 67.6198 26.717 65.8375 26.734 63.7397ZM29.335 63.7056C29.335 67.3128 26.4441 70.1951 22.8369 70.2037C19.2383 70.2037 16.3389 67.3043 16.3389 63.7056C16.3389 60.0984 19.2212 57.2161 22.8369 57.2076C26.4441 57.2076 29.335 60.0984 29.335 63.7056Z" fill="#06B2E1"/>
</svg>
