<svg width="119" height="105" viewBox="0 0 119 105" fill="none" xmlns="http://www.w3.org/2000/svg">
<path d="M80.893 11.6571H34.5944V20.6766H80.893V11.6571ZM52.2959 8.25023H63.741V3.42256H52.2959V8.25023ZM75.3902 56.8645C74.8407 56.315 74.0793 55.9775 73.2394 55.9775C72.3994 55.9775 71.6301 56.315 71.0807 56.8645C70.5312 57.414 70.1936 58.1755 70.1936 59.0154C70.1936 59.8553 70.5312 60.6246 71.0807 61.1741C71.6301 61.7236 72.3916 62.0611 73.2315 62.0611C74.0714 62.0611 74.8329 61.7236 75.3824 61.1741C75.9319 60.6246 76.2773 59.8632 76.2773 59.0232C76.2773 58.1833 75.9397 57.4219 75.3824 56.8724L75.3902 56.8645ZM73.2394 52.5628C75.0134 52.5628 76.6227 53.285 77.7923 54.4546C78.9541 55.6164 79.6763 57.2335 79.6763 59.0154C79.6763 60.7973 78.9541 62.4066 77.7923 63.5762C76.6227 64.7458 75.0056 65.468 73.2315 65.468C71.4574 65.468 69.8404 64.7458 68.6708 63.5762C67.5012 62.4066 66.7789 60.7973 66.7789 59.0154C66.7789 57.2335 67.5012 55.6321 68.6708 54.4625C69.8404 53.2928 71.4496 52.5628 73.2237 52.5628M63.6311 99.717C63.8117 99.3638 64.0079 98.9242 64.2041 98.4768C64.9656 96.7733 65.8134 94.8658 67.5796 93.6569C69.0554 92.6521 71.4653 92.1419 73.8281 92.1419C76.1909 92.1419 78.3889 92.605 79.8726 93.5235C82.4316 90.4385 85.1869 87.5654 87.9422 84.6845C96.789 75.4452 105.636 66.2059 107.151 50.3256L60.5147 38.747V99.717H63.6311ZM37.9385 93.7433L38.0563 93.6569C39.532 92.6521 41.9419 92.1419 44.3047 92.1419C46.6675 92.1419 49.0853 92.6521 50.5532 93.6569C52.3194 94.8736 53.1672 96.7733 53.9287 98.4768C54.1328 98.9242 54.3212 99.3559 54.5017 99.717H57.1079V38.747L10.4718 50.3256C11.9868 66.2059 20.8414 75.4452 29.6804 84.6845C32.4985 87.6282 35.3245 90.5798 37.9306 93.7433M59.0625 104.992C57.8144 105.008 56.7311 104.859 55.7812 104.592H55.7734C54.7765 104.317 53.9365 103.909 53.2222 103.438C52.0604 102.661 51.4717 101.334 50.8202 99.8662C50.2471 98.5788 49.6034 97.1344 48.63 96.4672C47.743 95.8549 46.0474 95.5487 44.2969 95.5487C42.5463 95.5487 40.8508 95.8549 39.9637 96.4672C38.9903 97.1344 38.3467 98.5709 37.7737 99.8583C37.1221 101.326 36.5255 102.661 35.3637 103.43C33.7937 104.474 31.6508 105 29.5313 105C27.4118 105 25.2688 104.474 23.6988 103.422C22.5449 102.653 21.9483 101.318 21.2967 99.8583C20.7237 98.5709 20.08 97.1266 19.1066 96.4593C18.2196 95.847 16.524 95.5409 14.7735 95.5409C13.023 95.5409 11.3274 95.847 10.4403 96.4593C9.46695 97.1266 8.82327 98.5631 8.25023 99.8505C7.59869 101.318 7.00209 102.653 5.84031 103.422C5.12597 103.901 4.28604 104.301 3.29696 104.576H3.2891C2.34712 104.843 1.25598 104.992 0 104.976L0.0235726 101.585C0.934159 101.593 1.7113 101.491 2.37854 101.303C3.00653 101.122 3.52459 100.879 3.96418 100.581C4.30172 100.353 4.70993 99.4501 5.14952 98.461C5.91096 96.7576 6.75874 94.8501 8.52496 93.6412C10.0007 92.6364 12.4107 92.1262 14.7735 92.1262C17.1363 92.1262 19.5541 92.6364 21.022 93.6412C22.7882 94.858 23.636 96.7576 24.3974 98.4689C24.837 99.4658 25.2452 100.369 25.5906 100.596C26.5797 101.256 28.0397 101.585 29.5391 101.585C31.0384 101.585 32.4906 101.248 33.4954 100.588C33.833 100.361 34.2333 99.458 34.6808 98.4689C34.9869 97.786 35.3088 97.0638 35.6934 96.373C33.048 93.1074 30.1435 90.0695 27.2312 87.0316C17.6936 77.0701 8.15602 67.1165 6.96284 49.1167L6.86864 47.7037L8.25023 47.3662L22.2387 43.8965V20.6687H31.1719V8.24237H48.8733V0H67.14V8.24237H84.2842V20.6687H94.5518V43.6924L109.372 47.374L110.754 47.7116L110.66 49.1246C109.467 67.1243 99.9289 77.078 90.3913 87.0395C87.5889 89.9675 84.7866 92.8876 82.2275 96.0119C82.7142 96.8126 83.091 97.6682 83.4599 98.4768C83.8995 99.4737 84.3077 100.376 84.6531 100.604C85.6422 101.263 87.1023 101.593 88.6016 101.593C90.101 101.593 91.561 101.256 92.5579 100.596C92.8955 100.369 93.3037 99.4658 93.7433 98.4768C94.5047 96.7733 95.3525 94.8658 97.1187 93.6569C98.5945 92.6521 101.012 92.1419 103.367 92.1419C105.722 92.1419 108.148 92.6521 109.616 93.6569C111.382 94.8736 112.23 96.7733 112.991 98.4768C113.431 99.4658 113.831 100.361 114.169 100.604C114.608 100.895 115.134 101.146 115.754 101.318C116.422 101.499 117.199 101.609 118.109 101.601L118.141 104.992C116.885 105.008 115.794 104.859 114.844 104.592C113.855 104.317 113.015 103.909 112.3 103.438C111.146 102.661 110.55 101.334 109.898 99.8662C109.325 98.5788 108.682 97.1344 107.708 96.4672C106.813 95.8549 105.126 95.5487 103.375 95.5487C101.625 95.5487 99.929 95.8549 99.0419 96.4672C98.0685 97.1344 97.4327 98.5709 96.8518 99.8583C96.2002 101.326 95.6037 102.661 94.4419 103.43C92.8719 104.474 90.7289 105 88.6173 105C86.5056 105 84.3548 104.474 82.7849 103.422C81.6309 102.653 81.0343 101.318 80.3827 99.8583C79.8097 98.5709 79.1661 97.1266 78.1927 96.4593C77.3057 95.847 75.6101 95.5409 73.8595 95.5409C72.109 95.5409 70.4134 95.847 69.5264 96.4593C68.553 97.1266 67.9093 98.5631 67.3362 99.8505C66.6847 101.318 66.0882 102.645 64.9342 103.422C64.212 103.901 63.3721 104.309 62.3909 104.584C61.4489 104.851 60.3656 105 59.1096 104.984M50.5297 31.7135H43.716V28.3067H50.5297V31.7135ZM60.758 31.7135H53.9444V28.3067H60.758V31.7135ZM70.9786 31.7135H64.165V28.3067H70.9786V31.7135ZM81.207 31.7135H74.3933V28.3067H81.207V31.7135ZM40.317 31.7135H33.5033V28.3067H40.317V31.7135ZM60.5697 35.2303L91.1999 42.8289V24.0599H25.7005V43.033L57.1628 35.2224L58.8663 34.7985L60.5697 35.2224V35.2303Z" fill="white"/>
</svg>
