<svg width="86" height="106" viewBox="0 0 86 106" fill="none" xmlns="http://www.w3.org/2000/svg">
<path d="M61.312 58.872C66.1236 63.2998 70.7227 67.5357 75.7057 72.1211C75.7057 68.3582 75.7469 65.1504 75.6646 61.9427C75.6509 61.4149 75.2671 60.6952 74.8215 60.4074C72.0045 58.5567 69.1189 56.7952 66.3155 55.0405C64.6157 56.3428 63.0803 57.5149 61.3051 58.8789M24.272 58.92C21.1465 56.2286 17.9707 55.8927 14.7447 57.9124C13.5109 58.6801 12.2497 59.4135 11.0503 60.2291C10.6185 60.5239 10.0358 61.0105 10.0221 61.4218C9.93989 64.8352 9.97416 68.2417 9.97416 72.128C15.0257 67.4603 19.6386 63.197 24.272 58.92ZM34.3202 10.7968C34.5601 13.3534 34.7177 15.5673 34.9919 17.7607C35.0673 18.3912 35.4923 18.9739 35.7527 19.5839C35.0604 19.8718 34.3682 20.3927 33.6691 20.4132C30.8657 20.5092 28.0555 20.4543 25.1836 20.4543V32.4629C29.2138 31.5924 33.107 30.8659 36.9454 29.8926C40.6055 28.9673 44.1628 28.6657 47.8983 29.6938C51.9971 30.8247 56.2193 31.5307 60.462 32.4423V20.4475C57.501 20.4475 54.684 20.4475 51.86 20.4475C50.5715 20.4475 49.043 19.7689 50.0231 18.5832C52.0862 16.0745 50.64 13.5316 51.1472 10.9545C50.4755 10.8791 50.0917 10.8037 49.701 10.8037C44.7591 10.7968 39.8241 10.8037 34.3271 10.8037M9.66573 77.8375H75.9868C75.6303 76.8094 75.5892 75.7813 75.0546 75.2741C69.7495 70.2637 64.3689 65.3424 58.9678 60.3594C54.0328 63.7248 49.1801 66.9668 44.4164 70.3254C43.2238 71.1684 42.4355 71.1684 41.2361 70.3254C36.4724 66.96 31.6265 63.7248 26.6847 60.3594C21.2836 65.3424 15.8962 70.2637 10.5979 75.2741C10.0633 75.7813 10.0153 76.8094 9.65887 77.8375M18.1855 36.7193C18.1855 39.7831 18.1375 42.5385 18.1992 45.287C18.2883 49.0911 19.8853 52.2852 22.9354 54.4579C29.4537 59.1119 36.1228 63.5603 42.8262 68.1526C49.5296 63.5466 56.3564 59.1736 62.7719 54.2592C64.835 52.6758 66.528 49.8108 67.0832 47.2542C67.8166 43.8819 67.2614 40.2287 67.2614 36.6851C61.3051 35.3828 55.4859 33.9913 49.6119 32.8741C46.5755 32.2984 43.3472 31.5581 40.3861 32.0379C32.9905 33.2374 25.6977 35.0949 18.1923 36.7262M53.7381 8.15111V17.7058H63.3202C63.3202 22.1336 63.4299 26.253 63.2723 30.3655C63.1969 32.4286 63.752 33.3608 65.9111 33.7035C70.2155 34.3958 70.2018 34.5191 70.1881 38.9949C70.1744 43.6763 70.6748 48.44 67.8097 52.8061C70.3732 54.4168 72.8201 55.9453 75.5344 57.652C75.6029 56.7198 75.692 56.0481 75.692 55.3764C75.7057 50.0987 75.6783 44.8278 75.7057 39.5501C75.7194 36.4314 77.7414 34.1833 80.442 34.1696C83.1905 34.149 85.2056 36.2944 85.2125 39.4953C85.2467 54.6704 85.2467 69.8524 85.1713 85.0276C85.1713 85.8432 84.3557 86.652 83.917 87.4677C83.451 86.5903 82.5736 85.7198 82.5668 84.8357C82.4845 70.1472 82.5051 55.4586 82.5051 40.7633C82.5051 40.1121 82.7176 39.3376 82.4365 38.8441C82.0116 38.1039 81.2713 37.11 80.6133 37.0689C79.9416 37.0278 78.9478 37.864 78.5708 38.5768C78.1938 39.2896 78.3515 40.3109 78.3515 41.202C78.3446 53.4572 78.3446 65.7057 78.3446 77.9609V80.4969H7.26677C7.26677 78.5983 7.26677 76.686 7.26677 74.7737C7.26677 63.3341 7.28047 51.8876 7.27362 40.448C7.27362 39.7283 7.35586 38.8441 6.99259 38.3232C6.55392 37.6995 5.64232 37.0004 4.99117 37.0483C4.34003 37.1032 3.59292 37.9462 3.19538 38.6179C2.90751 39.1046 3.11313 39.8859 3.11313 40.5302C3.11313 55.0611 3.11313 69.5851 3.11313 84.116C3.11313 84.8425 3.25021 85.6376 3.01032 86.2819C2.83211 86.7685 2.14669 87.358 1.6806 87.3648C1.26935 87.3648 0.700456 86.6931 0.481122 86.1928C0.268642 85.713 0.398875 85.0755 0.398875 84.5067C0.398875 69.7359 0.398875 54.9651 0.398875 40.1875C0.398875 39.8654 0.392017 39.5364 0.405726 39.2142C0.563372 36.2052 2.54424 34.1147 5.21051 34.149C7.82881 34.1833 9.89876 36.3698 9.92618 39.3171C9.97416 44.5125 9.93989 49.708 9.93989 54.8966V57.6931C12.6816 55.9933 15.1285 54.4853 17.7948 52.8403C14.5116 47.6449 15.6837 41.8737 15.4232 36.2806C15.3547 34.7727 16.0744 34.3752 17.363 34.1079C22.3254 33.1003 22.3117 33.066 22.3185 27.8911C22.3185 24.8068 22.3391 21.7224 22.3597 18.638C22.3597 18.4804 22.4488 18.3296 22.5858 17.8566H31.839V8.19908H41.5445C41.5445 5.87551 41.4485 3.785 41.6062 1.70818C41.6473 1.11872 42.4013 0.57724 42.8262 0.0151978C43.2443 0.584094 43.9777 1.13242 44.0257 1.73559C44.1765 3.75072 44.0806 5.77955 44.0806 8.13739H53.7244L53.7381 8.15111Z" fill="white"/>
<path d="M28.8313 42.8539C27.5838 42.2713 25.2328 41.5721 25.274 41.1198C25.5207 38.6865 27.6866 39.9203 29.0917 39.6667C29.8731 39.5296 30.7505 39.4747 31.4839 39.7078C32.1213 39.9065 32.6217 40.5577 33.1768 41.0101C32.608 41.4556 32.0939 42.0999 31.4496 42.2987C30.7162 42.5248 29.8594 42.3535 29.0575 42.3535C28.9821 42.518 28.9067 42.6894 28.8313 42.8539Z" fill="white"/>
<path d="M56.2327 42.8607C54.9852 42.278 52.6274 41.5858 52.6685 41.1265C52.9015 38.659 55.088 39.9408 56.4863 39.6803C57.2608 39.5364 58.145 39.4884 58.8715 39.7215C59.509 39.9202 60.0093 40.5714 60.5645 41.0237C59.9956 41.4693 59.4884 42.1136 58.8441 42.3123C58.1107 42.5385 57.2539 42.3672 56.452 42.3672C56.3766 42.5317 56.3012 42.703 56.2258 42.8675" fill="white"/>
<path d="M43.504 89.8667V88.3108C44.6075 88.2354 45.4368 88.6877 46.2388 89.1744C47.7467 90.0929 49.2569 90.0883 50.7694 89.1607C52.7639 87.9338 54.3952 87.9338 56.4035 89.1607C57.9251 90.0883 59.4605 90.0769 61.0095 89.1264C62.9081 87.9612 64.608 87.9201 66.4792 89.1127C68.8438 90.6138 68.8781 90.6069 71.2702 89.1127C71.983 88.6672 72.8878 88.4478 73.8611 88.0572V89.8598C73.066 90.3053 72.2846 90.7097 71.5444 91.169C69.6115 92.3547 68.1104 92.3616 66.1913 91.169C66.0885 91.1073 65.9857 91.0387 65.8828 90.9702C63.9431 89.7227 63.5593 89.7296 61.6058 90.9976C59.4125 92.4233 57.9388 92.4164 55.7249 90.9839C53.7784 89.7296 53.3945 89.7296 51.4411 90.9839C49.2066 92.4164 47.7741 92.4164 45.5465 91.0113C44.9159 90.6138 44.2236 90.2779 43.4902 89.8667" fill="white"/>
<path d="M73.869 102.807C73.0602 103.26 72.2994 103.657 71.5797 104.103C69.6468 105.295 68.1457 105.316 66.2197 104.137C66.1649 104.103 66.1169 104.068 66.062 104.041C63.8687 102.656 63.6699 102.656 61.4766 104.041C59.4203 105.336 57.9467 105.343 55.8904 104.041C55.63 103.877 55.3764 103.712 55.1159 103.554C53.9096 102.821 53.2722 102.821 52.0727 103.534C51.8876 103.643 51.7094 103.76 51.5312 103.877C49.1939 105.384 47.8162 105.384 45.4789 103.904C44.8689 103.52 44.1972 103.198 43.4844 102.807V101.066C44.2795 101.334 44.9923 101.512 45.6435 101.8C46.2055 102.046 46.7059 102.41 47.2062 102.746C48.0561 103.308 48.8923 103.321 49.7491 102.759C50.2083 102.458 50.6676 102.156 51.1405 101.889C52.7444 100.977 54.3688 100.957 55.9795 101.868C56.5142 102.17 57.0214 102.506 57.5354 102.828C58.3031 103.308 59.0708 103.301 59.8316 102.814C60.2428 102.554 60.6473 102.286 61.0654 102.033C62.8954 100.929 64.6158 100.854 66.3773 102.012C68.8997 103.664 69.0505 103.452 71.3329 102.019C72.0252 101.587 72.9094 101.382 73.8553 101.011V102.807H73.869Z" fill="white"/>
<path d="M43.5117 96.3164V94.5686C44.3822 94.8839 45.143 95.1169 45.8627 95.4322C46.3082 95.631 46.6921 95.9463 47.1033 96.1999C48.2274 96.8921 48.762 96.8921 49.8724 96.2136C50.2905 95.96 50.6812 95.6789 51.1062 95.4322C52.7786 94.4726 54.499 94.4315 56.1028 95.4665C58.6252 97.084 58.6869 97.132 61.2846 95.4665C62.9639 94.3904 64.7117 94.4246 66.4252 95.5556C68.9818 97.2417 69.0915 96.9333 71.2986 95.5761C72.0182 95.1375 72.9161 94.9181 73.8826 94.5343V96.3164C73.0395 96.7962 72.2376 97.2211 71.4631 97.6872C69.6261 98.7908 68.1251 98.8524 66.3567 97.7146C64.0263 96.2136 63.6973 96.0833 61.2092 97.7146C59.4888 98.8387 57.9192 98.8593 56.1919 97.7284C53.793 96.1656 53.4023 96.1382 50.9691 97.7489C49.3104 98.8456 47.7682 98.7839 46.0204 97.7489C45.239 97.2897 44.437 96.8373 43.5117 96.3095" fill="white"/>
<path d="M43.5661 89.8667V88.3108C42.4626 88.2354 41.6333 88.6877 40.8313 89.1744C39.3234 90.0929 37.8132 90.0883 36.3007 89.1607C34.3061 87.9338 32.6749 87.9338 30.6666 89.1607C29.1449 90.0883 27.6096 90.0769 26.0606 89.1264C24.162 87.9612 22.4621 87.9201 20.5909 89.1127C18.2262 90.6138 18.192 90.6069 15.7999 89.1127C15.087 88.6672 14.1823 88.4478 13.209 88.0572V89.8598C14.0041 90.3053 14.7854 90.7097 15.5257 91.169C17.4586 92.3547 18.9596 92.3616 20.8788 91.169C20.9816 91.1073 21.0844 91.0387 21.1872 90.9702C23.127 89.7227 23.5108 89.7296 25.4643 90.9976C27.6576 92.4233 29.1312 92.4164 31.3451 90.9839C33.2917 89.7296 33.6756 89.7296 35.629 90.9839C37.8635 92.4164 39.296 92.4164 41.5236 91.0113C42.1542 90.6138 42.8396 90.2779 43.5798 89.8667" fill="white"/>
<path d="M13.2031 102.807C14.0119 103.26 14.7727 103.657 15.4924 104.103C17.4253 105.295 18.9264 105.316 20.8524 104.137C20.9072 104.103 20.9552 104.068 21.01 104.041C23.2034 102.656 23.4021 102.656 25.5955 104.041C27.6517 105.336 29.1254 105.343 31.1816 104.041C31.4421 103.877 31.6957 103.712 31.9562 103.554C33.1625 102.821 33.7999 102.821 34.9994 103.534C35.1845 103.643 35.3558 103.76 35.5409 103.877C37.8782 105.384 39.2559 105.384 41.5931 103.904C42.2032 103.52 42.868 103.198 43.5877 102.807V101.066C42.7926 101.334 42.0798 101.512 41.4286 101.8C40.8666 102.046 40.3662 102.41 39.8659 102.746C39.016 103.308 38.1798 103.321 37.323 102.759C36.8637 102.458 36.4045 102.156 35.9316 101.889C34.3277 100.977 32.7033 100.957 31.0925 101.868C30.5579 102.17 30.0507 102.506 29.5366 102.828C28.769 103.308 28.0013 103.301 27.2405 102.814C26.8292 102.554 26.4248 102.286 26.0067 102.033C24.1767 100.929 22.4563 100.854 20.6947 102.012C18.1724 103.664 18.0216 103.452 15.7392 102.019C15.0469 101.587 14.1627 101.382 13.2168 101.011V102.807H13.2031Z" fill="white"/>
<path d="M43.5584 96.3164V94.5686C42.681 94.8839 41.9271 95.1169 41.2074 95.4322C40.7619 95.631 40.378 95.9463 39.9668 96.1999C38.8427 96.8921 38.3081 96.8921 37.1977 96.2136C36.7796 95.96 36.3889 95.6789 35.9639 95.4322C34.2915 94.4726 32.5711 94.4315 30.9672 95.4665C28.4449 97.084 28.3832 97.132 25.7855 95.4665C24.1062 94.3904 22.3584 94.4246 20.6448 95.5556C18.0882 97.2417 17.9854 96.9333 15.7715 95.5761C15.0518 95.1375 14.1539 94.9181 13.1875 94.5343V96.3164C14.0306 96.7962 14.8325 97.2211 15.607 97.6872C17.4439 98.7908 18.945 98.8524 20.7134 97.7146C23.0438 96.2136 23.3728 96.0833 25.8609 97.7146C27.5813 98.8387 29.1509 98.8593 30.8781 97.7284C33.2771 96.1656 33.6678 96.1382 36.101 97.7489C37.7597 98.8456 39.3019 98.7839 41.0497 97.7489C41.8311 97.2897 42.633 96.8373 43.5584 96.3095" fill="white"/>
</svg>
