<svg width="104" height="107" viewBox="0 0 104 107" fill="none" xmlns="http://www.w3.org/2000/svg">
<path d="M102.476 69.8073C101.977 69.4717 101.288 69.5922 100.832 70.0483L88.4322 77.6036C88.1224 77.965 87.9676 78.3522 87.9332 78.7481C87.8815 79.4021 88.3203 79.9872 88.9485 80.2024C89.5079 80.3831 90.05 80.6068 90.5921 80.8477C89.0002 82.4397 79.7497 90.3908 61.4465 93.308C59.975 93.5403 58.624 92.4302 58.5552 90.9416L56.1285 29.8623C56.0768 28.8985 56.6191 27.9863 57.5054 27.6163C62.4792 25.465 65.9642 20.5257 65.9642 14.7602C65.9642 7.03281 59.691 0.759644 51.9636 0.759644C44.2362 0.759644 37.963 7.02421 37.963 14.7602C37.963 20.6117 41.56 25.6199 46.6542 27.711C47.5405 28.081 48.0827 29.0017 48.0311 29.9655L45.6044 90.9416C45.5356 92.4302 44.1846 93.5489 42.7131 93.308C24.496 90.408 15.2455 82.5171 13.6105 80.908C14.187 80.6498 14.7808 80.4089 15.3745 80.211C16.0027 80.0044 16.4416 79.4193 16.39 78.7567C16.3642 78.3609 16.2006 77.965 15.8909 77.6122L3.49082 70.0569C3.03475 69.6008 2.34636 69.4803 1.84726 69.8159C1.34816 70.1515 1.20185 70.84 1.4514 71.4337L4.2653 85.4687C4.52346 85.9592 4.90208 86.2776 5.33233 86.4411C5.88306 86.639 6.48545 86.4153 6.86407 85.9678C7.31154 85.4429 7.80204 84.9352 8.31834 84.4447C18.9113 96.4747 31.4748 105.76 52.0841 105.76C72.6934 105.76 88.742 93.8329 95.9531 84.3758C96.4952 84.8835 97.003 85.4085 97.4762 85.9592C97.8549 86.4067 98.4573 86.6304 99.008 86.4325C99.4382 86.269 99.8169 85.9506 100.075 85.4601L102.889 71.4251C103.147 70.8313 103.001 70.1429 102.502 69.8073M51.9722 7.76424C55.8359 7.76424 58.9768 10.8965 58.9768 14.7602C58.9768 18.6239 55.8445 21.7648 51.9722 21.7648C48.0999 21.7648 44.9676 18.6325 44.9676 14.7602C44.9676 10.8879 48.0999 7.76424 51.9722 7.76424Z" stroke="white" stroke-width="1.45427"/>
<path d="M3.30273 8.2547H28.3265" stroke="white" stroke-width="1.45427"/>
<path d="M24.2383 4.45978L28.3257 8.25468L24.2383 12.0495" stroke="white" stroke-width="1.45427"/>
<path d="M3.30273 24.0882H28.3265" stroke="white" stroke-width="1.45427"/>
<path d="M24.2383 20.2847L28.3257 24.0881L24.2383 27.883" stroke="white" stroke-width="1.45427"/>
<path d="M3.30273 39.9217H28.3265" stroke="white" stroke-width="1.45427"/>
<path d="M24.2383 36.1182L28.3257 39.9216L24.2383 43.7165" stroke="white" stroke-width="1.45427"/>
</svg>
