<svg width="105" height="107" viewBox="0 0 105 107" fill="none" xmlns="http://www.w3.org/2000/svg">
<path d="M103.443 69.9373C102.943 69.6017 102.255 69.7222 101.799 70.1783L89.399 77.7336C89.0892 78.095 88.9344 78.4822 88.9 78.8781C88.8483 79.5321 89.2871 80.1172 89.9153 80.3324C90.4746 80.5131 91.0168 80.7368 91.5589 80.9777C89.967 82.5697 80.7164 90.5208 62.4133 93.438C60.9418 93.6703 59.5908 92.5602 59.522 91.0716L57.0953 29.9923C57.0436 29.0285 57.5859 28.1163 58.4722 27.7463C63.446 25.595 66.931 20.6557 66.931 14.8902C66.931 7.16282 60.6578 0.889648 52.9304 0.889648C45.203 0.889648 38.9298 7.15421 38.9298 14.8902C38.9298 20.7417 42.5268 25.7499 47.621 27.841C48.5073 28.211 49.0495 29.1317 48.9979 30.0955L46.5712 91.0716C46.5024 92.5602 45.1514 93.6789 43.6799 93.438C25.4628 90.538 16.2123 82.6471 14.5773 81.038C15.1538 80.7798 15.7476 80.5389 16.3413 80.341C16.9695 80.1344 17.4084 79.5407 17.3568 78.8867C17.331 78.4909 17.1674 78.095 16.8577 77.7422L4.45762 70.1869C4.00154 69.7308 3.31315 69.6103 2.81406 69.9459C2.31496 70.2815 2.16865 70.97 2.4182 71.5637L5.2321 85.5987C5.49025 86.0892 5.86887 86.4076 6.29913 86.5711C6.84986 86.769 7.45224 86.5453 7.83087 86.0978C8.27834 85.5643 8.76883 85.0652 9.28514 84.5747C19.8781 96.6047 32.4416 105.89 53.0509 105.89C73.6602 105.89 89.7088 93.9629 96.9199 84.5058C97.462 85.0135 97.9698 85.5385 98.443 86.0978C98.8217 86.5453 99.4241 86.769 99.9748 86.5711C100.405 86.4076 100.784 86.0892 101.042 85.5987L103.856 71.5637C104.114 70.97 103.968 70.2815 103.468 69.9459M52.939 7.90286C56.8027 7.90286 59.9436 11.0351 59.9436 14.8988C59.9436 18.7625 56.8113 21.9034 52.939 21.9034C49.0667 21.9034 45.9344 18.7711 45.9344 14.8988C45.9344 11.0265 49.0667 7.90286 52.939 7.90286Z" stroke="white" stroke-width="1.45427"/>
<path d="M26.9261 8.41052H1.90234" stroke="white" stroke-width="1.45427"/>
<path d="M5.98117 4.61572L1.90234 8.41057L5.98117 12.2055" stroke="white" stroke-width="1.45427"/>
<path d="M26.9261 24.2439H1.90234" stroke="white" stroke-width="1.45427"/>
<path d="M5.98117 20.4491L1.90234 24.244L5.98117 28.0388" stroke="white" stroke-width="1.45427"/>
<path d="M26.9261 40.0775H1.90234" stroke="white" stroke-width="1.45427"/>
<path d="M5.98117 36.2825L1.90234 40.0774L5.98117 43.8723" stroke="white" stroke-width="1.45427"/>
</svg>
