<svg width="110" height="106" viewBox="0 0 110 106" fill="none" xmlns="http://www.w3.org/2000/svg">
<path d="M91.7315 23.0383C89.4512 23.0383 87.2438 23.0164 85.0437 23.0747C84.8252 23.0747 84.5046 23.5409 84.4391 23.8396C84.3444 24.2913 84.3152 24.8669 85.051 24.8741C87.2584 24.8814 89.4585 24.8741 91.7315 24.8741V23.0383ZM70.1383 19.7381C70.5099 19.7745 70.692 19.8037 70.8741 19.8037C82.3045 19.8037 93.7349 19.8037 105.173 19.8255C106.09 19.8255 106.178 19.3884 106.178 18.6672C106.163 14.1868 106.149 9.71376 106.178 5.23339C106.178 4.34461 105.945 3.99491 104.998 3.99491C93.7495 4.01677 82.5012 4.01677 71.2529 3.99491C70.3933 3.99491 70.1019 4.23531 70.1165 5.1241C70.1602 9.26934 70.1383 13.4146 70.1383 17.5598C70.1383 18.2519 70.1383 18.9513 70.1383 19.7381ZM53.9216 97.6236C69.6502 97.6236 85.3716 97.6236 101.1 97.6163C102.127 97.6163 103.592 97.9441 104.08 97.4123C104.633 96.8076 104.357 95.4089 104.378 94.3525C104.408 92.8591 104.386 92.859 102.849 92.859C91.9355 92.8809 81.0223 92.9246 70.1092 92.9173C48.9823 92.9173 27.8554 92.8809 6.72847 92.859C4.61092 92.859 3.55457 93.9202 3.55943 96.0426C3.55943 97.8056 3.39915 97.6236 5.19858 97.6236C21.4444 97.6236 37.683 97.6236 53.9289 97.6236M14.4871 89.5443C14.9024 89.5662 15.1938 89.5953 15.4852 89.5953C33.0205 89.5953 50.5486 89.5953 68.0839 89.6172C69.0528 89.6172 69.3442 89.3622 69.337 88.3787C69.3005 81.2028 69.3005 74.0197 69.337 66.8438C69.337 65.8895 69.031 65.6782 68.1349 65.6782C50.636 65.7 33.1444 65.6928 15.6455 65.7001C15.2594 65.7001 14.8733 65.751 14.4871 65.7729V89.537V89.5443ZM86.4279 28.0942C85.5027 28.0942 84.6212 28.0942 83.747 28.0942C81.6197 28.0869 81.1972 27.6716 81.1899 25.5808C81.1899 24.8013 81.1899 24.029 81.1899 23.1111C80.7455 23.0893 80.3594 23.0529 79.9733 23.0529C76.4181 23.0529 72.8702 23.0529 69.3151 23.0529C67.3845 23.0529 66.9037 22.5575 66.9037 20.6196C66.9037 14.8789 66.9037 9.14551 66.9037 3.40482C66.9037 1.21927 67.3117 0.804016 69.4754 0.804016C81.8383 0.804016 94.1939 0.804016 106.557 0.804016C109.085 0.804016 109.369 1.15369 109.362 3.70349C109.332 9.21834 109.347 14.7332 109.347 20.2481C109.347 20.5103 109.347 20.7653 109.347 21.0276C109.311 22.47 108.771 23.031 107.307 23.0383C103.752 23.0529 100.204 23.0383 96.649 23.0383H95.0462C95.0462 24.1529 95.0608 25.1728 95.0462 26.2C95.0244 27.4603 94.4925 28.0286 93.2249 28.0723C92.1249 28.116 91.0175 28.0796 89.8228 28.0796V89.5662C90.2453 89.588 90.6679 89.6317 91.0904 89.6317C95.7165 89.6317 100.343 89.6317 104.969 89.6317C107.234 89.6317 107.664 90.1344 107.599 92.3928C107.54 94.4982 107.599 96.6109 107.577 98.7236C107.562 100.385 107.096 100.844 105.471 100.844C76.0903 100.844 46.702 100.844 17.3138 100.844C12.4254 100.844 7.54441 100.844 2.65608 100.844C0.783797 100.844 0.33212 100.377 0.324835 98.4686C0.324835 96.2466 0.310265 94.0247 0.324835 91.8027C0.33212 90.2364 0.900352 89.6463 2.46666 89.639C5.31515 89.6172 8.16364 89.639 11.2088 89.639V88.3058C11.2088 80.4962 11.2088 72.6865 11.2088 64.8768C11.2088 62.9244 11.6532 62.48 13.6275 62.48C32.394 62.48 51.1533 62.48 69.9198 62.48C72.1782 62.48 72.5497 62.9535 72.5351 65.2265C72.4987 72.0745 72.5279 78.9226 72.5351 85.7706C72.5351 87.0237 72.5351 88.2694 72.5351 89.5807H86.4279V28.1015V28.0942Z" fill="white"/>
<path d="M69.3148 33.7766H14.4286V35.0733C14.4286 42.9923 14.4286 50.9185 14.4286 58.8375C14.4286 59.8137 14.2464 60.6296 13.1464 60.8554C11.9881 61.0886 11.2013 60.3164 11.194 58.9249C11.1794 55.9234 11.194 52.9292 11.194 49.9277C11.194 44.2307 11.194 38.5265 11.194 32.8295C11.194 31.0374 11.7331 30.491 13.4815 30.491C32.3937 30.491 51.306 30.491 70.2182 30.491C71.9812 30.491 72.5713 31.1685 72.5567 32.9096C72.513 38.643 72.5276 44.3837 72.5203 50.1171C72.5203 53.0822 72.5203 56.04 72.5057 58.9977C72.4984 60.1998 71.9156 60.87 70.9394 60.8918C69.9049 60.9137 69.3148 60.2581 69.3075 58.9759C69.3003 51.2026 69.3075 43.4294 69.3075 35.6562V33.7766" fill="white"/>
<path d="M25.1533 40.712V53.9782C25.4884 54.0584 25.8089 54.1312 26.1222 54.2186C26.9454 54.4518 27.3607 55.02 27.2951 55.8651C27.2368 56.7102 26.7414 57.242 25.8891 57.3002C25.044 57.3585 24.1843 57.3585 23.3393 57.3002C22.3193 57.2201 21.8749 56.5644 21.8749 55.2021C21.8677 51.1661 21.8749 47.1375 21.8749 43.1015C21.8749 41.8412 21.8531 40.5881 21.8749 39.3278C21.9041 37.9582 22.5015 37.39 23.8638 37.3681C24.4175 37.3608 24.9711 37.3681 25.5321 37.3681C26.5083 37.3681 27.2004 37.7834 27.3024 38.8033C27.4044 39.8305 26.807 40.3696 25.8526 40.5736C25.6414 40.6173 25.4301 40.661 25.1678 40.712" fill="white"/>
<path d="M36.6711 40.6756V54.0001C37.05 54.0876 37.5308 54.0511 37.7348 54.2697C38.1719 54.7359 38.7838 55.3698 38.7328 55.8797C38.6891 56.3897 37.9897 57.0818 37.4506 57.2347C36.6274 57.4679 35.6876 57.3732 34.8134 57.2857C33.7279 57.1765 33.3782 56.3969 33.3782 55.3989C33.3782 51.9967 33.3782 48.6018 33.3782 45.1997C33.3782 43.24 33.371 41.2803 33.3782 39.3279C33.3928 37.951 33.961 37.39 35.3306 37.3682C35.8843 37.3609 36.438 37.3536 36.9917 37.3682C38.0699 37.39 38.8057 37.9874 38.8057 38.8981C38.8057 39.918 38.2083 40.4279 37.2466 40.5882C37.0645 40.6173 36.8897 40.6465 36.6566 40.6829" fill="white"/>
<path d="M48.1956 54.0002C48.5453 54.0803 48.9751 54.0512 49.1645 54.2551C49.6162 54.7214 50.199 55.2605 50.2719 55.8288C50.3666 56.5937 49.7984 57.2348 48.9241 57.2931C48.0426 57.3514 47.1466 57.3659 46.2651 57.2858C45.4273 57.2129 44.9246 56.6519 44.9173 55.7996C44.9027 50.1755 44.91 44.5586 44.91 38.9345C44.91 38.7888 44.91 38.6285 44.961 38.4974C45.5875 36.9311 46.9644 37.4629 48.1228 37.3755C49.0698 37.3099 49.9295 37.4556 50.2355 38.5338C50.4832 39.4153 50.1262 40.0564 49.3175 40.4207C48.9897 40.5664 48.6109 40.6101 48.1956 40.7121V54.0002Z" fill="white"/>
<path d="M59.5965 40.7121C59.5965 42.3877 59.5965 44.0414 59.5965 45.7024C59.5965 48.1793 59.5965 50.6563 59.5819 53.1259C59.5819 53.716 59.6839 54.073 60.3833 54.1677C61.3741 54.2988 61.8767 54.9472 61.7602 55.9599C61.6436 56.9434 60.9807 57.3222 60.0482 57.3222C59.4216 57.3222 58.7878 57.3368 58.1613 57.3222C56.9593 57.2858 56.4202 56.7685 56.4129 55.53C56.391 50.1026 56.391 44.6679 56.4129 39.2332C56.4129 37.9 56.9811 37.3973 58.3216 37.3682C58.8752 37.3536 59.4289 37.3682 59.9826 37.3682C60.9588 37.3682 61.629 37.7689 61.7602 38.7961C61.884 39.7504 61.3522 40.3551 60.2303 40.5955C60.0554 40.6319 59.8806 40.6684 59.5892 40.7194" fill="white"/>
<path d="M9.35125 105.797C7.02001 105.797 4.68876 105.812 2.35751 105.797C1.08261 105.79 0.346816 105.2 0.332246 104.238C0.317675 103.27 1.04619 102.636 2.29923 102.628C7.071 102.614 11.8428 102.614 16.6218 102.628C17.8384 102.628 18.4795 103.204 18.5014 104.188C18.5232 105.207 17.853 105.79 16.5635 105.797C14.1594 105.812 11.7553 105.797 9.35125 105.797Z" fill="white"/>
<path d="M98.5145 102.621C100.955 102.621 103.396 102.599 105.843 102.628C107.024 102.643 107.694 103.423 107.519 104.464C107.38 105.324 106.82 105.776 105.982 105.776C100.984 105.79 95.9938 105.79 90.9962 105.761C90.0054 105.761 89.3498 105.018 89.3716 104.158C89.4008 103.284 90.0564 102.643 91.0764 102.628C93.5533 102.599 96.0375 102.621 98.5145 102.614" fill="white"/>
<path d="M25.2532 84.3791C25.5373 84.4156 25.7996 84.4155 26.04 84.4884C26.8341 84.7069 27.3076 85.2169 27.3076 86.0765C27.3076 86.8925 26.8705 87.4826 26.1056 87.5773C25.1294 87.6938 24.1094 87.723 23.1405 87.57C22.0696 87.4025 21.8729 86.47 21.8802 85.5156C21.8802 81.8221 21.8802 78.1285 21.8802 74.4276C21.8802 72.9487 21.8729 71.4699 21.8802 69.991C21.8948 68.1478 22.4047 67.6524 24.277 67.6306C24.7578 67.6306 25.2386 67.6014 25.7195 67.6597C26.6228 67.7617 27.2712 68.1988 27.3149 69.1823C27.3513 70.1367 26.8195 70.6393 25.9016 70.8798C25.5956 70.9599 25.1512 71.3824 25.1512 71.652C25.1148 75.7899 25.1366 79.9279 25.1512 84.0659C25.1512 84.1314 25.2022 84.197 25.2751 84.3718" fill="white"/>
<path d="M36.6779 70.9526V84.3354C36.809 84.3719 36.9401 84.4228 37.0713 84.4374C38.266 84.5977 38.8926 85.2169 38.8197 86.1567C38.7469 87.0528 38.0548 87.6501 36.9547 87.6647C34.3612 87.7011 33.2611 88.0509 33.3486 84.2917C33.4651 79.4835 33.3777 74.6753 33.3777 69.8671C33.3777 68.1988 33.9095 67.6597 35.5487 67.6306C36.0659 67.6233 36.5832 67.6087 37.1004 67.6379C38.0766 67.6961 38.7104 68.177 38.8124 69.1823C38.8998 70.0347 38.2588 70.6758 37.2461 70.8433C37.0713 70.8725 36.8964 70.9016 36.6706 70.938" fill="white"/>
<path d="M48.2098 70.9964V84.3719C48.4939 84.4083 48.7125 84.4374 48.9237 84.4739C49.8271 84.6269 50.3152 85.2169 50.3152 86.0766C50.3152 86.9581 49.7542 87.5482 48.88 87.6429C48.0422 87.7303 47.168 87.7376 46.3302 87.6356C45.4196 87.519 44.9023 86.9289 44.9023 85.9527C44.9023 80.4379 44.9023 74.923 44.9023 69.4082C44.9023 69.2989 44.9023 69.1823 44.9169 69.0731C45.0626 68.0896 45.7328 67.6524 47.0733 67.6306C49.3463 67.6014 50.0967 67.922 50.3006 69.0075C50.4828 70.0128 49.8417 70.654 48.2098 70.9964Z" fill="white"/>
<path d="M59.7488 84.3719C60.0257 84.4083 60.3243 84.4156 60.5939 84.4957C61.4025 84.7434 61.8105 85.2971 61.7668 86.1568C61.7231 87.0383 61.184 87.5409 60.3826 87.6356C59.5448 87.7376 58.6706 87.7522 57.8401 87.6429C56.791 87.5118 56.3904 86.776 56.3977 85.7415C56.4122 82.3029 56.3977 78.8643 56.3977 75.4184C56.3977 73.4951 56.3904 71.5719 56.4122 69.6486C56.4268 68.2207 56.9368 67.6962 58.3355 67.6452C59.0349 67.6233 59.7488 67.6015 60.4336 67.7035C61.3151 67.8346 61.7959 68.4028 61.7668 69.3281C61.7377 70.1877 61.2641 70.6321 60.4409 70.8652C60.1131 70.9526 59.625 71.3388 59.625 71.5865C59.5813 75.7317 59.6104 79.8697 59.625 84.0149C59.625 84.1169 59.6978 84.2189 59.7488 84.3719Z" fill="white"/>
<path d="M99.1343 10.1072C97.891 9.93718 97.2693 10.3937 97.2693 11.4768C97.2693 11.7755 97.2693 12.0669 97.2693 12.3655C97.2766 14.012 97.3786 14.0776 99.127 13.6477V10.1072H99.1343ZM102.398 12.0305C102.398 13.1014 102.413 14.1723 102.398 15.2505C102.376 16.3942 101.844 17.0062 100.737 17.0353C99.076 17.0863 97.4077 17.0863 95.7467 17.0353C94.7122 17.0062 94.093 16.3724 94.0711 15.3379C94.0347 13.0795 94.0274 10.8284 94.0711 8.57002C94.093 7.40439 94.7195 6.807 95.8924 6.77785C97.4806 6.74143 99.0687 6.73414 100.657 6.77785C101.859 6.81428 102.449 7.4991 102.449 8.70843C102.449 9.81578 102.449 10.9231 102.449 12.0305H102.405" fill="white"/>
<path d="M87.2433 13.6988C88.472 13.8931 89.0864 13.4195 89.0864 12.2782C89.0864 12.0159 89.0864 11.7609 89.0864 11.4987C89.0937 9.83036 89.0208 9.76479 87.2433 10.1363V13.6915V13.6988ZM83.9576 11.8556C83.9576 10.7847 83.9431 9.71381 83.9576 8.64289C83.9795 7.40442 84.5405 6.79975 85.7789 6.77061C87.3307 6.73418 88.8824 6.73418 90.4341 6.77061C91.6726 6.79975 92.3356 7.50642 92.3429 8.74489C92.3429 10.8503 92.3356 12.9557 92.2991 15.0684C92.2773 16.438 91.6799 17.0354 90.3321 17.0499C88.8533 17.0718 87.3744 17.0718 85.8955 17.0499C84.5113 17.0281 83.9795 16.4744 83.9649 15.0684C83.9504 13.9975 83.9649 12.9266 83.9649 11.8484L83.9576 11.8556Z" fill="white"/>
<path d="M78.9232 9.98329C77.692 9.98329 76.6648 9.99786 75.6376 9.98329C74.5448 9.96143 73.8528 9.37132 73.8163 8.46067C73.7726 7.52818 74.4939 6.79966 75.6158 6.77052C77.2039 6.7268 78.7921 6.7268 80.3802 6.77052C81.5531 6.79966 82.1433 7.41889 82.1505 8.58451C82.1724 10.7992 82.1724 13.0139 82.1505 15.2358C82.1433 16.3068 81.5094 17.0062 80.5988 17.0426C79.6663 17.079 78.9524 16.3359 78.9305 15.2213C78.9014 13.5312 78.9232 11.841 78.9232 9.99053" fill="white"/>
</svg>
