<svg width="101" height="107" viewBox="0 0 101 107" fill="none" xmlns="http://www.w3.org/2000/svg">
<path d="M8.21422 62.0789C8.22149 62.1298 8.22877 62.1808 8.24332 62.2317H93.1918C92.6314 61.9916 92.3767 61.8751 92.122 61.7732C78.7899 56.3152 65.4578 50.8718 52.1403 45.3774C51.1651 44.9772 50.3791 44.9989 49.4331 45.3846C40.3582 49.0888 31.2688 52.7639 22.1867 56.4389C17.5292 58.3238 12.879 60.2013 8.22149 62.0789H8.21422ZM97.3908 102.905H99.4794V106.158H1.41718V102.963C2.06486 102.934 2.71982 102.905 3.46939 102.868V65.7321H1.33713C1.33713 64.7206 1.27163 63.7963 1.37352 62.8939C1.4099 62.6028 1.84653 62.2536 2.18129 62.1153C8.17782 59.6628 14.1889 57.2467 20.1927 54.8161C29.6751 50.9809 39.1575 47.1385 48.6399 43.3033C48.8655 43.2087 49.0911 43.1141 49.4258 42.9686C47.2426 41.8042 45.9545 40.1013 46.2529 37.6343C46.544 35.2255 48.0722 33.7846 50.3937 33.166C50.4301 32.7949 50.4665 31.5796 50.5101 31.1866H52.6133C52.6133 31.9871 52.6497 33.5953 52.606 34.3304C52.5551 35.0799 52.0602 35.3055 51.3616 35.3492C49.8115 35.4438 48.7417 36.3244 48.5234 37.6052C48.2542 39.1771 49.1929 40.6399 50.6484 40.9164C52.2931 41.2293 53.7194 40.276 54.0542 38.6386C54.0833 38.5003 54.0615 38.3547 54.0906 38.2165C54.2362 37.5106 54.7164 37.0521 55.3714 37.3068C55.7789 37.4669 56.2738 38.1001 56.2592 38.5003C56.1937 40.2905 55.2841 41.6587 53.7413 42.5756C53.4065 42.7721 53.0499 42.9249 52.5915 43.1505C56.1792 44.6278 59.665 46.0615 63.1509 47.4878C74.882 52.2836 86.6058 57.0939 98.3514 61.8533C99.2902 62.2317 99.7123 62.6902 99.5813 63.709C99.5012 64.3276 99.5667 64.968 99.5667 65.703H97.3981V102.898L97.3908 102.905Z" stroke="white" stroke-width="1.22987" stroke-miterlimit="10"/>
<path d="M43.8652 14.4269H59.1186C59.1186 16.9958 59.2059 19.5065 59.0822 22.0171C59.0239 23.1597 58.1143 23.8729 57.0009 24.1713C56.5933 24.2804 56.164 24.3095 55.7419 24.3168C52.8819 24.3314 50.0219 24.3459 47.1546 24.3168C44.9641 24.295 43.8725 23.1379 43.8725 20.9255C43.8725 18.8006 43.8725 16.6683 43.8725 14.4414L43.8652 14.4269Z" stroke="white" stroke-width="1.22987" stroke-miterlimit="10"/>
<path d="M46.8203 26.1653H55.9388C55.786 27.8973 54.8763 29.1926 53.4718 29.3746C52.1764 29.542 50.8374 29.5638 49.5421 29.3891C48.0939 29.1999 47.2715 28.0065 46.8203 26.1653Z" stroke="white" stroke-width="1.22987" stroke-miterlimit="10"/>
<path d="M46.2817 8.39407C46.2817 9.18002 46.2963 9.96597 46.2817 10.7519C46.2671 11.5306 45.9033 12.12 45.0373 12.0982C44.2368 12.0837 43.8802 11.5306 43.8802 10.7883C43.8802 9.14362 43.8729 4.02037 43.8802 2.38297C43.8875 1.6989 44.2149 1.20405 45.0009 1.16038C45.8523 1.11672 46.2308 1.62614 46.2744 2.34659C46.3254 3.19804 46.289 7.54258 46.289 8.40131L46.2817 8.39407Z" stroke="white" stroke-width="1.22987" stroke-miterlimit="10"/>
<path d="M59.1424 8.38679C59.1424 9.20913 59.1351 10.0315 59.1424 10.8538C59.157 11.5816 58.7567 12.0545 58.0362 12.0909C57.2212 12.1346 56.8137 11.6106 56.8137 10.8611C56.7991 9.17999 56.7991 4.02038 56.8137 2.33932C56.8209 1.64069 57.1775 1.15312 57.9707 1.16768C58.8076 1.18223 59.1497 1.68437 59.1424 2.44121C59.1424 3.26355 59.1424 7.57173 59.1424 8.39407V8.38679Z" stroke="white" stroke-width="1.22987" stroke-miterlimit="10"/>
<path d="M70.8721 84.0857C70.8721 79.1735 70.8648 74.2686 70.8793 69.3564C70.8793 68.5922 70.6901 67.9446 69.8678 67.93C68.9799 67.9155 68.7325 68.5995 68.7616 69.3928C68.7616 69.4947 68.7616 69.6038 68.7616 69.7057C68.7616 79.2463 68.7616 88.7796 68.7616 98.3202C68.7616 98.6695 68.7325 99.0334 68.8198 99.3681C69.0163 100.118 69.9624 100.467 70.4645 99.9285C70.7265 99.6447 70.8502 99.1207 70.8502 98.7059C70.8793 93.8301 70.8648 88.9542 70.8648 84.0857H70.8721ZM30.0098 83.9693V95.7513C30.0098 96.8356 30.017 97.9272 30.0098 99.0115C30.0098 99.6738 30.2936 100.11 30.9704 100.154C31.6981 100.205 32.0474 99.7611 32.1202 99.0698C32.142 98.8587 32.1347 98.6477 32.1347 98.4366C32.1347 88.7942 32.1347 79.1517 32.1347 69.5019C32.1347 68.6868 31.9892 67.9155 31.0359 67.9227C30.0607 67.9373 30.0025 68.7451 30.0098 69.5456C30.0243 74.3486 30.017 79.1517 30.017 83.962L30.0098 83.9693ZM90.2589 83.9984C90.2589 79.0862 90.2516 74.1812 90.2662 69.269C90.2662 68.5413 90.0479 67.9446 89.2837 67.9227C88.4541 67.8936 88.1703 68.5122 88.163 69.2763C88.163 69.4146 88.163 69.5529 88.163 69.6984C88.163 79.3045 88.163 88.9106 88.163 98.5167C88.163 98.8587 88.1266 99.3027 88.3159 99.5282C88.5633 99.8266 89.029 100.125 89.3783 100.11C89.6694 100.096 90.0115 99.6665 90.208 99.3463C90.3317 99.1425 90.2516 98.8005 90.2516 98.5167C90.2516 93.6773 90.2516 88.8378 90.2516 83.9984H90.2589ZM80.5655 83.9693C80.5655 79.0571 80.5582 74.1521 80.5727 69.2399C80.5727 68.4904 80.3035 67.9446 79.5539 67.9227C78.7971 67.9009 78.4769 68.4685 78.4696 69.1963C78.4696 69.3345 78.4696 69.4801 78.4696 69.6184C78.4696 79.1954 78.4696 88.7651 78.4696 98.342C78.4696 98.7205 78.4696 99.1207 78.5788 99.4846C78.7971 100.176 79.7067 100.452 80.1652 99.9358C80.4272 99.6374 80.5436 99.128 80.5436 98.7059C80.5727 93.7937 80.5582 88.8888 80.5582 83.9766L80.5655 83.9693ZM61.1859 83.9984C61.1859 79.1589 61.1786 74.3195 61.1932 69.4801C61.1932 68.7014 61.0768 67.9664 60.1889 67.9373C59.2356 67.9082 59.0609 68.6578 59.0609 69.4801C59.0682 79.1954 59.0682 88.9106 59.0609 98.6259C59.0609 99.3754 59.1264 100.125 60.0797 100.154C61.1058 100.19 61.1932 99.4336 61.1859 98.6259C61.1714 93.75 61.1859 88.8742 61.1859 83.9984ZM39.6959 84.093V87.9864C39.6959 91.6323 39.6959 95.2783 39.6959 98.9315C39.6959 99.6811 39.9943 100.176 40.7875 100.161C41.5225 100.147 41.7991 99.6447 41.8136 98.9534C41.8136 98.8515 41.8136 98.7423 41.8136 98.6404C41.8136 88.9615 41.8136 79.2827 41.8136 69.6038C41.8136 69.2909 41.8791 68.8906 41.719 68.6869C41.4716 68.3594 41.0131 67.9227 40.7147 67.9664C40.3436 68.0246 39.987 68.4903 39.7323 68.8542C39.6013 69.0434 39.6959 69.4 39.6959 69.6766C39.6959 74.4796 39.6959 79.2899 39.6959 84.093ZM20.3163 84.093V86.3053C20.3163 90.5116 20.3163 94.7252 20.3163 98.9315C20.3163 99.6301 20.5492 100.125 21.2842 100.169C22.0847 100.212 22.3831 99.6883 22.4268 98.9679C22.434 98.7932 22.4268 98.6186 22.4268 98.4439C22.4268 88.8669 22.4268 79.2972 22.4268 69.7202C22.4268 69.3709 22.485 68.9489 22.3176 68.7014C22.092 68.3667 21.6263 67.93 21.3352 67.9737C20.964 68.0319 20.5856 68.4831 20.3673 68.8615C20.2144 69.1308 20.3236 69.5456 20.3236 69.8949C20.3236 74.6324 20.3236 79.3627 20.3236 84.1003L20.3163 84.093ZM10.6229 84.0057C10.6229 88.7723 10.6229 93.539 10.6229 98.3129C10.6229 98.6623 10.5356 99.0698 10.6739 99.3536C10.8412 99.6811 11.2051 100.103 11.4962 100.118C11.8528 100.132 12.3258 99.8339 12.5514 99.5282C12.7479 99.259 12.7042 98.7932 12.7042 98.4148C12.7115 93.5754 12.7042 88.736 12.7042 83.8965C12.7042 79.2317 12.7042 74.5669 12.7042 69.9094C12.7042 69.6984 12.7042 69.4874 12.7042 69.2763C12.6969 68.5195 12.4059 67.9009 11.5762 67.93C10.8121 67.9591 10.5938 68.5559 10.6011 69.2836C10.6156 74.1885 10.6083 79.1007 10.6083 84.0129L10.6229 84.0057ZM51.4998 84.1075C51.4998 79.3045 51.4998 74.5015 51.4998 69.6911C51.4998 69.3782 51.6016 68.9707 51.4488 68.7669C51.1796 68.4176 50.7648 67.9955 50.3863 67.9664C50.0807 67.9446 49.6659 68.4176 49.4403 68.7669C49.2947 68.9925 49.3893 69.3782 49.3893 69.6984C49.3893 74.9599 49.3893 80.2215 49.3893 85.483C49.3893 89.9003 49.3893 94.3249 49.3893 98.7423C49.3893 99.8266 49.8915 100.351 50.6993 100.14C51.4415 99.9504 51.4998 99.3681 51.4998 98.735C51.4998 93.8592 51.4998 88.9834 51.4998 84.1075Z" stroke="white" stroke-width="0.727735" stroke-miterlimit="10"/>
</svg>
