<svg width="78" height="87" viewBox="0 0 78 87" fill="none" xmlns="http://www.w3.org/2000/svg">
<path d="M19.15 28.02H29.49L21.09 46.1H4.2L19.15 28.02ZM73.08 46.1H56.19L47.79 28.02H58.13L73.08 46.1ZM56.21 48.8H72.72L42.84 79.0699L56.21 48.8ZM53.26 48.8L38.64 81.91L24.02 48.8H53.26ZM44.82 28.02L53.22 46.1H24.07L32.47 28.02H44.82ZM21.07 48.8L34.44 79.0699L4.56 48.8H21.07ZM77.07 48.2C77.11 48.14 77.15 48.07 77.18 47.99C77.21 47.92 77.23 47.85 77.25 47.77C77.25 47.77 77.25 47.76 77.25 47.75C77.27 47.68 77.28 47.61 77.28 47.54C77.28 47.53 77.28 47.51 77.28 47.5C77.28 47.49 77.28 47.47 77.28 47.46C77.28 47.4 77.28 47.35 77.27 47.29C77.27 47.28 77.27 47.2699 77.27 47.2599C77.26 47.1899 77.24 47.11 77.22 47.05C77.22 47.05 77.22 47.04 77.22 47.03C77.19 46.96 77.16 46.8799 77.13 46.8199C77.09 46.7499 77.04 46.68 76.99 46.61L59.81 25.83C59.55 25.52 59.17 25.34 58.77 25.34H18.51C18.11 25.34 17.73 25.52 17.47 25.83L0.290009 46.61C0.240009 46.67 0.190009 46.7399 0.150009 46.8199C0.110009 46.8899 0.0799976 46.96 0.0599976 47.03C0.0599976 47.03 0.0599976 47.04 0.0599976 47.05C0.0399976 47.12 0.0200098 47.1899 0.0100098 47.2599C0.0100098 47.2699 0.0100098 47.28 0.0100098 47.29C0.0100098 47.35 0 47.4 0 47.46C0 47.47 0 47.49 0 47.5C0 47.51 0 47.52 0 47.54C0 47.61 0.00999878 47.68 0.0299988 47.75C0.0299988 47.75 0.0299988 47.76 0.0299988 47.77C0.0499988 47.84 0.0700061 47.92 0.100006 47.99C0.130006 48.06 0.170007 48.13 0.210007 48.2C0.260007 48.27 0.310001 48.33 0.360001 48.39L37.67 86.19C37.67 86.19 37.69 86.2 37.7 86.21C37.72 86.23 37.73 86.2399 37.75 86.2599C37.76 86.2699 37.77 86.28 37.79 86.29C37.81 86.31 37.83 86.33 37.86 86.34C37.86 86.34 37.88 86.35 37.89 86.36C37.9 86.36 37.91 86.3699 37.92 86.3799C37.94 86.3899 37.96 86.4 37.98 86.41C38 86.42 38.02 86.43 38.04 86.44C38.04 86.44 38.04 86.44 38.05 86.44C38.05 86.44 38.07 86.44 38.07 86.45C38.07 86.45 38.07 86.45 38.08 86.45C38.1 86.4599 38.13 86.47 38.15 86.48C38.17 86.48 38.19 86.49 38.21 86.5C38.21 86.5 38.21 86.5 38.22 86.5C38.22 86.5 38.24 86.5 38.25 86.5C38.25 86.5 38.26 86.5 38.27 86.5C38.29 86.5 38.32 86.51 38.34 86.52C38.34 86.52 38.35 86.52 38.36 86.52C38.36 86.52 38.38 86.52 38.39 86.52C38.4 86.52 38.42 86.52 38.43 86.52C38.49 86.52 38.55 86.53 38.6 86.53C38.66 86.53 38.71 86.53 38.77 86.52C38.78 86.52 38.8 86.52 38.81 86.52C38.82 86.52 38.83 86.52 38.84 86.52C38.84 86.52 38.85 86.52 38.86 86.52C38.88 86.52 38.91 86.51 38.93 86.5C38.93 86.5 38.94 86.5 38.95 86.5C38.95 86.5 38.97 86.5 38.98 86.5H38.99C39.01 86.5 39.03 86.49 39.05 86.48C39.07 86.48 39.1 86.4599 39.12 86.45C39.12 86.45 39.12 86.45 39.13 86.45C39.13 86.45 39.15 86.45 39.15 86.44C39.15 86.44 39.15 86.44 39.16 86.44C39.18 86.44 39.2 86.42 39.22 86.41C39.24 86.41 39.26 86.3899 39.27 86.3799C39.28 86.3799 39.29 86.37 39.3 86.36C39.3 86.36 39.32 86.35 39.33 86.34C39.35 86.32 39.38 86.31 39.4 86.29C39.41 86.29 39.43 86.2699 39.44 86.2599C39.46 86.2399 39.48 86.23 39.49 86.21C39.49 86.21 39.51 86.2 39.51 86.19L76.82 48.39C76.88 48.33 76.93 48.27 76.97 48.2" fill="white"/>
<path d="M38.64 14.85C39.38 14.85 39.99 14.25 39.99 13.5V1.34998C39.99 0.599976 39.39 0 38.64 0C37.89 0 37.29 0.599976 37.29 1.34998V13.5C37.29 14.25 37.89 14.85 38.64 14.85Z" fill="white"/>
<path d="M15.6003 17.8299C15.8603 18.2099 16.2803 18.42 16.7103 18.42C16.9703 18.42 17.2403 18.34 17.4703 18.18C18.0803 17.76 18.2403 16.92 17.8203 16.3L11.1903 6.66997C10.7703 6.05997 9.93026 5.89994 9.31026 6.31994C8.70026 6.73994 8.54027 7.57994 8.96027 8.19994L15.5903 17.8299H15.6003Z" fill="white"/>
<path d="M59.03 18.17C59.26 18.33 59.53 18.41 59.79 18.41C60.22 18.41 60.64 18.1999 60.9 17.8299L67.53 8.19994C67.95 7.58994 67.8 6.74993 67.18 6.31993C66.57 5.89993 65.73 6.04997 65.3 6.66997L58.67 16.3C58.25 16.91 58.4 17.75 59.02 18.18" fill="white"/>
</svg>
