<svg width="89" height="88" viewBox="0 0 89 88" fill="none" xmlns="http://www.w3.org/2000/svg">
<path d="M17.2402 76.03C24.6602 82.16 34.2502 85.85 44.7002 85.85C53.7702 85.85 62.1902 83.07 69.1102 78.33" stroke="white" stroke-width="2.81" stroke-linecap="round" stroke-linejoin="round"/>
<path d="M12.87 15.98C6.10999 23.4 2 33.19 2 43.93C2 53.8 5.47 62.86 11.28 70.03" stroke="white" stroke-width="2.81" stroke-linecap="round" stroke-linejoin="round"/>
<path d="M73.5196 12.98C65.9196 6.15998 55.8096 2 44.7096 2C35.7496 2 27.4296 4.70997 20.5596 9.33997" stroke="white" stroke-width="2.81" stroke-linecap="round" stroke-linejoin="round"/>
<path d="M75.8096 72.65C82.9996 65.15 87.3996 55.04 87.3996 43.93C87.3996 35.35 84.7796 27.38 80.2696 20.73" stroke="white" stroke-width="2.81" stroke-linecap="round" stroke-linejoin="round"/>
<path d="M3.50977 15.5398L12.9398 15.7298L14.6798 23.9698" stroke="white" stroke-width="2.81" stroke-linecap="round" stroke-linejoin="round"/>
<path d="M84.17 74.1398L74.74 73.9597L73 65.7197" stroke="white" stroke-width="2.81" stroke-linecap="round" stroke-linejoin="round"/>
<path d="M74.1196 4.19995L73.6096 13.6199L65.3096 15.0699" stroke="white" stroke-width="2.81" stroke-linecap="round" stroke-linejoin="round"/>
<path d="M14.6504 83.4499L15.1604 74.0399L23.4604 72.5898" stroke="white" stroke-width="2.81" stroke-linecap="round" stroke-linejoin="round"/>
<path d="M47.1504 71.08H41.9904C41.5504 71.08 41.1904 71.44 41.1904 71.88C41.1904 72.32 41.5504 72.68 41.9904 72.68H47.1504C47.5904 72.68 47.9504 72.32 47.9504 71.88C47.9504 71.44 47.5904 71.08 47.1504 71.08Z" fill="white"/>
<path d="M49.81 68.5H39.34C38.9 68.5 38.54 68.86 38.54 69.3C38.54 69.74 38.9 70.1 39.34 70.1H49.81C50.25 70.1 50.61 69.74 50.61 69.3C50.61 68.86 50.25 68.5 49.81 68.5Z" fill="white"/>
<path d="M49.81 65.92H39.34C38.9 65.92 38.54 66.28 38.54 66.72C38.54 67.16 38.9 67.52 39.34 67.52H49.81C50.25 67.52 50.61 67.16 50.61 66.72C50.61 66.28 50.25 65.92 49.81 65.92Z" fill="white"/>
<path d="M49.81 63.34H39.34C38.9 63.34 38.54 63.7 38.54 64.14C38.54 64.58 38.9 64.94 39.34 64.94H49.81C50.25 64.94 50.61 64.58 50.61 64.14C50.61 63.7 50.25 63.34 49.81 63.34Z" fill="white"/>
<path d="M54.6904 51.72C54.6904 51.72 54.6804 51.72 54.6704 51.74L54.4904 51.89C53.5404 52.67 50.4604 55.47 50.4604 58.87C50.4604 59.85 49.6604 60.65 48.6804 60.65H46.8704C47.0504 60.48 47.1404 60.23 47.1004 59.97C47.1004 59.95 46.8104 57.84 47.5904 54.21C48.2004 51.37 49.5904 47.07 52.7304 41.83C53.8004 41.21 54.5404 40.1 54.6504 38.81C54.8204 38.46 54.7104 38.04 54.3804 37.81C54.2304 37.71 54.0604 37.67 53.9004 37.67C53.8904 37.67 53.8804 37.67 53.8704 37.67C53.4904 37.67 53.1804 37.93 53.1004 38.29C52.5704 39.08 52.0704 39.85 51.6104 40.61C51.3504 40.71 51.0704 40.77 50.7804 40.77C49.5104 40.77 48.4804 39.74 48.4804 38.47C48.4804 38.03 48.1204 37.67 47.6804 37.67C47.2404 37.67 46.8804 38.03 46.8804 38.47C46.8804 39.74 45.8504 40.77 44.5804 40.77C43.3104 40.77 42.2804 39.74 42.2804 38.47C42.2804 38.03 41.9204 37.67 41.4804 37.67C41.0404 37.67 40.6804 38.03 40.6804 38.47C40.6804 39.74 39.6504 40.77 38.3804 40.77C38.1204 40.77 37.8704 40.72 37.6304 40.63C37.1104 39.78 36.5504 38.91 35.9404 38.02C35.9404 38.02 35.9204 38 35.9204 37.99C35.9004 37.96 35.8704 37.93 35.8404 37.9C35.8204 37.88 35.8004 37.87 35.7804 37.85C35.7604 37.83 35.7404 37.81 35.7104 37.8C35.6904 37.79 35.6704 37.78 35.6504 37.76C35.6304 37.75 35.6004 37.73 35.5804 37.72C35.5604 37.72 35.5404 37.71 35.5104 37.7C35.4804 37.7 35.4604 37.68 35.4304 37.68C35.4004 37.68 35.3704 37.68 35.3404 37.68C35.3204 37.68 35.3004 37.68 35.2804 37.68C35.2304 37.68 35.1704 37.68 35.1204 37.7C35.0804 37.7 35.0404 37.72 35.0004 37.74C35.0004 37.74 34.9804 37.74 34.9704 37.74C34.9204 37.76 34.8704 37.79 34.8304 37.82C34.8304 37.82 34.8104 37.84 34.8004 37.84C34.7704 37.86 34.7404 37.89 34.7104 37.92C34.6904 37.94 34.6804 37.96 34.6604 37.98C34.6404 38 34.6204 38.02 34.6104 38.04C34.6004 38.06 34.5804 38.09 34.5704 38.11C34.5604 38.13 34.5504 38.15 34.5404 38.18C34.5304 38.2 34.5204 38.23 34.5204 38.26C34.5204 38.28 34.5004 38.31 34.5004 38.33C34.5004 38.37 34.5004 38.41 34.4904 38.45C34.4904 38.46 34.4904 38.47 34.4904 38.49C34.4904 39.97 35.3204 41.25 36.5304 41.91C39.6404 47.12 41.0204 51.4 41.6304 54.23C42.4004 57.86 42.1204 59.97 42.1204 59.99C42.1204 60.01 42.1204 60.03 42.1204 60.05C42.1204 60.07 42.1204 60.09 42.1204 60.11C42.1204 60.11 42.1204 60.12 42.1204 60.13C42.1204 60.16 42.1204 60.19 42.1204 60.21C42.1204 60.23 42.1204 60.26 42.1304 60.28C42.1304 60.31 42.1504 60.33 42.1504 60.36C42.1504 60.38 42.1704 60.41 42.1804 60.43C42.1904 60.45 42.2004 60.47 42.2204 60.5C42.2304 60.52 42.2504 60.54 42.2604 60.57C42.2704 60.59 42.2904 60.61 42.3104 60.63C42.3204 60.65 42.3404 60.66 42.3504 60.68H40.4804C39.5004 60.68 38.7004 59.88 38.7004 58.9C38.7004 55.5 35.6104 52.69 34.6604 51.91L34.4804 51.77C34.4804 51.77 34.4704 51.76 34.4604 51.75C30.8404 48.73 28.7704 44.3 28.7704 39.6C28.7704 30.88 35.8604 23.79 44.5804 23.79C53.3004 23.79 60.3904 30.88 60.3904 39.6C60.3904 44.3 58.3204 48.73 54.7004 51.75M41.4904 40.85C42.2004 41.78 43.3204 42.39 44.5904 42.39C45.8604 42.39 46.9704 41.78 47.6904 40.85C48.3604 41.74 49.4104 42.32 50.5904 42.38C45.7504 50.97 45.4004 57.09 45.4704 59.32H43.7804C43.8504 57.1 43.5004 50.97 38.6604 42.38C39.8204 42.3 40.8304 41.72 41.5004 40.85M44.6004 22.19C35.0004 22.19 27.1904 30 27.1904 39.6C27.1904 44.78 29.4704 49.65 33.4604 52.97C33.4604 52.97 33.4804 52.98 33.4804 52.99C33.5304 53.03 33.5704 53.07 33.6204 53.1L33.6704 53.14C34.2504 53.61 37.1204 56.12 37.1204 58.89C37.1204 60.75 38.6304 62.27 40.5004 62.27H48.6904C50.5504 62.27 52.0704 60.76 52.0704 58.89C52.0704 56.12 54.9504 53.61 55.5204 53.14L55.5804 53.09C55.5804 53.09 55.6804 53.01 55.7204 52.98C55.7404 52.96 55.7704 52.94 55.7904 52.92C59.7504 49.6 62.0104 44.74 62.0104 39.58C62.0104 29.98 54.2004 22.17 44.6104 22.17" fill="white"/>
<path d="M44.6203 20.92C45.0603 20.92 45.4203 20.56 45.4203 20.12V15.8C45.4203 15.36 45.0603 15 44.6203 15C44.1803 15 43.8203 15.36 43.8203 15.8V20.12C43.8203 20.56 44.1803 20.92 44.6203 20.92Z" fill="white"/>
<path d="M30.2898 26.34C30.4498 26.5 30.6498 26.57 30.8498 26.57C31.0498 26.57 31.2598 26.49 31.4098 26.34C31.7198 26.03 31.7198 25.53 31.4098 25.21L28.3498 22.15C28.0398 21.84 27.5398 21.84 27.2198 22.15C26.9098 22.46 26.9098 22.97 27.2198 23.28L30.2798 26.34H30.2898Z" fill="white"/>
<path d="M25.12 38.71H20.8C20.36 38.71 20 39.07 20 39.51C20 39.95 20.36 40.31 20.8 40.31H25.12C25.56 40.31 25.92 39.95 25.92 39.51C25.92 39.07 25.56 38.71 25.12 38.71Z" fill="white"/>
<path d="M30.2105 52.72L27.1505 55.78C26.8405 56.09 26.8405 56.6 27.1505 56.91C27.3105 57.06 27.5105 57.14 27.7105 57.14C27.9105 57.14 28.1205 57.06 28.2705 56.91L31.3305 53.85C31.6405 53.54 31.6405 53.03 31.3305 52.72C31.0205 52.41 30.5105 52.41 30.2005 52.72" fill="white"/>
<path d="M58.84 52.8C58.53 52.49 58.02 52.49 57.71 52.8C57.4 53.11 57.4 53.62 57.71 53.93L60.77 56.99C60.92 57.14 61.13 57.22 61.33 57.22C61.53 57.22 61.74 57.14 61.89 56.99C62.2 56.68 62.2 56.17 61.89 55.86L58.83 52.8H58.84Z" fill="white"/>
<path d="M68.33 38.83H64.0099C63.5699 38.83 63.21 39.19 63.21 39.63C63.21 40.07 63.5699 40.43 64.0099 40.43H68.33C68.77 40.43 69.1299 40.07 69.1299 39.63C69.1299 39.19 68.77 38.83 68.33 38.83Z" fill="white"/>
<path d="M60.8501 22.24L57.7901 25.3C57.4801 25.61 57.4801 26.12 57.7901 26.43C57.9501 26.58 58.1501 26.66 58.3501 26.66C58.5501 26.66 58.7601 26.58 58.9101 26.43L61.9701 23.37C62.2801 23.06 62.2801 22.55 61.9701 22.24C61.6601 21.93 61.1501 21.93 60.8401 22.24" fill="white"/>
<path d="M44.5698 24.82C36.3998 24.82 29.7598 31.46 29.7598 39.63C29.7598 40.07 30.1198 40.43 30.5598 40.43C30.9998 40.43 31.3598 40.07 31.3598 39.63C31.3598 32.34 37.2898 26.41 44.5798 26.41C45.0198 26.41 45.3798 26.05 45.3798 25.61C45.3798 25.17 45.0198 24.81 44.5798 24.81" fill="white"/>
</svg>
