<svg width="85" height="85" viewBox="0 0 85 85" fill="none" xmlns="http://www.w3.org/2000/svg">
<path d="M41.3299 42.9398C41.5599 43.1698 41.8499 43.2799 42.1499 43.2799C42.4499 43.2799 42.7499 43.1698 42.9799 42.9398L58.1299 27.6999C58.3399 27.4799 58.4699 27.1899 58.4699 26.8899L58.5399 18.9099L68.61 8.83986V13.8798C68.61 14.5198 69.1299 15.0499 69.7799 15.0499H75.6799L64.5299 26.1999C64.0699 26.6598 64.0699 27.3899 64.5299 27.8499C64.9899 28.2999 65.7299 28.2999 66.1799 27.8499L79.3199 14.7099C79.6499 14.3799 79.7499 13.8698 79.5699 13.4398C79.3899 12.9998 78.9599 12.7199 78.4899 12.7199H70.9399V6.02987C70.9399 5.55987 70.6599 5.12985 70.2199 4.94985C69.7799 4.76985 69.2799 4.86985 68.9499 5.19985L56.5499 17.5999C56.3299 17.8199 56.2099 18.1099 56.2099 18.4099L56.1399 26.3999L41.3199 41.3098C40.8699 41.7698 40.8699 42.5099 41.3199 42.9599" fill="white"/>
<path d="M42.1499 27.9299C42.7899 27.9299 43.3199 27.4098 43.3199 26.7598C43.3199 26.1098 42.7999 25.5898 42.1499 25.5898C33.0399 25.5898 25.6299 32.9999 25.6299 42.1099C25.6299 51.2199 33.0399 58.6298 42.1499 58.6298C51.2599 58.6298 58.6699 51.2199 58.6699 42.1099C58.6699 41.4599 58.1499 40.9398 57.4999 40.9398C56.8499 40.9398 56.3299 41.4599 56.3299 42.1099C56.3299 49.9299 49.9699 56.2899 42.1499 56.2899C34.3299 56.2899 27.9599 49.9299 27.9599 42.1099C27.9599 34.2899 34.3199 27.9199 42.1499 27.9199" fill="white"/>
<path d="M44.9201 14.0999C44.9601 13.4599 44.4601 12.9098 43.8201 12.8698C43.2701 12.8398 42.7101 12.8198 42.1601 12.8198C26.0101 12.8198 12.8701 25.9599 12.8701 42.1099C12.8701 58.2599 26.0101 71.3998 42.1601 71.3998C58.3101 71.3998 71.4501 58.2599 71.4501 42.1099C71.4501 41.4099 71.4201 40.7098 71.3801 40.0198C71.3301 39.3798 70.7801 38.8898 70.1301 38.9398C69.4901 38.9798 69.0001 39.5398 69.0501 40.1898C69.0901 40.8298 69.1201 41.4699 69.1201 42.1099C69.1201 56.9799 57.0301 69.0698 42.1601 69.0698C27.2901 69.0698 15.2001 56.9799 15.2001 42.1099C15.2001 27.2399 27.2901 15.1498 42.1601 15.1498C42.6701 15.1498 43.1901 15.1598 43.6901 15.1898C44.3301 15.2298 44.8801 14.7298 44.9201 14.0898" fill="white"/>
<path d="M82.44 29.78C82.25 29.16 81.6 28.82 80.98 29.01C80.36 29.2 80.02 29.85 80.2 30.47C81.35 34.23 81.93 38.15 81.93 42.12C81.93 64.06 64.08 81.91 42.14 81.91C20.2 81.91 2.34998 64.06 2.34998 42.12C2.34998 20.18 20.2 2.33002 42.14 2.33002C46.01 2.33002 49.83 2.88004 53.5 3.98004C54.12 4.16004 54.77 3.81 54.95 3.19C55.13 2.57 54.78 1.92005 54.16 1.74005C50.27 0.580051 46.23 0 42.13 0C30.88 0 20.3 4.38003 12.34 12.34C4.38 20.3 0 30.88 0 42.13C0 53.38 4.38 63.96 12.34 71.92C20.3 79.88 30.88 84.26 42.13 84.26C53.38 84.26 63.96 79.88 71.92 71.92C79.88 63.96 84.26 53.38 84.26 42.13C84.26 37.93 83.64 33.78 82.43 29.79" fill="white"/>
</svg>
