<svg width="86" height="95" viewBox="0 0 86 95" fill="none" xmlns="http://www.w3.org/2000/svg">
<path d="M42.6305 42.5699C45.1005 42.5699 47.1005 44.5799 47.1005 47.0399C47.1005 49.4999 45.0905 51.5199 42.6305 51.5199C40.1705 51.5199 38.1505 49.5099 38.1505 47.0399C38.1505 44.5699 40.1605 42.5699 42.6305 42.5699ZM42.6305 53.95C46.4405 53.95 49.5305 50.8499 49.5305 47.0499C49.5305 43.2499 46.4305 40.1499 42.6305 40.1499C38.8305 40.1499 35.7305 43.2499 35.7305 47.0499C35.7305 50.8499 38.8305 53.95 42.6305 53.95Z" fill="white"/>
<path d="M54.12 64.2C59.64 60.49 63.28 54.1899 63.28 47.0499C63.28 39.9099 59.64 33.6099 54.12 29.8999C62.57 31.6799 71.83 36.1899 82.37 47.0499C71.83 57.8999 62.57 62.42 54.12 64.2ZM42.63 28.8399C52.68 28.8399 60.85 37.0099 60.85 47.0599C60.85 57.1099 52.68 65.2799 42.63 65.2799C32.58 65.2799 24.41 57.1099 24.41 47.0599C24.41 37.0099 32.58 28.8399 42.63 28.8399ZM2.89 47.0599C13.43 36.1999 22.69 31.6899 31.14 29.9099C25.62 33.6199 21.98 39.9199 21.98 47.0599C21.98 54.1999 25.62 60.4899 31.14 64.2099C22.69 62.4299 13.43 57.9199 2.89 47.0599ZM84.93 46.2199C68.41 28.8099 54.84 26.4099 42.63 26.4099C30.42 26.4099 16.84 28.8099 0.33 46.2199C-0.11 46.6899 -0.11 47.4199 0.33 47.8899C16.85 65.2999 30.42 67.7 42.63 67.7C54.84 67.7 68.42 65.2999 84.93 47.8899C85.37 47.4199 85.37 46.6899 84.93 46.2199Z" fill="white"/>
<path d="M42.6299 14.13C43.2999 14.13 43.84 13.59 43.84 12.92V1.21997C43.84 0.549971 43.2999 0 42.6299 0C41.9599 0 41.4199 0.539971 41.4199 1.21997V12.92C41.4199 13.59 41.9599 14.13 42.6299 14.13Z" fill="white"/>
<path d="M15.5704 20.1801C15.8104 20.4101 16.1104 20.52 16.4104 20.52C16.7104 20.52 17.0404 20.4 17.2804 20.15C17.7504 19.67 17.7404 18.9001 17.2504 18.4301L8.68038 10.1201C8.20038 9.65007 7.43041 9.66004 6.96041 10.15C6.49041 10.63 6.50037 11.4001 6.99037 11.8701L15.5604 20.1801H15.5704Z" fill="white"/>
<path d="M68.8504 20.5199C69.1504 20.5199 69.4605 20.4099 69.6905 20.1799L78.2605 11.8699C78.7405 11.3999 78.7504 10.6299 78.2904 10.1499C77.8204 9.66987 77.0505 9.6599 76.5705 10.1199L68.0005 18.4299C67.5205 18.8999 67.5105 19.6699 67.9705 20.1499C68.2105 20.3999 68.5205 20.5199 68.8405 20.5199" fill="white"/>
<path d="M42.6299 79.97C41.9599 79.97 41.4199 80.51 41.4199 81.19V92.89C41.4199 93.56 41.9599 94.11 42.6299 94.11C43.2999 94.11 43.84 93.57 43.84 92.89V81.19C43.84 80.52 43.2999 79.97 42.6299 79.97Z" fill="white"/>
<path d="M15.5705 73.9199L7.00046 82.2299C6.52046 82.6999 6.51049 83.47 6.97049 83.95C7.21049 84.2 7.52048 84.3199 7.84048 84.3199C8.16048 84.3199 8.45046 84.2099 8.69046 83.9799L17.2605 75.6699C17.7405 75.1999 17.7504 74.43 17.2904 73.95C16.8204 73.47 16.0505 73.4599 15.5705 73.9199Z" fill="white"/>
<path d="M69.6901 73.9201C69.2101 73.4501 68.4402 73.4701 67.9702 73.9501C67.5002 74.4301 67.5101 75.2001 68.0001 75.6701L76.5701 83.9801C76.8101 84.2101 77.1101 84.3201 77.4201 84.3201C77.7301 84.3201 78.0501 84.2001 78.2901 83.9501C78.7601 83.4701 78.7501 82.7001 78.2601 82.2301L69.6901 73.9201Z" fill="white"/>
</svg>
